<svg width="24" height="24" viewBox="0 0 24 24" fill="none" xmlns="http://www.w3.org/2000/svg">
<path d="M20 11.0002C19.7554 9.24041 18.9391 7.60985 17.6766 6.35969C16.4142 5.10953 14.7758 4.30911 13.0137 4.08175C11.2516 3.85438 9.46362 4.21268 7.9252 5.10144C6.38678 5.9902 5.18325 7.36013 4.5 9.00019M4 5.00019V9.00019H8M4 13.0002C4.468 16.6002 7.384 19.5462 11 20.0002M18 15.0002H20C20.2652 15.0002 20.5196 15.1055 20.7071 15.2931C20.8946 15.4806 21 15.735 21 16.0002V17.0002C21 17.2654 20.8946 17.5198 20.7071 17.7073C20.5196 17.8948 20.2652 18.0002 20 18.0002H19C18.7348 18.0002 18.4804 18.1055 18.2929 18.2931C18.1054 18.4806 18 18.735 18 19.0002V20.0002C18 20.2654 18.1054 20.5198 18.2929 20.7073C18.4804 20.8948 18.7348 21.0002 19 21.0002H21M15 21.0002V15.0002" stroke="currentColor" stroke-width="1.5" stroke-linecap="round" stroke-linejoin="round"/>
</svg>
