<svg width="24" height="24" viewBox="0 0 24 24" fill="none" xmlns="http://www.w3.org/2000/svg">
<path fill-rule="evenodd" clip-rule="evenodd" d="M7.55011 4.45178C9.23097 3.48072 11.1845 3.08925 13.1097 3.33767C15.035 3.58609 16.8251 4.46061 18.2045 5.82653C19.5838 7.19245 20.4757 8.97399 20.7429 10.8967C20.8 11.307 20.5136 11.6858 20.1033 11.7428C19.693 11.7998 19.3142 11.5135 19.2572 11.1032C19.0353 9.50635 18.2945 8.02677 17.149 6.89236C16.0034 5.75795 14.5167 5.03165 12.9178 4.82534C11.3188 4.61902 9.69643 4.94414 8.30046 5.75061C7.2436 6.36117 6.36092 7.22198 5.7254 8.24995H8.00008C8.4143 8.24995 8.75008 8.58574 8.75008 8.99995C8.75008 9.41417 8.4143 9.74995 8.00008 9.74995H4.51685C4.50549 9.75021 4.49411 9.75021 4.48271 9.74995H4.00008C3.58587 9.74995 3.25008 9.41417 3.25008 8.99995V4.99995C3.25008 4.58574 3.58587 4.24995 4.00008 4.24995C4.4143 4.24995 4.75008 4.58574 4.75008 4.99995V7.00691C5.48357 5.96916 6.43654 5.0951 7.55011 4.45178ZM3.9046 12.2561C4.31544 12.2033 4.69124 12.4936 4.74398 12.9045C5.03849 15.1989 6.45387 17.2452 8.37407 18.3498C8.73311 18.5564 8.85673 19.0149 8.65019 19.3739C8.44364 19.733 7.98514 19.8566 7.6261 19.6501C5.3083 18.3167 3.61167 15.865 3.25619 13.0954C3.20345 12.6846 3.49375 12.3088 3.9046 12.2561ZM11.2501 15C11.2501 14.5857 11.5859 14.25 12.0001 14.25H14.0001C14.4642 14.25 14.9093 14.4343 15.2375 14.7625C15.5657 15.0907 15.7501 15.5358 15.7501 16V17C15.7501 17.4641 15.5657 17.9092 15.2375 18.2374C14.9093 18.5656 14.4642 18.75 14.0001 18.75H13.0001C12.9338 18.75 12.8702 18.7763 12.8233 18.8232C12.7764 18.8701 12.7501 18.9336 12.7501 19V20C12.7501 20.0663 12.7764 20.1298 12.8233 20.1767C12.8702 20.2236 12.9338 20.25 13.0001 20.25H15.0001C15.4143 20.25 15.7501 20.5857 15.7501 21C15.7501 21.4142 15.4143 21.75 15.0001 21.75H13.0001C12.536 21.75 12.0908 21.5656 11.7626 21.2374C11.4345 20.9092 11.2501 20.4641 11.2501 20V19C11.2501 18.5358 11.4345 18.0907 11.7626 17.7625C12.0908 17.4343 12.536 17.25 13.0001 17.25H14.0001C14.0664 17.25 14.13 17.2236 14.1769 17.1767C14.2237 17.1298 14.2501 17.0663 14.2501 17V16C14.2501 15.9336 14.2237 15.8701 14.1769 15.8232C14.13 15.7763 14.0664 15.75 14.0001 15.75H12.0001C11.5859 15.75 11.2501 15.4142 11.2501 15ZM18.0001 14.25C18.4143 14.25 18.7501 14.5857 18.7501 15V17C18.7501 17.0663 18.7764 17.1298 18.8233 17.1767C18.8702 17.2236 18.9338 17.25 19.0001 17.25H20.0001C20.0877 17.25 20.1719 17.265 20.2501 17.2926V15C20.2501 14.5857 20.5859 14.25 21.0001 14.25C21.4143 14.25 21.7501 14.5857 21.7501 15V21C21.7501 21.4142 21.4143 21.75 21.0001 21.75C20.5859 21.75 20.2501 21.4142 20.2501 21V18.7073C20.1719 18.7349 20.0877 18.75 20.0001 18.75H19.0001C18.536 18.75 18.0908 18.5656 17.7626 18.2374C17.4345 17.9092 17.2501 17.4641 17.2501 17V15C17.2501 14.5857 17.5859 14.25 18.0001 14.25Z" fill="currentColor"/>
</svg>
