<svg width="24" height="24" viewBox="0 0 24 24" fill="none" xmlns="http://www.w3.org/2000/svg">
<path d="M16.0002 18H19.0002C19.8102 18 20.5002 18.68 20.5002 19.5L20.4802 19.52C20.4802 20.33 19.8102 21 19.0002 21H16.0002V18ZM16.0002 18L18.5002 18C19.3402 18 20.0002 17.34 20.0002 16.5C20.0002 15.66 19.3402 14.99 18.5002 15H16.0002V18ZM4.00024 9V5C4.00024 3.964 4.89524 3 6.00024 3C7.10524 3 8.00024 3.964 8.00024 5V9M2.99023 11.98C2.99023 14.3669 3.93845 16.6561 5.62627 18.3439C7.3141 20.0318 9.60329 20.98 11.9902 20.98M20.9902 11.98C20.9902 9.59303 20.042 7.30385 18.3542 5.61602C16.6664 3.92819 14.3772 2.97998 11.9902 2.97998M8.00024 7H4.00024" stroke="currentColor" stroke-width="1.5" stroke-linecap="round" stroke-linejoin="round"/>
</svg>
