<svg width="24" height="24" viewBox="0 0 24 24" fill="none" xmlns="http://www.w3.org/2000/svg">
<path d="M17 3.34001C18.5083 4.21087 19.7629 5.46054 20.6398 6.96531C21.5167 8.47009 21.9854 10.1778 21.9994 11.9194C22.0135 13.6609 21.5725 15.376 20.72 16.8947C19.8676 18.4135 18.6332 19.6832 17.1392 20.5783C15.6452 21.4734 13.9434 21.9628 12.2021 21.9981C10.4608 22.0333 8.74055 21.6132 7.21155 20.7793C5.68256 19.9453 4.39787 18.7265 3.48467 17.2435C2.57146 15.7605 2.06141 14.0647 2.005 12.324L2 12L2.005 11.676C2.061 9.94901 2.56355 8.26598 3.46364 6.79101C4.36373 5.31604 5.63065 4.09947 7.14089 3.2599C8.65113 2.42033 10.3531 1.98641 12.081 2.00045C13.8089 2.01449 15.5036 2.47601 17 3.34001ZM15.949 10.184C15.8715 9.95156 15.7114 9.75564 15.4991 9.63342C15.2867 9.51121 15.0369 9.47121 14.797 9.52101L14.684 9.55101L12 10.446L9.316 9.55101L9.203 9.52101C8.96333 9.47169 8.71388 9.51195 8.5019 9.63418C8.28992 9.75641 8.13011 9.95212 8.05273 10.1843C7.97535 10.4164 7.98577 10.6689 8.08202 10.8938C8.17827 11.1188 8.35366 11.3007 8.575 11.405L8.684 11.449L11 12.22V13.196L9.168 15.946L9.108 16.046C9.00661 16.2452 8.97487 16.4726 9.01782 16.6919C9.06078 16.9112 9.17597 17.1098 9.345 17.256L9.445 17.332L9.546 17.392C9.74517 17.4934 9.97255 17.5251 10.1919 17.4822C10.4112 17.4392 10.6098 17.324 10.756 17.155L10.832 17.055L12 15.303L13.168 17.055L13.238 17.148C13.3967 17.335 13.6185 17.4572 13.8614 17.4913C14.1042 17.5255 14.3512 17.4692 14.5552 17.3331C14.7593 17.1971 14.9062 16.9908 14.9682 16.7535C15.0301 16.5162 15.0026 16.2644 14.891 16.046L14.832 15.946L13 13.196V12.219L15.316 11.448L15.425 11.404C15.6467 11.3 15.8225 11.1182 15.9191 10.8931C16.0157 10.6681 16.0263 10.4154 15.949 10.183V10.184ZM12 6.00001C11.6022 6.00001 11.2206 6.15805 10.9393 6.43935C10.658 6.72066 10.5 7.10219 10.5 7.50001C10.5 7.89784 10.658 8.27937 10.9393 8.56068C11.2206 8.84198 11.6022 9.00001 12 9.00001C12.3978 9.00001 12.7794 8.84198 13.0607 8.56068C13.342 8.27937 13.5 7.89784 13.5 7.50001C13.5 7.10219 13.342 6.72066 13.0607 6.43935C12.7794 6.15805 12.3978 6.00001 12 6.00001Z" fill="currentColor"/>
</svg>
