<svg width="24" height="24" viewBox="0 0 24 24" fill="none" xmlns="http://www.w3.org/2000/svg">
<path d="M12 12V12.01M14.8281 9.17203C15.578 9.92214 15.9993 10.9394 15.9993 12C15.9993 13.0607 15.578 14.0779 14.8281 14.828M17.6572 6.34302C18.4001 7.08589 18.9895 7.96782 19.3915 8.93846C19.7936 9.90909 20.0005 10.9494 20.0005 12C20.0005 13.0506 19.7936 14.0909 19.3915 15.0616C18.9895 16.0322 18.4001 16.9141 17.6572 17.657M9.16822 14.828C8.41833 14.0779 7.99707 13.0607 7.99707 12C7.99707 10.9394 8.41833 9.92214 9.16822 9.17203M6.33694 17.657C5.59403 16.9141 5.00472 16.0322 4.60266 15.0616C4.20059 14.0909 3.99365 13.0506 3.99365 12C3.99365 10.9494 4.20059 9.90909 4.60266 8.93846C5.00472 7.96782 5.59403 7.08589 6.33694 6.34302" stroke="currentColor" stroke-width="1.5" stroke-linecap="round" stroke-linejoin="round"/>
</svg>
