<svg width="24" height="24" viewBox="0 0 24 24" fill="none" xmlns="http://www.w3.org/2000/svg">
<path d="M10.0001 16.5001L12.0001 13.5001M12.0001 13.5001L14.0001 16.5001M12.0001 13.5001V12.0001M14.6271 10.6241L15.0001 10.5001M9.00008 10.5001L11.2311 11.2441M20.0421 16.0451C20.8941 14.354 21.191 12.4372 20.8905 10.5675C20.5901 8.69789 19.7075 6.97066 18.3685 5.63165C17.0295 4.29265 15.3023 3.41011 13.4326 3.10964C11.563 2.80916 9.6462 3.10607 7.95507 3.9581M5.63708 5.6351C4.79001 6.46815 4.11627 7.46067 3.65471 8.55541C3.19315 9.65015 2.95291 10.8254 2.94784 12.0135C2.94277 13.2015 3.17297 14.3788 3.62517 15.4775C4.07737 16.5761 4.74262 17.5744 5.58254 18.4146C6.42247 19.2549 7.42044 19.9205 8.5189 20.3731C9.61736 20.8258 10.7946 21.0564 11.9826 21.0518C13.1707 21.0472 14.3461 20.8074 15.441 20.3463C16.5359 19.8852 17.5287 19.2118 18.3621 18.3651M12.0001 8.00012C12.099 8.00012 12.1956 7.9708 12.2779 7.91586C12.3601 7.86092 12.4242 7.78283 12.462 7.69146C12.4999 7.6001 12.5098 7.49957 12.4905 7.40258C12.4712 7.30559 12.4236 7.2165 12.3536 7.14657C12.2837 7.07664 12.1946 7.02902 12.0976 7.00973C12.0006 6.99044 11.9001 7.00034 11.8087 7.03818C11.7174 7.07603 11.6393 7.14011 11.5843 7.22234C11.5294 7.30456 11.5001 7.40123 11.5001 7.50012M3.00008 3.00012L21.0001 21.0001" stroke="currentColor" stroke-width="1.5" stroke-linecap="round" stroke-linejoin="round"/>
</svg>
