<svg width="24" height="24" viewBox="0 0 24 24" fill="none" xmlns="http://www.w3.org/2000/svg">
<path d="M3 3L21 21M14.8281 9.172C15.5783 9.92197 15.9999 10.9392 16.0001 12M17.6572 6.34299C18.8071 7.49227 19.5795 8.9646 19.8716 10.5639C20.1637 12.1631 19.9616 13.8134 19.2922 15.295M9.16822 14.828C8.41833 14.0779 7.99707 13.0607 7.99707 12C7.99707 10.9393 8.41833 9.92211 9.16822 9.172M6.33694 17.657C5.59403 16.9141 5.00472 16.0322 4.60266 15.0616C4.20059 14.0909 3.99365 13.0506 3.99365 12C3.99365 10.9494 4.20059 9.90906 4.60266 8.93842C5.00472 7.96779 5.59403 7.08586 6.33694 6.34299" stroke="currentColor" stroke-width="1.5" stroke-linecap="round" stroke-linejoin="round"/>
</svg>
