<svg width="24" height="24" viewBox="0 0 24 24" fill="none" xmlns="http://www.w3.org/2000/svg">
<path d="M6 12C5.46957 12 4.96086 11.7893 4.58579 11.4142C4.21071 11.0391 4 10.5304 4 10C4 9.46957 4.21071 8.96086 4.58579 8.58579C4.96086 8.21071 5.46957 8 6 8M6 12C6.53043 12 7.03914 11.7893 7.41421 11.4142C7.78929 11.0391 8 10.5304 8 10C8 9.46957 7.78929 8.96086 7.41421 8.58579C7.03914 8.21071 6.53043 8 6 8M6 12V20M6 8V4M13.9268 15.462C13.8266 15.1034 13.6283 14.7798 13.3542 14.5278C13.0801 14.2757 12.7411 14.1052 12.3753 14.0354C12.0095 13.9657 11.6316 13.9994 11.2839 14.1328C10.9363 14.2662 10.6328 14.494 10.4076 14.7906C10.1824 15.0872 10.0445 15.4407 10.0094 15.8114C9.97429 16.1821 10.0434 16.5553 10.2088 16.8888C10.3743 17.2224 10.6296 17.5031 10.9461 17.6995C11.2625 17.8958 11.6274 17.9999 11.9998 18L12 20M12 4V14M18 9C17.4696 9 16.9609 8.78929 16.5858 8.41421C16.2107 8.03914 16 7.53043 16 7C16 6.46957 16.2107 5.96086 16.5858 5.58579C16.9609 5.21071 17.4696 5 18 5M18 9C18.5304 9 19.0391 8.78929 19.4142 8.41421C19.7893 8.03914 20 7.53043 20 7C20 6.46957 19.7893 5.96086 19.4142 5.58579C19.0391 5.21071 18.5304 5 18 5M18 9V12M18 5V4M19 22V16M19 16L22 19M19 16L16 19" stroke="currentColor" stroke-width="1.5" stroke-linecap="round" stroke-linejoin="round"/>
</svg>
