<svg width="24" height="24" viewBox="0 0 24 24" fill="none" xmlns="http://www.w3.org/2000/svg">
<path d="M6 12C5.46957 12 4.96086 11.7893 4.58579 11.4142C4.21071 11.0391 4 10.5304 4 10C4 9.46957 4.21071 8.96086 4.58579 8.58579C4.96086 8.21071 5.46957 8 6 8M6 12C6.53043 12 7.03914 11.7893 7.41421 11.4142C7.78929 11.0391 8 10.5304 8 10C8 9.46957 7.78929 8.96086 7.41421 8.58579C7.03914 8.21071 6.53043 8 6 8M6 12V20M6 8V4M13.3872 14.56C13.1332 14.3154 12.819 14.1423 12.4765 14.0583C12.134 13.9743 11.7755 13.9823 11.4371 14.0816C11.0987 14.1808 10.7926 14.3678 10.5498 14.6235C10.3069 14.8792 10.136 15.1945 10.0544 15.5375C9.97271 15.8806 9.98319 16.2391 10.0848 16.5768C10.1863 16.9145 10.3754 17.2193 10.6327 17.4604C10.8901 17.7014 11.2066 17.8702 11.5502 17.9495C11.8937 18.0288 12.2522 18.0159 12.5892 17.912M12 4V14M12 18V20M18 9C17.4696 9 16.9609 8.78929 16.5858 8.41421C16.2107 8.03914 16 7.53043 16 7C16 6.46957 16.2107 5.96086 16.5858 5.58579C16.9609 5.21071 17.4696 5 18 5M18 9C18.5304 9 19.0391 8.78929 19.4142 8.41421C19.7893 8.03914 20 7.53043 20 7C20 6.46957 19.7893 5.96086 19.4142 5.58579C19.0391 5.21071 18.5304 5 18 5M18 9V13M18 5V4M16 22L21 17M21 17V21.5M21 17H16.5" stroke="currentColor" stroke-width="1.5" stroke-linecap="round" stroke-linejoin="round"/>
</svg>
