<svg width="24" height="24" viewBox="0 0 24 24" fill="none" xmlns="http://www.w3.org/2000/svg">
<path d="M6 12C5.46957 12 4.96086 11.7893 4.58579 11.4142C4.21071 11.0391 4 10.5304 4 10C4 9.46957 4.21071 8.96086 4.58579 8.58579C4.96086 8.21071 5.46957 8 6 8M6 12C6.53043 12 7.03914 11.7893 7.41421 11.4142C7.78929 11.0391 8 10.5304 8 10C8 9.46957 7.78929 8.96086 7.41421 8.58579C7.03914 8.21071 6.53043 8 6 8M6 12V20M6 8V4M12 4V12.5M18 9C17.4696 9 16.9609 8.78929 16.5858 8.41421C16.2107 8.03914 16 7.53043 16 7C16 6.46957 16.2107 5.96086 16.5858 5.58579C16.9609 5.21071 17.4696 5 18 5M18 9C18.5304 9 19.0391 8.78929 19.4142 8.41421C19.7893 8.03914 20 7.53043 20 7C20 6.46957 19.7893 5.96086 19.4142 5.58579C19.0391 5.21071 18.5304 5 18 5M18 9V11.5M18 5V4M18.0001 22.0001L21.3501 18.7161C21.5556 18.5168 21.719 18.2783 21.8307 18.0147C21.9425 17.7512 22.0003 17.4679 22.0007 17.1817C22.0012 16.8954 21.9443 16.612 21.8334 16.3481C21.7225 16.0841 21.5599 15.8451 21.3551 15.6451C20.9373 15.2364 20.3763 15.0071 19.7918 15.006C19.2074 15.0049 18.6455 15.2321 18.2261 15.6391L18.0021 15.8591L17.7791 15.6391C17.3613 15.2307 16.8006 15.0016 16.2163 15.0005C15.6321 14.9994 15.0705 15.2264 14.6511 15.6331C14.4456 15.8324 14.2821 16.0708 14.1703 16.3343C14.0585 16.5978 14.0006 16.8811 14 17.1673C13.9994 17.4536 14.0562 17.7371 14.167 18.001C14.2778 18.265 14.4404 18.504 14.6451 18.7041L18.0001 22.0001Z" stroke="currentColor" stroke-width="1.5" stroke-linecap="round" stroke-linejoin="round"/>
</svg>
