<svg width="24" height="24" viewBox="0 0 24 24" fill="none" xmlns="http://www.w3.org/2000/svg">
<path d="M6 12C5.46957 12 4.96086 11.7893 4.58579 11.4142C4.21071 11.0391 4 10.5304 4 10C4 9.46957 4.21071 8.96086 4.58579 8.58579C4.96086 8.21071 5.46957 8 6 8M6 12C6.53043 12 7.03914 11.7893 7.41421 11.4142C7.78929 11.0391 8 10.5304 8 10C8 9.46957 7.78929 8.96086 7.41421 8.58579C7.03914 8.21071 6.53043 8 6 8M6 12V20M6 8V4M13.9541 15.574C13.8737 15.2054 13.6907 14.867 13.4262 14.5979C13.1617 14.3288 12.8265 14.1401 12.4593 14.0534C12.092 13.9668 11.7078 13.9858 11.3509 14.1083C10.994 14.2307 10.6791 14.4516 10.4424 14.7454C10.2057 15.0393 10.057 15.3941 10.0134 15.7689C9.9698 16.1436 10.0331 16.5231 10.196 16.8634C10.3589 17.2038 10.6147 17.4911 10.9339 17.6922C11.2532 17.8933 11.6228 18 12.0001 18L12 20M12 4V14M18 9C17.4696 9 16.9609 8.78929 16.5858 8.41421C16.2107 8.03914 16 7.53043 16 7C16 6.46957 16.2107 5.96086 16.5858 5.58579C16.9609 5.21071 17.4696 5 18 5M18 9C18.5304 9 19.0391 8.78929 19.4142 8.41421C19.7893 8.03914 20 7.53043 20 7C20 6.46957 19.7893 5.96086 19.4142 5.58579C19.0391 5.21071 18.5304 5 18 5M18 9V15M18 5V4M16 19H22" stroke="currentColor" stroke-width="1.5" stroke-linecap="round" stroke-linejoin="round"/>
</svg>
