<svg width="24" height="24" viewBox="0 0 24 24" fill="none" xmlns="http://www.w3.org/2000/svg">
<path d="M6 12C5.46957 12 4.96086 11.7893 4.58579 11.4142C4.21071 11.0391 4 10.5304 4 10C4 9.46957 4.21071 8.96086 4.58579 8.58579C4.96086 8.21071 5.46957 8 6 8M6 12C6.53043 12 7.03914 11.7893 7.41421 11.4142C7.78929 11.0391 8 10.5304 8 10C8 9.46957 7.78929 8.96086 7.41421 8.58579C7.03914 8.21071 6.53043 8 6 8M6 12V20M6 8V4M13.6532 14.874C13.4322 14.5496 13.1206 14.2975 12.7572 14.1489C12.3939 14.0004 11.9949 13.9621 11.6099 14.0388C11.2249 14.1154 10.871 14.3037 10.5923 14.5801C10.3135 14.8564 10.1223 15.2087 10.0424 15.5931C9.96246 15.9774 9.9974 16.3767 10.1428 16.7413C10.2883 17.1059 10.5378 17.4196 10.8603 17.6434C11.1828 17.8672 11.564 17.9911 11.9565 17.9998C12.3489 18.0084 12.7352 17.9014 13.0672 17.692M12 4V14M12 18V20M18 9C17.4696 9 16.9609 8.78929 16.5858 8.41421C16.2107 8.03914 16 7.53043 16 7C16 6.46957 16.2107 5.96086 16.5858 5.58579C16.9609 5.21071 17.4696 5 18 5M18 9C18.5304 9 19.0391 8.78929 19.4142 8.41421C19.7893 8.03914 20 7.53043 20 7C20 6.46957 19.7893 5.96086 19.4142 5.58579C19.0391 5.21071 18.5304 5 18 5M18 9V13M18 5V4M22 22L17 17M17 22L22 17" stroke="currentColor" stroke-width="1.5" stroke-linecap="round" stroke-linejoin="round"/>
</svg>
