<svg width="24" height="24" viewBox="0 0 24 24" fill="none" xmlns="http://www.w3.org/2000/svg">
<path d="M6 12C5.46957 12 4.96086 11.7893 4.58579 11.4142C4.21071 11.0391 4 10.5304 4 10C4 9.46957 4.21071 8.96086 4.58579 8.58579C4.96086 8.21071 5.46957 8 6 8M6 12C6.53043 12 7.03914 11.7893 7.41421 11.4142C7.78929 11.0391 8 10.5304 8 10C8 9.46957 7.78929 8.96086 7.41421 8.58579C7.03914 8.21071 6.53043 8 6 8M6 12V20M6 8V4M13.8228 15.1759C13.6893 14.8809 13.4861 14.6228 13.2307 14.4237C12.9753 14.2246 12.6754 14.0905 12.3568 14.0329C12.0381 13.9753 11.7103 13.9959 11.4013 14.093C11.0924 14.1901 10.8117 14.3607 10.5833 14.5902C10.3549 14.8198 10.1856 15.1013 10.0901 15.4107C9.99449 15.7201 9.97548 16.0481 10.0347 16.3664C10.0938 16.6848 10.2294 16.984 10.4298 17.2384C10.6301 17.4928 10.8892 17.6947 11.1849 17.8269M12 4V14M18 9C17.4696 9 16.9609 8.78929 16.5858 8.41421C16.2107 8.03914 16 7.53043 16 7C16 6.46957 16.2107 5.96086 16.5858 5.58579C16.9609 5.21071 17.4696 5 18 5M18 9C18.5304 9 19.0391 8.78929 19.4142 8.41421C19.7893 8.03914 20 7.53043 20 7C20 6.46957 19.7893 5.96086 19.4142 5.58579C19.0391 5.21071 18.5304 5 18 5M18 9V14M18 5V4M15 19L17 21L21 17" stroke="currentColor" stroke-width="1.5" stroke-linecap="round" stroke-linejoin="round"/>
</svg>
