<svg width="24" height="24" viewBox="0 0 24 24" fill="none" xmlns="http://www.w3.org/2000/svg">
<path d="M18.5 2.99994C18.8676 3.00004 19.2306 3.0812 19.5632 3.23762C19.8958 3.39405 20.1898 3.62189 20.4244 3.90493C20.6589 4.18796 20.8281 4.51923 20.9199 4.87512C21.0118 5.23102 21.0241 5.6028 20.9558 5.96398C20.8876 6.32515 20.7406 6.66684 20.5252 6.9647C20.3099 7.26257 20.0315 7.50928 19.7099 7.68727C19.3883 7.86526 19.0314 7.97015 18.6646 7.99446C18.2979 8.01877 17.9303 7.96192 17.588 7.82794L13.032 12.3829C13.781 13.4679 14.1133 14.7866 13.968 16.0969L16.592 16.8839C16.9634 16.4458 17.4743 16.149 18.0388 16.0432C18.6033 15.9375 19.187 16.0294 19.6918 16.3034C20.1965 16.5774 20.5915 17.0169 20.8104 17.5479C21.0292 18.0789 21.0586 18.669 20.8935 19.2191C20.7284 19.7692 20.379 20.2457 19.9039 20.5684C19.4288 20.8912 18.8571 21.0405 18.2849 20.9913C17.7127 20.9421 17.1748 20.6974 16.7618 20.2983C16.3488 19.8993 16.0858 19.3701 16.017 18.7999L13.394 18.0119C12.8395 19.0936 11.9424 19.9611 10.8427 20.4789C9.74303 20.9967 8.50281 21.1356 7.31583 20.874C6.12884 20.6124 5.06195 19.9649 4.28185 19.0328C3.50176 18.1007 3.0524 16.9364 3.004 15.7219L3 15.4999L3.004 15.2789C3.04297 14.3055 3.33979 13.36 3.86408 12.5389C4.38837 11.7179 5.12133 11.0508 5.988 10.6059L5.2 7.98194C4.62353 7.91272 4.08917 7.64486 3.68877 7.22439C3.28837 6.80392 3.04695 6.2571 3.006 5.67794L3 5.49994L3.005 5.33594C3.03206 4.92392 3.16074 4.52503 3.37956 4.17487C3.59838 3.82472 3.90052 3.53422 4.25899 3.32932C4.61746 3.12441 5.0211 3.01148 5.43386 3.00062C5.84662 2.98976 6.25564 3.0813 6.62439 3.26707C6.99314 3.45283 7.31014 3.72704 7.54707 4.0652C7.78401 4.40335 7.93349 4.79493 7.98218 5.20495C8.03087 5.61497 7.97725 6.03067 7.8261 6.41491C7.67496 6.79915 7.43099 7.13998 7.116 7.40694L7.903 10.0319C9.21331 9.88661 10.5321 10.219 11.617 10.9679L16.172 6.41194C16.078 6.17273 16.0217 5.9204 16.005 5.66394L16 5.49994L16.005 5.33594C16.0466 4.70259 16.3276 4.10878 16.791 3.67498C17.2543 3.24117 17.8653 2.99984 18.5 2.99994Z" fill="currentColor"/>
</svg>
