<svg width="24" height="24" viewBox="0 0 24 24" fill="none" xmlns="http://www.w3.org/2000/svg">
<path d="M7.58696 7.56598C6.82706 8.18337 6.20513 8.95331 5.76134 9.82605C5.31755 10.6988 5.06179 11.6549 5.01056 12.6327C4.95934 13.6104 5.1138 14.588 5.46397 15.5024C5.81413 16.4167 6.35221 17.2474 7.04345 17.9408C7.73468 18.6343 8.56369 19.1749 9.47692 19.528C10.3901 19.881 11.3673 20.0386 12.3452 19.9904C13.3231 19.9423 14.28 19.6895 15.1542 19.2485C16.0283 18.8074 16.8002 18.1879 17.42 17.43M18.77 14.785C19.0821 13.6028 19.0791 12.3594 18.7613 11.1787C18.4435 9.99795 17.822 8.92107 16.9586 8.05525C16.0952 7.18943 15.0201 6.56487 13.8402 6.24375C12.6604 5.92264 11.4171 5.91616 10.234 6.22498M12 12V13H13M5.261 5.26489L4.25 5.99989M17 4L19.75 6M3 3L21 21" stroke="currentColor" stroke-width="1.5" stroke-linecap="round" stroke-linejoin="round"/>
</svg>
