<svg width="24" height="24" viewBox="0 0 24 24" fill="none" xmlns="http://www.w3.org/2000/svg">
<path d="M16.0002 6.07206C17.2058 6.76818 18.209 7.76689 18.9104 8.96948C19.6119 10.1721 19.9874 11.5369 19.9998 12.9291C20.0121 14.3212 19.661 15.6925 18.9811 16.9074C18.3011 18.1223 17.3159 19.1387 16.1228 19.8561C14.9297 20.5736 13.57 20.9673 12.1781 20.9982C10.7862 21.0292 9.41037 20.6964 8.18651 20.0328C6.96266 19.3691 5.93319 18.3975 5.19986 17.2141C4.46653 16.0307 4.05472 14.6764 4.00515 13.2851L4.00015 13.0001L4.00515 12.7151C4.05435 11.3358 4.45952 9.99274 5.1813 8.81639C5.90307 7.64004 6.9169 6.67043 8.12424 6.00179C9.33158 5.33315 10.6914 4.98822 12.0714 5.00053C13.4515 5.01285 14.8049 5.38198 16.0002 6.07206ZM14.0002 10.0001H10.0002L9.88315 10.0071C9.6399 10.0357 9.41563 10.1527 9.25287 10.3357C9.09011 10.5187 9.00019 10.7551 9.00015 11.0001L9.00715 11.1171C9.03581 11.3603 9.15275 11.5846 9.33578 11.7473C9.51882 11.9101 9.75522 12 10.0002 12.0001H11.5842L9.29315 14.2931L9.21715 14.3771C8.70315 15.0141 9.14715 16.0001 10.0002 16.0001H14.0002L14.1172 15.9931C14.3604 15.9644 14.5847 15.8475 14.7474 15.6644C14.9102 15.4814 15.0001 15.245 15.0002 15.0001L14.9932 14.8831C14.9645 14.6398 14.8476 14.4155 14.6645 14.2528C14.4815 14.09 14.2451 14.0001 14.0002 14.0001H12.4142L14.7072 11.7071L14.7832 11.6231C15.2972 10.9861 14.8532 10.0001 14.0002 10.0001Z" fill="currentColor"/>
<path d="M6.41215 3.19105C6.61781 3.03833 6.87423 2.97036 7.12853 3.00115C7.38283 3.03194 7.61562 3.15914 7.77889 3.35653C7.94216 3.55391 8.02346 3.80642 8.00601 4.06199C7.98857 4.31755 7.87372 4.55668 7.68515 4.73005L7.58815 4.81005L4.83815 6.81005C4.63257 6.96517 4.37507 7.03499 4.11929 7.00497C3.86351 6.97496 3.62917 6.84741 3.46508 6.64892C3.301 6.45042 3.21982 6.19627 3.23846 5.93941C3.25711 5.68255 3.37413 5.44278 3.56515 5.27005L3.66215 5.19005L6.41215 3.19105Z" fill="currentColor"/>
<path d="M16.1911 3.41206C16.3344 3.21508 16.5445 3.07714 16.7822 3.02412C17.0199 2.97109 17.2688 3.00663 17.4821 3.12406L17.5881 3.19106L20.3381 5.19106C20.5438 5.34064 20.6848 5.56296 20.7323 5.81278C20.7799 6.06261 20.7305 6.32117 20.5941 6.53585C20.4578 6.75053 20.2448 6.90521 19.9985 6.96841C19.7521 7.03161 19.491 6.99859 19.2681 6.87606L19.1621 6.80906L16.4121 4.80906C16.306 4.73177 16.2161 4.63434 16.1475 4.5223C16.079 4.41027 16.0332 4.28584 16.0128 4.15612C15.9924 4.0264 15.9977 3.89392 16.0285 3.76625C16.0592 3.63859 16.1139 3.51823 16.1911 3.41206Z" fill="currentColor"/>
</svg>
