<svg width="24" height="24" viewBox="0 0 24 24" fill="none" xmlns="http://www.w3.org/2000/svg">
<path d="M16.0002 6.07206C17.2058 6.76818 18.209 7.76689 18.9104 8.96948C19.6119 10.1721 19.9874 11.5369 19.9998 12.9291C20.0121 14.3212 19.661 15.6925 18.9811 16.9074C18.3011 18.1223 17.3159 19.1387 16.1228 19.8561C14.9297 20.5736 13.57 20.9673 12.1781 20.9982C10.7862 21.0292 9.41037 20.6964 8.18651 20.0328C6.96266 19.3691 5.93319 18.3975 5.19986 17.2141C4.46653 16.0307 4.05472 14.6764 4.00515 13.2851L4.00015 13.0001L4.00515 12.7151C4.05435 11.3358 4.45952 9.99274 5.1813 8.81639C5.90307 7.64004 6.9169 6.67043 8.12424 6.00179C9.33158 5.33315 10.6914 4.98822 12.0714 5.00053C13.4515 5.01285 14.8049 5.38198 16.0002 6.07206ZM12.0002 10.0001C11.7349 10.0001 11.4806 10.1054 11.293 10.293C11.1055 10.4805 11.0002 10.7348 11.0002 11.0001V12.0001H10.0002L9.88315 12.0071C9.63006 12.0372 9.39801 12.1628 9.23442 12.3582C9.07083 12.5537 8.98804 12.8042 9.00298 13.0587C9.01792 13.3131 9.12945 13.5522 9.31478 13.7272C9.50012 13.9022 9.74527 13.9998 10.0002 14.0001H11.0002V15.0001L11.0072 15.1171C11.0373 15.3702 11.1629 15.6022 11.3583 15.7658C11.5538 15.9294 11.8043 16.0122 12.0588 15.9972C12.3132 15.9823 12.5523 15.8708 12.7273 15.6854C12.9023 15.5001 12.9999 15.2549 13.0002 15.0001V14.0001H14.0002L14.1172 13.9931C14.3702 13.963 14.6023 13.8373 14.7659 13.6419C14.9295 13.4464 15.0123 13.1959 14.9973 12.9415C14.9824 12.687 14.8709 12.4479 14.6855 12.2729C14.5002 12.0979 14.255 12.0003 14.0002 12.0001H13.0002V11.0001L12.9932 10.8831C12.9645 10.6398 12.8476 10.4155 12.6645 10.2528C12.4815 10.09 12.2451 10.0001 12.0002 10.0001Z" fill="currentColor"/>
<path d="M6.41215 3.19105C6.61781 3.03833 6.87423 2.97036 7.12853 3.00115C7.38283 3.03194 7.61562 3.15914 7.77889 3.35653C7.94216 3.55391 8.02346 3.80642 8.00601 4.06199C7.98857 4.31755 7.87372 4.55668 7.68515 4.73005L7.58815 4.81005L4.83815 6.81005C4.63257 6.96517 4.37507 7.03499 4.11929 7.00497C3.86351 6.97496 3.62917 6.84741 3.46508 6.64892C3.301 6.45042 3.21982 6.19627 3.23846 5.93941C3.25711 5.68255 3.37413 5.44278 3.56515 5.27005L3.66215 5.19005L6.41215 3.19105Z" fill="currentColor"/>
<path d="M16.1911 3.41206C16.3344 3.21508 16.5445 3.07714 16.7822 3.02412C17.0199 2.97109 17.2688 3.00663 17.4821 3.12406L17.5881 3.19106L20.3381 5.19106C20.5438 5.34064 20.6848 5.56296 20.7323 5.81278C20.7799 6.06261 20.7305 6.32117 20.5941 6.53585C20.4578 6.75053 20.2448 6.90521 19.9985 6.96841C19.7521 7.03161 19.491 6.99859 19.2681 6.87606L19.1621 6.80906L16.4121 4.80906C16.306 4.73177 16.2161 4.63434 16.1475 4.5223C16.079 4.41027 16.0332 4.28584 16.0128 4.15612C15.9924 4.0264 15.9977 3.89392 16.0285 3.76625C16.0592 3.63859 16.1139 3.51823 16.1911 3.41206Z" fill="currentColor"/>
</svg>
