<svg width="24" height="24" viewBox="0 0 24 24" fill="none" xmlns="http://www.w3.org/2000/svg">
<path d="M16.0001 6.07206C17.2058 6.76818 18.209 7.76689 18.9104 8.96948C19.6119 10.1721 19.9873 11.5369 19.9997 12.9291C20.0121 14.3212 19.661 15.6925 18.981 16.9074C18.3011 18.1223 17.3158 19.1387 16.1227 19.8561C14.9296 20.5736 13.5699 20.9673 12.1781 20.9982C10.7862 21.0292 9.41034 20.6964 8.18648 20.0328C6.96263 19.3691 5.93316 18.3975 5.19983 17.2141C4.46649 16.0307 4.05469 14.6764 4.00512 13.2851L4.00012 13.0001L4.00512 12.7151C4.05432 11.3358 4.45949 9.99274 5.18127 8.81639C5.90304 7.64004 6.91687 6.67043 8.12421 6.00179C9.33155 5.33315 10.6913 4.98822 12.0714 5.00053C13.4515 5.01285 14.8049 5.38198 16.0001 6.07206ZM12.0001 9.00006C11.7349 9.00006 11.4806 9.10542 11.293 9.29295C11.1055 9.48049 11.0001 9.73484 11.0001 10.0001V13.0001L11.0071 13.1171C11.0358 13.3603 11.1527 13.5846 11.3357 13.7473C11.5188 13.9101 11.7552 14 12.0001 14.0001H14.0001L14.1171 13.9931C14.3604 13.9644 14.5846 13.8475 14.7474 13.6644C14.9102 13.4814 15.0001 13.245 15.0001 13.0001L14.9931 12.8831C14.9645 12.6398 14.8475 12.4155 14.6645 12.2528C14.4815 12.09 14.2451 12.0001 14.0001 12.0001H13.0001V10.0001L12.9931 9.88306C12.9645 9.63981 12.8475 9.41553 12.6645 9.25277C12.4815 9.09001 12.2451 9.00009 12.0001 9.00006Z" fill="currentColor"/>
<path d="M6.41215 3.19105C6.61781 3.03833 6.87423 2.97036 7.12853 3.00115C7.38283 3.03194 7.61562 3.15914 7.77889 3.35653C7.94216 3.55391 8.02346 3.80642 8.00601 4.06199C7.98857 4.31755 7.87372 4.55668 7.68515 4.73005L7.58815 4.81005L4.83815 6.81005C4.63257 6.96517 4.37507 7.03499 4.11929 7.00497C3.86351 6.97496 3.62917 6.84741 3.46508 6.64892C3.301 6.45042 3.21982 6.19627 3.23846 5.93941C3.25711 5.68255 3.37413 5.44278 3.56515 5.27005L3.66215 5.19005L6.41215 3.19105Z" fill="currentColor"/>
<path d="M16.1911 3.41206C16.3343 3.21508 16.5445 3.07714 16.7822 3.02412C17.0199 2.97109 17.2688 3.00663 17.4821 3.12406L17.5881 3.19106L20.3381 5.19106C20.5438 5.34064 20.6847 5.56296 20.7323 5.81278C20.7798 6.06261 20.7304 6.32117 20.5941 6.53585C20.4578 6.75053 20.2448 6.90521 19.9985 6.96841C19.7521 7.03161 19.491 6.99859 19.2681 6.87606L19.1621 6.80906L16.4121 4.80906C16.3059 4.73177 16.216 4.63434 16.1475 4.5223C16.079 4.41027 16.0332 4.28584 16.0128 4.15612C15.9924 4.0264 15.9977 3.89392 16.0284 3.76625C16.0592 3.63859 16.1138 3.51823 16.1911 3.41206Z" fill="currentColor"/>
</svg>
