<svg width="24" height="24" viewBox="0 0 24 24" fill="none" xmlns="http://www.w3.org/2000/svg">
<path d="M10.425 1.41399C10.8858 1.15986 11.4003 1.01857 11.9263 1.00171C12.4523 0.984849 12.9748 1.09289 13.451 1.31699L13.641 1.41399L20.416 5.40899L20.512 5.47199L20.604 5.54899L20.711 5.62399C21.0585 5.88459 21.3498 6.21274 21.5674 6.58873C21.7849 6.96472 21.9243 7.3808 21.977 7.81199L21.995 8.01399L22 8.21799V15.502C22 16.608 21.43 17.631 20.546 18.195L20.376 18.295L13.573 22.597C12.655 23.101 11.554 23.132 10.569 22.665L10.373 22.565L3.678 18.328C3.20148 18.0674 2.79847 17.6908 2.50636 17.233C2.21424 16.7751 2.04248 16.2509 2.007 15.709L2 15.502V8.21699C2 7.11099 2.57 6.08899 3.476 5.51199L10.425 1.41399ZM12.01 15L11.883 15.007C11.64 15.0359 11.4159 15.1529 11.2534 15.336C11.0909 15.519 11.0011 15.7552 11.0011 16C11.0011 16.2447 11.0909 16.481 11.2534 16.664C11.4159 16.847 11.64 16.9641 11.883 16.993L12 17L12.127 16.993C12.37 16.9641 12.5941 16.847 12.7566 16.664C12.9191 16.481 13.0089 16.2447 13.0089 16C13.0089 15.7552 12.9191 15.519 12.7566 15.336C12.5941 15.1529 12.37 15.0359 12.127 15.007L12.01 15ZM12 6.99999C11.7551 7.00002 11.5187 7.08994 11.3356 7.2527C11.1526 7.41546 11.0357 7.63973 11.007 7.88299L11 7.99999V12L11.007 12.117C11.0359 12.36 11.153 12.584 11.336 12.7466C11.519 12.9091 11.7552 12.9989 12 12.9989C12.2448 12.9989 12.481 12.9091 12.664 12.7466C12.847 12.584 12.9641 12.36 12.993 12.117L13 12V7.99999L12.993 7.88299C12.9643 7.63973 12.8474 7.41546 12.6644 7.2527C12.4813 7.08994 12.2449 7.00002 12 6.99999Z" fill="currentColor"/>
</svg>
