<svg width="24" height="24" viewBox="0 0 24 24" fill="none" xmlns="http://www.w3.org/2000/svg">
<path d="M21.998 17.9972C21.9842 17.6902 21.8968 17.3911 21.743 17.1252L13.637 3.59117C13.4664 3.30967 13.2262 3.07691 12.9394 2.91536C12.6527 2.75382 12.3291 2.66895 12 2.66895C11.6709 2.66895 11.3473 2.75382 11.0605 2.91536C10.7738 3.07691 10.5335 3.30967 10.363 3.59117L9.32299 5.32717M7.82999 7.82017L2.25699 17.1242C2.08988 17.4136 2.00145 17.7416 2.0005 18.0758C1.99954 18.41 2.08609 18.7386 2.25153 19.0289C2.41698 19.3192 2.65555 19.5612 2.94353 19.7307C3.2315 19.9002 3.55884 19.9914 3.89299 19.9952H20M12 16.0001H12.01M3 3.00012L21 21.0001M12 7.00012V8.00012" stroke="currentColor" stroke-width="1.5" stroke-linecap="round" stroke-linejoin="round"/>
</svg>
