<svg width="24" height="24" viewBox="0 0 24 24" fill="none" xmlns="http://www.w3.org/2000/svg">
<path d="M19 2C19.7652 1.99996 20.5015 2.29233 21.0583 2.81728C21.615 3.34224 21.9501 4.06011 21.995 4.824L22 5V19C22 19.7652 21.7077 20.5015 21.1827 21.0583C20.6578 21.615 19.9399 21.9501 19.176 21.995L19 22H5C4.23479 22 3.49849 21.7077 2.94174 21.1827C2.38499 20.6578 2.04989 19.9399 2.005 19.176L2 19V5C1.99996 4.23479 2.29233 3.49849 2.81728 2.94174C3.34224 2.38499 4.06011 2.04989 4.824 2.005L5 2H19ZM12.01 15L11.883 15.007C11.64 15.0359 11.4159 15.153 11.2534 15.336C11.0909 15.519 11.0011 15.7552 11.0011 16C11.0011 16.2448 11.0909 16.481 11.2534 16.664C11.4159 16.847 11.64 16.9641 11.883 16.993L12 17L12.127 16.993C12.37 16.9641 12.5941 16.847 12.7566 16.664C12.9191 16.481 13.0089 16.2448 13.0089 16C13.0089 15.7552 12.9191 15.519 12.7566 15.336C12.5941 15.153 12.37 15.0359 12.127 15.007L12.01 15ZM12 7C11.7551 7.00003 11.5187 7.08996 11.3356 7.25272C11.1526 7.41547 11.0357 7.63975 11.007 7.883L11 8V12L11.007 12.117C11.0359 12.36 11.153 12.5841 11.336 12.7466C11.519 12.9091 11.7552 12.9989 12 12.9989C12.2448 12.9989 12.481 12.9091 12.664 12.7466C12.847 12.5841 12.9641 12.36 12.993 12.117L13 12V8L12.993 7.883C12.9643 7.63975 12.8474 7.41547 12.6644 7.25272C12.4813 7.08996 12.2449 7.00003 12 7Z" fill="currentColor"/>
</svg>
