<svg width="24" height="24" viewBox="0 0 24 24" fill="none" xmlns="http://www.w3.org/2000/svg">
<path d="M5.64402 5.62915C3.95446 7.31526 3.00391 9.60349 3.00147 11.9905C2.99903 14.3774 3.94491 16.6676 5.63102 18.3571C7.31714 20.0467 9.60537 20.9973 11.9923 20.9997C14.3793 21.0021 16.6695 20.0563 18.359 18.3701M20.052 16.0211C20.8971 14.3306 21.1885 12.4169 20.8849 10.5515C20.5813 8.68603 19.6982 6.96349 18.3607 5.62811C17.0232 4.29274 15.2993 3.41231 13.4334 3.11167C11.5675 2.81103 9.65424 3.10544 7.96502 3.95315M12 7.00012V8.00012M12 16.0001H12.01M3 3.00012L21 21.0001" stroke="currentColor" stroke-width="1.5" stroke-linecap="round" stroke-linejoin="round"/>
</svg>
