<svg width="24" height="24" viewBox="0 0 24 24" fill="none" xmlns="http://www.w3.org/2000/svg">
<path d="M18.36 18.3871L13.092 21.7201C12.7574 21.9038 12.3818 22.0001 12 22.0001C11.6182 22.0001 11.2426 21.9038 10.908 21.7201L4.158 17.4501C3.80817 17.2589 3.51612 16.9772 3.31241 16.6345C3.1087 16.2918 3.0008 15.9007 3 15.5021V8.21705C3 7.40805 3.443 6.66305 4.158 6.27005L5.475 5.49305M8.01 4.00005L10.908 2.29105C11.2525 2.10109 11.6396 2.00146 12.033 2.00146C12.4264 2.00146 12.8135 2.10109 13.158 2.29105L19.908 6.27105H19.875C20.575 6.66905 21.005 7.41405 21 8.21905V15.5031C21 15.9171 20.884 16.3151 20.674 16.6581M12 7V8.01M3 3L21 21M12 16H12.01" stroke="currentColor" stroke-width="1.5" stroke-linecap="round" stroke-linejoin="round"/>
</svg>
