<svg width="24" height="24" viewBox="0 0 24 24" fill="none" xmlns="http://www.w3.org/2000/svg">
<path d="M12.0002 1.67004C12.9552 1.67004 13.8452 2.13704 14.3902 2.91704L14.4952 3.07704L22.6092 16.625C22.8558 17.0521 22.9899 17.5348 22.9991 18.0279C23.0083 18.5209 22.8922 19.0083 22.6617 19.4442C22.4311 19.8802 22.0938 20.2505 21.6811 20.5205C21.2684 20.7905 20.794 20.9514 20.3022 20.988L20.1072 20.996H3.88219C3.38989 20.9905 2.90702 20.8603 2.47866 20.6177C2.05029 20.375 1.69039 20.0277 1.43255 19.6083C1.17472 19.1889 1.02735 18.711 1.0042 18.2192C0.981052 17.7274 1.08288 17.2378 1.30019 16.796L1.39919 16.611L9.50919 3.07304C9.76885 2.64486 10.1345 2.29081 10.5708 2.04506C11.0071 1.79931 11.4994 1.67015 12.0002 1.67004ZM12.0102 15L11.8832 15.007C11.6401 15.036 11.4161 15.153 11.2536 15.336C11.0911 15.519 11.0013 15.7553 11.0013 16C11.0013 16.2448 11.0911 16.4811 11.2536 16.6641C11.4161 16.8471 11.6401 16.9641 11.8832 16.993L12.0002 17L12.1272 16.993C12.3702 16.9641 12.5942 16.8471 12.7568 16.6641C12.9193 16.4811 13.0091 16.2448 13.0091 16C13.0091 15.7553 12.9193 15.519 12.7568 15.336C12.5942 15.153 12.3702 15.036 12.1272 15.007L12.0102 15ZM12.0002 8.00004C11.7553 8.00008 11.5188 8.09 11.3358 8.25276C11.1528 8.41552 11.0358 8.63979 11.0072 8.88304L11.0002 9.00004V13L11.0072 13.117C11.0361 13.3601 11.1531 13.5841 11.3362 13.7466C11.5192 13.9092 11.7554 13.9989 12.0002 13.9989C12.2449 13.9989 12.4812 13.9092 12.6642 13.7466C12.8472 13.5841 12.9643 13.3601 12.9932 13.117L13.0002 13V9.00004L12.9932 8.88304C12.9645 8.63979 12.8476 8.41552 12.6646 8.25276C12.4815 8.09 12.2451 8.00008 12.0002 8.00004Z" fill="currentColor"/>
</svg>
