<svg width="24" height="24" viewBox="0 0 24 24" fill="none" xmlns="http://www.w3.org/2000/svg">
<path d="M11.0002 17C11.3156 17.1377 11.656 17.2087 12.0002 17.2087C12.3443 17.2087 12.6847 17.1377 13.0002 17M8.00015 11L10.0002 13M16.0002 11L14.0002 13M12.0002 3C7.33615 3 4.60415 5.331 4.13815 8.595C3.67061 11.6098 4.38728 14.6886 6.13815 17.187C6.98082 18.4188 8.07016 19.4622 9.33715 20.251C11.0032 21.251 13.0012 21.251 14.6672 20.251C15.9341 19.4622 17.0235 18.4188 17.8662 17.187C19.6099 14.6854 20.3259 11.6095 19.8662 8.595C19.4002 5.33 16.6682 3 12.0042 3H12.0002Z" stroke="currentColor" stroke-width="1.5" stroke-linecap="round" stroke-linejoin="round"/>
</svg>
