<svg width="24" height="24" viewBox="0 0 24 24" fill="none" xmlns="http://www.w3.org/2000/svg">
<path d="M12.0039 2C16.9459 2 20.2919 4.503 20.8539 8.444C21.3527 11.7092 20.5784 15.0413 18.6909 17.752C17.7664 19.102 16.571 20.2449 15.1809 21.108C13.1989 22.298 10.8049 22.298 8.8079 21.1C7.42639 20.24 6.23835 19.1027 5.3189 17.76C3.42182 15.0542 2.64396 11.7199 3.1479 8.454C3.7119 4.504 7.0579 2 12.0039 2ZM13.9169 16.6C13.8644 16.4795 13.7887 16.3706 13.6941 16.2794C13.5995 16.1882 13.4879 16.1166 13.3655 16.0686C13.2432 16.0206 13.1127 15.9971 12.9813 15.9996C12.8499 16.0021 12.7203 16.0304 12.5999 16.083L12.4539 16.138C12.1075 16.248 11.733 16.2284 11.3999 16.083L11.2899 16.043C11.0454 15.9679 10.7815 15.9894 10.5524 16.1029C10.3232 16.2164 10.1463 16.4134 10.0579 16.6534C9.96958 16.8934 9.97652 17.1581 10.0773 17.3931C10.1781 17.6281 10.3651 17.8156 10.5999 17.917C11.0415 18.1097 11.5181 18.2092 11.9999 18.2092C12.4817 18.2092 12.9583 18.1097 13.3999 17.917C13.5204 17.8645 13.6293 17.7888 13.7205 17.6942C13.8117 17.5996 13.8833 17.488 13.9313 17.3656C13.9793 17.2433 14.0028 17.1128 14.0003 16.9814C13.9978 16.85 13.9695 16.7204 13.9169 16.6ZM8.6129 10.21C8.41191 10.0546 8.1593 9.98151 7.90637 10.0056C7.65345 10.0297 7.41918 10.1492 7.25115 10.3397C7.08311 10.5303 6.99392 10.7777 7.00167 11.0316C7.00943 11.2856 7.11355 11.527 7.2929 11.707L9.2929 13.707L9.3869 13.79C9.58789 13.9454 9.8405 14.0185 10.0934 13.9944C10.3463 13.9703 10.5806 13.8508 10.7487 13.6603C10.9167 13.4697 11.0059 13.2223 10.9981 12.9684C10.9904 12.7144 10.8862 12.473 10.7069 12.293L8.7069 10.293L8.6129 10.21ZM16.7069 10.293C16.5194 10.1055 16.2651 10.0002 15.9999 10.0002C15.7347 10.0002 15.4804 10.1055 15.2929 10.293L13.2929 12.293L13.2099 12.387C13.0545 12.588 12.9814 12.8406 13.0055 13.0935C13.0296 13.3464 13.1491 13.5807 13.3396 13.7488C13.5302 13.9168 13.7776 14.006 14.0315 13.9982C14.2855 13.9905 14.5269 13.8863 14.7069 13.707L16.7069 11.707L16.7899 11.613C16.9392 11.4206 17.0131 11.1803 16.9978 10.9373C16.9825 10.6943 16.8791 10.4652 16.7069 10.293Z" fill="currentColor"/>
</svg>
