<svg width="24" height="24" viewBox="0 0 24 24" fill="none" xmlns="http://www.w3.org/2000/svg">
<path d="M18.333 2C20.293 2 21.893 3.537 21.995 5.472L22 5.667V18.333C22 20.293 20.463 21.893 18.528 21.995L18.333 22H5.667C4.72818 22 3.82509 21.64 3.1438 20.9941C2.46252 20.3481 2.05492 19.4655 2.005 18.528L2 18.333V5.667C2 3.707 3.537 2.107 5.472 2.005L5.667 2H18.333ZM18 17H16L15.883 17.007C15.6299 17.0371 15.3979 17.1627 15.2343 17.3582C15.0707 17.5536 14.9879 17.8042 15.0028 18.0586C15.0178 18.313 15.1293 18.5522 15.3146 18.7272C15.5 18.9021 15.7451 18.9997 16 19H18L18.117 18.993C18.3701 18.9629 18.6021 18.8373 18.7657 18.6418C18.9293 18.4464 19.0121 18.1958 18.9972 17.9414C18.9822 17.687 18.8707 17.4478 18.6854 17.2728C18.5 17.0979 18.2549 17.0003 18 17ZM18 14H12L11.883 14.007C11.6299 14.0371 11.3979 14.1627 11.2343 14.3582C11.0707 14.5536 10.9879 14.8042 11.0028 15.0586C11.0178 15.313 11.1293 15.5522 11.3146 15.7272C11.5 15.9021 11.7451 15.9997 12 16H18L18.117 15.993C18.3701 15.9629 18.6021 15.8373 18.7657 15.6418C18.9293 15.4464 19.0121 15.1958 18.9972 14.9414C18.9822 14.687 18.8707 14.4478 18.6854 14.2728C18.5 14.0979 18.2549 14.0003 18 14ZM18 11H14L13.883 11.007C13.6299 11.0371 13.3979 11.1627 13.2343 11.3582C13.0707 11.5536 12.9879 11.8042 13.0028 12.0586C13.0178 12.313 13.1293 12.5522 13.3146 12.7272C13.5 12.9021 13.7451 12.9997 14 13H18L18.117 12.993C18.3701 12.9629 18.6021 12.8373 18.7657 12.6418C18.9293 12.4464 19.0121 12.1958 18.9972 11.9414C18.9822 11.687 18.8707 11.4478 18.6854 11.2728C18.5 11.0979 18.2549 11.0003 18 11Z" fill="currentColor"/>
</svg>
