<svg width="24" height="24" viewBox="0 0 24 24" fill="none" xmlns="http://www.w3.org/2000/svg">
<path d="M18.333 2C20.293 2 21.893 3.537 21.995 5.472L22 5.667V18.333C22 20.293 20.463 21.893 18.528 21.995L18.333 22H5.667C4.72818 22 3.82509 21.64 3.1438 20.9941C2.46252 20.3481 2.05492 19.4655 2.005 18.528L2 18.333V5.667C2 3.707 3.537 2.107 5.472 2.005L5.667 2H18.333ZM9 5C8.73478 5 8.48043 5.10536 8.29289 5.29289C8.10536 5.48043 8 5.73478 8 6V12L8.007 12.117C8.0371 12.3701 8.16271 12.6021 8.35817 12.7657C8.55362 12.9293 8.80416 13.0121 9.05861 12.9972C9.31305 12.9822 9.55218 12.8707 9.72715 12.6854C9.90212 12.5 9.99972 12.2549 10 12V6L9.993 5.883C9.96434 5.63975 9.84741 5.41547 9.66437 5.25272C9.48134 5.08996 9.24493 5.00003 9 5ZM12 5C11.7348 5 11.4804 5.10536 11.2929 5.29289C11.1054 5.48043 11 5.73478 11 6V10L11.007 10.117C11.0371 10.3701 11.1627 10.6021 11.3582 10.7657C11.5536 10.9293 11.8042 11.0121 12.0586 10.9972C12.313 10.9822 12.5522 10.8707 12.7272 10.6854C12.9021 10.5 12.9997 10.2549 13 10V6L12.993 5.883C12.9643 5.63975 12.8474 5.41547 12.6644 5.25272C12.4813 5.08996 12.2449 5.00003 12 5ZM6 5C5.73478 5 5.48043 5.10536 5.29289 5.29289C5.10536 5.48043 5 5.73478 5 6V8L5.007 8.117C5.0371 8.3701 5.16271 8.60215 5.35817 8.76574C5.55362 8.92933 5.80416 9.01211 6.05861 8.99717C6.31305 8.98224 6.55218 8.8707 6.72715 8.68537C6.90212 8.50003 6.99972 8.25488 7 8V6L6.993 5.883C6.96434 5.63975 6.84741 5.41547 6.66437 5.25272C6.48134 5.08996 6.24493 5.00003 6 5Z" fill="currentColor"/>
</svg>
