<svg width="24" height="24" viewBox="0 0 24 24" fill="none" xmlns="http://www.w3.org/2000/svg">
<path d="M18.333 2C20.293 2 21.893 3.537 21.995 5.472L22 5.667V18.333C22 20.293 20.463 21.893 18.528 21.995L18.333 22H5.667C4.72818 22 3.82509 21.64 3.1438 20.9941C2.46252 20.3481 2.05492 19.4655 2.005 18.528L2 18.333V5.667C2 3.707 3.537 2.107 5.472 2.005L5.667 2H18.333ZM18 14H16L15.883 14.007C15.64 14.0359 15.4159 14.153 15.2534 14.336C15.0909 14.519 15.0011 14.7552 15.0011 15C15.0011 15.2448 15.0909 15.481 15.2534 15.664C15.4159 15.847 15.64 15.9641 15.883 15.993L16 16H18L18.117 15.993C18.3601 15.9641 18.5841 15.847 18.7466 15.664C18.9091 15.481 18.9989 15.2448 18.9989 15C18.9989 14.7552 18.9091 14.519 18.7466 14.336C18.5841 14.153 18.3601 14.0359 18.117 14.007L18 14ZM18 11H12L11.883 11.007C11.64 11.0359 11.4159 11.153 11.2534 11.336C11.0909 11.519 11.0011 11.7552 11.0011 12C11.0011 12.2448 11.0909 12.481 11.2534 12.664C11.4159 12.847 11.64 12.9641 11.883 12.993L12 13H18L18.117 12.993C18.3601 12.9641 18.5841 12.847 18.7466 12.664C18.9091 12.481 18.9989 12.2448 18.9989 12C18.9989 11.7552 18.9091 11.519 18.7466 11.336C18.5841 11.153 18.3601 11.0359 18.117 11.007L18 11ZM18 8H14L13.883 8.007C13.64 8.03591 13.4159 8.15296 13.2534 8.33597C13.0909 8.51897 13.0011 8.75524 13.0011 9C13.0011 9.24476 13.0909 9.48103 13.2534 9.66403C13.4159 9.84704 13.64 9.96409 13.883 9.993L14 10H18L18.117 9.993C18.3601 9.96409 18.5841 9.84704 18.7466 9.66403C18.9091 9.48103 18.9989 9.24476 18.9989 9C18.9989 8.75524 18.9091 8.51897 18.7466 8.33597C18.5841 8.15296 18.3601 8.03591 18.117 8.007L18 8Z" fill="currentColor"/>
</svg>
