<svg width="24" height="24" viewBox="0 0 24 24" fill="none" xmlns="http://www.w3.org/2000/svg">
<path d="M18.333 2C20.293 2 21.893 3.537 21.995 5.472L22 5.667V18.333C22 20.293 20.463 21.893 18.528 21.995L18.333 22H5.667C4.72818 22 3.82509 21.64 3.1438 20.9941C2.46252 20.3481 2.05492 19.4655 2.005 18.528L2 18.333V5.667C2 3.707 3.537 2.107 5.472 2.005L5.667 2H18.333ZM18 11H16L15.883 11.007C15.6299 11.0371 15.3979 11.1627 15.2343 11.3582C15.0707 11.5536 14.9879 11.8042 15.0028 12.0586C15.0178 12.313 15.1293 12.5522 15.3146 12.7272C15.5 12.9021 15.7451 12.9997 16 13H18L18.117 12.993C18.3701 12.9629 18.6021 12.8373 18.7657 12.6418C18.9293 12.4464 19.0121 12.1958 18.9972 11.9414C18.9822 11.687 18.8707 11.4478 18.6854 11.2728C18.5 11.0979 18.2549 11.0003 18 11ZM18 8H12L11.883 8.007C11.6299 8.0371 11.3979 8.16271 11.2343 8.35817C11.0707 8.55362 10.9879 8.80416 11.0028 9.05861C11.0178 9.31305 11.1293 9.55218 11.3146 9.72715C11.5 9.90212 11.7451 9.99972 12 10H18L18.117 9.993C18.3701 9.9629 18.6021 9.83729 18.7657 9.64183C18.9293 9.44638 19.0121 9.19584 18.9972 8.94139C18.9822 8.68695 18.8707 8.44782 18.6854 8.27285C18.5 8.09788 18.2549 8.00028 18 8ZM18 5H14L13.883 5.007C13.6299 5.0371 13.3979 5.16271 13.2343 5.35817C13.0707 5.55362 12.9879 5.80416 13.0028 6.05861C13.0178 6.31305 13.1293 6.55218 13.3146 6.72715C13.5 6.90212 13.7451 6.99972 14 7H18L18.117 6.993C18.3701 6.9629 18.6021 6.83729 18.7657 6.64183C18.9293 6.44638 19.0121 6.19584 18.9972 5.94139C18.9822 5.68695 18.8707 5.44782 18.6854 5.27285C18.5 5.09788 18.2549 5.00028 18 5Z" fill="currentColor"/>
</svg>
