<svg width="24" height="24" viewBox="0 0 24 24" fill="none" xmlns="http://www.w3.org/2000/svg">
<path d="M18.333 2C20.293 2 21.893 3.537 21.995 5.472L22 5.667V18.333C22 20.293 20.463 21.893 18.528 21.995L18.333 22H5.667C4.72818 22 3.82509 21.64 3.1438 20.9941C2.46252 20.3481 2.05492 19.4655 2.005 18.528L2 18.333V5.667C2 3.707 3.537 2.107 5.472 2.005L5.667 2H18.333ZM6 15C5.73478 15 5.48043 15.1054 5.29289 15.2929C5.10536 15.4804 5 15.7348 5 16V18L5.007 18.117C5.0371 18.3701 5.16271 18.6021 5.35817 18.7657C5.55362 18.9293 5.80416 19.0121 6.05861 18.9972C6.31305 18.9822 6.55218 18.8707 6.72715 18.6854C6.90212 18.5 6.99972 18.2549 7 18V16L6.993 15.883C6.96434 15.6397 6.84741 15.4155 6.66437 15.2527C6.48134 15.09 6.24493 15 6 15ZM9 11C8.73478 11 8.48043 11.1054 8.29289 11.2929C8.10536 11.4804 8 11.7348 8 12V18L8.007 18.117C8.0371 18.3701 8.16271 18.6021 8.35817 18.7657C8.55362 18.9293 8.80416 19.0121 9.05861 18.9972C9.31305 18.9822 9.55218 18.8707 9.72715 18.6854C9.90212 18.5 9.99972 18.2549 10 18V12L9.993 11.883C9.96434 11.6397 9.84741 11.4155 9.66437 11.2527C9.48134 11.09 9.24493 11 9 11ZM12 13C11.7348 13 11.4804 13.1054 11.2929 13.2929C11.1054 13.4804 11 13.7348 11 14V18L11.007 18.117C11.0371 18.3701 11.1627 18.6021 11.3582 18.7657C11.5536 18.9293 11.8042 19.0121 12.0586 18.9972C12.313 18.9822 12.5522 18.8707 12.7272 18.6854C12.9021 18.5 12.9997 18.2549 13 18V14L12.993 13.883C12.9643 13.6397 12.8474 13.4155 12.6644 13.2527C12.4813 13.09 12.2449 13 12 13Z" fill="currentColor"/>
</svg>
