<svg width="24" height="24" viewBox="0 0 24 24" fill="none" xmlns="http://www.w3.org/2000/svg">
<path d="M18.333 2C20.293 2 21.893 3.537 21.995 5.472L22 5.667V18.333C22 20.293 20.463 21.893 18.528 21.995L18.333 22H5.667C4.72818 22 3.82509 21.64 3.1438 20.9941C2.46252 20.3481 2.05492 19.4655 2.005 18.528L2 18.333V5.667C2 3.707 3.537 2.107 5.472 2.005L5.667 2H18.333ZM12 15C11.7348 15 11.4804 15.1054 11.2929 15.2929C11.1054 15.4804 11 15.7348 11 16V18L11.007 18.117C11.0371 18.3701 11.1627 18.6021 11.3582 18.7657C11.5536 18.9293 11.8042 19.0121 12.0586 18.9972C12.313 18.9822 12.5522 18.8707 12.7272 18.6854C12.9021 18.5 12.9997 18.2549 13 18V16L12.993 15.883C12.9643 15.6397 12.8474 15.4155 12.6644 15.2527C12.4813 15.09 12.2449 15 12 15ZM15 11C14.7348 11 14.4804 11.1054 14.2929 11.2929C14.1054 11.4804 14 11.7348 14 12V18L14.007 18.117C14.0371 18.3701 14.1627 18.6021 14.3582 18.7657C14.5536 18.9293 14.8042 19.0121 15.0586 18.9972C15.313 18.9822 15.5522 18.8707 15.7272 18.6854C15.9021 18.5 15.9997 18.2549 16 18V12L15.993 11.883C15.9643 11.6397 15.8474 11.4155 15.6644 11.2527C15.4813 11.09 15.2449 11 15 11ZM18 13C17.7348 13 17.4804 13.1054 17.2929 13.2929C17.1054 13.4804 17 13.7348 17 14V18L17.007 18.117C17.0371 18.3701 17.1627 18.6021 17.3582 18.7657C17.5536 18.9293 17.8042 19.0121 18.0586 18.9972C18.313 18.9822 18.5522 18.8707 18.7272 18.6854C18.9021 18.5 18.9997 18.2549 19 18V14L18.993 13.883C18.9643 13.6397 18.8474 13.4155 18.6644 13.2527C18.4813 13.09 18.2449 13 18 13Z" fill="currentColor"/>
</svg>
