<svg width="24" height="24" viewBox="0 0 24 24" fill="none" xmlns="http://www.w3.org/2000/svg">
<path d="M19 2C19.7652 1.99996 20.5015 2.29233 21.0583 2.81728C21.615 3.34224 21.9501 4.06011 21.995 4.824L22 5V19C22 19.7652 21.7077 20.5015 21.1827 21.0583C20.6578 21.615 19.9399 21.9501 19.176 21.995L19 22H5C4.2387 21.9999 3.50593 21.7103 2.95017 21.19C2.39441 20.6698 2.05725 19.9576 2.007 19.198L2 19V5C1.99996 4.23479 2.29233 3.49849 2.81728 2.94174C3.34224 2.38499 4.06011 2.04989 4.824 2.005L5 2H19ZM13 14H11L10.883 14.007C10.64 14.0359 10.4159 14.153 10.2534 14.336C10.0909 14.519 10.0011 14.7552 10.0011 15C10.0011 15.2448 10.0909 15.481 10.2534 15.664C10.4159 15.847 10.64 15.9641 10.883 15.993L11 16H13L13.117 15.993C13.36 15.9641 13.5841 15.847 13.7466 15.664C13.9091 15.481 13.9989 15.2448 13.9989 15C13.9989 14.7552 13.9091 14.519 13.7466 14.336C13.5841 14.153 13.36 14.0359 13.117 14.007L13 14ZM15 11H9L8.883 11.007C8.63995 11.0359 8.41594 11.153 8.25341 11.336C8.09088 11.519 8.00111 11.7552 8.00111 12C8.00111 12.2448 8.09088 12.481 8.25341 12.664C8.41594 12.847 8.63995 12.9641 8.883 12.993L9 13H15L15.117 12.993C15.36 12.9641 15.5841 12.847 15.7466 12.664C15.9091 12.481 15.9989 12.2448 15.9989 12C15.9989 11.7552 15.9091 11.519 15.7466 11.336C15.5841 11.153 15.36 11.0359 15.117 11.007L15 11ZM14 8H10L9.883 8.007C9.63995 8.03591 9.41594 8.15296 9.25341 8.33597C9.09088 8.51897 9.00111 8.75524 9.00111 9C9.00111 9.24476 9.09088 9.48103 9.25341 9.66403C9.41594 9.84704 9.63995 9.96409 9.883 9.993L10 10H14L14.117 9.993C14.36 9.96409 14.5841 9.84704 14.7466 9.66403C14.9091 9.48103 14.9989 9.24476 14.9989 9C14.9989 8.75524 14.9091 8.51897 14.7466 8.33597C14.5841 8.15296 14.36 8.03591 14.117 8.007L14 8Z" fill="currentColor"/>
</svg>
