<svg width="24" height="24" viewBox="0 0 24 24" fill="none" xmlns="http://www.w3.org/2000/svg">
<path d="M18.333 2C20.293 2 21.893 3.537 21.995 5.472L22 5.667V18.333C22 20.293 20.463 21.893 18.528 21.995L18.333 22H5.667C4.72818 22 3.82509 21.64 3.1438 20.9941C2.46252 20.3481 2.05492 19.4655 2.005 18.528L2 18.333V5.667C2 3.707 3.537 2.107 5.472 2.005L5.667 2H18.333ZM8 11H6L5.883 11.007C5.6299 11.0371 5.39786 11.1627 5.23426 11.3582C5.07067 11.5536 4.98789 11.8042 5.00283 12.0586C5.01777 12.313 5.1293 12.5522 5.31463 12.7272C5.49997 12.9021 5.74512 12.9997 6 13H8L8.117 12.993C8.3701 12.9629 8.60215 12.8373 8.76574 12.6418C8.92933 12.4464 9.01211 12.1958 8.99717 11.9414C8.98224 11.687 8.8707 11.4478 8.68537 11.2728C8.50003 11.0979 8.25488 11.0003 8 11ZM12 8H6L5.883 8.007C5.6299 8.0371 5.39786 8.16271 5.23426 8.35817C5.07067 8.55362 4.98789 8.80416 5.00283 9.05861C5.01777 9.31305 5.1293 9.55218 5.31463 9.72715C5.49997 9.90212 5.74512 9.99972 6 10H12L12.117 9.993C12.3701 9.9629 12.6021 9.83729 12.7657 9.64183C12.9293 9.44638 13.0121 9.19584 12.9972 8.94139C12.9822 8.68695 12.8707 8.44782 12.6854 8.27285C12.5 8.09788 12.2549 8.00028 12 8ZM10 5H6L5.883 5.007C5.6299 5.0371 5.39786 5.16271 5.23426 5.35817C5.07067 5.55362 4.98789 5.80416 5.00283 6.05861C5.01777 6.31305 5.1293 6.55218 5.31463 6.72715C5.49997 6.90212 5.74512 6.99972 6 7H10L10.117 6.993C10.3701 6.9629 10.6021 6.83729 10.7657 6.64183C10.9293 6.44638 11.0121 6.19584 10.9972 5.94139C10.9822 5.68695 10.8707 5.44782 10.6854 5.27285C10.5 5.09788 10.2549 5.00028 10 5Z" fill="currentColor"/>
</svg>
