<svg width="24" height="24" viewBox="0 0 24 24" fill="none" xmlns="http://www.w3.org/2000/svg">
<path d="M10 10V17M14 20V9C14 8.46957 14.2107 7.96086 14.5858 7.58579C14.9609 7.21071 15.4696 7 16 7H17C17.5304 7 18.0391 7.21071 18.4142 7.58579C18.7893 7.96086 19 8.46957 19 9V10C19 10.5304 18.7893 11.0391 18.4142 11.4142C18.0391 11.7893 17.5304 12 17 12C17.5304 12 18.0391 12.2107 18.4142 12.5858C18.7893 12.9609 19 13.4696 19 14V15C19 15.5304 18.7893 16.0391 18.4142 16.4142C18.0391 16.7893 17.5304 17 17 17M5 12C5 11.4696 5.21071 10.9609 5.58579 10.5858C5.96086 10.2107 6.46957 10 7 10H8C8.53043 10 9.03914 10.2107 9.41421 10.5858C9.78929 10.9609 10 11.4696 10 12V15C10 15.5304 9.78929 16.0391 9.41421 16.4142C9.03914 16.7893 8.53043 17 8 17H7C6.46957 17 5.96086 16.7893 5.58579 16.4142C5.21071 16.0391 5 15.5304 5 15V12Z" stroke="currentColor" stroke-width="1.5" stroke-linecap="round" stroke-linejoin="round"/>
</svg>
