<svg width="24" height="24" viewBox="0 0 24 24" fill="none" xmlns="http://www.w3.org/2000/svg">
<path d="M19.0001 20L8.5971 9.02796C8.0455 8.47527 7.7357 7.72631 7.7357 6.94546C7.7357 6.1646 8.0455 5.41565 8.5971 4.86296C8.87017 4.58947 9.19447 4.37251 9.55146 4.22447C9.90846 4.07644 10.2911 4.00024 10.6776 4.00024C11.0641 4.00024 11.4467 4.07644 11.8037 4.22447C12.1607 4.37251 12.485 4.58947 12.7581 4.86296C13.3097 5.41565 13.6195 6.1646 13.6195 6.94546C13.6195 7.72631 13.3097 8.47527 12.7581 9.02796L8.0781 13.715C7.38837 14.4059 7.00098 15.3422 7.00098 16.3185C7.00098 17.2947 7.38837 18.2311 8.0781 18.922C8.41941 19.2636 8.82471 19.5347 9.27084 19.7196C9.71696 19.9045 10.1952 19.9997 10.6781 19.9997C11.161 19.9997 11.6392 19.9045 12.0854 19.7196C12.5315 19.5347 12.9368 19.2636 13.2781 18.922L19.0001 13" stroke="currentColor" stroke-width="1.5" stroke-linecap="round" stroke-linejoin="round"/>
</svg>
