<svg width="24" height="24" viewBox="0 0 24 24" fill="none" xmlns="http://www.w3.org/2000/svg">
<path d="M20 11C19.7554 9.24035 18.939 7.60993 17.6766 6.35986C16.4143 5.1098 14.776 4.30942 13.014 4.08201C11.5477 3.89068 10.0569 4.10512 8.704 4.70201M6.321 6.31001C5.80583 6.81189 5.3599 7.38023 4.995 8.00001M4 13C4.20628 14.4851 4.82071 15.8838 5.77487 17.0403C6.72903 18.1969 7.98548 19.0659 9.40431 19.5506C10.8231 20.0353 12.3487 20.1168 13.811 19.7858C15.2734 19.4548 16.6152 18.7244 17.687 17.676M20 16C20 15.7348 19.8946 15.4804 19.7071 15.2929C19.5196 15.1054 19.2652 15 19 15M9.888 9.87004C9.60522 10.1472 9.3801 10.4776 9.22562 10.8421C9.07114 11.2067 8.99035 11.5982 8.98791 11.9941C8.98547 12.3901 9.06144 12.7826 9.21142 13.149C9.36141 13.5155 9.58244 13.8486 9.86179 14.1292C10.1411 14.4098 10.4733 14.6323 10.839 14.7839C11.2048 14.9355 11.5969 15.0133 11.9929 15.0126C12.3888 15.0119 12.7807 14.9329 13.146 14.7801C13.5112 14.6272 13.8426 14.4036 14.121 14.122M14.716 10.725C14.4203 10.0966 13.9166 9.58966 13.29 9.29004M3 3L21 21M4 8C4 8.26522 4.10536 8.51957 4.29289 8.70711C4.48043 8.89464 4.73478 9 5 9C5.26522 9 5.51957 8.89464 5.70711 8.70711C5.89464 8.51957 6 8.26522 6 8C6 7.73478 5.89464 7.48043 5.70711 7.29289C5.51957 7.10536 5.26522 7 5 7C4.73478 7 4.48043 7.10536 4.29289 7.29289C4.10536 7.48043 4 7.73478 4 8Z" stroke="currentColor" stroke-width="1.5" stroke-linecap="round" stroke-linejoin="round"/>
</svg>
