<svg width="24" height="24" viewBox="0 0 24 24" fill="none" xmlns="http://www.w3.org/2000/svg">
<path d="M20 10.9998C19.7554 9.24019 18.939 7.60977 17.6766 6.3597C16.4143 5.10963 14.776 4.30926 13.014 4.08185C11.4405 3.87709 9.84148 4.1393 8.41576 4.83589C6.99005 5.53247 5.80051 6.63272 4.995 7.99985M4 12.9999C4.23134 14.665 4.97504 16.2169 6.12797 17.4403C7.2809 18.6638 8.78594 19.4982 10.4344 19.8279C12.0829 20.1576 13.793 19.9662 15.3279 19.2803C16.8627 18.5944 18.146 17.4479 19 15.9999M18 15.9999C18 16.2651 18.1054 16.5194 18.2929 16.707C18.4804 16.8945 18.7348 16.9999 19 16.9999C19.2652 16.9999 19.5196 16.8945 19.7071 16.707C19.8946 16.5194 20 16.2651 20 15.9999C20 15.7347 19.8946 15.4803 19.7071 15.2928C19.5196 15.1052 19.2652 14.9999 19 14.9999C18.7348 14.9999 18.4804 15.1052 18.2929 15.2928C18.1054 15.4803 18 15.7347 18 15.9999ZM4 7.99988C4 8.26509 4.10536 8.51945 4.29289 8.70698C4.48043 8.89452 4.73478 8.99988 5 8.99988C5.26522 8.99988 5.51957 8.89452 5.70711 8.70698C5.89464 8.51945 6 8.26509 6 7.99988C6 7.73466 5.89464 7.48031 5.70711 7.29277C5.51957 7.10523 5.26522 6.99988 5 6.99988C4.73478 6.99988 4.48043 7.10523 4.29289 7.29277C4.10536 7.48031 4 7.73466 4 7.99988ZM9 11.9999C9 12.7955 9.31607 13.5586 9.87868 14.1212C10.4413 14.6838 11.2044 14.9999 12 14.9999C12.7956 14.9999 13.5587 14.6838 14.1213 14.1212C14.6839 13.5586 15 12.7955 15 11.9999C15 11.2042 14.6839 10.4412 14.1213 9.87856C13.5587 9.31595 12.7956 8.99988 12 8.99988C11.2044 8.99988 10.4413 9.31595 9.87868 9.87856C9.31607 10.4412 9 11.2042 9 11.9999Z" stroke="currentColor" stroke-width="1.5" stroke-linecap="round" stroke-linejoin="round"/>
</svg>
