<svg width="24" height="24" viewBox="0 0 24 24" fill="none" xmlns="http://www.w3.org/2000/svg">
<path d="M4.99 12.862C5.17351 14.1846 5.72629 15.4287 6.58489 16.4514C7.44348 17.4741 8.57308 18.234 9.84399 18.6437C11.1149 19.0535 12.4756 19.0965 13.7699 18.7679C15.0641 18.4393 16.2395 17.7524 17.161 16.786C17.0735 16.5839 17.0208 16.3686 17.005 16.149L17 16L17.005 15.85C17.0349 15.4523 17.1829 15.0726 17.4302 14.7597C17.6774 14.4468 18.0126 14.215 18.3926 14.094C18.7726 13.973 19.1801 13.9684 19.5627 14.0807C19.9454 14.193 20.2857 14.4172 20.54 14.7244C20.7943 15.0316 20.951 15.4078 20.9899 15.8047C21.0287 16.2016 20.9481 16.601 20.7582 16.9518C20.5684 17.3025 20.2781 17.5884 19.9245 17.7729C19.5709 17.9574 19.1703 18.0319 18.774 17.987C17.6128 19.2721 16.1088 20.1992 14.439 20.6591C12.7691 21.1191 11.0026 21.0929 9.34705 20.5835C7.69155 20.0742 6.21581 19.1029 5.09326 17.7838C3.97071 16.4647 3.24798 14.8526 3.01 13.137C2.98239 12.8787 3.05637 12.6198 3.21628 12.4151C3.37619 12.2104 3.60948 12.0759 3.86677 12.0402C4.12406 12.0045 4.38515 12.0702 4.5948 12.2236C4.80444 12.377 4.94617 12.6059 4.99 12.862Z" fill="currentColor"/>
<path d="M12 7.99997C12.7826 7.99997 13.548 8.22955 14.2014 8.66026C14.8549 9.09098 15.3676 9.70391 15.6761 10.4231C15.9846 11.1424 16.0753 11.9363 15.9371 12.7066C15.7988 13.4769 15.4376 14.1897 14.8983 14.7568C14.3589 15.3238 13.665 15.7202 12.9026 15.8968C12.1402 16.0734 11.3427 16.0225 10.6089 15.7503C9.87519 15.4781 9.23739 14.9967 8.77454 14.3656C8.31169 13.7346 8.04413 12.9816 8.005 12.2L8 12L8.005 11.8C8.05631 10.775 8.4996 9.80898 9.24319 9.10169C9.98677 8.3944 10.9738 7.99997 12 7.99997Z" fill="currentColor"/>
<path d="M13.142 3.08998C15.1214 3.34555 16.9619 4.24477 18.38 5.64915C19.7981 7.05353 20.7152 8.88517 20.99 10.862C21.0184 11.1206 20.9448 11.38 20.785 11.5853C20.6252 11.7906 20.3917 11.9255 20.134 11.9614C19.8764 11.9973 19.6148 11.9314 19.405 11.7777C19.1951 11.6239 19.0534 11.3945 19.01 11.138C18.7955 9.59533 18.0797 8.16602 16.9729 7.07024C15.8661 5.97446 14.4297 5.27302 12.885 5.07398C11.78 4.93012 10.6566 5.04854 9.60589 5.41963C8.55515 5.79072 7.60658 6.40406 6.837 7.20998C6.95218 7.47695 7.00776 7.76584 6.99987 8.0565C6.99198 8.34715 6.92081 8.6326 6.79132 8.89293C6.66183 9.15327 6.47713 9.38225 6.25009 9.5639C6.02305 9.74555 5.75913 9.87551 5.47673 9.94473C5.19432 10.014 4.90022 10.0208 4.61491 9.96469C4.32961 9.90862 4.05996 9.79101 3.82475 9.62006C3.58955 9.44911 3.39445 9.22893 3.25304 8.97486C3.11164 8.7208 3.02733 8.43896 3.006 8.14898L3 7.99998L3.005 7.84998C3.02511 7.58201 3.09902 7.32084 3.22231 7.08207C3.3456 6.84329 3.51574 6.63182 3.72258 6.46026C3.92941 6.28871 4.1687 6.16059 4.42615 6.08357C4.6836 6.00655 4.95393 5.9822 5.221 6.01198C6.2067 4.92082 7.44229 4.08497 8.82186 3.57605C10.2014 3.06714 11.6838 2.90035 13.142 3.08998Z" fill="currentColor"/>
</svg>
