<svg width="24" height="24" viewBox="0 0 24 24" fill="none" xmlns="http://www.w3.org/2000/svg">
<path fill-rule="evenodd" clip-rule="evenodd" d="M2.46967 2.46967C2.76256 2.17678 3.23744 2.17678 3.53033 2.46967L18.5993 17.5386C18.6059 17.5438 18.6125 17.5491 18.619 17.5546C18.6609 17.5896 18.698 17.6282 18.7302 17.6696L21.5303 20.4697C21.8232 20.7626 21.8232 21.2374 21.5303 21.5303C21.2374 21.8232 20.7626 21.8232 20.4697 21.5303L18.1564 19.2171C17.0818 20.2811 15.746 21.0519 14.2768 21.4478C13.5419 21.6459 12.7887 21.746 12.0362 21.7491C12.0242 21.7497 12.0121 21.75 12 21.75C11.9879 21.75 11.9758 21.7497 11.9638 21.7491C10.9639 21.745 9.96625 21.5695 9.01545 21.2245C7.32621 20.6115 5.86666 19.4934 4.83515 18.0219C3.94773 16.756 3.41414 15.2815 3.28226 13.75H3C2.58579 13.75 2.25 13.4142 2.25 13C2.25 12.5858 2.58579 12.25 3 12.25H3.99993C3.99998 12.25 4.00003 12.25 4.00008 12.25H5C5.41421 12.25 5.75 12.5858 5.75 13C5.75 13.4142 5.41421 13.75 5 13.75H4.78897C4.91627 14.9727 5.35301 16.1475 6.06341 17.1609C6.91809 18.3801 8.12743 19.3066 9.52709 19.8144C10.0862 20.0173 10.6649 20.1495 11.25 20.2103V12.3107L2.46967 3.53033C2.17678 3.23744 2.17678 2.76256 2.46967 2.46967ZM12.75 13.8107V20.2103C13.1321 20.1706 13.5122 20.1004 13.8865 19.9995C15.1014 19.6721 16.2062 19.0353 17.0957 18.1564L12.75 13.8107ZM11.0924 2.36231C11.721 2.2058 12.3795 2.2148 13.0036 2.38844C13.6277 2.56208 14.1962 2.89443 14.6536 3.35312C15.1111 3.8118 15.4419 4.38116 15.6139 5.00573C15.7858 5.6303 15.7931 6.28876 15.6349 6.91696C15.4767 7.54515 15.1585 8.12166 14.7112 8.59029C14.2639 9.05892 13.7029 9.4037 13.0828 9.59102C12.6863 9.7108 12.2677 9.48645 12.1479 9.08993C12.0282 8.69341 12.2525 8.27488 12.649 8.1551C13.0211 8.04271 13.3577 7.83584 13.6261 7.55466C13.8944 7.27348 14.0854 6.92758 14.1803 6.55066C14.2752 6.17374 14.2709 5.77867 14.1677 5.40393C14.0645 5.02919 13.866 4.68757 13.5915 4.41236C13.3171 4.13715 12.976 3.93774 12.6015 3.83355C12.227 3.72937 11.832 3.72397 11.4548 3.81788C11.0776 3.91179 10.7312 4.1018 10.4493 4.3694C10.1674 4.63701 9.95967 4.97307 9.84628 5.34485C9.72545 5.74105 9.30631 5.96427 8.91012 5.84344C8.51392 5.7226 8.29069 5.30347 8.41153 4.90727C8.60051 4.28764 8.94678 3.72753 9.41661 3.28152C9.88643 2.83552 10.4638 2.51883 11.0924 2.36231ZM18.25 13C18.25 12.5858 18.5858 12.25 19 12.25H19.9993C19.9998 12.25 20.0003 12.25 20.0008 12.25H21C21.4142 12.25 21.75 12.5858 21.75 13C21.75 13.4142 21.4142 13.75 21 13.75H20.7184C20.6587 14.4507 20.5145 15.1426 20.2884 15.8105C20.1556 16.2029 19.7298 16.4132 19.3375 16.2804C18.9451 16.1476 18.7348 15.7218 18.8676 15.3295C19.0412 14.8167 19.1565 14.2869 19.2118 13.75H19C18.5858 13.75 18.25 13.4142 18.25 13Z" fill="currentColor"/>
</svg>
