<svg width="24" height="24" viewBox="0 0 24 24" fill="none" xmlns="http://www.w3.org/2000/svg">
<path fill-rule="evenodd" clip-rule="evenodd" d="M9.34835 3.34835C10.0516 2.64509 11.0054 2.25 12 2.25C12.9946 2.25 13.9484 2.64509 14.6517 3.34835C15.3549 4.05161 15.75 5.00544 15.75 6C15.75 6.99456 15.3549 7.94839 14.6517 8.65165C14.1279 9.17544 13.4651 9.52827 12.75 9.67425V20.2111C14.3972 20.0399 15.9448 19.3082 17.1265 18.1265C18.3082 16.9448 19.0399 15.3972 19.2111 13.75H19C18.5858 13.75 18.25 13.4142 18.25 13C18.25 12.5858 18.5858 12.25 19 12.25H21C21.4142 12.25 21.75 12.5858 21.75 13C21.75 13.4142 21.4142 13.75 21 13.75H20.7178C20.5419 15.7958 19.6504 17.724 18.1872 19.1872C16.5462 20.8281 14.3206 21.75 12 21.75C9.67936 21.75 7.45376 20.8281 5.81282 19.1872C4.34958 17.724 3.45811 15.7958 3.28218 13.75H3C2.58579 13.75 2.25 13.4142 2.25 13C2.25 12.5858 2.58579 12.25 3 12.25H5C5.41421 12.25 5.75 12.5858 5.75 13C5.75 13.4142 5.41421 13.75 5 13.75H4.78887C4.96014 15.3972 5.69178 16.9448 6.87348 18.1265C8.05517 19.3082 9.60279 20.0399 11.25 20.2111V9.67425C10.5349 9.52827 9.87214 9.17544 9.34835 8.65165C8.64509 7.94839 8.25 6.99456 8.25 6C8.25 5.00544 8.64509 4.05161 9.34835 3.34835ZM12 3.75C11.4033 3.75 10.831 3.98705 10.409 4.40901C9.98705 4.83097 9.75 5.40326 9.75 6C9.75 6.59674 9.98705 7.16903 10.409 7.59099C10.831 8.01295 11.4033 8.25 12 8.25C12.5967 8.25 13.169 8.01295 13.591 7.59099C14.0129 7.16903 14.25 6.59674 14.25 6C14.25 5.40326 14.0129 4.83097 13.591 4.40901C13.169 3.98705 12.5967 3.75 12 3.75Z" fill="currentColor"/>
</svg>
