<svg width="24" height="24" viewBox="0 0 24 24" fill="none" xmlns="http://www.w3.org/2000/svg">
<path d="M12 15H5.5C4.83696 15 4.20107 14.7366 3.73223 14.2678C3.26339 13.7989 3 13.163 3 12.5C3 11.837 3.26339 11.2011 3.73223 10.7322C4.20107 10.2634 4.83696 10 5.5 10H6M15 15V18.5C15 19.163 14.7366 19.7989 14.2678 20.2678C13.7989 20.7366 13.163 21 12.5 21C11.837 21 11.2011 20.7366 10.7322 20.2678C10.2634 19.7989 10 19.163 10 18.5V18M13 9H18.5C19.163 9 19.7989 9.26339 20.2678 9.73223C20.7366 10.2011 21 10.837 21 11.5C21 12.163 20.7366 12.7989 20.2678 13.2678C19.7989 13.7366 19.163 14 18.5 14H18M9 11.9999V8.99994M9.042 5.04294C9.1558 4.42999 9.49451 3.88166 9.99169 3.50553C10.4889 3.1294 11.1087 2.9526 11.7295 3.00983C12.3503 3.06705 12.9273 3.35416 13.3473 3.81483C13.7674 4.27551 14.0002 4.87651 14 5.49994V5.99994M3 3L21 21" stroke="currentColor" stroke-width="1.5" stroke-linecap="round" stroke-linejoin="round"/>
</svg>
