<svg width="24" height="24" viewBox="0 0 24 24" fill="none" xmlns="http://www.w3.org/2000/svg">
<path d="M8.00021 4H19.0002C19.5306 4 20.0394 4.21071 20.4144 4.58579C20.7895 4.96086 21.0002 5.46957 21.0002 6C21.0002 6.53043 20.7895 7.03914 20.4144 7.41421C20.0394 7.78929 19.5306 8 19.0002 8M19.0002 8H12.0002M19.0002 8L19 15M8.00021 8H5.00021M5.00021 8C4.54296 8.00027 4.09942 7.84385 3.74349 7.55681C3.38757 7.26976 3.14075 6.86942 3.04416 6.42248C2.94757 5.97555 3.00704 5.50901 3.21267 5.1006C3.41829 4.69219 3.75766 4.36657 4.17421 4.178M5.00021 8L5 18C5 18.5304 5.21071 19.0391 5.58579 19.4142C5.96086 19.7893 6.46957 20 7 20H17C17.3854 20 17.7626 19.8886 18.0862 19.6792C18.4098 19.4699 18.666 19.1715 18.824 18.82M10 12H12M3 3L21 21" stroke="currentColor" stroke-width="1.5" stroke-linecap="round" stroke-linejoin="round"/>
</svg>
