<svg width="24" height="24" viewBox="0 0 24 24" fill="none" xmlns="http://www.w3.org/2000/svg">
<path d="M5 10V6C4.9998 5.70562 5.04293 5.41282 5.128 5.131M7.166 3.118C7.43 3.04 7.71 3 8 3H16C16.7957 3 17.5587 3.31607 18.1213 3.87868C18.6839 4.44129 19 5.20435 19 6V10M16.124 12.145C16.272 11.6481 16.5462 11.198 16.92 10.8386C17.2938 10.4793 17.7543 10.2229 18.2567 10.0946C18.759 9.96622 19.2861 9.97027 19.7864 10.1063C20.2867 10.2424 20.7433 10.5058 21.1115 10.8708C21.4796 11.2359 21.7469 11.6902 21.8873 12.1893C22.0276 12.6884 22.0362 13.2154 21.9121 13.7189C21.7881 14.2223 21.5357 14.685 21.1795 15.0619C20.8234 15.4387 20.3756 15.7168 19.88 15.869M19 19H5V16C4.40666 16 3.82664 15.8241 3.33329 15.4944C2.83994 15.1648 2.45543 14.6962 2.22836 14.1481C2.0013 13.5999 1.94189 12.9967 2.05765 12.4147C2.1734 11.8328 2.45912 11.2982 2.87868 10.8787C3.29824 10.4591 3.83279 10.1734 4.41473 10.0576C4.99667 9.94189 5.59987 10.0013 6.14805 10.2284C6.69623 10.4554 7.16477 10.8399 7.49441 11.3333C7.82405 11.8266 8 12.4067 8 13V15M8 12H12M7 19V21M17 19V21M3 3L21 21" stroke="currentColor" stroke-width="1.5" stroke-linecap="round" stroke-linejoin="round"/>
</svg>
