<svg width="24" height="24" viewBox="0 0 24 24" fill="none" xmlns="http://www.w3.org/2000/svg">
<path d="M5 10V6C5 5.20435 5.31607 4.44129 5.87868 3.87868C6.44129 3.31607 7.20435 3 8 3H16C16.7956 3 17.5587 3.31607 18.1213 3.87868C18.6839 4.44129 19 5.20435 19 6V10M16 15V13C16 12.4067 16.1759 11.8266 16.5056 11.3333C16.8352 10.8399 17.3038 10.4554 17.852 10.2284C18.4001 10.0013 19.0033 9.94189 19.5853 10.0576C20.1672 10.1734 20.7018 10.4591 21.1213 10.8787C21.5409 11.2982 21.8266 11.8328 21.9424 12.4147C22.0581 12.9967 21.9987 13.5999 21.7716 14.1481C21.5446 14.6962 21.1601 15.1648 20.6667 15.4944C20.1734 15.8241 19.5933 16 19 16V19H5V16C4.40666 16 3.82664 15.8241 3.33329 15.4944C2.83994 15.1648 2.45543 14.6962 2.22836 14.1481C2.0013 13.5999 1.94189 12.9967 2.05765 12.4147C2.1734 11.8328 2.45912 11.2982 2.87868 10.8787C3.29824 10.4591 3.83279 10.1734 4.41473 10.0576C4.99667 9.94189 5.59987 10.0013 6.14805 10.2284C6.69623 10.4554 7.16477 10.8399 7.49441 11.3333C7.82405 11.8266 8 12.4067 8 13V15M8 12H16M7 19V21M17 19V21" stroke="currentColor" stroke-width="1.5" stroke-linecap="round" stroke-linejoin="round"/>
</svg>
