<svg width="24" height="24" viewBox="0 0 24 24" fill="none" xmlns="http://www.w3.org/2000/svg">
<path d="M20.0001 15H12.0001V18.586C12.0001 18.7837 11.9414 18.977 11.8315 19.1414C11.7216 19.3058 11.5654 19.434 11.3827 19.5096C11.2 19.5853 10.999 19.6051 10.8051 19.5666C10.6111 19.528 10.4329 19.4328 10.2931 19.293L3.70709 12.707C3.51962 12.5194 3.41431 12.2651 3.41431 12C3.41431 11.7348 3.51962 11.4805 3.70709 11.293L10.2931 4.70697C10.4329 4.56716 10.6111 4.47196 10.8051 4.43339C10.999 4.39482 11.2 4.41462 11.3827 4.49029C11.5654 4.56596 11.7216 4.6941 11.8315 4.85851C11.9414 5.02292 12.0001 5.21622 12.0001 5.41397V8.99997H20.0001C20.2653 8.99997 20.5197 9.10533 20.7072 9.29286C20.8947 9.4804 21.0001 9.73475 21.0001 9.99997V14C21.0001 14.2652 20.8947 14.5195 20.7072 14.7071C20.5197 14.8946 20.2653 15 20.0001 15Z" stroke="currentColor" stroke-width="1.5" stroke-linecap="round" stroke-linejoin="round"/>
</svg>
