<svg width="24" height="24" viewBox="0 0 24 24" fill="none" xmlns="http://www.w3.org/2000/svg">
<path d="M17 13L21 9M21 9L17 5M21 9H17C15.6739 9 14.4021 9.52678 13.4645 10.4645C12.5268 11.4021 12 12.6739 12 14M7 13L3 9M3 9L7 5M3 9H7C7.65661 9 8.30679 9.12933 8.91342 9.3806C9.52004 9.63188 10.0712 10.0002 10.5355 10.4645C10.9998 10.9288 11.3681 11.48 11.6194 12.0866C11.8707 12.6932 12 13.3434 12 14M12 14V19" stroke="currentColor" stroke-width="1.5" stroke-linecap="round" stroke-linejoin="round"/>
</svg>
