<svg width="24" height="24" viewBox="0 0 24 24" fill="none" xmlns="http://www.w3.org/2000/svg">
<path d="M3 9V15M12 8.99997V5.41397C12 5.21622 12.0587 5.02292 12.1686 4.85851C12.2785 4.6941 12.4346 4.56596 12.6173 4.49029C12.8 4.41462 13.0011 4.39482 13.195 4.43339C13.389 4.47196 13.5671 4.56716 13.707 4.70697L20.293 11.293C20.4805 11.4805 20.5858 11.7348 20.5858 12C20.5858 12.2651 20.4805 12.5194 20.293 12.707L13.707 19.293C13.5671 19.4328 13.389 19.528 13.195 19.5666C13.0011 19.6051 12.8 19.5853 12.6173 19.5096C12.4346 19.434 12.2785 19.3058 12.1686 19.1414C12.0587 18.977 12 18.7837 12 18.586V15H6V8.99997H12Z" stroke="currentColor" stroke-width="1.5" stroke-linecap="round" stroke-linejoin="round"/>
</svg>
