<svg width="24" height="24" viewBox="0 0 24 24" fill="none" xmlns="http://www.w3.org/2000/svg">
<path d="M8.46387 8.46399L17.9999 18M17.9999 18L14 18M17.9999 18L18 14M8.41384 8.41404C8.60486 8.22955 8.75722 8.00886 8.86204 7.76485C8.96686 7.52084 9.02203 7.2584 9.02434 6.99284C9.02665 6.72728 8.97604 6.46392 8.87548 6.21813C8.77492 5.97234 8.62641 5.74904 8.43863 5.56125C8.25084 5.37346 8.02754 5.22496 7.78175 5.1244C7.53595 5.02384 7.27259 4.97323 7.00704 4.97554C6.74148 4.97785 6.47904 5.03302 6.23503 5.13784C5.99102 5.24266 5.77033 5.39502 5.58584 5.58604C5.22152 5.96324 5.01993 6.46845 5.02449 6.99284C5.02905 7.51724 5.23938 8.01886 5.6102 8.38968C5.98102 8.76049 6.48264 8.97083 7.00704 8.97539C7.53143 8.97995 8.03663 8.77836 8.41384 8.41404Z" stroke="currentColor" stroke-width="1.5" stroke-linecap="round" stroke-linejoin="round"/>
</svg>
