<svg width="24" height="24" viewBox="0 0 24 24" fill="none" xmlns="http://www.w3.org/2000/svg">
<path d="M15.536 8.46399L6 18M6 18V14M6 18L10 18M15.5861 8.41396C15.7706 8.60498 15.9913 8.75734 16.2353 8.86216C16.4793 8.96698 16.7417 9.02215 17.0073 9.02446C17.2728 9.02677 17.5362 8.97617 17.782 8.8756C18.0278 8.77504 18.2511 8.62654 18.4389 8.43875C18.6267 8.25096 18.7752 8.02766 18.8757 7.78187C18.9763 7.53608 19.0269 7.27272 19.0246 7.00716C19.0223 6.7416 18.9671 6.47916 18.8623 6.23515C18.7575 5.99114 18.6051 5.77045 18.4141 5.58596C18.0369 5.22164 17.5317 5.02005 17.0073 5.02461C16.4829 5.02917 15.9813 5.23951 15.6104 5.61032C15.2396 5.98114 15.0293 6.48276 15.0247 7.00716C15.0202 7.53155 15.2218 8.03675 15.5861 8.41396Z" stroke="currentColor" stroke-width="1.5" stroke-linecap="round" stroke-linejoin="round"/>
</svg>
