<svg width="24" height="24" viewBox="0 0 24 24" fill="none" xmlns="http://www.w3.org/2000/svg">
<path d="M8 10C7.20435 10 6.44129 9.68393 5.87868 9.12132C5.31607 8.55871 5 7.79565 5 7C5 6.20435 5.31607 5.44129 5.87868 4.87868C6.44129 4.31607 7.20435 4 8 4C8.79565 4 9.55871 4.31607 10.1213 4.87868C10.6839 5.44129 11 6.20435 11 7C11 7.79565 10.6839 8.55871 10.1213 9.12132C9.55871 9.68393 8.79565 10 8 10ZM8 10V20M10.5 9.5L19 18M19 18H14M19 18V13" stroke="currentColor" stroke-width="1.5" stroke-linecap="round" stroke-linejoin="round"/>
</svg>
