<svg width="24" height="24" viewBox="0 0 24 24" fill="none" xmlns="http://www.w3.org/2000/svg">
<path d="M13 16C12.2044 16 11.4413 15.6839 10.8787 15.1213C10.3161 14.5587 10 13.7956 10 13C10 12.2044 10.3161 11.4413 10.8787 10.8787C11.4413 10.3161 12.2044 10 13 10M13 16C13.7956 16 14.5587 15.6839 15.1213 15.1213C15.6839 14.5587 16 13.7956 16 13C16 12.2044 15.6839 11.4413 15.1213 10.8787C14.5587 10.3161 13.7956 10 13 10M13 16V21M13 10V3M13 3L9 7M13 3L17 7" stroke="currentColor" stroke-width="1.5" stroke-linecap="round" stroke-linejoin="round"/>
</svg>
