<svg width="24" height="24" viewBox="0 0 24 24" fill="none" xmlns="http://www.w3.org/2000/svg">
<path d="M18 4L21 7M21 7L18 10M21 7H16C14.6739 7 13.4021 7.52678 12.4645 8.46447C11.5268 9.40215 11 10.6739 11 12M18 20L21 17M21 17L18 14M21 17H16C14.6739 17 13.4021 16.4732 12.4645 15.5355C11.5268 14.5979 11 13.3261 11 12M3 7H6C7.32608 7 8.59785 7.52678 9.53553 8.46447C10.4732 9.40215 11 10.6739 11 12M11 12C11 13.3261 10.4732 14.5979 9.53553 15.5355C8.59785 16.4732 7.32608 17 6 17H3" stroke="currentColor" stroke-width="1.5" stroke-linecap="round" stroke-linejoin="round"/>
</svg>
