<svg width="24" height="24" viewBox="0 0 24 24" fill="none" xmlns="http://www.w3.org/2000/svg">
<path d="M9.00012 8L8.88312 8.007C8.63987 8.03566 8.4156 8.15259 8.25284 8.33563C8.09008 8.51866 8.00016 8.75507 8.00012 9V10.999L5.41412 11C5.01862 11.0001 4.63203 11.1174 4.30321 11.3372C3.97439 11.557 3.71811 11.8693 3.56677 12.2347C3.41543 12.6001 3.37582 13.0022 3.45296 13.3901C3.53009 13.778 3.72051 14.1343 4.00012 14.414L10.5861 21C10.9612 21.3749 11.4698 21.5856 12.0001 21.5856C12.5305 21.5856 13.0391 21.3749 13.4141 21L20.0001 14.414C20.28 14.1343 20.4706 13.7779 20.5479 13.3898C20.6251 13.0018 20.5855 12.5995 20.4341 12.234L20.3661 12.089C20.1984 11.7612 19.9435 11.4861 19.6294 11.294C19.3153 11.1018 18.9543 11.0001 18.5861 11L16.0001 10.999V9C16.0001 8.73478 15.8948 8.48043 15.7072 8.29289C15.5197 8.10536 15.2653 8 15.0001 8H9.00012Z" fill="currentColor"/>
<path d="M15.0001 2C15.255 2.00028 15.5001 2.09788 15.6855 2.27285C15.8708 2.44782 15.9823 2.68695 15.9973 2.94139C16.0122 3.19584 15.9294 3.44638 15.7658 3.64183C15.6023 3.83729 15.3702 3.9629 15.1171 3.993L15.0001 4H9.00011C8.74523 3.99972 8.50008 3.90212 8.31474 3.72715C8.12941 3.55218 8.01788 3.31305 8.00294 3.05861C7.988 2.80416 8.07079 2.55362 8.23438 2.35817C8.39797 2.16271 8.63002 2.0371 8.88311 2.007L9.00011 2H15.0001Z" fill="currentColor"/>
<path d="M15.0001 5C15.255 5.00028 15.5001 5.09788 15.6855 5.27285C15.8708 5.44782 15.9823 5.68695 15.9973 5.94139C16.0122 6.19584 15.9294 6.44638 15.7658 6.64183C15.6023 6.83729 15.3702 6.9629 15.1171 6.993L15.0001 7H9.00011C8.74523 6.99972 8.50008 6.90212 8.31474 6.72715C8.12941 6.55218 8.01788 6.31305 8.00294 6.05861C7.988 5.80416 8.07079 5.55362 8.23438 5.35817C8.39797 5.16271 8.63002 5.0371 8.88311 5.007L9.00011 5H15.0001Z" fill="currentColor"/>
</svg>
