<svg width="24" height="24" viewBox="0 0 24 24" fill="none" xmlns="http://www.w3.org/2000/svg">
<path d="M10.5858 3L3.99981 9.586C3.71994 9.86569 3.52932 10.2221 3.45207 10.6102C3.37481 10.9982 3.4144 11.4005 3.56581 11.766L3.63381 11.911C3.80152 12.2388 4.05645 12.5139 4.37052 12.706C4.6846 12.8982 5.04562 12.9999 5.41381 13H7.99981V20C7.99981 20.5304 8.21052 21.0391 8.58559 21.4142C8.96067 21.7893 9.46937 22 9.99981 22H13.9998L14.1498 21.995C14.653 21.9572 15.1232 21.7305 15.4663 21.3605C15.8094 20.9906 16 20.5046 15.9998 20L15.9988 13H18.5858C18.9813 12.9999 19.3679 12.8826 19.6967 12.6628C20.0255 12.443 20.2818 12.1307 20.4332 11.7653C20.5845 11.3999 20.6241 10.9978 20.547 10.6099C20.4698 10.222 20.2794 9.86571 19.9998 9.586L13.4138 3C13.0387 2.62506 12.5301 2.41443 11.9998 2.41443C11.4695 2.41443 10.9609 2.62506 10.5858 3Z" fill="currentColor"/>
</svg>
