<svg width="24" height="24" viewBox="0 0 24 24" fill="none" xmlns="http://www.w3.org/2000/svg">
<path d="M13 21V15M13 9V8C13 7.20888 13.2346 6.43552 13.6741 5.77772C14.1136 5.11992 14.7384 4.60723 15.4693 4.30448C16.2002 4.00173 17.0044 3.92252 17.7804 4.07686C18.5563 4.2312 19.269 4.61216 19.8284 5.17157C20.3878 5.73098 20.7688 6.44372 20.9231 7.21964C21.0775 7.99556 20.9983 8.79983 20.6955 9.53074C20.3928 10.2616 19.8801 10.8864 19.2223 11.3259C18.5645 11.7654 17.7911 12 17 12H4M4 12L8 16M4 12L8 8" stroke="currentColor" stroke-width="1.5" stroke-linecap="round" stroke-linejoin="round"/>
</svg>
