<svg width="24" height="24" viewBox="0 0 24 24" fill="none" xmlns="http://www.w3.org/2000/svg">
<path d="M9.58612 4L3.00012 10.586C2.62518 10.9611 2.41455 11.4697 2.41455 12C2.41455 12.5303 2.62518 13.0389 3.00012 13.414L9.58612 20C9.86581 20.2799 10.2222 20.4705 10.6103 20.5477C10.9983 20.625 11.4006 20.5854 11.7661 20.434L11.9111 20.366C12.2389 20.1983 12.514 19.9434 12.7062 19.6293C12.8983 19.3152 13 18.9542 13.0001 18.586V16H20.0001C20.5306 16 21.0393 15.7893 21.4143 15.4142C21.7894 15.0391 22.0001 14.5304 22.0001 14V10L21.9951 9.85C21.9573 9.34685 21.7307 8.87659 21.3607 8.5335C20.9907 8.19041 20.5047 7.99984 20.0001 8L13.0001 7.999V5.414C13 5.0185 12.8827 4.63191 12.6629 4.30309C12.4432 3.97427 12.1308 3.71799 11.7654 3.56665C11.4 3.41531 10.998 3.3757 10.6101 3.45284C10.2222 3.52997 9.86583 3.72038 9.58612 4Z" fill="currentColor"/>
</svg>
