<svg width="24" height="24" viewBox="0 0 24 24" fill="none" xmlns="http://www.w3.org/2000/svg">
<path d="M8.46387 15.536L17.9999 6M17.9999 6L18 10M17.9999 6H14M8.41416 15.586C8.22967 15.395 8.00898 15.2427 7.76497 15.1378C7.52096 15.033 7.25852 14.9778 6.99296 14.9755C6.72741 14.9732 6.46405 15.0238 6.21825 15.1244C5.97246 15.225 5.74916 15.3735 5.56137 15.5612C5.37359 15.749 5.22508 15.9723 5.12452 16.2181C5.02396 16.4639 4.97335 16.7273 4.97566 16.9928C4.97797 17.2584 5.03314 17.5208 5.13796 17.7648C5.24278 18.0089 5.39514 18.2295 5.58616 18.414C5.96337 18.7784 6.46857 18.9799 6.99296 18.9754C7.51736 18.9708 8.01898 18.7605 8.3898 18.3897C8.76062 18.0189 8.97095 17.5172 8.97551 16.9928C8.98007 16.4684 8.77848 15.9632 8.41416 15.586Z" stroke="currentColor" stroke-width="1.5" stroke-linecap="round" stroke-linejoin="round"/>
</svg>
