<svg width="24" height="24" viewBox="0 0 24 24" fill="none" xmlns="http://www.w3.org/2000/svg">
<path d="M12 7V21M12 7C12.5304 7 13.0391 6.78929 13.4142 6.41421C13.7893 6.03914 14 5.53043 14 5C14 4.46957 13.7893 3.96086 13.4142 3.58579C13.0391 3.21071 12.5304 3 12 3C11.4696 3 10.9609 3.21071 10.5858 3.58579C10.2107 3.96086 10 4.46957 10 5C10 5.53043 10.2107 6.03914 10.5858 6.41421C10.9609 6.78929 11.4696 7 12 7ZM12 21L9 18M12 21L15 18" stroke="currentColor" stroke-width="1.5" stroke-linecap="round" stroke-linejoin="round"/>
</svg>
