<svg width="24" height="24" viewBox="0 0 24 24" fill="none" xmlns="http://www.w3.org/2000/svg">
<path d="M3 7H4.948C6.861 7 8.653 7.933 9.75 9.5C10.2904 10.2721 11.0091 10.9025 11.8451 11.3377C12.681 11.7729 13.6096 12.0001 14.552 12H21M21 12L18 15M21 12L18 9M3 17H4.95C5.89187 17 6.81985 16.7728 7.65513 16.3375C8.49042 15.9023 9.20836 15.272 9.748 14.5C10.2876 13.728 11.0056 13.0977 11.8409 12.6625C12.6762 12.2272 13.6041 12 14.546 12H20" stroke="currentColor" stroke-width="1.5" stroke-linecap="round" stroke-linejoin="round"/>
</svg>
