<svg width="24" height="24" viewBox="0 0 24 24" fill="none" xmlns="http://www.w3.org/2000/svg">
<path d="M9.58612 4L3.00012 10.586C2.62518 10.9611 2.41455 11.4697 2.41455 12C2.41455 12.5303 2.62518 13.0389 3.00012 13.414L9.58612 20C9.86581 20.2799 10.2222 20.4705 10.6103 20.5477C10.9983 20.625 11.4006 20.5854 11.7661 20.434L11.9111 20.366C12.2389 20.1983 12.514 19.9434 12.7062 19.6293C12.8983 19.3152 13 18.9542 13.0001 18.586V16H18.0001C18.2653 16 18.5197 15.8946 18.7072 15.7071C18.8948 15.5196 19.0001 15.2652 19.0001 15V9L18.9931 8.883C18.9645 8.63975 18.8475 8.41548 18.6645 8.25272C18.4815 8.08996 18.2451 8.00003 18.0001 8L13.0001 7.999V5.414C13 5.0185 12.8827 4.63191 12.6629 4.30309C12.4432 3.97427 12.1308 3.71799 11.7654 3.56665C11.4 3.41531 10.998 3.3757 10.6101 3.45284C10.2222 3.52997 9.86583 3.72038 9.58612 4Z" fill="currentColor"/>
<path d="M4.41513 12L11.0001 5.414V9L11.0071 9.117C11.0358 9.36025 11.1527 9.58453 11.3358 9.74729C11.5188 9.91005 11.7552 9.99997 12.0001 10L17.0001 9.999V13.999L12.0001 14C11.7349 14 11.4806 14.1054 11.293 14.2929C11.1055 14.4804 11.0001 14.7348 11.0001 15V18.586L4.41513 12Z" fill="currentColor"/>
<path d="M21.0001 8C21.2451 8.00003 21.4815 8.08996 21.6645 8.25272C21.8475 8.41547 21.9645 8.63975 21.9931 8.883L22.0001 9V15C21.9998 15.2549 21.9022 15.5 21.7273 15.6854C21.5523 15.8707 21.3132 15.9822 21.0587 15.9972C20.8043 16.0121 20.5537 15.9293 20.3583 15.7657C20.1628 15.6021 20.0372 15.3701 20.0071 15.117L20.0001 15V9C20.0001 8.73478 20.1055 8.48043 20.293 8.29289C20.4806 8.10536 20.7349 8 21.0001 8Z" fill="currentColor"/>
</svg>
