<svg width="24" height="24" viewBox="0 0 24 24" fill="none" xmlns="http://www.w3.org/2000/svg">
<path d="M10.0001 2L9.85012 2.005C9.34697 2.04284 8.87671 2.26947 8.53362 2.63945C8.19053 3.00943 7.99996 3.49542 8.00012 4V10.999L5.41412 11C5.01862 11.0001 4.63203 11.1174 4.30321 11.3372C3.97439 11.557 3.71811 11.8693 3.56677 12.2347C3.41543 12.6001 3.37582 13.0022 3.45296 13.3901C3.53009 13.778 3.72051 14.1343 4.00012 14.414L10.5861 21C10.9612 21.3749 11.4698 21.5856 12.0001 21.5856C12.5305 21.5856 13.0391 21.3749 13.4141 21L20.0001 14.414C20.28 14.1343 20.4706 13.7779 20.5479 13.3898C20.6251 13.0018 20.5855 12.5995 20.4341 12.234L20.3661 12.089C20.1984 11.7612 19.9435 11.4861 19.6294 11.294C19.3153 11.1018 18.9543 11.0001 18.5861 11L16.0001 10.999V4C16.0001 3.46957 15.7894 2.96086 15.4143 2.58579C15.0393 2.21071 14.5306 2 14.0001 2H10.0001Z" fill="currentColor"/>
</svg>
