<svg width="24" height="24" viewBox="0 0 24 24" fill="none" xmlns="http://www.w3.org/2000/svg">
<path d="M15.0001 4V12H18.5861C18.7838 12 18.9771 12.0587 19.1416 12.1686C19.306 12.2785 19.4341 12.4346 19.5098 12.6173C19.5854 12.8 19.6052 13.0011 19.5667 13.195C19.5281 13.389 19.4329 13.5671 19.2931 13.707L12.7071 20.293C12.5196 20.4805 12.2653 20.5858 12.0001 20.5858C11.7349 20.5858 11.4806 20.4805 11.2931 20.293L4.70709 13.707C4.56728 13.5671 4.47208 13.389 4.43351 13.195C4.39494 13.0011 4.41475 12.8 4.49042 12.6173C4.56609 12.4346 4.69423 12.2785 4.85864 12.1686C5.02305 12.0587 5.21634 12 5.41409 12H9.00009V4C9.00009 3.73478 9.10545 3.48043 9.29299 3.29289C9.48052 3.10536 9.73488 3 10.0001 3H14.0001C14.2653 3 14.5197 3.10536 14.7072 3.29289C14.8947 3.48043 15.0001 3.73478 15.0001 4Z" stroke="currentColor" stroke-width="1.5" stroke-linecap="round" stroke-linejoin="round"/>
</svg>
