<svg width="24" height="24" viewBox="0 0 24 24" fill="none" xmlns="http://www.w3.org/2000/svg">
<path d="M15.536 15.536L6 6M6 6H10M6 6V10M15.5859 15.586C15.3949 15.7705 15.2425 15.9911 15.1377 16.2352C15.0329 16.4792 14.9777 16.7416 14.9754 17.0072C14.9731 17.2727 15.0237 17.5361 15.1243 17.7819C15.2248 18.0277 15.3733 18.251 15.5611 18.4387C15.7489 18.6265 15.9722 18.775 16.218 18.8756C16.4638 18.9762 16.7272 19.0268 16.9927 19.0245C17.2583 19.0222 17.5207 18.967 17.7647 18.8622C18.0087 18.7573 18.2294 18.605 18.4139 18.414C18.7782 18.0368 18.9798 17.5316 18.9753 17.0072C18.9707 16.4828 18.7604 15.9811 18.3896 15.6103C18.0187 15.2395 17.5171 15.0292 16.9927 15.0246C16.4683 15.0201 15.9631 15.2216 15.5859 15.586Z" stroke="currentColor" stroke-width="1.5" stroke-linecap="round" stroke-linejoin="round"/>
</svg>
