<svg width="24" height="24" viewBox="0 0 24 24" fill="none" xmlns="http://www.w3.org/2000/svg">
<path d="M6.707 3.29297C6.87918 3.46516 6.98261 3.69426 6.99789 3.93729C7.01317 4.18031 6.93925 4.42057 6.79 4.61297L6.707 4.70697L5.415 5.99997H10C10.2549 6.00025 10.5 6.09785 10.6854 6.27282C10.8707 6.44779 10.9822 6.68692 10.9972 6.94136C11.0121 7.19581 10.9293 7.44635 10.7657 7.6418C10.6021 7.83726 10.3701 7.96287 10.117 7.99297L10 7.99997H5.415L6.707 9.29297C6.87918 9.46516 6.98261 9.69426 6.99789 9.93729C7.01317 10.1803 6.93925 10.4206 6.79 10.613L6.707 10.707C6.53481 10.8791 6.30571 10.9826 6.06268 10.9979C5.81966 11.0131 5.5794 10.9392 5.387 10.79L5.293 10.707L2.293 7.70697C2.25796 7.67207 2.22554 7.63463 2.196 7.59497L2.125 7.48497L2.071 7.37097L2.036 7.26597L2.011 7.14797L2.004 7.08997L2 6.99997L2.003 6.92497L2.02 6.79897L2.05 6.68797L2.094 6.57697L2.146 6.47897L2.21 6.38697L2.293 6.29297L5.293 3.29297C5.48053 3.1055 5.73484 3.00018 6 3.00018C6.26516 3.00018 6.51947 3.1055 6.707 3.29297Z" fill="currentColor"/>
<path d="M18.613 3.20998L18.707 3.29298L21.707 6.29298C21.7423 6.32767 21.7747 6.36512 21.804 6.40498L21.875 6.51498L21.929 6.62898L21.964 6.73398L21.994 6.88198L22 6.99998L21.997 7.07498L21.98 7.20098L21.95 7.31198L21.906 7.42298L21.854 7.52098L21.78 7.62498L21.707 7.70698L18.707 10.707C18.527 10.8863 18.2856 10.9905 18.0316 10.9982C17.7777 11.006 17.5303 10.9168 17.3397 10.7487C17.1492 10.5807 17.0297 10.3464 17.0056 10.0935C16.9815 9.84059 17.0546 9.58798 17.21 9.38698L17.293 9.29298L18.585 7.99998H14C13.7451 7.9997 13.5 7.9021 13.3146 7.72714C13.1293 7.55217 13.0178 7.31303 13.0028 7.05859C12.9879 6.80415 13.0707 6.5536 13.2343 6.35815C13.3979 6.1627 13.6299 6.03709 13.883 6.00698L14 5.99998H18.585L17.293 4.70698C17.1208 4.53479 17.0174 4.30569 17.0021 4.06266C16.9868 3.81964 17.0608 3.57939 17.21 3.38698L17.293 3.29298C17.4652 3.12081 17.6943 3.01738 17.9373 3.00209C18.1804 2.98681 18.4206 3.06073 18.613 3.20998Z" fill="currentColor"/>
<path d="M18 13H6C5.20435 13 4.44129 13.316 3.87868 13.8786C3.31607 14.4413 3 15.2043 3 16V18C3 18.7956 3.31607 19.5587 3.87868 20.1213C4.44129 20.6839 5.20435 21 6 21H18C18.7956 21 19.5587 20.6839 20.1213 20.1213C20.6839 19.5587 21 18.7956 21 18V16C21 15.2043 20.6839 14.4413 20.1213 13.8786C19.5587 13.316 18.7956 13 18 13Z" fill="currentColor"/>
</svg>
