<svg width="24" height="24" viewBox="0 0 24 24" fill="none" xmlns="http://www.w3.org/2000/svg">
<path d="M9 21H15M8.99985 12H5.41385C5.2161 11.9999 5.0228 11.9413 4.85839 11.8314C4.69398 11.7215 4.56584 11.5653 4.49017 11.3826C4.4145 11.1999 4.3947 10.9989 4.43327 10.8049C4.47183 10.611 4.56704 10.4328 4.70685 10.293L11.2928 3.70697C11.4804 3.5195 11.7347 3.41418 11.9998 3.41418C12.265 3.41418 12.5193 3.5195 12.7068 3.70697L19.2928 10.293C19.4327 10.4328 19.5279 10.611 19.5664 10.8049C19.605 10.9989 19.5852 11.1999 19.5095 11.3826C19.4339 11.5653 19.3057 11.7215 19.1413 11.8314C18.9769 11.9413 18.7836 11.9999 18.5858 12H14.9998V18H8.99985V12Z" stroke="currentColor" stroke-width="1.5" stroke-linecap="round" stroke-linejoin="round"/>
</svg>
