<svg width="24" height="24" viewBox="0 0 24 24" fill="none" xmlns="http://www.w3.org/2000/svg">
<path d="M16 10C15.606 10 15.2159 9.9224 14.8519 9.77164C14.488 9.62087 14.1573 9.3999 13.8787 9.12132C13.6001 8.84274 13.3791 8.51203 13.2284 8.14805C13.0776 7.78407 13 7.39397 13 7M16 10C16.7956 10 17.5587 9.68393 18.1213 9.12132C18.6839 8.55871 19 7.79565 19 7C19 6.20435 18.6839 5.44129 18.1213 4.87868C17.5587 4.31607 16.7956 4 16 4C15.606 4 15.2159 4.0776 14.8519 4.22836C14.488 4.37913 14.1573 4.6001 13.8787 4.87868C13.6001 5.15726 13.3791 5.48797 13.2284 5.85195C13.0776 6.21593 13 6.60603 13 7M16 10V20M13 7H3M3 7L7 11M3 7L7 3" stroke="currentColor" stroke-width="1.5" stroke-linecap="round" stroke-linejoin="round"/>
</svg>
