<svg width="24" height="24" viewBox="0 0 24 24" fill="none" xmlns="http://www.w3.org/2000/svg">
<path d="M12.089 3.63405C11.7612 3.80176 11.4861 4.0567 11.294 4.37077C11.1018 4.68484 11.0001 5.04586 11 5.41405L10.999 7.99905L9 8.00005C8.73478 8.00005 8.48043 8.10541 8.29289 8.29294C8.10536 8.48048 8 8.73483 8 9.00005V15L8.007 15.117C8.03566 15.3603 8.15259 15.5846 8.33563 15.7473C8.51866 15.9101 8.75507 16 9 16L10.999 15.999L11 18.5861C11.0001 18.9816 11.1174 19.3681 11.3372 19.697C11.557 20.0258 11.8693 20.2821 12.2347 20.4334C12.6001 20.5847 13.0022 20.6244 13.3901 20.5472C13.778 20.4701 14.1343 20.2797 14.414 20L21 13.414C21.3749 13.039 21.5856 12.5304 21.5856 12C21.5856 11.4697 21.3749 10.9611 21 10.5861L14.414 4.00005C14.1343 3.72018 13.7779 3.52957 13.3898 3.45231C13.0018 3.37506 12.5995 3.41464 12.234 3.56605L12.089 3.63405Z" fill="currentColor"/>
<path d="M3 8.00005C3.24493 8.00008 3.48134 8.09 3.66437 8.25276C3.84741 8.41552 3.96434 8.6398 3.993 8.88305L4 9.00005V15C3.99972 15.2549 3.90212 15.5001 3.72715 15.6854C3.55218 15.8708 3.31305 15.9823 3.05861 15.9972C2.80416 16.0122 2.55362 15.9294 2.35817 15.7658C2.16271 15.6022 2.0371 15.3701 2.007 15.117L2 15V9.00005C2 8.73483 2.10536 8.48048 2.29289 8.29294C2.48043 8.1054 2.73478 8.00005 3 8.00005Z" fill="currentColor"/>
<path d="M6 8.00005C6.24493 8.00008 6.48134 8.09 6.66437 8.25276C6.84741 8.41552 6.96434 8.6398 6.993 8.88305L7 9.00005V15C6.99972 15.2549 6.90212 15.5001 6.72715 15.6854C6.55218 15.8708 6.31305 15.9823 6.05861 15.9972C5.80416 16.0122 5.55362 15.9294 5.35817 15.7658C5.16271 15.6022 5.0371 15.3701 5.007 15.117L5 15V9.00005C5 8.73483 5.10536 8.48048 5.29289 8.29294C5.48043 8.1054 5.73478 8.00005 6 8.00005Z" fill="currentColor"/>
</svg>
