<svg width="24" height="24" viewBox="0 0 24 24" fill="none" xmlns="http://www.w3.org/2000/svg">
<path d="M12.089 3.63405C11.7612 3.80176 11.4861 4.0567 11.294 4.37077C11.1018 4.68484 11.0001 5.04586 11 5.41405L10.999 8.00005H4C3.46957 8.00005 2.96086 8.21076 2.58579 8.58584C2.21071 8.96091 2 9.46962 2 10.0001V14L2.005 14.15C2.04284 14.6532 2.26947 15.1235 2.63945 15.4666C3.00943 15.8096 3.49542 16.0002 4 16L10.999 15.999L11 18.5861C11.0001 18.9816 11.1174 19.3681 11.3372 19.697C11.557 20.0258 11.8693 20.2821 12.2347 20.4334C12.6001 20.5847 13.0022 20.6244 13.3901 20.5472C13.778 20.4701 14.1343 20.2797 14.414 20L21 13.414C21.3749 13.039 21.5856 12.5304 21.5856 12C21.5856 11.4697 21.3749 10.9611 21 10.5861L14.414 4.00005C14.1343 3.72018 13.7779 3.52957 13.3898 3.45231C13.0018 3.37506 12.5995 3.41464 12.234 3.56605L12.089 3.63405Z" fill="currentColor"/>
</svg>
