<svg width="24" height="24" viewBox="0 0 24 24" fill="none" xmlns="http://www.w3.org/2000/svg">
<path d="M16 10C15.606 10 15.2159 9.9224 14.8519 9.77164C14.488 9.62087 14.1573 9.3999 13.8787 9.12132C13.6001 8.84274 13.3791 8.51203 13.2284 8.14805C13.0776 7.78407 13 7.39397 13 7C13 6.60603 13.0776 6.21593 13.2284 5.85195C13.3791 5.48797 13.6001 5.15726 13.8787 4.87868C14.1573 4.6001 14.488 4.37913 14.8519 4.22836C15.2159 4.0776 15.606 4 16 4C16.7956 4 17.5587 4.31607 18.1213 4.87868C18.6839 5.44129 19 6.20435 19 7C19 7.79565 18.6839 8.55871 18.1213 9.12132C17.5587 9.68393 16.7956 10 16 10ZM16 10V20M13.5 9.5L5 18M5 18H10M5 18V13" stroke="currentColor" stroke-width="1.5" stroke-linecap="round" stroke-linejoin="round"/>
</svg>
