<svg width="24" height="24" viewBox="0 0 24 24" fill="none" xmlns="http://www.w3.org/2000/svg">
<path d="M10.5858 3L3.99981 9.586C3.71994 9.86569 3.52932 10.2221 3.45207 10.6102C3.37481 10.9982 3.4144 11.4005 3.56581 11.766L3.63381 11.911C3.80152 12.2388 4.05645 12.5139 4.37052 12.706C4.6846 12.8982 5.04562 12.9999 5.41381 13H7.99981V18C7.99981 18.2652 8.10516 18.5196 8.2927 18.7071C8.48024 18.8946 8.73459 19 8.99981 19H14.9998L15.1168 18.993C15.3601 18.9643 15.5843 18.8474 15.7471 18.6644C15.9098 18.4813 15.9998 18.2449 15.9998 18L15.9988 13H18.5858C18.9813 12.9999 19.3679 12.8826 19.6967 12.6628C20.0255 12.443 20.2818 12.1307 20.4332 11.7653C20.5845 11.3999 20.6241 10.9978 20.547 10.6099C20.4698 10.222 20.2794 9.86571 19.9998 9.586L13.4138 3C13.0387 2.62506 12.5301 2.41443 11.9998 2.41443C11.4695 2.41443 10.9609 2.62506 10.5858 3Z" fill="currentColor"/>
<path d="M14.9998 20C15.2547 20.0003 15.4998 20.0979 15.6852 20.2728C15.8705 20.4478 15.982 20.687 15.997 20.9414C16.0119 21.1958 15.9291 21.4464 15.7655 21.6418C15.602 21.8373 15.3699 21.9629 15.1168 21.993L14.9998 22H8.99981C8.74493 21.9997 8.49978 21.9021 8.31444 21.7272C8.1291 21.5522 8.01757 21.313 8.00264 21.0586C7.9877 20.8042 8.07048 20.5536 8.23407 20.3582C8.39766 20.1627 8.62971 20.0371 8.88281 20.007L8.99981 20H14.9998Z" fill="currentColor"/>
</svg>
