<svg width="24" height="24" viewBox="0 0 24 24" fill="none" xmlns="http://www.w3.org/2000/svg">
<path d="M12 8H15C15.2652 8 15.5196 8.10536 15.7071 8.29289C15.8946 8.48043 16 8.73478 16 9V12M15.716 15.698C15.6228 15.7936 15.5115 15.8696 15.3885 15.9214C15.2656 15.9733 15.1335 16 15 16H9C8.73478 16 8.48043 15.8947 8.29289 15.7072C8.10536 15.5196 8 15.2653 8 15V9.00005C8 8.72705 8.11 8.48005 8.287 8.30005M3 8H4M3 16H4M8 3V4M16 3V4M20 8H21M20 16H21M8 20V21M16 20V21M3 3L21 21" stroke="currentColor" stroke-width="1.5" stroke-linecap="round" stroke-linejoin="round"/>
</svg>
