<svg width="24" height="24" viewBox="0 0 24 24" fill="none" xmlns="http://www.w3.org/2000/svg">
<path d="M15 7H9C8.46957 7 7.96086 7.21071 7.58579 7.58579C7.21071 7.96086 7 8.46957 7 9V15C7 15.5304 7.21071 16.0391 7.58579 16.4142C7.96086 16.7893 8.46957 17 9 17H15C15.5304 17 16.0391 16.7893 16.4142 16.4142C16.7893 16.0391 17 15.5304 17 15V9C17 8.46957 16.7893 7.96086 16.4142 7.58579C16.0391 7.21071 15.5304 7 15 7Z" fill="currentColor"/>
<path d="M3.99987 7C4.25475 7.00028 4.4999 7.09788 4.68524 7.27285C4.87057 7.44782 4.9821 7.68695 4.99704 7.94139C5.01198 8.19584 4.92919 8.44638 4.7656 8.64183C4.60201 8.83729 4.36996 8.9629 4.11687 8.993L3.99987 9H2.99987C2.74499 8.99972 2.49984 8.90212 2.3145 8.72715C2.12916 8.55218 2.01763 8.31305 2.0027 8.05861C1.98776 7.80416 2.07054 7.55362 2.23413 7.35817C2.39772 7.16271 2.62977 7.0371 2.88287 7.007L2.99987 7H3.99987Z" fill="currentColor"/>
<path d="M3.99987 15C4.25475 15.0003 4.4999 15.0979 4.68524 15.2728C4.87057 15.4478 4.9821 15.687 4.99704 15.9414C5.01198 16.1958 4.92919 16.4464 4.7656 16.6418C4.60201 16.8373 4.36996 16.9629 4.11687 16.993L3.99987 17H2.99987C2.74499 16.9997 2.49984 16.9021 2.3145 16.7272C2.12916 16.5522 2.01763 16.313 2.0027 16.0586C1.98776 15.8042 2.07054 15.5536 2.23413 15.3582C2.39772 15.1627 2.62977 15.0371 2.88287 15.007L2.99987 15H3.99987Z" fill="currentColor"/>
<path d="M8 2C8.24493 2.00003 8.48134 2.08996 8.66437 2.25272C8.84741 2.41547 8.96434 2.63975 8.993 2.883L9 3V4C8.99972 4.25488 8.90212 4.50003 8.72715 4.68537C8.55218 4.8707 8.31305 4.98223 8.05861 4.99717C7.80416 5.01211 7.55362 4.92933 7.35817 4.76574C7.16271 4.60214 7.0371 4.3701 7.007 4.117L7 4V3C7 2.73478 7.10536 2.48043 7.29289 2.29289C7.48043 2.10536 7.73478 2 8 2Z" fill="currentColor"/>
<path d="M16 2C16.2449 2.00003 16.4813 2.08996 16.6644 2.25272C16.8474 2.41547 16.9643 2.63975 16.993 2.883L17 3V4C16.9997 4.25488 16.9021 4.50003 16.7272 4.68537C16.5522 4.8707 16.313 4.98223 16.0586 4.99717C15.8042 5.01211 15.5536 4.92933 15.3582 4.76574C15.1627 4.60214 15.0371 4.3701 15.007 4.117L15 4V3C15 2.73478 15.1054 2.48043 15.2929 2.29289C15.4804 2.10536 15.7348 2 16 2Z" fill="currentColor"/>
<path d="M20.9999 7C21.2547 7.00028 21.4999 7.09788 21.6852 7.27285C21.8706 7.44782 21.9821 7.68695 21.997 7.94139C22.012 8.19584 21.9292 8.44638 21.7656 8.64183C21.602 8.83729 21.37 8.9629 21.1169 8.993L20.9999 9H19.9999C19.745 8.99972 19.4998 8.90212 19.3145 8.72715C19.1292 8.55218 19.0176 8.31305 19.0027 8.05861C18.9878 7.80416 19.0705 7.55362 19.2341 7.35817C19.3977 7.16271 19.6298 7.0371 19.8829 7.007L19.9999 7H20.9999Z" fill="currentColor"/>
<path d="M20.9999 15C21.2547 15.0003 21.4999 15.0979 21.6852 15.2728C21.8706 15.4478 21.9821 15.687 21.997 15.9414C22.012 16.1958 21.9292 16.4464 21.7656 16.6418C21.602 16.8373 21.37 16.9629 21.1169 16.993L20.9999 17H19.9999C19.745 16.9997 19.4998 16.9021 19.3145 16.7272C19.1292 16.5522 19.0176 16.313 19.0027 16.0586C18.9878 15.8042 19.0705 15.5536 19.2341 15.3582C19.3977 15.1627 19.6298 15.0371 19.8829 15.007L19.9999 15H20.9999Z" fill="currentColor"/>
<path d="M8 19C8.24493 19 8.48134 19.09 8.66437 19.2527C8.84741 19.4155 8.96434 19.6397 8.993 19.883L9 20V21C8.99972 21.2549 8.90212 21.5 8.72715 21.6854C8.55218 21.8707 8.31305 21.9822 8.05861 21.9972C7.80416 22.0121 7.55362 21.9293 7.35817 21.7657C7.16271 21.6021 7.0371 21.3701 7.007 21.117L7 21V20C7 19.7348 7.10536 19.4804 7.29289 19.2929C7.48043 19.1054 7.73478 19 8 19Z" fill="currentColor"/>
<path d="M16 19C16.2449 19 16.4813 19.09 16.6644 19.2527C16.8474 19.4155 16.9643 19.6397 16.993 19.883L17 20V21C16.9997 21.2549 16.9021 21.5 16.7272 21.6854C16.5522 21.8707 16.313 21.9822 16.0586 21.9972C15.8042 22.0121 15.5536 21.9293 15.3582 21.7657C15.1627 21.6021 15.0371 21.3701 15.007 21.117L15 21V20C15 19.7348 15.1054 19.4804 15.2929 19.2929C15.4804 19.1054 15.7348 19 16 19Z" fill="currentColor"/>
</svg>
