<svg width="24" height="24" viewBox="0 0 24 24" fill="none" xmlns="http://www.w3.org/2000/svg">
<path d="M19 3C19.7652 2.99996 20.5015 3.29233 21.0583 3.81728C21.615 4.34224 21.9501 5.06011 21.995 5.824L22 6V18C22 18.7652 21.7077 19.5015 21.1827 20.0583C20.6578 20.615 19.9399 20.9501 19.176 20.995L19 21H5C4.23479 21 3.49849 20.7077 2.94174 20.1827C2.38499 19.6578 2.04989 18.9399 2.005 18.176L2 18V6C1.99996 5.23479 2.29233 4.49849 2.81728 3.94174C3.34224 3.38499 4.06011 3.04989 4.824 3.005L5 3H19ZM17 15H7L6.883 15.007C6.63995 15.0359 6.41594 15.153 6.25341 15.336C6.09088 15.519 6.00111 15.7552 6.00111 16C6.00111 16.2448 6.09088 16.481 6.25341 16.664C6.41594 16.847 6.63995 16.9641 6.883 16.993L7 17H17L17.117 16.993C17.3601 16.9641 17.5841 16.847 17.7466 16.664C17.9091 16.481 17.9989 16.2448 17.9989 16C17.9989 15.7552 17.9091 15.519 17.7466 15.336C17.5841 15.153 17.3601 15.0359 17.117 15.007L17 15ZM17 11H7L6.883 11.007C6.63995 11.0359 6.41594 11.153 6.25341 11.336C6.09088 11.519 6.00111 11.7552 6.00111 12C6.00111 12.2448 6.09088 12.481 6.25341 12.664C6.41594 12.847 6.63995 12.9641 6.883 12.993L7 13H17L17.117 12.993C17.3601 12.9641 17.5841 12.847 17.7466 12.664C17.9091 12.481 17.9989 12.2448 17.9989 12C17.9989 11.7552 17.9091 11.519 17.7466 11.336C17.5841 11.153 17.3601 11.0359 17.117 11.007L17 11ZM17 7H7L6.883 7.007C6.63995 7.03591 6.41594 7.15296 6.25341 7.33596C6.09088 7.51897 6.00111 7.75524 6.00111 8C6.00111 8.24476 6.09088 8.48103 6.25341 8.66403C6.41594 8.84704 6.63995 8.96409 6.883 8.993L7 9H17L17.117 8.993C17.3601 8.96409 17.5841 8.84704 17.7466 8.66403C17.9091 8.48103 17.9989 8.24476 17.9989 8C17.9989 7.75524 17.9091 7.51897 17.7466 7.33596C17.5841 7.15296 17.3601 7.03591 17.117 7.007L17 7Z" fill="currentColor"/>
</svg>
