<svg width="24" height="24" viewBox="0 0 24 24" fill="none" xmlns="http://www.w3.org/2000/svg">
<path d="M8 4H19C19.5304 4 20.0391 4.21071 20.4142 4.58579C20.7893 4.96086 21 5.46957 21 6V17M19.828 19.821C19.568 19.9393 19.2856 20.0004 19 20H5C4.46957 20 3.96086 19.7893 3.58579 19.4142C3.21071 19.0391 3 18.5304 3 18V6C2.99985 5.61892 3.10857 5.24573 3.31337 4.92436C3.51817 4.60299 3.81052 4.34682 4.156 4.186M7 8H8M12 8H17M7 12H12M16 12H17M7 16H16M3 3L21 21" stroke="currentColor" stroke-width="1.5" stroke-linecap="round" stroke-linejoin="round"/>
</svg>
