<svg width="24" height="24" viewBox="0 0 24 24" fill="none" xmlns="http://www.w3.org/2000/svg">
<path d="M19 4H5C4.20435 4 3.44129 4.31607 2.87868 4.87868C2.31607 5.44129 2 6.20435 2 7V17C2 17.7956 2.31607 18.5587 2.87868 19.1213C3.44129 19.6839 4.20435 20 5 20H19C19.7956 20 20.5587 19.6839 21.1213 19.1213C21.6839 18.5587 22 17.7956 22 17V7C22 6.20435 21.6839 5.44129 21.1213 4.87868C20.5587 4.31607 19.7956 4 19 4ZM9 7C9.25488 7.00028 9.50003 7.09788 9.68537 7.27285C9.8707 7.44782 9.98224 7.68695 9.99717 7.94139C10.0121 8.19584 9.92933 8.44638 9.76574 8.64183C9.60215 8.83729 9.3701 8.9629 9.117 8.993L9 9H7V11C6.99997 11.2449 6.91004 11.4813 6.74728 11.6644C6.58453 11.8474 6.36025 11.9643 6.117 11.993L6 12C5.75507 12 5.51866 11.91 5.33563 11.7473C5.15259 11.5845 5.03566 11.3603 5.007 11.117L5 11V8C5.00003 7.75507 5.08996 7.51866 5.25272 7.33563C5.41547 7.15259 5.63975 7.03566 5.883 7.007L6 7H9ZM18 12C18.2449 12 18.4813 12.09 18.6644 12.2527C18.8474 12.4155 18.9643 12.6397 18.993 12.883L19 13V16C19 16.2449 18.91 16.4813 18.7473 16.6644C18.5845 16.8474 18.3603 16.9643 18.117 16.993L18 17H15C14.7451 16.9997 14.5 16.9021 14.3146 16.7272C14.1293 16.5522 14.0178 16.313 14.0028 16.0586C13.9879 15.8042 14.0707 15.5536 14.2343 15.3582C14.3979 15.1627 14.6299 15.0371 14.883 15.007L15 15H17V13C17 12.7551 17.09 12.5187 17.2527 12.3356C17.4155 12.1526 17.6397 12.0357 17.883 12.007L18 12Z" fill="currentColor"/>
</svg>
