<svg width="24" height="24" viewBox="0 0 24 24" fill="none" xmlns="http://www.w3.org/2000/svg">
<path d="M8.703 4.68498L11.029 3.29998C11.3348 3.12975 11.679 3.04041 12.029 3.04041C12.379 3.04041 12.7232 3.12975 13.029 3.29998L19.029 6.87298H19C19.3062 7.04978 19.5601 7.30461 19.7358 7.6115C19.9115 7.9184 20.0026 8.26638 20 8.61998V15.156C20 15.404 19.954 15.646 19.868 15.871M17.712 17.708L12.971 20.737C12.674 20.9019 12.3398 20.9885 12 20.9885C11.6602 20.9885 11.326 20.9019 11.029 20.737L5.029 16.904C4.71736 16.7309 4.45763 16.4777 4.27671 16.1705C4.0958 15.8634 4.00026 15.5135 4 15.157V8.61998C4.00008 8.26334 4.09553 7.9132 4.27646 7.60585C4.45739 7.29851 4.71721 7.04513 5.029 6.87198L6.186 6.18298M11.593 7.59102C11.888 7.45802 12.23 7.47102 12.514 7.63102L15.514 9.42102H15.5C15.812 9.60202 16.003 9.93702 16 10.298V12M14.848 14.86L12.485 16.374C12.3366 16.4563 12.1697 16.4995 12 16.4995C11.8303 16.4995 11.6634 16.4563 11.515 16.374L8.515 14.452C8.35871 14.3653 8.22851 14.2384 8.13794 14.0843C8.04737 13.9302 7.99974 13.7547 8 13.576V10.298C8 9.93402 8.197 9.59802 8.514 9.42102L9.082 9.08202M3 3L21 21" stroke="currentColor" stroke-width="1.5" stroke-linecap="round" stroke-linejoin="round"/>
</svg>
