<svg width="24" height="24" viewBox="0 0 24 24" fill="none" xmlns="http://www.w3.org/2000/svg">
<path d="M14.2178 17.975L20.8368 5.80103M6.0791 9.756L18.2961 3.125M3 15C3 16.5913 3.63214 18.1174 4.75736 19.2426C5.88258 20.3679 7.4087 21 9 21C10.5913 21 12.1174 20.3679 13.2426 19.2426C14.3679 18.1174 15 16.5913 15 15C15 13.4087 14.3679 11.8826 13.2426 10.7574C12.1174 9.63214 10.5913 9 9 9C7.4087 9 5.88258 9.63214 4.75736 10.7574C3.63214 11.8826 3 13.4087 3 15ZM7 15C7 15.5304 7.21071 16.0391 7.58579 16.4142C7.96086 16.7893 8.46957 17 9 17C9.53043 17 10.0391 16.7893 10.4142 16.4142C10.7893 16.0391 11 15.5304 11 15C11 14.4696 10.7893 13.9609 10.4142 13.5858C10.0391 13.2107 9.53043 13 9 13C8.46957 13 7.96086 13.2107 7.58579 13.5858C7.21071 13.9609 7 14.4696 7 15ZM17 5C17 5.53043 17.2107 6.03914 17.5858 6.41421C17.9609 6.78929 18.4696 7 19 7C19.5304 7 20.0391 6.78929 20.4142 6.41421C20.7893 6.03914 21 5.53043 21 5C21 4.46957 20.7893 3.96086 20.4142 3.58579C20.0391 3.21071 19.5304 3 19 3C18.4696 3 17.9609 3.21071 17.5858 3.58579C17.2107 3.96086 17 4.46957 17 5Z" stroke="currentColor" stroke-width="1.5" stroke-linecap="round" stroke-linejoin="round"/>
</svg>
