<svg width="24" height="24" viewBox="0 0 24 24" fill="none" xmlns="http://www.w3.org/2000/svg">
<path d="M19.875 6.26996C20.2187 6.46542 20.5041 6.74893 20.7018 7.09131C20.8995 7.4337 21.0025 7.82258 21 8.21796V15.502C21 16.311 20.557 17.057 19.842 17.45L13.092 21.72C12.7574 21.9037 12.3818 22 12 22C11.6182 22 11.2426 21.9037 10.908 21.72L4.158 17.45C3.80817 17.2588 3.51612 16.9771 3.31241 16.6344C3.1087 16.2917 3.0008 15.9006 3 15.502V8.21696C3 7.40796 3.443 6.66296 4.158 6.26996L10.908 2.28996C11.2525 2.09999 11.6396 2.00037 12.033 2.00037C12.4264 2.00037 12.8135 2.09999 13.158 2.28996L19.908 6.26996H19.875Z" stroke="currentColor" stroke-width="1.5" stroke-linecap="round" stroke-linejoin="round"/>
<path d="M15.5 9.42199C15.812 9.60199 16.003 9.93699 16 10.298V13.575C16 13.939 15.803 14.275 15.485 14.452L12.485 16.374C12.3366 16.4563 12.1697 16.4995 12 16.4995C11.8303 16.4995 11.6634 16.4563 11.515 16.374L8.515 14.452C8.35871 14.3653 8.22851 14.2383 8.13794 14.0843C8.04737 13.9302 7.99974 13.7547 8 13.576V10.298C8 9.93399 8.197 9.59799 8.514 9.42099L11.514 7.63099C11.825 7.45699 12.204 7.45699 12.514 7.63099L15.514 9.42099H15.5V9.42199Z" stroke="currentColor" stroke-width="1.5" stroke-linecap="round" stroke-linejoin="round"/>
</svg>
