<svg width="24" height="24" viewBox="0 0 24 24" fill="none" xmlns="http://www.w3.org/2000/svg">
<path d="M9.17381 9.17C8.42219 9.91871 7.99877 10.9353 7.99671 11.9962C7.99465 13.0571 8.41411 14.0754 9.16282 14.827C9.91152 15.5786 10.9281 16.002 11.989 16.0041C13.0499 16.0062 14.0682 15.5867 14.8198 14.838M15.9998 12C15.9998 10.9391 15.5784 9.92172 14.8282 9.17157C14.0781 8.42143 13.0607 8 11.9998 8M19.6947 15.6971C20.0898 15.4821 20.4195 15.1646 20.6491 14.7779C20.8788 14.3912 20.9999 13.9498 20.9997 13.5001V12.0001C21.0018 10.4621 20.6098 8.94919 19.8609 7.6058C19.1121 6.26241 18.0315 5.13334 16.7222 4.32632C15.413 3.5193 13.9187 3.06126 12.3821 2.99592C10.8455 2.93058 9.31778 3.26011 7.94474 3.95306M5.62274 5.63606C4.14986 7.11376 3.23613 9.05729 3.03783 11.1342C2.83953 13.2112 3.36898 15.2925 4.53563 17.0222C5.70228 18.7519 7.43364 20.0225 9.43359 20.6168C11.4336 21.2111 13.5778 21.092 15.4997 20.2801M2.99976 3L20.9998 21" stroke="currentColor" stroke-width="1.5" stroke-linecap="round" stroke-linejoin="round"/>
</svg>
