<svg width="24" height="24" viewBox="0 0 24 24" fill="none" xmlns="http://www.w3.org/2000/svg">
<path d="M12 20.9999V21.0099M3 8.99988V9.00988M21 8.99988V9.00988M8 20.0999C6.63534 19.4343 5.46126 18.4342 4.58704 17.1928C3.71281 15.9514 3.16686 14.509 3 12.9999M16 20.0999C17.3647 19.4343 18.5387 18.4342 19.413 17.1928C20.2872 15.9514 20.8331 14.509 21 12.9999M6.20001 4.99993C7.8081 3.68389 9.82205 2.96484 11.9 2.96484C13.978 2.96484 15.9919 3.68389 17.6 4.99993M9 11.9999C9 12.7955 9.31607 13.5586 9.87868 14.1212C10.4413 14.6838 11.2044 14.9999 12 14.9999C12.7956 14.9999 13.5587 14.6838 14.1213 14.1212C14.6839 13.5586 15 12.7955 15 11.9999C15 11.2042 14.6839 10.4412 14.1213 9.87856C13.5587 9.31595 12.7956 8.99988 12 8.99988C11.2044 8.99988 10.4413 9.31595 9.87868 9.87856C9.31607 10.4412 9 11.2042 9 11.9999Z" stroke="currentColor" stroke-width="1.5" stroke-linecap="round" stroke-linejoin="round"/>
</svg>
