<svg width="24" height="24" viewBox="0 0 24 24" fill="none" xmlns="http://www.w3.org/2000/svg">
<path d="M12 8.00003C12.7826 8.00003 13.548 8.22961 14.2014 8.66032C14.8549 9.09104 15.3676 9.70397 15.6761 10.4232C15.9846 11.1424 16.0753 11.9364 15.9371 12.7067C15.7988 13.477 15.4376 14.1898 14.8983 14.7568C14.3589 15.3239 13.665 15.7203 12.9026 15.8969C12.1402 16.0735 11.3427 16.0225 10.6089 15.7504C9.87519 15.4782 9.23739 14.9968 8.77454 14.3657C8.31169 13.7346 8.04413 12.9817 8.005 12.2L8 12L8.005 11.8C8.05631 10.7751 8.4996 9.80904 9.24319 9.10175C9.98677 8.39447 10.9738 8.00003 12 8.00003Z" fill="currentColor"/>
<path d="M12 20C12.2449 20.0001 12.4813 20.09 12.6644 20.2527C12.8474 20.4155 12.9643 20.6398 12.993 20.883L13 21.01C12.9997 21.2649 12.9021 21.5101 12.7272 21.6954C12.5522 21.8807 12.313 21.9923 12.0586 22.0072C11.8042 22.0221 11.5536 21.9394 11.3582 21.7758C11.1627 21.6122 11.0371 21.3801 11.007 21.127L11 21C11 20.7348 11.1054 20.4805 11.2929 20.2929C11.4804 20.1054 11.7348 20 12 20Z" fill="currentColor"/>
<path d="M3 8.00003C3.24493 8.00006 3.48134 8.08999 3.66437 8.25275C3.84741 8.4155 3.96434 8.63978 3.993 8.88303L4 9.01003C3.99972 9.26491 3.90212 9.51006 3.72715 9.6954C3.55218 9.88074 3.31305 9.99226 3.05861 10.0072C2.80416 10.0221 2.55362 9.93936 2.35817 9.77577C2.16271 9.61217 2.0371 9.38013 2.007 9.12703L2 9.00003C2 8.73481 2.10536 8.48046 2.29289 8.29292C2.48043 8.10539 2.73478 8.00003 3 8.00003Z" fill="currentColor"/>
<path d="M21 8.00003C21.2449 8.00006 21.4813 8.08999 21.6644 8.25275C21.8474 8.4155 21.9643 8.63978 21.993 8.88303L22 9.01003C21.9997 9.26491 21.9021 9.51006 21.7272 9.6954C21.5522 9.88074 21.313 9.99226 21.0586 10.0072C20.8042 10.0221 20.5536 9.93936 20.3582 9.77577C20.1627 9.61217 20.0371 9.38013 20.007 9.12703L20 9.00003C20 8.73481 20.1054 8.48046 20.2929 8.29292C20.4804 8.10539 20.7348 8.00003 21 8.00003Z" fill="currentColor"/>
<path d="M2.88997 12.006C3.02051 11.9916 3.15261 12.003 3.27874 12.0396C3.40487 12.0762 3.52255 12.1373 3.62507 12.2194C3.72759 12.3014 3.81293 12.4029 3.87623 12.518C3.93952 12.6331 3.97953 12.7595 3.99397 12.89C4.14226 14.2314 4.62749 15.5135 5.4045 16.6169C6.18151 17.7204 7.22504 18.6093 8.43797 19.201C8.55609 19.2586 8.66173 19.3388 8.74885 19.4371C8.83597 19.5355 8.90287 19.65 8.94572 19.7742C8.98858 19.8984 9.00655 20.0298 8.99861 20.161C8.99068 20.2921 8.95699 20.4204 8.89947 20.5385C8.84195 20.6567 8.76173 20.7623 8.66338 20.8494C8.56504 20.9365 8.4505 21.0034 8.3263 21.0463C8.2021 21.0891 8.07068 21.1071 7.93953 21.0992C7.80839 21.0912 7.68009 21.0576 7.56197 21C6.04545 20.2604 4.74073 19.1491 3.76928 17.7696C2.79783 16.39 2.19124 14.7871 2.00597 13.11C1.97706 12.8466 2.05393 12.5824 2.21969 12.3756C2.38544 12.1687 2.62653 12.0362 2.88997 12.007V12.006Z" fill="currentColor"/>
<path d="M20.993 12L21.11 12.006C21.2406 12.0205 21.367 12.0605 21.482 12.1238C21.5971 12.1871 21.6986 12.2724 21.7807 12.3749C21.8628 12.4774 21.9239 12.5951 21.9605 12.7213C21.9971 12.8474 22.0085 12.9795 21.994 13.11C21.8086 14.7869 21.2019 16.3896 20.2305 17.769C19.259 19.1483 17.9544 20.2595 16.438 20.999C16.32 21.0566 16.1917 21.0903 16.0606 21.0982C15.9296 21.1062 15.7982 21.0882 15.674 21.0454C15.5499 21.0026 15.4354 20.9358 15.3371 20.8487C15.2388 20.7617 15.1585 20.6561 15.101 20.538C15.0435 20.42 15.0098 20.2917 15.0018 20.1607C14.9939 20.0296 15.0118 19.8982 15.0546 19.7741C15.0974 19.6499 15.1643 19.5354 15.2513 19.4371C15.3384 19.3388 15.444 19.2586 15.562 19.201C16.7748 18.6094 17.8183 17.7206 18.5953 16.6174C19.3723 15.5141 19.8576 14.2322 20.006 12.891C20.0327 12.6474 20.148 12.422 20.33 12.2577C20.5119 12.0935 20.7479 12.0018 20.993 12Z" fill="currentColor"/>
<path d="M5.56698 4.22602C7.35369 2.76392 9.59128 1.96509 11.9 1.96509C14.2087 1.96509 16.4463 2.76392 18.233 4.22602C18.3369 4.30839 18.4234 4.41061 18.4875 4.52673C18.5515 4.64285 18.5918 4.77055 18.6061 4.90239C18.6203 5.03424 18.6082 5.1676 18.5704 5.29471C18.5326 5.42182 18.4699 5.54015 18.3859 5.6428C18.302 5.74546 18.1985 5.83039 18.0814 5.89265C17.9643 5.95492 17.836 5.99327 17.7039 6.00548C17.5719 6.01769 17.4387 6.00352 17.3122 5.96378C17.1857 5.92404 17.0683 5.85954 16.967 5.77402C15.5375 4.60404 13.7472 3.96478 11.9 3.96478C10.0528 3.96478 8.26244 4.60404 6.83298 5.77402C6.73162 5.85954 6.61427 5.92404 6.48775 5.96378C6.36123 6.00352 6.22808 6.01769 6.09603 6.00548C5.96398 5.99327 5.83568 5.95492 5.71859 5.89265C5.60151 5.83039 5.49797 5.74546 5.41402 5.6428C5.33007 5.54015 5.26737 5.42182 5.22958 5.29471C5.19179 5.1676 5.17965 5.03424 5.19389 4.90239C5.20812 4.77055 5.24844 4.64285 5.31249 4.52673C5.37654 4.41061 5.46305 4.30839 5.56698 4.22602Z" fill="currentColor"/>
</svg>
