<svg width="24" height="24" viewBox="0 0 24 24" fill="none" xmlns="http://www.w3.org/2000/svg">
<path d="M12 12V12.01M9.172 9.17204C5.266 13.077 3.367 17.509 4.929 19.072C6.491 20.633 10.929 18.734 14.829 14.828M16.713 12.715C19.3 9.43805 20.355 6.21304 19.071 4.92904C17.787 3.64504 14.563 4.69904 11.287 7.28604M4.929 4.92896C3.367 6.49096 5.266 10.929 9.172 14.829C13.077 18.734 17.509 20.633 19.072 19.071M19 15C18.233 13.206 16.785 11.128 14.828 9.17196C12.884 7.22696 10.787 5.76996 9 4.99996M3 3L21 21" stroke="currentColor" stroke-width="1.5" stroke-linecap="round" stroke-linejoin="round"/>
</svg>
