<svg width="24" height="24" viewBox="0 0 24 24" fill="none" xmlns="http://www.w3.org/2000/svg">
<path d="M4 8.00005V6.00005C4 5.44305 4.228 4.93905 4.595 4.57605M4 16V18C4 18.5304 4.21071 19.0391 4.58579 19.4142C4.96086 19.7893 5.46957 20 6 20H8M16 4H18C18.5304 4 19.0391 4.21071 19.4142 4.58579C19.7893 4.96086 20 5.46957 20 6V8M16 20.0001H18C18.558 20.0001 19.062 19.7721 19.425 19.4041M12 12.5L12.312 12.305M12 12.5L8 10M12 12.5V17M14.769 10.769L16 10M16 10V12M16 10L12 7.5L11.698 7.689M9.225 9.235L8 10M8 10V14.5L12 17M12 17L15.076 15.077M3 3L21 21" stroke="currentColor" stroke-width="1.5" stroke-linecap="round" stroke-linejoin="round"/>
</svg>
