<svg width="24" height="24" viewBox="0 0 24 24" fill="none" xmlns="http://www.w3.org/2000/svg">
<path d="M10 21H8C7.46957 21 6.96086 20.7893 6.58579 20.4142C6.21071 20.0391 6 19.5304 6 19V5C6 4.46957 6.21071 3.96086 6.58579 3.58579C6.96086 3.21071 7.46957 3 8 3H16C16.5304 3 17.0391 3.21071 17.4142 3.58579C17.7893 3.96086 18 4.46957 18 5V8.5M17 17L13 14.5M17 17V21.5M17 17L21 14.5M13 14.5L17 12L21 14.5M13 14.5V19L17 21.5M21 14.5V19L17 21.5M11 4H13" stroke="currentColor" stroke-width="1.5" stroke-linecap="round" stroke-linejoin="round"/>
</svg>
