<svg width="24" height="24" viewBox="0 0 24 24" fill="none" xmlns="http://www.w3.org/2000/svg">
<path d="M11.9998 15C10.4085 15 8.88243 14.3679 7.75721 13.2426C6.63199 12.1174 5.99985 10.5913 5.99985 9C5.99985 7.4087 6.63199 5.88258 7.75721 4.75736C8.88243 3.63214 10.4085 3 11.9998 3C13.5911 3 15.1173 3.63214 16.2425 4.75736C17.3677 5.88258 17.9998 7.4087 17.9998 9C17.9998 10.5913 17.3677 12.1174 16.2425 13.2426C15.1173 14.3679 13.5911 15 11.9998 15ZM11.9998 15L15.3998 20.89L16.9978 17.657L20.5958 17.889L17.1958 12M6.80186 12L3.40186 17.89L6.99986 17.657L8.59786 20.889L11.9979 15" stroke="currentColor" stroke-width="1.5" stroke-linecap="round" stroke-linejoin="round"/>
</svg>
