<svg width="24" height="24" viewBox="0 0 24 24" fill="none" xmlns="http://www.w3.org/2000/svg">
<path d="M19.4961 13.983L21.4621 17.389C21.543 17.5292 21.5887 17.687 21.5952 17.8488C21.6018 18.0105 21.569 18.1715 21.4996 18.3178C21.4303 18.4641 21.3265 18.5914 21.1972 18.6888C21.0679 18.7862 20.9169 18.8508 20.7571 18.877L20.6441 18.888L20.5321 18.887L17.5991 18.697L16.2961 21.333C16.2254 21.4757 16.1216 21.5995 15.9934 21.6941C15.8652 21.7886 15.7162 21.8512 15.559 21.8767C15.4017 21.9021 15.2407 21.8896 15.0892 21.8403C14.9377 21.7909 14.8002 21.7062 14.6881 21.593L14.6061 21.499L14.5341 21.389L12.5661 17.982C13.9515 17.8954 15.298 17.4893 16.5003 16.7955C17.7025 16.1018 18.7279 15.1391 19.4961 13.983Z" fill="currentColor"/>
<path d="M11.4301 17.982L9.46411 21.39C9.38444 21.5281 9.27295 21.6451 9.13892 21.7314C9.00489 21.8177 8.85219 21.8707 8.69353 21.8861C8.53486 21.9014 8.37483 21.8787 8.22673 21.8197C8.07864 21.7607 7.94677 21.6672 7.84211 21.547L7.76611 21.447L7.70211 21.333L6.39811 18.698L3.46711 18.888C3.30566 18.8984 3.14409 18.8695 2.99626 18.8038C2.84842 18.738 2.71871 18.6375 2.61825 18.5107C2.51778 18.3839 2.44955 18.2346 2.4194 18.0756C2.38924 17.9167 2.39806 17.7528 2.44511 17.598L2.48511 17.491L2.53511 17.391L4.50311 13.982C5.27078 15.1381 6.29558 16.1009 7.4973 16.795C8.69903 17.4891 10.0451 17.8947 11.4301 17.982Z" fill="currentColor"/>
<path d="M12.0001 2L12.2401 2.004C14.054 2.06623 15.7729 2.83056 17.034 4.13577C18.2952 5.44098 19.0002 7.18502 19.0001 9L18.9971 9.193L18.9901 9.385L18.9721 9.63L18.9461 9.872L18.9221 10.05C18.8563 10.4816 18.7502 10.9062 18.6051 11.318L18.4891 11.626L18.3361 11.974C17.77 13.18 16.8715 14.1994 15.7462 14.9125C14.6209 15.6257 13.3155 16.0029 11.9832 16C10.651 15.9971 9.3472 15.614 8.22504 14.896C7.10289 14.1779 6.20892 13.1545 5.64812 11.946L5.51812 11.649L5.46612 11.516L5.38612 11.299L5.29112 11.005C5.25719 10.8911 5.22618 10.7764 5.19812 10.661L5.13812 10.39L5.08912 10.119L5.06912 9.98L5.03012 9.657L5.00612 9.292L5.00012 9C5.00009 7.18502 5.70502 5.44098 6.9662 4.13577C8.22738 2.83056 9.94621 2.06623 11.7601 2.004L12.0001 2Z" fill="currentColor"/>
</svg>
