<svg width="24" height="24" viewBox="0 0 24 24" fill="none" xmlns="http://www.w3.org/2000/svg">
<path d="M16.72 12.7039C17.6268 11.5492 18.0788 10.1021 17.9903 8.63662C17.9019 7.1711 17.2792 5.78888 16.2401 4.75164C15.201 3.7144 13.8177 3.09415 12.352 3.00832C10.8863 2.92248 9.44004 3.37703 8.28699 4.28589M6.53199 6.52589C6.0286 7.63683 5.87572 8.87479 6.09374 10.0748C6.31177 11.2748 6.89033 12.3799 7.75233 13.2428C8.61433 14.1057 9.71882 14.6853 10.9186 14.9046C12.1184 15.1238 13.3565 14.9722 14.468 14.4699M12 14.9999L15.4 20.8899L16.998 17.6569L17.705 17.7029M18.813 14.8009L17.196 12.0009M6.80201 11.9999L3.40201 17.8899L7.00001 17.6569L8.59801 20.8889L11.998 14.9999M3 2.99988L21 20.9999" stroke="currentColor" stroke-width="1.5" stroke-linecap="round" stroke-linejoin="round"/>
</svg>
