<svg width="24" height="24" viewBox="0 0 24 24" fill="none" xmlns="http://www.w3.org/2000/svg">
<path d="M12.9998 9L20.3828 16.418C21.2058 17.238 21.2058 18.566 20.3828 19.385C19.9874 19.7783 19.4524 19.999 18.8948 19.999C18.3371 19.999 17.8022 19.7783 17.4068 19.385L9.99979 12M9.99979 12L15.9998 6L12.9998 3L6.99979 9L3.75979 10.296C3.5678 10.3728 3.39786 10.4961 3.2652 10.6547C3.13255 10.8133 3.04132 11.0024 2.9997 11.205C2.95808 11.4075 2.96736 11.6172 3.02672 11.8153C3.08607 12.0134 3.19364 12.1937 3.33979 12.34L6.65979 15.66C6.80609 15.8062 6.98636 15.9137 7.18445 15.9731C7.38254 16.0324 7.59227 16.0417 7.79483 16.0001C7.99739 15.9585 8.18646 15.8672 8.34509 15.7346C8.50373 15.6019 8.62698 15.432 8.70379 15.24L9.99979 12Z" stroke="currentColor" stroke-width="1.5" stroke-linecap="round" stroke-linejoin="round"/>
</svg>
