<svg width="24" height="24" viewBox="0 0 24 24" fill="none" xmlns="http://www.w3.org/2000/svg">
<path d="M19.9998 5C20.5044 4.99984 20.9904 5.19041 21.3604 5.5335C21.7303 5.87659 21.957 6.34684 21.9948 6.85L21.9998 7V17C22 17.5046 21.8094 17.9906 21.4663 18.3605C21.1232 18.7305 20.653 18.9572 20.1498 18.995L19.9998 19H8.99981C8.78001 19 8.56633 18.9276 8.39181 18.794L8.29181 18.707L3.25481 13.667C2.44581 12.763 2.40781 11.417 3.17181 10.437L3.29181 10.293L8.29181 5.293C8.44762 5.13738 8.65045 5.03755 8.86881 5.009L8.99981 5H19.9998ZM12.5108 9.14C12.3106 9.02082 12.075 8.97531 11.8448 9.01134C11.6145 9.04736 11.4041 9.16266 11.2498 9.33732C11.0956 9.51198 11.0072 9.73503 10.9998 9.96794C10.9925 10.2009 11.0668 10.429 11.2098 10.613L11.2928 10.707L12.5848 12L11.2928 13.293L11.2098 13.387C11.0607 13.5794 10.9868 13.8196 11.0022 14.0626C11.0175 14.3056 11.1209 14.5346 11.2931 14.7067C11.4652 14.8789 11.6942 14.9823 11.9372 14.9976C12.1802 15.013 12.4204 14.9391 12.6128 14.79L12.7068 14.707L13.9998 13.415L15.2928 14.707L15.3868 14.79C15.5792 14.9391 15.8194 15.013 16.0624 14.9976C16.3054 14.9823 16.5344 14.8789 16.7065 14.7067C16.8787 14.5346 16.9821 14.3056 16.9975 14.0626C17.0128 13.8196 16.939 13.5794 16.7898 13.387L16.7068 13.293L15.4148 12L16.7068 10.707L16.7898 10.613C16.939 10.4206 17.0128 10.1804 16.9975 9.9374C16.9821 9.69444 16.8787 9.46541 16.7065 9.29326C16.5344 9.12112 16.3054 9.01768 16.0624 9.00235C15.8194 8.98702 15.5792 9.06086 15.3868 9.21L15.2928 9.293L13.9998 10.585L12.7068 9.293L12.6128 9.21L12.5108 9.14Z" fill="currentColor"/>
</svg>
