<svg width="24" height="24" viewBox="0 0 24 24" fill="none" xmlns="http://www.w3.org/2000/svg">
<path d="M14 6L21 13L17 17M4 19.9999L5.768 18.2319M5.82812 18.1721C6.09073 18.4348 6.40253 18.6432 6.74569 18.7853C7.08885 18.9275 7.45667 19.0007 7.82812 19.0007C8.19957 19.0007 8.56738 18.9275 8.91054 18.7853C9.25371 18.6432 9.5655 18.4348 9.82812 18.1721L20.4141 7.58607C20.5999 7.40035 20.7473 7.17983 20.8479 6.93713C20.9484 6.69442 21.0002 6.43429 21.0002 6.17157C21.0002 5.90886 20.9484 5.64872 20.8479 5.40602C20.7473 5.16331 20.5999 4.9428 20.4141 4.75707L19.2431 3.58607C19.0574 3.40027 18.8369 3.25288 18.5942 3.15232C18.3515 3.05176 18.0913 3 17.8286 3C17.5659 3 17.3058 3.05176 17.0631 3.15232C16.8204 3.25288 16.5998 3.40027 16.4141 3.58607L5.82812 14.1721C5.56542 14.4347 5.35704 14.7465 5.21486 15.0896C5.07269 15.4328 4.99951 15.8006 4.99951 16.1721C4.99951 16.5435 5.07269 16.9113 5.21486 17.2545C5.35704 17.5977 5.56542 17.9095 5.82812 18.1721Z" stroke="currentColor" stroke-width="1.5" stroke-linecap="round" stroke-linejoin="round"/>
</svg>
