<svg width="24" height="24" viewBox="0 0 24 24" fill="none" xmlns="http://www.w3.org/2000/svg">
<path d="M12 12C12.7834 13.3877 13.9634 14.5098 15.3888 15.2225C16.8141 15.9351 18.4198 16.2059 20 16M12 12C10.4065 11.9846 8.84495 12.4455 7.51512 13.3235C6.18529 14.2015 5.14797 15.4566 4.53613 16.928M12 12C12.81 10.6277 13.1916 9.04478 13.0961 7.45412C13.0006 5.86346 12.4322 4.33756 11.4639 3.07202M7.5 13.5C8.31736 15.1672 9.51044 16.622 10.9854 17.7499C12.4603 18.8778 14.1769 19.648 16 20M12.9508 7.35306C11.0982 7.22715 9.24159 7.53291 7.52718 8.24626C5.81276 8.95962 4.28729 10.0611 3.0708 11.4641M15.5488 15.147C16.5841 13.6057 17.2476 11.8451 17.487 10.0038C17.7265 8.16259 17.5354 6.29089 16.9288 4.53601M3 12C3 13.1819 3.23279 14.3522 3.68508 15.4442C4.13738 16.5361 4.80031 17.5282 5.63604 18.364C6.47177 19.1997 7.46392 19.8626 8.55585 20.3149C9.64778 20.7672 10.8181 21 12 21C13.1819 21 14.3522 20.7672 15.4442 20.3149C16.5361 19.8626 17.5282 19.1997 18.364 18.364C19.1997 17.5282 19.8626 16.5361 20.3149 15.4442C20.7672 14.3522 21 13.1819 21 12C21 10.8181 20.7672 9.64778 20.3149 8.55585C19.8626 7.46392 19.1997 6.47177 18.364 5.63604C17.5282 4.80031 16.5361 4.13738 15.4442 3.68508C14.3522 3.23279 13.1819 3 12 3C10.8181 3 9.64778 3.23279 8.55585 3.68508C7.46392 4.13738 6.47177 4.80031 5.63604 5.63604C4.80031 6.47177 4.13738 7.46392 3.68508 8.55585C3.23279 9.64778 3 10.8181 3 12Z" stroke="currentColor" stroke-width="1.5" stroke-linecap="round" stroke-linejoin="round"/>
</svg>
