<svg width="24" height="24" viewBox="0 0 24 24" fill="none" xmlns="http://www.w3.org/2000/svg">
<path d="M15 9L9 15M10 12L12 14M12 10L14 12M8 21C8 19.6739 7.47322 18.4021 6.53553 17.4645C5.59785 16.5268 4.32608 16 3 16M8 21C6.67392 21 5.40215 20.4732 4.46447 19.5355C3.52678 18.5979 3 17.3261 3 16M8 21C15.18 21 21 15.18 21 8M3 16C3 8.82 8.82 3 16 3M16 3C17.3261 3 18.5979 3.52678 19.5355 4.46447C20.4732 5.40215 21 6.67392 21 8M16 3C16 4.32608 16.5268 5.59785 17.4645 6.53553C18.4021 7.47322 19.6739 8 21 8" stroke="currentColor" stroke-width="1.5" stroke-linecap="round" stroke-linejoin="round"/>
</svg>
