<svg width="24" height="24" viewBox="0 0 24 24" fill="none" xmlns="http://www.w3.org/2000/svg">
<path d="M17.8279 2C18.5552 1.99984 19.2577 2.26388 19.8049 2.743L19.9499 2.879L21.1209 4.049C21.6599 4.58739 21.9739 5.31069 21.9992 6.07212C22.0244 6.83355 21.7591 7.57607 21.2569 8.149L21.1209 8.293L19.4149 10L21.7069 12.293C21.8791 12.4652 21.9825 12.6943 21.9978 12.9373C22.0131 13.1803 21.9391 13.4206 21.7899 13.613L21.7069 13.707L17.7069 17.707C17.5269 17.8863 17.2854 17.9905 17.0315 17.9982C16.7776 18.006 16.5302 17.9168 16.3396 17.7488C16.149 17.5807 16.0296 17.3464 16.0055 17.0935C15.9814 16.8406 16.0545 16.588 16.2099 16.387L16.2929 16.293L19.5849 13L17.9989 11.415L10.5349 18.879C9.87389 19.5399 8.9939 19.9362 8.06088 19.993L7.82788 20.001C7.15388 20.001 6.49788 19.823 5.92288 19.493L4.70688 20.707C4.52693 20.8863 4.28545 20.9905 4.0315 20.9982C3.77755 21.006 3.53017 20.9168 3.33961 20.7488C3.14904 20.5807 3.02958 20.3464 3.00549 20.0935C2.98139 19.8406 3.05447 19.588 3.20988 19.387L3.29288 19.293L4.50688 18.077C4.10829 17.3822 3.9377 16.5798 4.01914 15.7829C4.10059 14.9861 4.42997 14.2348 4.96088 13.635L5.12088 13.465L15.7069 2.879C16.2209 2.36454 16.9043 2.0543 17.6299 2.006L17.8279 2ZM17.8279 4C17.6081 3.99998 17.3944 4.07238 17.2199 4.206L17.1209 4.293L15.4139 6L17.9999 8.585L19.7069 6.879C19.8623 6.72345 19.9621 6.521 19.9909 6.303L20.0009 6.172C20.0008 5.95174 19.9281 5.73766 19.7939 5.563L19.7069 5.464L18.5359 4.293C18.4429 4.20002 18.3325 4.12628 18.2111 4.076C18.0896 4.02572 17.9594 3.9999 17.8279 4Z" fill="currentColor"/>
</svg>
