<svg width="24" height="24" viewBox="0 0 24 24" fill="none" xmlns="http://www.w3.org/2000/svg">
<path d="M14 8C14 7.46957 13.7893 6.96086 13.4142 6.58579C13.0391 6.21071 12.5304 6 12 6M12 17C15.314 17 18 12.97 18 8C18 6.4087 17.3679 4.88258 16.2426 3.75736C15.1174 2.63214 13.5913 2 12 2C10.4087 2 8.88258 2.63214 7.75736 3.75736C6.63214 4.88258 6 6.4087 6 8C6 12.97 8.686 17 12 17ZM12 17V18C12 18.5304 11.7893 19.0391 11.4142 19.4142C11.0391 19.7893 10.5304 20 10 20H7C6.46957 20 5.96086 20.2107 5.58579 20.5858C5.21071 20.9609 5 21.4696 5 22" stroke="currentColor" stroke-width="1.5" stroke-linecap="round" stroke-linejoin="round"/>
</svg>
