<svg width="24" height="24" viewBox="0 0 24 24" fill="none" xmlns="http://www.w3.org/2000/svg">
<path d="M15 9L14 10M12 12L9.00001 15M10 12L12 14M8.00001 21C8.00001 19.6739 7.47323 18.4021 6.53554 17.4645C5.59786 16.5268 4.32609 16 3.00001 16M8.00001 21C6.67393 21 5.40217 20.4732 4.46449 19.5356C3.52681 18.5979 3.00001 17.3261 3.00001 16M8.00001 21C9.70598 21.0022 11.3956 20.6676 12.972 20.0153C14.5483 19.3631 15.9804 18.406 17.186 17.199M3.00001 16C2.99779 14.2912 3.33355 12.5988 3.98794 11.0202C4.64233 9.44166 5.60244 8.00809 6.81302 6.80202M18.975 14.972C20.3015 12.8889 21.0042 10.4696 21 8.00002M21 8.00002C21 6.67394 20.4732 5.40217 19.5356 4.46448C18.5979 3.5268 17.3261 3.00002 16 3.00002M21 8.00002C19.6739 8.00002 18.4022 7.47322 17.4645 6.53553C16.5268 5.59785 16 4.3261 16 3.00002M16 3.00002C13.5324 2.99594 11.1151 3.69751 9.03302 5.02202M3.00001 3L21 21" stroke="currentColor" stroke-width="1.5" stroke-linecap="round" stroke-linejoin="round"/>
</svg>
