<svg width="24" height="24" viewBox="0 0 24 24" fill="none" xmlns="http://www.w3.org/2000/svg">
<path d="M20.0411 16.0461C20.8936 14.3552 21.191 12.4385 20.8909 10.5688C20.5909 8.69905 19.7088 6.97159 18.3702 5.63226C17.0315 4.29292 15.3045 3.40995 13.4349 3.10902C11.5653 2.80808 9.64846 3.10451 7.95713 3.95612M5.63413 5.63912C3.94602 7.32669 2.99745 9.61574 2.99707 12.0027C2.9967 14.3897 3.94455 16.679 5.63213 18.3671C7.3197 20.0552 9.60875 21.0038 11.9957 21.0042C14.3827 21.0045 16.672 20.0567 18.3601 18.3691M12.0001 7L16.7551 10.455M12.0001 7L12 3M12.0001 7L7.24512 10.455M16.7551 10.455L20.4999 9M16.7551 10.455L15.2091 15.212L15.0001 16M15.0001 16H9.00012L7.24512 10.455M15.0001 16L17.5 19M7.24512 10.455L3.5 9M9.061 16.0449L6.5 18.9999M3 3L21 21" stroke="currentColor" stroke-width="1.5" stroke-linecap="round" stroke-linejoin="round"/>
</svg>
