<svg width="24" height="24" viewBox="0 0 24 24" fill="none" xmlns="http://www.w3.org/2000/svg">
<path d="M14 6L21 13L19 15M10 10L5.828 14.172C5.56536 14.4346 5.35702 14.7464 5.21487 15.0896C5.07273 15.4328 4.99957 15.8006 4.99957 16.172C4.99957 16.5434 5.07273 16.9112 5.21487 17.2544C5.35702 17.5976 5.56536 17.9094 5.828 18.172C6.09064 18.4346 6.40245 18.643 6.74561 18.7851C7.08877 18.9273 7.45657 19.0004 7.828 19.0004C8.19943 19.0004 8.56723 18.9273 8.91039 18.7851C9.25355 18.643 9.56536 18.4346 9.828 18.172L14 14M16 12.0001L20.414 7.58607C20.5998 7.40035 20.7472 7.17983 20.8478 6.93713C20.9483 6.69442 21.0001 6.43429 21.0001 6.17157C21.0001 5.90886 20.9483 5.64872 20.8478 5.40602C20.7472 5.16331 20.5998 4.9428 20.414 4.75707L19.243 3.58607C19.0573 3.40027 18.8368 3.25288 18.5941 3.15232C18.3513 3.05176 18.0912 3 17.8285 3C17.5658 3 17.3057 3.05176 17.0629 3.15232C16.8202 3.25288 16.5997 3.40027 16.414 3.58607L12 8.00007M4 19.9999L5.768 18.2319M3 3L21 21" stroke="currentColor" stroke-width="1.5" stroke-linecap="round" stroke-linejoin="round"/>
</svg>
