<svg width="24" height="24" viewBox="0 0 24 24" fill="none" xmlns="http://www.w3.org/2000/svg">
<path d="M12.495 3.02002C12.5636 4.28232 12.3655 5.5449 11.9136 6.72553C11.4617 7.90616 10.7661 8.97834 9.87223 9.87223C8.97834 10.7661 7.90616 11.4617 6.72553 11.9136C5.5449 12.3655 4.28232 12.5636 3.02002 12.495M20.98 11.505C19.7177 11.4364 18.4551 11.6345 17.2744 12.0864C16.0938 12.5383 15.0216 13.2338 14.1277 14.1277C13.2338 15.0216 12.5383 16.0938 12.0864 17.2744C11.6345 18.4551 11.4364 19.7177 11.505 20.98M9 9L11 11M13 13L15 15M11 7L13 8M7 11L8 13M16 11L17 13M11 16L13 17M5.63606 18.3641C6.47179 19.1998 7.46395 19.8627 8.55588 20.315C9.64782 20.7673 10.8182 21.0001 12.0001 21.0001C13.182 21.0001 14.3523 20.7673 15.4442 20.315C16.5362 19.8627 17.5283 19.1998 18.3641 18.3641C19.1998 17.5283 19.8627 16.5362 20.315 15.4442C20.7673 14.3523 21.0001 13.182 21.0001 12.0001C21.0001 10.8182 20.7673 9.64782 20.315 8.55588C19.8627 7.46395 19.1998 6.47179 18.3641 5.63606C16.6762 3.94822 14.387 3 12.0001 3C9.61309 3 7.32389 3.94822 5.63606 5.63606C3.94822 7.32389 3 9.61309 3 12.0001C3 14.387 3.94822 16.6762 5.63606 18.3641Z" stroke="currentColor" stroke-width="1.5" stroke-linecap="round" stroke-linejoin="round"/>
</svg>
