<svg width="24" height="24" viewBox="0 0 24 24" fill="none" xmlns="http://www.w3.org/2000/svg">
<path d="M12 1C13.8565 1 15.637 1.7375 16.9497 3.05025C18.2625 4.36301 19 6.14348 19 8C19 13.457 15.972 18 12 18C8.1 18 5.11 13.621 5.003 8.297L5 8L5.004 7.76C5.06623 5.94609 5.83056 4.22726 7.13577 2.96607C8.44098 1.70489 10.185 0.99997 12 1ZM12 5C11.7348 5 11.4804 5.10536 11.2929 5.29289C11.1054 5.48043 11 5.73478 11 6C11 6.26522 11.1054 6.51957 11.2929 6.70711C11.4804 6.89464 11.7348 7 12 7L12.117 7.007C12.3603 7.03566 12.5845 7.15259 12.7473 7.33563C12.91 7.51866 13 7.75507 13 8L13.007 8.117C13.0371 8.3701 13.1627 8.60215 13.3582 8.76574C13.5536 8.92933 13.8042 9.01211 14.0586 8.99717C14.313 8.98224 14.5522 8.8707 14.7272 8.68537C14.9021 8.50003 14.9997 8.25488 15 8C15 7.20435 14.6839 6.44129 14.1213 5.87868C13.5587 5.31607 12.7956 5 12 5Z" fill="currentColor"/>
<path d="M12 16C12.2449 16 12.4813 16.09 12.6644 16.2527C12.8474 16.4155 12.9643 16.6397 12.993 16.883L13 17V18C13 18.7652 12.7077 19.5015 12.1827 20.0583C11.6578 20.615 10.9399 20.9501 10.176 20.995L10 21H7C6.75507 21 6.51866 21.09 6.33563 21.2527C6.15259 21.4155 6.03566 21.6397 6.007 21.883L6 22C6 22.2652 5.89464 22.5196 5.70711 22.7071C5.51957 22.8946 5.26522 23 5 23C4.73478 23 4.48043 22.8946 4.29289 22.7071C4.10536 22.5196 4 22.2652 4 22C3.99996 21.2348 4.29233 20.4985 4.81728 19.9417C5.34224 19.385 6.06011 19.0499 6.824 19.005L7 19H10C10.2449 19 10.4813 18.91 10.6644 18.7473C10.8474 18.5845 10.9643 18.3603 10.993 18.117L11 18V17C11 16.7348 11.1054 16.4804 11.2929 16.2929C11.4804 16.1054 11.7348 16 12 16Z" fill="currentColor"/>
</svg>
