<svg width="24" height="24" viewBox="0 0 24 24" fill="none" xmlns="http://www.w3.org/2000/svg">
<path d="M12 3C13.1819 3 14.3522 3.23279 15.4442 3.68508C16.5361 4.13738 17.5282 4.80031 18.364 5.63604C19.1997 6.47177 19.8626 7.46392 20.3149 8.55585C20.7672 9.64778 21 10.8181 21 12C21 13.1819 20.7672 14.3522 20.3149 15.4442C19.8626 16.5361 19.1997 17.5282 18.364 18.364C17.5282 19.1997 16.5361 19.8626 15.4442 20.3149C14.3522 20.7672 13.1819 21 12 21C10.8181 21 9.64778 20.7672 8.55585 20.3149C7.46392 19.8626 6.47177 19.1997 5.63604 18.364C4.80031 17.5282 4.13738 16.5361 3.68508 15.4442C3.23279 14.3522 3 13.1819 3 12C3 10.8181 3.23279 9.64778 3.68508 8.55585C4.13738 7.46392 4.80031 6.47177 5.63604 5.63604C6.47177 4.80031 7.46392 4.13738 8.55585 3.68508C9.64778 3.23279 10.8181 3 12 3ZM12 3L12.0002 7M12.0002 7L16.7602 10.45M12.0002 7L7.24023 10.45M16.7602 10.45L15.0002 16M16.7602 10.45L20.5 9M15.0002 16H9.00023L7.24023 10.45M15.0002 16L17.5 19M7.24023 10.45L3.5 9M9.06 16.05L6.5 19" stroke="currentColor" stroke-width="1.5" stroke-linecap="round" stroke-linejoin="round"/>
</svg>
