<svg width="24" height="24" viewBox="0 0 24 24" fill="none" xmlns="http://www.w3.org/2000/svg">
<path d="M10 12V12.01M12 14V14.01M10.5131 6.487L12.5001 4.5C13.4315 3.58718 14.6856 3.07883 15.9897 3.08542C17.2939 3.09201 18.5427 3.613 19.4649 4.53518C20.3871 5.45736 20.9081 6.70621 20.9147 8.01036C20.9213 9.3145 20.4129 10.5686 19.5001 11.5L17.4821 13.518M15.5001 15.5L11.5001 19.5C10.5686 20.4128 9.31459 20.9212 8.01045 20.9146C6.70631 20.908 5.45745 20.387 4.53527 19.4648C3.61309 18.5426 3.0921 17.2938 3.08551 15.9896C3.07893 14.6855 3.58728 13.4315 4.50009 12.5L8.50009 8.5M3 3L21 21" stroke="currentColor" stroke-width="1.5" stroke-linecap="round" stroke-linejoin="round"/>
</svg>
