<svg width="24" height="24" viewBox="0 0 24 24" fill="none" xmlns="http://www.w3.org/2000/svg">
<path d="M20.207 3.79297C21.2913 4.87715 21.9152 6.33806 21.9485 7.87103C21.9819 9.40399 21.4221 10.8907 20.386 12.021L20.207 12.207L12.207 20.207C11.1068 21.3059 9.62 21.9304 8.06501 21.9468C6.51003 21.9632 5.01042 21.3702 3.88723 20.2947C2.76403 19.2192 2.10652 17.7468 2.05546 16.1925C2.0044 14.6383 2.56384 13.1259 3.61402 11.979L3.79302 11.793L11.793 3.79297C12.9088 2.6773 14.4221 2.05054 16 2.05054C17.5779 2.05054 19.0912 2.6773 20.207 3.79297ZM12 13C11.7348 13 11.4804 13.1053 11.2929 13.2929C11.1054 13.4804 11 13.7347 11 14L11.007 14.127C11.0371 14.3801 11.1627 14.6121 11.3582 14.7757C11.5536 14.9393 11.8042 15.0221 12.0586 15.0071C12.3131 14.9922 12.5522 14.8807 12.7272 14.6953C12.9021 14.51 12.9997 14.2648 13 14.01L12.993 13.883C12.9644 13.6397 12.8474 13.4154 12.6644 13.2527C12.4814 13.0899 12.245 13 12 13ZM14 11C13.7348 11 13.4804 11.1053 13.2929 11.2929C13.1054 11.4804 13 11.7347 13 12L13.007 12.127C13.0371 12.3801 13.1627 12.6121 13.3582 12.7757C13.5536 12.9393 13.8042 13.0221 14.0586 13.0071C14.3131 12.9922 14.5522 12.8807 14.7272 12.6953C14.9021 12.51 14.9997 12.2648 15 12.01L14.993 11.883C14.9644 11.6397 14.8474 11.4154 14.6644 11.2527C14.4814 11.0899 14.245 11 14 11ZM10 11C9.7348 11 9.48045 11.1053 9.29291 11.2929C9.10538 11.4804 9.00002 11.7347 9.00002 12L9.00702 12.127C9.03712 12.3801 9.16273 12.6121 9.35819 12.7757C9.55364 12.9393 9.80418 13.0221 10.0586 13.0071C10.3131 12.9922 10.5522 12.8807 10.7272 12.6953C10.9021 12.51 10.9997 12.2648 11 12.01L10.993 11.883C10.9644 11.6397 10.8474 11.4154 10.6644 11.2527C10.4814 11.0899 10.245 11 10 11ZM12 8.99997C11.7348 8.99997 11.4804 9.10532 11.2929 9.29286C11.1054 9.4804 11 9.73475 11 9.99997L11.007 10.127C11.0371 10.3801 11.1627 10.6121 11.3582 10.7757C11.5536 10.9393 11.8042 11.0221 12.0586 11.0071C12.3131 10.9922 12.5522 10.8807 12.7272 10.6953C12.9021 10.51 12.9997 10.2648 13 10.01L12.993 9.88297C12.9644 9.63972 12.8474 9.41544 12.6644 9.25268C12.4814 9.08992 12.245 9 12 8.99997Z" fill="currentColor"/>
</svg>
