<svg width="24" height="24" viewBox="0 0 24 24" fill="none" xmlns="http://www.w3.org/2000/svg">
<path d="M14.0005 12V12.01M10.0005 12V12.01M12.0005 10V10.01M12.0005 14V14.01M4.50053 12.5L12.5005 4.50004C13.4288 3.57178 14.6878 3.05029 16.0005 3.05029C17.3133 3.05029 18.5723 3.57178 19.5005 4.50004C20.4288 5.4283 20.9503 6.68729 20.9503 8.00004C20.9503 9.3128 20.4288 10.5718 19.5005 11.5L11.5005 19.5C10.5723 20.4283 9.31328 20.9498 8.00053 20.9498C6.68777 20.9498 5.42879 20.4283 4.50053 19.5C3.57227 18.5718 3.05078 17.3128 3.05078 16C3.05078 14.6873 3.57227 13.4283 4.50053 12.5Z" stroke="currentColor" stroke-width="1.5" stroke-linecap="round" stroke-linejoin="round"/>
</svg>
