<svg width="24" height="24" viewBox="0 0 24 24" fill="none" xmlns="http://www.w3.org/2000/svg">
<path d="M4 7.00006V6.00006C4 5.44806 4.224 4.94806 4.586 4.58606M4 17V18C4 18.5304 4.21071 19.0391 4.58579 19.4142C4.96086 19.7893 5.46957 20 6 20H8M16 4H18C18.5304 4 19.0391 4.21071 19.4142 4.58579C19.7893 4.96086 20 5.46957 20 6V7M16 20H18C18.551 20 19.05 19.777 19.412 19.416M10 11V13M15 11V11.01M19 11V13M3 3L21 21M5 11H6V13H5V11Z" stroke="currentColor" stroke-width="1.5" stroke-linecap="round" stroke-linejoin="round"/>
</svg>
