<svg width="24" height="24" viewBox="0 0 24 24" fill="none" xmlns="http://www.w3.org/2000/svg">
<path d="M11 7H19C19.2652 7 19.5196 7.10536 19.7071 7.29289C19.8946 7.48043 20 7.73478 20 8V15C20 15.27 19.893 15.516 19.718 15.696M16 16H5C4.73478 16 4.48043 15.8946 4.29289 15.7071C4.10536 15.5196 4 15.2652 4 15V8C4 7.73478 4.10536 7.48043 4.29289 7.29289C4.48043 7.10536 4.73478 7 5 7H7M7 16V20M7.5 16L11.744 11.756M13.745 9.755L16.5 7M13.5 16L14.749 14.751M16.741 12.759L20 9.5M4 13.5L8.752 8.74805M17 17V20M5 20H9M15 20H19M17 7V5M3 3L21 21" stroke="currentColor" stroke-width="1.5" stroke-linecap="round" stroke-linejoin="round"/>
</svg>
