<svg width="24" height="24" viewBox="0 0 24 24" fill="none" xmlns="http://www.w3.org/2000/svg">
<path d="M17.0002 10L15.0002 4M7.00022 10L9.00022 4M10.5002 20H7.24422C6.52761 20 5.8347 19.7434 5.29085 19.2768C4.74699 18.8102 4.38814 18.1643 4.27922 17.456L3.02422 10.304C2.98038 10.019 2.9987 9.72786 3.07792 9.45059C3.15714 9.17331 3.29538 8.91645 3.48316 8.6976C3.67095 8.47876 3.90383 8.30311 4.16586 8.1827C4.42788 8.06229 4.71285 7.99997 5.00122 8H19.0002C19.2886 7.99997 19.5735 8.06229 19.8356 8.1827C20.0976 8.30311 20.3305 8.47876 20.5183 8.6976C20.7061 8.91645 20.8443 9.17331 20.9235 9.45059C21.0027 9.72786 21.021 10.019 20.9772 10.304L20.8342 11.121M12.6022 12.092C12.2024 11.9656 11.773 11.968 11.3747 12.0988C10.9764 12.2297 10.6293 12.4825 10.3824 12.8214C10.1356 13.1604 10.0015 13.5683 9.99911 13.9876C9.99675 14.4069 10.1262 14.8163 10.3692 15.158M18.0002 22L21.3502 18.716C21.5556 18.5167 21.7191 18.2782 21.8308 18.0146C21.9426 17.7511 22.0004 17.4678 22.0008 17.1816C22.0013 16.8953 21.9444 16.6119 21.8335 16.3479C21.7226 16.084 21.56 15.845 21.3552 15.645C20.9373 15.2363 20.3764 15.007 19.7919 15.0059C19.2075 15.0048 18.6456 15.2319 18.2262 15.639L18.0022 15.859L17.7792 15.639C17.3614 15.2306 16.8007 15.0015 16.2164 15.0004C15.6322 14.9993 15.0706 15.2262 14.6512 15.633C14.4457 15.8323 14.2822 16.0707 14.1704 16.3342C14.0586 16.5977 14.0007 16.881 14.0001 17.1672C13.9995 17.4535 14.0563 17.737 14.1671 18.0009C14.2779 18.2648 14.4405 18.5039 14.6452 18.704L18.0002 22Z" stroke="currentColor" stroke-width="1.5" stroke-linecap="round" stroke-linejoin="round"/>
</svg>
