<svg width="24" height="24" viewBox="0 0 24 24" fill="none" xmlns="http://www.w3.org/2000/svg">
<path d="M17.0002 10L15.0002 4M7.00022 10L9.00022 4M12.5002 20H7.24422C6.52761 20 5.8347 19.7434 5.29085 19.2768C4.74699 18.8102 4.38814 18.1643 4.27922 17.456L3.02422 10.304C2.98038 10.019 2.9987 9.72786 3.07792 9.45059C3.15714 9.17331 3.29538 8.91645 3.48316 8.6976C3.67095 8.47876 3.90383 8.30311 4.16586 8.1827C4.42788 8.06229 4.71285 7.99997 5.00122 8H19.0002C19.2886 7.99997 19.5735 8.06229 19.8356 8.1827C20.0976 8.30311 20.3305 8.47876 20.5183 8.6976C20.7061 8.91645 20.8443 9.17331 20.9235 9.45059C21.0027 9.72786 21.021 10.019 20.9772 10.304L20.4992 13.027M14.0002 14C14.0002 13.6044 13.8829 13.2178 13.6632 12.8889C13.4434 12.56 13.131 12.3036 12.7656 12.1522C12.4001 12.0009 11.998 11.9613 11.61 12.0384C11.2221 12.1156 10.8657 12.3061 10.586 12.5858C10.3063 12.8655 10.1158 13.2219 10.0386 13.6098C9.96147 13.9978 10.0011 14.3999 10.1525 14.7654C10.3038 15.1308 10.5602 15.4432 10.8891 15.6629C11.218 15.8827 11.6047 16 12.0002 16M16.0002 22L21.0002 17M21.0002 17V21.5M21.0002 17H16.5002" stroke="currentColor" stroke-width="1.5" stroke-linecap="round" stroke-linejoin="round"/>
</svg>
