<svg width="24" height="24" viewBox="0 0 24 24" fill="none" xmlns="http://www.w3.org/2000/svg">
<path d="M17.0002 10L15.0002 4M7.00022 10L9.00022 4M11.0002 20H7.24422C6.52761 20 5.8347 19.7434 5.29085 19.2768C4.74699 18.8102 4.38814 18.1643 4.27922 17.456L3.02422 10.304C2.98038 10.019 2.9987 9.72786 3.07792 9.45059C3.15714 9.17331 3.29538 8.91645 3.48316 8.6976C3.67095 8.47876 3.90383 8.30311 4.16586 8.1827C4.42788 8.06229 4.71285 7.99997 5.00122 8H19.0002C19.2886 7.99997 19.5735 8.06229 19.8356 8.1827C20.0976 8.30311 20.3305 8.47876 20.5183 8.6976C20.7061 8.91645 20.8443 9.17331 20.9235 9.45059C21.0027 9.72786 21.021 10.019 20.9772 10.304L20.7622 11.531M13.4832 12.658C13.2792 12.433 13.0267 12.2574 12.7447 12.1445C12.4628 12.0316 12.1588 11.9844 11.8559 12.0065C11.553 12.0286 11.2591 12.1194 10.9965 12.272C10.7339 12.4246 10.5095 12.6351 10.3403 12.8873C10.1712 13.1396 10.0617 13.427 10.0202 13.7279C9.97866 14.0288 10.0062 14.3351 10.1008 14.6238C10.1953 14.9124 10.3543 15.1757 10.5658 15.3937C10.7773 15.6117 11.0356 15.7787 11.3212 15.882M20.2002 20.2L22.0002 22M15.0002 18C15.0002 18.7956 15.3163 19.5587 15.8789 20.1213C16.4415 20.6839 17.2046 21 18.0002 21C18.7959 21 19.5589 20.6839 20.1215 20.1213C20.6841 19.5587 21.0002 18.7956 21.0002 18C21.0002 17.2044 20.6841 16.4413 20.1215 15.8787C19.5589 15.3161 18.7959 15 18.0002 15C17.2046 15 16.4415 15.3161 15.8789 15.8787C15.3163 16.4413 15.0002 17.2044 15.0002 18Z" stroke="currentColor" stroke-width="1.5" stroke-linecap="round" stroke-linejoin="round"/>
</svg>
