<svg width="24" height="24" viewBox="0 0 24 24" fill="none" xmlns="http://www.w3.org/2000/svg">
<path d="M17.0002 10L15.0002 4M7.00022 10L9.00022 4M12.0002 20H7.24422C6.52761 20 5.8347 19.7434 5.29085 19.2768C4.74699 18.8102 4.38814 18.1643 4.27922 17.456L3.02422 10.304C2.98038 10.019 2.9987 9.72786 3.07792 9.45059C3.15714 9.17331 3.29538 8.91645 3.48316 8.6976C3.67095 8.47876 3.90383 8.30311 4.16586 8.1827C4.42788 8.06229 4.71285 7.99997 5.00122 8H19.0002C19.2886 7.99997 19.5735 8.06229 19.8356 8.1827C20.0976 8.30311 20.3305 8.47876 20.5183 8.6976C20.7061 8.91645 20.8443 9.17331 20.9235 9.45059C21.0027 9.72786 21.021 10.019 20.9772 10.304L20.8162 11.224M13.8662 13.28C13.7351 12.9402 13.5136 12.6426 13.2258 12.4194C12.9379 12.1962 12.5946 12.0559 12.2328 12.0136C11.871 11.9712 11.5046 12.0285 11.1729 12.1792C10.8413 12.3298 10.5572 12.5682 10.3511 12.8686C10.145 13.1689 10.0249 13.5199 10.0037 13.8835C9.98249 14.2471 10.061 14.6097 10.2307 14.9319C10.4004 15.2542 10.655 15.524 10.9668 15.7123C11.2786 15.9005 11.636 16 12.0002 16M19.0002 18V18.01M21.1212 20.121C21.5409 19.7015 21.8267 19.1669 21.9425 18.585C22.0583 18.003 21.999 17.3997 21.7719 16.8515C21.5449 16.3033 21.1604 15.8347 20.667 15.505C20.1737 15.1753 19.5936 14.9994 19.0002 14.9994C18.4068 14.9994 17.8268 15.1753 17.3334 15.505C16.84 15.8347 16.4555 16.3033 16.2285 16.8515C16.0015 17.3997 15.9421 18.003 16.0579 18.585C16.1738 19.1669 16.4596 19.7015 16.8792 20.121C17.2972 20.54 18.0042 21.166 19.0002 22C20.0512 21.11 20.7592 20.484 21.1212 20.121Z" stroke="currentColor" stroke-width="1.5" stroke-linecap="round" stroke-linejoin="round"/>
</svg>
