<svg width="24" height="24" viewBox="0 0 24 24" fill="none" xmlns="http://www.w3.org/2000/svg">
<path d="M17.0002 10L15.0002 4M7.00022 10L9.00022 4M12.5002 20H7.24422C6.52761 20 5.8347 19.7434 5.29085 19.2768C4.74699 18.8102 4.38814 18.1643 4.27922 17.456L3.02422 10.304C2.98038 10.019 2.9987 9.72786 3.07792 9.45059C3.15714 9.17331 3.29538 8.91645 3.48316 8.6976C3.67095 8.47876 3.90383 8.30311 4.16586 8.1827C4.42788 8.06229 4.71285 7.99997 5.00122 8H19.0002C19.2886 7.99997 19.5735 8.06229 19.8356 8.1827C20.0976 8.30311 20.3305 8.47876 20.5183 8.6976C20.7061 8.91645 20.8443 9.17331 20.9235 9.45059C21.0027 9.72786 21.021 10.019 20.9772 10.304L20.5832 12.552M13.8562 13.254C13.7208 12.9172 13.4962 12.6235 13.2066 12.4046C12.917 12.1856 12.5733 12.0497 12.2123 12.0112C11.8513 11.9728 11.4866 12.0334 11.1574 12.1864C10.8282 12.3395 10.5468 12.5793 10.3435 12.88C10.1402 13.1808 10.0226 13.5313 10.0034 13.8938C9.9841 14.2564 10.0639 14.6173 10.2341 14.938C10.4044 15.2586 10.6587 15.5269 10.9699 15.714C11.281 15.9011 11.6372 15.9999 12.0002 16M16.0002 21L21.0002 16M21.0002 21V21.01M16.0002 16V16.01" stroke="currentColor" stroke-width="1.5" stroke-linecap="round" stroke-linejoin="round"/>
</svg>
