<svg width="24" height="24" viewBox="0 0 24 24" fill="none" xmlns="http://www.w3.org/2000/svg">
<path d="M17.0002 10L15.0002 4M7.00022 10L9.00022 4M12.0002 20H7.24422C6.52761 20 5.8347 19.7434 5.29085 19.2768C4.74699 18.8102 4.38814 18.1643 4.27922 17.456L3.02422 10.304C2.98038 10.019 2.9987 9.72786 3.07792 9.45059C3.15714 9.17331 3.29538 8.91645 3.48316 8.6976C3.67095 8.47876 3.90383 8.30311 4.16586 8.1827C4.42788 8.06229 4.71285 7.99997 5.00122 8H19.0002C19.2886 7.99997 19.5735 8.06229 19.8356 8.1827C20.0976 8.30311 20.3305 8.47876 20.5183 8.6976C20.7061 8.91645 20.8443 9.17331 20.9235 9.45059C21.0027 9.72786 21.021 10.019 20.9772 10.304L20.7102 11.826M19.0012 21C18.4708 21 17.9621 20.7893 17.587 20.4142C17.2119 20.0391 17.0012 19.5304 17.0012 19C17.0012 18.4696 17.2119 17.9609 17.587 17.5858C17.9621 17.2107 18.4708 17 19.0012 17M19.0012 21C19.5316 21 20.0404 20.7893 20.4154 20.4142C20.7905 20.0391 21.0012 19.5304 21.0012 19C21.0012 18.4696 20.7905 17.9609 20.4154 17.5858C20.0404 17.2107 19.5316 17 19.0012 17M19.0012 21V22.5M19.0012 17V15.5M22.0322 17.25L20.7332 18M17.2702 20L15.9702 20.75M15.9702 17.25L17.2702 18M20.7332 20L22.0332 20.75M10.0002 14C10.0002 14.5304 10.2109 15.0391 10.586 15.4142C10.9611 15.7893 11.4698 16 12.0002 16C12.5306 16 13.0394 15.7893 13.4144 15.4142C13.7895 15.0391 14.0002 14.5304 14.0002 14C14.0002 13.4696 13.7895 12.9609 13.4144 12.5858C13.0394 12.2107 12.5306 12 12.0002 12C11.4698 12 10.9611 12.2107 10.586 12.5858C10.2109 12.9609 10.0002 13.4696 10.0002 14Z" stroke="currentColor" stroke-width="1.5" stroke-linecap="round" stroke-linejoin="round"/>
</svg>
