<svg width="24" height="24" viewBox="0 0 24 24" fill="none" xmlns="http://www.w3.org/2000/svg">
<path d="M17 10L15 4M7 10L7.75 7.748M8.751 4.746L9 4M12 8H19C19.2883 7.99997 19.5733 8.06229 19.8353 8.1827C20.0974 8.30311 20.3302 8.47876 20.518 8.6976C20.7058 8.91645 20.844 9.17331 20.9233 9.45059C21.0025 9.72786 21.0208 10.019 20.977 10.304C20.535 12.82 20.221 14.742 20 16M18.99 19.003C18.7087 19.317 18.3643 19.568 17.9793 19.7398C17.5944 19.9116 17.1775 20.0003 16.756 20H7.24397C6.52737 20 5.83445 19.7434 5.2906 19.2768C4.74675 18.8102 4.38789 18.1643 4.27897 17.456L3.02397 10.304C2.98014 10.019 2.99846 9.72786 3.07768 9.45059C3.15689 9.17331 3.29513 8.91645 3.48292 8.6976C3.6707 8.47876 3.90359 8.30311 4.16561 8.1827C4.42764 8.06229 4.7126 7.99997 5.00097 8H7.99997M12 12C11.6044 12 11.2178 12.1173 10.8889 12.3371C10.56 12.5568 10.3036 12.8692 10.1522 13.2346C10.0009 13.6001 9.96126 14.0022 10.0384 14.3902C10.1156 14.7781 10.3061 15.1345 10.5858 15.4142C10.8655 15.6939 11.2219 15.8844 11.6098 15.9616C11.9978 16.0387 12.3999 15.9991 12.7654 15.8478C13.1308 15.6964 13.4432 15.44 13.6629 15.1111C13.8827 14.7822 14 14.3956 14 14M3 3L21 21" stroke="currentColor" stroke-width="1.5" stroke-linecap="round" stroke-linejoin="round"/>
</svg>
