<svg width="24" height="24" viewBox="0 0 24 24" fill="none" xmlns="http://www.w3.org/2000/svg">
<path d="M17.0002 10L15.0002 4M7.00022 10L9.00022 4M10.5002 20H7.24422C6.52761 20 5.8347 19.7434 5.29085 19.2768C4.74699 18.8102 4.38814 18.1643 4.27922 17.456L3.02422 10.304C2.98038 10.019 2.9987 9.72786 3.07792 9.45059C3.15714 9.17331 3.29538 8.91645 3.48316 8.6976C3.67095 8.47876 3.90383 8.30311 4.16586 8.1827C4.42788 8.06229 4.71285 7.99997 5.00122 8H19.0002C19.2886 7.99997 19.5735 8.06229 19.8356 8.1827C20.0976 8.30311 20.3305 8.47876 20.5183 8.6976C20.7061 8.91645 20.8443 9.17331 20.9235 9.45059C21.0027 9.72786 21.021 10.019 20.9772 10.304L20.8442 11.061M13.5962 12.794C13.2949 12.3942 12.8545 12.122 12.3622 12.031C11.8699 11.9401 11.3614 12.0372 10.9371 12.303C10.5129 12.5688 10.2038 12.9841 10.0709 13.4668C9.93793 13.9495 9.99087 14.4645 10.2192 14.91M17.8002 20.817L15.6282 21.955C15.5638 21.9885 15.4912 22.0035 15.4188 21.9982C15.3463 21.993 15.2767 21.9677 15.2178 21.9251C15.1589 21.8826 15.113 21.8245 15.0851 21.7574C15.0573 21.6903 15.0487 21.6167 15.0602 21.545L15.4752 19.134L13.7182 17.427C13.6658 17.3763 13.6286 17.3119 13.6111 17.2411C13.5935 17.1703 13.5962 17.096 13.6188 17.0266C13.6414 16.9573 13.6831 16.8957 13.739 16.8489C13.795 16.8021 13.863 16.772 13.9352 16.762L16.3632 16.41L17.4492 14.217C17.4817 14.1517 17.5318 14.0967 17.5938 14.0583C17.6558 14.0199 17.7273 13.9995 17.8002 13.9995C17.8732 13.9995 17.9447 14.0199 18.0067 14.0583C18.0687 14.0967 18.1187 14.1517 18.1512 14.217L19.2372 16.41L21.6652 16.762C21.7373 16.7724 21.805 16.8027 21.8607 16.8495C21.9164 16.8964 21.9579 16.9579 21.9804 17.027C22.003 17.0962 22.0058 17.1704 21.9884 17.241C21.9711 17.3117 21.9343 17.3761 21.8822 17.427L20.1252 19.134L20.5392 21.544C20.5516 21.6159 20.5437 21.6898 20.5162 21.7573C20.4887 21.8249 20.4429 21.8834 20.3838 21.9262C20.3248 21.969 20.2549 21.9944 20.1821 21.9995C20.1094 22.0046 20.0367 21.9892 19.9722 21.955L17.8002 20.817Z" stroke="currentColor" stroke-width="1.5" stroke-linecap="round" stroke-linejoin="round"/>
</svg>
