<svg width="24" height="24" viewBox="0 0 24 24" fill="none" xmlns="http://www.w3.org/2000/svg">
<path d="M12.6841 3.26997L12.7681 3.35997L17.4681 8.99997H21.0001C21.1424 9.00003 21.2831 9.03047 21.4128 9.08928C21.5424 9.14808 21.658 9.23388 21.7518 9.34095C21.8456 9.44802 21.9155 9.57388 21.9568 9.71012C21.998 9.84636 22.0097 9.98984 21.9911 10.131L21.9711 10.243L19.9871 18.161C19.7291 19.739 18.5771 20.942 17.1701 20.999L17.0001 21L6.85207 20.998C5.48207 20.945 4.36807 19.841 4.06507 18.428L4.03007 18.243L2.03007 10.243C1.99539 10.1048 1.99065 9.96073 2.01616 9.82054C2.04167 9.68034 2.09685 9.54722 2.178 9.43009C2.25915 9.31296 2.3644 9.21452 2.48669 9.14137C2.60898 9.06823 2.74549 9.02206 2.88707 9.00597L3.00007 8.99997H6.53007L11.2321 3.35997C11.3192 3.25529 11.4269 3.16952 11.5484 3.10793C11.6699 3.04634 11.8027 3.01022 11.9387 3.00179C12.0746 2.99337 12.2109 3.01281 12.3391 3.05892C12.4672 3.10504 12.5846 3.17686 12.6841 3.26997ZM12.0001 12C11.2649 11.9999 10.5554 12.2697 10.006 12.7582C9.45669 13.2467 9.10584 13.9199 9.02007 14.65L9.00507 14.824L9.00007 15L9.00507 15.176C9.03944 15.7608 9.24429 16.3228 9.59434 16.7925C9.9444 17.2623 10.4243 17.6193 10.9749 17.8194C11.5255 18.0196 12.1226 18.0542 12.6926 17.9189C13.2627 17.7836 13.7806 17.4844 14.1825 17.0582C14.5844 16.632 14.8528 16.0974 14.9544 15.5204C15.0561 14.9435 14.9865 14.3494 14.7544 13.8115C14.5224 13.2736 14.1379 12.8154 13.6484 12.4935C13.1589 12.1716 12.5859 12 12.0001 12ZM12.0001 5.56197L9.13507 8.99997H14.8651L12.0001 5.56197Z" fill="currentColor"/>
</svg>
