<svg width="24" height="24" viewBox="0 0 24 24" fill="none" xmlns="http://www.w3.org/2000/svg">
<path d="M15 8C16.642 8.057 18.292 8.148 20 5.5C22.13 7.686 21.827 10.405 22 13C19.778 12.238 17.74 13.714 17 16C14.407 16 13.111 16.952 12 20C10.889 16.952 9.593 16 7 16C6.26 13.714 4.222 12.238 2 13C2.173 10.405 1.87 7.686 4 5.5C5.708 8.148 7.358 8.057 9 8M15 8V4L12 6L9 4V8M15 8C15 8.79565 14.6839 9.55871 14.1213 10.1213C13.5587 10.6839 12.7956 11 12 11C11.2044 11 10.4413 10.6839 9.87868 10.1213C9.31607 9.55871 9 8.79565 9 8" stroke="currentColor" stroke-width="1.5" stroke-linecap="round" stroke-linejoin="round"/>
</svg>
