<svg width="24" height="24" viewBox="0 0 24 24" fill="none" xmlns="http://www.w3.org/2000/svg">
<path d="M16 12H20C20.2652 12 20.5196 12.1054 20.7071 12.2929C20.8946 12.4804 21 12.7348 21 13V16C21 16.311 20.964 16.614 20.897 16.904M19.287 19.282C18.6165 19.7506 17.818 20.0012 17 20H7C5.93913 20 4.92172 19.5786 4.17157 18.8284C3.42143 18.0783 3 17.0609 3 16V13C3 12.7348 3.10536 12.4804 3.29289 12.2929C3.48043 12.1054 3.73478 12 4 12H12M6 12V6M7.178 3.176C7.43 3.063 7.708 3 8 3H11V5.25M4 21L5 19.5M20 21L19 19.5M3 3L21 21" stroke="currentColor" stroke-width="1.5" stroke-linecap="round" stroke-linejoin="round"/>
</svg>
