<svg width="24" height="24" viewBox="0 0 24 24" fill="none" xmlns="http://www.w3.org/2000/svg">
<path d="M17 6C17.7652 5.99996 18.5015 6.29233 19.0583 6.81728C19.615 7.34224 19.9501 8.06011 19.995 8.824L20 9V9.086L20.052 9.105C20.3087 9.20659 20.5324 9.37704 20.6984 9.59759C20.8644 9.81814 20.9664 10.0802 20.993 10.355L21 10.5V13.5C21.0001 13.8008 20.9097 14.0946 20.7406 14.3434C20.5716 14.5921 20.3317 14.7843 20.052 14.895L20 14.913V15C20 15.7652 19.7077 16.5015 19.1827 17.0583C18.6578 17.615 17.9399 17.9501 17.176 17.995L17 18H6C5.23479 18 4.49849 17.7077 3.94174 17.1827C3.38499 16.6578 3.04989 15.9399 3.005 15.176L3 15V9C2.99996 8.23479 3.29233 7.49849 3.81728 6.94174C4.34224 6.38499 5.06011 6.04989 5.824 6.005L6 6H17ZM7 9C6.73478 9 6.48043 9.10536 6.29289 9.29289C6.10536 9.48043 6 9.73478 6 10V14L6.007 14.117C6.0371 14.3701 6.16271 14.6021 6.35817 14.7657C6.55362 14.9293 6.80416 15.0121 7.05861 14.9972C7.31305 14.9822 7.55218 14.8707 7.72715 14.6854C7.90212 14.5 7.99972 14.2549 8 14V10L7.993 9.883C7.96434 9.63975 7.84741 9.41547 7.66437 9.25272C7.48134 9.08996 7.24493 9.00003 7 9ZM10 9C9.73478 9 9.48043 9.10536 9.29289 9.29289C9.10536 9.48043 9 9.73478 9 10V14L9.007 14.117C9.0371 14.3701 9.16271 14.6021 9.35817 14.7657C9.55362 14.9293 9.80416 15.0121 10.0586 14.9972C10.313 14.9822 10.5522 14.8707 10.7272 14.6854C10.9021 14.5 10.9997 14.2549 11 14V10L10.993 9.883C10.9643 9.63975 10.8474 9.41547 10.6644 9.25272C10.4813 9.08996 10.2449 9.00003 10 9ZM13 9C12.7348 9 12.4804 9.10536 12.2929 9.29289C12.1054 9.48043 12 9.73478 12 10V14L12.007 14.117C12.0371 14.3701 12.1627 14.6021 12.3582 14.7657C12.5536 14.9293 12.8042 15.0121 13.0586 14.9972C13.313 14.9822 13.5522 14.8707 13.7272 14.6854C13.9021 14.5 13.9997 14.2549 14 14V10L13.993 9.883C13.9643 9.63975 13.8474 9.41547 13.6644 9.25272C13.4813 9.08996 13.2449 9.00003 13 9Z" fill="currentColor"/>
</svg>
