<svg width="24" height="24" viewBox="0 0 24 24" fill="none" xmlns="http://www.w3.org/2000/svg">
<path d="M4 9C4 8.46957 4.21071 7.96086 4.58579 7.58579C4.96086 7.21071 5.46957 7 6 7H17C17.5304 7 18.0391 7.21071 18.4142 7.58579C18.7893 7.96086 19 8.46957 19 9V9.5C19 9.63261 19.0527 9.75979 19.1464 9.85355C19.2402 9.94732 19.3674 10 19.5 10C19.6326 10 19.7598 10.0527 19.8536 10.1464C19.9473 10.2402 20 10.3674 20 10.5V13.5C20 13.6326 19.9473 13.7598 19.8536 13.8536C19.7598 13.9473 19.6326 14 19.5 14C19.3674 14 19.2402 14.0527 19.1464 14.1464C19.0527 14.2402 19 14.3674 19 14.5V15C19 15.5304 18.7893 16.0391 18.4142 16.4142C18.0391 16.7893 17.5304 17 17 17H12.5M6 22V19M4 15V12.5M8 15V12.5M3 15H9V17C9 17.5304 8.78929 18.0391 8.41421 18.4142C8.03914 18.7893 7.53043 19 7 19H5C4.46957 19 3.96086 18.7893 3.58579 18.4142C3.21071 18.0391 3 17.5304 3 17V15Z" stroke="currentColor" stroke-width="1.5" stroke-linecap="round" stroke-linejoin="round"/>
</svg>
