<svg width="24" height="24" viewBox="0 0 24 24" fill="none" xmlns="http://www.w3.org/2000/svg">
<path fill-rule="evenodd" clip-rule="evenodd" d="M13.253 2.48C14.9821 2.01669 16.8245 2.25925 18.3749 3.15431C18.3749 3.15431 18.3749 3.15432 18.3749 3.15431C19.9252 4.04945 21.0564 5.52377 21.5197 7.25294C21.983 8.98211 21.7405 10.8245 20.8454 12.3748C20.7459 12.5471 20.5821 12.6728 20.39 12.7243C20.1979 12.7758 19.9931 12.7488 19.8209 12.6494L16.3597 10.651C16.3587 10.6504 16.3578 10.6499 16.3568 10.6493C16.356 10.6488 16.3551 10.6484 16.3543 10.6479L15.2744 10.0244L13.069 13.8442C14.9561 14.0324 16.7304 14.8668 18.0832 16.2195C18.3762 16.5124 18.3762 16.9873 18.0833 17.2802C17.7904 17.5731 17.3156 17.5731 17.0226 17.2802C15.7568 16.0145 14.04 15.3035 12.2499 15.3035C10.4599 15.3035 8.74309 16.0145 7.47724 17.2802C7.18433 17.5731 6.70946 17.5731 6.41658 17.2802C6.12371 16.9873 6.12373 16.5124 6.41664 16.2195C7.74586 14.8904 9.48188 14.0618 11.332 13.8547C11.3378 13.8433 11.344 13.832 11.3504 13.8209L13.9754 9.27437L12.8957 8.65101C12.8948 8.65049 12.8939 8.64996 12.893 8.64943C12.8921 8.64889 12.8911 8.64836 12.8902 8.64782L9.42887 6.64935C9.2566 6.54989 9.13091 6.38607 9.07943 6.19393C9.02795 6.0018 9.05491 5.79708 9.15437 5.62481C10.0495 4.07452 11.5238 2.9433 13.253 2.48ZM14.3065 7.73346L16.4437 8.9674C17.0404 7.82247 17.4359 6.74213 17.6118 5.88233C17.7172 5.36684 17.7348 4.9731 17.6964 4.70899C17.674 4.5545 17.64 4.48474 17.6225 4.4579C17.5906 4.4562 17.513 4.46161 17.3678 4.51958C17.1199 4.61853 16.7877 4.83069 16.394 5.17977C15.7375 5.76199 14.9998 6.64455 14.3065 7.73346ZM15.7074 3.7979C15.6038 3.88018 15.5009 3.96696 15.3988 4.05747C14.605 4.76143 13.7674 5.77808 13.0063 6.9828L10.875 5.75225C11.572 4.86709 12.5401 4.2239 13.6412 3.92889C14.321 3.74675 15.0233 3.70487 15.7074 3.7979ZM19.1517 5.78688C19.1322 5.91736 19.1086 6.04958 19.0813 6.18292C18.8687 7.22255 18.4069 8.45646 17.7438 9.71805L19.8747 10.9484C20.2929 9.90226 20.3658 8.74219 20.0708 7.64115C19.8888 6.96161 19.5741 6.33267 19.1517 5.78688ZM4.01847 19.7497C3.78055 19.7569 3.54699 19.8155 3.33383 19.9215C2.96293 20.1059 2.51276 19.9547 2.32835 19.5838C2.14394 19.2129 2.29512 18.7628 2.66601 18.5783C3.07458 18.3752 3.52241 18.2632 3.97851 18.2502L3.98421 18.2501C4.49543 18.2394 5.00156 18.3533 5.45891 18.5819C5.91625 18.8106 6.31105 19.1472 6.60921 19.5626C6.76539 19.7802 6.9722 19.9565 7.21176 20.0763C7.45132 20.196 7.71643 20.2557 7.98421 20.2501C7.99468 20.2499 8.00516 20.2499 8.01563 20.2501C8.28341 20.2557 8.54853 20.196 8.78809 20.0763C9.02765 19.9565 9.23445 19.7802 9.39063 19.5626C9.68879 19.1472 10.0836 18.8106 10.5409 18.5819C10.9936 18.3556 11.4941 18.2417 11.9999 18.2498C12.5058 18.2417 13.0062 18.3556 13.4589 18.5819C13.9163 18.8106 14.3111 19.1472 14.6092 19.5626C14.7654 19.7802 14.9722 19.9565 15.2118 20.0763C15.4513 20.196 15.7164 20.2557 15.9842 20.2501C15.9947 20.2499 16.0052 20.2499 16.0156 20.2501C16.2834 20.2557 16.5485 20.196 16.7881 20.0763C17.0276 19.9565 17.2344 19.7802 17.3906 19.5626C17.6888 19.1472 18.0836 18.8106 18.5409 18.5819C18.9983 18.3533 19.5044 18.2394 20.0156 18.2501L20.0213 18.2502C20.4774 18.2632 20.9253 18.3752 21.3338 18.5783C21.7047 18.7628 21.8559 19.2129 21.6715 19.5838C21.4871 19.9547 21.0369 20.1059 20.666 19.9215C20.4529 19.8155 20.2193 19.7569 19.9814 19.7497C19.7146 19.7446 19.4505 19.8042 19.2118 19.9236C18.9722 20.0434 18.7654 20.2197 18.6092 20.4373C18.3111 20.8526 17.9163 21.1892 17.4589 21.4179C17.0062 21.6442 16.5058 21.7581 15.9999 21.75C15.4941 21.7581 14.9936 21.6442 14.5409 21.4179C14.0836 21.1892 13.6888 20.8526 13.3906 20.4373C13.2344 20.2197 13.0276 20.0434 12.7881 19.9236C12.5485 19.8038 12.2834 19.7441 12.0156 19.7498C12.0052 19.75 11.9947 19.75 11.9842 19.7498C11.7164 19.7441 11.4513 19.8038 11.2118 19.9236C10.9722 20.0434 10.7654 20.2197 10.6092 20.4373C10.3111 20.8526 9.91625 21.1892 9.45891 21.4179C9.00625 21.6442 8.50579 21.7581 7.99992 21.75C7.49405 21.7581 6.9936 21.6442 6.54094 21.4179C6.08359 21.1892 5.68879 20.8526 5.39063 20.4373C5.23445 20.2197 5.02765 20.0434 4.78809 19.9236C4.54938 19.8042 4.28529 19.7446 4.01847 19.7497Z" fill="currentColor"/>
</svg>
