<svg width="24" height="24" viewBox="0 0 24 24" fill="none" xmlns="http://www.w3.org/2000/svg">
<path fill-rule="evenodd" clip-rule="evenodd" d="M13.3679 2.42705C15.0964 1.99203 16.9268 2.25831 18.4596 3.16779C19.9925 4.07727 21.1035 5.55611 21.5501 7.28162C21.9966 9.00714 21.7426 10.8393 20.8435 12.3782C20.6353 12.7345 20.1783 12.8557 19.8209 12.6493L16.3638 10.6533C16.3615 10.652 16.3591 10.6507 16.3568 10.6493C16.3546 10.6481 16.3524 10.6468 16.3502 10.6455L15.2742 10.0242L14.9103 10.6541C14.7031 11.0127 14.2443 11.1355 13.8857 10.9283C13.527 10.721 13.4043 10.2623 13.6115 9.90366L13.9752 9.27421L12.9011 8.65403C12.8984 8.65251 12.8957 8.65098 12.893 8.64943C12.8903 8.64787 12.8876 8.6463 12.8849 8.64471L9.89489 6.91834C9.74978 6.83456 9.64326 6.70961 9.58156 6.56676C9.55005 6.55327 9.51908 6.53745 9.48889 6.51926C9.13408 6.30552 9.01972 5.84462 9.23346 5.48982C10.1532 3.96307 11.6395 2.86207 13.3679 2.42705ZM10.8711 5.74992L13.0064 6.98276C13.7675 5.77805 14.605 4.76143 15.3989 4.0575C15.5113 3.9578 15.6248 3.86264 15.739 3.77302C15.0761 3.68079 14.3955 3.71521 13.734 3.88169C12.5924 4.16902 11.5866 4.82991 10.8711 5.74992ZM19.1576 5.74727C19.137 5.89059 19.1114 6.0361 19.0814 6.18297C18.8687 7.22258 18.407 8.45645 17.7438 9.71802L19.8786 10.9506C20.3014 9.91114 20.3824 8.7565 20.0979 7.65747C19.9165 6.95647 19.5941 6.30782 19.1576 5.74727ZM16.4437 8.96737C17.0404 7.82244 17.4359 6.74213 17.6118 5.88234C17.7173 5.36687 17.7349 4.97314 17.6965 4.70903C17.6741 4.55456 17.6401 4.48481 17.6227 4.45797C17.5907 4.45627 17.5131 4.46168 17.3679 4.51964C17.1199 4.6186 16.7877 4.83075 16.3941 5.17982C15.7375 5.76201 14.9998 6.64454 14.3065 7.73342L16.4437 8.96737ZM17.6406 4.46052C17.6406 4.46057 17.6398 4.46038 17.6382 4.45982C17.6399 4.46019 17.6406 4.46047 17.6406 4.46052ZM17.6133 4.4455C17.612 4.44438 17.6114 4.44372 17.6115 4.44368C17.6115 4.44363 17.6121 4.44418 17.6133 4.4455ZM2.46959 2.46955C2.76248 2.17666 3.23736 2.17666 3.53025 2.46955L21.5303 20.4695C21.8231 20.7624 21.8231 21.2373 21.5303 21.5302C21.2374 21.8231 20.7625 21.8231 20.4696 21.5302L18.9938 20.0544C18.8462 20.1594 18.716 20.2885 18.6092 20.4373C18.3111 20.8526 17.9163 21.1892 17.4589 21.4179C17.0062 21.6442 16.5058 21.7581 15.9999 21.75C15.4941 21.7581 14.9936 21.6442 14.5409 21.4179C14.0836 21.1892 13.6888 20.8526 13.3906 20.4373C13.2344 20.2197 13.0276 20.0434 12.7881 19.9236C12.5485 19.8038 12.2834 19.7441 12.0156 19.7498C12.0052 19.75 11.9947 19.75 11.9842 19.7498C11.7164 19.7441 11.4513 19.8038 11.2118 19.9236C10.9722 20.0434 10.7654 20.2197 10.6092 20.4373C10.3111 20.8526 9.91625 21.1892 9.45891 21.4179C9.00625 21.6442 8.50579 21.7581 7.99992 21.75C7.49405 21.7581 6.9936 21.6442 6.54094 21.4179C6.08359 21.1892 5.68879 20.8526 5.39063 20.4373C5.23445 20.2197 5.02765 20.0434 4.78809 19.9236C4.54938 19.8042 4.28529 19.7446 4.01847 19.7497C3.78055 19.7569 3.54699 19.8155 3.33383 19.9215C2.96293 20.1059 2.51276 19.9547 2.32835 19.5838C2.14394 19.2129 2.29512 18.7628 2.66601 18.5783C3.07458 18.3752 3.52241 18.2632 3.97851 18.2502L3.98421 18.2501L3.98421 18.2501C4.49543 18.2394 5.00156 18.3533 5.45891 18.5819C5.91625 18.8106 6.31105 19.1472 6.60921 19.5626C6.76539 19.7802 6.9722 19.9565 7.21176 20.0763C7.45132 20.196 7.71643 20.2557 7.98421 20.2501C7.99468 20.2499 8.00516 20.2499 8.01563 20.2501C8.28341 20.2557 8.54853 20.196 8.78809 20.0763C9.02765 19.9565 9.23445 19.7802 9.39063 19.5626C9.68879 19.1472 10.0836 18.8106 10.5409 18.5819C10.9936 18.3556 11.4941 18.2417 11.9999 18.2498C12.5058 18.2417 13.0062 18.3556 13.4589 18.5819C13.9163 18.8106 14.3111 19.1472 14.6092 19.5626C14.7654 19.7802 14.9722 19.9565 15.2118 20.0763C15.4513 20.196 15.7164 20.2557 15.9842 20.2501C15.9947 20.2499 16.0052 20.2499 16.0156 20.2501C16.2834 20.2557 16.5485 20.196 16.7881 20.0763C17.0276 19.9565 17.2344 19.7802 17.3906 19.5626C17.5449 19.3476 17.7248 19.1542 17.9253 18.986L14.7014 15.762C13.4955 15.2926 12.1793 15.1794 10.9098 15.4369C9.60935 15.7007 8.41549 16.3418 7.47732 17.2801C7.18445 17.5731 6.70957 17.5731 6.41666 17.2802C6.12374 16.9874 6.1237 16.5125 6.41657 16.2196C7.56317 15.0728 9.02225 14.2892 10.6115 13.9668C10.8508 13.9183 11.0914 13.8806 11.3326 13.8535C11.3382 13.8426 11.3441 13.8317 11.3503 13.821L11.8662 12.9269L2.46959 3.53021C2.1767 3.23732 2.1767 2.76244 2.46959 2.46955Z" fill="currentColor"/>
</svg>
