<svg width="24" height="24" viewBox="0 0 24 24" fill="none" xmlns="http://www.w3.org/2000/svg">
<path fill-rule="evenodd" clip-rule="evenodd" d="M2.46967 2.46967C2.76256 2.17678 3.23744 2.17678 3.53033 2.46967L7.52967 6.46901C7.53011 6.46945 7.53055 6.46989 7.53099 6.47033L9.52973 8.46907C9.53013 8.46947 9.53053 8.46987 9.53093 8.47027L21.5303 20.4697C21.8232 20.7626 21.8232 21.2374 21.5303 21.5303C21.2374 21.8232 20.7626 21.8232 20.4697 21.5303L13.6893 14.75H2.75V17C2.75 17.4142 2.41421 17.75 2 17.75C1.58579 17.75 1.25 17.4142 1.25 17V8C1.25 7.58579 1.58579 7.25 2 7.25C2.41421 7.25 2.75 7.58579 2.75 8V13.25H11.25V12.3107L9.35664 10.4173C9.33419 10.4546 9.31082 10.4915 9.28654 10.5278C8.98437 10.9801 8.55488 11.3325 8.05238 11.5407C7.54988 11.7488 6.99695 11.8033 6.4635 11.6972C5.93005 11.5911 5.44005 11.3291 5.05546 10.9445C4.67086 10.5599 4.40895 10.0699 4.30284 9.5365C4.19673 9.00305 4.25119 8.45012 4.45933 7.94762C4.66747 7.44512 5.01995 7.01563 5.47218 6.71346C5.50852 6.68918 5.54537 6.66581 5.5827 6.64336L2.46967 3.53033C2.17678 3.23744 2.17678 2.76256 2.46967 2.46967ZM6.7209 7.78156C6.57346 7.81533 6.4326 7.87576 6.30554 7.96066C6.09998 8.09801 5.93976 8.29324 5.84515 8.52165C5.75054 8.75005 5.72579 9.00139 5.77402 9.24386C5.82225 9.48634 5.9413 9.70907 6.11612 9.88388C6.29093 10.0587 6.51366 10.1778 6.75614 10.226C6.99861 10.2742 7.24995 10.2495 7.47836 10.1548C7.70676 10.0602 7.90199 9.90002 8.03934 9.69446C8.12424 9.5674 8.18467 9.42654 8.21844 9.2791L6.7209 7.78156ZM12.25 9C12.25 8.58579 12.5858 8.25 13 8.25H19C19.9946 8.25 20.9484 8.64509 21.6517 9.34835C22.3549 10.0516 22.75 11.0054 22.75 12V17C22.75 17.4142 22.4142 17.75 22 17.75C21.5858 17.75 21.25 17.4142 21.25 17V14.75H18C17.5858 14.75 17.25 14.4142 17.25 14C17.25 13.5858 17.5858 13.25 18 13.25H21.25V12C21.25 11.4033 21.0129 10.831 20.591 10.409C20.169 9.98705 19.5967 9.75 19 9.75H13C12.5858 9.75 12.25 9.41421 12.25 9Z" fill="currentColor"/>
</svg>
