<svg width="24" height="24" viewBox="0 0 24 24" fill="none" xmlns="http://www.w3.org/2000/svg">
<path d="M3 6C3.24493 6.00003 3.48134 6.08996 3.66437 6.25272C3.84741 6.41547 3.96434 6.63975 3.993 6.883L4 7V13H10V8C10 7.75507 10.09 7.51866 10.2527 7.33563C10.4155 7.15259 10.6397 7.03566 10.883 7.007L11 7H19C19.7652 6.99996 20.5015 7.29233 21.0583 7.81728C21.615 8.34224 21.9501 9.06011 21.995 9.824L22 10V18C21.9997 18.2549 21.9021 18.5 21.7272 18.6854C21.5522 18.8707 21.313 18.9822 21.0586 18.9972C20.8042 19.0121 20.5536 18.9293 20.3582 18.7657C20.1627 18.6021 20.0371 18.3701 20.007 18.117L20 18V15H4V18C3.99972 18.2549 3.90212 18.5 3.72715 18.6854C3.55218 18.8707 3.31305 18.9822 3.05861 18.9972C2.80416 19.0121 2.55362 18.9293 2.35817 18.7657C2.16271 18.6021 2.0371 18.3701 2.007 18.117L2 18V7C2 6.73478 2.10536 6.48043 2.29289 6.29289C2.48043 6.10536 2.73478 6 3 6Z" fill="currentColor"/>
<path d="M7 8C7.38914 8.00012 7.7698 8.11377 8.09532 8.32701C8.42084 8.54025 8.67707 8.84383 8.83263 9.20053C8.98818 9.55723 9.0363 9.95156 8.97108 10.3352C8.90586 10.7188 8.73013 11.0751 8.46544 11.3604C8.20075 11.6456 7.85859 11.8475 7.48089 11.9412C7.10319 12.0349 6.70637 12.0163 6.33904 11.8878C5.97172 11.7594 5.64986 11.5265 5.4129 11.2178C5.17594 10.9092 5.03419 10.538 5.005 10.15L5 10L5.005 9.85C5.04284 9.34685 5.26947 8.87659 5.63945 8.5335C6.00943 8.19041 6.49542 7.99984 7 8Z" fill="currentColor"/>
</svg>
