<svg width="24" height="24" viewBox="0 0 24 24" fill="none" xmlns="http://www.w3.org/2000/svg">
<path fill-rule="evenodd" clip-rule="evenodd" d="M5.05546 7.05546C5.57118 6.53973 6.27065 6.25 7 6.25C7.72935 6.25 8.42882 6.53973 8.94454 7.05546C9.46027 7.57118 9.75 8.27065 9.75 9C9.75 9.72935 9.46027 10.4288 8.94454 10.9445C8.42882 11.4603 7.72935 11.75 7 11.75C6.27065 11.75 5.57118 11.4603 5.05546 10.9445C4.53973 10.4288 4.25 9.72935 4.25 9C4.25 8.27065 4.53973 7.57118 5.05546 7.05546ZM7 7.75C6.66848 7.75 6.35054 7.8817 6.11612 8.11612C5.8817 8.35054 5.75 8.66848 5.75 9C5.75 9.33152 5.8817 9.64946 6.11612 9.88388C6.35054 10.1183 6.66848 10.25 7 10.25C7.33152 10.25 7.64946 10.1183 7.88388 9.88388C8.1183 9.64946 8.25 9.33152 8.25 9C8.25 8.66848 8.1183 8.35054 7.88388 8.11612C7.64946 7.8817 7.33152 7.75 7 7.75ZM2 7.25C2.41421 7.25 2.75 7.58579 2.75 8V13.25H11.25V9C11.25 8.58579 11.5858 8.25 12 8.25H19C19.9946 8.25 20.9484 8.64509 21.6517 9.34835C22.3549 10.0516 22.75 11.0054 22.75 12V17C22.75 17.4142 22.4142 17.75 22 17.75C21.5858 17.75 21.25 17.4142 21.25 17V14.75H2.75V17C2.75 17.4142 2.41421 17.75 2 17.75C1.58579 17.75 1.25 17.4142 1.25 17V8C1.25 7.58579 1.58579 7.25 2 7.25ZM21.25 13.25V12C21.25 11.4033 21.0129 10.831 20.591 10.409C20.169 9.98705 19.5967 9.75 19 9.75H12.75V13.25H21.25Z" fill="currentColor"/>
</svg>
