<svg width="24" height="24" viewBox="0 0 24 24" fill="none" xmlns="http://www.w3.org/2000/svg">
<path d="M18 8C18 9.397 17.711 10.4 17.155 11.65L16.845 12.35C16.29 13.6 16 14.978 16 16.375V20C16 20.2652 15.8946 20.5196 15.7071 20.7071C15.5196 20.8946 15.2652 21 15 21H9C8.73478 21 8.48043 20.8946 8.29289 20.7071C8.10536 20.5196 8 20.2652 8 20V16.375C8.00228 14.9891 7.71444 13.618 7.155 12.35L6.845 11.65C6.29 10.4 6 9.397 6 8M18 8V4C18 3.73478 17.8946 3.48043 17.7071 3.29289C17.5196 3.10536 17.2652 3 17 3H7C6.73478 3 6.48043 3.10536 6.29289 3.29289C6.10536 3.48043 6 3.73478 6 4V8M18 8H6" stroke="currentColor" stroke-width="1.5" stroke-linecap="round" stroke-linejoin="round"/>
</svg>
