<svg width="24" height="24" viewBox="0 0 24 24" fill="none" xmlns="http://www.w3.org/2000/svg">
<path d="M9.62995 17.531C10.242 18.142 9.84095 19.189 8.97795 19.237C8.4161 19.2686 7.85392 19.181 7.32828 18.9801C6.80265 18.7791 6.32543 18.4693 5.92795 18.071C5.52991 17.6735 5.22036 17.1964 5.01959 16.671C4.81882 16.1455 4.73137 15.5836 4.76295 15.022C4.80895 14.196 5.76795 13.794 6.38695 14.296L6.46895 14.37L9.62995 17.531Z" fill="currentColor"/>
<path d="M20.0709 3.92896C21.0309 4.88896 21.2049 6.33896 20.5909 7.47596L20.5009 7.62896L20.4769 7.66496C20.8167 8.88424 20.8628 10.1667 20.6115 11.4072C20.3602 12.6477 19.8185 13.8111 19.0309 14.802L18.8479 15.025L18.6569 15.243L16.5839 17.315L16.5039 17.427C16.0796 18.0443 15.9016 18.798 16.0049 19.54L16.0399 19.741L16.0849 19.926C16.3489 20.878 15.2319 21.571 14.4999 20.977L14.4139 20.899L3.10094 9.58596C2.37394 8.85896 3.08394 7.64096 4.07394 7.91496C4.49591 8.03196 4.93837 8.05517 5.37026 7.98295C5.80215 7.91074 6.21299 7.74486 6.57394 7.49696L6.68994 7.41096L8.79094 5.31096C9.75774 4.4309 10.9255 3.8012 12.192 3.47694C13.4585 3.15269 14.7852 3.14377 16.0559 3.45096L16.3339 3.52196L16.3709 3.49896C16.8939 3.17585 17.5034 3.02101 18.1171 3.05535C18.7309 3.08968 19.3193 3.31154 19.8029 3.69096L19.9429 3.80796L20.0709 3.92896Z" fill="currentColor"/>
</svg>
