<svg width="24" height="24" viewBox="0 0 24 24" fill="none" xmlns="http://www.w3.org/2000/svg">
<path d="M7.34308 12.4143L6.63608 13.1213C6.07342 13.684 5.75732 14.4471 5.75732 15.2428C5.75732 16.0385 6.07342 16.8017 6.63608 17.3643C7.19874 17.927 7.96186 18.2431 8.75758 18.2431C9.55329 18.2431 10.3164 17.927 10.8791 17.3643L11.5861 16.6573M19.3641 4.63635C19.739 5.01141 19.9497 5.52003 19.9497 6.05035C19.9497 6.58068 19.739 7.0893 19.3641 7.46435C19.7924 8.66049 19.887 9.95063 19.638 11.1965C19.3889 12.4423 18.8054 13.5969 17.9501 14.5364L15.8281 16.6564C15.4417 17.1492 15.1763 17.726 15.0535 18.3402C14.9307 18.9543 14.9539 19.5888 15.1211 20.1924L3.80811 8.88035C4.41155 9.04741 5.04579 9.07047 5.65977 8.94767C6.27375 8.82487 6.85033 8.55965 7.34311 8.17335L9.46411 6.05035C10.4036 5.19507 11.5582 4.6116 12.804 4.36251C14.0498 4.11341 15.34 4.20807 16.5361 4.63635C16.9112 4.26141 17.4198 4.05078 17.9501 4.05078C18.4804 4.05078 18.989 4.26141 19.3641 4.63635Z" stroke="currentColor" stroke-width="1.5" stroke-linecap="round" stroke-linejoin="round"/>
</svg>
