<svg width="24" height="24" viewBox="0 0 24 24" fill="none" xmlns="http://www.w3.org/2000/svg">
<path d="M14.235 19C15.1 19 15.557 20.024 14.98 20.668C14.6051 21.0875 14.1459 21.4229 13.6323 21.6525C13.1188 21.8821 12.5625 22.0005 12 22C11.4374 22.0005 10.8812 21.8821 10.3676 21.6525C9.85404 21.4229 9.3948 21.0875 9.01997 20.668C8.46797 20.052 8.86197 19.089 9.65397 19.007L9.76397 19.001L14.235 19Z" fill="currentColor"/>
<path d="M11.9999 2C13.3579 2 14.5059 2.903 14.8749 4.141L14.9209 4.312L14.9289 4.355C16.0313 4.9769 16.9707 5.8511 17.6702 6.906C18.3696 7.9609 18.8092 9.16648 18.9529 10.424L18.9809 10.711L18.9999 11V13.931L19.0209 14.067C19.1579 14.8038 19.5656 15.4627 20.1639 15.914L20.3309 16.031L20.4929 16.13C21.3529 16.617 21.0529 17.896 20.1159 17.994L19.9999 18H3.99995C2.97195 18 2.61295 16.636 3.50695 16.13C3.88798 15.9144 4.21719 15.618 4.47149 15.2616C4.72578 14.9052 4.89899 14.4974 4.97895 14.067L4.99995 13.924L5.00095 10.954C5.06192 9.64788 5.44211 8.37661 6.10823 7.25147C6.77436 6.12632 7.70611 5.18161 8.82195 4.5L9.06995 4.354L9.07995 4.311C9.2214 3.71303 9.54289 3.17284 10.001 2.76334C10.4592 2.35384 11.0319 2.09473 11.6419 2.021L11.8239 2.004L11.9999 2ZM11.9999 8C11.7347 8 11.4804 8.10536 11.2928 8.29289C11.1053 8.48043 10.9999 8.73478 10.9999 9V10H9.99995L9.88295 10.007C9.62985 10.0371 9.3978 10.1627 9.23421 10.3582C9.07062 10.5536 8.98784 10.8042 9.00278 11.0586C9.01771 11.313 9.12924 11.5522 9.31458 11.7272C9.49992 11.9021 9.74507 11.9997 9.99995 12H10.9999V13L11.0069 13.117C11.0371 13.3701 11.1627 13.6021 11.3581 13.7657C11.5536 13.9293 11.8041 14.0121 12.0586 13.9972C12.313 13.9822 12.5521 13.8707 12.7271 13.6854C12.9021 13.5 12.9997 13.2549 12.9999 13V12H13.9999L14.1169 11.993C14.37 11.9629 14.6021 11.8373 14.7657 11.6418C14.9293 11.4464 15.0121 11.1958 14.9971 10.9414C14.9822 10.687 14.8707 10.4478 14.6853 10.2728C14.5 10.0979 14.2548 10.0003 13.9999 10H12.9999V9L12.9929 8.883C12.9643 8.63975 12.8474 8.41547 12.6643 8.25272C12.4813 8.08996 12.2449 8.00003 11.9999 8Z" fill="currentColor"/>
</svg>
