<svg width="24" height="24" viewBox="0 0 24 24" fill="none" xmlns="http://www.w3.org/2000/svg">
<path d="M14.235 19C15.1 19 15.557 20.024 14.98 20.668C14.6051 21.0875 14.1459 21.4229 13.6323 21.6525C13.1188 21.8821 12.5625 22.0005 12 22C11.4374 22.0005 10.8812 21.8821 10.3676 21.6525C9.85404 21.4229 9.3948 21.0875 9.01997 20.668C8.46797 20.052 8.86197 19.089 9.65397 19.007L9.76397 19.001L14.235 19Z" fill="currentColor"/>
<path d="M11.9999 2C13.3579 2 14.5059 2.903 14.8749 4.141L14.9209 4.312L14.9289 4.355C16.0313 4.9769 16.9707 5.8511 17.6702 6.906C18.3696 7.9609 18.8092 9.16648 18.9529 10.424L18.9809 10.711L18.9999 11V13.931L19.0209 14.067C19.1579 14.8038 19.5656 15.4627 20.1639 15.914L20.3309 16.031L20.4929 16.13C21.3529 16.617 21.0529 17.896 20.1159 17.994L19.9999 18H3.99995C2.97195 18 2.61295 16.636 3.50695 16.13C3.88798 15.9144 4.21719 15.618 4.47149 15.2616C4.72578 14.9052 4.89899 14.4974 4.97895 14.067L4.99995 13.924L5.00095 10.954C5.06192 9.64788 5.44211 8.37661 6.10823 7.25147C6.77436 6.12632 7.70611 5.18161 8.82195 4.5L9.06995 4.354L9.07995 4.311C9.2214 3.71303 9.54289 3.17284 10.001 2.76334C10.4592 2.35384 11.0319 2.09473 11.6419 2.021L11.8239 2.004L11.9999 2ZM10.5109 8.14C10.3014 8.01528 10.0536 7.9714 9.81396 8.01663C9.57436 8.06186 9.35953 8.19307 9.2099 8.38558C9.06026 8.5781 8.98611 8.81865 9.00141 9.062C9.0167 9.30536 9.12038 9.53473 9.29295 9.707L10.5849 11L9.29295 12.293L9.20995 12.387C9.05454 12.588 8.98145 12.8406 9.00555 13.0935C9.02964 13.3464 9.1491 13.5807 9.33967 13.7488C9.53023 13.9168 9.77761 14.006 10.0316 13.9982C10.2855 13.9905 10.527 13.8863 10.7069 13.707L11.9999 12.415L13.2929 13.707L13.3869 13.79C13.5879 13.9454 13.8406 14.0185 14.0935 13.9944C14.3464 13.9703 14.5807 13.8508 14.7487 13.6603C14.9167 13.4697 15.0059 13.2223 14.9982 12.9684C14.9904 12.7144 14.8863 12.473 14.7069 12.293L13.4149 11L14.7069 9.707L14.7899 9.613C14.9454 9.41201 15.0184 9.1594 14.9943 8.90647C14.9703 8.65355 14.8508 8.41928 14.6602 8.25125C14.4697 8.08321 14.2223 7.99402 13.9683 8.00177C13.7144 8.00953 13.4729 8.11365 13.2929 8.293L11.9999 9.585L10.7069 8.293L10.6129 8.21L10.5109 8.14Z" fill="currentColor"/>
</svg>
