<svg width="24" height="24" viewBox="0 0 24 24" fill="none" xmlns="http://www.w3.org/2000/svg">
<path d="M13 17H4C4.54494 16.6914 5.00981 16.2592 5.35719 15.7381C5.70457 15.2171 5.92474 14.6217 6 14V11C6.05956 9.73107 6.4633 8.50227 7.16795 7.4453C7.8726 6.38833 8.85159 5.54303 10 5C10 4.46957 10.2107 3.96086 10.5858 3.58579C10.9609 3.21071 11.4696 3 12 3C12.5304 3 13.0391 3.21071 13.4142 3.58579C13.7893 3.96086 14 4.46957 14 5C15.1484 5.54303 16.1274 6.38833 16.8321 7.4453C17.5367 8.50227 17.9404 9.73107 18 11V13M9 17V18C8.99986 18.4976 9.12352 18.9875 9.35984 19.4255C9.59616 19.8634 9.93772 20.2357 10.3537 20.5088C10.7698 20.7819 11.2472 20.9472 11.743 20.9898C12.2388 21.0324 12.7375 20.9511 13.194 20.753M22 22L17 17M17 22L22 17" stroke="currentColor" stroke-width="1.5" stroke-linecap="round" stroke-linejoin="round"/>
</svg>
