<svg width="24" height="24" viewBox="0 0 24 24" fill="none" xmlns="http://www.w3.org/2000/svg">
<path d="M17.4512 2.34394C17.6251 2.14395 17.8713 2.0212 18.1357 2.00263C18.4001 1.98407 18.661 2.07122 18.8612 2.24494C20.1544 3.36762 21.1935 4.75307 21.9092 6.30894C22.02 6.55002 22.0306 6.82527 21.9385 7.07413C21.8464 7.32299 21.6593 7.52508 21.4182 7.63594C21.1771 7.7468 20.9019 7.75735 20.653 7.66527C20.4041 7.57319 20.202 7.38602 20.0912 7.14494C19.495 5.84731 18.6291 4.69165 17.5512 3.75494C17.3511 3.58115 17.2281 3.33502 17.2094 3.07063C17.1906 2.80625 17.2776 2.54423 17.4512 2.34394Z" fill="currentColor"/>
<path d="M5.13617 2.24494C5.33641 2.07096 5.59756 1.98364 5.86218 2.00221C6.12679 2.02078 6.37319 2.1437 6.54717 2.34394C6.72116 2.54418 6.80847 2.80533 6.7899 3.06994C6.77134 3.33456 6.64841 3.58096 6.44817 3.75494C5.37028 4.69165 4.50438 5.84731 3.90817 7.14494C3.85488 7.26661 3.77788 7.37644 3.68167 7.46803C3.58546 7.55961 3.47197 7.63111 3.34783 7.67835C3.22368 7.72559 3.09137 7.74763 2.95861 7.74317C2.82585 7.73871 2.69532 7.70784 2.57462 7.65238C2.45392 7.59691 2.34549 7.51796 2.25564 7.42012C2.1658 7.32228 2.09634 7.20753 2.05134 7.08255C2.00633 6.95758 1.98667 6.82489 1.99351 6.69224C2.00035 6.55958 2.03355 6.42962 2.09117 6.30994C2.80584 4.75399 3.8439 3.36821 5.13617 2.24494Z" fill="currentColor"/>
<path d="M14.2352 18.9999C15.1002 18.9999 15.5572 20.0239 14.9802 20.6679C14.6054 21.0874 14.1461 21.4229 13.6326 21.6524C13.119 21.882 12.5627 22.0004 12.0002 21.9999C11.4377 22.0004 10.8814 21.882 10.3678 21.6524C9.85429 21.4229 9.39504 21.0874 9.02021 20.6679C8.46821 20.0519 8.86221 19.0889 9.65421 19.0069L9.76421 19.0009L14.2352 18.9999Z" fill="currentColor"/>
<path d="M12.0002 1.99994C13.3582 1.99994 14.5062 2.90294 14.8752 4.14094L14.9212 4.31194L14.9292 4.35494C16.0316 4.97684 16.971 5.85104 17.6704 6.90594C18.3698 7.96083 18.8094 9.16642 18.9532 10.4239L18.9812 10.7109L19.0002 10.9999V13.9309L19.0212 14.0669C19.1581 14.8038 19.5659 15.4627 20.1642 15.9139L20.3312 16.0309L20.4932 16.1299C21.3532 16.6169 21.0532 17.8959 20.1162 17.9939L20.0002 17.9999H4.00019C2.97219 17.9999 2.61319 16.6359 3.50719 16.1299C3.88822 15.9143 4.21744 15.6179 4.47173 15.2615C4.72602 14.9051 4.89923 14.4974 4.97919 14.0669L5.00019 13.9239L5.00119 10.9539C5.06216 9.64782 5.44235 8.37655 6.10848 7.25141C6.7746 6.12626 7.70636 5.18154 8.82219 4.49994L9.07019 4.35394L9.08019 4.31094C9.22165 3.71296 9.54314 3.17278 10.0013 2.76328C10.4594 2.35377 11.0322 2.09467 11.6422 2.02094L11.8242 2.00394L12.0002 1.99994Z" fill="currentColor"/>
</svg>
