<svg width="24" height="24" viewBox="0 0 24 24" fill="none" xmlns="http://www.w3.org/2000/svg">
<path d="M14.235 19C15.1 19 15.557 20.024 14.98 20.668C14.6051 21.0875 14.1459 21.4229 13.6323 21.6525C13.1188 21.8821 12.5625 22.0005 12 22C11.4374 22.0005 10.8812 21.8821 10.3676 21.6525C9.85404 21.4229 9.3948 21.0875 9.01997 20.668C8.46797 20.052 8.86197 19.089 9.65397 19.007L9.76397 19.001L14.235 19Z" fill="currentColor"/>
<path d="M11.9999 2C13.3579 2 14.5059 2.903 14.8749 4.141L14.9209 4.312L14.9289 4.355C16.0313 4.9769 16.9707 5.8511 17.6702 6.906C18.3696 7.9609 18.8092 9.16648 18.9529 10.424L18.9809 10.711L18.9999 11V13.931L19.0209 14.067C19.1579 14.8038 19.5656 15.4627 20.1639 15.914L20.3309 16.031L20.4929 16.13C21.3529 16.617 21.0529 17.896 20.1159 17.994L19.9999 18H3.99995C2.97195 18 2.61295 16.636 3.50695 16.13C3.88798 15.9144 4.21719 15.618 4.47149 15.2616C4.72578 14.9052 4.89899 14.4974 4.97895 14.067L4.99995 13.924L5.00095 10.954C5.06192 9.64788 5.44211 8.37661 6.10823 7.25147C6.77436 6.12632 7.70611 5.18161 8.82195 4.5L9.06995 4.354L9.07995 4.311C9.2214 3.71303 9.54289 3.17284 10.001 2.76334C10.4592 2.35384 11.0319 2.09473 11.6419 2.021L11.8239 2.004L11.9999 2ZM13.9999 8H9.99995L9.88295 8.007C9.6397 8.03566 9.41542 8.15259 9.25266 8.33563C9.0899 8.51866 8.99998 8.75507 8.99995 9L9.00695 9.117C9.0356 9.36025 9.15254 9.58453 9.33558 9.74728C9.51861 9.91004 9.75501 9.99997 9.99995 10H11.5839L9.29295 12.293L9.21695 12.377C8.70295 13.014 9.14695 14 9.99995 14H13.9999L14.1169 13.993C14.3602 13.9643 14.5845 13.8474 14.7472 13.6644C14.91 13.4813 14.9999 13.2449 14.9999 13L14.9929 12.883C14.9643 12.6397 14.8474 12.4155 14.6643 12.2527C14.4813 12.09 14.2449 12 13.9999 12H12.4139L14.7069 9.707L14.7829 9.623C15.2969 8.986 14.8529 8 13.9999 8Z" fill="currentColor"/>
</svg>
