<svg width="24" height="24" viewBox="0 0 24 24" fill="none" xmlns="http://www.w3.org/2000/svg">
<path d="M16.437 16.44C16.087 17.0143 15.9401 17.6897 16.0199 18.3575C16.0998 19.0254 16.4018 19.647 16.8774 20.1226C17.353 20.5982 17.9746 20.9002 18.6425 20.9801C19.3103 21.0599 19.9857 20.913 20.56 20.563M22 18C22 17.2044 21.6839 16.4413 21.1213 15.8787C20.5587 15.3161 19.7957 15 19 15M12 19V15L9 12L10.665 10.668M12.88 8.896L14 8L16 11H19M3 3L21 21M2 18C2 18.7956 2.31607 19.5587 2.87868 20.1213C3.44129 20.6839 4.20435 21 5 21C5.79565 21 6.55871 20.6839 7.12132 20.1213C7.68393 19.5587 8 18.7956 8 18C8 17.2044 7.68393 16.4413 7.12132 15.8787C6.55871 15.3161 5.79565 15 5 15C4.20435 15 3.44129 15.3161 2.87868 15.8787C2.31607 16.4413 2 17.2044 2 18ZM16 5C16 5.26522 16.1054 5.51957 16.2929 5.70711C16.4804 5.89464 16.7348 6 17 6C17.2652 6 17.5196 5.89464 17.7071 5.70711C17.8946 5.51957 18 5.26522 18 5C18 4.73478 17.8946 4.48043 17.7071 4.29289C17.5196 4.10536 17.2652 4 17 4C16.7348 4 16.4804 4.10536 16.2929 4.29289C16.1054 4.48043 16 4.73478 16 5Z" stroke="currentColor" stroke-width="1.5" stroke-linecap="round" stroke-linejoin="round"/>
</svg>
