<svg width="24" height="24" viewBox="0 0 24 24" fill="none" xmlns="http://www.w3.org/2000/svg">
<path d="M11 10V5H10M18 19V14H17M6 10H6.01M6 19H6.01M15 5.5C15 5.36739 15.0527 5.24021 15.1464 5.14645C15.2402 5.05268 15.3674 5 15.5 5H17.5C17.6326 5 17.7598 5.05268 17.8536 5.14645C17.9473 5.24021 18 5.36739 18 5.5V9.5C18 9.63261 17.9473 9.75979 17.8536 9.85355C17.7598 9.94732 17.6326 10 17.5 10H15.5C15.3674 10 15.2402 9.94732 15.1464 9.85355C15.0527 9.75979 15 9.63261 15 9.5V5.5ZM10 14.5C10 14.3674 10.0527 14.2402 10.1464 14.1464C10.2402 14.0527 10.3674 14 10.5 14H12.5C12.6326 14 12.7598 14.0527 12.8536 14.1464C12.9473 14.2402 13 14.3674 13 14.5V18.5C13 18.6326 12.9473 18.7598 12.8536 18.8536C12.7598 18.9473 12.6326 19 12.5 19H10.5C10.3674 19 10.2402 18.9473 10.1464 18.8536C10.0527 18.7598 10 18.6326 10 18.5V14.5Z" stroke="currentColor" stroke-width="1.5" stroke-linecap="round" stroke-linejoin="round"/>
</svg>
