<svg width="24" height="24" viewBox="0 0 24 24" fill="none" xmlns="http://www.w3.org/2000/svg">
<path d="M12 8C11.4696 8 10.9609 7.78929 10.5858 7.41421C10.2107 7.03914 10 6.53043 10 6C10 5.46957 10.2107 4.96086 10.5858 4.58579C10.9609 4.21071 11.4696 4 12 4C12.5304 4 13.0391 4.21071 13.4142 4.58579C13.7893 4.96086 14 5.46957 14 6C14 6.53043 13.7893 7.03914 13.4142 7.41421C13.0391 7.78929 12.5304 8 12 8ZM12 8V16M12 16C12.5304 16 13.0391 16.2107 13.4142 16.5858C13.7893 16.9609 14 17.4696 14 18C14 18.5304 13.7893 19.0391 13.4142 19.4142C13.0391 19.7893 12.5304 20 12 20C11.4696 20 10.9609 19.7893 10.5858 19.4142C10.2107 19.0391 10 18.5304 10 18C10 17.4696 10.2107 16.9609 10.5858 16.5858C10.9609 16.2107 11.4696 16 12 16ZM6.31604 12.496L10.684 7.50403M17.684 12.496L13.318 7.50598M7 14C7 13.4696 6.78929 12.9609 6.41421 12.5858C6.03914 12.2107 5.53043 12 5 12C4.46957 12 3.96086 12.2107 3.58579 12.5858C3.21071 12.9609 3 13.4696 3 14C3 14.5304 3.21071 15.0391 3.58579 15.4142C3.96086 15.7893 4.46957 16 5 16C5.53043 16 6.03914 15.7893 6.41421 15.4142C6.78929 15.0391 7 14.5304 7 14ZM21 14C21 13.4696 20.7893 12.9609 20.4142 12.5858C20.0391 12.2107 19.5304 12 19 12C18.4696 12 17.9609 12.2107 17.5858 12.5858C17.2107 12.9609 17 13.4696 17 14C17 14.5304 17.2107 15.0391 17.5858 15.4142C17.9609 15.7893 18.4696 16 19 16C19.5304 16 20.0391 15.7893 20.4142 15.4142C20.7893 15.0391 21 14.5304 21 14Z" stroke="currentColor" stroke-width="1.5" stroke-linecap="round" stroke-linejoin="round"/>
</svg>
