<svg width="24" height="24" viewBox="0 0 24 24" fill="none" xmlns="http://www.w3.org/2000/svg">
<path d="M10.5859 10.5859C10.3955 10.771 10.2438 10.9921 10.1397 11.2364C10.0357 11.4807 9.98129 11.7432 9.97977 12.0088C9.97824 12.2743 10.0296 12.5375 10.1309 12.7829C10.2321 13.0284 10.3812 13.2512 10.5695 13.4385C10.7578 13.6257 10.9815 13.7735 11.2275 13.8734C11.4736 13.9733 11.737 14.0232 12.0025 14.0201C12.2681 14.0171 12.5303 13.9612 12.774 13.8558C13.0177 13.7503 13.2379 13.5974 13.4219 13.4059M11.9391 14C11.9391 14.173 11.9871 14.351 11.9951 14.533V14.75C11.9951 15.9722 11.524 17.1474 10.6797 18.0311C9.83546 18.9149 8.68304 19.4392 7.46212 19.495H7.24512M2.49512 14.7451C2.49517 13.8482 2.74914 12.9697 3.22763 12.2111C3.70613 11.4526 4.38961 10.845 5.199 10.4587C6.00839 10.0723 6.91062 9.92302 7.80131 10.028C8.69201 10.1331 9.53477 10.4881 10.2321 11.0521M16.7449 19.4949C16.0575 19.495 15.3782 19.3457 14.754 19.0576C14.1298 18.7694 13.5756 18.3493 13.1297 17.826C12.6838 17.3028 12.3567 16.689 12.1712 16.027C11.9856 15.3651 11.946 14.6707 12.0549 13.9919H11.9949M14.533 10.5379C15.2406 10.1655 16.0309 9.97783 16.8304 9.99223C17.6299 10.0066 18.4129 10.2226 19.1067 10.6203C19.8005 11.0179 20.3827 11.5842 20.7993 12.2668C21.216 12.9494 21.4535 13.7261 21.49 14.5249V14.7419M10.2949 10.9291C9.52338 10.6344 8.84202 10.1437 8.31803 9.50542C7.79404 8.8671 7.44553 8.10318 7.30688 7.28906M7.96688 3.96506C8.11402 3.73092 8.28132 3.51008 8.46688 3.30506L8.63088 3.13306M15.3489 3.13306C15.8541 3.63796 16.2389 4.25029 16.4748 4.92448C16.7106 5.59866 16.7913 6.31735 16.711 7.02706C16.6306 7.73677 16.3913 8.41922 16.0107 9.02364C15.6302 9.62805 15.1182 10.1389 14.5129 10.5181M3 3L21 21" stroke="currentColor" stroke-width="1.5" stroke-linecap="round" stroke-linejoin="round"/>
</svg>
