<svg width="24" height="24" viewBox="0 0 24 24" fill="none" xmlns="http://www.w3.org/2000/svg">
<path d="M11.9391 13.9998C11.9391 14.1728 11.9871 14.3508 11.9951 14.5328V14.7498C11.9951 15.972 11.524 17.1472 10.6797 18.0309C9.83546 18.9147 8.68304 19.439 7.46212 19.4948H7.24512M2.49512 14.7448C2.49517 13.8479 2.74914 12.9694 3.22763 12.2109C3.70613 11.4523 4.38961 10.8447 5.199 10.4584C6.00839 10.072 6.91062 9.92275 7.80131 10.0278C8.69201 10.1328 9.53477 10.4878 10.2321 11.0518M16.7451 19.4948C16.0576 19.4948 15.3784 19.3456 14.7542 19.0575C14.13 18.7693 13.5758 18.3491 13.1299 17.8259C12.684 17.3027 12.3569 16.6889 12.1714 16.0269C11.9858 15.3649 11.9461 14.6706 12.0551 13.9918H11.9951M13.7591 11.0478C14.4422 10.4957 15.265 10.1438 16.1361 10.0311C17.0071 9.91852 17.8924 10.0496 18.6934 10.4099C19.4944 10.7702 20.1799 11.3455 20.6736 12.0719C21.1673 12.7983 21.45 13.6474 21.4901 14.5248V14.7418M10.2951 10.9288C9.57368 10.6533 8.93029 10.2061 8.42069 9.62583C7.91109 9.04558 7.55065 8.34984 7.37059 7.59887C7.19053 6.84791 7.19629 6.06436 7.38736 5.31612C7.57843 4.56788 7.94905 3.87751 8.46712 3.30481L8.63112 3.13281M15.3491 3.13281C15.9098 3.69313 16.3213 4.38485 16.5462 5.14493C16.7711 5.90502 16.8022 6.7093 16.6367 7.48449C16.4712 8.25968 16.1143 8.98112 15.5986 9.58307C15.0829 10.185 14.4247 10.6483 13.6841 10.9308M10 11.9998C10 12.5302 10.2107 13.0389 10.5858 13.414C10.9609 13.789 11.4696 13.9998 12 13.9998C12.5304 13.9998 13.0391 13.789 13.4142 13.414C13.7893 13.0389 14 12.5302 14 11.9998C14 11.4693 13.7893 10.9606 13.4142 10.5855C13.0391 10.2105 12.5304 9.99976 12 9.99976C11.4696 9.99976 10.9609 10.2105 10.5858 10.5855C10.2107 10.9606 10 11.4693 10 11.9998Z" stroke="currentColor" stroke-width="1.5" stroke-linecap="round" stroke-linejoin="round"/>
</svg>
