<svg width="24" height="24" viewBox="0 0 24 24" fill="none" xmlns="http://www.w3.org/2000/svg">
<path d="M11.5861 3C11.9612 2.62506 12.4698 2.41443 13.0001 2.41443C13.5305 2.41443 14.0391 2.62506 14.4141 3L15.0001 3.585L15.5861 3C15.94 2.64633 16.4135 2.43813 16.9134 2.41647C17.4132 2.39481 17.903 2.56127 18.2861 2.883L18.4141 3L21.0001 5.586C21.3751 5.96106 21.5857 6.46967 21.5857 7C21.5857 7.53033 21.3751 8.03895 21.0001 8.414L20.4141 9L21.0001 9.586C21.3751 9.96106 21.5857 10.4697 21.5857 11C21.5857 11.5303 21.3751 12.0389 21.0001 12.414L12.4141 21C12.0391 21.3749 11.5305 21.5856 11.0001 21.5856C10.4698 21.5856 9.96118 21.3749 9.58612 21L9.00012 20.414L8.41412 21C8.03907 21.3749 7.53045 21.5856 7.00012 21.5856C6.4698 21.5856 5.96118 21.3749 5.58612 21L3.00012 18.414C2.62518 18.0389 2.41455 17.5303 2.41455 17C2.41455 16.4697 2.62518 15.9611 3.00012 15.586L3.58512 14.999L3.00012 14.414C2.64645 14.0601 2.43825 13.5866 2.41659 13.0868C2.39493 12.5869 2.56139 12.0971 2.88312 11.714L3.00012 11.585L11.5861 3ZM14.6131 7.21C14.4121 7.05459 14.1595 6.98151 13.9066 7.0056C13.6537 7.0297 13.4194 7.14916 13.2514 7.33972C13.0833 7.53029 12.9941 7.77767 13.0019 8.03162C13.0097 8.28557 13.1138 8.52704 13.2931 8.707L13.5851 9L12.5171 10.067C12.2329 9.99142 11.9355 9.97936 11.6461 10.0317C11.3567 10.084 11.0824 10.1994 10.8426 10.3697C10.6028 10.54 10.4035 10.761 10.2587 11.017C10.114 11.273 10.0274 11.5577 10.0051 11.851L10.0001 12L10.0051 12.15C10.0151 12.275 10.0351 12.398 10.0671 12.517L9.00012 13.585L8.70712 13.293L8.61312 13.21C8.41213 13.0546 8.15952 12.9815 7.9066 13.0056C7.65368 13.0297 7.41941 13.1492 7.25137 13.3397C7.08334 13.5303 6.99414 13.7777 7.0019 14.0316C7.00965 14.2856 7.11378 14.527 7.29312 14.707L7.58512 15L7.29312 15.293L7.21012 15.387C7.05471 15.588 6.98163 15.8406 7.00572 16.0935C7.02982 16.3464 7.14928 16.5807 7.33984 16.7488C7.53041 16.9168 7.77779 17.006 8.03174 16.9982C8.28569 16.9905 8.52717 16.8864 8.70712 16.707L9.00012 16.415L9.29312 16.707L9.38712 16.79C9.58812 16.9454 9.84073 17.0185 10.0936 16.9944C10.3466 16.9703 10.5808 16.8508 10.7489 16.6603C10.9169 16.4697 11.0061 16.2223 10.9984 15.9684C10.9906 15.7144 10.8865 15.473 10.7071 15.293L10.4151 15L11.4841 13.933C11.8231 14.0228 12.1798 14.0221 12.5185 13.9308C12.8571 13.8395 13.1658 13.6609 13.4138 13.4129C13.6617 13.1648 13.8402 12.856 13.9313 12.5173C14.0225 12.1787 14.0231 11.822 13.9331 11.483L15.0001 10.415L15.2931 10.707L15.3871 10.79C15.5881 10.9454 15.8407 11.0185 16.0936 10.9944C16.3466 10.9703 16.5808 10.8508 16.7489 10.6603C16.9169 10.4697 17.0061 10.2223 16.9984 9.96839C16.9906 9.71444 16.8865 9.47296 16.7071 9.293L16.4151 9L16.7071 8.707L16.7901 8.613C16.9455 8.41201 17.0186 8.1594 16.9945 7.90648C16.9704 7.65355 16.851 7.41928 16.6604 7.25125C16.4698 7.08322 16.2225 6.99402 15.9685 7.00177C15.7146 7.00953 15.4731 7.11365 15.2931 7.293L15.0001 7.585L14.7071 7.293L14.6131 7.21Z" fill="currentColor"/>
</svg>
