<svg width="24" height="24" viewBox="0 0 24 24" fill="none" xmlns="http://www.w3.org/2000/svg">
<path d="M7.99985 15.9999L11.1998 12.7999M12.7999 11.1999L15.9999 7.99988M13.9998 7.99988L15.9998 9.99988M7.99985 13.9999L9.99985 15.9999M17.7069 3.70685L20.2928 6.29285C20.4803 6.48038 20.5856 6.73468 20.5856 6.99985C20.5856 7.26501 20.4803 7.51932 20.2928 7.70685L19.7069 8.29285C19.5194 8.48038 19.4141 8.73468 19.4141 8.99985C19.4141 9.26501 19.5194 9.51932 19.7069 9.70685L20.2928 10.2928C20.4803 10.4804 20.5856 10.7347 20.5856 10.9998C20.5856 11.265 20.4803 11.5193 20.2928 11.7068L11.7068 20.2928C11.5193 20.4803 11.265 20.5856 10.9998 20.5856C10.7347 20.5856 10.4804 20.4803 10.2928 20.2928L9.70685 19.7069C9.51932 19.5194 9.26501 19.4141 8.99985 19.4141C8.73468 19.4141 8.48038 19.5194 8.29285 19.7069L7.70685 20.2928C7.51932 20.4803 7.26501 20.5856 6.99985 20.5856C6.73468 20.5856 6.48038 20.4803 6.29285 20.2928L3.70685 17.7069C3.51938 17.5193 3.41406 17.265 3.41406 16.9998C3.41406 16.7347 3.51938 16.4804 3.70685 16.2928L4.29285 15.7068C4.48032 15.5193 4.58564 15.265 4.58564 14.9998C4.58564 14.7347 4.48032 14.4804 4.29285 14.2928L3.70685 13.7068C3.51938 13.5193 3.41406 13.265 3.41406 12.9998C3.41406 12.7347 3.51938 12.4804 3.70685 12.2928L12.2928 3.70685C12.4804 3.51938 12.7347 3.41406 12.9998 3.41406C13.265 3.41406 13.5193 3.51938 13.7068 3.70685L14.2928 4.29285C14.4804 4.48032 14.7347 4.58564 14.9998 4.58564C15.265 4.58564 15.5193 4.48032 15.7068 4.29285L16.2928 3.70685C16.4804 3.51938 16.7347 3.41406 16.9998 3.41406C17.265 3.41406 17.5193 3.51938 17.7069 3.70685ZM10.9998 11.9999C10.9998 12.2651 11.1052 12.5194 11.2927 12.707C11.4803 12.8945 11.7346 12.9999 11.9998 12.9999C12.2651 12.9999 12.5194 12.8945 12.707 12.707C12.8945 12.5194 12.9998 12.2651 12.9998 11.9999C12.9998 11.7347 12.8945 11.4803 12.707 11.2928C12.5194 11.1052 12.2651 10.9999 11.9998 10.9999C11.7346 10.9999 11.4803 11.1052 11.2927 11.2928C11.1052 11.4803 10.9998 11.7347 10.9998 11.9999Z" stroke="currentColor" stroke-width="1.5" stroke-linecap="round" stroke-linejoin="round"/>
</svg>
