<svg width="24" height="24" viewBox="0 0 24 24" fill="none" xmlns="http://www.w3.org/2000/svg">
<path d="M12.0005 3V20M12.0005 12H21.0005M12.0005 9H20.0005M12.0005 6H18.0005M12.0005 18H18.0005M12.0005 15H20.0005M12.0003 21C12.7835 21.0006 13.5634 20.8991 14.3203 20.698C16.0837 20.2289 17.6628 19.235 18.8483 17.8479C20.0339 16.4608 20.7698 14.7462 20.9585 12.9313C21.1472 11.1164 20.7798 9.28704 19.9051 7.68573C19.0303 6.08442 17.6894 4.78683 16.0603 3.965C14.8472 3.35283 13.5111 3.02332 12.1524 3.00119C10.7937 2.97907 9.44765 3.26489 8.21518 3.83723C6.98271 4.40957 5.89585 5.25357 5.03612 6.3059C4.17639 7.35824 3.56611 8.59159 3.25107 9.91345C2.93603 11.2353 2.9244 12.6113 3.21706 13.9383C3.50972 15.2653 4.09907 16.5088 4.9409 17.5755C5.78272 18.6422 6.85517 19.5045 8.07779 20.0975C9.30041 20.6906 10.6415 20.9992 12.0003 21Z" stroke="currentColor" stroke-width="1.5" stroke-linecap="round" stroke-linejoin="round"/>
</svg>
