<svg width="24" height="24" viewBox="0 0 24 24" fill="none" xmlns="http://www.w3.org/2000/svg">
<path d="M12 3V8M12 12V20M5.64091 5.63095C3.95175 7.3176 3.00178 9.60618 3 11.9932C2.99822 14.3803 3.94477 16.6703 5.63141 18.3595C7.31806 20.0486 9.60664 20.9986 11.9937 21.0004C14.3808 21.0021 16.6707 20.0556 18.3599 18.369M20.0399 16.051C20.893 14.3608 21.1914 12.4447 20.8926 10.5751C20.5938 8.70561 19.7131 6.97791 18.3757 5.63785C17.0383 4.29779 15.3123 3.41362 13.4434 3.11112C11.5745 2.80862 9.65775 3.1032 7.96591 3.95295M16 12H21M13 9H20M12 6H18M12 18H18M12 15H15M19 15H20M3 3L21 21" stroke="currentColor" stroke-width="1.5" stroke-linecap="round" stroke-linejoin="round"/>
</svg>
