<svg width="24" height="24" viewBox="0 0 24 24" fill="none" xmlns="http://www.w3.org/2000/svg">
<path d="M14.4991 3.99597C14.7881 3.99601 15.0743 4.05299 15.3413 4.16366C15.6083 4.27433 15.8508 4.43652 16.0551 4.64097L19.3571 7.94197C19.5617 8.14629 19.7239 8.38893 19.8347 8.656C19.9454 8.92308 20.0024 9.20936 20.0024 9.49847C20.0024 9.78759 19.9454 10.0739 19.8347 10.3409C19.7239 10.608 19.5617 10.8507 19.3571 11.055L18.7901 11.622L18.8331 11.814C19.1716 13.4904 18.9965 15.2299 18.3307 16.8053C17.6649 18.3806 16.5393 19.7184 15.1011 20.644L14.8711 20.788C13.6864 21.4979 12.3465 21.9085 10.9674 21.9841C9.58824 22.0597 8.21148 21.7981 6.9562 21.222C5.70093 20.6458 4.60497 19.7725 3.76316 18.6775C2.92135 17.5825 2.35906 16.2988 2.12495 14.9376C1.89084 13.5764 1.99196 12.1787 2.41955 10.8654C2.84715 9.55202 3.58835 8.36268 4.579 7.40025C5.56965 6.43781 6.77991 5.73129 8.10504 5.34181C9.43018 4.95233 10.8303 4.89163 12.1841 5.16497L12.3761 5.20697L12.9431 4.64097C13.3084 4.27564 13.7905 4.05049 14.3051 4.00497L14.4991 3.99597ZM10.0001 8.99997C8.93926 8.99997 7.92184 9.4214 7.1717 10.1715C6.42155 10.9217 6.00012 11.9391 6.00012 13C6.00012 13.2652 6.10548 13.5195 6.29302 13.7071C6.48055 13.8946 6.73491 14 7.00012 14C7.26534 14 7.51969 13.8946 7.70723 13.7071C7.89477 13.5195 8.00012 13.2652 8.00012 13C8.00012 12.4695 8.21084 11.9608 8.58591 11.5858C8.96098 11.2107 9.46969 11 10.0001 11C10.2653 11 10.5197 10.8946 10.7072 10.7071C10.8948 10.5195 11.0001 10.2652 11.0001 9.99997C11.0001 9.73476 10.8948 9.4804 10.7072 9.29286C10.5197 9.10533 10.2653 8.99997 10.0001 8.99997Z" fill="currentColor"/>
<path d="M20.9999 2C21.2548 2.00028 21.4999 2.09788 21.6853 2.27285C21.8706 2.44782 21.9821 2.68695 21.9971 2.94139C22.012 3.19584 21.9292 3.44638 21.7656 3.64183C21.602 3.83729 21.37 3.9629 21.1169 3.993L20.9999 4H19.9999C19.9999 4.83 19.6979 5.629 19.1539 6.25L18.9999 6.413L17.7069 7.706C17.5269 7.88535 17.2854 7.98947 17.0315 7.99723C16.7776 8.00498 16.5302 7.91578 16.3396 7.74775C16.149 7.57972 16.0296 7.34545 16.0055 7.09253C15.9814 6.8396 16.0545 6.58699 16.2099 6.386L16.2929 6.292L17.5859 5C17.8179 4.768 17.9609 4.463 17.9929 4.14L17.9999 4C17.9997 3.49542 18.1903 3.00943 18.5334 2.63945C18.8765 2.26947 19.3467 2.04284 19.8499 2.005L19.9999 2H20.9999Z" fill="currentColor"/>
</svg>
