<svg width="24" height="24" viewBox="0 0 24 24" fill="none" xmlns="http://www.w3.org/2000/svg">
<path d="M17.0001 7L18.2931 5.707C18.5172 5.48283 18.695 5.2167 18.8163 4.92382C18.9376 4.63093 19.0001 4.31702 19.0001 4C19.0001 3.73478 19.1054 3.48043 19.293 3.29289C19.4805 3.10536 19.7348 3 20.0001 3H21.0001M7.00006 13C7.00006 12.2044 7.31613 11.4413 7.87874 10.8787C8.44135 10.3161 9.20441 10 10.0001 10M18.6501 8.65004C18.7616 8.76148 18.8501 8.89383 18.9105 9.03951C18.9709 9.18519 19.002 9.34134 19.002 9.49904C19.002 9.65674 18.9709 9.81289 18.9105 9.95857C18.8501 10.1042 18.7616 10.2366 18.6501 10.348L17.6781 11.32C18.1634 12.9201 18.1002 14.6364 17.4984 16.1964C16.8967 17.7563 15.7909 19.0705 14.3567 19.9301C12.9226 20.7897 11.2423 21.1454 9.58289 20.9407C7.92345 20.736 6.37998 19.9827 5.19769 18.8004C4.01539 17.6181 3.26207 16.0746 3.05739 14.4152C2.85272 12.7558 3.20842 11.0755 4.06801 9.64137C4.92759 8.20723 6.24175 7.10144 7.80173 6.49968C9.36171 5.89792 11.078 5.83469 12.6781 6.32004L13.6501 5.34804C13.7615 5.23647 13.8939 5.14796 14.0395 5.08757C14.1852 5.02718 14.3414 4.99609 14.4991 4.99609C14.6568 4.99609 14.8129 5.02718 14.9586 5.08757C15.1043 5.14796 15.2366 5.23647 15.3481 5.34804L18.6501 8.65004Z" stroke="currentColor" stroke-width="1.5" stroke-linecap="round" stroke-linejoin="round"/>
</svg>
