<svg width="24" height="24" viewBox="0 0 24 24" fill="none" xmlns="http://www.w3.org/2000/svg">
<path d="M14.9999 3C15.7955 3 16.5586 3.31607 17.1212 3.87868C17.6838 4.44129 17.9999 5.20435 17.9999 6C18.4932 5.99989 18.979 6.12146 19.4141 6.35392C19.8493 6.58638 20.2204 6.92256 20.4945 7.33269C20.7687 7.74282 20.9375 8.21424 20.986 8.70519C21.0345 9.19614 20.9612 9.69147 20.7725 10.1473C20.5838 10.6031 20.2856 11.0054 19.9044 11.3185C19.5231 11.6316 19.0705 11.8458 18.5867 11.9422C18.1028 12.0386 17.6027 12.0142 17.1306 11.8711C16.6584 11.728 16.2289 11.4707 15.8799 11.122L11.1219 15.88C11.4653 16.2237 11.7201 16.6456 11.8644 17.1095C12.0086 17.5734 12.0381 18.0654 11.9502 18.5433C11.8623 19.0211 11.6596 19.4704 11.3597 19.8526C11.0598 20.2347 10.6715 20.5384 10.2283 20.7373C9.78506 20.9363 9.30015 21.0246 8.81524 20.9948C8.33033 20.9649 7.85993 20.8177 7.44448 20.5658C7.02903 20.314 6.68096 19.965 6.4302 19.5489C6.17944 19.1328 6.03349 18.662 6.0049 18.177V18H5.8289C5.34373 17.9716 4.87274 17.8257 4.45643 17.5749C4.04013 17.3242 3.69098 16.976 3.43903 16.5604C3.18707 16.1448 3.03986 15.6743 3.01005 15.1892C2.98023 14.7041 3.06871 14.219 3.26788 13.7757C3.46705 13.3324 3.77093 12.9441 4.15339 12.6442C4.53586 12.3444 4.98544 12.1419 5.46347 12.0543C5.94151 11.9667 6.43367 11.9965 6.89763 12.1412C7.36158 12.2859 7.78344 12.5412 8.1269 12.885L12.8849 8.127C12.4652 7.70756 12.1793 7.17307 12.0634 6.59114C11.9474 6.0092 12.0067 5.40595 12.2336 4.85769C12.4605 4.30943 12.8449 3.84077 13.3382 3.51099C13.8315 3.18121 14.4115 3.00513 15.0049 3.005L14.9999 3Z" stroke="currentColor" stroke-width="1.5" stroke-linecap="round" stroke-linejoin="round"/>
</svg>
