<svg width="24" height="24" viewBox="0 0 24 24" fill="none" xmlns="http://www.w3.org/2000/svg">
<path d="M12.5 8.50203L12.88 8.12203C12.5308 7.77332 12.2731 7.34387 12.1296 6.87173C11.9861 6.39959 11.9613 5.89935 12.0574 5.41534C12.1535 4.93132 12.3674 4.47847 12.6804 4.09693C12.9933 3.71538 13.3955 3.41692 13.8514 3.22799C14.3072 3.03905 14.8027 2.96549 15.2937 3.01381C15.7848 3.06213 16.2564 3.23084 16.6667 3.50499C17.077 3.77914 17.4133 4.15027 17.6459 4.58549C17.8785 5.02071 18.0001 5.50657 18 6.00003C18.4933 5.99992 18.9791 6.12149 19.4142 6.35395C19.8494 6.58641 20.2205 6.92259 20.4946 7.33272C20.7688 7.74285 20.9376 8.21427 20.9861 8.70522C21.0346 9.19617 20.9612 9.6915 20.7726 10.1473C20.5839 10.6032 20.2857 11.0055 19.9045 11.3185C19.5232 11.6316 19.0706 11.8458 18.5868 11.9422C18.1029 12.0386 17.6028 12.0142 17.1307 11.8711C16.6585 11.7281 16.2289 11.4708 15.88 11.122L15.508 11.494M13.5 13.502L11.122 15.88C11.4654 16.2237 11.7202 16.6456 11.8644 17.1095C12.0087 17.5735 12.0382 18.0655 11.9503 18.5433C11.8624 19.0211 11.6597 19.4704 11.3598 19.8526C11.0599 20.2348 10.6716 20.5384 10.2284 20.7374C9.78515 20.9363 9.30024 21.0247 8.81533 20.9948C8.33042 20.9649 7.86002 20.8177 7.44457 20.5659C7.02912 20.314 6.68105 19.965 6.43029 19.5489C6.17953 19.1328 6.03358 18.662 6.00499 18.177V18H5.82899C5.34382 17.9716 4.87283 17.8257 4.45653 17.575C4.04022 17.3242 3.69107 16.976 3.43912 16.5604C3.18717 16.1449 3.03995 15.6743 3.01014 15.1892C2.98032 14.7041 3.06881 14.2191 3.26797 13.7757C3.46714 13.3324 3.77102 12.9441 4.15349 12.6443C4.53595 12.3444 4.98553 12.142 5.46357 12.0543C5.9416 11.9667 6.43376 11.9965 6.89772 12.1412C7.36167 12.2859 7.78353 12.5412 8.12699 12.885L10.505 10.507M3 3.00003L21 21" stroke="currentColor" stroke-width="1.5" stroke-linecap="round" stroke-linejoin="round"/>
</svg>
