<svg width="24" height="24" viewBox="0 0 24 24" fill="none" xmlns="http://www.w3.org/2000/svg">
<path d="M8.00006 3H14.0001M6.10004 17H15.9M13.0001 3V11.416C13.1341 11.475 13.2651 11.539 13.3931 11.609L17.0001 8L19.0001 10L15.3921 13.608C15.8737 14.4928 16.0768 15.5025 15.9748 16.5047C15.8728 17.507 15.4704 18.455 14.8204 19.2246C14.1703 19.9943 13.303 20.5496 12.332 20.8179C11.3609 21.0861 10.3315 21.0548 9.37857 20.728C8.42563 20.4012 7.59364 19.7942 6.99159 18.9865C6.38954 18.1788 6.04553 17.208 6.00461 16.2015C5.9637 15.1949 6.2278 14.1994 6.76231 13.3455C7.29682 12.4916 8.07681 11.819 9.00007 11.416V3H13.0001Z" stroke="currentColor" stroke-width="1.5" stroke-linecap="round" stroke-linejoin="round"/>
</svg>
