<svg width="24" height="24" viewBox="0 0 24 24" fill="none" xmlns="http://www.w3.org/2000/svg">
<path d="M9 5.00003C9 4.73481 8.89464 4.48046 8.70711 4.29292C8.51957 4.10539 8.26522 4.00003 8 4.00003H6C5.73478 4.00003 5.48043 4.10539 5.29289 4.29292C5.10536 4.48046 5 4.73481 5 5.00003V19C5 19.2652 5.10536 19.5196 5.29289 19.7071C5.48043 19.8947 5.73478 20 6 20H8C8.26522 20 8.51957 19.8947 8.70711 19.7071C8.89464 19.5196 9 19.2652 9 19M9 5.00003V19M9 5.00003C9 4.73481 9.10536 4.48046 9.29289 4.29292C9.48043 4.10539 9.73478 4.00003 10 4.00003H12C12.2652 4.00003 12.5196 4.10539 12.7071 4.29292C12.8946 4.48046 13 4.73481 13 5.00003V19C13 19.2652 12.8946 19.5196 12.7071 19.7071C12.5196 19.8947 12.2652 20 12 20H10C9.73478 20 9.48043 19.8947 9.29289 19.7071C9.10536 19.5196 9 19.2652 9 19M5 8.00003H9M9 16H13M14 9.00003L18 8.00003M16 16L19.923 15.02M13.8031 4.56004L15.9871 4.03004C16.5491 3.89504 17.1201 4.22004 17.2691 4.76204L20.9641 18.18C21.0293 18.4257 21.0004 18.6868 20.8831 18.9123C20.7659 19.1378 20.5686 19.3114 20.3301 19.399L20.1971 19.44L18.0131 19.97C17.4511 20.105 16.8801 19.78 16.7311 19.238L13.0361 5.82004C12.9709 5.57439 12.9998 5.31325 13.117 5.08778C13.2343 4.8623 13.4315 4.68872 13.6701 4.60104L13.8031 4.56004Z" stroke="currentColor" stroke-width="1.5" stroke-linecap="round" stroke-linejoin="round"/>
</svg>
