<svg width="24" height="24" viewBox="0 0 24 24" fill="none" xmlns="http://www.w3.org/2000/svg">
<path d="M9 9V19M9 19C9 19.2652 8.89464 19.5196 8.70711 19.7071C8.51957 19.8946 8.26522 20 8 20H6C5.73478 20 5.48043 19.8946 5.29289 19.7071C5.10536 19.5196 5 19.2652 5 19V5M9 19C9 19.2652 9.10536 19.5196 9.29289 19.7071C9.48043 19.8946 9.73478 20 10 20H12C12.2652 20 12.5196 19.8946 12.7071 19.7071C12.8946 19.5196 13 19.2652 13 19V13M8 4C8.26522 4 8.51957 4.10536 8.70711 4.29289C8.89464 4.48043 9 4.73478 9 5C9 4.73478 9.10536 4.48043 9.29289 4.29289C9.48043 4.10536 9.73478 4 10 4H12C12.2652 4 12.5196 4.10536 12.7071 4.29289C12.8946 4.48043 13 4.73478 13 5V9M5 8H8M9 16H13M14.2541 10.244L13.0361 5.82001C12.9709 5.57436 12.9998 5.31322 13.117 5.08774C13.2343 4.86227 13.4315 4.68869 13.6701 4.60101L13.8031 4.56001L15.9871 4.03001C16.5491 3.89501 17.1201 4.22001 17.2691 4.76201L20.5051 16.512M19.5848 19.589L18.0128 19.969C17.4508 20.105 16.8798 19.779 16.7308 19.238L15.7788 15.78M14 9L18 8M19.207 15.199L19.923 15.019M3 3L21 21" stroke="currentColor" stroke-width="1.5" stroke-linecap="round" stroke-linejoin="round"/>
</svg>
