<svg width="24" height="24" viewBox="0 0 24 24" fill="none" xmlns="http://www.w3.org/2000/svg">
<path d="M12 6C13.0609 6 14.0783 6.42143 14.8284 7.17157C15.5786 7.92172 16 8.93913 16 10V21C15.9999 21.1768 15.9528 21.3505 15.8637 21.5032C15.7746 21.656 15.6465 21.7823 15.4926 21.8695C15.3387 21.9566 15.1645 22.0013 14.9876 21.9991C14.8108 21.9969 14.6377 21.9479 14.486 21.857L10 19.166L5.514 21.857C5.37059 21.9431 5.20788 21.9918 5.04077 21.9987C4.87366 22.0056 4.70749 21.9705 4.55746 21.8966C4.40743 21.8227 4.27833 21.7123 4.18199 21.5756C4.08565 21.4389 4.02514 21.2802 4.006 21.114L4 21V10C4 8.93913 4.42143 7.92172 5.17157 7.17157C5.92172 6.42143 6.93913 6 8 6H12Z" fill="currentColor"/>
<path d="M16 2C17.0609 2 18.0783 2.42143 18.8284 3.17157C19.5786 3.92172 20 4.93913 20 6V17C20 17.2652 19.8946 17.5196 19.7071 17.7071C19.5196 17.8946 19.2652 18 19 18C18.7348 18 18.4804 17.8946 18.2929 17.7071C18.1054 17.5196 18 17.2652 18 17V6C18 5.46957 17.7893 4.96086 17.4142 4.58579C17.0391 4.21071 16.5304 4 16 4H11C10.7348 4 10.4804 3.89464 10.2929 3.70711C10.1054 3.51957 10 3.26522 10 3C10 2.73478 10.1054 2.48043 10.2929 2.29289C10.4804 2.10536 10.7348 2 11 2H16Z" fill="currentColor"/>
</svg>
