<svg width="24" height="24" viewBox="0 0 24 24" fill="none" xmlns="http://www.w3.org/2000/svg">
<path d="M11 7H13C13.5304 7 14.0391 7.21071 14.4142 7.58579C14.7893 7.96086 15 8.46957 15 9V11M15 15V21L10 18L5 21V9C5 8.46957 5.21071 7.96086 5.58579 7.58579C5.96086 7.21071 6.46957 7 7 7M9.26489 4C9.44068 3.69553 9.69362 3.44278 9.99822 3.26721C10.3028 3.09165 10.6483 2.99948 10.9999 3H16.9999C17.5303 3 18.039 3.21072 18.4141 3.58579C18.7892 3.96086 18.9999 4.46957 18.9999 5V15M3 3L21 21" stroke="currentColor" stroke-width="1.5" stroke-linecap="round" stroke-linejoin="round"/>
</svg>
