<svg width="24" height="24" viewBox="0 0 24 24" fill="none" xmlns="http://www.w3.org/2000/svg">
<path d="M12 19C10.6318 18.2101 9.07983 17.7942 7.5 17.7942C5.92017 17.7942 4.36817 18.2101 3 19V5.99999C3.66412 5.61646 4.37455 5.31938 5.114 5.11599M12 19C13.7831 17.9707 15.8652 17.5838 17.899 17.904M12 19V12M8.914 4.90599C9.984 5.07599 11.03 5.43999 12 5.99999M12 5.99999C13.3682 5.21008 14.9202 4.79422 16.5 4.79422C18.0798 4.79422 19.6318 5.21008 21 5.99999V17M12 5.99999V8M3 3L21 21" stroke="currentColor" stroke-width="1.5" stroke-linecap="round" stroke-linejoin="round"/>
</svg>
