<svg width="24" height="24" viewBox="0 0 24 24" fill="none" xmlns="http://www.w3.org/2000/svg">
<path d="M13 1C13.5046 0.99984 13.9906 1.19041 14.3605 1.5335C14.7305 1.87659 14.9572 2.34684 14.995 2.85L15 3V3.5C15 4.817 15.381 6.104 16.094 7.205L16.264 7.455L16.314 7.527C17.3409 8.96855 17.9248 10.6784 17.994 12.447L18 12.801V19C18 19.7652 17.7077 20.5015 17.1827 21.0583C16.6578 21.615 15.9399 21.9501 15.176 21.995L15 22H9C8.23479 22 7.49849 21.7077 6.94174 21.1827C6.38499 20.6578 6.04989 19.9399 6.005 19.176L6 19V12.8C6.00033 11.0302 6.51674 9.29883 7.486 7.818L7.686 7.526L7.736 7.457C8.55837 6.30144 9.00018 4.91832 9 3.5V3C8.99984 2.49542 9.19041 2.00943 9.5335 1.63945C9.87659 1.26947 10.3468 1.04284 10.85 1.005L11 1H13ZM13.362 6H10.638C10.3939 6.82655 10.03 7.6129 9.558 8.334L9.364 8.618L9.314 8.687C8.52139 9.80057 8.06751 11.1195 8.007 12.485L8.004 12.61C8.58096 12.2023 9.27263 11.9887 9.979 12C10.5308 11.9885 11.077 12.1116 11.5706 12.3584C12.0642 12.6053 12.4902 12.9686 12.812 13.417C13.082 13.792 13.518 14.01 14.021 14C14.2481 14.0047 14.4729 13.9541 14.676 13.8525C14.8791 13.7509 15.0545 13.6015 15.187 13.417C15.4101 13.1067 15.684 12.8362 15.997 12.617L16 12.8C16 11.43 15.604 10.093 14.863 8.948L14.635 8.616C14.0689 7.82041 13.6387 6.93641 13.362 6Z" fill="currentColor"/>
</svg>
