<svg width="24" height="24" viewBox="0 0 24 24" fill="none" xmlns="http://www.w3.org/2000/svg">
<path d="M14 3.5C14 5.126 14.507 6.712 15.45 8.037L15.5 8.107C16.4758 9.4777 17.0001 11.1184 17 12.801V13M17 17V19C17 19.5304 16.7893 20.0391 16.4142 20.4142C16.0391 20.7893 15.5304 21 15 21H9C8.46957 21 7.96086 20.7893 7.58579 20.4142C7.21071 20.0391 7 19.5304 7 19V12.8C7.00008 11.2083 7.46968 9.65206 8.35 8.326M9.686 5.696C9.89446 4.98263 10.0002 4.2432 10 3.5M7 14.803C7.4 14.631 7.74568 14.3534 8 14C8.22717 13.6835 8.52797 13.4271 8.87642 13.2529C9.22488 13.0786 9.6105 12.9918 10 13C10.3895 12.9918 10.7751 13.0786 11.1236 13.2529C11.472 13.4271 11.7728 13.6835 12 14C12.2272 14.3165 12.528 14.5729 12.8764 14.7472C13.2249 14.9214 13.6105 15.0082 14 15C14.2949 15.0063 14.5885 14.9582 14.866 14.858M3 3L21 21M10 5H14V3C14 2.73478 13.8946 2.48043 13.7071 2.29289C13.5196 2.10536 13.2652 2 13 2H11C10.7348 2 10.4804 2.10536 10.2929 2.29289C10.1054 2.48043 10 2.73478 10 3V5Z" stroke="currentColor" stroke-width="1.5" stroke-linecap="round" stroke-linejoin="round"/>
</svg>
