<svg width="24" height="24" viewBox="0 0 24 24" fill="none" xmlns="http://www.w3.org/2000/svg">
<path d="M20 15.5C17 14.5 14.5 15 12 20C11.5 17 10.5 14.5 9 12M6 9C5.46957 9 4.96086 8.78929 4.58579 8.41421C4.21071 8.03914 4 7.53043 4 7C4 6.46957 4.21071 5.96086 4.58579 5.58579C4.96086 5.21071 5.46957 5 6 5C6.53043 5 7.03914 5.21071 7.41421 5.58579C7.78929 5.96086 8 6.46957 8 7C8 7.53043 7.78929 8.03914 7.41421 8.41421C7.03914 8.78929 6.53043 9 6 9Z" stroke="currentColor" stroke-width="1.5" stroke-linecap="round" stroke-linejoin="round"/>
</svg>
