<svg width="24" height="24" viewBox="0 0 24 24" fill="none" xmlns="http://www.w3.org/2000/svg">
<path d="M14.1432 11.4861C14.2844 11.2691 14.5043 11.1154 14.7565 11.0572C15.0087 10.999 15.2737 11.0409 15.4956 11.174C15.7176 11.3072 15.8793 11.5212 15.9468 11.7711C16.0142 12.021 15.9821 12.2873 15.8572 12.5141C14.3552 15.0191 13.4472 17.4041 12.9872 20.1641C12.8272 21.1201 11.5392 21.3141 11.1062 20.4471C9.04623 16.3271 7.24823 15.4711 4.31623 16.4491C4.1916 16.4905 4.06003 16.5071 3.92901 16.4977C3.79799 16.4884 3.6701 16.4533 3.55263 16.3945C3.3154 16.2758 3.13504 16.0677 3.05123 15.8161C2.96742 15.5644 2.98703 15.2897 3.10574 15.0525C3.22445 14.8152 3.43254 14.6349 3.68423 14.5511C6.88423 13.4841 9.34023 14.1781 11.4872 17.1741L11.5782 17.3041L11.5892 17.2641C12.1112 15.4361 12.8562 13.7141 13.8622 11.9641L14.1432 11.4861Z" fill="currentColor"/>
<path d="M18 4C17.606 4 17.2159 4.0776 16.8519 4.22836C16.488 4.37913 16.1573 4.6001 15.8787 4.87868C15.6001 5.15726 15.3791 5.48797 15.2284 5.85195C15.0776 6.21593 15 6.60603 15 7C15 7.39397 15.0776 7.78407 15.2284 8.14805C15.3791 8.51203 15.6001 8.84274 15.8787 9.12132C16.1573 9.3999 16.488 9.62087 16.8519 9.77164C17.2159 9.9224 17.606 10 18 10C18.7956 10 19.5587 9.68393 20.1213 9.12132C20.6839 8.55871 21 7.79565 21 7C21 6.20435 20.6839 5.44129 20.1213 4.87868C19.5587 4.31607 18.7956 4 18 4Z" fill="currentColor"/>
</svg>
