<svg width="24" height="24" viewBox="0 0 24 24" fill="none" xmlns="http://www.w3.org/2000/svg">
<path d="M8.48605 11.143C8.71339 11.0069 8.98546 10.9666 9.24252 11.0309C9.49958 11.0952 9.7206 11.2589 9.85705 11.4861C10.9021 13.2261 11.687 14.929 12.2491 16.723L12.421 17.3041L12.5131 17.174C14.6061 14.253 16.993 13.5211 20.078 14.4741L20.3161 14.5511C20.4407 14.5925 20.5559 14.6582 20.6552 14.7442C20.7544 14.8302 20.8358 14.935 20.8945 15.0525C20.9533 15.1699 20.9884 15.2978 20.9977 15.4288C21.0071 15.5598 20.9905 15.6914 20.9491 15.816C20.9076 15.9407 20.8419 16.0559 20.7559 16.1552C20.6699 16.2544 20.5651 16.3358 20.4477 16.3945C20.3302 16.4533 20.2023 16.4884 20.0713 16.4977C19.9403 16.5071 19.8087 16.4905 19.6841 16.449C16.7521 15.471 14.9541 16.3271 12.8941 20.4471C12.4611 21.3131 11.1731 21.1201 11.0141 20.1641C10.5541 17.4041 9.64505 15.0191 8.14305 12.5141C8.00691 12.2867 7.96657 12.0146 8.03088 11.7576C8.09519 11.5005 8.2589 11.2795 8.48605 11.143Z" fill="currentColor"/>
<path d="M6 4C5.60603 4 5.21593 4.0776 4.85195 4.22836C4.48797 4.37913 4.15726 4.6001 3.87868 4.87868C3.6001 5.15726 3.37913 5.48797 3.22836 5.85195C3.0776 6.21593 3 6.60603 3 7C3 7.39397 3.0776 7.78407 3.22836 8.14805C3.37913 8.51203 3.6001 8.84274 3.87868 9.12132C4.15726 9.3999 4.48797 9.62087 4.85195 9.77164C5.21593 9.9224 5.60603 10 6 10C6.79565 10 7.55871 9.68393 8.12132 9.12132C8.68393 8.55871 9 7.79565 9 7C9 6.20435 8.68393 5.44129 8.12132 4.87868C7.55871 4.31607 6.79565 4 6 4Z" fill="currentColor"/>
</svg>
