<svg width="24" height="24" viewBox="0 0 24 24" fill="none" xmlns="http://www.w3.org/2000/svg">
<path d="M20 7H4C3.46957 7 2.96086 7.21071 2.58579 7.58579C2.21071 7.96086 2 8.46957 2 9V9.5L2.007 9.68C2.141 11.486 4.176 14.955 5.935 16.451L6 16.504V17C6 17.5304 6.21071 18.0391 6.58579 18.4142C6.96086 18.7893 7.46957 19 8 19H16L16.15 18.995C16.6532 18.9572 17.1234 18.7305 17.4665 18.3605C17.8096 17.9906 18.0002 17.5046 18 17V16.496L18.017 16.483C19.753 14.989 22 11.194 22 9.5V9C22 8.46957 21.7893 7.96086 21.4142 7.58579C21.0391 7.21071 20.5304 7 20 7Z" fill="currentColor"/>
</svg>
