<svg width="24" height="24" viewBox="0 0 24 24" fill="none" xmlns="http://www.w3.org/2000/svg">
<path d="M17 17V19C17 19.5304 16.7893 20.0391 16.4142 20.4142C16.0391 20.7893 15.5304 21 15 21H5C4.46957 21 3.96086 20.7893 3.58579 20.4142C3.21071 20.0391 3 19.5304 3 19V9C3 8.46957 3.21071 7.96086 3.58579 7.58579C3.96086 7.21071 4.46957 7 5 7H7M12 8C12 7.60444 12.1173 7.21776 12.3371 6.88886C12.5568 6.55996 12.8692 6.30362 13.2346 6.15224C13.6001 6.00087 14.0022 5.96126 14.3902 6.03843C14.7781 6.1156 15.1345 6.30608 15.4142 6.58579C15.6939 6.86549 15.8844 7.22186 15.9616 7.60982C16.0387 7.99778 15.9991 8.39992 15.8478 8.76537C15.6964 9.13082 15.44 9.44318 15.1111 9.66294C14.7822 9.8827 14.3956 10 14 10C14.3956 10 14.7822 10.1173 15.1111 10.3371C15.44 10.5568 15.6964 10.8692 15.8478 11.2346C15.9991 11.6001 16.0387 12.0022 15.9616 12.3902C15.8844 12.7781 15.6939 13.1345 15.4142 13.4142C15.1345 13.6939 14.7781 13.8844 14.3902 13.9616C14.0022 14.0387 13.6001 13.9991 13.2346 13.8478C12.8692 13.6964 12.5568 13.44 12.3371 13.1111C12.1173 12.7822 12 12.3956 12 12M7 5C7 4.46957 7.21071 3.96086 7.58579 3.58579C7.96086 3.21071 8.46957 3 9 3H19C19.5304 3 20.0391 3.21071 20.4142 3.58579C20.7893 3.96086 21 4.46957 21 5V15C21 15.5304 20.7893 16.0391 20.4142 16.4142C20.0391 16.7893 19.5304 17 19 17H9C8.46957 17 7.96086 16.7893 7.58579 16.4142C7.21071 16.0391 7 15.5304 7 15V5Z" stroke="currentColor" stroke-width="1.5" stroke-linecap="round" stroke-linejoin="round"/>
</svg>
