<svg width="24" height="24" viewBox="0 0 24 24" fill="none" xmlns="http://www.w3.org/2000/svg">
<path d="M10 3H5C4.46957 3 3.96086 3.21071 3.58579 3.58579C3.21071 3.96086 3 4.46957 3 5V10C3 10.5304 3.21071 11.0391 3.58579 11.4142C3.96086 11.7893 4.46957 12 5 12H10C10.5304 12 11.0391 11.7893 11.4142 11.4142C11.7893 11.0391 12 10.5304 12 10V5C12 4.46957 11.7893 3.96086 11.4142 3.58579C11.0391 3.21071 10.5304 3 10 3Z" fill="currentColor"/>
<path d="M15.0001 3C15.255 3.00028 15.5001 3.09788 15.6855 3.27285C15.8708 3.44782 15.9823 3.68695 15.9973 3.94139C16.0122 4.19584 15.9294 4.44638 15.7658 4.64183C15.6022 4.83729 15.3702 4.9629 15.1171 4.993L14.9901 5C14.7352 4.99972 14.4901 4.90212 14.3047 4.72715C14.1194 4.55218 14.0079 4.31305 13.9929 4.05861C13.978 3.80416 14.0608 3.55362 14.2244 3.35817C14.388 3.16271 14.62 3.0371 14.8731 3.007L15.0001 3Z" fill="currentColor"/>
<path d="M20.0001 3C20.255 3.00028 20.5001 3.09788 20.6855 3.27285C20.8708 3.44782 20.9823 3.68695 20.9973 3.94139C21.0122 4.19584 20.9294 4.44638 20.7658 4.64183C20.6022 4.83729 20.3702 4.9629 20.1171 4.993L19.9901 5C19.7352 4.99972 19.4901 4.90212 19.3047 4.72715C19.1194 4.55218 19.0079 4.31305 18.9929 4.05861C18.978 3.80416 19.0608 3.55362 19.2244 3.35817C19.388 3.16271 19.62 3.0371 19.8731 3.007L20.0001 3Z" fill="currentColor"/>
<path d="M20.0001 8C20.255 8.00028 20.5001 8.09788 20.6855 8.27285C20.8708 8.44782 20.9823 8.68695 20.9973 8.94139C21.0122 9.19584 20.9294 9.44638 20.7658 9.64183C20.6022 9.83729 20.3702 9.9629 20.1171 9.993L19.9901 10C19.7352 9.99972 19.4901 9.90212 19.3047 9.72715C19.1194 9.55218 19.0079 9.31305 18.9929 9.05861C18.978 8.80416 19.0608 8.55362 19.2244 8.35817C19.388 8.16271 19.62 8.0371 19.8731 8.007L20.0001 8Z" fill="currentColor"/>
<path d="M20.0001 14C20.255 14.0003 20.5001 14.0979 20.6855 14.2728C20.8708 14.4478 20.9823 14.687 20.9973 14.9414C21.0122 15.1958 20.9294 15.4464 20.7658 15.6418C20.6022 15.8373 20.3702 15.9629 20.1171 15.993L19.9901 16C19.7352 15.9997 19.4901 15.9021 19.3047 15.7272C19.1194 15.5522 19.0079 15.313 18.9929 15.0586C18.978 14.8042 19.0608 14.5536 19.2244 14.3582C19.388 14.1627 19.62 14.0371 19.8731 14.007L20.0001 14Z" fill="currentColor"/>
<path d="M4.0001 14C4.25498 14.0003 4.50014 14.0979 4.68547 14.2728C4.87081 14.4478 4.98234 14.687 4.99727 14.9414C5.01221 15.1958 4.92943 15.4464 4.76584 15.6418C4.60225 15.8373 4.3702 15.9629 4.1171 15.993L3.9901 16C3.73522 15.9997 3.49007 15.9021 3.30473 15.7272C3.1194 15.5522 3.00787 15.313 2.99293 15.0586C2.97799 14.8042 3.06078 14.5536 3.22437 14.3582C3.38796 14.1627 3.62001 14.0371 3.8731 14.007L4.0001 14Z" fill="currentColor"/>
<path d="M20.0001 19C20.255 19.0003 20.5001 19.0979 20.6855 19.2728C20.8708 19.4478 20.9823 19.687 20.9973 19.9414C21.0122 20.1958 20.9294 20.4464 20.7658 20.6418C20.6022 20.8373 20.3702 20.9629 20.1171 20.993L19.9901 21C19.7352 20.9997 19.4901 20.9021 19.3047 20.7272C19.1194 20.5522 19.0079 20.313 18.9929 20.0586C18.978 19.8042 19.0608 19.5536 19.2244 19.3582C19.388 19.1627 19.62 19.0371 19.8731 19.007L20.0001 19Z" fill="currentColor"/>
<path d="M15.0001 19C15.255 19.0003 15.5001 19.0979 15.6855 19.2728C15.8708 19.4478 15.9823 19.687 15.9973 19.9414C16.0122 20.1958 15.9294 20.4464 15.7658 20.6418C15.6022 20.8373 15.3702 20.9629 15.1171 20.993L14.9901 21C14.7352 20.9997 14.4901 20.9021 14.3047 20.7272C14.1194 20.5522 14.0079 20.313 13.9929 20.0586C13.978 19.8042 14.0608 19.5536 14.2244 19.3582C14.388 19.1627 14.62 19.0371 14.8731 19.007L15.0001 19Z" fill="currentColor"/>
<path d="M9.0001 19C9.25498 19.0003 9.50014 19.0979 9.68547 19.2728C9.87081 19.4478 9.98234 19.687 9.99728 19.9414C10.0122 20.1958 9.92943 20.4464 9.76584 20.6418C9.60225 20.8373 9.3702 20.9629 9.1171 20.993L8.9901 21C8.73522 20.9997 8.49007 20.9021 8.30473 20.7272C8.1194 20.5522 8.00787 20.313 7.99293 20.0586C7.97799 19.8042 8.06078 19.5536 8.22437 19.3582C8.38796 19.1627 8.62001 19.0371 8.8731 19.007L9.0001 19Z" fill="currentColor"/>
<path d="M4.0001 19C4.25498 19.0003 4.50014 19.0979 4.68547 19.2728C4.87081 19.4478 4.98234 19.687 4.99727 19.9414C5.01221 20.1958 4.92943 20.4464 4.76584 20.6418C4.60225 20.8373 4.3702 20.9629 4.1171 20.993L3.9901 21C3.73522 20.9997 3.49007 20.9021 3.30473 20.7272C3.1194 20.5522 3.00787 20.313 2.99293 20.0586C2.97799 19.8042 3.06078 19.5536 3.22437 19.3582C3.38796 19.1627 3.62001 19.0371 3.8731 19.007L4.0001 19Z" fill="currentColor"/>
</svg>
