<svg width="24" height="24" viewBox="0 0 24 24" fill="none" xmlns="http://www.w3.org/2000/svg">
<path d="M18.998 3.00305H13.998C13.7328 3.00305 13.4785 3.10841 13.2909 3.29594C13.1034 3.48348 12.998 3.73784 12.998 4.00305V20.0031C12.998 20.2683 13.1034 20.5226 13.2909 20.7102C13.4785 20.8977 13.7328 21.0031 13.998 21.0031H18.998C19.5285 21.0031 20.0372 20.7923 20.4123 20.4173C20.7873 20.0422 20.998 19.5335 20.998 19.0031V5.00305C20.998 4.47262 20.7873 3.96391 20.4123 3.58884C20.0372 3.21377 19.5285 3.00305 18.998 3.00305Z" fill="currentColor"/>
<path d="M9.00792 19.0031C9.2628 19.0033 9.50795 19.1009 9.69328 19.2759C9.87862 19.4509 9.99015 19.69 10.0051 19.9444C10.02 20.1989 9.93724 20.4494 9.77365 20.6449C9.61006 20.8403 9.37801 20.9659 9.12492 20.9961L8.99792 21.0031C8.74304 21.0028 8.49788 20.9052 8.31255 20.7302C8.12721 20.5552 8.01568 20.3161 8.00074 20.0617C7.98581 19.8072 8.06859 19.5567 8.23218 19.3612C8.39577 19.1658 8.62782 19.0402 8.88092 19.0101L9.00792 19.0031Z" fill="currentColor"/>
<path d="M4.00794 19.0031C4.26282 19.0033 4.50797 19.1009 4.69331 19.2759C4.87864 19.4509 4.99017 19.69 5.00511 19.9444C5.02005 20.1989 4.93726 20.4494 4.77367 20.6449C4.61008 20.8403 4.37803 20.9659 4.12494 20.9961L3.99694 21.0031C3.74206 21.0028 3.49691 20.9052 3.31157 20.7302C3.12623 20.5552 3.0147 20.3161 2.99977 20.0617C2.98483 19.8072 3.06761 19.5567 3.2312 19.3612C3.39479 19.1658 3.62684 19.0402 3.87994 19.0101L4.00794 19.0031Z" fill="currentColor"/>
<path d="M4.00794 14.002C4.26282 14.0022 4.50797 14.0998 4.69331 14.2748C4.87864 14.4498 4.99017 14.6889 5.00511 14.9433C5.02005 15.1978 4.93726 15.4483 4.77367 15.6438C4.61008 15.8392 4.37803 15.9648 4.12494 15.995L3.99694 16.002C3.74206 16.0017 3.49691 15.9041 3.31157 15.7291C3.12623 15.5541 3.0147 15.315 2.99977 15.0606C2.98483 14.8061 3.06761 14.5556 3.2312 14.3601C3.39479 14.1647 3.62684 14.0391 3.87994 14.009L4.00794 14.002Z" fill="currentColor"/>
<path d="M4.00794 8.00195C4.26282 8.00224 4.50797 8.09983 4.69331 8.2748C4.87864 8.44977 4.99017 8.68891 5.00511 8.94335C5.02005 9.19779 4.93726 9.44833 4.77367 9.64379C4.61008 9.83924 4.37803 9.96485 4.12494 9.99495L3.99694 10.002C3.74206 10.0017 3.49691 9.90407 3.31157 9.7291C3.12623 9.55414 3.0147 9.315 2.99977 9.06056C2.98483 8.80612 3.06761 8.55557 3.2312 8.36012C3.39479 8.16467 3.62684 8.03906 3.87994 8.00895L4.00794 8.00195Z" fill="currentColor"/>
<path d="M4.00794 3.00195C4.26282 3.00224 4.50797 3.09983 4.69331 3.2748C4.87864 3.44977 4.99017 3.68891 5.00511 3.94335C5.02005 4.19779 4.93726 4.44833 4.77367 4.64379C4.61008 4.83924 4.37803 4.96485 4.12494 4.99495L3.99694 5.00195C3.74206 5.00167 3.49691 4.90407 3.31157 4.7291C3.12623 4.55414 3.0147 4.315 2.99977 4.06056C2.98483 3.80612 3.06761 3.55557 3.2312 3.36012C3.39479 3.16467 3.62684 3.03906 3.87994 3.00895L4.00794 3.00195Z" fill="currentColor"/>
<path d="M9.00792 3.00195C9.2628 3.00224 9.50795 3.09983 9.69328 3.2748C9.87862 3.44977 9.99015 3.68891 10.0051 3.94335C10.02 4.19779 9.93724 4.44833 9.77365 4.64379C9.61006 4.83924 9.37801 4.96485 9.12492 4.99495L8.99792 5.00195C8.74304 5.00167 8.49788 4.90407 8.31255 4.7291C8.12721 4.55414 8.01568 4.315 8.00074 4.06056C7.98581 3.80612 8.06859 3.55557 8.23218 3.36012C8.39577 3.16467 8.62782 3.03906 8.88092 3.00895L9.00792 3.00195Z" fill="currentColor"/>
</svg>
