<svg width="24" height="24" viewBox="0 0 24 24" fill="none" xmlns="http://www.w3.org/2000/svg">
<path d="M12 14H14C14.5304 14 15.0391 13.7893 15.4142 13.4142C15.7893 13.0391 16 12.5304 16 12C16 11.4696 15.7893 10.9609 15.4142 10.5858C15.0391 10.2107 14.5304 10 14 10H12V6H16M17 17V19C17 19.5304 16.7893 20.0391 16.4142 20.4142C16.0391 20.7893 15.5304 21 15 21H5C4.46957 21 3.96086 20.7893 3.58579 20.4142C3.21071 20.0391 3 19.5304 3 19V9C3 8.46957 3.21071 7.96086 3.58579 7.58579C3.96086 7.21071 4.46957 7 5 7H7M7 5C7 4.46957 7.21071 3.96086 7.58579 3.58579C7.96086 3.21071 8.46957 3 9 3H19C19.5304 3 20.0391 3.21071 20.4142 3.58579C20.7893 3.96086 21 4.46957 21 5V15C21 15.5304 20.7893 16.0391 20.4142 16.4142C20.0391 16.7893 19.5304 17 19 17H9C8.46957 17 7.96086 16.7893 7.58579 16.4142C7.21071 16.0391 7 15.5304 7 15V5Z" stroke="currentColor" stroke-width="1.5" stroke-linecap="round" stroke-linejoin="round"/>
</svg>
