<svg width="24" height="24" viewBox="0 0 24 24" fill="none" xmlns="http://www.w3.org/2000/svg">
<path d="M10 12H5C4.46957 12 3.96086 12.2107 3.58579 12.5858C3.21071 12.9609 3 13.4696 3 14V19C3 19.5304 3.21071 20.0391 3.58579 20.4142C3.96086 20.7893 4.46957 21 5 21H10C10.5304 21 11.0391 20.7893 11.4142 20.4142C11.7893 20.0391 12 19.5304 12 19V14C12 13.4696 11.7893 12.9609 11.4142 12.5858C11.0391 12.2107 10.5304 12 10 12Z" fill="currentColor"/>
<path d="M4 8C4.24493 8.00003 4.48134 8.08996 4.66437 8.25272C4.84741 8.41547 4.96434 8.63975 4.993 8.883L5 9.01C4.99972 9.26488 4.90212 9.51003 4.72715 9.69537C4.55218 9.8807 4.31305 9.99223 4.05861 10.0072C3.80416 10.0221 3.55362 9.93933 3.35817 9.77573C3.16271 9.61214 3.0371 9.3801 3.007 9.127L3 9C3 8.73478 3.10536 8.48043 3.29289 8.29289C3.48043 8.10536 3.73478 8 4 8Z" fill="currentColor"/>
<path d="M4 3C4.24493 3.00003 4.48134 3.08996 4.66437 3.25272C4.84741 3.41547 4.96434 3.63975 4.993 3.883L5 4.01C4.99972 4.26488 4.90212 4.51003 4.72715 4.69537C4.55218 4.8807 4.31305 4.99223 4.05861 5.00717C3.80416 5.02211 3.55362 4.93933 3.35817 4.77574C3.16271 4.61215 3.0371 4.3801 3.007 4.127L3 4C3 3.73478 3.10536 3.48043 3.29289 3.29289C3.48043 3.10536 3.73478 3 4 3Z" fill="currentColor"/>
<path d="M9 3C9.24493 3.00003 9.48134 3.08996 9.66437 3.25272C9.84741 3.41547 9.96434 3.63975 9.993 3.883L10 4.01C9.99972 4.26488 9.90212 4.51003 9.72715 4.69537C9.55218 4.8807 9.31305 4.99223 9.05861 5.00717C8.80416 5.02211 8.55362 4.93933 8.35817 4.77574C8.16271 4.61215 8.0371 4.3801 8.007 4.127L8 4C8 3.73478 8.10536 3.48043 8.29289 3.29289C8.48043 3.10536 8.73478 3 9 3Z" fill="currentColor"/>
<path d="M15 3C15.2449 3.00003 15.4813 3.08996 15.6644 3.25272C15.8474 3.41547 15.9643 3.63975 15.993 3.883L16 4.01C15.9997 4.26488 15.9021 4.51003 15.7272 4.69537C15.5522 4.8807 15.313 4.99223 15.0586 5.00717C14.8042 5.02211 14.5536 4.93933 14.3582 4.77574C14.1627 4.61215 14.0371 4.3801 14.007 4.127L14 4C14 3.73478 14.1054 3.48043 14.2929 3.29289C14.4804 3.10536 14.7348 3 15 3Z" fill="currentColor"/>
<path d="M15 19C15.2449 19 15.4813 19.09 15.6644 19.2527C15.8474 19.4155 15.9643 19.6397 15.993 19.883L16 20.01C15.9997 20.2649 15.9021 20.51 15.7272 20.6954C15.5522 20.8807 15.313 20.9922 15.0586 21.0072C14.8042 21.0221 14.5536 20.9393 14.3582 20.7757C14.1627 20.6121 14.0371 20.3801 14.007 20.127L14 20C14 19.7348 14.1054 19.4804 14.2929 19.2929C14.4804 19.1054 14.7348 19 15 19Z" fill="currentColor"/>
<path d="M20 3C20.2449 3.00003 20.4813 3.08996 20.6644 3.25272C20.8474 3.41547 20.9643 3.63975 20.993 3.883L21 4.01C20.9997 4.26488 20.9021 4.51003 20.7272 4.69537C20.5522 4.8807 20.313 4.99223 20.0586 5.00717C19.8042 5.02211 19.5536 4.93933 19.3582 4.77574C19.1627 4.61215 19.0371 4.3801 19.007 4.127L19 4C19 3.73478 19.1054 3.48043 19.2929 3.29289C19.4804 3.10536 19.7348 3 20 3Z" fill="currentColor"/>
<path d="M20 8C20.2449 8.00003 20.4813 8.08996 20.6644 8.25272C20.8474 8.41547 20.9643 8.63975 20.993 8.883L21 9.01C20.9997 9.26488 20.9021 9.51003 20.7272 9.69537C20.5522 9.8807 20.313 9.99223 20.0586 10.0072C19.8042 10.0221 19.5536 9.93933 19.3582 9.77573C19.1627 9.61214 19.0371 9.3801 19.007 9.127L19 9C19 8.73478 19.1054 8.48043 19.2929 8.29289C19.4804 8.10536 19.7348 8 20 8Z" fill="currentColor"/>
<path d="M20 14C20.2449 14 20.4813 14.09 20.6644 14.2527C20.8474 14.4155 20.9643 14.6397 20.993 14.883L21 15.01C20.9997 15.2649 20.9021 15.51 20.7272 15.6954C20.5522 15.8807 20.313 15.9922 20.0586 16.0072C19.8042 16.0221 19.5536 15.9393 19.3582 15.7757C19.1627 15.6121 19.0371 15.3801 19.007 15.127L19 15C19 14.7348 19.1054 14.4804 19.2929 14.2929C19.4804 14.1054 19.7348 14 20 14Z" fill="currentColor"/>
<path d="M20 19C20.2449 19 20.4813 19.09 20.6644 19.2527C20.8474 19.4155 20.9643 19.6397 20.993 19.883L21 20.01C20.9997 20.2649 20.9021 20.51 20.7272 20.6954C20.5522 20.8807 20.313 20.9922 20.0586 21.0072C19.8042 21.0221 19.5536 20.9393 19.3582 20.7757C19.1627 20.6121 19.0371 20.3801 19.007 20.127L19 20C19 19.7348 19.1054 19.4804 19.2929 19.2929C19.4804 19.1054 19.7348 19 20 19Z" fill="currentColor"/>
</svg>
