<svg width="24" height="24" viewBox="0 0 24 24" fill="none" xmlns="http://www.w3.org/2000/svg">
<path d="M20 9V9.01M20 4V4.01M15 4V4.01M9 4V4.01M9 20V20.01M4 4V4.01M4 9V9.01M4 15V15.01M4 20V20.01M19 13H14C13.7348 13 13.4804 13.1054 13.2929 13.2929C13.1054 13.4804 13 13.7348 13 14V19C13 19.2652 13.1054 19.5196 13.2929 19.7071C13.4804 19.8946 13.7348 20 14 20H19C19.2652 20 19.5196 19.8946 19.7071 19.7071C19.8946 19.5196 20 19.2652 20 19V14C20 13.7348 19.8946 13.4804 19.7071 13.2929C19.5196 13.1054 19.2652 13 19 13Z" stroke="currentColor" stroke-width="1.5" stroke-linecap="round" stroke-linejoin="round"/>
</svg>
