<svg width="24" height="24" viewBox="0 0 24 24" fill="none" xmlns="http://www.w3.org/2000/svg">
<path d="M15.0002 4H14.9902M20.0002 4H19.9902M20.0002 9H19.9902M20.0002 15H19.9902M4.00023 15H3.99023M20.0002 20H19.9902M15.0002 20H14.9902M9.00023 20H8.99023M4.00023 20H3.99023M11 5V10C11 10.2652 10.8946 10.5196 10.7071 10.7071C10.5196 10.8946 10.2652 11 10 11H5C4.73478 11 4.48043 10.8946 4.29289 10.7071C4.10536 10.5196 4 10.2652 4 10V5C4 4.73478 4.10536 4.48043 4.29289 4.29289C4.48043 4.10536 4.73478 4 5 4H10C10.2652 4 10.5196 4.10536 10.7071 4.29289C10.8946 4.48043 11 4.73478 11 5Z" stroke="currentColor" stroke-width="1.5" stroke-linecap="round" stroke-linejoin="round"/>
</svg>
