<svg width="24" height="24" viewBox="0 0 24 24" fill="none" xmlns="http://www.w3.org/2000/svg">
<path d="M19 3.005H5C4.46957 3.005 3.96086 3.21572 3.58579 3.59079C3.21071 3.96586 3 4.47457 3 5.005V10.005C3 10.2702 3.10536 10.5246 3.29289 10.7121C3.48043 10.8996 3.73478 11.005 4 11.005H20C20.2652 11.005 20.5196 10.8996 20.7071 10.7121C20.8946 10.5246 21 10.2702 21 10.005V5.005C21 4.47457 20.7893 3.96586 20.4142 3.59079C20.0391 3.21572 19.5304 3.005 19 3.005Z" fill="currentColor"/>
<path d="M4 13.995C4.24493 13.995 4.48134 14.085 4.66437 14.2477C4.84741 14.4105 4.96434 14.6347 4.993 14.878L5 15.005C4.99972 15.2599 4.90212 15.505 4.72715 15.6904C4.55218 15.8757 4.31305 15.9872 4.05861 16.0022C3.80416 16.0171 3.55362 15.9343 3.35817 15.7707C3.16271 15.6071 3.0371 15.3751 3.007 15.122L3 14.995C3 14.7298 3.10536 14.4754 3.29289 14.2879C3.48043 14.1004 3.73478 13.995 4 13.995Z" fill="currentColor"/>
<path d="M4 18.995C4.24493 18.995 4.48134 19.0849 4.66437 19.2477C4.84741 19.4105 4.96434 19.6347 4.993 19.878L5 20.005C4.99972 20.2599 4.90212 20.505 4.72715 20.6904C4.55218 20.8757 4.31305 20.9872 4.05861 21.0022C3.80416 21.0171 3.55362 20.9343 3.35817 20.7707C3.16271 20.6071 3.0371 20.3751 3.007 20.122L3 19.995C3 19.7298 3.10536 19.4754 3.29289 19.2879C3.48043 19.1004 3.73478 18.995 4 18.995Z" fill="currentColor"/>
<path d="M9 18.995C9.24493 18.995 9.48134 19.0849 9.66437 19.2477C9.84741 19.4105 9.96434 19.6347 9.993 19.878L10 20.005C9.99972 20.2599 9.90212 20.505 9.72715 20.6904C9.55218 20.8757 9.31305 20.9872 9.05861 21.0022C8.80416 21.0171 8.55362 20.9343 8.35817 20.7707C8.16271 20.6071 8.0371 20.3751 8.007 20.122L8 19.995C8 19.7298 8.10536 19.4754 8.29289 19.2879C8.48043 19.1004 8.73478 18.995 9 18.995Z" fill="currentColor"/>
<path d="M15 18.995C15.2449 18.995 15.4813 19.0849 15.6644 19.2477C15.8474 19.4105 15.9643 19.6347 15.993 19.878L16 20.005C15.9997 20.2599 15.9021 20.505 15.7272 20.6904C15.5522 20.8757 15.313 20.9872 15.0586 21.0022C14.8042 21.0171 14.5536 20.9343 14.3582 20.7707C14.1627 20.6071 14.0371 20.3751 14.007 20.122L14 19.995C14 19.7298 14.1054 19.4754 14.2929 19.2879C14.4804 19.1004 14.7348 18.995 15 18.995Z" fill="currentColor"/>
<path d="M20 18.995C20.2449 18.995 20.4813 19.0849 20.6644 19.2477C20.8474 19.4105 20.9643 19.6347 20.993 19.878L21 20.005C20.9997 20.2599 20.9021 20.505 20.7272 20.6904C20.5522 20.8757 20.313 20.9872 20.0586 21.0022C19.8042 21.0171 19.5536 20.9343 19.3582 20.7707C19.1627 20.6071 19.0371 20.3751 19.007 20.122L19 19.995C19 19.7298 19.1054 19.4754 19.2929 19.2879C19.4804 19.1004 19.7348 18.995 20 18.995Z" fill="currentColor"/>
<path d="M20 13.995C20.2449 13.995 20.4813 14.085 20.6644 14.2477C20.8474 14.4105 20.9643 14.6347 20.993 14.878L21 15.005C20.9997 15.2599 20.9021 15.505 20.7272 15.6904C20.5522 15.8757 20.313 15.9872 20.0586 16.0022C19.8042 16.0171 19.5536 15.9343 19.3582 15.7707C19.1627 15.6071 19.0371 15.3751 19.007 15.122L19 14.995C19 14.7298 19.1054 14.4754 19.2929 14.2879C19.4804 14.1004 19.7348 13.995 20 13.995Z" fill="currentColor"/>
</svg>
