<svg width="24" height="24" viewBox="0 0 24 24" fill="none" xmlns="http://www.w3.org/2000/svg">
<path d="M4 9V9.01M4 4V4.01M9 4V4.01M15 4V4.01M15 20V20.01M20 4V4.01M20 9V9.01M20 15V15.01M20 20V20.01M5 13H10C10.2652 13 10.5196 13.1054 10.7071 13.2929C10.8946 13.4804 11 13.7348 11 14V19C11 19.2652 10.8946 19.5196 10.7071 19.7071C10.5196 19.8946 10.2652 20 10 20H5C4.73478 20 4.48043 19.8946 4.29289 19.7071C4.10536 19.5196 4 19.2652 4 19V14C4 13.7348 4.10536 13.4804 4.29289 13.2929C4.48043 13.1054 4.73478 13 5 13Z" stroke="currentColor" stroke-width="1.5" stroke-linecap="round" stroke-linejoin="round"/>
</svg>
