<svg width="24" height="24" viewBox="0 0 24 24" fill="none" xmlns="http://www.w3.org/2000/svg">
<path d="M10.002 3.00305H5.00195C4.47152 3.00305 3.96281 3.21377 3.58774 3.58884C3.21267 3.96391 3.00195 4.47262 3.00195 5.00305V19.0031C3.00195 19.5335 3.21267 20.0422 3.58774 20.4173C3.96281 20.7923 4.47152 21.0031 5.00195 21.0031H10.002C10.2672 21.0031 10.5215 20.8977 10.7091 20.7102C10.8966 20.5226 11.002 20.2683 11.002 20.0031V4.00305C11.002 3.73784 10.8966 3.48348 10.7091 3.29594C10.5215 3.10841 10.2672 3.00305 10.002 3.00305Z" fill="currentColor"/>
<path d="M15.0021 19.0031C15.2569 19.0033 15.5021 19.1009 15.6874 19.2759C15.8728 19.4509 15.9843 19.69 15.9992 19.9444C16.0142 20.1989 15.9314 20.4494 15.7678 20.6449C15.6042 20.8403 15.3722 20.9659 15.1191 20.9961L14.9921 21.0031C14.7372 21.0028 14.492 20.9052 14.3067 20.7302C14.1214 20.5552 14.0098 20.3161 13.9949 20.0617C13.9799 19.8072 14.0627 19.5567 14.2263 19.3612C14.3899 19.1658 14.622 19.0402 14.8751 19.0101L15.0021 19.0031Z" fill="currentColor"/>
<path d="M20.0031 19.0031C20.2579 19.0033 20.5031 19.1009 20.6884 19.2759C20.8738 19.4509 20.9853 19.69 21.0002 19.9444C21.0152 20.1989 20.9324 20.4494 20.7688 20.6449C20.6052 20.8403 20.3732 20.9659 20.1201 20.9961L19.9921 21.0031C19.7372 21.0028 19.492 20.9052 19.3067 20.7302C19.1214 20.5552 19.0098 20.3161 18.9949 20.0617C18.9799 19.8072 19.0627 19.5567 19.2263 19.3612C19.3899 19.1658 19.622 19.0402 19.8751 19.0101L20.0031 19.0031Z" fill="currentColor"/>
<path d="M20.0031 14.002C20.2579 14.0022 20.5031 14.0998 20.6884 14.2748C20.8738 14.4498 20.9853 14.6889 21.0002 14.9433C21.0152 15.1978 20.9324 15.4483 20.7688 15.6438C20.6052 15.8392 20.3732 15.9648 20.1201 15.995L19.9921 16.002C19.7372 16.0017 19.492 15.9041 19.3067 15.7291C19.1214 15.5541 19.0098 15.315 18.9949 15.0606C18.9799 14.8061 19.0627 14.5556 19.2263 14.3601C19.3899 14.1647 19.622 14.0391 19.8751 14.009L20.0031 14.002Z" fill="currentColor"/>
<path d="M20.0031 8.00195C20.2579 8.00224 20.5031 8.09983 20.6884 8.2748C20.8738 8.44977 20.9853 8.68891 21.0002 8.94335C21.0152 9.19779 20.9324 9.44833 20.7688 9.64379C20.6052 9.83924 20.3732 9.96485 20.1201 9.99495L19.9921 10.002C19.7372 10.0017 19.492 9.90407 19.3067 9.7291C19.1214 9.55414 19.0098 9.315 18.9949 9.06056C18.9799 8.80612 19.0627 8.55557 19.2263 8.36012C19.3899 8.16467 19.622 8.03906 19.8751 8.00895L20.0031 8.00195Z" fill="currentColor"/>
<path d="M20.0031 3.00195C20.2579 3.00224 20.5031 3.09983 20.6884 3.2748C20.8738 3.44977 20.9853 3.68891 21.0002 3.94335C21.0152 4.19779 20.9324 4.44833 20.7688 4.64379C20.6052 4.83924 20.3732 4.96485 20.1201 4.99495L19.9921 5.00195C19.7372 5.00167 19.492 4.90407 19.3067 4.7291C19.1214 4.55414 19.0098 4.315 18.9949 4.06056C18.9799 3.80612 19.0627 3.55557 19.2263 3.36012C19.3899 3.16467 19.622 3.03906 19.8751 3.00895L20.0031 3.00195Z" fill="currentColor"/>
<path d="M15.0021 3.00195C15.2569 3.00224 15.5021 3.09983 15.6874 3.2748C15.8728 3.44977 15.9843 3.68891 15.9992 3.94335C16.0142 4.19779 15.9314 4.44833 15.7678 4.64379C15.6042 4.83924 15.3722 4.96485 15.1191 4.99495L14.9921 5.00195C14.7372 5.00167 14.492 4.90407 14.3067 4.7291C14.1214 4.55414 14.0098 4.315 13.9949 4.06056C13.9799 3.80612 14.0627 3.55557 14.2263 3.36012C14.3899 3.16467 14.622 3.03906 14.8751 3.00895L15.0021 3.00195Z" fill="currentColor"/>
</svg>
