<svg width="24" height="24" viewBox="0 0 24 24" fill="none" xmlns="http://www.w3.org/2000/svg">
<path d="M5.176 5.177C5.063 5.428 5 5.707 5 6V9C5 10.657 4.105 12 3 12C4.105 12 5 13.343 5 15V18C5 18.5304 5.21071 19.0391 5.58579 19.4142C5.96086 19.7893 6.46957 20 7 20M17 4C17.5304 4 18.0391 4.21071 18.4142 4.58579C18.7893 4.96086 19 5.46957 19 6V9C19 10.657 19.895 12 21 12C19.895 12 19 13.343 19 15M18.824 18.821C18.6658 19.1723 18.4096 19.4705 18.086 19.6797C17.7624 19.8888 17.3853 20.0001 17 20M3 3L21 21" stroke="currentColor" stroke-width="1.5" stroke-linecap="round" stroke-linejoin="round"/>
</svg>
