<svg width="24" height="24" viewBox="0 0 24 24" fill="none" xmlns="http://www.w3.org/2000/svg">
<path d="M6 10H10M8 10V14M8.104 17C8.574 19.274 10.587 21 13 21C14.3261 21 15.5979 20.4732 16.5355 19.5355C17.4732 18.5979 18 17.3261 18 16V9M18 9H13M18 9H22V14C22 15.0609 21.5786 16.0783 20.8284 16.8284C20.0783 17.5786 19.0609 18 18 18M13.0029 8.82999C13.6444 9.05594 14.3437 9.05719 14.986 8.83354C15.6283 8.60988 16.1756 8.17459 16.5381 7.59906C16.9005 7.02353 17.0566 6.34192 16.9808 5.666C16.905 4.99009 16.6018 4.35999 16.1208 3.87905C15.6399 3.39811 15.0098 3.09487 14.3339 3.01906C13.658 2.94326 12.9764 3.09938 12.4008 3.46183C11.8253 3.82428 11.39 4.37155 11.1663 5.01387C10.9427 5.6562 10.9439 6.35547 11.1699 6.99699M15.8301 8.36004C16.1668 8.66234 16.5794 8.86756 17.0236 8.95381C17.4679 9.04006 17.9272 9.00411 18.3526 8.84978C18.778 8.69546 19.1536 8.42855 19.4392 8.07753C19.7248 7.72651 19.9098 7.30455 19.9745 6.85664C20.0391 6.40873 19.9809 5.95168 19.8062 5.53424C19.6314 5.11679 19.3466 4.75461 18.9822 4.48633C18.6177 4.21804 18.1873 4.05371 17.7368 4.01086C17.2863 3.96802 16.8326 4.04826 16.4241 4.24304M3 7H13V17H3V7Z" stroke="currentColor" stroke-width="1.5" stroke-linecap="round" stroke-linejoin="round"/>
</svg>
