<svg width="24" height="24" viewBox="0 0 24 24" fill="none" xmlns="http://www.w3.org/2000/svg">
<path d="M17 18.5C14.7025 19.5889 12.1684 20.084 9.63 19.94C7.20814 19.5324 4.92799 18.5213 3 17M19.5 21C20.407 19.589 20.951 17.677 21 16C19.803 15.227 18.423 15.065 17 15M3 11V6.5C3 6.10218 3.15804 5.72064 3.43934 5.43934C3.72064 5.15804 4.10218 5 4.5 5C4.89782 5 5.27936 5.15804 5.56066 5.43934C5.84196 5.72064 6 6.10218 6 6.5V11M3 9H6M9 5L10.2 11L12 7L13.8 11L15 5M18 10.25C18 10.664 18.336 11 18.75 11H20C20.2652 11 20.5196 10.8946 20.7071 10.7071C20.8946 10.5196 21 10.2652 21 10V9C21 8.73478 20.8946 8.48043 20.7071 8.29289C20.5196 8.10536 20.2652 8 20 8H19C18.7348 8 18.4804 7.89464 18.2929 7.70711C18.1054 7.51957 18 7.26522 18 7V6C18 5.73478 18.1054 5.48043 18.2929 5.29289C18.4804 5.10536 18.7348 5 19 5H20.25C20.4489 5 20.6397 5.07902 20.7803 5.21967C20.921 5.36032 21 5.55109 21 5.75" stroke="currentColor" stroke-width="1.5" stroke-linecap="round" stroke-linejoin="round"/>
</svg>
