<svg width="24" height="24" viewBox="0 0 24 24" fill="none" xmlns="http://www.w3.org/2000/svg">
<path d="M10.9999 9L13.9749 4.35C14.5899 3.45 15.3799 3 16.3519 3C17.1419 3 17.8259 3.286 18.4059 3.858C18.9819 4.432 19.2719 5.114 19.2719 5.912C19.2719 6.5 19.1189 7.021 18.8119 7.471L15.9999 11.5L19.4649 16.412C19.8209 16.872 19.9999 17.412 19.9999 18.025C20.0059 18.4132 19.9344 18.7987 19.7897 19.1589C19.6449 19.5191 19.4298 19.8469 19.1569 20.123C18.5959 20.707 17.9149 21 17.1169 21C16.2409 21 15.5719 20.71 15.1169 20.13L11.0049 14.433V17.5C11.0049 18.376 10.6919 19.19 10.3939 19.675C9.85088 20.558 9.04388 21 8.00488 21C7.06088 21 6.25188 20.673 5.73388 20.026C5.24788 19.426 5.00488 18.634 5.00488 17.646V6.275C5.00488 5.341 5.25188 4.569 5.74488 3.962C6.25688 3.321 7.09188 3 8.00488 3C8.87288 3 9.82588 3.321 10.4049 3.962C10.7279 4.318 10.9199 4.676 11.0049 5.042C11.0569 5.266 11.0049 5.685 11.0049 6.302V9H10.9999Z" stroke="currentColor" stroke-width="1.5" stroke-linecap="round" stroke-linejoin="round"/>
</svg>
