<svg width="24" height="24" viewBox="0 0 24 24" fill="none" xmlns="http://www.w3.org/2000/svg">
<path d="M2 5C2.968 5.555 3.335 6.104 4 7M2 10C7.007 13.674 4.85 16.544 2 20M10 4C9.86302 8.137 7.74202 9.286 6.29102 10.684M10 5.99995C12.194 5.19995 13.736 5.14795 16.056 5.00695C20.262 4.84895 21.579 7.27095 21.859 10.16C22.287 14.556 21.782 17.346 19.742 19.458C18.554 20.688 16.504 22.078 12.535 19.717M11 10H17M13 10V16.493M8 13H18M16 15.512L16.853 17.232M16.5 17C15.355 17.361 9.5 20 8 16.5M11.765 8.53894L10 10.9999" stroke="currentColor" stroke-width="1.5" stroke-linecap="round" stroke-linejoin="round"/>
</svg>
