<svg width="24" height="24" viewBox="0 0 24 24" fill="none" xmlns="http://www.w3.org/2000/svg">
<path d="M15.5 11C15.086 9.523 13.614 8.5 12 8.5C11.5393 8.496 11.0823 8.5838 10.6559 8.75827C10.2294 8.93275 9.84201 9.1904 9.51621 9.51621C9.1904 9.84201 8.93275 10.2294 8.75827 10.6559C8.5838 11.0823 8.496 11.5393 8.5 12C8.496 12.4607 8.5838 12.9177 8.75827 13.3441C8.93275 13.7706 9.1904 14.158 9.51621 14.4838C9.84201 14.8096 10.2294 15.0673 10.6559 15.2417C11.0823 15.4162 11.5393 15.504 12 15.5C12.974 15.5 13.861 15.143 14.5 14.5L19 19V4H12C7.614 4 4 7.582 4 12C4 16.418 7.614 20 12 20C13.0307 20.0014 14.0508 19.7924 14.998 19.386" stroke="currentColor" stroke-width="1.5" stroke-linecap="round" stroke-linejoin="round"/>
</svg>
