<svg width="24" height="24" viewBox="0 0 24 24" fill="none" xmlns="http://www.w3.org/2000/svg">
<path d="M4 9.5C4 9.89782 4.10536 10.2794 4.29289 10.5607C4.48043 10.842 4.73478 11 5 11C5.26522 11 5.51957 10.842 5.70711 10.5607C5.89464 10.2794 6 9.89782 6 9.5C6 9.10218 5.89464 8.72064 5.70711 8.43934C5.51957 8.15804 5.26522 8 5 8C4.73478 8 4.48043 8.15804 4.29289 8.43934C4.10536 8.72064 4 9.10218 4 9.5Z" stroke="currentColor" stroke-width="1.5" stroke-linecap="round" stroke-linejoin="round"/>
<path d="M14.4631 11.596C15.7451 13.37 17.9391 15.012 17.9391 15.012C17.9391 15.012 19.8601 16.586 18.5321 18.648C17.2041 20.711 13.6401 19.8 13.6401 19.8C13.6401 19.8 12.2241 19.36 10.5801 19.712C8.93605 20.068 7.52005 19.932 7.52005 19.932C7.52005 19.932 5.46505 19.712 5.05005 17.628C4.63405 15.544 6.96805 13.99 7.15205 13.77C7.33405 13.548 8.56105 12.804 9.43605 11.376C10.3111 9.94799 12.7731 9.08899 14.4631 11.597V11.596Z" stroke="currentColor" stroke-width="1.5" stroke-linecap="round" stroke-linejoin="round"/>
<path d="M8 4.5C8 4.89782 8.10536 5.27936 8.29289 5.56066C8.48043 5.84196 8.73478 6 9 6C9.26522 6 9.51957 5.84196 9.70711 5.56066C9.89464 5.27936 10 4.89782 10 4.5C10 4.10218 9.89464 3.72064 9.70711 3.43934C9.51957 3.15804 9.26522 3 9 3C8.73478 3 8.48043 3.15804 8.29289 3.43934C8.10536 3.72064 8 4.10218 8 4.5Z" stroke="currentColor" stroke-width="1.5" stroke-linecap="round" stroke-linejoin="round"/>
<path d="M14 4.5C14 4.89782 14.1054 5.27936 14.2929 5.56066C14.4804 5.84196 14.7348 6 15 6C15.2652 6 15.5196 5.84196 15.7071 5.56066C15.8946 5.27936 16 4.89782 16 4.5C16 4.10218 15.8946 3.72064 15.7071 3.43934C15.5196 3.15804 15.2652 3 15 3C14.7348 3 14.4804 3.15804 14.2929 3.43934C14.1054 3.72064 14 4.10218 14 4.5Z" stroke="currentColor" stroke-width="1.5" stroke-linecap="round" stroke-linejoin="round"/>
<path d="M18 9.5C18 9.89782 18.1054 10.2794 18.2929 10.5607C18.4804 10.842 18.7348 11 19 11C19.2652 11 19.5196 10.842 19.7071 10.5607C19.8946 10.2794 20 9.89782 20 9.5C20 9.10218 19.8946 8.72064 19.7071 8.43934C19.5196 8.15804 19.2652 8 19 8C18.7348 8 18.4804 8.15804 18.2929 8.43934C18.1054 8.72064 18 9.10218 18 9.5Z" stroke="currentColor" stroke-width="1.5" stroke-linecap="round" stroke-linejoin="round"/>
</svg>
