<svg width="24" height="24" viewBox="0 0 24 24" fill="none" xmlns="http://www.w3.org/2000/svg">
<path d="M11 5V18.982C11 19.5124 11.2107 20.0211 11.5858 20.3962C11.9609 20.7713 12.4696 20.982 13 20.982C13.5304 20.982 14.0391 20.7713 14.4142 20.3962C14.7893 20.0211 15 19.5124 15 18.982V5C15 4.46957 14.7893 3.96086 14.4142 3.58579C14.0391 3.21071 13.5304 3 13 3C12.4696 3 11.9609 3.21071 11.5858 3.58579C11.2107 3.96086 11 4.46957 11 5Z" stroke="currentColor" stroke-width="1.5" stroke-linecap="round" stroke-linejoin="round"/>
<path d="M6.63009 8.40703C6.23987 8.79317 6.01422 9.31534 6.00043 9.86414C5.98663 10.4129 6.18576 10.9458 6.55609 11.351C7.32609 12.185 8.60709 12.22 9.41809 11.428L14.3681 6.59403C15.1801 5.80203 15.2141 4.48404 14.4441 3.64904C14.2642 3.45132 14.0462 3.292 13.8032 3.18063C13.5602 3.06927 13.2972 3.00815 13.03 3.00096C12.7628 2.99377 12.4969 3.04065 12.2482 3.13878C11.9996 3.23692 11.7734 3.38428 11.5831 3.57204L6.63009 8.40703Z" stroke="currentColor" stroke-width="1.5" stroke-linecap="round" stroke-linejoin="round"/>
</svg>
