<svg width="24" height="24" viewBox="0 0 24 24" fill="none" xmlns="http://www.w3.org/2000/svg">
<path d="M14 5.5C14 6.16304 14.2634 6.79893 14.7322 7.26777C15.2011 7.73661 15.837 8 16.5 8C17.163 8 17.7989 7.73661 18.2678 7.26777C18.7366 6.79893 19 6.16304 19 5.5C19 4.83696 18.7366 4.20107 18.2678 3.73223C17.7989 3.26339 17.163 3 16.5 3C15.837 3 15.2011 3.26339 14.7322 3.73223C14.2634 4.20107 14 4.83696 14 5.5Z" stroke="currentColor" stroke-width="1.5" stroke-linecap="round" stroke-linejoin="round"/>
<path d="M6 3H11V8H6V3Z" stroke="currentColor" stroke-width="1.5" stroke-linecap="round" stroke-linejoin="round"/>
<path d="M11 11V21C9.69384 20.9983 8.44019 20.4856 7.50721 19.5714C6.57423 18.6573 6.036 17.4144 6.00765 16.1085C5.9793 14.8027 6.46308 13.5376 7.3555 12.5838C8.24793 11.63 9.47815 11.0634 10.783 11.005L11 11Z" stroke="currentColor" stroke-width="1.5" stroke-linecap="round" stroke-linejoin="round"/>
</svg>
