<svg width="24" height="24" viewBox="0 0 24 24" fill="none" xmlns="http://www.w3.org/2000/svg">
<path d="M8 11.5031C7.65909 11.7587 7.38919 12.0973 7.21594 12.4867C7.04269 12.876 6.97183 13.3031 7.0101 13.7276C7.04837 14.152 7.1945 14.5596 7.4346 14.9116C7.6747 15.2637 8.00081 15.5485 8.38197 15.7391C8.76312 15.9297 9.18666 16.0197 9.61237 16.0005C10.0381 15.9814 10.4518 15.8537 10.8143 15.6297C11.1768 15.4056 11.476 15.0927 11.6836 14.7205C11.8911 14.3483 12 13.9292 12 13.5031V10.5031C12 10.0769 12.1089 9.65784 12.3164 9.28564C12.524 8.91344 12.8232 8.60046 13.1857 8.37643C13.5482 8.15239 13.9619 8.02473 14.3876 8.00558C14.8133 7.98642 15.2369 8.07641 15.618 8.26698C15.9992 8.45756 16.3253 8.7424 16.5654 9.09447C16.8055 9.44653 16.9516 9.85412 16.9899 10.2785C17.0282 10.703 16.9573 11.1301 16.7841 11.5194C16.6108 11.9088 16.3409 12.2474 16 12.5031M21 12C21 13.1819 20.7672 14.3522 20.3149 15.4442C19.8626 16.5361 19.1997 17.5282 18.364 18.364C17.5282 19.1997 16.5361 19.8626 15.4442 20.3149C14.3522 20.7672 13.1819 21 12 21C10.8181 21 9.64778 20.7672 8.55585 20.3149C7.46392 19.8626 6.47177 19.1997 5.63604 18.364C4.80031 17.5282 4.13738 16.5361 3.68508 15.4442C3.23279 14.3522 3 13.1819 3 12C3 9.61305 3.94821 7.32387 5.63604 5.63604C7.32387 3.94821 9.61305 3 12 3C14.3869 3 16.6761 3.94821 18.364 5.63604C20.0518 7.32387 21 9.61305 21 12Z" stroke="currentColor" stroke-width="1.5" stroke-linecap="round" stroke-linejoin="round"/>
</svg>
