<svg width="24" height="24" viewBox="0 0 24 24" fill="none" xmlns="http://www.w3.org/2000/svg">
<path d="M12 21C10.1435 21 8.36301 20.2625 7.05025 18.9497C5.7375 17.637 5 15.8565 5 14C5 8 12 6.308 12 2C12 6.303 19 8 19 14C19 15.8565 18.2625 17.637 16.9497 18.9497C15.637 20.2625 13.8565 21 12 21ZM12 21C9.79 21 8 19.17 8 17C8 15.32 8.988 14.31 9.988 13.353C10.6732 12.6933 11.344 12.0188 12 11.33L8.5 7.5C11.758 11.001 13.597 12.954 14.017 13.358C15.011 14.315 16 15.324 16 17C16 19.173 14.21 21 12 21Z" stroke="currentColor" stroke-width="1.5" stroke-linecap="round" stroke-linejoin="round"/>
</svg>
