<svg width="24" height="24" viewBox="0 0 24 24" fill="none" xmlns="http://www.w3.org/2000/svg">
<path d="M15.079 5.99904L15.318 6.01104C16.748 6.10804 18.752 7.02404 19.826 8.59704C19.9046 8.71219 19.9583 8.8425 19.9835 8.9796C20.0088 9.11671 20.0051 9.25758 19.9727 9.39318C19.9403 9.52878 19.8799 9.65611 19.7954 9.76699C19.7109 9.87787 19.6042 9.96986 19.482 10.037C19.432 10.065 19.11 10.195 18.985 10.254C18.7304 10.3729 18.4885 10.5173 18.263 10.685C17.649 11.146 17.315 11.694 17.321 12.379C17.331 13.264 17.66 13.833 18.228 14.225C18.436 14.368 18.664 14.478 18.894 14.555C19.02 14.598 19.32 14.671 19.338 14.677C19.532 14.7467 19.6997 14.8746 19.8182 15.0432C19.9367 15.2118 20.0002 15.4129 20 15.619C20 18.24 16.96 22 14.714 22C13.924 22 13.442 21.909 12.731 21.685L12.633 21.654C12.17 21.508 11.931 21.462 11.5 21.462C10.98 21.462 10.637 21.522 9.982 21.699L9.785 21.752C9.21 21.905 8.821 21.978 8.285 22C5.536 22 3 16.907 3 12.928C3 9.05804 4.786 6.00804 8.286 6.00804C8.583 6.00804 8.884 6.05304 9.195 6.13604C9.598 6.24304 9.969 6.39604 10.491 6.64404C11.278 7.01804 11.439 7.08404 11.5 7.08404H11.516C11.546 7.08104 11.644 7.03704 12.572 6.62704C13.633 6.16004 14.436 5.94204 15.318 6.01104L15.078 5.99904H15.079Z" fill="currentColor"/>
<path d="M14 1C14.2652 1 14.5196 1.10536 14.7071 1.29289C14.8946 1.48043 15 1.73478 15 2C15 2.79565 14.6839 3.55871 14.1213 4.12132C13.5587 4.68393 12.7956 5 12 5C11.7348 5 11.4804 4.89464 11.2929 4.70711C11.1054 4.51957 11 4.26522 11 4C11 3.20435 11.3161 2.44129 11.8787 1.87868C12.4413 1.31607 13.2044 1 14 1Z" fill="currentColor"/>
</svg>
