<svg width="24" height="24" viewBox="0 0 24 24" fill="none" xmlns="http://www.w3.org/2000/svg">
<path d="M20.547 15.828C21.877 11.702 19.163 6.30703 14.5 3.00003C14.365 2.90403 16.89 9.70403 15.808 12.124C13.655 10.67 11.052 8.63003 8.00003 6.00003L7.50003 8.00003L4.00003 7.00003C8.36003 11.748 11.213 14.695 12.56 15.841C7.90203 17.93 1.91003 14.863 2.00003 15C3.01603 16.545 8.00003 21 13 21C15 21 16.788 20.498 17.742 19.611C17.747 19.606 18.174 19.165 19.12 19.441C19.624 19.589 20.583 20.108 22 21V19.493C22 18.116 21.485 16.823 20.547 15.828Z" stroke="currentColor" stroke-width="1.5" stroke-linecap="round" stroke-linejoin="round"/>
</svg>
