<svg width="24" height="24" viewBox="0 0 24 24" fill="none" xmlns="http://www.w3.org/2000/svg">
<path d="M4.28103 16.6059C3.2484 14.8872 2.82153 12.8721 3.0686 10.8823C3.31567 8.89249 4.22242 7.04291 5.64403 5.62894C7.06835 4.21204 8.92437 3.31041 10.9186 3.06663C12.9128 2.82286 14.9313 3.25086 16.655 4.28294C15.071 8.97494 14.24 11.2429 12 12.9999C10.416 14.2419 8.16403 15.2399 4.28103 16.6059ZM20.616 9.29994C22.729 16.8899 15.724 22.6609 9.31403 20.5639C11.245 17.4639 12.549 15.9579 14 14.4989C15.705 12.7839 17.591 11.2689 20.616 9.29994Z" stroke="currentColor" stroke-width="1.5" stroke-linecap="round" stroke-linejoin="round"/>
</svg>
