<svg width="24" height="24" viewBox="0 0 24 24" fill="none" xmlns="http://www.w3.org/2000/svg">
<path d="M2.1001 7.06996C4.1731 13.79 7.4731 14.767 12.0001 9.99996M12.0001 9.99996C12.0001 5.99996 13.3571 3.64696 16.0701 2.93996L16.6601 2.82996M12.0001 9.99996C19.0001 13 16.35 18.51 16.35 18.51M12.182 2C14.122 2.022 16.061 2.382 18 3.08L18.364 3.215C19.626 3.70227 20.8427 4.29957 22 5C22 10.618 20.043 15.258 16.13 18.92C14.89 20.159 13.63 21.124 12.35 21.818L12 22C10.6 21.297 9.223 20.271 7.87 18.921C3.958 15.258 2 10.618 2 5C4.545 3.473 7.09 2.529 9.636 2.168L10 2.12C10.6034 2.04712 11.2103 2.00706 11.818 2H12.182Z" stroke="currentColor" stroke-width="1.5" stroke-linecap="round" stroke-linejoin="round"/>
</svg>
