<svg width="24" height="24" viewBox="0 0 24 24" fill="none" xmlns="http://www.w3.org/2000/svg">
<path d="M11 17.5V11H11.5L15.5 17H16V10.5M4.5 5.5L7 8M7 8L20 7M7 8V20.5M19.077 20.071L7.547 20.958C7.37939 20.9707 7.21125 20.9411 7.05814 20.8717C6.90503 20.8023 6.77188 20.6954 6.671 20.561L4.2 17.267C4.07018 17.0939 4 16.8833 4 16.667V5.92596C4.00001 5.67408 4.09507 5.43147 4.26618 5.24664C4.4373 5.06181 4.67187 4.94835 4.923 4.92896L16.312 4.05296C16.7577 4.01883 17.202 4.13501 17.574 4.38296L19.109 5.40596C19.383 5.58854 19.6077 5.83596 19.7631 6.12624C19.9186 6.41652 19.9999 6.74068 20 7.06996V19.074C20 19.3258 19.9049 19.5684 19.7338 19.7533C19.5627 19.9381 19.3281 20.0516 19.077 20.071Z" stroke="currentColor" stroke-width="1.5" stroke-linecap="round" stroke-linejoin="round"/>
</svg>
