<svg width="24" height="24" viewBox="0 0 24 24" fill="none" xmlns="http://www.w3.org/2000/svg">
<path d="M2 17.5C6.667 20.5 10 22 12 22C14.5 22 16 20.5 16 18.5C16 16.5 14.5 15 12 15C10 15 6.667 15.833 2 17.5ZM2 17.5L5 13.5C9.667 11.833 13 11 15 11C17.5 11 19 12.5 19 14.5C19 15.238 18.796 15.908 18.412 16.46L15.529 20.285M19 10.5L22.0001 6.5C18.0001 3.5 14.0001 2 12.0001 2C9.96005 2 9.38205 2.463 8.58105 3.545L5.62793 7.25604M19 10.5C18.4035 10.0622 17.8028 9.63018 17.198 9.204C14.087 7.068 10.688 6 9 6C6.5 6 5 7 5 9.5C5 11.183 5.906 12.186 7.416 12.662M19 10.5L16.698 11.285" stroke="currentColor" stroke-width="1.5" stroke-linecap="round" stroke-linejoin="round"/>
</svg>
