<svg width="24" height="24" viewBox="0 0 24 24" fill="none" xmlns="http://www.w3.org/2000/svg">
<path d="M15.5879 15.537L12.0349 12L4.2929 20.18C3.5019 21.03 4.4459 22.36 5.5309 21.91L15.1469 17.814C15.3577 17.7244 15.5433 17.5844 15.6873 17.4063C15.8313 17.2282 15.9293 17.0175 15.9728 16.7926C16.0162 16.5677 16.0038 16.3356 15.9365 16.1166C15.8692 15.8977 15.7492 15.6987 15.5869 15.537H15.5879Z" stroke="currentColor" stroke-width="1.5" stroke-linecap="round" stroke-linejoin="round"/>
<path d="M8.41198 8.46406L11.965 12.0001L19.707 3.82006C20.498 2.97006 19.554 1.64006 18.469 2.09006L8.85298 6.18806C8.64218 6.27763 8.45662 6.41763 8.31261 6.59573C8.1686 6.77384 8.07056 6.9846 8.0271 7.20948C7.98365 7.43436 7.99611 7.66648 8.0634 7.88541C8.13068 8.10435 8.25073 8.3034 8.41298 8.46506L8.41198 8.46406Z" stroke="currentColor" stroke-width="1.5" stroke-linecap="round" stroke-linejoin="round"/>
</svg>
