<svg width="24" height="24" viewBox="0 0 24 24" fill="none" xmlns="http://www.w3.org/2000/svg">
<path d="M4.53003 17.05L10.68 5.33H10.66C11.04 4.59 11.94 4.31 12.67 4.7C12.93 4.84 13.15 5.06 13.29 5.32L14.35 7.33M15.4699 6.45C16.0499 5.86 16.9999 5.86 17.5799 6.44C17.7999 6.66 17.9399 6.94 17.9899 7.25L19.4899 16.36C19.5899 16.98 19.2899 17.6 18.7299 17.9L12.6599 20.8C12.1999 21.05 11.6499 21.06 11.1999 20.8L5.17994 17.88C4.62994 17.57 4.32994 16.96 4.42994 16.34L6.38994 4.3C6.50994 3.48 7.27994 2.92 8.08994 3.05C8.54994 3.12 8.95994 3.41 9.17994 3.82L10.4199 5.58M4.56995 17.18L15.4999 6.5" stroke="currentColor" stroke-width="1.5" stroke-linecap="round" stroke-linejoin="round"/>
</svg>
