<svg width="24" height="24" viewBox="0 0 24 24" fill="none" xmlns="http://www.w3.org/2000/svg">
<path d="M18 15.5C18 15.8978 18.158 16.2794 18.4393 16.5607C18.7206 16.842 19.1022 17 19.5 17C19.8978 17 20.2794 16.842 20.5607 16.5607C20.842 16.2794 21 15.8978 21 15.5C21 15.1022 20.842 14.7206 20.5607 14.4393C20.2794 14.158 19.8978 14 19.5 14C19.1022 14 18.7206 14.158 18.4393 14.4393C18.158 14.7206 18 15.1022 18 15.5Z" stroke="currentColor" stroke-width="1.5" stroke-linecap="round" stroke-linejoin="round"/>
<path d="M9.50001 7C9.75632 6.99992 10.0084 7.06552 10.2321 7.19054C10.4559 7.31556 10.6439 7.49583 10.7781 7.71415C10.9124 7.93247 10.9885 8.18156 10.9992 8.43764C11.0098 8.69373 10.9547 8.94828 10.839 9.177L6.80501 16.251C6.54101 16.698 6.05501 17 5.50001 17C5.23203 17 4.96893 16.9283 4.73807 16.7922C4.50722 16.6561 4.31703 16.4607 4.18728 16.2262C4.05754 15.9918 3.99298 15.7268 4.00032 15.4589C4.00766 15.191 4.08663 14.93 4.22901 14.703L8.13501 7.876C8.25463 7.61451 8.4469 7.39291 8.6889 7.2376C8.93091 7.08229 9.21246 6.99982 9.50001 7Z" stroke="currentColor" stroke-width="1.5" stroke-linecap="round" stroke-linejoin="round"/>
<path d="M16.5 7C16.7563 6.99992 17.0084 7.06552 17.2321 7.19054C17.4559 7.31556 17.6439 7.49583 17.7781 7.71415C17.9124 7.93247 17.9885 8.18156 17.9992 8.43764C18.0098 8.69373 17.9547 8.94828 17.839 9.177L13.805 16.251C13.541 16.698 13.055 17 12.5 17C12.232 17 11.9689 16.9283 11.7381 16.7922C11.5072 16.6561 11.317 16.4607 11.1873 16.2262C11.0575 15.9918 10.993 15.7268 11.0003 15.4589C11.0077 15.191 11.0866 14.93 11.229 14.703L15.135 7.876C15.2546 7.61451 15.4469 7.39291 15.6889 7.2376C15.9309 7.08229 16.2125 6.99982 16.5 7Z" stroke="currentColor" stroke-width="1.5" stroke-linecap="round" stroke-linejoin="round"/>
</svg>
