<svg width="24" height="24" viewBox="0 0 24 24" fill="none" xmlns="http://www.w3.org/2000/svg">
<path d="M20.8399 12C20.8399 14.05 21.8249 15.225 20.7999 17C19.7739 18.775 18.2629 18.51 16.4859 19.534C14.7099 20.56 14.1839 22 12.1329 22C10.0819 22 9.55692 20.559 7.77992 19.534C6.00392 18.51 4.49192 18.775 3.46592 17C2.44092 15.225 3.42592 14.05 3.42592 12C3.42592 9.95 2.44092 8.775 3.46592 7C4.49192 5.225 6.00292 5.49 7.77992 4.466C9.55592 3.44 10.0819 2 12.1329 2C14.1839 2 14.7099 3.441 16.4859 4.466C18.2619 5.49 19.7739 5.225 20.7989 7C21.8249 8.775 20.8399 9.95 20.8399 12Z" stroke="currentColor" stroke-width="1.5" stroke-linecap="round" stroke-linejoin="round"/>
</svg>
