<svg width="24" height="24" viewBox="0 0 24 24" fill="none" xmlns="http://www.w3.org/2000/svg">
<path d="M18 10C18.984 12.762 19.949 14.765 20 17.153C20.014 17.841 19.336 18.499 18.816 17.456C18.47 16.76 17.864 16.275 17 16C17.031 17.831 17.147 19.102 16 20L17.5001 21C18.0001 21.5 18.0001 22 17.0001 22H7.00006C6.00006 22 6.00006 21.5 6.50006 21L8 20C6.901 19.13 7.086 17.76 7 16C6.09 16.413 5.488 16.86 5.192 17.347C4.748 18.074 3.815 18.657 4.032 16.43C4.258 14.12 5.217 12.338 6 10M15.898 13L15.422 11M6 9.74796C7.89092 10.5821 9.93634 11.0085 12.003 10.9996C14.0697 10.9906 16.1114 10.5464 17.995 9.69596C18.27 0.459957 6.891 -1.56004 6 9.74796ZM12.75 7C12.75 7.26522 12.8554 7.51957 13.0429 7.70711C13.2304 7.89464 13.4848 8 13.75 8C14.0152 8 14.2696 7.89464 14.4571 7.70711C14.6446 7.51957 14.75 7.26522 14.75 7C14.75 6.73478 14.6446 6.48043 14.4571 6.29289C14.2696 6.10536 14.0152 6 13.75 6C13.4848 6 13.2304 6.10536 13.0429 6.29289C12.8554 6.48043 12.75 6.73478 12.75 7ZM9.25 7C9.25 7.26522 9.35536 7.51957 9.54289 7.70711C9.73043 7.89464 9.98478 8 10.25 8C10.5152 8 10.7696 7.89464 10.9571 7.70711C11.1446 7.51957 11.25 7.26522 11.25 7C11.25 6.73478 11.1446 6.48043 10.9571 6.29289C10.7696 6.10536 10.5152 6 10.25 6C9.98478 6 9.73043 6.10536 9.54289 6.29289C9.35536 6.48043 9.25 6.73478 9.25 7Z" stroke="currentColor" stroke-width="1.5" stroke-linecap="round" stroke-linejoin="round"/>
</svg>
