<svg width="24" height="24" viewBox="0 0 24 24" fill="none" xmlns="http://www.w3.org/2000/svg">
<path d="M16.5401 7C15.7351 4.635 14.0041 3 12.0001 3C9.22605 3 6.97705 5.632 6.97705 9.496C6.97705 11.452 8.55905 14.223 9.48905 15.496M4.71092 11.979C3.05492 13.856 2.49692 16.164 3.49992 17.89C4.88692 20.28 8.63792 20.721 12.0009 18.79C13.7039 17.811 14.8759 15.428 15.5169 13.992M15.0141 19.99C17.5251 19.99 19.5371 19.552 20.5011 17.89C21.8881 15.5 20.2861 11.997 16.9221 10.066C15.2201 9.08702 12.5651 8.83102 10.9951 8.99602M10.493 9.86203C10.973 10.138 11.588 9.97403 11.865 9.49603C11.9972 9.26632 12.0328 8.99352 11.964 8.73757C11.8952 8.48163 11.7276 8.26347 11.498 8.13103C11.2672 7.99809 10.9932 7.96197 10.7359 8.03056C10.4786 8.09915 10.2589 8.26687 10.125 8.49703C9.99287 8.72686 9.95741 8.99975 10.0264 9.25571C10.0954 9.51167 10.2632 9.72975 10.493 9.86203ZM8.5 15.5C8.5 15.7652 8.60536 16.0196 8.79289 16.2071C8.98043 16.3946 9.23478 16.5 9.5 16.5C9.76522 16.5 10.0196 16.3946 10.2071 16.2071C10.3946 16.0196 10.5 15.7652 10.5 15.5C10.5 15.2348 10.3946 14.9804 10.2071 14.7929C10.0196 14.6054 9.76522 14.5 9.5 14.5C9.23478 14.5 8.98043 14.6054 8.79289 14.7929C8.60536 14.9804 8.5 15.2348 8.5 15.5ZM14.5 14C14.5 14.2652 14.6054 14.5196 14.7929 14.7071C14.9804 14.8946 15.2348 15 15.5 15C15.7652 15 16.0196 14.8946 16.2071 14.7071C16.3946 14.5196 16.5 14.2652 16.5 14C16.5 13.7348 16.3946 13.4804 16.2071 13.2929C16.0196 13.1054 15.7652 13 15.5 13C15.2348 13 14.9804 13.1054 14.7929 13.2929C14.6054 13.4804 14.5 13.7348 14.5 14Z" stroke="currentColor" stroke-width="1.5" stroke-linecap="round" stroke-linejoin="round"/>
</svg>
