<svg width="24" height="24" viewBox="0 0 24 24" fill="none" xmlns="http://www.w3.org/2000/svg">
<path d="M5.5 15L6.5 10H7.82C7.96516 10.0001 8.10856 10.0317 8.24025 10.0928C8.37194 10.1539 8.48875 10.2429 8.58258 10.3536C8.6764 10.4644 8.74499 10.5943 8.78357 10.7342C8.82215 10.8741 8.82981 11.0208 8.806 11.164L8.639 12.164C8.60018 12.3975 8.47979 12.6097 8.29924 12.7627C8.1187 12.9158 7.88971 12.9999 7.653 13H6M15.5 15L16.5 10H17.82C17.9652 10.0001 18.1086 10.0317 18.2403 10.0928C18.3719 10.1539 18.4888 10.2429 18.5826 10.3536C18.6764 10.4644 18.745 10.5943 18.7836 10.7342C18.8222 10.8741 18.8298 11.0208 18.806 11.164L18.639 12.164C18.6002 12.3975 18.4798 12.6097 18.2992 12.7627C18.1187 12.9158 17.8897 12.9999 17.653 13H16M12 7.5L11 13M11.6001 10H14.0001L13.5001 13M2 12C2 14.3869 3.05357 16.6761 4.92893 18.364C6.8043 20.0518 9.34784 21 12 21C14.6522 21 17.1957 20.0518 19.0711 18.364C20.9464 16.6761 22 14.3869 22 12C22 9.61305 20.9464 7.32387 19.0711 5.63604C17.1957 3.94821 14.6522 3 12 3C9.34784 3 6.8043 3.94821 4.92893 5.63604C3.05357 7.32387 2 9.61305 2 12Z" stroke="currentColor" stroke-width="1.5" stroke-linecap="round" stroke-linejoin="round"/>
</svg>
