<svg width="24" height="24" viewBox="0 0 24 24" fill="none" xmlns="http://www.w3.org/2000/svg">
<path d="M6.335 5.14399C4.681 3.94499 2 3.01699 2 5.96999C2 6.55999 2.35 10.923 2.556 11.631C3.269 14.094 5.686 14.381 8 14C3.955 14.665 3.111 17.208 5.333 19.41C6.363 20.428 7.246 21 8 21C10 21 11.134 18.231 11.5 17.5C11.833 16.833 12 16.333 12 16C12 16.333 12.167 16.833 12.5 17.5C12.866 18.231 14 21 16 21C16.754 21 17.637 20.429 18.667 19.41C20.889 17.207 20.045 14.664 16 14C18.314 14.38 20.73 14.094 21.444 11.631C21.65 10.923 22 6.55899 22 5.96999C22 3.01699 19.32 3.94499 17.665 5.14399C15.372 6.80599 12.905 10.192 12 12C11.095 10.192 8.628 6.80599 6.335 5.14399Z" stroke="currentColor" stroke-width="1.5" stroke-linecap="round" stroke-linejoin="round"/>
</svg>
