<svg width="24" height="24" viewBox="0 0 24 24" fill="none" xmlns="http://www.w3.org/2000/svg">
<path d="M14.384 14.38C14.9118 15.9578 15.2659 17.5885 15.44 19.243L15.504 19.887L15.63 21.318C14.1378 21.8993 12.5279 22.1136 10.9356 21.9431C9.34329 21.7725 7.81525 21.2221 6.48 20.338L8.56 18.251L8.806 18.011C10.599 16.283 12.216 15.136 14.193 14.445L14.384 14.38ZM20.474 13.597L20.888 13.6L21.869 13.614C21.6476 14.968 21.15 16.262 20.4069 17.4153C19.6639 18.5687 18.6914 19.5568 17.55 20.318L17.496 19.713C17.316 17.656 16.946 15.755 16.333 13.899C17.377 13.717 18.536 13.621 19.862 13.601L20.473 13.597H20.474ZM12.605 10.416C12.9884 11.0985 13.3395 11.7986 13.657 12.514C11.381 13.284 9.515 14.567 7.513 16.481L7.158 16.825L4.922 19.065C3.12977 17.2694 2.08704 14.8597 2.005 12.324L2 12L2.004 11.75H3.1L3.567 11.748C7.114 11.722 9.923 11.381 12.505 10.453L12.605 10.416ZM21.993 11.618L20.478 11.598C18.618 11.595 17.028 11.722 15.613 12C15.2658 11.1875 14.8777 10.3932 14.45 9.62004C15.843 8.92504 17.207 8.02304 18.629 6.87004L19.057 6.51604L19.873 5.83404C21.0915 7.3901 21.8215 9.27233 21.971 11.243L21.993 11.618ZM7.33 3.15804L8.596 4.68004C9.741 6.07804 10.717 7.39304 11.545 8.66504C9.285 9.43104 6.806 9.71704 3.662 9.74604L3.1 9.75004H2.256C2.57896 8.35129 3.1993 7.03848 4.07483 5.90083C4.95037 4.76319 6.06058 3.82839 7.33 3.15804ZM17 3.34004C17.53 3.64604 18.026 3.99704 18.483 4.38604L17.458 5.24304C16.079 6.37104 14.77 7.23604 13.424 7.89204C12.534 6.49404 11.481 5.05604 10.242 3.53404L9.768 2.96004L9.283 2.37604C10.5685 2.01319 11.9136 1.91155 13.2391 2.07712C14.5645 2.24269 15.8433 2.67211 17 3.34004Z" fill="currentColor"/>
</svg>
