<svg width="24" height="24" viewBox="0 0 24 24" fill="none" xmlns="http://www.w3.org/2000/svg">
<path d="M17.723 7.41005C16.6984 6.35972 15.4045 5.61173 13.983 5.24805M10.012 5.24805C8.56695 5.61865 7.25446 6.38626 6.223 7.46405M4.342 10.679C4.11466 11.4314 3.99942 12.2131 4 12.999C4 13.737 4.1 14.452 4.287 15.131M6.247 18.559C7.27342 19.6226 8.57462 20.3806 10.006 20.749M14.006 20.749C15.4326 20.3797 16.7294 19.6232 17.753 18.563M19.715 15.133C19.906 14.4388 20.0026 13.7221 20.002 13.002C20.002 12.238 19.895 11.499 19.695 10.799M10 5C10 5.53043 10.2107 6.03914 10.5858 6.41421C10.9609 6.78929 11.4696 7 12 7C12.5304 7 13.0391 6.78929 13.4142 6.41421C13.7893 6.03914 14 5.53043 14 5C14 4.46957 13.7893 3.96086 13.4142 3.58579C13.0391 3.21071 12.5304 3 12 3C11.4696 3 10.9609 3.21071 10.5858 3.58579C10.2107 3.96086 10 4.46957 10 5ZM3 17C3 17.5304 3.21071 18.0391 3.58579 18.4142C3.96086 18.7893 4.46957 19 5 19C5.53043 19 6.03914 18.7893 6.41421 18.4142C6.78929 18.0391 7 17.5304 7 17C7 16.4696 6.78929 15.9609 6.41421 15.5858C6.03914 15.2107 5.53043 15 5 15C4.46957 15 3.96086 15.2107 3.58579 15.5858C3.21071 15.9609 3 16.4696 3 17ZM17 17C17 17.5304 17.2107 18.0391 17.5858 18.4142C17.9609 18.7893 18.4696 19 19 19C19.5304 19 20.0391 18.7893 20.4142 18.4142C20.7893 18.0391 21 17.5304 21 17C21 16.4696 20.7893 15.9609 20.4142 15.5858C20.0391 15.2107 19.5304 15 19 15C18.4696 15 17.9609 15.2107 17.5858 15.5858C17.2107 15.9609 17 16.4696 17 17Z" stroke="currentColor" stroke-width="1.5" stroke-linecap="round" stroke-linejoin="round"/>
</svg>
