<svg width="24" height="24" viewBox="0 0 24 24" fill="none" xmlns="http://www.w3.org/2000/svg">
<path d="M9 15L12 7L15 15M10 13H14M5.42799 17.245L11.504 20.716C11.6551 20.8022 11.826 20.8476 12 20.8476C12.174 20.8476 12.3449 20.8022 12.496 20.716L18.572 17.245C18.7053 17.1688 18.8193 17.063 18.9051 16.9357C18.991 16.8084 19.0464 16.6631 19.067 16.511L20.39 6.80696C20.4211 6.579 20.3726 6.34731 20.2527 6.15094C20.1328 5.95457 19.9489 5.80553 19.732 5.72896L12.332 3.11696C12.1168 3.04109 11.8822 3.04109 11.667 3.11696L4.26799 5.72996C4.05104 5.80653 3.86714 5.95557 3.74728 6.15194C3.62741 6.34831 3.57893 6.58 3.60999 6.80796L4.93299 16.512C4.95362 16.6641 5.009 16.8094 5.09484 16.9367C5.18068 17.064 5.29467 17.1688 5.42799 17.245Z" stroke="currentColor" stroke-width="1.5" stroke-linecap="round" stroke-linejoin="round"/>
</svg>
