<svg width="24" height="24" viewBox="0 0 24 24" fill="none" xmlns="http://www.w3.org/2000/svg">
<path d="M12 22V12M12 12L20.73 6.95996M12 12L3.27002 6.95996M15.003 15.332L12 17L3 12M18.003 13.665L21 12M21 16.008V7.99001C20.9994 7.64108 20.9066 7.29851 20.731 6.99699C20.5554 6.69547 20.3032 6.44571 20 6.27301L13 2.26501C12.6954 2.09103 12.3508 1.99951 12 1.99951C11.6492 1.99951 11.3046 2.09103 11 2.26501L4 6.27301C3.381 6.62801 3 7.28301 3 7.99101V16.009C3 16.718 3.381 17.372 4 17.726L11 21.734C11.62 22.088 12.38 22.088 13 21.734L20 17.726C20.619 17.371 21 16.716 21 16.008ZM15 17L18 15.33V12.33L15 14V17Z" stroke="currentColor" stroke-width="1.5" stroke-linecap="round" stroke-linejoin="round"/>
</svg>
