<svg width="24" height="24" viewBox="0 0 24 24" fill="none" xmlns="http://www.w3.org/2000/svg">
<path d="M15.6181 20.243L13.4251 14.641C14.0128 14.3239 14.4779 13.8197 14.7467 13.2084C15.0156 12.5971 15.0727 11.9136 14.9092 11.2661C14.7457 10.6186 14.3708 10.0442 13.8439 9.63389C13.3171 9.22355 12.6684 9.00073 12.0006 9.00073C11.3327 9.00073 10.684 9.22355 10.1572 9.63389C9.6303 10.0442 9.25542 10.6186 9.09189 11.2661C8.92836 11.9136 8.98555 12.5971 9.25438 13.2084C9.52322 13.8197 9.98834 14.3239 10.5761 14.641L8.38306 20.244M3 12C3 13.1819 3.23279 14.3522 3.68508 15.4442C4.13738 16.5361 4.80031 17.5282 5.63604 18.364C6.47177 19.1997 7.46392 19.8626 8.55585 20.3149C9.64778 20.7672 10.8181 21 12 21C13.1819 21 14.3522 20.7672 15.4442 20.3149C16.5361 19.8626 17.5282 19.1997 18.364 18.364C19.1997 17.5282 19.8626 16.5361 20.3149 15.4442C20.7672 14.3522 21 13.1819 21 12C21 10.8181 20.7672 9.64778 20.3149 8.55585C19.8626 7.46392 19.1997 6.47177 18.364 5.63604C17.5282 4.80031 16.5361 4.13738 15.4442 3.68508C14.3522 3.23279 13.1819 3 12 3C10.8181 3 9.64778 3.23279 8.55585 3.68508C7.46392 4.13738 6.47177 4.80031 5.63604 5.63604C4.80031 6.47177 4.13738 7.46392 3.68508 8.55585C3.23279 9.64778 3 10.8181 3 12Z" stroke="currentColor" stroke-width="1.5" stroke-linecap="round" stroke-linejoin="round"/>
</svg>
