<svg width="24" height="24" viewBox="0 0 24 24" fill="none" xmlns="http://www.w3.org/2000/svg">
<path d="M12 13H19.5M9.42383 7.26804L14.4228 2.26904M16.633 16.644L14.231 19.059C13.9346 19.3572 13.5822 19.5939 13.194 19.7554C12.8058 19.9169 12.3895 20.0001 11.969 20.0001C11.5485 20.0001 11.1322 19.9169 10.744 19.7554C10.3558 19.5939 10.0034 19.3572 9.70701 19.059L5.93701 15.272C5.33685 14.6681 5 13.8513 5 13C5 12.1486 5.33685 11.3318 5.93701 10.728L9.70701 6.94097C10.0034 6.64273 10.3558 6.40605 10.744 6.24454C11.1322 6.08303 11.5485 5.99988 11.969 5.99988C12.3895 5.99988 12.8058 6.08303 13.194 6.24454C13.5822 6.40605 13.9346 6.64273 14.231 6.94097L16.533 9.25397" stroke="currentColor" stroke-width="1.5" stroke-linecap="round" stroke-linejoin="round"/>
</svg>
