<svg width="24" height="24" viewBox="0 0 24 24" fill="none" xmlns="http://www.w3.org/2000/svg">
<path d="M17 12.0001C17 12.5305 17.2107 13.0392 17.5858 13.4143C17.9609 13.7893 18.4696 14.0001 19 14.0001C19.5304 14.0001 20.0391 13.7893 20.4142 13.4143C20.7893 13.0392 21 12.5305 21 12.0001C20.9999 9.93862 20.2921 7.93971 18.995 6.33751C17.698 4.73532 15.8902 3.62696 13.8739 3.19774C11.8577 2.76853 9.75516 3.04449 7.91797 3.97947C6.08077 4.91445 4.62022 6.45178 3.78052 8.33444C2.94081 10.2171 2.77286 12.3309 3.30472 14.3226C3.83659 16.3142 5.03605 18.0629 6.70254 19.2763C8.36904 20.4896 10.4016 21.0942 12.4603 20.9887C14.519 20.8833 16.4792 20.0743 18.013 18.6971M17 12.0001C17 13.3261 16.4732 14.5979 15.5355 15.5355C14.5979 16.4732 13.3261 17 12 17C10.6739 17 9.40215 16.4732 8.46447 15.5355C7.52678 14.5979 7 13.3261 7 12C7 10.6739 7.52678 9.40215 8.46447 8.46447C9.40215 7.52678 10.6739 7 12 7C13.3261 7 14.5979 7.52678 15.5355 8.46447C16.4732 9.40215 17 10.674 17 12.0001ZM11 12C11 12.2652 11.1054 12.5196 11.2929 12.7071C11.4804 12.8946 11.7348 13 12 13C12.2652 13 12.5196 12.8946 12.7071 12.7071C12.8946 12.5196 13 12.2652 13 12C13 11.7348 12.8946 11.4804 12.7071 11.2929C12.5196 11.1054 12.2652 11 12 11C11.7348 11 11.4804 11.1054 11.2929 11.2929C11.1054 11.4804 11 11.7348 11 12Z" stroke="currentColor" stroke-width="1.5" stroke-linecap="round" stroke-linejoin="round"/>
</svg>
