<svg width="24" height="24" viewBox="0 0 24 24" fill="none" xmlns="http://www.w3.org/2000/svg">
<path d="M10.5 8L10 7M13.5 14L14 15M9 12.5L8 13M11 14L10.5 15M13 8L13.5 7M16 12.5L15 12M9 10L8 9.5M20 10.99C19.99 16.51 15.52 20.99 9.99997 21V18.74L9.98997 18.73C5.70997 17.62 3.12997 13.26 4.22997 8.97998C4.49113 7.96214 4.95026 7.00572 5.58113 6.16536C6.212 5.32499 7.00225 4.61715 7.90673 4.08226C8.81122 3.54737 9.81223 3.19591 10.8526 3.04795C11.8929 2.9 12.9522 2.95846 13.97 3.21998C17.5 4.12998 20 7.34998 20 11V10.99Z" stroke="currentColor" stroke-width="1.5" stroke-linecap="round" stroke-linejoin="round"/>
</svg>
