<svg width="24" height="24" viewBox="0 0 24 24" fill="none" xmlns="http://www.w3.org/2000/svg">
<path d="M12 19C9.34784 19 6.8043 18.2625 4.92893 16.9497C3.05357 15.637 2 13.8565 2 12C2 10.1435 3.05357 8.36301 4.92893 7.05025C6.8043 5.7375 9.34784 5 12 5M12 19C14.6522 19 17.1957 18.2625 19.0711 16.9497C20.9464 15.637 22 13.8565 22 12C22 10.1435 20.9464 8.36301 19.0711 7.05025C17.1957 5.7375 14.6522 5 12 5M12 19C10.343 19 9 15.866 9 12C9 8.134 10.343 5 12 5M12 19C13.657 19 15 15.866 15 12C15 8.134 13.657 5 12 5M6.415 6.19104C5.527 6.69404 5 7.32104 5 8.00004C5 9.65704 8.134 11 12 11C15.866 11 19 9.65704 19 8.00004C19 7.32204 18.475 6.69604 17.59 6.19404" stroke="currentColor" stroke-width="1.5" stroke-linecap="round" stroke-linejoin="round"/>
</svg>
