<svg width="24" height="24" viewBox="0 0 24 24" fill="none" xmlns="http://www.w3.org/2000/svg">
<path d="M18.5001 9C18.7681 8.387 19.0001 7.712 19.0001 7C19.0001 5.67392 18.4733 4.40215 17.5356 3.46447C16.5979 2.52678 15.3261 2 14.0001 2L14.0021 2.008C11.9781 2.008 10.2881 3.278 9.50206 5.008C9.04406 4.44 8.28906 4.008 7.50206 4.008C7.03778 4.008 6.58267 4.13729 6.18773 4.38137C5.79279 4.62546 5.47362 4.9747 5.26599 5.38997C5.05836 5.80523 4.97046 6.27011 5.01216 6.73251C5.05385 7.19492 5.22349 7.63658 5.50206 8.008H5.30706C4.40782 8.06282 3.56435 8.46227 2.95218 9.12324C2.34001 9.78421 2.00628 10.6558 2.02045 11.5566C2.03462 12.4574 2.3956 13.318 3.02826 13.9594C3.66092 14.6008 4.51654 14.9735 5.41706 15M18.5001 9C20.3941 9.042 22.0001 10.595 22.0001 12.5C22.0001 14.369 20.3441 15.9 18.5001 16C18.8331 16.625 19.0001 17.125 19.0001 17.5C19.0001 18.163 18.7367 18.7989 18.2678 19.2678C17.799 19.7366 17.1631 20 16.5001 20C15.7131 20 14.9581 19.568 14.5001 19M18.5001 9L14.5 13M14.5001 19C13.7141 20.73 12.0241 22 10.0001 22C9.1698 22.0001 8.3526 21.7934 7.62221 21.3986C6.89182 21.0038 6.27122 20.4334 5.81645 19.7388C5.36167 19.0442 5.08702 18.2472 5.0173 17.4199C4.94757 16.5926 5.08495 15.7609 5.41706 15M14.5001 19L15.499 15.5M5.41706 15L9.5 11M8.5 9L5.5 8M8.5 9L9.5 5M8.5 9L9.5 11M9.5 11L14.5 13M14.5 13L15.499 15.5M18.499 16L15.499 15.5" stroke="currentColor" stroke-width="1.5" stroke-linecap="round" stroke-linejoin="round"/>
</svg>
