<svg width="24" height="24" viewBox="0 0 24 24" fill="none" xmlns="http://www.w3.org/2000/svg">
<path d="M9 7C9 7.79565 9.31607 8.55871 9.87868 9.12132C10.4413 9.68393 11.2044 10 12 10C12.7956 10 13.5587 9.68393 14.1213 9.12132C14.6839 8.55871 15 7.79565 15 7C15 6.20435 14.6839 5.44129 14.1213 4.87868C13.5587 4.31607 12.7956 4 12 4C11.2044 4 10.4413 4.31607 9.87868 4.87868C9.31607 5.44129 9 6.20435 9 7Z" stroke="currentColor" stroke-width="1.5" stroke-linecap="round" stroke-linejoin="round"/>
<path d="M14 16C14 16.7956 14.3161 17.5587 14.8787 18.1213C15.4413 18.6839 16.2044 19 17 19C17.7956 19 18.5587 18.6839 19.1213 18.1213C19.6839 17.5587 20 16.7956 20 16C20 15.2044 19.6839 14.4413 19.1213 13.8787C18.5587 13.3161 17.7956 13 17 13C16.2044 13 15.4413 13.3161 14.8787 13.8787C14.3161 14.4413 14 15.2044 14 16Z" stroke="currentColor" stroke-width="1.5" stroke-linecap="round" stroke-linejoin="round"/>
<path d="M4 16C4 16.394 4.0776 16.7841 4.22836 17.1481C4.37913 17.512 4.6001 17.8427 4.87868 18.1213C5.15726 18.3999 5.48797 18.6209 5.85195 18.7716C6.21593 18.9224 6.60603 19 7 19C7.39397 19 7.78407 18.9224 8.14805 18.7716C8.51203 18.6209 8.84274 18.3999 9.12132 18.1213C9.3999 17.8427 9.62087 17.512 9.77164 17.1481C9.9224 16.7841 10 16.394 10 16C10 15.606 9.9224 15.2159 9.77164 14.8519C9.62087 14.488 9.3999 14.1573 9.12132 13.8787C8.84274 13.6001 8.51203 13.3791 8.14805 13.2284C7.78407 13.0776 7.39397 13 7 13C6.60603 13 6.21593 13.0776 5.85195 13.2284C5.48797 13.3791 5.15726 13.6001 4.87868 13.8787C4.6001 14.1573 4.37913 14.488 4.22836 14.8519C4.0776 15.2159 4 15.606 4 16Z" stroke="currentColor" stroke-width="1.5" stroke-linecap="round" stroke-linejoin="round"/>
</svg>
