<svg width="24" height="24" viewBox="0 0 24 24" fill="none" xmlns="http://www.w3.org/2000/svg">
<path d="M20.7791 10.007C20.4223 8.438 19.6514 6.99335 18.5467 5.82348C17.4419 4.65361 16.0438 3.8013 14.4977 3.35531C12.9517 2.90932 11.3144 2.88596 9.75632 3.28766C8.19821 3.68936 6.77629 4.50144 5.63862 5.63932C4.50095 6.7772 3.68915 8.19927 3.28773 9.75745C2.88632 11.3156 2.90998 12.9529 3.35626 14.4989C3.80254 16.0448 4.6551 17.4428 5.82518 18.5473C6.99526 19.6519 8.44006 20.4225 10.0091 20.779M13 21H21V14M12 8V12L15 15" stroke="currentColor" stroke-width="1.5" stroke-linecap="round" stroke-linejoin="round"/>
</svg>
