<svg width="24" height="24" viewBox="0 0 24 24" fill="none" xmlns="http://www.w3.org/2000/svg">
<path d="M16.0828 2H11.9998C11.7346 2 11.4802 2.10536 11.2927 2.29289C11.1052 2.48043 10.9998 2.73478 10.9998 3V14.5C10.9999 14.7492 10.938 14.9944 10.8196 15.2136C10.7012 15.4328 10.53 15.6191 10.3216 15.7556C10.1131 15.8921 9.87399 15.9745 9.62571 15.9955C9.37744 16.0164 9.12786 15.9751 8.89953 15.8754C8.6712 15.7757 8.4713 15.6207 8.31788 15.4243C8.16447 15.228 8.06238 14.9966 8.02082 14.7509C7.97927 14.5053 7.99956 14.2531 8.07987 14.0173C8.16018 13.7814 8.29798 13.5693 8.48081 13.4L8.60081 13.3C8.72482 13.2067 8.82544 13.0859 8.89469 12.9471C8.96394 12.8082 8.99993 12.6552 8.99981 12.5V8.174C8.99994 8.02305 8.96588 7.87404 8.90021 7.73812C8.83454 7.60221 8.73895 7.48293 8.62061 7.38922C8.50228 7.29551 8.36426 7.22981 8.21691 7.19704C8.06957 7.16427 7.91671 7.16528 7.76981 7.2C5.97889 7.62208 4.40561 8.68778 3.3493 10.1943C2.29299 11.7009 1.82735 13.5432 2.04097 15.3708C2.2546 17.1983 3.13258 18.8836 4.50788 20.1059C5.88318 21.3282 7.65983 22.0023 9.49981 22L9.74281 21.995C11.6887 21.9319 13.5337 21.1147 14.888 19.716C16.2422 18.3173 16.9995 16.4469 16.9998 14.5V11.8L17.3108 11.953C18.4328 12.483 19.6438 12.821 20.9008 12.946C21.0399 12.9598 21.1803 12.9444 21.313 12.9006C21.4457 12.8568 21.5678 12.7857 21.6713 12.6919C21.7749 12.598 21.8576 12.4835 21.9142 12.3558C21.9708 12.228 21.9999 12.0897 21.9998 11.95V7.917C21.9998 7.68058 21.916 7.45183 21.7633 7.27132C21.6106 7.09082 21.3989 6.97024 21.1658 6.931C20.1425 6.75737 19.1985 6.26988 18.4644 5.53603C17.7304 4.80218 17.2427 3.85828 17.0688 2.835C17.0298 2.60168 16.9093 2.38976 16.7288 2.23688C16.5482 2.084 16.3194 2.00007 16.0828 2Z" fill="currentColor"/>
</svg>
