<svg width="24" height="24" viewBox="0 0 24 24" fill="none" xmlns="http://www.w3.org/2000/svg">
<path d="M7 12C7 13.3261 7.52678 14.5979 8.46447 15.5355C9.40215 16.4732 10.6739 17 12 17C13.3261 17 14.5979 16.4732 15.5355 15.5355C16.4732 14.5979 17 13.3261 17 12C17 10.6739 16.4732 9.40215 15.5355 8.46447C14.5979 7.52678 13.3261 7 12 7C10.6739 7 9.40215 7.52678 8.46447 8.46447C7.52678 9.40215 7 10.6739 7 12Z" stroke="currentColor" stroke-width="1.5" stroke-linecap="round" stroke-linejoin="round"/>
<path d="M2 12.5C2 13.163 2.26339 13.7989 2.73223 14.2678C3.20107 14.7366 3.83696 15 4.5 15C5.16304 15 5.79893 14.7366 6.26777 14.2678C6.73661 13.7989 7 13.163 7 12.5C7 11.837 6.73661 11.2011 6.26777 10.7322C5.79893 10.2634 5.16304 10 4.5 10C3.83696 10 3.20107 10.2634 2.73223 10.7322C2.26339 11.2011 2 11.837 2 12.5Z" stroke="currentColor" stroke-width="1.5" stroke-linecap="round" stroke-linejoin="round"/>
<path d="M17 12.5C17 13.163 17.2634 13.7989 17.7322 14.2678C18.2011 14.7366 18.837 15 19.5 15C20.163 15 20.7989 14.7366 21.2678 14.2678C21.7366 13.7989 22 13.163 22 12.5C22 11.837 21.7366 11.2011 21.2678 10.7322C20.7989 10.2634 20.163 10 19.5 10C18.837 10 18.2011 10.2634 17.7322 10.7322C17.2634 11.2011 17 11.837 17 12.5Z" stroke="currentColor" stroke-width="1.5" stroke-linecap="round" stroke-linejoin="round"/>
</svg>
