<svg width="24" height="24" viewBox="0 0 24 24" fill="none" xmlns="http://www.w3.org/2000/svg">
<path d="M15 16.2501L14.184 15.8901L13.722 15.6941C12.278 15.1021 11.722 15.1011 10.275 15.6941L9.813 15.8891L8.996 16.2481C8.31744 16.4868 7.59156 16.5593 6.87918 16.4596C6.16681 16.36 5.4887 16.091 4.90171 15.6752C4.31473 15.2595 3.83596 14.7091 3.50554 14.0701C3.17512 13.4312 3.00269 12.7224 3.00269 12.0031C3.00269 11.2837 3.17512 10.5749 3.50554 9.93597C3.83596 9.29704 4.31473 8.74663 4.90171 8.33087C5.4887 7.91511 6.16681 7.64612 6.87918 7.54646C7.59156 7.44679 8.31744 7.51935 8.996 7.75805L10.05 8.22005L10.484 8.39805C11.776 8.90505 12.347 8.87805 13.721 8.31605L14.183 8.12105L15 7.76205C15.6785 7.52335 16.4044 7.45079 17.1168 7.55046C17.8292 7.65012 18.5073 7.91911 19.0943 8.33487C19.6813 8.75062 20.16 9.30104 20.4905 9.93997C20.8209 10.5789 20.9933 11.2877 20.9933 12.0071C20.9933 12.7264 20.8209 13.4352 20.4905 14.0741C20.16 14.7131 19.6813 15.2635 19.0943 15.6792C18.5073 16.095 17.8292 16.364 17.1168 16.4636C16.4044 16.5633 15.6785 16.4908 15 16.2521" stroke="currentColor" stroke-width="1.5" stroke-linecap="round" stroke-linejoin="round"/>
</svg>
