<svg width="24" height="24" viewBox="0 0 24 24" fill="none" xmlns="http://www.w3.org/2000/svg">
<path d="M18 3C18.6566 3 19.3068 3.12933 19.9134 3.3806C20.52 3.63188 21.0712 4.00017 21.5355 4.46447C21.9998 4.92876 22.3681 5.47995 22.6194 6.08658C22.8707 6.69321 23 7.34339 23 8V16C23 16.6566 22.8707 17.3068 22.6194 17.9134C22.3681 18.52 21.9998 19.0712 21.5355 19.5355C21.0712 19.9998 20.52 20.3681 19.9134 20.6194C19.3068 20.8707 18.6566 21 18 21H6C5.34339 21 4.69321 20.8707 4.08658 20.6194C3.47995 20.3681 2.92876 19.9998 2.46447 19.5355C1.52678 18.5979 1 17.3261 1 16V8C1 6.67392 1.52678 5.40215 2.46447 4.46447C3.40215 3.52678 4.67392 3 6 3H18ZM9 9V15C9.00014 15.1768 9.04718 15.3505 9.13631 15.5032C9.22545 15.656 9.35349 15.7823 9.50739 15.8695C9.66129 15.9566 9.83555 16.0013 10.0124 15.9991C10.1892 15.9969 10.3623 15.9479 10.514 15.857L15.514 12.857C15.6619 12.7681 15.7842 12.6425 15.8691 12.4923C15.9541 12.3421 15.9987 12.1725 15.9987 12C15.9987 11.8275 15.9541 11.6579 15.8691 11.5077C15.7842 11.3575 15.6619 11.2319 15.514 11.143L10.514 8.143C10.3623 8.0521 10.1892 8.00306 10.0124 8.00087C9.83555 7.99868 9.66129 8.04342 9.50739 8.13054C9.35349 8.21765 9.22545 8.34402 9.13631 8.49677C9.04718 8.64951 9.00014 8.82315 9 9Z" fill="currentColor"/>
</svg>
