<svg width="24" height="24" viewBox="0 0 24 24" fill="none" xmlns="http://www.w3.org/2000/svg">
<path d="M18.6078 17.75L14.7078 18.018H14.6808C13.4078 18.1208 12.1553 18.3995 10.9588 18.846L8.44778 19.754C7.91461 19.9466 7.34737 20.0268 6.7817 19.9896C6.21604 19.9524 5.66417 19.7987 5.16078 19.538C4.66715 19.2857 4.23436 18.929 3.89244 18.4926C3.55052 18.0562 3.30768 17.5506 3.18078 17.011L1.80478 10.961C1.69437 10.4729 1.68496 9.96743 1.77714 9.47559C1.86932 8.98375 2.06113 8.51596 2.34078 8.10099C2.92159 7.24342 3.81498 6.64723 4.82978 6.43999L16.0798 4.08599C18.2168 3.63799 20.3268 4.93599 20.7928 6.98599L22.1958 13.148C22.3166 13.6818 22.3167 14.2359 22.1962 14.7698C22.0756 15.3037 21.8373 15.8039 21.4988 16.234C21.15 16.6746 20.7125 17.0369 20.2146 17.2974C19.7167 17.5578 19.1696 17.7107 18.6088 17.746V17.748L18.6078 17.75Z" stroke="currentColor" stroke-width="1.5" stroke-linecap="round" stroke-linejoin="round"/>
<path d="M8.99978 9.99999L10.2078 15L14.4998 11L8.99978 9.99999Z" stroke="currentColor" stroke-width="1.5" stroke-linecap="round" stroke-linejoin="round"/>
</svg>
