<svg width="24" height="24" viewBox="0 0 24 24" fill="none" xmlns="http://www.w3.org/2000/svg">
<path d="M18.4561 10.45C18.2481 9.12484 17.6322 7.89752 16.6941 6.93882C15.756 5.98012 14.5423 5.33773 13.2221 5.10107C11.9018 4.86441 10.5406 5.04525 9.32785 5.61842C8.11515 6.19159 7.11132 7.12857 6.45606 8.29896C5.82039 8.35154 5.20131 8.52882 4.63416 8.82067C4.067 9.11252 3.56289 9.51322 3.1506 9.99989C2.7383 10.4866 2.42591 11.0497 2.23124 11.6571C2.03658 12.2645 1.96346 12.9043 2.01606 13.54C2.06804 14.1756 2.24471 14.7947 2.53598 15.362C2.82725 15.9294 3.22741 16.4338 3.71363 16.8464C4.19984 17.2591 4.76257 17.5719 5.3697 17.7671C5.97683 17.9623 6.61645 18.036 7.25206 17.984H18.0031C18.4975 18.0136 18.9929 17.9455 19.4611 17.7837C19.9292 17.6218 20.3609 17.3693 20.7314 17.0405C21.1019 16.7118 21.4041 16.3133 21.6205 15.8678C21.837 15.4222 21.9636 14.9384 21.9931 14.444C22.0532 13.4454 21.7143 12.4639 21.0508 11.7153C20.3873 10.9666 19.4536 10.5122 18.4551 10.452L18.4561 10.45Z" stroke="currentColor" stroke-width="1.5" stroke-linecap="round" stroke-linejoin="round"/>
</svg>
