<svg width="24" height="24" viewBox="0 0 24 24" fill="none" xmlns="http://www.w3.org/2000/svg">
<path d="M4 3H3V21H4M20 21H21V3H20M7 9V15M12 15V11.5M12 11.5C12 10.837 11.7366 10.2011 11.2678 9.73223C10.7989 9.26339 10.163 9 9.5 9C8.83696 9 8.20107 9.26339 7.73223 9.73223C7.26339 10.2011 7 10.837 7 11.5V12M12 11.5C12 10.837 12.2634 10.2011 12.7322 9.73223C13.2011 9.26339 13.837 9 14.5 9C15.163 9 15.7989 9.26339 16.2678 9.73223C16.7366 10.2011 17 10.837 17 11.5V15M12 11.5V12" stroke="currentColor" stroke-width="1.5" stroke-linecap="round" stroke-linejoin="round"/>
</svg>
