<svg width="24" height="24" viewBox="0 0 24 24" fill="none" xmlns="http://www.w3.org/2000/svg">
<path d="M5.34302 17.657C6.46185 18.7758 7.88732 19.5377 9.43916 19.8463C10.991 20.155 12.5995 19.9965 14.0613 19.391C15.5231 18.7855 16.7725 17.7601 17.6515 16.4445C18.5305 15.1289 18.9997 13.5822 18.9997 12C18.9997 10.4178 18.5305 8.87107 17.6515 7.55548C16.7725 6.2399 15.5231 5.21452 14.0613 4.60901C12.5995 4.00349 10.991 3.84504 9.43916 4.15369C7.88732 4.46234 6.46185 5.22422 5.34302 6.343M13.8281 9.172C13.2688 8.61247 12.556 8.23139 11.7801 8.07695C11.0041 7.92251 10.1998 8.00165 9.46881 8.30437C8.73784 8.60708 8.11305 9.11977 7.67347 9.7776C7.23389 10.4354 6.99927 11.2088 6.99927 12C6.99927 12.7912 7.23389 13.5646 7.67347 14.2224C8.11305 14.8802 8.73784 15.3929 9.46881 15.6956C10.1998 15.9984 11.0041 16.0775 11.7801 15.9231C12.556 15.7686 13.2688 15.3875 13.8281 14.828" stroke="currentColor" stroke-width="1.5" stroke-linecap="round" stroke-linejoin="round"/>
</svg>
