<svg width="24" height="24" viewBox="0 0 24 24" fill="none" xmlns="http://www.w3.org/2000/svg">
<path d="M19.4801 17.007C20.5965 15.3395 21.1236 13.3467 20.9776 11.3453C20.8316 9.3439 20.021 7.44869 18.6744 5.96083C17.3279 4.47297 15.5227 3.47781 13.5457 3.13349C11.5688 2.78917 9.53343 3.11544 7.76315 4.06045C5.99287 5.00547 4.5892 6.51502 3.77519 8.34923C2.96117 10.1834 2.78351 12.2371 3.27044 14.1838C3.75736 16.1306 4.88094 17.8588 6.46263 19.0938C8.04432 20.3288 9.99338 20.9997 12.0001 21C12.8961 21 13.6911 20.427 13.9741 19.577L17.5001 9.00001M13.5 9L15.5 15M10.7641 9.41094C10.3093 9.14443 9.79229 9.00246 9.26518 8.99932C8.73806 8.99618 8.21942 9.13199 7.76149 9.39306C7.30355 9.65413 6.92249 10.0313 6.65668 10.4865C6.39086 10.9417 6.24968 11.4589 6.24734 11.986C6.24501 12.5131 6.3816 13.0315 6.64337 13.4891C6.90514 13.9466 7.28285 14.3271 7.73845 14.5922C8.19405 14.8573 8.71146 14.9977 9.23859 14.9993C9.76571 15.0008 10.2839 14.8634 10.7411 14.6009" stroke="currentColor" stroke-width="1.5" stroke-linecap="round" stroke-linejoin="round"/>
</svg>
