<svg width="24" height="24" viewBox="0 0 24 24" fill="none" xmlns="http://www.w3.org/2000/svg">
<path d="M11 12.508C10.47 12.192 9.77 12 9 12C7.343 12 6 12.895 6 14C6 15.105 7.343 16 9 16C9.767 16 10.467 15.808 11 15.492M14 14C14 14.5304 14.3161 15.0391 14.8787 15.4142C15.4413 15.7893 16.2044 16 17 16C17.7956 16 18.5587 15.7893 19.1213 15.4142C19.6839 15.0391 20 14.5304 20 14C20 13.4696 19.6839 12.9609 19.1213 12.5858C18.5587 12.2107 17.7956 12 17 12C16.2044 12 15.4413 12.2107 14.8787 12.5858C14.3161 12.9609 14 13.4696 14 14ZM4.52603 17.666C3.39303 16.894 2.62903 15.742 2.23503 14.21C1.83703 12.67 1.94503 11.273 2.55503 10.02C3.16503 8.76498 4.14503 7.67998 5.49303 6.76598C6.84103 5.85198 8.42303 5.14098 10.242 4.63398C12.052 4.12998 13.758 3.92598 15.362 4.02398C16.97 4.12398 18.341 4.56098 19.474 5.33398C20.607 6.10698 21.371 7.25798 21.765 8.78998C22.163 10.331 22.055 11.728 21.445 12.982C20.835 14.235 19.855 15.319 18.507 16.234C17.159 17.149 15.577 17.86 13.758 18.367C11.948 18.87 10.242 19.074 8.63803 18.977C7.03003 18.875 5.65903 18.438 4.52603 17.666Z" stroke="currentColor" stroke-width="1.5" stroke-linecap="round" stroke-linejoin="round"/>
</svg>
