<svg width="24" height="24" viewBox="0 0 24 24" fill="none" xmlns="http://www.w3.org/2000/svg">
<path d="M6 15H18M6 18H18M21 11V18M3 11V18M6 12H18V10C18 9.46957 18.2107 8.96086 18.5858 8.58579C18.9609 8.21071 19.4696 8 20 8C20 7.46957 19.7893 6.96086 19.4142 6.58579C19.0391 6.21071 18.5304 6 18 6H6C5.46957 6 4.96086 6.21071 4.58579 6.58579C4.21071 6.96086 4 7.46957 4 8C4.53043 8 5.03914 8.21071 5.41421 8.58579C5.78929 8.96086 6 9.46957 6 10V12Z" stroke="currentColor" stroke-width="1.5" stroke-linecap="round" stroke-linejoin="round"/>
</svg>
