<svg width="24" height="24" viewBox="0 0 24 24" fill="none" xmlns="http://www.w3.org/2000/svg">
<path d="M7.46213 3.10003C10.0771 1.83203 13.6881 1.65403 16.5251 2.59703C19.0931 3.45003 20.9961 5.77203 21.0001 8.40703C21.0041 11.468 19.0581 13.899 16.1041 14.65C14.4111 15.08 13.7661 15.4 13.1621 16.232C12.9241 16.56 12.7121 16.977 12.3661 17.765L12.1461 18.265C11.0001 20.866 9.99013 22.027 7.91013 22C5.67813 21.97 4.30713 20.258 3.59713 17.52C3.13913 15.752 2.98013 13.712 3.00313 11.644C3.04713 7.65103 4.42313 4.57203 7.46313 3.09903L7.46213 3.10003Z" fill="currentColor"/>
</svg>
