<svg width="24" height="24" viewBox="0 0 24 24" fill="none" xmlns="http://www.w3.org/2000/svg">
<path d="M15.0001 8L10.0001 11L10.8211 10.505C12.6811 9.355 15.2331 10.015 16.3951 11.857C16.6713 12.2949 16.8578 12.7833 16.9438 13.2939C17.0298 13.8044 17.0135 14.327 16.8959 14.8312C16.7783 15.3354 16.5618 15.8113 16.2588 16.2311C15.9558 16.651 15.5725 17.0065 15.1311 17.277L10.0781 20.403C8.21805 21.554 5.76605 20.994 4.60405 19.152C4.32776 18.7142 4.14118 18.2258 4.05512 17.7153C3.96907 17.2048 3.98526 16.6822 4.10275 16.178C4.22025 15.6738 4.43671 15.198 4.73957 14.7781C5.04244 14.3582 5.42568 14.0026 5.86705 13.732L6.12705 13.572M8.00002 17L13 14L12.178 14.496C10.318 15.647 7.76702 14.9871 6.60402 13.1451C6.32777 12.7072 6.14125 12.2188 6.05527 11.7082C5.96929 11.1976 5.98556 10.6751 6.10315 10.1709C6.22074 9.66663 6.4373 9.19079 6.74027 8.77093C7.04323 8.35108 7.42656 7.99557 7.86802 7.72505L12.922 4.59805C14.782 3.44805 17.233 4.00805 18.396 5.85005C18.6723 6.28795 18.8588 6.77635 18.9448 7.28691C19.0307 7.79747 19.0145 8.32002 18.8969 8.82424C18.7793 9.32847 18.5627 9.80431 18.2598 10.2242C17.9568 10.644 17.5735 10.9995 17.132 11.2701L16.872 11.4301" stroke="currentColor" stroke-width="1.5" stroke-linecap="round" stroke-linejoin="round"/>
</svg>
