<svg width="24" height="24" viewBox="0 0 24 24" fill="none" xmlns="http://www.w3.org/2000/svg">
<path d="M4 10C3.078 10 2 9.087 2 8V7C2.008 6.725 2.538 6.036 3.588 4.932C3.86829 4.63743 4.20555 4.40291 4.57927 4.2427C4.95299 4.08248 5.35538 3.99991 5.762 4H18.238C18.6446 3.99991 19.047 4.08248 19.4207 4.2427C19.7945 4.40291 20.1317 4.63743 20.412 4.932C21.462 6.036 21.991 6.725 22 7V8C22 9.087 20.922 10 20 10M4 10C5.107 10 6 9.09 6 8C6 9.09 6.893 10 8 10C9.107 10 10 9.09 10 8C10 9.09 10.893 10 12 10C13.107 10 14 9.09 14 8C14 9.09 14.893 10 16 10C17.107 10 18 9.09 18 8C18 9.09 18.893 10 20 10M4 10C3.883 16.28 4.15409 19.765 4.81409 20.456C6.34809 20.823 9.16909 20.991 12.0001 20.992C14.8301 20.991 17.6521 20.823 19.1861 20.456C20.1761 19.419 20.084 10.897 20 10M10 16L12 14M12 14L14 16M12 14V18" stroke="currentColor" stroke-width="1.5" stroke-linecap="round" stroke-linejoin="round"/>
</svg>
