<svg width="24" height="24" viewBox="0 0 24 24" fill="none" xmlns="http://www.w3.org/2000/svg">
<path d="M12.9501 22C8.44709 22 4.50509 18.96 3.34009 14.587C2.17509 10.214 4.07709 5.59899 7.97809 3.33699C9.87435 2.23717 12.0819 1.79741 14.2548 2.08658C16.4278 2.37576 18.4435 3.37753 19.9861 4.93499L16.6511 8.30199C16.1684 7.81817 15.5948 7.43456 14.9633 7.17321C14.3318 6.91187 13.6548 6.77795 12.9714 6.77916C12.2879 6.78036 11.6115 6.91668 10.9809 7.18025C10.3503 7.44383 9.77809 7.82947 9.29709 8.31499C8.32264 9.2985 7.77596 10.627 7.77596 12.0115C7.77596 13.396 8.32264 14.7245 9.29709 15.708C9.77809 16.1935 10.3503 16.5792 10.9809 16.8427C11.6115 17.1063 12.2879 17.2426 12.9714 17.2438C13.6548 17.245 14.3318 17.1111 14.9633 16.8498C15.5948 16.5884 16.1684 16.2048 16.6511 15.721L20.0001 19.088C19.0763 20.016 17.9775 20.7514 16.7672 21.2512C15.557 21.7511 14.2595 22.0056 12.9501 22Z" stroke="currentColor" stroke-width="1.5" stroke-linecap="round" stroke-linejoin="round"/>
</svg>
