<svg width="24" height="24" viewBox="0 0 24 24" fill="none" xmlns="http://www.w3.org/2000/svg">
<path d="M21 15L20 9L17.5 15M9 15L10 9M3 9H4V15H4.5L7 9M16 9.5C16 9.36739 15.9473 9.24021 15.8536 9.14645C15.7598 9.05268 15.6326 9 15.5 9H14.75C14.029 9 13.413 9.521 13.295 10.233L13.205 10.767C13.1797 10.9187 13.1878 11.0742 13.2287 11.2224C13.2696 11.3707 13.3423 11.5084 13.4417 11.6257C13.5412 11.743 13.665 11.8373 13.8046 11.902C13.9442 11.9666 14.0962 12.0001 14.25 12C14.4038 11.9999 14.5558 12.0334 14.6954 12.098C14.835 12.1627 14.9588 12.257 15.0583 12.3743C15.1577 12.4916 15.2304 12.6293 15.2713 12.7776C15.3122 12.9258 15.3203 13.0813 15.295 13.233L15.205 13.767C15.1475 14.1114 14.9698 14.4243 14.7034 14.6501C14.437 14.8758 14.0992 14.9998 13.75 15H13C12.8674 15 12.7402 14.9473 12.6464 14.8536C12.5527 14.7598 12.5 14.6326 12.5 14.5M18 14H20.7" stroke="currentColor" stroke-width="1.5" stroke-linecap="round" stroke-linejoin="round"/>
</svg>
