<svg width="24" height="24" viewBox="0 0 24 24" fill="none" xmlns="http://www.w3.org/2000/svg">
<path d="M14 14L16 16M17.7301 19.875C17.5346 20.2187 17.2511 20.5041 16.9087 20.7018C16.5663 20.8995 16.1774 21.0025 15.7821 21H8.49906C8.1005 20.9993 7.70945 20.8915 7.3669 20.6878C7.02435 20.484 6.74291 20.1919 6.55206 19.842L2.28006 13.092C2.09633 12.7574 2 12.3818 2 12C2 11.6182 2.09633 11.2426 2.28006 10.908L6.55206 4.158C6.74307 3.80846 7.02442 3.51661 7.36672 3.31292C7.70902 3.10923 8.09973 3.00116 8.49806 3H15.7831C16.5921 3 17.3371 3.443 17.7301 4.158L21.7101 10.908C21.9 11.2525 21.9996 11.6396 21.9996 12.033C21.9996 12.4264 21.9 12.8135 21.7101 13.158L17.7301 19.908V19.875ZM8 11.5C8 12.4283 8.36875 13.3185 9.02513 13.9749C9.6815 14.6313 10.5717 15 11.5 15C12.4283 15 13.3185 14.6313 13.9749 13.9749C14.6313 13.3185 15 12.4283 15 11.5C15 10.5717 14.6313 9.6815 13.9749 9.02513C13.3185 8.36875 12.4283 8 11.5 8C10.5717 8 9.6815 8.36875 9.02513 9.02513C8.36875 9.6815 8 10.5717 8 11.5Z" stroke="currentColor" stroke-width="1.5" stroke-linecap="round" stroke-linejoin="round"/>
</svg>
