<svg width="24" height="24" viewBox="0 0 24 24" fill="none" xmlns="http://www.w3.org/2000/svg">
<path d="M12 12V11.409C12 8.974 9.985 7 7.5 7C5.015 7 3 8.974 3 11.409C3.00017 11.487 3.01591 11.5641 3.0463 11.6359C3.0767 11.7077 3.12114 11.7726 3.177 11.827C3.291 11.938 3.44387 12.0001 3.603 12H12ZM12 12V12.591C12 15.026 14.015 17 16.5 17C18.985 17 21 15.026 21 12.591C21 12.265 20.73 12 20.397 12H12ZM12 12H11.405C8.972 12 7 14.015 7 16.5C7 18.985 8.972 21 11.405 21C11.4836 21.0004 11.5615 20.985 11.6341 20.9546C11.7066 20.9241 11.7722 20.8794 11.827 20.823C11.9392 20.7078 12.0014 20.5529 12 20.392V12ZM12 12L12.595 12C15.028 12 17 9.98501 17 7.50001C17 5.01501 15.028 3.00001 12.595 3.00001C12.5168 2.99959 12.4394 3.01486 12.3673 3.04492C12.2951 3.07498 12.2297 3.11922 12.175 3.17501C12.0628 3.28918 11.9999 3.4429 12 3.60301V12Z" stroke="currentColor" stroke-width="1.5" stroke-linecap="round" stroke-linejoin="round"/>
</svg>
