<svg width="24" height="24" viewBox="0 0 24 24" fill="none" xmlns="http://www.w3.org/2000/svg">
<path d="M13 13.282C13 13.774 13.784 15 15.102 15C16.42 15 18 14.034 18 12.938C18 12.121 17.068 12 16.591 12C16.363 12 13 12.111 13 13.282Z" stroke="currentColor" stroke-width="1.5" stroke-linecap="round" stroke-linejoin="round"/>
<path d="M12 21C9.016 21 5.529 18.279 5.37 18.018C3.24 14.528 3 4.315 3 4.315L4.446 3C6.945 3.39 9.469 3.617 12 3.68C14.53 3.61662 17.0533 3.38948 19.554 3L21 4.315C21 4.315 20.76 14.528 18.63 18.019C18.47 18.279 14.984 21 12 21Z" stroke="currentColor" stroke-width="1.5" stroke-linecap="round" stroke-linejoin="round"/>
<path d="M11 13.282C11 13.774 10.216 15 8.898 15C7.58 15 6 14.034 6 12.938C6 12.121 6.932 12 7.409 12C7.637 12 11 12.111 11 13.282Z" stroke="currentColor" stroke-width="1.5" stroke-linecap="round" stroke-linejoin="round"/>
</svg>
