<svg width="24" height="24" viewBox="0 0 24 24" fill="none" xmlns="http://www.w3.org/2000/svg">
<path d="M10 12L12 9.99999C12.2626 9.7373 12.5744 9.52891 12.9176 9.38674C13.2607 9.24456 13.6285 9.17139 14 9.17139C14.3715 9.17139 14.7393 9.24456 15.0824 9.38674C15.4256 9.52891 15.7374 9.7373 16 9.99999C16.2627 10.2626 16.4711 10.5744 16.6133 10.9176C16.7554 11.2607 16.8286 11.6285 16.8286 12C16.8286 12.3714 16.7554 12.7393 16.6133 13.0824C16.4711 13.4256 16.2627 13.7374 16 14L13 17M14.0001 12L12.0001 14C11.7374 14.2626 11.4256 14.471 11.0824 14.6131C10.7393 14.7553 10.3715 14.8284 10.0001 14.8284C9.24991 14.8284 8.53049 14.5304 8.00006 14C7.73741 13.7374 7.52907 13.4256 7.38693 13.0824C7.24479 12.7392 7.17163 12.3714 7.17163 12C7.17163 11.2499 7.46963 10.5304 8.00006 10L11.0001 7M3 12C3 13.1819 3.23279 14.3522 3.68508 15.4442C4.13738 16.5361 4.80031 17.5282 5.63604 18.364C6.47177 19.1997 7.46392 19.8626 8.55585 20.3149C9.64778 20.7672 10.8181 21 12 21C13.1819 21 14.3522 20.7672 15.4442 20.3149C16.5361 19.8626 17.5282 19.1997 18.364 18.364C19.1997 17.5282 19.8626 16.5361 20.3149 15.4442C20.7672 14.3522 21 13.1819 21 12C21 10.8181 20.7672 9.64778 20.3149 8.55585C19.8626 7.46392 19.1997 6.47177 18.364 5.63604C17.5282 4.80031 16.5361 4.13738 15.4442 3.68508C14.3522 3.23279 13.1819 3 12 3C10.8181 3 9.64778 3.23279 8.55585 3.68508C7.46392 4.13738 6.47177 4.80031 5.63604 5.63604C4.80031 6.47177 4.13738 7.46392 3.68508 8.55585C3.23279 9.64778 3 10.8181 3 12Z" stroke="currentColor" stroke-width="1.5" stroke-linecap="round" stroke-linejoin="round"/>
</svg>
