<svg width="24" height="24" viewBox="0 0 24 24" fill="none" xmlns="http://www.w3.org/2000/svg">
<path d="M11.217 19.384C11.5028 20.1537 12.05 20.7984 12.763 21.2055C13.4759 21.6126 14.3092 21.7562 15.1173 21.6112C15.9254 21.4662 16.6568 21.0419 17.1838 20.4123C17.7107 19.7827 17.9996 18.988 18 18.167V13L12 9.65002M5.21408 15.014C4.69004 15.6464 4.40497 16.4428 4.40873 17.264C4.41248 18.0853 4.70482 18.879 5.23461 19.5066C5.7644 20.1341 6.49793 20.5554 7.30692 20.6967C8.1159 20.8381 8.94884 20.6906 9.66008 20.2801L14.0001 17.746V10.8M6.00006 7.63001C4.60906 7.39401 3.21306 8.02501 2.46606 9.31901C2.00552 10.1168 1.88069 11.0649 2.11904 11.9547C2.35739 12.8445 2.93939 13.6032 3.73706 14.064L8.00006 16.578L14.0001 13.23M12.783 4.61595C12.4972 3.84632 11.95 3.20161 11.2371 2.79451C10.5241 2.3874 9.6908 2.24379 8.88273 2.38877C8.07465 2.53376 7.34322 2.95812 6.81629 3.58768C6.28935 4.21724 6.00042 5.01197 6 5.83295V10.8999L12 14.3499M18.786 8.98596C19.31 8.35364 19.5951 7.55722 19.5913 6.73598C19.5876 5.91474 19.2953 5.12096 18.7655 4.49346C18.2357 3.86595 17.5021 3.44466 16.6932 3.30326C15.8842 3.16187 15.0512 3.30937 14.34 3.71996L10 6.25396V13.2M18 16.302C19.391 16.538 20.787 15.907 21.534 14.613C21.9945 13.8152 22.1194 12.8671 21.881 11.9773C21.6427 11.0875 21.0607 10.3288 20.263 9.868L15.955 7.354L10 10.774" stroke="currentColor" stroke-width="1.5" stroke-linecap="round" stroke-linejoin="round"/>
</svg>
