<svg width="24" height="24" viewBox="0 0 24 24" fill="none" xmlns="http://www.w3.org/2000/svg">
<path d="M12.0001 3C14.067 2.99883 16.0713 3.70911 17.6762 5.01149C19.2812 6.31387 20.3889 8.12898 20.8134 10.1518C21.2378 12.1747 20.9531 14.282 20.007 16.1196C19.0609 17.9573 17.5111 19.4133 15.6181 20.243L13.4251 14.641C14.0128 14.3239 14.4779 13.8198 14.7467 13.2085C15.0156 12.5972 15.0728 11.9136 14.9092 11.2662C14.7457 10.6187 14.3708 10.0443 13.844 9.63394C13.3171 9.22359 12.6684 9.00077 12.0006 9.00077C11.3328 9.00077 10.684 9.22359 10.1572 9.63394C9.63031 10.0443 9.25543 10.6187 9.0919 11.2662C8.92837 11.9136 8.98556 12.5972 9.25439 13.2085C9.52323 13.8198 9.98834 14.3239 10.5761 14.641L8.38307 20.244C6.48949 19.4147 4.93913 17.9588 3.99258 16.121C3.04602 14.2832 2.76098 12.1756 3.18535 10.1524C3.60972 8.12923 4.71764 6.3138 6.32289 5.01127C7.92814 3.70875 9.93285 2.99853 12.0001 3Z" stroke="currentColor" stroke-width="1.5" stroke-linecap="round" stroke-linejoin="round"/>
</svg>
