<svg width="24" height="24" viewBox="0 0 24 24" fill="none" xmlns="http://www.w3.org/2000/svg">
<path d="M2 12C2 12.663 2.26339 13.2989 2.73223 13.7678C3.20107 14.2366 3.83696 14.5 4.5 14.5C5.16304 14.5 5.79893 14.2366 6.26777 13.7678C6.73661 13.2989 7 12.663 7 12C7 11.337 6.73661 10.7011 6.26777 10.2322C5.79893 9.76339 5.16304 9.5 4.5 9.5C3.83696 9.5 3.20107 9.76339 2.73223 10.2322C2.26339 10.7011 2 11.337 2 12Z" stroke="currentColor" stroke-width="1.5" stroke-linecap="round" stroke-linejoin="round"/>
<path d="M19 12C19 12.3978 19.158 12.7794 19.4393 13.0607C19.7206 13.342 20.1022 13.5 20.5 13.5C20.8978 13.5 21.2794 13.342 21.5607 13.0607C21.842 12.7794 22 12.3978 22 12C22 11.6022 21.842 11.2206 21.5607 10.9393C21.2794 10.658 20.8978 10.5 20.5 10.5C20.1022 10.5 19.7206 10.658 19.4393 10.9393C19.158 11.2206 19 11.6022 19 12Z" stroke="currentColor" stroke-width="1.5" stroke-linecap="round" stroke-linejoin="round"/>
<path d="M11 12C11 12.5304 11.2107 13.0391 11.5858 13.4142C11.9609 13.7893 12.4696 14 13 14C13.5304 14 14.0391 13.7893 14.4142 13.4142C14.7893 13.0391 15 12.5304 15 12C15 11.4696 14.7893 10.9609 14.4142 10.5858C14.0391 10.2107 13.5304 10 13 10C12.4696 10 11.9609 10.2107 11.5858 10.5858C11.2107 10.9609 11 11.4696 11 12Z" stroke="currentColor" stroke-width="1.5" stroke-linecap="round" stroke-linejoin="round"/>
</svg>
