<svg width="24" height="24" viewBox="0 0 24 24" fill="none" xmlns="http://www.w3.org/2000/svg">
<path d="M8.26684 3C8.40374 3.00006 8.53916 3.02822 8.66473 3.08275C8.7903 3.13728 8.90334 3.21701 8.99684 3.317L9.07284 3.409L13.3468 9.237L19.2928 3.293C19.4728 3.11365 19.7143 3.00953 19.9682 3.00177C20.2222 2.99402 20.4696 3.08322 20.6601 3.25125C20.8507 3.41928 20.9701 3.65355 20.9942 3.90647C21.0183 4.1594 20.9453 4.41201 20.7898 4.613L20.7068 4.707L14.5438 10.869L20.8058 19.409C20.9095 19.5505 20.9742 19.7168 20.9933 19.8912C21.0123 20.0656 20.9852 20.242 20.9146 20.4026C20.844 20.5632 20.7323 20.7024 20.5909 20.8062C20.4495 20.91 20.2832 20.9748 20.1088 20.994L19.9998 21H15.7328C15.5959 20.9999 15.4605 20.9718 15.3349 20.9172C15.2094 20.8627 15.0963 20.783 15.0028 20.683L14.9268 20.591L10.6508 14.762L4.70684 20.707C4.52688 20.8863 4.2854 20.9905 4.03146 20.9982C3.77751 21.006 3.53013 20.9168 3.33956 20.7488C3.14899 20.5807 3.02953 20.3464 3.00544 20.0935C2.98135 19.8406 3.05443 19.588 3.20984 19.387L3.29284 19.293L9.45384 13.13L3.19384 4.591C3.09015 4.44948 3.02551 4.28317 3.00643 4.10877C2.98734 3.93438 3.01447 3.75802 3.08509 3.59743C3.15571 3.43683 3.26734 3.29763 3.40877 3.19382C3.5502 3.09001 3.71646 3.02524 3.89084 3.006L3.99984 3H8.26684Z" fill="currentColor"/>
</svg>
