<svg width="24" height="24" viewBox="0 0 24 24" fill="none" xmlns="http://www.w3.org/2000/svg">
<path d="M12 3C19.2 3 21 4.8 21 12C21 19.2 19.2 21 12 21C4.8 21 3 19.2 3 12C3 4.8 4.8 3 12 3Z" stroke="currentColor" stroke-width="1.5" stroke-linecap="round" stroke-linejoin="round"/>
<path d="M8.86291 16.9221C9.99991 16.5001 10.4999 16.0001 11.9999 16.0001C13.4999 16.0001 13.9999 16.5001 15.1379 16.9221C15.8509 17.1861 16.6539 16.8201 16.9159 16.1501C17.0419 15.8301 17.0259 15.4771 16.8719 15.1671L13.1639 7.69306C12.8669 7.09506 12.1059 6.83406 11.4639 7.11006C11.1923 7.22378 10.9701 7.43044 10.8369 7.69306L7.12791 15.1671C6.80691 15.8151 7.11091 16.5821 7.80691 16.8811C8.13891 17.0241 8.52191 17.0481 8.86291 16.9211V16.9221Z" stroke="currentColor" stroke-width="1.5" stroke-linecap="round" stroke-linejoin="round"/>
</svg>
