<svg width="24" height="24" viewBox="0 0 24 24" fill="none" xmlns="http://www.w3.org/2000/svg">
<path d="M19.993 9.10798C20.376 9.50798 20.68 9.97098 20.886 10.476C21.3014 11.49 21.3036 12.6264 20.892 13.642C20.6852 14.151 20.3842 14.6165 20.005 15.014C19.3191 15.734 18.5811 16.4025 17.797 17.014C17.007 17.6302 16.1731 18.188 15.302 18.683C13.5419 19.6799 11.6489 20.4214 9.67996 20.885C8.66381 21.1271 7.59394 20.9832 6.67796 20.481C6.23205 20.236 5.83725 19.9077 5.51496 19.514C5.19919 19.1267 4.96301 18.6808 4.81996 18.202C3.62096 14.3 3.79796 9.88998 4.95396 5.97198C5.56296 3.91498 7.59696 2.62298 9.69096 3.09798C13.571 3.97798 17.211 6.24498 19.993 9.10798Z" stroke="currentColor" stroke-width="1.5" stroke-linecap="round" stroke-linejoin="round"/>
<path d="M14.0438 13.0339C14.7138 12.5289 14.7138 11.5449 14.0438 11.0239C13.5664 10.6455 13.0661 10.2968 12.5458 9.97995C12.023 9.66042 11.4821 9.37159 10.9258 9.11495C10.1558 8.76495 9.2958 9.25395 9.1728 10.0879C8.98366 11.341 8.95008 12.6126 9.0728 13.8739C9.08935 14.0685 9.1519 14.2563 9.25528 14.4219C9.35866 14.5875 9.49992 14.7262 9.66741 14.8265C9.8349 14.9268 10.0238 14.9858 10.2186 14.9988C10.4134 15.0117 10.6085 14.9782 10.7878 14.9009C11.3695 14.6616 11.9353 14.3854 12.4818 14.0739C13.0243 13.7631 13.5461 13.4174 14.0438 13.0389V13.0339Z" stroke="currentColor" stroke-width="1.5" stroke-linecap="round" stroke-linejoin="round"/>
</svg>
