<svg width="24" height="24" viewBox="0 0 24 24" fill="none" xmlns="http://www.w3.org/2000/svg">
<path d="M8.286 7.008C5.07 7.008 4 10.238 4 12.928C4 16.157 6.143 21 8.286 21C9.451 20.95 10.085 20.462 11.5 20.462C12.906 20.462 13.107 21 14.714 21C16.321 21 19 17.771 19 15.619C18.97 15.608 16.351 15.185 16.321 12.389C16.301 10.054 18.91 9.21 19 9.161C17.904 7.555 15.838 7.048 15.25 7.008C13.715 6.888 12.218 8.085 11.5 8.085C10.771 8.085 9.464 7.008 8.286 7.008Z" stroke="currentColor" stroke-width="1.5" stroke-linecap="round" stroke-linejoin="round"/>
<path d="M12 4C12.5304 4 13.0391 3.78929 13.4142 3.41421C13.7893 3.03914 14 2.53043 14 2C13.4696 2 12.9609 2.21071 12.5858 2.58579C12.2107 2.96086 12 3.46957 12 4Z" stroke="currentColor" stroke-width="1.5" stroke-linecap="round" stroke-linejoin="round"/>
</svg>
