<svg width="24" height="24" viewBox="0 0 24 24" fill="none" xmlns="http://www.w3.org/2000/svg">
<path d="M11.036 5.05798C9.59258 5.23359 8.22427 5.79931 7.07823 6.69431C5.93219 7.58931 5.05176 8.77974 4.53159 10.1376C4.01141 11.4955 3.87118 12.9695 4.12595 14.4011C4.38073 15.8327 5.02088 17.1678 5.97758 18.2629C6.93429 19.3579 8.17136 20.1715 9.55581 20.6162C10.9403 21.0609 12.4197 21.1198 13.8352 20.7866C15.2506 20.4534 16.5484 19.7408 17.5892 18.7253C18.6299 17.7098 19.3742 16.4298 19.742 15.023M12 21V10L4.5 14M17.4999 3.00001C18.1629 3.00001 18.7988 3.2634 19.2677 3.73224C19.7365 4.20108 19.9999 4.83696 19.9999 5.50001C19.9999 6.16305 19.7365 6.79893 19.2677 7.26777C18.7988 7.73661 18.1629 8.00001 17.4999 8.00001L6.4999 3.00001C5.89451 2.99873 5.30921 3.21718 4.85269 3.61479C4.39617 4.0124 4.09944 4.56215 4.01759 5.16199C3.93574 5.76183 4.07433 6.37099 4.40763 6.87638C4.74093 7.38176 5.2463 7.74903 5.8299 7.91001M9 12V20M16 13H15.99" stroke="currentColor" stroke-width="1.5" stroke-linecap="round" stroke-linejoin="round"/>
</svg>
