<svg width="24" height="24" viewBox="0 0 24 24" fill="none" xmlns="http://www.w3.org/2000/svg">
<path d="M16 16V9C16 8.434 15.566 8 15 8H8M16 16L21 21V4C21 3.434 20.566 3 20 3H3L8 8M16 16L11.293 20.707C11.1055 20.8946 10.8512 20.9999 10.586 21H4C3.73478 21 3.48043 20.8946 3.29289 20.7071C3.10536 20.5196 3 20.2652 3 20V13.414C3.00006 13.1488 3.10545 12.8945 3.293 12.707L8 8M16 16H9C8.73478 16 8.48043 15.8946 8.29289 15.7071C8.10536 15.5196 8 15.2652 8 15V8" stroke="currentColor" stroke-width="1.5" stroke-linecap="round" stroke-linejoin="round"/>
</svg>
