<svg width="24" height="24" viewBox="0 0 24 24" fill="none" xmlns="http://www.w3.org/2000/svg">
<path d="M21.648 6.80806C19.18 11.0881 16.711 15.3681 14.24 19.6441C13.843 20.4211 12.874 20.9451 12 21.0001C11.038 21.1021 10.3 20.5981 9.84603 19.7461C8.28303 17.0621 6.74003 14.3721 5.18603 11.6821C4.24303 10.0491 3.29503 8.41606 2.35603 6.77706C2.13373 6.4092 2.01126 5.9897 2.00074 5.56002C1.99022 5.13034 2.092 4.70535 2.29603 4.32706C2.50081 3.94745 2.80057 3.62746 3.16603 3.39838C3.53148 3.16929 3.95012 3.03893 4.38103 3.02006C5.33203 2.95506 6.23103 3.45806 6.66803 4.30106C7.36503 5.49106 8.71103 8.13106 9.21803 8.98306C9.54511 9.5734 10.0191 10.0693 10.5941 10.4226C11.1691 10.776 11.8256 10.9749 12.5 11.0001C14.626 11.1331 16.474 10.0501 16.71 7.94206C16.71 7.77806 16.938 4.76406 17.556 3.98006C18.175 3.19606 19.196 2.82506 20.162 3.08706C20.6336 3.21432 21.0573 3.47781 21.3799 3.84456C21.7026 4.21132 21.9099 4.66507 21.976 5.14906C22.056 5.73006 21.935 6.32006 21.633 6.82306" stroke="currentColor" stroke-width="1.5" stroke-linecap="round" stroke-linejoin="round"/>
</svg>
