<svg width="24" height="24" viewBox="0 0 24 24" fill="none" xmlns="http://www.w3.org/2000/svg">
<path d="M16.5 10.5C17.0523 10.5 17.5 10.0523 17.5 9.5C17.5 8.94772 17.0523 8.5 16.5 8.5C15.9477 8.5 15.5 8.94772 15.5 9.5C15.5 10.0523 15.9477 10.5 16.5 10.5Z" fill="currentColor"/>
<path d="M16.5 5C17.1182 5.00059 17.7296 5.12854 18.2961 5.37587C18.8626 5.6232 19.3721 5.98459 19.7928 6.43752C20.2135 6.89045 20.5364 7.4252 20.7413 8.00842C20.9462 8.59164 21.0287 9.21082 20.9837 9.82734C20.9388 10.4439 20.7673 11.0445 20.4799 11.5918C20.1926 12.1391 19.7955 12.6214 19.3136 13.0085C18.8316 13.3956 18.2751 13.6792 17.6786 13.8417C17.0822 14.0042 16.4587 14.0421 15.847 13.953L11.5 16.962V17C11.5013 17.7661 11.2095 18.5036 10.6844 19.0614C10.1593 19.6193 9.44076 19.9551 8.676 20H8.5C7.80813 20 7.13751 19.761 6.60172 19.3232C6.06593 18.8855 5.69791 18.276 5.56 17.598L3 16.5V13L6.51 14.755C6.88945 14.417 7.34881 14.1813 7.84469 14.0702C8.34057 13.9591 8.85659 13.9762 9.344 14.12L12.071 10.302C11.9536 9.65359 11.98 8.9873 12.1483 8.35022C12.3167 7.71313 12.6229 7.1208 13.0454 6.61507C13.4678 6.10935 13.9962 5.70257 14.5931 5.4235C15.1901 5.14442 15.841 4.99985 16.5 5Z" stroke="currentColor" stroke-width="1.5" stroke-linecap="round" stroke-linejoin="round"/>
<path d="M16.5 10.5C17.0523 10.5 17.5 10.0523 17.5 9.5C17.5 8.94772 17.0523 8.5 16.5 8.5C15.9477 8.5 15.5 8.94772 15.5 9.5C15.5 10.0523 15.9477 10.5 16.5 10.5Z" stroke="currentColor" stroke-width="1.5" stroke-linecap="round" stroke-linejoin="round"/>
</svg>
