<svg width="24" height="24" viewBox="0 0 24 24" fill="none" xmlns="http://www.w3.org/2000/svg">
<path d="M4.5 10L2 6L17.298 12.909C17.3235 12.9206 17.3463 12.9374 17.3648 12.9583C17.3834 12.9792 17.3974 13.0038 17.4059 13.0305C17.4144 13.0572 17.4172 13.0853 17.4141 13.1131C17.411 13.141 17.4021 13.1678 17.388 13.192L14 19M10 19L6.61203 13.192C6.59791 13.1678 6.58902 13.141 6.58594 13.1131C6.58285 13.0853 6.58564 13.0572 6.59412 13.0305C6.60261 13.0038 6.61659 12.9792 6.63518 12.9583C6.65377 12.9374 6.67654 12.9206 6.70203 12.909L22 6L19.5 10" stroke="currentColor" stroke-width="1.5" stroke-linecap="round" stroke-linejoin="round"/>
</svg>
