<svg width="24" height="24" viewBox="0 0 24 24" fill="none" xmlns="http://www.w3.org/2000/svg">
<path d="M4.41698 8.655C4.34949 8.64085 4.28546 8.61353 4.22856 8.57459C4.17165 8.53564 4.12299 8.48585 4.08537 8.42807C4.04775 8.37029 4.02189 8.30564 4.0093 8.23785C3.99671 8.17006 3.99762 8.10044 4.01198 8.033L4.99798 3.416C5.01221 3.34819 5.03975 3.28387 5.07901 3.22678C5.11826 3.16968 5.16845 3.12093 5.22667 3.08336C5.28489 3.04579 5.34998 3.02013 5.41818 3.00789C5.48638 2.99564 5.55633 2.99704 5.62398 3.012L20.582 6.174C20.867 6.234 21.049 6.513 20.988 6.796L20.001 11.414C19.9867 11.4817 19.9592 11.5459 19.92 11.6029C19.8809 11.66 19.8308 11.7087 19.7727 11.7462C19.7146 11.7838 19.6496 11.8095 19.5815 11.8218C19.5134 11.8341 19.4436 11.8328 19.376 11.818L15.031 10.898C14.833 10.858 14.716 10.922 14.678 11.095L12.65 20.585C12.6205 20.7214 12.5381 20.8404 12.421 20.9162C12.3038 20.9919 12.1614 21.0181 12.025 20.989L7.38298 20.007C7.2469 19.9779 7.12784 19.8962 7.05177 19.7797C6.97571 19.6632 6.94883 19.5213 6.97698 19.385L9.00498 9.892C9.04198 9.722 8.97398 9.618 8.80098 9.582L4.41698 8.655Z" stroke="currentColor" stroke-width="1.5" stroke-linecap="round" stroke-linejoin="round"/>
</svg>
