<svg width="24" height="24" viewBox="0 0 24 24" fill="none" xmlns="http://www.w3.org/2000/svg">
<path d="M8 12H16M16 12L13 9M16 12L13 15M3 11C3.19722 11 3.39004 11.0584 3.5542 11.1677C3.71835 11.277 3.84652 11.4324 3.92257 11.6144C3.99863 11.7963 4.01917 11.9967 3.98163 12.1904C3.94409 12.384 3.85013 12.5622 3.71157 12.7025C3.57302 12.8429 3.39605 12.9391 3.20294 12.9792C3.00982 13.0192 2.80918 13.0013 2.62624 12.9276C2.4433 12.8539 2.28624 12.7277 2.17481 12.565C2.06338 12.4023 2.00256 12.2102 2 12.013C2 11.7478 2.10536 11.4934 2.29289 11.3059C2.48043 11.1184 2.73478 11.013 3 11.013V11ZM21 11C21.1972 11 21.39 11.0584 21.5542 11.1677C21.7184 11.277 21.8465 11.4324 21.9226 11.6144C21.9986 11.7963 22.0192 11.9967 21.9816 12.1904C21.9441 12.384 21.8501 12.5622 21.7116 12.7025C21.573 12.8429 21.3961 12.9391 21.2029 12.9792C21.0098 13.0192 20.8092 13.0013 20.6262 12.9276C20.4433 12.8539 20.2862 12.7277 20.1748 12.565C20.0634 12.4023 20.0026 12.2102 20 12.013C20 11.7478 20.1054 11.4934 20.2929 11.3059C20.4804 11.1184 20.7348 11.013 21 11.013V11Z" stroke="currentColor" stroke-width="1.5" stroke-linecap="round" stroke-linejoin="round"/>
</svg>
