<svg width="24" height="24" viewBox="0 0 24 24" fill="none" xmlns="http://www.w3.org/2000/svg">
<path d="M6.74406 4.32506L14.5641 3.05806C15.7306 2.86914 16.9244 3.15134 17.8829 3.84259C18.8414 4.53385 19.4861 5.57753 19.6751 6.74406L20.9421 14.5641C21.131 15.7306 20.8488 16.9244 20.1575 17.8829C19.4663 18.8414 18.4226 19.4861 17.2561 19.6751L9.43606 20.9421C8.26951 21.131 7.07569 20.8488 6.11721 20.1575C5.15872 19.4663 4.51407 18.4226 4.32506 17.2561L3.05806 9.43606C2.86914 8.26951 3.15134 7.07569 3.84259 6.11721C4.53385 5.15872 5.57753 4.51407 6.74406 4.32506Z" stroke="currentColor" stroke-width="1.5" stroke-linecap="round" stroke-linejoin="round"/>
<path d="M7.25198 7.70398L15.149 6.42397C15.2787 6.40299 15.4112 6.40776 15.539 6.43802C15.6669 6.46828 15.7875 6.52343 15.894 6.60032C16.0005 6.67722 16.0909 6.77434 16.1598 6.88616C16.2288 6.99797 16.2751 7.12228 16.296 7.25198L16.656 9.47498L7.09398 12.985L6.42397 8.85098C6.40299 8.72129 6.40776 8.58874 6.43802 8.4609C6.46828 8.33306 6.52343 8.21244 6.60032 8.10592C6.67722 7.9994 6.77434 7.90908 6.88616 7.84011C6.99797 7.77114 7.12228 7.72488 7.25198 7.70398Z" stroke="currentColor" stroke-width="1.5" stroke-linecap="round" stroke-linejoin="round"/>
</svg>
