<svg width="24" height="24" viewBox="0 0 24 24" fill="none" xmlns="http://www.w3.org/2000/svg">
<path d="M16 8V12M12 8V12M4 5V16C4 16.2652 4.10536 16.5196 4.29289 16.7071C4.48043 16.8946 4.73478 17 5 17H7V21L11 17H16.584C16.85 17 17.104 16.895 17.291 16.707L19.706 14.293C19.893 14.105 19.999 13.851 19.999 13.585V5C19.999 4.73478 19.8936 4.48043 19.7061 4.29289C19.5186 4.10536 19.2642 4 18.999 4H4.999C4.73378 4 4.47943 4.10536 4.29189 4.29289C4.10436 4.48043 4 4.73478 4 5Z" stroke="currentColor" stroke-width="1.5" stroke-linecap="round" stroke-linejoin="round"/>
</svg>
