<svg width="24" height="24" viewBox="0 0 24 24" fill="none" xmlns="http://www.w3.org/2000/svg">
<path d="M3.64803 4.00006C3.55447 3.99881 3.46177 4.0181 3.37647 4.05655C3.29117 4.09501 3.21534 4.1517 3.15432 4.22263C3.09331 4.29357 3.04858 4.37702 3.02331 4.46711C2.99803 4.5572 2.99281 4.65173 3.00803 4.74406L6.14803 19.2721C6.21803 19.6891 6.57803 19.9961 7.00003 20.0001H17C17.1538 20.0016 17.303 19.9482 17.4207 19.8493C17.5385 19.7505 17.617 19.6127 17.642 19.4611L20.992 4.75106C21.0071 4.65876 21.0017 4.56429 20.9764 4.47428C20.951 4.38427 20.9063 4.30089 20.8453 4.23C20.7843 4.15911 20.7086 4.10241 20.6234 4.0639C20.5381 4.02539 20.4455 4.00599 20.352 4.00706L3.64803 4.00006Z" stroke="currentColor" stroke-width="1.5" stroke-linecap="round" stroke-linejoin="round"/>
<path d="M14 15H10L9 9H15L14 15Z" stroke="currentColor" stroke-width="1.5" stroke-linecap="round" stroke-linejoin="round"/>
</svg>
