<svg width="24" height="24" viewBox="0 0 24 24" fill="none" xmlns="http://www.w3.org/2000/svg">
<path d="M17.845 19.3079C16.577 20.1219 15.435 20.5619 14 20.9999C13.824 21.2099 13.355 21.5439 13.088 21.5879C11.597 21.805 10.0956 21.9425 8.59 21.9999C7.778 22.0059 7.28 21.7859 7.143 21.4459C7.028 21.1669 7.479 19.3919 7.441 19.4819C7.284 19.8739 6.866 20.7689 6.444 21.2019C5.865 21.8019 4.77 21.6019 4.122 21.2529C3.412 20.8669 4.052 19.9729 3.776 19.9859C3.5 19.9999 3 18.4999 3 17.7499C3 16.9219 3.622 16.0759 4.235 15.5389C4.13847 14.4697 4.29609 13.3927 4.695 12.3959C5.21698 11.364 5.97313 10.4685 6.903 9.78095C6.903 9.78095 5.55 8.24695 6.054 6.86895C6.382 5.96695 6.514 5.97395 6.621 5.93395C7.001 5.81395 7.348 5.60395 7.634 5.32195C8.414 4.44195 9.594 3.88395 10.75 3.99995C10.75 3.99995 11.531 1.56995 12.283 2.06395C12.698 2.71695 12.954 3.28195 13.25 3.99995C13.25 3.99995 14.4 3.29995 14.5 3.49995C15.014 4.89795 14.987 6.70395 14.711 8.16995C14.387 9.57795 13.871 10.8609 13 11.9999C12.906 12.1599 13.98 12.7049 14.722 14.8119C15.408 16.7399 15 17.2499 15 17.4999C15 17.7499 15.716 17.6439 17.296 16.6449C18.165 15.9936 19.1983 15.5971 20.28 15.4999C21.015 15.4339 21.268 15.4649 21.5 16.4999C21.732 17.5349 21.154 17.9059 20.756 18.0059C20.756 18.0059 18.666 18.6809 17.845 19.3079Z" stroke="currentColor" stroke-width="1.5" stroke-linecap="round" stroke-linejoin="round"/>
</svg>
