<svg width="24" height="24" viewBox="0 0 24 24" fill="none" xmlns="http://www.w3.org/2000/svg">
<path d="M12 12L6 18M20.9931 11.63C21.0442 12.8731 20.837 14.1133 20.3846 15.2723C19.9322 16.4312 19.2444 17.4838 18.3647 18.3636C17.4849 19.2433 16.4323 19.9311 15.2734 20.3835C14.1144 20.8359 12.8742 21.0431 11.6311 20.992L20.9931 11.63ZM11.9999 3C13.7163 2.99966 15.3969 3.49002 16.8437 4.41329C18.2906 5.33657 19.4433 6.65425 20.1659 8.211L8.21094 20.166C6.35014 19.3038 4.83962 17.832 3.92948 15.9941C3.01933 14.1563 2.76415 12.0628 3.20618 10.0601C3.64822 8.05752 4.76095 6.26591 6.36016 4.98198C7.95936 3.69805 9.9491 2.99879 11.9999 3Z" stroke="currentColor" stroke-width="1.5" stroke-linecap="round" stroke-linejoin="round"/>
</svg>
