<svg width="24" height="24" viewBox="0 0 24 24" fill="none" xmlns="http://www.w3.org/2000/svg">
<path d="M2 10V7.2C2 5.435 6.476 4 11.998 4C17.521 4 22 5.435 22 7.2V11C22 11.752 21.361 12.455 20 13L12 11V14M2 10C2 11.766 6.478 14 12 14M2 10V14M12 14V17M12 14L20 16C21.362 15.453 22 14.754 22 14M12 17L20 19C21.362 18.453 22 17.754 22 17V14M12 17L11.998 20C6.476 20 2 18.766 2 17V13.5C2 15.266 6.478 17 12 17ZM22 14V10" stroke="currentColor" stroke-width="1.5" stroke-linecap="round" stroke-linejoin="round"/>
</svg>
