<svg width="24" height="24" viewBox="0 0 24 24" fill="none" xmlns="http://www.w3.org/2000/svg">
<path d="M4 8H9V3M4 8L9 3M4 8C4 14 6.5 16 9 16C10 16 10.5 15.5 11 14.5C11.5 13.5 12.414 14.174 13.5 14.5C14.544 14.813 15.51 14.755 16 15C17 15.5 18 16.5 18 18C18 18.5 18 21 15 21C12 21 12 18 14 18M9 3H11C12 3 12.146 3.646 12.5 4C13 4.5 14.094 5 16 5C17 5 19 5.5 19 10C19 13.529 18.5 16.5 17.9 19M15 10H16" stroke="currentColor" stroke-width="1.5" stroke-linecap="round" stroke-linejoin="round"/>
</svg>
