<svg width="24" height="24" viewBox="0 0 24 24" fill="none" xmlns="http://www.w3.org/2000/svg">
<path d="M21 12C21 13.1819 20.7672 14.3522 20.3149 15.4442C19.8626 16.5361 19.1997 17.5282 18.364 18.364M21 12C21 9.61305 20.0518 7.32387 18.364 5.63604M21 12H17M18.364 18.364C17.5282 19.1997 16.5361 19.8626 15.4442 20.3149C14.3522 20.7672 13.1819 21 12 21M18.364 18.364L15.5355 15.5355M12 21C10.8181 21 9.64778 20.7672 8.55585 20.3149C7.46392 19.8626 6.47177 19.1997 5.63604 18.364M12 21V17M5.63604 18.364C4.80031 17.5282 4.13738 16.5361 3.68508 15.4442C3.23279 14.3522 3 13.1819 3 12M5.63604 18.364L8.46447 15.5355M3 12C3 9.61305 3.94821 7.32387 5.63604 5.63604M3 12H7M5.63604 5.63604C7.32387 3.94821 9.61305 3 12 3M5.63604 5.63604L8.46447 8.46447M12 3C14.3869 3 16.6761 3.94821 18.364 5.63604M12 3V7M18.364 5.63604L15.5355 8.46447M17 12C17 10.6739 16.4732 9.40215 15.5355 8.46447M17 12C17 13.3261 16.4732 14.5979 15.5355 15.5355M15.5355 8.46447C14.5979 7.52678 13.3261 7 12 7M12 7C10.6739 7 9.40215 7.52678 8.46447 8.46447M8.46447 8.46447C7.52678 9.40215 7 10.6739 7 12M7 12C7 13.3261 7.52678 14.5979 8.46447 15.5355M8.46447 15.5355C9.40215 16.4732 10.6739 17 12 17M12 17C13.3261 17 14.5979 16.4732 15.5355 15.5355" stroke="currentColor" stroke-width="1.5" stroke-linecap="round" stroke-linejoin="round"/>
</svg>
