<svg width="24" height="24" viewBox="0 0 24 24" fill="none" xmlns="http://www.w3.org/2000/svg">
<path d="M8.5 7C8.5 5.347 10 3 12 3C14 3 15.5 5.347 15.5 7M9.5 17C9.913 17.462 10.5 18 12 18C13.5 18 14.5 17.103 14.5 16C14.5 14.897 13.5 14.5 12 14C10.5 13.5 10 12.53 10 12C10 10.896 11 10 12 10C13 10 13.5 10 14.5 11M4 7L4.867 19.143C4.90322 19.6483 5.12982 20.121 5.50104 20.4656C5.87226 20.8103 6.36044 21.0013 6.867 21H17.143C17.6496 21.0013 18.1377 20.8103 18.509 20.4656C18.8802 20.121 19.1068 19.6483 19.143 19.143L20.01 7H4Z" stroke="currentColor" stroke-width="1.5" stroke-linecap="round" stroke-linejoin="round"/>
</svg>
