<svg width="24" height="24" viewBox="0 0 24 24" fill="none" xmlns="http://www.w3.org/2000/svg">
<path d="M12.893 4.514L20.87 18.514C20.9353 18.6291 20.977 18.7561 20.9925 18.8876C21.008 19.0191 20.9971 19.1523 20.9604 19.2795C20.9237 19.4066 20.8619 19.5252 20.7788 19.6281C20.6956 19.7311 20.5926 19.8164 20.476 19.879C20.3226 19.9627 20.1507 20.0063 19.976 20.006H16.5L12 12.006L9.5 16.006H11L13 20.006H4.023C3.458 20.006 3 19.556 3 19.006C3 18.835 3.045 18.666 3.13 18.516L11.107 4.523C11.1981 4.36696 11.3285 4.23752 11.4851 4.14756C11.6418 4.05759 11.8193 4.01025 12 4.01025C12.1807 4.01025 12.3582 4.05759 12.5149 4.14756C12.6715 4.23752 12.8019 4.36696 12.893 4.523V4.514Z" stroke="currentColor" stroke-width="1.5" stroke-linecap="round" stroke-linejoin="round"/>
</svg>
