<svg width="24" height="24" viewBox="0 0 24 24" fill="none" xmlns="http://www.w3.org/2000/svg">
<path d="M6 13C6.458 13.667 7.125 14 8 14C9.313 14 10 13.125 10 12.5C10 11 8 11.5 8 10.5C8 9.875 8.516 9 9.5 9C12 9 11.063 11 15 11C15.667 11 16 10.667 16 10M8.99994 17C8.90494 17.667 9.23794 18 9.99994 18C11.7139 18 12.7139 16 12.9999 12C13.2859 8 14.5709 6 15.9999 6C16.5709 6 16.9049 6.333 16.9999 7M22 12C22 17.523 17.523 22 12 22C6.477 22 2 17.523 2 12C2 6.477 6.477 2 12 2C13.3132 2 14.6136 2.25866 15.8268 2.7612C17.0401 3.26375 18.1425 4.00035 19.0711 4.92893C19.9997 5.85752 20.7362 6.95991 21.2388 8.17317C21.7413 9.38642 22 10.6868 22 12Z" stroke="currentColor" stroke-width="1.5" stroke-linecap="round" stroke-linejoin="round"/>
</svg>
