<svg width="24" height="24" viewBox="0 0 24 24" fill="none" xmlns="http://www.w3.org/2000/svg">
<path d="M12.146 8.58304L10.846 6.49304C10.7511 6.34081 10.6187 6.21552 10.4615 6.12921C10.3043 6.0429 10.1275 5.99846 9.94819 6.00017C9.76885 6.00188 9.59296 6.04967 9.43741 6.13896C9.28186 6.22825 9.15189 6.35603 9.05997 6.51004L3.14997 16.418C3.05528 16.5767 3.00431 16.7577 3.00226 16.9424C3.00021 17.1272 3.04714 17.3092 3.13829 17.47C3.22943 17.6307 3.36153 17.7644 3.52114 17.8575C3.68075 17.9507 3.86218 17.9998 4.04697 18H7.95997M20.0429 18C20.7859 18 21.2439 17.157 20.8629 16.495L16.8189 9.48201C16.738 9.33571 16.6193 9.21376 16.4753 9.12885C16.3313 9.04393 16.1671 8.99915 15.9999 8.99915C15.8327 8.99915 15.6686 9.04393 15.5246 9.12885C15.3805 9.21376 15.2619 9.33571 15.1809 9.48201L11.1379 16.495C10.7559 17.157 11.2139 18 11.9569 18H20.0429Z" stroke="currentColor" stroke-width="1.5" stroke-linecap="round" stroke-linejoin="round"/>
</svg>
