<svg width="24" height="24" viewBox="0 0 24 24" fill="none" xmlns="http://www.w3.org/2000/svg">
<path d="M12 21V12M12 12L4.5 7.5M12 12L19.5 7.5M12 3V7.5M19.5 16L16 14M8 14L4.5 16M19.875 6.26996C20.2187 6.46542 20.5041 6.74893 20.7018 7.09131C20.8995 7.4337 21.0025 7.82258 21 8.21796V15.502C21 16.311 20.557 17.057 19.842 17.45L13.092 21.72C12.7574 21.9037 12.3818 22 12 22C11.6182 22 11.2426 21.9037 10.908 21.72L4.158 17.45C3.80817 17.2588 3.51612 16.9771 3.31241 16.6344C3.1087 16.2917 3.0008 15.9006 3 15.502V8.21696C3 7.40796 3.443 6.66296 4.158 6.26996L10.908 2.28996C11.2525 2.09999 11.6396 2.00037 12.033 2.00037C12.4264 2.00037 12.8135 2.09999 13.158 2.28996L19.908 6.26996H19.875ZM15.5 9.43003C15.6532 9.51847 15.7802 9.64597 15.868 9.79951C15.9559 9.95305 16.0014 10.1271 16 10.304V13.572C15.9999 13.7504 15.9521 13.9255 15.8616 14.0792C15.771 14.2329 15.641 14.3595 15.485 14.446L12.485 16.363C12.3366 16.4453 12.1697 16.4885 12 16.4885C11.8303 16.4885 11.6634 16.4453 11.515 16.363L8.515 14.446C8.35916 14.3596 8.22924 14.2331 8.1387 14.0796C8.04815 13.9261 8.00027 13.7512 8 13.573V10.304C7.99999 10.1258 8.04764 9.95073 8.13801 9.79706C8.22839 9.64339 8.3582 9.51667 8.514 9.43003L11.514 7.64403C11.825 7.47103 12.204 7.47103 12.514 7.64403L15.514 9.43103L15.5 9.43003Z" stroke="currentColor" stroke-width="1.5" stroke-linecap="round" stroke-linejoin="round"/>
</svg>
