<svg width="24" height="24" viewBox="0 0 24 24" fill="none" xmlns="http://www.w3.org/2000/svg">
<path d="M17.1 8.64801C16.997 8.74369 16.8622 8.79778 16.7216 8.79981C16.5811 8.80184 16.4447 8.75167 16.339 8.65901C15.3154 7.79501 14.0195 7.32042 12.68 7.31901C11.578 7.31901 10.475 7.68201 10.475 8.69301C10.475 9.71601 11.657 10.057 13.021 10.568C15.407 11.364 17.384 12.364 17.384 14.705C17.384 17.25 15.407 19 12.18 19.193L11.885 20.557C11.8588 20.6824 11.7902 20.7949 11.6908 20.8755C11.5913 20.9562 11.4671 21.0002 11.339 21H9.30503L9.20303 20.989C9.05747 20.9564 8.93058 20.8679 8.84975 20.7425C8.76892 20.6172 8.74064 20.465 8.77103 20.319L9.08903 18.875C7.86419 18.568 6.73776 17.9541 5.81603 17.091V17.08C5.76508 17.0294 5.72465 16.9691 5.69707 16.9028C5.66948 16.8365 5.65527 16.7653 5.65527 16.6935C5.65527 16.6217 5.66948 16.5505 5.69707 16.4842C5.72465 16.4179 5.76508 16.3577 5.81603 16.307L6.95303 15.205C7.16703 15.005 7.50003 15.005 7.71403 15.205C8.75385 16.1873 10.1357 16.7254 11.566 16.705C13.044 16.705 14.032 16.08 14.032 15.091C14.032 14.102 13.032 13.841 11.146 13.137C9.14603 12.421 7.24803 11.409 7.24803 9.04601C7.24803 6.29601 9.53203 4.95501 12.237 4.83001L12.521 3.43201C12.5473 3.30779 12.6162 3.19665 12.7157 3.11778C12.8152 3.03891 12.9391 2.99725 13.066 3.00001H15.089L15.203 3.01201C15.2732 3.02674 15.3397 3.05519 15.3989 3.09572C15.458 3.13625 15.5085 3.18807 15.5475 3.2482C15.5866 3.30832 15.6133 3.37556 15.6263 3.44607C15.6392 3.51657 15.6381 3.58893 15.623 3.65901L15.316 5.21601C16.3475 5.55831 17.3039 6.0946 18.134 6.79601L18.157 6.81801C18.373 7.04601 18.373 7.38701 18.157 7.59101L17.1 8.64801Z" stroke="currentColor" stroke-width="1.5" stroke-linecap="round" stroke-linejoin="round"/>
</svg>
