<svg width="24" height="24" viewBox="0 0 24 24" fill="none" xmlns="http://www.w3.org/2000/svg">
<path d="M17 10C17 10 15.624 13.606 15.5 14C15.454 13.6 14 6 14 6C11.373 6 10.234 7.562 9.5 9.5C9.5 9.5 7.657 14.093 7.5 14.5C7.487 14.132 7 10 7 10C6.85 7.629 4.789 6.02 3 6.02L5 19C7.745 18.987 9.72 17.438 10.5 15.5C10.5 15.5 11.94 11.2 12 11C12.013 11.18 13 19 13 19C15.758 19 17.694 17.374 18.5 15.5L22 6C19.268 6 17.747 8.055 17 10Z" stroke="currentColor" stroke-width="1.5" stroke-linecap="round" stroke-linejoin="round"/>
</svg>
