<svg width="24" height="24" viewBox="0 0 24 24" fill="none" xmlns="http://www.w3.org/2000/svg">
<path d="M19 16H17C16.4696 16 15.9609 15.7893 15.5858 15.4142C15.2107 15.0391 15 14.5304 15 14C15 13.4696 14.7893 12.9609 14.4142 12.5858C14.0391 12.2107 13.5304 12 13 12H12M9 8H5M5 16H9M10.139 3.46299C10.612 1.51299 13.388 1.51299 13.861 3.46299C13.932 3.75611 14.0712 4.02832 14.2673 4.25748C14.4634 4.48663 14.7109 4.66626 14.9895 4.78174C15.2681 4.89722 15.57 4.9453 15.8707 4.92206C16.1715 4.89882 16.4624 4.80491 16.72 4.64799C18.434 3.60299 20.398 5.56599 19.353 7.28099C19.1963 7.53846 19.1025 7.82927 19.0793 8.12979C19.0561 8.43031 19.1041 8.73207 19.2195 9.01054C19.3349 9.289 19.5143 9.53632 19.7432 9.7324C19.9721 9.92848 20.2441 10.0678 20.537 10.139C22.487 10.612 22.487 13.388 20.537 13.861C20.2439 13.932 19.9717 14.0712 19.7425 14.2673C19.5133 14.4634 19.3337 14.7109 19.2182 14.9895C19.1028 15.2681 19.0547 15.57 19.0779 15.8707C19.1012 16.1715 19.1951 16.4624 19.352 16.72C20.397 18.434 18.434 20.398 16.719 19.353C16.4615 19.1963 16.1707 19.1025 15.8702 19.0793C15.5697 19.0561 15.2679 19.1041 14.9894 19.2195C14.711 19.3349 14.4637 19.5143 14.2676 19.7432C14.0715 19.9721 13.9322 20.2441 13.861 20.537C13.388 22.487 10.612 22.487 10.139 20.537C10.068 20.2439 9.92873 19.9717 9.73264 19.7425C9.53655 19.5133 9.28912 19.3337 9.01051 19.2182C8.73189 19.1028 8.42994 19.0547 8.12923 19.0779C7.82853 19.1012 7.53755 19.1951 7.27999 19.352C5.56599 20.397 3.60199 18.434 4.64699 16.719C4.80371 16.4615 4.89748 16.1707 4.92067 15.8702C4.94387 15.5697 4.89583 15.2679 4.78047 14.9894C4.6651 14.711 4.48567 14.4637 4.25675 14.2676C4.02783 14.0715 3.75587 13.9322 3.46299 13.861C1.51299 13.388 1.51299 10.612 3.46299 10.139C3.75611 10.068 4.02832 9.92873 4.25748 9.73264C4.48663 9.53655 4.66626 9.28912 4.78174 9.01051C4.89722 8.73189 4.9453 8.42994 4.92206 8.12923C4.89882 7.82853 4.80491 7.53755 4.64799 7.27999C3.60299 5.56599 5.56599 3.60199 7.28099 4.64699C7.53836 4.80416 7.82922 4.89829 8.12988 4.92171C8.43053 4.94513 8.73247 4.89717 9.01107 4.78175C9.28967 4.66633 9.53706 4.48672 9.73307 4.25754C9.92908 4.02837 10.0682 3.75612 10.139 3.46299ZM8 12H14C14.5304 12 15.0391 11.7893 15.4142 11.4142C15.7893 11.0391 16 10.5304 16 10C16 9.46957 15.7893 8.96086 15.4142 8.58579C15.0391 8.21071 14.5304 8 14 8H8V16V12Z" stroke="currentColor" stroke-width="1.5" stroke-linecap="round" stroke-linejoin="round"/>
</svg>
