<svg width="24" height="24" viewBox="0 0 24 24" fill="none" xmlns="http://www.w3.org/2000/svg">
<path d="M14.0581 3.41001C12.2511 4.17701 11.0631 5.86301 11.0021 7.79001L11.0001 7.97201L10.7571 7.94901C8.36508 7.68001 6.25908 6.43701 4.81308 4.41801C4.71517 4.28118 4.58431 4.17126 4.43262 4.09844C4.28094 4.02562 4.11333 3.99226 3.94532 4.00143C3.77732 4.0106 3.61434 4.06202 3.47148 4.15092C3.32863 4.23982 3.21051 4.36333 3.12808 4.51001L3.03108 4.69601L2.98208 4.79501C2.26308 6.28001 1.79208 8.08501 1.96508 9.99801L1.99508 10.271C2.27808 12.534 3.49508 14.486 5.77408 15.95L5.94708 16.057L5.86608 16.1C4.55108 16.763 3.34808 17.052 2.03908 17C0.98308 16.96 0.59308 18.372 1.52108 18.878C5.11908 20.839 8.98208 21.444 12.3131 20.478C16.3731 19.298 19.4651 16.255 20.6481 12.045L20.7751 11.55C21.0131 10.557 21.1471 9.54401 21.1761 8.52601L21.1791 8.19401L21.5721 7.41501L22.0121 6.55301L22.2261 6.11901L22.3441 5.87201C22.6091 5.30701 22.8001 4.83901 22.9181 4.44201L22.9321 4.38601L22.9401 4.36801C23.1601 3.77501 22.7741 3.01001 21.9991 3.01001L21.8771 3.01701C21.7981 3.02672 21.7205 3.04586 21.6461 3.07401L21.5601 3.11201C21.2747 3.2506 20.9808 3.37084 20.6801 3.47201L20.3241 3.58701L20.0531 3.66701L19.2811 3.88101C17.9451 2.76301 16.1371 2.62701 14.2691 3.32701L14.0581 3.41001Z" fill="currentColor"/>
</svg>
