<svg width="24" height="24" viewBox="0 0 24 24" fill="none" xmlns="http://www.w3.org/2000/svg">
<path d="M7 13V17M7 17H17M7 17V21M17 17V13L12 8M17 17V21M14.8 5.19995L3 17M19.072 20.9999H4.928C4.41666 20.9999 3.92627 20.7968 3.5647 20.4352C3.20313 20.0737 3 19.5833 3 19.0719V12.2149C3 11.7029 3.203 11.2149 3.566 10.8499L10.636 3.78694C10.815 3.60785 11.0276 3.46579 11.2616 3.36886C11.4955 3.27193 11.7463 3.22205 11.9995 3.22205C12.2527 3.22205 12.5035 3.27193 12.7374 3.36886C12.9714 3.46579 13.184 3.60785 13.363 3.78694L20.434 10.8499C20.797 11.2119 21 11.7029 21 12.2149V19.0719C21 19.5833 20.7969 20.0737 20.4353 20.4352C20.0737 20.7968 19.5833 20.9999 19.072 20.9999Z" stroke="currentColor" stroke-width="1.5" stroke-linecap="round" stroke-linejoin="round"/>
</svg>
