<svg width="24" height="24" viewBox="0 0 24 24" fill="none" xmlns="http://www.w3.org/2000/svg">
<path d="M14.2769 16L17.5289 12.748C17.8216 12.4442 17.9834 12.0376 17.9794 11.6157C17.9755 11.1939 17.8061 10.7904 17.5077 10.4922C17.2093 10.1939 16.8058 10.0247 16.3839 10.0209C15.9621 10.0172 15.5556 10.1791 15.2519 10.472L11.9999 13.723L8.74791 10.472C8.44332 10.1839 8.03839 10.026 7.6192 10.0318C7.20001 10.0377 6.79963 10.2068 6.50319 10.5032C6.20674 10.7997 6.03762 11.2001 6.03178 11.6193C6.02594 12.0384 6.18384 12.4434 6.47191 12.748L9.72291 16L6.47191 19.252C6.31786 19.4004 6.19494 19.578 6.11032 19.7745C6.0257 19.971 5.98109 20.1823 5.97908 20.3962C5.97706 20.6101 6.0177 20.8223 6.09861 21.0203C6.17952 21.2183 6.29908 21.3983 6.45031 21.5496C6.60154 21.7009 6.7814 21.8205 6.97939 21.9015C7.17738 21.9825 7.38952 22.0232 7.60343 22.0213C7.81734 22.0194 8.02872 21.9749 8.22522 21.8903C8.42173 21.8058 8.59942 21.6829 8.74791 21.529L11.9999 18.277L15.2519 21.529C15.4014 21.6785 15.5789 21.7971 15.7743 21.878C15.9696 21.9589 16.179 22.0005 16.3904 22.0005C16.6018 22.0005 16.8112 21.9589 17.0066 21.878C17.2019 21.7971 17.3794 21.6785 17.5289 21.529C17.6784 21.3795 17.797 21.202 17.8779 21.0066C17.9588 20.8113 18.0005 20.6019 18.0005 20.3905C18.0005 20.179 17.9588 19.9697 17.8779 19.7743C17.797 19.579 17.6784 19.4015 17.5289 19.252L14.2769 16Z" stroke="currentColor" stroke-width="1.5" stroke-linecap="round" stroke-linejoin="round"/>
<path d="M9 5C9 5.79565 9.31607 6.55871 9.87868 7.12132C10.4413 7.68393 11.2044 8 12 8C12.7956 8 13.5587 7.68393 14.1213 7.12132C14.6839 6.55871 15 5.79565 15 5C15 4.20435 14.6839 3.44129 14.1213 2.87868C13.5587 2.31607 12.7956 2 12 2C11.2044 2 10.4413 2.31607 9.87868 2.87868C9.31607 3.44129 9 4.20435 9 5Z" stroke="currentColor" stroke-width="1.5" stroke-linecap="round" stroke-linejoin="round"/>
</svg>
