<svg width="24" height="24" viewBox="0 0 24 24" fill="none" xmlns="http://www.w3.org/2000/svg">
<path d="M10.5858 9.506H8.15585C7.72185 8.574 7.45585 8 6.55985 8L4.15585 8.019C3.49385 8.019 2.80285 8.611 3.05285 9.506L5.26885 18.942C5.75485 20.685 6.07985 21 6.41385 21M6.41385 21H7.05385M6.41385 21L13.8988 20.999C15.0938 20.999 15.8328 20.529 16.2528 19.396L20.9398 4.287C21.1598 3.714 20.7598 3 19.9198 3H14.2748C12.9268 3 12.4928 3.618 12.1668 4.448L7.70985 18.938C7.17385 20.381 6.80385 21 6.41385 21Z" stroke="currentColor" stroke-width="1.5" stroke-linecap="round" stroke-linejoin="round"/>
</svg>
