<svg width="24" height="24" viewBox="0 0 24 24" fill="none" xmlns="http://www.w3.org/2000/svg">
<path d="M6.306 8.71106C3.704 9.43406 2 10.6371 2 12.0001C2 14.2101 6.477 16.0001 12 16.0001C12.773 16.0001 13.526 15.9651 14.248 15.8981M17.692 15.289C20.295 14.567 22 13.363 22 12C22 9.79 17.523 8 12 8C11.227 8 10.474 8.035 9.75 8.102M6.30511 15.287C5.62911 17.902 5.82011 19.98 7.00011 20.66C8.91311 21.765 12.7031 18.783 15.4641 14C15.8511 13.33 16.1971 12.661 16.5001 12M17.694 8.71605C18.371 6.10005 18.181 4.02005 17 3.34005C15.087 2.23505 11.297 5.21705 8.53602 10C8.14902 10.67 7.80302 11.34 7.49902 12M12.0001 5.42394C10.0751 3.53194 8.18011 2.65794 7.00011 3.33994C5.08711 4.44394 5.77411 9.21694 8.53611 13.9999C8.92211 14.6699 9.32911 15.3039 9.74811 15.8959M12 18.574C13.926 20.467 15.821 21.342 17 20.66C18.913 19.556 18.226 14.783 15.464 10C15.089 9.35003 14.684 8.71703 14.252 8.10303M11.5001 12.866C11.6139 12.9327 11.7397 12.9762 11.8704 12.9941C12.0011 13.0119 12.134 13.0038 12.2615 12.9701C12.389 12.9364 12.5085 12.8778 12.6133 12.7977C12.7181 12.7176 12.8059 12.6175 12.8719 12.5033C12.9378 12.3891 12.9805 12.263 12.9975 12.1322C13.0145 12.0014 13.0055 11.8686 12.9709 11.7413C12.9364 11.614 12.877 11.4948 12.7962 11.3906C12.7154 11.2864 12.6148 11.1992 12.5001 11.134C12.2706 11.0035 11.9987 10.969 11.7439 11.0382C11.489 11.1074 11.2719 11.2746 11.1398 11.5033C11.0078 11.732 10.9716 12.0036 11.0391 12.2589C11.1066 12.5142 11.2723 12.7324 11.5001 12.866Z" stroke="currentColor" stroke-width="1.5" stroke-linecap="round" stroke-linejoin="round"/>
</svg>
