<svg width="24" height="24" viewBox="0 0 24 24" fill="none" xmlns="http://www.w3.org/2000/svg">
<path d="M2 16V8M6 8V16M2 12H6M11 12C11.5304 12 12.0391 12.2107 12.4142 12.5858C12.7893 12.9609 13 13.4696 13 14C13 14.5304 12.7893 15.0391 12.4142 15.4142C12.0391 15.7893 11.5304 16 11 16H9V8H11C11.5304 8 12.0391 8.21071 12.4142 8.58579C12.7893 8.96086 13 9.46957 13 10C13 10.5304 12.7893 11.0391 12.4142 11.4142C12.0391 11.7893 11.5304 12 11 12ZM11 12H9M19 8C20.0609 8 21.0783 8.42143 21.8284 9.17157C22.5786 9.92172 23 10.9391 23 12C23 13.0609 22.5786 14.0783 21.8284 14.8284C21.0783 15.5786 20.0609 16 19 16C17.9391 16 16.9217 15.5786 16.1716 14.8284C15.4214 14.0783 15 13.0609 15 12C15 10.9391 15.4214 9.92172 16.1716 9.17157C16.9217 8.42143 17.9391 8 19 8ZM18 12C18 12.2652 18.1054 12.5196 18.2929 12.7071C18.4804 12.8946 18.7348 13 19 13C19.2652 13 19.5196 12.8946 19.7071 12.7071C19.8946 12.5196 20 12.2652 20 12C20 11.7348 19.8946 11.4804 19.7071 11.2929C19.5196 11.1054 19.2652 11 19 11C18.7348 11 18.4804 11.1054 18.2929 11.2929C18.1054 11.4804 18 11.7348 18 12Z" stroke="currentColor" stroke-width="1.5" stroke-linecap="round" stroke-linejoin="round"/>
</svg>
