<svg width="24" height="24" viewBox="0 0 24 24" fill="none" xmlns="http://www.w3.org/2000/svg">
<path d="M8 10H5V13H8M8 10V13M8 10H11M8 10V7H11M8 13H11M11 10V13M11 10H14M11 10V7M11 13H14V10M14 10V7M11 7H14M11 7V4H14V7M4.57104 18C6.07104 18 6.61804 17.926 7.52904 17.22M10 16V16.01M22 12.54C20.196 12.195 19.299 11.46 18.477 9.59998C17.99 10.296 17.375 11.168 17.557 12C17.585 12.238 17.237 13 17 13H3C3 18.208 6.164 20 9.196 20C13.32 20.022 17.024 18.624 19.05 15C20.196 14.899 21.346 13.495 22 12.54Z" stroke="currentColor" stroke-width="1.5" stroke-linecap="round" stroke-linejoin="round"/>
</svg>
