<svg width="24" height="24" viewBox="0 0 24 24" fill="none" xmlns="http://www.w3.org/2000/svg">
<path d="M15.697 9.43404C15.1404 8.63236 14.3382 8.03337 13.4115 7.72738C12.4847 7.42139 11.4836 7.42499 10.5591 7.73763C9.63452 8.05028 8.83669 8.65503 8.28586 9.46069C7.73502 10.2664 7.46104 11.2293 7.50523 12.2042C7.54941 13.1792 7.90937 14.1134 8.53083 14.8659C9.15228 15.6184 10.0016 16.1485 10.9506 16.3763C11.8996 16.604 12.8969 16.517 13.7922 16.1285C14.6875 15.7399 15.4322 15.0708 15.914 14.222M13.5 14H16V16.5M3 12C3 13.1819 3.23279 14.3522 3.68508 15.4442C4.13738 16.5361 4.80031 17.5282 5.63604 18.364C6.47177 19.1997 7.46392 19.8626 8.55585 20.3149C9.64778 20.7672 10.8181 21 12 21C13.1819 21 14.3522 20.7672 15.4442 20.3149C16.5361 19.8626 17.5282 19.1997 18.364 18.364C19.1997 17.5282 19.8626 16.5361 20.3149 15.4442C20.7672 14.3522 21 13.1819 21 12C21 10.8181 20.7672 9.64778 20.3149 8.55585C19.8626 7.46392 19.1997 6.47177 18.364 5.63604C17.5282 4.80031 16.5361 4.13738 15.4442 3.68508C14.3522 3.23279 13.1819 3 12 3C10.8181 3 9.64778 3.23279 8.55585 3.68508C7.46392 4.13738 6.47177 4.80031 5.63604 5.63604C4.80031 6.47177 4.13738 7.46392 3.68508 8.55585C3.23279 9.64778 3 10.8181 3 12Z" stroke="currentColor" stroke-width="1.5" stroke-linecap="round" stroke-linejoin="round"/>
</svg>
