<svg width="24" height="24" viewBox="0 0 24 24" fill="none" xmlns="http://www.w3.org/2000/svg">
<path d="M7.5 8H10.5V16L8.5 15M16.5 8H14C13.8674 8 13.7402 8.05268 13.6464 8.14645C13.5527 8.24021 13.5 8.36739 13.5 8.5V11.5C13.5 11.6326 13.5527 11.7598 13.6464 11.8536C13.7402 11.9473 13.8674 12 14 12H15.423C15.4946 12 15.5653 12.0154 15.6304 12.0451C15.6955 12.0748 15.7535 12.1181 15.8004 12.1722C15.8474 12.2262 15.8821 12.2897 15.9024 12.3583C15.9227 12.4269 15.928 12.4991 15.918 12.57L15.5 15.5L13.5 16M20 4L18 18.5L12 20.5L6 18.5L4 4H20Z" stroke="currentColor" stroke-width="1.5" stroke-linecap="round" stroke-linejoin="round"/>
</svg>
