<svg width="24" height="24" viewBox="0 0 24 24" fill="none" xmlns="http://www.w3.org/2000/svg">
<path d="M13.5 13H16V16M15.024 9.382C14.5855 8.87545 14.0268 8.48717 13.3991 8.25278C12.7715 8.01838 12.095 7.9454 11.4319 8.04052C10.7687 8.13564 10.14 8.39582 9.60353 8.79718C9.06707 9.19853 8.64002 9.72821 8.36157 10.3376C8.08313 10.947 7.96221 11.6165 8.00991 12.2848C8.05761 12.9531 8.27241 13.5987 8.63458 14.1623C8.99676 14.726 9.49472 15.1896 10.0827 15.5107C10.6708 15.8318 11.33 16 12 16C13.862 16 14.554 14.722 15 13M21 12C21 13.1819 20.7672 14.3522 20.3149 15.4442C19.8626 16.5361 19.1997 17.5282 18.364 18.364C17.5282 19.1997 16.5361 19.8626 15.4442 20.3149C14.3522 20.7672 13.1819 21 12 21C10.8181 21 9.64778 20.7672 8.55585 20.3149C7.46392 19.8626 6.47177 19.1997 5.63604 18.364C4.80031 17.5282 4.13738 16.5361 3.68508 15.4442C3.23279 14.3522 3 13.1819 3 12C3 9.61305 3.94821 7.32387 5.63604 5.63604C7.32387 3.94821 9.61305 3 12 3C14.3869 3 16.6761 3.94821 18.364 5.63604C20.0518 7.32387 21 9.61305 21 12Z" stroke="currentColor" stroke-width="1.5" stroke-linecap="round" stroke-linejoin="round"/>
</svg>
