<svg width="24" height="24" viewBox="0 0 24 24" fill="none" xmlns="http://www.w3.org/2000/svg">
<path d="M8.5 22L12 2M4.18605 16.2019L7.80105 21.5149C8.06605 21.9049 8.55505 22.085 9.01605 21.962L19.1821 19.2439C19.3365 19.2041 19.4803 19.1308 19.6032 19.0291C19.7261 18.9275 19.8251 18.8 19.8931 18.6558C19.9612 18.5115 19.9967 18.3541 19.997 18.1946C19.9973 18.0351 19.9625 17.8775 19.8951 17.7329L12.3901 2.24995C12.3546 2.17748 12.3002 2.11592 12.2327 2.07178C12.1652 2.02764 12.087 2.00255 12.0064 1.99917C11.9258 1.99579 11.8457 2.01424 11.7748 2.05257C11.7038 2.09091 11.6444 2.1477 11.6031 2.21695L4.15005 15.0549C4.04666 15.2299 3.99522 15.4307 4.00178 15.6338C4.00833 15.837 4.07159 16.034 4.18605 16.2019Z" stroke="currentColor" stroke-width="1.5" stroke-linecap="round" stroke-linejoin="round"/>
</svg>
