<svg width="24" height="24" viewBox="0 0 24 24" fill="none" xmlns="http://www.w3.org/2000/svg">
<path d="M15 15H15.5C18.538 15 21 13.657 21 12C21 10.343 18.538 9 15.5 9C13.664 9 12.038 9.49 11.04 10.245M9 9H8.5C5.462 9 3 10.343 3 12C3 13.657 5.462 15 8.5 15C10.344 15 11.976 14.505 12.974 13.745M15 9V8.5C15 5.462 13.657 3 12 3C10.343 3 9 5.462 9 8.5C9 10.333 9.49 11.957 10.241 12.956M9 15V15.5C9 18.538 10.343 21 12 21C13.657 21 15 18.538 15 15.5C15 13.658 14.506 12.028 13.748 11.03M10 12C10 12.5304 10.2107 13.0391 10.5858 13.4142C10.9609 13.7893 11.4696 14 12 14C12.5304 14 13.0391 13.7893 13.4142 13.4142C13.7893 13.0391 14 12.5304 14 12C14 11.4696 13.7893 10.9609 13.4142 10.5858C13.0391 10.2107 12.5304 10 12 10C11.4696 10 10.9609 10.2107 10.5858 10.5858C10.2107 10.9609 10 11.4696 10 12Z" stroke="currentColor" stroke-width="1.5" stroke-linecap="round" stroke-linejoin="round"/>
</svg>
