<svg width="24" height="24" viewBox="0 0 24 24" fill="none" xmlns="http://www.w3.org/2000/svg">
<path d="M9.64978 6.95606C8.93706 7.99367 8.61 9.24801 8.72531 10.5015C8.84062 11.755 9.39103 12.9287 10.2811 13.8188C11.1711 14.709 12.3447 15.2596 13.5982 15.3751C14.8517 15.4905 16.1061 15.1636 17.1438 14.4511M21 12C21 13.1819 20.7672 14.3522 20.3149 15.4442C19.8626 16.5361 19.1997 17.5282 18.364 18.364C17.5282 19.1997 16.5361 19.8626 15.4442 20.3149C14.3522 20.7672 13.1819 21 12 21C10.8181 21 9.64778 20.7672 8.55585 20.3149C7.46392 19.8626 6.47177 19.1997 5.63604 18.364C4.80031 17.5282 4.13738 16.5361 3.68508 15.4442C3.23279 14.3522 3 13.1819 3 12C3 10.8181 3.23279 9.64778 3.68508 8.55585C4.13738 7.46392 4.80031 6.47177 5.63604 5.63604C6.47177 4.80031 7.46392 4.13738 8.55585 3.68509C9.64778 3.23279 10.8181 3 12 3M21 12C21 10.8181 20.7672 9.64778 20.3149 8.55585C19.8626 7.46392 19.1997 6.47177 18.364 5.63604C17.5282 4.80031 16.5361 4.13738 15.4442 3.68509C14.3522 3.23279 13.1819 3 12 3M21 12C21 11.653 20.9822 11.307 20.9452 10.963C20.8482 10.066 20.1522 9.39002 19.3252 9.39002C19.108 9.39194 18.8937 9.43918 18.6958 9.52873C18.4979 9.61827 18.321 9.74814 18.1762 9.91002C17.8712 10.243 17.7002 10.693 17.7002 11.163V12.338M12 3C12.3464 2.99974 12.6927 3.01844 13.0371 3.05601C13.9341 3.15601 14.6101 3.87401 14.6101 4.72601C14.6101 5.17001 14.4231 5.59601 14.0901 5.91001C13.7571 6.22401 13.3071 6.40001 12.8371 6.40001H11.6621M17.7001 12.137C17.7003 13.272 17.3639 14.3815 16.7335 15.3253C16.1031 16.269 15.2069 17.0046 14.1584 17.4391C13.1099 17.8735 11.9561 17.9872 10.8429 17.7658C9.72979 17.5445 8.70728 16.9979 7.90475 16.1954C7.10221 15.3929 6.5557 14.3704 6.33433 13.2572C6.11296 12.1441 6.22667 10.9903 6.66109 9.94173C7.09551 8.8932 7.83112 7.99706 8.77489 7.36664C9.71865 6.73621 10.8282 6.39983 11.9631 6.40003" stroke="currentColor" stroke-width="1.5" stroke-linecap="round" stroke-linejoin="round"/>
</svg>
