<svg width="24" height="24" viewBox="0 0 24 24" fill="none" xmlns="http://www.w3.org/2000/svg">
<path d="M11.9999 9C11.7347 9 11.4803 8.89464 11.2928 8.70711C11.1052 8.51957 10.9999 8.26522 10.9999 8C10.9999 7.73478 11.1052 7.48043 11.2928 7.29289C11.4803 7.10536 11.7347 7 11.9999 7C12.2651 7 12.5194 7.10536 12.707 7.29289C12.8945 7.48043 12.9999 7.73478 12.9999 8C12.9999 8.26522 12.8945 8.51957 12.707 8.70711C12.5194 8.89464 12.2651 9 11.9999 9ZM11.9999 9V15M11.9999 15C12.2651 15 12.5194 15.1054 12.707 15.2929C12.8945 15.4804 12.9999 15.7348 12.9999 16C12.9999 16.2652 12.8945 16.5196 12.707 16.7071C12.5194 16.8946 12.2651 17 11.9999 17C11.7347 17 11.4803 16.8946 11.2928 16.7071C11.1052 16.5196 10.9999 16.2652 10.9999 16C10.9999 15.7348 11.1052 15.4804 11.2928 15.2929C11.4803 15.1054 11.7347 15 11.9999 15ZM14.9999 11L12.9999 9M10.9999 6.99998L9.09985 5.09998M14.9999 12C14.9999 12.2652 15.1052 12.5196 15.2928 12.7071C15.4803 12.8946 15.7347 13 15.9999 13C16.2651 13 16.5194 12.8946 16.707 12.7071C16.8945 12.5196 16.9999 12.2652 16.9999 12C16.9999 11.7348 16.8945 11.4804 16.707 11.2929C16.5194 11.1054 16.2651 11 15.9999 11C15.7347 11 15.4803 11.1054 15.2928 11.2929C15.1052 11.4804 14.9999 11.7348 14.9999 12ZM13.4459 2.60006L21.4009 10.5541C21.7844 10.9376 21.9999 11.4577 21.9999 12.0001C21.9999 12.5424 21.7844 13.0625 21.4009 13.4461L13.4459 21.4011C13.0624 21.7845 12.5423 22 11.9999 22C11.4576 22 10.9374 21.7845 10.5539 21.4011L2.59893 13.4461C2.21544 13.0625 2 12.5424 2 12.0001C2 11.4577 2.21544 10.9376 2.59893 10.5541L10.5539 2.59906C10.9374 2.21556 11.4576 2.00012 11.9999 2.00012C12.5423 2.00012 13.0624 2.21656 13.4459 2.60006Z" stroke="currentColor" stroke-width="1.5" stroke-linecap="round" stroke-linejoin="round"/>
</svg>
