<svg width="24" height="24" viewBox="0 0 24 24" fill="none" xmlns="http://www.w3.org/2000/svg">
<path d="M18.364 18.364C19.6227 17.1054 20.4798 15.5017 20.8271 13.7559C21.1743 12.0101 20.9961 10.2005 20.3149 8.55595C19.6337 6.91142 18.4802 5.50582 17.0001 4.51689C15.5201 3.52796 13.78 3.00012 12 3.00012C10.22 3.00012 8.47992 3.52796 6.99988 4.51689C5.51984 5.50582 4.36629 6.91142 3.6851 8.55595C3.00391 10.2005 2.82567 12.0101 3.17293 13.7559C3.52019 15.5017 4.37734 17.1054 5.636 18.364M11.7661 22H12.2341C12.7216 22.0001 13.1924 21.8221 13.558 21.4995C13.9235 21.1768 14.1586 20.7318 14.2191 20.248L14.7191 16.248C14.7542 15.9666 14.7291 15.6809 14.6455 15.4099C14.5618 15.1389 14.4214 14.8888 14.2337 14.6762C14.046 14.4636 13.8152 14.2934 13.5566 14.1768C13.2981 14.0602 13.0177 13.9999 12.7341 14H11.2661C10.9824 13.9999 10.7021 14.0602 10.4435 14.1768C10.185 14.2934 9.95416 14.4636 9.76644 14.6762C9.57871 14.8888 9.43835 15.1389 9.35466 15.4099C9.27098 15.6809 9.24589 15.9666 9.28106 16.248L9.78106 20.248C9.84152 20.7318 10.0766 21.1768 10.4422 21.4995C10.8077 21.8221 11.2785 22.0001 11.7661 22ZM10 9C10 9.53043 10.2107 10.0391 10.5858 10.4142C10.9609 10.7893 11.4696 11 12 11C12.5304 11 13.0391 10.7893 13.4142 10.4142C13.7893 10.0391 14 9.53043 14 9C14 8.46957 13.7893 7.96086 13.4142 7.58579C13.0391 7.21071 12.5304 7 12 7C11.4696 7 10.9609 7.21071 10.5858 7.58579C10.2107 7.96086 10 8.46957 10 9Z" stroke="currentColor" stroke-width="1.5" stroke-linecap="round" stroke-linejoin="round"/>
</svg>
