<svg width="24" height="24" viewBox="0 0 24 24" fill="none" xmlns="http://www.w3.org/2000/svg">
<path d="M20 6.5C20.054 9.95 14 11 14 11C11.99 6 13.466 3 14.974 3C16.482 3 16.984 5 16.984 5C17.515 3.31 19.962 4.176 20 6.5ZM20 6.5C20.055 9.95 13.9799 11 13.9799 11H13.9809C11.9579 6 13.4449 3 14.9579 3C16.4699 3 16.9749 5 16.9749 5C17.5069 3.31 19.962 4.176 20 6.5ZM13 13.9801L13.062 14.2891L13.143 14.6391L13.218 14.9291L13.31 15.2571L13.42 15.6151L13.481 15.8031L13.62 16.1951C14.26 17.9251 15.461 20.0321 17.5 20.0001C19.824 19.9621 20.69 17.5071 19 16.9751L19.148 16.9301L19.313 16.8721C19.3458 16.8595 19.3785 16.8465 19.411 16.8331L19.633 16.7351C20.219 16.4551 21 15.9031 21 14.9581C21 13.4451 18 11.9581 13 13.9811V13.9801ZM10.0201 13L9.71112 13.062L9.36112 13.143L9.07112 13.218L8.74312 13.31L8.38512 13.42L8.19712 13.481L7.80512 13.62C6.07512 14.26 3.96812 15.46 4.00012 17.5C4.03812 19.824 6.49312 20.69 7.02512 19L7.07012 19.148L7.12812 19.313L7.16712 19.411L7.26512 19.633C7.54512 20.219 8.09712 21 9.04212 21C10.5551 21 12.0421 18 10.0191 13H10.0201ZM11 10.02L10.938 9.71098L10.857 9.36098L10.782 9.07098L10.69 8.74298L10.58 8.38498L10.452 8.00298L10.304 7.60398C9.646 5.91698 8.46 3.96998 6.5 3.99998C4.176 4.03798 3.31 6.49298 5 7.02498L4.852 7.06998L4.688 7.12798C4.6545 7.14054 4.62116 7.15354 4.588 7.16698L4.368 7.26498C3.78 7.54498 3 8.09698 3 9.04198C3 10.555 6 12.042 11 10.019V10.02Z" stroke="currentColor" stroke-width="1.5" stroke-linecap="round" stroke-linejoin="round"/>
</svg>
