<svg width="24" height="24" viewBox="0 0 24 24" fill="none" xmlns="http://www.w3.org/2000/svg">
<path d="M7.99988 14.5C8.49988 16.5 10.3579 17 11.9999 17C14.9049 17 15.9999 15.813 15.9999 14.5C15.9999 12.997 14.0729 12 11.9999 12C9.92688 12 7.99988 11 7.99988 9.5C7.99988 8.187 9.09488 7 11.9999 7C13.6419 7 15.4999 7.5 15.9999 9.5M11.9999 3.00003C13.4088 2.99972 14.798 3.33016 16.0558 3.96475C17.3137 4.59934 18.4049 5.52035 19.2418 6.65367C20.0787 7.78699 20.6379 9.10096 20.8743 10.4898C21.1107 11.8787 21.0178 13.3036 20.6029 14.65C20.979 15.4831 21.0925 16.411 20.9283 17.3102C20.764 18.2094 20.3298 19.0372 19.6835 19.6836C19.0372 20.3299 18.2093 20.7641 17.3101 20.9284C16.4109 21.0926 15.483 20.9791 14.6499 20.603C13.0857 21.0855 11.4195 21.1323 9.8307 20.7383C8.24188 20.3442 6.79061 19.5244 5.63311 18.3669C4.47561 17.2094 3.65572 15.7581 3.26169 14.1693C2.86767 12.5805 2.91442 10.9143 3.39694 9.35003C3.02051 8.51689 2.90677 7.58885 3.07088 6.68946C3.23498 5.79007 3.66913 4.962 4.31554 4.31548C4.96195 3.66896 5.78995 3.23467 6.68931 3.07042C7.58867 2.90616 8.51673 3.01974 9.34994 3.39603C10.2085 3.13235 11.1018 2.99887 11.9999 3.00003Z" stroke="currentColor" stroke-width="1.5" stroke-linecap="round" stroke-linejoin="round"/>
</svg>
