<svg width="24" height="24" viewBox="0 0 24 24" fill="none" xmlns="http://www.w3.org/2000/svg">
<path d="M2 6L7.981 8.392L7.342 14.429C7.162 15.322 7.402 16.248 7.992 16.943C8.28389 17.2868 8.64955 17.5604 9.06178 17.7434C9.47401 17.9264 9.9222 18.0141 10.373 18C11.3671 17.9703 12.3205 17.5991 13.0731 16.9489C13.8256 16.2987 14.3313 15.4092 14.505 14.43C14.325 15.323 14.565 16.249 15.155 16.944C15.4469 17.2875 15.8124 17.5608 16.2245 17.7437C16.6365 17.9265 17.0844 18.0141 17.535 18C18.5291 17.9703 19.4825 17.5991 20.2351 16.9489C20.9876 16.2987 21.4933 15.4092 21.667 14.43L22 9.797M14.5039 14.429L14.8379 11.429" stroke="currentColor" stroke-width="1.5" stroke-linecap="round" stroke-linejoin="round"/>
</svg>
