<svg width="24" height="24" viewBox="0 0 24 24" fill="none" xmlns="http://www.w3.org/2000/svg">
<path d="M12.9999 21C11.5729 19.974 9.40991 17.146 8.99991 15C8.51391 15.77 7.49891 17 6.99991 17C5.50091 16.112 6.42591 13.027 6.99991 11C5.40391 9.56695 4.53191 8.54195 4.49991 6.99995C1.14991 3.55995 4.05591 1.72995 6.99991 3.99995H7.99991C16.4819 4.49995 14.4209 12.07 16.9999 15.5C19.2949 16.022 20.6649 17.754 21.9999 19C19.9139 18.8 19.2159 18.656 18.4999 19C18.9779 20.64 20.6229 21.2 21.9999 22M9 7H9.01" stroke="currentColor" stroke-width="1.5" stroke-linecap="round" stroke-linejoin="round"/>
</svg>
