<svg width="24" height="24" viewBox="0 0 24 24" fill="none" xmlns="http://www.w3.org/2000/svg">
<path d="M2 5C9.109 9.1 12.956 15.131 14 19C15.074 14.33 18.49 10.06 22 8M7 9C6.722 14.494 4.663 16.33 3 19C7.013 17 9.02 14 18.05 14C22.062 14 21.56 16.5 19.05 17C21.05 17.5 21.558 22 17.043 19M12 8C12 8.53043 12.2107 9.03914 12.5858 9.41421C12.9609 9.78929 13.4696 10 14 10C14.5304 10 15.0391 9.78929 15.4142 9.41421C15.7893 9.03914 16 8.53043 16 8C16 7.46957 15.7893 6.96086 15.4142 6.58579C15.0391 6.21071 14.5304 6 14 6C13.4696 6 12.9609 6.21071 12.5858 6.58579C12.2107 6.96086 12 7.46957 12 8Z" stroke="currentColor" stroke-width="1.5" stroke-linecap="round" stroke-linejoin="round"/>
</svg>
