<svg width="24" height="24" viewBox="0 0 24 24" fill="none" xmlns="http://www.w3.org/2000/svg">
<path d="M7.53107 21C6.88107 21 6.53107 20.85 6.33507 20.73C6.06907 20.573 5.58207 20.167 5.13807 18.983C4.35887 16.7384 3.97419 14.3758 4.00107 12C4.01607 9.255 4.43707 6.93 5.13807 5.025C5.58207 3.825 6.06807 3.42 6.33507 3.262C6.52707 3.159 6.88007 3 7.53007 3C7.77407 3 8.06207 3.022 8.40107 3.075C10.675 3.50383 12.8521 4.34247 14.8261 5.55H14.8331C16.8502 6.72533 18.6407 8.25204 20.1201 10.058C20.9031 11.048 20.9991 11.685 20.9991 12C20.9991 12.315 20.9031 12.953 20.1201 13.943C18.64 15.7461 16.8495 17.2701 14.8331 18.443H14.8261C12.8525 19.6512 10.6753 20.4896 8.40107 20.917C8.11372 20.97 7.82327 20.9978 7.53107 21Z" stroke="currentColor" stroke-width="1.5" stroke-linecap="round" stroke-linejoin="round"/>
</svg>
