<svg width="24" height="24" viewBox="0 0 24 24" fill="none" xmlns="http://www.w3.org/2000/svg">
<path d="M10.4139 11.586C10.1343 11.3062 9.77789 11.1157 9.38991 11.0385C9.00194 10.9613 8.59977 11.0008 8.23428 11.1522C7.8688 11.3035 7.5564 11.5599 7.33661 11.8888C7.11683 12.2177 6.99951 12.6044 6.99951 13C6.99951 13.3956 7.11683 13.7823 7.33661 14.1112C7.5564 14.4401 7.8688 14.6965 8.23428 14.8478C8.59977 14.9992 9.00194 15.0387 9.38991 14.9615C9.77789 14.8843 10.1343 14.6938 10.4139 14.414M13 13C13 13.5304 13.2107 14.0391 13.5858 14.4142C13.9609 14.7893 14.4696 15 15 15C15.5304 15 16.0391 14.7893 16.4142 14.4142C16.7893 14.0391 17 13.5304 17 13C17 12.4696 16.7893 11.9609 16.4142 11.5858C16.0391 11.2107 15.5304 11 15 11C14.4696 11 13.9609 11.2107 13.5858 11.5858C13.2107 11.9609 13 12.4696 13 13ZM13 13V7M3 19V5C3 4.46957 3.21071 3.96086 3.58579 3.58579C3.96086 3.21071 4.46957 3 5 3H19C19.5304 3 20.0391 3.21071 20.4142 3.58579C20.7893 3.96086 21 4.46957 21 5V19C21 19.5304 20.7893 20.0391 20.4142 20.4142C20.0391 20.7893 19.5304 21 19 21H5C4.46957 21 3.96086 20.7893 3.58579 20.4142C3.21071 20.0391 3 19.5304 3 19Z" stroke="currentColor" stroke-width="1.5" stroke-linecap="round" stroke-linejoin="round"/>
</svg>
