<svg width="24" height="24" viewBox="0 0 24 24" fill="none" xmlns="http://www.w3.org/2000/svg">
<path d="M2 12C2 14.6522 3.05357 17.1957 4.92893 19.0711C6.8043 20.9464 9.34784 22 12 22C14.6522 22 17.1957 20.9464 19.0711 19.0711C20.9464 17.1957 22 14.6522 22 12C22 9.34784 20.9464 6.8043 19.0711 4.92893C17.1957 3.05357 14.6522 2 12 2C9.34784 2 6.8043 3.05357 4.92893 4.92893C3.05357 6.8043 2 9.34784 2 12Z" stroke="currentColor" stroke-width="1.5" stroke-linecap="round" stroke-linejoin="round"/>
<path d="M12.5559 6C13.2059 6 13.7909 6.373 14.0639 6.947L16.9029 14.795C16.976 14.9997 17.0077 15.2168 16.9964 15.4338C16.9851 15.6508 16.931 15.8634 16.8371 16.0594C16.7432 16.2554 16.6114 16.4308 16.4494 16.5756C16.2873 16.7204 16.0982 16.8317 15.8929 16.903C15.504 17.0413 15.0776 17.0309 14.6959 16.8738C14.3141 16.7167 14.0039 16.424 13.8249 16.052L13.3649 15H10.6349L10.2369 15.905C10.0949 16.2928 9.81427 16.6143 9.44915 16.8072C9.08403 17.0002 8.66035 17.0511 8.25992 16.95L8.10692 16.903C7.71843 16.7677 7.39462 16.492 7.19919 16.13C7.00376 15.768 6.95087 15.346 7.05092 14.947L9.87492 7.095C9.9828 6.79902 10.1725 6.53975 10.4219 6.34732C10.6713 6.1549 10.9703 6.03723 11.2839 6.008L12.5559 6Z" stroke="currentColor" stroke-width="1.5" stroke-linecap="round" stroke-linejoin="round"/>
</svg>
