<svg width="24" height="24" viewBox="0 0 24 24" fill="none" xmlns="http://www.w3.org/2000/svg">
<path d="M11.9999 9.31394L9.65692 6.96994C9.0319 6.36622 8.19476 6.03215 7.32581 6.03968C6.45686 6.0472 5.62564 6.39574 5.01118 7.0102C4.39671 7.62466 4.04818 8.45589 4.04065 9.32484C4.03312 10.1938 4.3672 11.0309 4.97092 11.6559L7.31392 13.9999M7.31392 13.9999L11.9999 18.6859L19.0299 11.6559C19.6335 11.0308 19.9674 10.1936 19.9597 9.32464C19.952 8.45569 19.6033 7.62454 18.9887 7.0102C18.3741 6.39587 17.5428 6.04752 16.6738 6.04017C15.8049 6.03283 14.9678 6.36709 14.3429 6.97094L7.31392 13.9999Z" stroke="currentColor" stroke-width="1.5" stroke-linecap="round" stroke-linejoin="round"/>
</svg>
