<svg width="24" height="24" viewBox="0 0 24 24" fill="none" xmlns="http://www.w3.org/2000/svg">
<path d="M4 12C4 12.394 4.0776 12.7841 4.22836 13.1481C4.37913 13.512 4.6001 13.8427 4.87868 14.1213C5.15726 14.3999 5.48797 14.6209 5.85195 14.7716C6.21593 14.9224 6.60603 15 7 15C7.39397 15 7.78407 14.9224 8.14805 14.7716C8.51203 14.6209 8.84274 14.3999 9.12132 14.1213C9.3999 13.8427 9.62087 13.512 9.77164 13.1481C9.9224 12.7841 10 12.394 10 12C10 11.606 9.9224 11.2159 9.77164 10.8519C9.62087 10.488 9.3999 10.1573 9.12132 9.87868C8.84274 9.6001 8.51203 9.37913 8.14805 9.22836C7.78407 9.0776 7.39397 9 7 9C6.60603 9 6.21593 9.0776 5.85195 9.22836C5.48797 9.37913 5.15726 9.6001 4.87868 9.87868C4.6001 10.1573 4.37913 10.488 4.22836 10.8519C4.0776 11.2159 4 11.606 4 12Z" stroke="currentColor" stroke-width="1.5" stroke-linecap="round" stroke-linejoin="round"/>
<path d="M14 12C14 12.7956 14.3161 13.5587 14.8787 14.1213C15.4413 14.6839 16.2044 15 17 15C17.7956 15 18.5587 14.6839 19.1213 14.1213C19.6839 13.5587 20 12.7956 20 12C20 11.2044 19.6839 10.4413 19.1213 9.87868C18.5587 9.31607 17.7956 9 17 9C16.2044 9 15.4413 9.31607 14.8787 9.87868C14.3161 10.4413 14 11.2044 14 12Z" stroke="currentColor" stroke-width="1.5" stroke-linecap="round" stroke-linejoin="round"/>
</svg>
