<svg width="24" height="24" viewBox="0 0 24 24" fill="none" xmlns="http://www.w3.org/2000/svg">
<path d="M10.5 15.5L12 17.5L13.5 15.5M9 6.75001C11 6.08301 13 6.08301 15 6.75001M5 13.5C5 13.8978 5.15804 14.2794 5.43934 14.5607C5.72064 14.842 6.10218 15 6.5 15C6.89782 15 7.27936 14.842 7.56066 14.5607C7.84196 14.2794 8 13.8978 8 13.5C8 13.1022 7.84196 12.7206 7.56066 12.4393C7.27936 12.158 6.89782 12 6.5 12C6.10218 12 5.72064 12.158 5.43934 12.4393C5.15804 12.7206 5 13.1022 5 13.5ZM16 13.5C16 13.8978 16.158 14.2794 16.4393 14.5607C16.7206 14.842 17.1022 15 17.5 15C17.8978 15 18.2794 14.842 18.5607 14.5607C18.842 14.2794 19 13.8978 19 13.5C19 13.1022 18.842 12.7206 18.5607 12.4393C18.2794 12.158 17.8978 12 17.5 12C17.1022 12 16.7206 12.158 16.4393 12.4393C16.158 12.7206 16 13.1022 16 13.5ZM17.5 9C16.4793 9.00011 15.489 9.34721 14.6916 9.98434C13.8941 10.6215 13.337 11.5108 13.1116 12.5063C12.8862 13.5018 13.0059 14.5443 13.4511 15.4628C13.8963 16.3813 14.6406 17.1212 15.5617 17.5609C16.4828 18.0007 17.526 18.1142 18.5202 17.8829C19.5144 17.6517 20.4003 17.0893 21.0327 16.2881C21.6651 15.4869 22.0064 14.4945 22.0004 13.4738C21.9945 12.4531 21.6417 11.4648 21 10.671L22 9H17.5ZM6.49997 9C7.52068 9.00011 8.51102 9.34721 9.30845 9.98434C10.1059 10.6215 10.663 11.5108 10.8884 12.5063C11.1138 13.5018 10.9941 14.5443 10.5489 15.4628C10.1037 16.3813 9.35942 17.1212 8.43831 17.5609C7.5172 18.0007 6.47395 18.1142 5.4798 17.8829C4.48565 17.6517 3.59967 17.0893 2.96727 16.2881C2.33488 15.4869 1.99365 14.4945 1.99959 13.4738C2.00553 12.4531 2.35829 11.4648 2.99997 10.671L1.99997 9H6.49997Z" stroke="currentColor" stroke-width="1.5" stroke-linecap="round" stroke-linejoin="round"/>
</svg>
