<svg width="24" height="24" viewBox="0 0 24 24" fill="none" xmlns="http://www.w3.org/2000/svg">
<path d="M19.9999 8C19.1699 7 18.6119 7 17.9999 7C17.3879 7 15.9999 7.271 15.9999 9C15.9999 10.729 17.3839 11.233 18.9999 12C20.6159 12.767 21.1249 13.812 20.9999 15C20.8749 16.188 19.9999 17 17.9999 17C15.9999 17 14.9999 16 14.4999 15C13.9999 14 12.9149 10.22 12.0029 9C11.4096 8.20888 10.595 7.61146 9.6621 7.28331C8.72923 6.95516 7.72 6.911 6.76203 7.15643C5.80406 7.40186 4.94038 7.92585 4.28022 8.66213C3.62005 9.39841 3.19304 10.3139 3.05319 11.2929C2.91333 12.2719 3.06692 13.2703 3.49452 14.162C3.92212 15.0537 4.60454 15.7985 5.45547 16.3024C6.30639 16.8062 7.28762 17.0464 8.27506 16.9926C9.2625 16.9388 10.2118 16.5933 11.0029 16" stroke="currentColor" stroke-width="1.5" stroke-linecap="round" stroke-linejoin="round"/>
</svg>
