<svg width="24" height="24" viewBox="0 0 24 24" fill="none" xmlns="http://www.w3.org/2000/svg">
<path d="M9 8V16M15 8V16M9 12H15M19.875 6.26996C20.575 6.66796 21.005 7.41296 21 8.21796V15.502C21 16.311 20.557 17.057 19.842 17.45L13.092 21.72C12.7574 21.9037 12.3818 22 12 22C11.6182 22 11.2426 21.9037 10.908 21.72L4.158 17.45C3.80817 17.2588 3.51612 16.9771 3.31241 16.6344C3.1087 16.2917 3.0008 15.9006 3 15.502V8.21696C3 7.40796 3.443 6.66296 4.158 6.26996L10.908 2.28996C11.2525 2.09999 11.6396 2.00037 12.033 2.00037C12.4264 2.00037 12.8135 2.09999 13.158 2.28996L19.908 6.26996H19.875Z" stroke="currentColor" stroke-width="1.5" stroke-linecap="round" stroke-linejoin="round"/>
</svg>
