<svg width="24" height="24" viewBox="0 0 24 24" fill="none" xmlns="http://www.w3.org/2000/svg">
<path d="M19.385 17.145C18.1712 18.8875 16.3804 20.1447 14.3292 20.6943C12.278 21.2438 10.0985 21.0504 8.17611 20.1481C6.25374 19.2459 4.71233 17.6929 3.82444 15.7639C2.93655 13.8348 2.75938 11.654 3.32425 9.60688C3.88911 7.55982 5.15964 5.77842 6.91115 4.57769C8.66267 3.37696 10.7824 2.83425 12.8954 3.04552C15.0084 3.25679 16.9787 4.20843 18.4578 5.73217C19.9369 7.25591 20.8296 9.25359 20.978 11.372C21.188 14.365 15.9441 13.785 14.0651 12.858C15.4571 11.258 14.4671 8.81998 11.7911 9.00698C10.0461 9.12898 8.86406 10.164 9.00706 12.209C9.28706 16.199 13.4511 18.414 19.3671 16.999M3.02191 12.628C2.73891 8.58499 11.7389 5.39999 14.2699 9.93999M12.628 20.978C9.63504 21.188 7.46604 16.253 9.06104 11.23" stroke="currentColor" stroke-width="1.5" stroke-linecap="round" stroke-linejoin="round"/>
</svg>
