<svg width="24" height="24" viewBox="0 0 24 24" fill="none" xmlns="http://www.w3.org/2000/svg">
<path d="M6.42822 12.494L13.7422 3.242M10.0019 7.93501L7.06494 5.39001M17.6929 6.59302L9.35693 16.572M9.5 9.5C9.5 10.163 9.76339 10.7989 10.2322 11.2678C10.7011 11.7366 11.337 12 12 12C12.663 12 13.2989 11.7366 13.7678 11.2678C14.2366 10.7989 14.5 10.163 14.5 9.5C14.5 8.83696 14.2366 8.20107 13.7678 7.73223C13.2989 7.26339 12.663 7 12 7C11.337 7 10.7011 7.26339 10.2322 7.73223C9.76339 8.20107 9.5 8.83696 9.5 9.5ZM17.591 6.37598C18.063 7.28298 18.306 8.28998 18.3 9.31098C18.3041 10.4118 18.0579 11.4992 17.58 12.491C16.9813 13.5555 16.2818 14.5601 15.491 15.491C14.707 16.424 14.001 17.421 13.381 18.471C13.067 19.091 12.813 19.741 12.624 20.409C12.503 20.769 12.347 21 12.002 21C11.687 21 11.539 20.864 11.376 20.407C11.1833 19.7232 10.9224 19.0605 10.597 18.429C10.1718 17.6998 9.69633 17.0011 9.17403 16.338C8.29703 15.154 6.99503 13.803 6.32103 12.267C5.90216 11.3344 5.6903 10.3222 5.70003 9.29998C5.69289 7.81558 6.21636 6.37747 7.17603 5.24498C7.76399 4.54057 8.49983 3.97426 9.33131 3.58626C10.1628 3.19827 11.0695 2.9981 11.987 2.99998C12.637 2.99765 13.2836 3.09339 13.905 3.28398C14.6931 3.53055 15.4246 3.93072 16.0572 4.46141C16.6898 4.9921 17.2111 5.6428 17.591 6.37598Z" stroke="currentColor" stroke-width="1.5" stroke-linecap="round" stroke-linejoin="round"/>
</svg>
