<svg width="24" height="24" viewBox="0 0 24 24" fill="none" xmlns="http://www.w3.org/2000/svg">
<path d="M3.8999 7.20496C5.1034 8.302 6.45203 9.22834 7.9079 9.95796C9.3414 10.5956 10.932 10.793 12.4779 10.525C13.9779 10.195 15.3849 9.52496 16.5989 8.56896C17.7208 7.77264 18.6989 6.79091 19.4909 5.66595C20.0939 4.72595 20.2359 3.89995 19.9749 3.43495C19.7139 2.96995 19.0479 2.86695 18.2549 3.17795C17.2462 3.65527 16.3555 4.34987 15.6469 5.21195C14.6231 6.39168 13.7534 7.69682 13.0589 9.09595C12.2293 10.7294 11.5294 12.4257 10.9659 14.169C10.5781 15.3035 10.3502 16.4865 10.2889 17.684C10.2189 18.436 10.3589 19.194 10.6939 19.868C11.0169 20.43 11.7539 21 13.0369 21C16.5109 21 18.1299 17.47 18.4999 15.38C18.7399 14.015 18.4149 12.183 17.3179 11.37" stroke="currentColor" stroke-width="1.5" stroke-linecap="round" stroke-linejoin="round"/>
</svg>
