<svg width="24" height="24" viewBox="0 0 24 24" fill="none" xmlns="http://www.w3.org/2000/svg">
<path d="M5.31481 2.1C6.10581 1.987 7.21481 2.245 8.64781 3.066L8.91981 3.227L9.07981 3.327L9.47681 3.244C10.9906 2.95149 12.5437 2.92442 14.0668 3.164L14.5228 3.244L14.9188 3.327L15.0798 3.227C16.4648 2.387 17.5668 2.057 18.4018 2.079L18.5658 2.087L18.7128 2.104L18.7888 2.118L18.8388 2.129L18.9828 2.176C19.2186 2.27346 19.4082 2.45734 19.5128 2.69C19.922 3.6017 20.0598 4.61201 19.9098 5.6L19.8628 5.867L19.8168 6.063L19.9398 6.226C20.5138 7.021 20.8698 7.954 20.9698 8.933L20.9928 9.228L20.9998 9.5C20.9998 13.355 19.3408 15.383 16.3558 16.18L16.1108 16.241L15.9788 16.27L15.9928 16.431L16.0008 16.588L16.0048 16.953L16.0028 17.166L15.9998 21C15.9998 21.2449 15.9099 21.4813 15.7471 21.6644C15.5843 21.8474 15.3601 21.9643 15.1168 21.993L14.9998 22H8.99981C8.75487 22 8.51847 21.91 8.33543 21.7473C8.1524 21.5845 8.03546 21.3603 8.00681 21.117L7.99981 21V20.266C6.18181 20.526 4.96981 19.842 3.88981 18.388L3.35481 17.622C3.07481 17.226 2.89981 17.043 2.76581 16.978L2.71781 16.959C2.47022 16.8785 2.26376 16.7047 2.14232 16.4744C2.02088 16.2442 1.99403 15.9756 2.06748 15.7258C2.14092 15.4761 2.30887 15.2648 2.53563 15.1369C2.76238 15.009 3.03008 14.9746 3.28181 15.041C3.92381 15.229 4.35581 15.609 4.85181 16.28L5.38981 17.049C6.14981 18.128 6.74981 18.508 7.99881 18.24L7.99981 17.562L7.98181 17.394C7.95228 17.1204 7.94525 16.8448 7.96081 16.57L7.97781 16.385L7.99681 16.265L7.88881 16.241C4.91281 15.531 3.18581 13.668 3.01381 10.102L3.00381 9.792L2.99981 9.5C3.00096 8.41658 3.31638 7.35675 3.90781 6.449L4.05981 6.227L4.18181 6.064L4.13681 5.868C3.95652 4.98956 4.00647 4.07943 4.28181 3.226L4.38181 2.944L4.48781 2.691C4.5922 2.45852 4.78142 2.27467 5.01681 2.177L5.16081 2.13L5.31481 2.1Z" fill="currentColor"/>
</svg>
