<svg width="24" height="24" viewBox="0 0 24 24" fill="none" xmlns="http://www.w3.org/2000/svg">
<path d="M15.4999 17C15.4999 18 16.9999 20 17.4999 20C18.9999 20 20.3329 18.333 20.9999 17C21.6669 15.333 21.4999 11.167 19.4999 5.5C18.0429 4.485 16.4999 4.16 14.9999 4L14.0279 5.923C12.6869 5.6915 11.316 5.6915 9.97495 5.923L8.99995 4C7.49995 4.16 5.95695 4.485 4.49995 5.5C2.49995 11.167 2.33295 15.333 2.99995 17C3.66695 18.333 4.99995 20 6.49995 20C6.99995 20 8.49995 18 8.49995 17M6.99995 16.5C10.4999 17.5 13.4999 17.5 16.9999 16.5M7.99995 12C7.99995 12.2652 8.10531 12.5196 8.29284 12.7071C8.48038 12.8946 8.73473 13 8.99995 13C9.26517 13 9.51952 12.8946 9.70706 12.7071C9.89459 12.5196 9.99995 12.2652 9.99995 12C9.99995 11.7348 9.89459 11.4804 9.70706 11.2929C9.51952 11.1054 9.26517 11 8.99995 11C8.73473 11 8.48038 11.1054 8.29284 11.2929C8.10531 11.4804 7.99995 11.7348 7.99995 12ZM13.9999 12C13.9999 12.2652 14.1053 12.5196 14.2928 12.7071C14.4804 12.8946 14.7347 13 14.9999 13C15.2652 13 15.5195 12.8946 15.7071 12.7071C15.8946 12.5196 15.9999 12.2652 15.9999 12C15.9999 11.7348 15.8946 11.4804 15.7071 11.2929C15.5195 11.1054 15.2652 11 14.9999 11C14.7347 11 14.4804 11.1054 14.2928 11.2929C14.1053 11.4804 13.9999 11.7348 13.9999 12Z" stroke="currentColor" stroke-width="1.5" stroke-linecap="round" stroke-linejoin="round"/>
</svg>
