<svg width="24" height="24" viewBox="0 0 24 24" fill="none" xmlns="http://www.w3.org/2000/svg">
<path d="M12 12V6M12 12H18M12 12V18M12 12H6M12 6C12 5.46957 12.2107 4.96086 12.5858 4.58579C12.9609 4.21071 13.4696 4 14 4C14.5304 4 15.0391 4.21071 15.4142 4.58579C15.7893 4.96086 16 5.46957 16 6V12M12 6C12 5.60444 11.8827 5.21776 11.6629 4.88886C11.4432 4.55996 11.1308 4.30362 10.7654 4.15224C10.3999 4.00087 9.99778 3.96126 9.60982 4.03843C9.22186 4.1156 8.86549 4.30608 8.58579 4.58579C8.30608 4.86549 8.1156 5.22186 8.03843 5.60982C7.96126 5.99778 8.00087 6.39992 8.15224 6.76537C8.30362 7.13082 8.55996 7.44318 8.88886 7.66294C9.21776 7.8827 9.60444 8 10 8M16 10C16 9.60444 16.1173 9.21776 16.3371 8.88886C16.5568 8.55996 16.8692 8.30362 17.2346 8.15224C17.6001 8.00087 18.0022 7.96126 18.3902 8.03843C18.7781 8.1156 19.1345 8.30608 19.4142 8.58579C19.6939 8.86549 19.8844 9.22186 19.9616 9.60982C20.0387 9.99778 19.9991 10.3999 19.8478 10.7654C19.6964 11.1308 19.44 11.4432 19.1111 11.6629C18.7822 11.8827 18.3956 12 18 12M18 12C18.5304 12 19.0391 12.2107 19.4142 12.5858C19.7893 12.9609 20 13.4696 20 14C20 14.5304 19.7893 15.0391 19.4142 15.4142C19.0391 15.7893 18.5304 16 18 16H12M14 16C14.3956 16 14.7822 16.1173 15.1111 16.3371C15.44 16.5568 15.6964 16.8692 15.8478 17.2346C15.9991 17.6001 16.0387 18.0022 15.9616 18.3902C15.8844 18.7781 15.6939 19.1345 15.4142 19.4142C15.1345 19.6939 14.7781 19.8844 14.3902 19.9616C14.0022 20.0387 13.6001 19.9991 13.2346 19.8478C12.8692 19.6964 12.5568 19.44 12.3371 19.1111C12.1173 18.7822 12 18.3956 12 18M12 18C12 18.5304 11.7893 19.0391 11.4142 19.4142C11.0391 19.7893 10.5304 20 10 20C9.46957 20 8.96086 19.7893 8.58579 19.4142C8.21072 19.0391 8 18.5304 8 18V12M8 14C8 14.3956 7.8827 14.7822 7.66294 15.1111C7.44318 15.44 7.13082 15.6964 6.76537 15.8478C6.39992 15.9991 5.99778 16.0387 5.60982 15.9616C5.22186 15.8844 4.86549 15.6939 4.58579 15.4142C4.30608 15.1345 4.1156 14.7781 4.03843 14.3902C3.96126 14.0022 4.00087 13.6001 4.15224 13.2346C4.30362 12.8692 4.55996 12.5568 4.88886 12.3371C5.21776 12.1173 5.60444 12 6 12M6 12C5.46957 12 4.96086 11.7893 4.58579 11.4142C4.21071 11.0391 4 10.5304 4 10C4 9.46957 4.21071 8.96086 4.58579 8.58579C4.96086 8.21072 5.46957 8 6 8H12" stroke="currentColor" stroke-width="1.5" stroke-linecap="round" stroke-linejoin="round"/>
</svg>
