<svg width="24" height="24" viewBox="0 0 24 24" fill="none" xmlns="http://www.w3.org/2000/svg">
<path d="M8 3L10 6M16 3L14 6M9 13V11M15 11V13M3 10C3 8.93913 3.42143 7.92172 4.17157 7.17157C4.92172 6.42143 5.93913 6 7 6H17C18.0609 6 19.0783 6.42143 19.8284 7.17157C20.5786 7.92172 21 8.93913 21 10V16C21 17.0609 20.5786 18.0783 19.8284 18.8284C19.0783 19.5786 18.0609 20 17 20H7C5.93913 20 4.92172 19.5786 4.17157 18.8284C3.42143 18.0783 3 17.0609 3 16V10Z" stroke="currentColor" stroke-width="1.5" stroke-linecap="round" stroke-linejoin="round"/>
</svg>
