<svg width="24" height="24" viewBox="0 0 24 24" fill="none" xmlns="http://www.w3.org/2000/svg">
<path d="M7 10V8.138C7 5.3 9.239 3 12 3C14.761 3 17 5.3 17 8.138V10M10.4849 17.577C10.8219 17.867 11.1849 18 11.9999 18H12.4129C12.7359 18 13.0459 17.867 13.2749 17.632C13.5043 17.3942 13.632 17.0764 13.6309 16.746C13.6309 16.414 13.5029 16.096 13.2749 15.86C13.1631 15.7441 13.0293 15.6518 12.8812 15.5886C12.7331 15.5254 12.5739 15.4925 12.4129 15.492H11.5869C11.4261 15.4916 11.267 15.4589 11.1191 15.3959C10.9712 15.3328 10.8375 15.2407 10.7259 15.125C10.4965 14.8872 10.3688 14.5694 10.3699 14.239C10.3699 13.907 10.4979 13.588 10.7259 13.353C10.8374 13.2371 10.9711 13.1448 11.119 13.0815C11.2669 13.0183 11.426 12.9855 11.5869 12.985H11.9999C12.8159 12.985 13.1779 13.118 13.5149 13.408M4 12C4 11.4696 4.21071 10.9609 4.58579 10.5858C4.96086 10.2107 5.46957 10 6 10H18C18.5304 10 19.0391 10.2107 19.4142 10.5858C19.7893 10.9609 20 11.4696 20 12V19C20 19.5304 19.7893 20.0391 19.4142 20.4142C19.0391 20.7893 18.5304 21 18 21H6C5.46957 21 4.96086 20.7893 4.58579 20.4142C4.21071 20.0391 4 19.5304 4 19V12Z" stroke="currentColor" stroke-width="1.5" stroke-linecap="round" stroke-linejoin="round"/>
</svg>
