<svg width="24" height="24" viewBox="0 0 24 24" fill="none" xmlns="http://www.w3.org/2000/svg">
<path d="M17.464 6.51798C16.9738 5.43956 16.1752 4.5304 15.1691 3.90509C14.1629 3.27978 12.9942 2.9663 11.8102 3.00417C10.6261 3.04203 9.47982 3.42955 8.51568 4.11788C7.55154 4.8062 6.81274 5.76453 6.39239 6.87207C5.97204 7.97961 5.88895 9.18681 6.15359 10.3415C6.41824 11.4962 7.01878 12.5467 7.87952 13.3606C8.74025 14.1746 9.82267 14.7155 10.9903 14.9152C12.158 15.1149 13.3587 14.9645 14.441 14.483M17.4819 17.464C18.5603 16.9738 19.4695 16.1752 20.0948 15.1691C20.7201 14.1629 21.0336 12.9942 20.9957 11.8102C20.9578 10.6261 20.5703 9.47982 19.882 8.51568C19.1937 7.55154 18.2354 6.81274 17.1278 6.39239C16.0203 5.97204 14.8131 5.88895 13.6584 6.15359C12.5037 6.41824 11.4532 7.01878 10.6393 7.87952C9.82533 8.74025 9.28441 9.82267 9.08468 10.9903C8.88495 12.158 9.03534 13.3587 9.51691 14.441M6.54004 17.482C7.03022 18.5605 7.82867 19.4697 8.83475 20.095C9.84083 20.7204 11.0095 21.034 12.1935 20.9962C13.3775 20.9585 14.5239 20.5711 15.4881 19.8828C16.4522 19.1946 17.1911 18.2364 17.6116 17.1289C18.0321 16.0214 18.1153 14.8143 17.8508 13.6596C17.5863 12.5049 16.9859 11.4543 16.1253 10.6403C15.2647 9.82626 14.1823 9.2852 13.0147 9.08531C11.8471 8.88542 10.6464 9.03563 9.56404 9.51702M6.51798 6.54004C5.43955 7.03022 4.53035 7.82867 3.90497 8.83475C3.27959 9.84083 2.96602 11.0095 3.00378 12.1935C3.04154 13.3775 3.42895 14.5239 4.11716 15.4881C4.80538 16.4522 5.76361 17.1911 6.87109 17.6116C7.97857 18.0321 9.18573 18.1153 10.3404 17.8508C11.4951 17.5863 12.5457 16.9859 13.3597 16.1253C14.1737 15.2647 14.7148 14.1823 14.9147 13.0147C15.1146 11.8471 14.9644 10.6464 14.483 9.56404" stroke="currentColor" stroke-width="1.5" stroke-linecap="round" stroke-linejoin="round"/>
</svg>
