<svg width="24" height="24" viewBox="0 0 24 24" fill="none" xmlns="http://www.w3.org/2000/svg">
<path d="M5.30798 7.26496L10.693 4.23596M13.308 4.23499L18.692 7.26499M20 9.5V14.5M20 9.5C19.6022 9.5 19.2206 9.34196 18.9393 9.06066C18.658 8.77936 18.5 8.39782 18.5 8C18.5 7.60218 18.658 7.22064 18.9393 6.93934C19.2206 6.65804 19.6022 6.5 20 6.5C20.3978 6.5 20.7794 6.65804 21.0607 6.93934C21.342 7.22064 21.5 7.60218 21.5 8C21.5 8.39782 21.342 8.77936 21.0607 9.06066C20.7794 9.34196 20.3978 9.5 20 9.5ZM20 14.5C20.3978 14.5 20.7794 14.658 21.0607 14.9393C21.342 15.2206 21.5 15.6022 21.5 16C21.5 16.3978 21.342 16.7794 21.0607 17.0607C20.7794 17.342 20.3978 17.5 20 17.5C19.6022 17.5 19.2206 17.342 18.9393 17.0607C18.658 16.7794 18.5 16.3978 18.5 16M20 14.5C19.6022 14.5 19.2206 14.658 18.9393 14.9393C18.658 15.2206 18.5 15.6022 18.5 16M18.693 16.736L13.308 19.765M10.692 19.765L5.30798 16.735M4 14.5V9.5M4 14.5C4.39782 14.5 4.77936 14.658 5.06066 14.9393C5.34196 15.2206 5.5 15.6022 5.5 16M4 14.5C3.60218 14.5 3.22064 14.658 2.93934 14.9393C2.65804 15.2206 2.5 15.6022 2.5 16C2.5 16.3978 2.65804 16.7794 2.93934 17.0607C3.22064 17.342 3.60218 17.5 4 17.5C4.39782 17.5 4.77936 17.342 5.06066 17.0607C5.34196 16.7794 5.5 16.3978 5.5 16M4 9.5C3.60218 9.5 3.22064 9.34196 2.93934 9.06066C2.65804 8.77936 2.5 8.39782 2.5 8C2.5 7.60218 2.65804 7.22064 2.93934 6.93934C3.22064 6.65804 3.60218 6.5 4 6.5C4.39782 6.5 4.77936 6.65804 5.06066 6.93934C5.34196 7.22064 5.5 7.60218 5.5 8C5.5 8.39782 5.34196 8.77936 5.06066 9.06066C4.77936 9.34196 4.39782 9.5 4 9.5ZM12.772 4.78601L18.893 14.988M18.5 16H5.5M5.10706 14.988L11.2291 4.78699M10.5 3.5C10.5 3.89782 10.658 4.27936 10.9393 4.56066C11.2206 4.84196 11.6022 5 12 5C12.3978 5 12.7794 4.84196 13.0607 4.56066C13.342 4.27936 13.5 3.89782 13.5 3.5C13.5 3.10218 13.342 2.72064 13.0607 2.43934C12.7794 2.15804 12.3978 2 12 2C11.6022 2 11.2206 2.15804 10.9393 2.43934C10.658 2.72064 10.5 3.10218 10.5 3.5ZM10.5 20.5C10.5 20.8978 10.658 21.2794 10.9393 21.5607C11.2206 21.842 11.6022 22 12 22C12.3978 22 12.7794 21.842 13.0607 21.5607C13.342 21.2794 13.5 20.8978 13.5 20.5C13.5 20.1022 13.342 19.7206 13.0607 19.4393C12.7794 19.158 12.3978 19 12 19C11.6022 19 11.2206 19.158 10.9393 19.4393C10.658 19.7206 10.5 20.1022 10.5 20.5Z" stroke="currentColor" stroke-width="1.5" stroke-linecap="round" stroke-linejoin="round"/>
</svg>
