<svg width="24" height="24" viewBox="0 0 24 24" fill="none" xmlns="http://www.w3.org/2000/svg">
<path d="M7.83301 12.278L12.278 7.83301M10.0549 14.5L12.2779 12.278M12.2781 16.722L12.8331 16.167M19.8279 14.828C20.5778 14.0779 20.999 13.0607 20.999 12C20.999 10.9393 20.5778 9.92211 19.8279 9.172L14.8279 4.172C14.0778 3.42212 13.0605 3.00085 11.9999 3.00085C10.9392 3.00085 9.92199 3.42212 9.17188 4.172L4.17188 9.172C3.42199 9.92211 3.00073 10.9393 3.00073 12C3.00073 13.0607 3.42199 14.0779 4.17188 14.828L10.3429 21H13.6569L19.8279 14.828Z" stroke="currentColor" stroke-width="1.5" stroke-linecap="round" stroke-linejoin="round"/>
</svg>
