<svg width="24" height="24" viewBox="0 0 24 24" fill="none" xmlns="http://www.w3.org/2000/svg">
<path d="M5 9C5 9.91925 5.18106 10.8295 5.53284 11.6788C5.88463 12.5281 6.40024 13.2997 7.05025 13.9497C7.70026 14.5998 8.47194 15.1154 9.32122 15.4672C10.1705 15.8189 11.0807 16 12 16C12.9193 16 13.8295 15.8189 14.6788 15.4672C15.5281 15.1154 16.2997 14.5998 16.9497 13.9497C17.5998 13.2997 18.1154 12.5281 18.4672 11.6788C18.8189 10.8295 19 9.91925 19 9C19 8.08075 18.8189 7.1705 18.4672 6.32122C18.1154 5.47194 17.5998 4.70026 16.9497 4.05025C16.2997 3.40024 15.5281 2.88463 14.6788 2.53284C13.8295 2.18106 12.9193 2 12 2C11.0807 2 10.1705 2.18106 9.32122 2.53284C8.47194 2.88463 7.70026 3.40024 7.05025 4.05025C6.40024 4.70026 5.88463 5.47194 5.53284 6.32122C5.18106 7.1705 5 8.08075 5 9ZM5 9V20C5 20.5304 5.21071 21.0391 5.58579 21.4142C5.96086 21.7893 6.46957 22 7 22C7.53043 22 8.03914 21.7893 8.41421 21.4142C8.78929 21.0391 9 20.5304 9 20V15.5M9 9C9 9.79565 9.31607 10.5587 9.87868 11.1213C10.4413 11.6839 11.2044 12 12 12C12.7956 12 13.5587 11.6839 14.1213 11.1213C14.6839 10.5587 15 9.79565 15 9C15 8.20435 14.6839 7.44129 14.1213 6.87868C13.5587 6.31607 12.7956 6 12 6C11.2044 6 10.4413 6.31607 9.87868 6.87868C9.31607 7.44129 9 8.20435 9 9Z" stroke="currentColor" stroke-width="1.5" stroke-linecap="round" stroke-linejoin="round"/>
</svg>
