<svg width="24" height="24" viewBox="0 0 24 24" fill="none" xmlns="http://www.w3.org/2000/svg">
<path d="M9 8.99996V17.044C8.99994 17.3946 8.90769 17.7391 8.7325 18.0428C8.5573 18.3466 8.30533 18.5989 8.00184 18.7746C7.69836 18.9502 7.35402 19.043 7.00337 19.0436C6.65272 19.0442 6.30808 18.9526 6.004 18.778L4.436 17.878C3.99725 17.6099 3.63475 17.2336 3.38328 16.7851C3.13182 16.3367 2.99984 15.8311 3 15.317V8.68196C3.00001 8.16797 3.13207 7.66261 3.38353 7.21434C3.63498 6.76606 3.99739 6.38991 4.436 6.12196L10.436 2.45496C10.9069 2.16724 11.4481 2.01501 12 2.01501C12.5519 2.01501 13.0931 2.16724 13.564 2.45496L19.564 6.12196C20.0028 6.39 20.3653 6.76631 20.6167 7.21477C20.8682 7.66324 21.0002 8.1688 21 8.68295V15.317C21 15.8309 20.8679 16.3363 20.6165 16.7846C20.365 17.2328 20.0026 17.609 19.564 17.877L13.564 21.544C13.0931 21.8317 12.5519 21.9839 12 21.9839C11.4481 21.9839 10.9069 21.8317 10.436 21.544M17 9H13.5C13.1022 9 12.7206 9.15804 12.4393 9.43934C12.158 9.72064 12 10.1022 12 10.5C12 10.8978 12.158 11.2794 12.4393 11.5607C12.7206 11.842 13.1022 12 13.5 12H15.5C15.8978 12 16.2794 12.158 16.5607 12.4393C16.842 12.7206 17 13.1022 17 13.5C17 13.8978 16.842 14.2794 16.5607 14.5607C16.2794 14.842 15.8978 15 15.5 15H12" stroke="currentColor" stroke-width="1.5" stroke-linecap="round" stroke-linejoin="round"/>
</svg>
