<svg width="24" height="24" viewBox="0 0 24 24" fill="none" xmlns="http://www.w3.org/2000/svg">
<path d="M20.9452 11C21.1769 13.0716 20.6823 15.1595 19.5458 16.907C18.4093 18.6545 16.7014 19.9533 14.7138 20.5817C12.7262 21.21 10.5821 21.1289 8.64765 20.3522C6.71318 19.5755 5.10832 18.1514 4.10709 16.323C3.10586 14.4946 2.77035 12.3754 3.15787 10.3272C3.54539 8.27894 4.63189 6.42874 6.23185 5.0925C7.83181 3.75626 9.84601 3.01685 11.9305 3.00052C14.015 2.98419 16.0405 3.69197 17.6612 5.00298L15.0062 7.39498C14.0547 6.77424 12.9342 6.4634 11.7989 6.50519C10.6635 6.54697 9.56897 6.93934 8.66563 7.62836C7.76228 8.31738 7.09448 9.26924 6.75399 10.3531C6.4135 11.437 6.41703 12.5998 6.76409 13.6816C7.11116 14.7634 7.78473 15.7112 8.69224 16.3947C9.59975 17.0783 10.6967 17.464 11.8323 17.4989C12.9679 17.5338 14.0864 17.2161 15.0341 16.5896C15.9819 15.9631 16.7124 15.0585 17.1252 14H13.0002V11H20.9452Z" stroke="currentColor" stroke-width="1.5" stroke-linecap="round" stroke-linejoin="round"/>
</svg>
