<svg width="24" height="24" viewBox="0 0 24 24" fill="none" xmlns="http://www.w3.org/2000/svg">
<path d="M18.0001 4C18.6074 4.00024 19.2004 4.18481 19.7006 4.52931C20.2008 4.8738 20.5846 5.362 20.8014 5.92934C21.0181 6.49669 21.0576 7.11645 20.9145 7.7067C20.7714 8.29695 20.4526 8.82987 20.0001 9.235V18C20.0001 18.5304 19.7894 19.0391 19.4143 19.4142C19.0392 19.7893 18.5305 20 18.0001 20H6.0001C5.46967 20 4.96096 19.7893 4.58589 19.4142C4.21082 19.0391 4.0001 18.5304 4.0001 18V9.236C3.55839 8.84096 3.24357 8.32395 3.09536 7.7502C2.94714 7.17644 2.97216 6.57164 3.16727 6.01209C3.36238 5.45254 3.71884 4.96331 4.19167 4.60611C4.6645 4.24891 5.23253 4.03974 5.8241 4.005H18.0001V4Z" stroke="currentColor" stroke-width="1.5" stroke-linecap="round" stroke-linejoin="round"/>
</svg>
