<svg width="24" height="24" viewBox="0 0 24 24" fill="none" xmlns="http://www.w3.org/2000/svg">
<path d="M11 7H19C19.5304 7 20.0391 7.21071 20.4142 7.58579C20.7893 7.96086 21 8.46957 21 9V17M19.834 19.818C19.5724 19.9382 19.2879 20.0003 19 20H5C4.46957 20 3.96086 19.7893 3.58579 19.4142C3.21071 19.0391 3 18.5304 3 18V9C3 8.46957 3.21071 7.96086 3.58579 7.58579C3.96086 7.21071 4.46957 7 5 7H7M8.185 4.158C8.34559 3.81199 8.6018 3.51912 8.92338 3.31394C9.24497 3.10876 9.61853 2.99983 10 3H14C14.5304 3 15.0391 3.21071 15.4142 3.58579C15.7893 3.96086 16 4.46957 16 5V7M12 12V12.01M3 13C6.67542 14.8523 10.8328 15.5256 14.905 14.928M18.168 14.165C19.1404 13.8496 20.0872 13.4601 21 13M3 3L21 21" stroke="currentColor" stroke-width="1.5" stroke-linecap="round" stroke-linejoin="round"/>
</svg>
