<svg width="24" height="24" viewBox="0 0 24 24" fill="none" xmlns="http://www.w3.org/2000/svg">
<path d="M12 8C12.7826 8 13.548 8.22958 14.2014 8.66029C14.8549 9.09101 15.3676 9.70394 15.6761 10.4232C15.9846 11.1424 16.0753 11.9363 15.9371 12.7066C15.7988 13.4769 15.4376 14.1898 14.8983 14.7568C14.3589 15.3239 13.665 15.7202 12.9026 15.8968C12.1402 16.0734 11.3427 16.0225 10.6089 15.7503C9.87519 15.4782 9.23739 14.9967 8.77454 14.3657C8.31169 13.7346 8.04413 12.9816 8.005 12.2L8 12L8.005 11.8C8.05631 10.775 8.4996 9.80901 9.24319 9.10172C9.98677 8.39443 10.9738 8 12 8Z" fill="currentColor"/>
<path d="M12 4C12.2449 4.00003 12.4813 4.08996 12.6644 4.25272C12.8474 4.41547 12.9643 4.63975 12.993 4.883L13 5.01C12.9997 5.26488 12.9021 5.51003 12.7272 5.69537C12.5522 5.8807 12.313 5.99223 12.0586 6.00717C11.8042 6.02211 11.5536 5.93933 11.3582 5.77574C11.1627 5.61215 11.0371 5.3801 11.007 5.127L11 5C11 4.73478 11.1054 4.48043 11.2929 4.29289C11.4804 4.10536 11.7348 4 12 4Z" fill="currentColor"/>
<path d="M17 6C17.2449 6.00003 17.4813 6.08996 17.6644 6.25272C17.8474 6.41547 17.9643 6.63975 17.993 6.883L18 7.01C17.9997 7.26488 17.9021 7.51003 17.7272 7.69537C17.5522 7.8807 17.313 7.99223 17.0586 8.00717C16.8042 8.02211 16.5536 7.93933 16.3582 7.77574C16.1627 7.61215 16.0371 7.3801 16.007 7.127L16 7C16 6.73478 16.1054 6.48043 16.2929 6.29289C16.4804 6.10536 16.7348 6 17 6Z" fill="currentColor"/>
<path d="M19 11C19.2449 11 19.4813 11.09 19.6644 11.2527C19.8474 11.4155 19.9643 11.6397 19.993 11.883L20 12.01C19.9997 12.2649 19.9021 12.51 19.7272 12.6954C19.5522 12.8807 19.313 12.9922 19.0586 13.0072C18.8042 13.0221 18.5536 12.9393 18.3582 12.7757C18.1627 12.6121 18.0371 12.3801 18.007 12.127L18 12C18 11.7348 18.1054 11.4804 18.2929 11.2929C18.4804 11.1054 18.7348 11 19 11Z" fill="currentColor"/>
<path d="M17 16C17.2449 16 17.4813 16.09 17.6644 16.2527C17.8474 16.4155 17.9643 16.6397 17.993 16.883L18 17.01C17.9997 17.2649 17.9021 17.51 17.7272 17.6954C17.5522 17.8807 17.313 17.9922 17.0586 18.0072C16.8042 18.0221 16.5536 17.9393 16.3582 17.7757C16.1627 17.6121 16.0371 17.3801 16.007 17.127L16 17C16 16.7348 16.1054 16.4804 16.2929 16.2929C16.4804 16.1054 16.7348 16 17 16Z" fill="currentColor"/>
<path d="M12 18C12.2449 18 12.4813 18.09 12.6644 18.2527C12.8474 18.4155 12.9643 18.6397 12.993 18.883L13 19.01C12.9997 19.2649 12.9021 19.51 12.7272 19.6954C12.5522 19.8807 12.313 19.9922 12.0586 20.0072C11.8042 20.0221 11.5536 19.9393 11.3582 19.7757C11.1627 19.6121 11.0371 19.3801 11.007 19.127L11 19C11 18.7348 11.1054 18.4804 11.2929 18.2929C11.4804 18.1054 11.7348 18 12 18Z" fill="currentColor"/>
<path d="M7 16C7.24493 16 7.48134 16.09 7.66437 16.2527C7.84741 16.4155 7.96434 16.6397 7.993 16.883L8 17.01C7.99972 17.2649 7.90212 17.51 7.72715 17.6954C7.55218 17.8807 7.31305 17.9922 7.05861 18.0072C6.80416 18.0221 6.55362 17.9393 6.35817 17.7757C6.16271 17.6121 6.0371 17.3801 6.007 17.127L6 17C6 16.7348 6.10536 16.4804 6.29289 16.2929C6.48043 16.1054 6.73478 16 7 16Z" fill="currentColor"/>
<path d="M5 11C5.24493 11 5.48134 11.09 5.66437 11.2527C5.84741 11.4155 5.96434 11.6397 5.993 11.883L6 12.01C5.99972 12.2649 5.90212 12.51 5.72715 12.6954C5.55218 12.8807 5.31305 12.9922 5.05861 13.0072C4.80416 13.0221 4.55362 12.9393 4.35817 12.7757C4.16271 12.6121 4.0371 12.3801 4.007 12.127L4 12C4 11.7348 4.10536 11.4804 4.29289 11.2929C4.48043 11.1054 4.73478 11 5 11Z" fill="currentColor"/>
<path d="M7 6C7.24493 6.00003 7.48134 6.08996 7.66437 6.25272C7.84741 6.41547 7.96434 6.63975 7.993 6.883L8 7.01C7.99972 7.26488 7.90212 7.51003 7.72715 7.69537C7.55218 7.8807 7.31305 7.99223 7.05861 8.00717C6.80416 8.02211 6.55362 7.93933 6.35817 7.77574C6.16271 7.61215 6.0371 7.3801 6.007 7.127L6 7C6 6.73478 6.10536 6.48043 6.29289 6.29289C6.48043 6.10536 6.73478 6 7 6Z" fill="currentColor"/>
</svg>
