<svg width="24" height="24" viewBox="0 0 24 24" fill="none" xmlns="http://www.w3.org/2000/svg">
<path d="M12 8C12.7826 8 13.548 8.22958 14.2014 8.66029C14.8549 9.09101 15.3676 9.70394 15.6761 10.4232C15.9846 11.1424 16.0753 11.9363 15.9371 12.7066C15.7988 13.4769 15.4376 14.1898 14.8983 14.7568C14.3589 15.3239 13.665 15.7202 12.9026 15.8968C12.1402 16.0734 11.3427 16.0225 10.6089 15.7503C9.87519 15.4782 9.23739 14.9967 8.77454 14.3657C8.31169 13.7346 8.04413 12.9816 8.005 12.2L8 12L8.005 11.8C8.05631 10.775 8.4996 9.80901 9.24319 9.10172C9.98677 8.39443 10.9738 8 12 8Z" fill="currentColor"/>
<path d="M12 2C12.2449 2.00003 12.4813 2.08996 12.6644 2.25272C12.8474 2.41547 12.9643 2.63975 12.993 2.883L13 3V5C12.9997 5.25488 12.9021 5.50003 12.7272 5.68537C12.5522 5.8707 12.313 5.98223 12.0586 5.99717C11.8042 6.01211 11.5536 5.92933 11.3582 5.76574C11.1627 5.60214 11.0371 5.3701 11.007 5.117L11 5V3C11 2.73478 11.1054 2.48043 11.2929 2.29289C11.4804 2.10536 11.7348 2 12 2Z" fill="currentColor"/>
<path d="M17.6929 4.89301C17.8728 4.71367 18.1143 4.60954 18.3683 4.60178C18.6222 4.59403 18.8696 4.68323 19.0602 4.85126C19.2507 5.0193 19.3702 5.25356 19.3943 5.50649C19.4184 5.75941 19.3453 6.01202 19.1899 6.21301L19.1069 6.30701L17.7069 7.70701C17.5269 7.88636 17.2854 7.99049 17.0315 7.99824C16.7776 8.006 16.5302 7.9168 16.3396 7.74876C16.149 7.58073 16.0296 7.34646 16.0055 7.09354C15.9814 6.84062 16.0545 6.588 16.2099 6.38701L16.2929 6.29301L17.6929 4.89301Z" fill="currentColor"/>
<path d="M20.9999 11C21.2547 11.0003 21.4999 11.0979 21.6852 11.2728C21.8706 11.4478 21.9821 11.687 21.997 11.9414C22.012 12.1958 21.9292 12.4464 21.7656 12.6418C21.602 12.8373 21.37 12.9629 21.1169 12.993L20.9999 13H18.9999C18.745 12.9997 18.4998 12.9021 18.3145 12.7272C18.1292 12.5522 18.0176 12.313 18.0027 12.0586C17.9878 11.8042 18.0705 11.5536 18.2341 11.3582C18.3977 11.1627 18.6298 11.0371 18.8829 11.007L18.9999 11H20.9999Z" fill="currentColor"/>
<path d="M16.2928 16.293C16.465 16.1208 16.6941 16.0174 16.9371 16.0021C17.1801 15.9868 17.4204 16.0607 17.6128 16.21L17.7068 16.293L19.1068 17.693C19.2861 17.8729 19.3903 18.1144 19.398 18.3684C19.4058 18.6223 19.3166 18.8697 19.1485 19.0603C18.9805 19.2508 18.7462 19.3703 18.4933 19.3944C18.2404 19.4185 17.9878 19.3454 17.7868 19.19L17.6928 19.107L16.2928 17.707C16.1053 17.5195 16 17.2651 16 17C16 16.7348 16.1053 16.4805 16.2928 16.293Z" fill="currentColor"/>
<path d="M12 18C12.2449 18 12.4813 18.09 12.6644 18.2527C12.8474 18.4155 12.9643 18.6397 12.993 18.883L13 19V21C12.9997 21.2549 12.9021 21.5 12.7272 21.6854C12.5522 21.8707 12.313 21.9822 12.0586 21.9972C11.8042 22.0121 11.5536 21.9293 11.3582 21.7657C11.1627 21.6021 11.0371 21.3701 11.007 21.117L11 21V19C11 18.7348 11.1054 18.4804 11.2929 18.2929C11.4804 18.1054 11.7348 18 12 18Z" fill="currentColor"/>
<path d="M6.29298 16.293C6.47294 16.1137 6.71442 16.0096 6.96837 16.0018C7.22232 15.9941 7.4697 16.0833 7.66026 16.2513C7.85083 16.4193 7.97029 16.6536 7.99438 16.9065C8.01847 17.1594 7.94539 17.412 7.78998 17.613L7.70698 17.707L6.30698 19.107C6.12702 19.2864 5.88555 19.3905 5.6316 19.3983C5.37765 19.406 5.13027 19.3168 4.9397 19.1488C4.74914 18.9808 4.62968 18.7465 4.60558 18.4936C4.58149 18.2406 4.65457 17.988 4.80998 17.787L4.89298 17.693L6.29298 16.293Z" fill="currentColor"/>
<path d="M5.99987 11C6.25475 11.0003 6.4999 11.0979 6.68524 11.2728C6.87057 11.4478 6.9821 11.687 6.99704 11.9414C7.01198 12.1958 6.92919 12.4464 6.7656 12.6418C6.60201 12.8373 6.36996 12.9629 6.11687 12.993L5.99987 13H3.99987C3.74499 12.9997 3.49984 12.9021 3.3145 12.7272C3.12916 12.5522 3.01763 12.313 3.0027 12.0586C2.98776 11.8042 3.07054 11.5536 3.23413 11.3582C3.39772 11.1627 3.62977 11.0371 3.88287 11.007L3.99987 11H5.99987Z" fill="currentColor"/>
<path d="M4.89288 4.89296C5.06508 4.72078 5.29418 4.61735 5.5372 4.60207C5.78023 4.58679 6.02048 4.66071 6.21288 4.80996L6.30688 4.89296L7.70688 6.29296C7.88623 6.47292 7.99036 6.71439 7.99811 6.96834C8.00587 7.22229 7.91667 7.46967 7.74864 7.66024C7.5806 7.8508 7.34633 7.97026 7.09341 7.99436C6.84049 8.01845 6.58788 7.94537 6.38688 7.78996L6.29288 7.70696L4.89288 6.30696C4.70541 6.11943 4.6001 5.86512 4.6001 5.59996C4.6001 5.33479 4.70541 5.08049 4.89288 4.89296Z" fill="currentColor"/>
</svg>
