<svg width="24" height="24" viewBox="0 0 24 24" fill="none" xmlns="http://www.w3.org/2000/svg">
<path d="M12 3.00012V8.00012M12 12.0001V21.0001M5.64091 5.63107C3.95175 7.31772 3.00178 9.6063 3 11.9934C2.99822 14.3804 3.94477 16.6704 5.63141 18.3596C7.31806 20.0487 9.60664 20.9987 11.9937 21.0005C14.3808 21.0023 16.6707 20.0557 18.3599 18.3691M20.0399 16.0511C20.893 14.3609 21.1914 12.4448 20.8926 10.5753C20.5938 8.70573 19.7131 6.97804 18.3757 5.63798C17.0383 4.29791 15.3123 3.41374 13.4434 3.11124C11.5745 2.80874 9.65775 3.10332 7.96591 3.95307M12.5 8.5001L16.65 4.3501M12 14.0002L13.025 13.0172M15.09 11.0362L19.37 6.93018M12 19.6001L15.79 15.8101M17.79 13.8101L20.844 10.7561M3 3.00012L21 21.0001" stroke="currentColor" stroke-width="1.5" stroke-linecap="round" stroke-linejoin="round"/>
</svg>
