<svg width="24" height="24" viewBox="0 0 24 24" fill="none" xmlns="http://www.w3.org/2000/svg">
<path d="M18.3642 19.364C19.8325 17.8977 20.749 15.9691 20.9585 13.9047C21.1681 11.8402 20.6579 9.76681 19.5142 8.03538C18.3706 6.30395 16.6637 5.0209 14.6827 4.40343C12.7017 3.78596 10.5681 3.872 8.64321 4.647M6.15521 6.156C5.21118 6.96222 4.44415 7.95503 3.90234 9.07201C3.36054 10.189 3.05568 11.406 3.00694 12.6465C2.9582 13.887 3.16662 15.1241 3.6191 16.2802C4.07159 17.4362 4.75835 18.4862 5.63621 19.364M15.536 16.536C16.2354 15.8367 16.7118 14.9457 16.9048 13.9757C17.0978 13.0057 16.9988 12.0002 16.6202 11.0865C16.2417 10.1727 15.6007 9.39175 14.7783 8.84235C13.9559 8.29296 12.989 7.99982 12 8M8.99996 9C8.42683 9.42985 7.95277 9.97785 7.60988 10.6069C7.26699 11.2359 7.06329 11.9313 7.01255 12.6459C6.96182 13.3605 7.06525 14.0777 7.31583 14.7489C7.56642 15.42 7.95831 16.0295 8.46496 16.536M12 12C11.8022 12 11.6089 12.0586 11.4444 12.1685C11.28 12.2784 11.1518 12.4346 11.0761 12.6173C11.0004 12.8 10.9806 13.0011 11.0192 13.1951C11.0578 13.3891 11.153 13.5673 11.2929 13.7071C11.4327 13.847 11.6109 13.9422 11.8049 13.9808C11.9989 14.0194 12.2 13.9996 12.3827 13.9239C12.5654 13.8482 12.7216 13.72 12.8315 13.5556C12.9414 13.3911 13 13.1978 13 13M3 3L21 21" stroke="currentColor" stroke-width="1.5" stroke-linecap="round" stroke-linejoin="round"/>
</svg>
