<svg width="24" height="24" viewBox="0 0 24 24" fill="none" xmlns="http://www.w3.org/2000/svg">
<path d="M18.364 19.364C19.6227 18.1054 20.4798 16.5017 20.8271 14.7559C21.1743 13.0101 20.9961 11.2005 20.3149 9.55595C19.6337 7.91142 18.4802 6.50582 17.0001 5.51689C15.5201 4.52796 13.78 4.00012 12 4.00012C10.22 4.00012 8.47992 4.52796 6.99988 5.51689C5.51984 6.50582 4.36629 7.91142 3.6851 9.55595C3.00391 11.2005 2.82567 13.0101 3.17293 14.7559C3.52019 16.5017 4.37734 18.1054 5.636 19.364M15.536 16.536C16.2351 15.8367 16.7112 14.9458 16.904 13.9759C17.0968 13.0061 16.9978 12.0008 16.6193 11.0872C16.2408 10.1737 15.5999 9.39287 14.7777 8.84352C13.9555 8.29417 12.9889 8.00096 12 8.00096C11.0112 8.00096 10.0445 8.29417 9.22229 8.84352C8.40007 9.39287 7.75921 10.1737 7.38073 11.0872C7.00225 12.0008 6.90316 13.0061 7.09598 13.9759C7.2888 14.9458 7.76487 15.8367 8.464 16.536M11 13C11 13.2652 11.1054 13.5196 11.2929 13.7071C11.4804 13.8947 11.7348 14 12 14C12.2652 14 12.5196 13.8947 12.7071 13.7071C12.8946 13.5196 13 13.2652 13 13C13 12.7348 12.8946 12.4805 12.7071 12.2929C12.5196 12.1054 12.2652 12 12 12C11.7348 12 11.4804 12.1054 11.2929 12.2929C11.1054 12.4805 11 12.7348 11 13Z" stroke="currentColor" stroke-width="1.5" stroke-linecap="round" stroke-linejoin="round"/>
</svg>
