<svg width="24" height="24" viewBox="0 0 24 24" fill="none" xmlns="http://www.w3.org/2000/svg">
<path d="M11.6912 7.704C14.1817 5.14024 17.4589 3.48421 21.0002 3C20.5164 6.53793 18.8626 9.81234 16.3028 12.302M9.8962 9.916C9.20584 10.9414 8.63671 12.0435 8.2002 13.2M14.1078 14.088C13.0756 14.7856 11.9654 15.3601 10.7998 15.8M3 3L21 21M3 17C3 16.2089 3.2346 15.4355 3.67412 14.7777C4.11365 14.1199 4.73836 13.6072 5.46927 13.3045C6.20017 13.0017 7.00444 12.9225 7.78036 13.0769C8.55629 13.2312 9.26902 13.6122 9.82843 14.1716C10.3878 14.731 10.7688 15.4437 10.9231 16.2196C11.0775 16.9956 10.9983 17.7998 10.6955 18.5307C10.3928 19.2616 9.88008 19.8864 9.22228 20.3259C8.56448 20.7654 7.79113 21 7 21H3V17Z" stroke="currentColor" stroke-width="1.5" stroke-linecap="round" stroke-linejoin="round"/>
</svg>
