<svg width="24" height="24" viewBox="0 0 24 24" fill="none" xmlns="http://www.w3.org/2000/svg">
<path d="M4 7C4 8.06087 4.84285 9.07828 6.34315 9.82843C7.84344 10.5786 9.87827 11 12 11C14.1217 11 16.1566 10.5786 17.6569 9.82843C19.1571 9.07828 20 8.06087 20 7M4 7C4 5.93913 4.84285 4.92172 6.34315 4.17157C7.84344 3.42143 9.87827 3 12 3C14.1217 3 16.1566 3.42143 17.6569 4.17157C19.1571 4.92172 20 5.93913 20 7M4 7C4 7.664 4.088 8.324 4.263 8.965L7 19C7.5 20.5 9.239 21 12 21C14.761 21 16.5 20.5 17 19C17.333 18 18.246 14.655 19.737 8.965C19.9118 8.32464 20.0003 7.66379 20 7" stroke="currentColor" stroke-width="1.5" stroke-linecap="round" stroke-linejoin="round"/>
</svg>
