<svg width="24" height="24" viewBox="0 0 24 24" fill="none" xmlns="http://www.w3.org/2000/svg">
<path d="M15.8177 3.49196C16.9667 4.64196 16.0357 7.43696 13.7367 9.73696C11.4377 12.036 8.6417 12.968 7.4917 11.818M15.8177 3.49196C14.6677 2.34196 11.8727 3.27496 9.5737 5.57396C7.2737 7.87296 6.3427 10.669 7.4917 11.818M15.8177 3.49196C16.1791 3.85331 16.4929 4.25923 16.7517 4.69994C19.0787 8.57794 20.4267 10.8769 20.7987 11.5949C21.3567 12.6729 20.7237 13.8499 19.2867 15.2869C17.8497 16.7239 16.6727 17.3559 15.5947 16.7989L8.6997 12.7519C8.2597 12.4939 7.8537 12.18 7.4917 11.818M4.9994 16L6.4644 17.638C6.72582 17.919 6.90085 18.2694 6.9686 18.6472C7.03635 19.0249 6.99396 19.4143 6.84649 19.7686C6.69902 20.123 6.45269 20.4274 6.13692 20.6456C5.82114 20.8638 5.44925 20.9865 5.06564 20.9991C4.68202 21.0117 4.30288 20.9136 3.97348 20.7166C3.64407 20.5196 3.3783 20.232 3.2079 19.8881C3.0375 19.5442 2.96967 19.1585 3.01249 18.7771C3.05531 18.3956 3.20698 18.0346 3.4494 17.737L4.9994 16Z" stroke="currentColor" stroke-width="1.5" stroke-linecap="round" stroke-linejoin="round"/>
</svg>
