<svg width="24" height="24" viewBox="0 0 24 24" fill="none" xmlns="http://www.w3.org/2000/svg">
<path d="M12 4C13.0262 4 14.0132 4.39444 14.7568 5.10172C15.5004 5.80901 15.9437 6.77504 15.995 7.8L16 8C16.148 7.99993 16.2942 8.03272 16.428 8.096L19.461 6.158C19.5716 6.08364 19.6958 6.03212 19.8266 6.00647C19.9573 5.98082 20.0919 5.98156 20.2223 6.00863C20.3528 6.0357 20.4765 6.08857 20.5862 6.16413C20.696 6.23969 20.7895 6.33642 20.8613 6.44863C20.9332 6.56084 20.9818 6.68627 21.0045 6.81756C21.0272 6.94884 21.0234 7.08334 20.9934 7.21314C20.9634 7.34295 20.9077 7.46544 20.8297 7.57343C20.7516 7.68142 20.6528 7.77273 20.539 7.842L17.524 9.773C17.8003 10.4852 17.961 11.237 18 12H21C21.2652 12 21.5196 12.1054 21.7071 12.2929C21.8946 12.4804 22 12.7348 22 13C22 13.2652 21.8946 13.5196 21.7071 13.7071C21.5196 13.8946 21.2652 14 21 14H18V15C18.0006 15.5146 17.935 16.0271 17.805 16.525L20.513 18.141C20.6258 18.2084 20.7242 18.2973 20.8027 18.4027C20.8811 18.5081 20.938 18.6279 20.9701 18.7553C21.0023 18.8827 21.009 19.0152 20.9899 19.1452C20.9709 19.2752 20.9264 19.4002 20.859 19.513C20.7916 19.6258 20.7027 19.7242 20.5973 19.8027C20.4919 19.8811 20.3721 19.938 20.2447 19.9701C20.1173 20.0023 19.9848 20.009 19.8548 19.9899C19.7248 19.9709 19.5998 19.9264 19.487 19.859L16.973 18.358C16.5185 19.0314 15.932 19.6055 15.2491 20.0455C14.5662 20.4856 13.801 20.7824 13 20.918V15C13 14.7348 12.8946 14.4804 12.7071 14.2929C12.5196 14.1054 12.2652 14 12 14C11.7348 14 11.4804 14.1054 11.2929 14.2929C11.1054 14.4804 11 14.7348 11 15V20.917C10.199 20.7814 9.43383 20.4846 8.75091 20.0445C8.06798 19.6045 7.4815 19.0304 7.027 18.357L4.513 19.86C4.28518 19.9961 4.01264 20.036 3.75534 19.9712C3.49804 19.9063 3.27706 19.7418 3.141 19.514C3.00494 19.2862 2.96496 19.0136 3.02985 18.7563C3.09474 18.499 3.25918 18.2781 3.487 18.142L6.195 16.526C6.0649 16.0278 5.99936 15.5149 6 15V14H3C2.73478 14 2.48043 13.8946 2.29289 13.7071C2.10536 13.5196 2 13.2652 2 13C2 12.7348 2.10536 12.4804 2.29289 12.2929C2.48043 12.1054 2.73478 12 3 12H6.001V11.945C6.04218 11.2 6.2022 10.4664 6.475 9.772L3.461 7.842C3.34719 7.77273 3.24837 7.68142 3.17034 7.57343C3.09231 7.46544 3.03664 7.34295 3.00662 7.21314C2.97659 7.08334 2.9728 6.94884 2.99548 6.81756C3.01816 6.68627 3.06684 6.56084 3.13867 6.44863C3.2105 6.33642 3.30403 6.23969 3.41376 6.16413C3.5235 6.08857 3.64722 6.0357 3.77768 6.00863C3.90813 5.98156 4.04268 5.98082 4.17341 6.00647C4.30415 6.03212 4.42845 6.08364 4.539 6.158L7.571 8.097L7.595 8.085L7.663 8.058L7.682 8.053L7.698 8.047L7.73 8.039L7.77 8.026L7.804 8.019L7.838 8.015L7.883 8.007L7.898 8.006L7.913 8.004L8 8C8 6.93913 8.42143 5.92172 9.17157 5.17157C9.92172 4.42143 10.9391 4 12 4ZM12 6C11.4696 6 10.9609 6.21071 10.5858 6.58579C10.2107 6.96086 10 7.46957 10 8H14C14 7.46957 13.7893 6.96086 13.4142 6.58579C13.0391 6.21071 12.5304 6 12 6Z" fill="currentColor"/>
</svg>
