<svg width="24" height="24" viewBox="0 0 24 24" fill="none" xmlns="http://www.w3.org/2000/svg">
<path d="M9.88379 5.87301C10.304 5.45493 10.8386 5.17069 11.4201 5.05617C12.0017 4.94164 12.6042 5.00196 13.1515 5.22951C13.6988 5.45706 14.1664 5.84164 14.4954 6.33472C14.8243 6.8278 14.9999 7.40727 14.9998 8.00001V9.00001M13 9H16C16.5956 9.89259 16.9409 10.9286 17 12V13H21M16.702 16.705C16.3018 17.8117 15.5241 18.7417 14.5057 19.3315C13.4874 19.9212 12.2936 20.1329 11.1346 19.9292C9.97553 19.7255 8.92548 19.1195 8.1692 18.2179C7.41293 17.3163 6.99891 16.1768 7 15V12C7.05907 10.9286 7.4044 9.89259 8 9H9M3 13H7M12 20V14M4 19L7.35 17M4 7L7.75 9.4M20 7L16.25 9.4M3 3L21 21" stroke="currentColor" stroke-width="1.5" stroke-linecap="round" stroke-linejoin="round"/>
</svg>
