<svg width="24" height="24" viewBox="0 0 24 24" fill="none" xmlns="http://www.w3.org/2000/svg">
<path fill-rule="evenodd" clip-rule="evenodd" d="M12 5.75C11.4033 5.75 10.831 5.98705 10.409 6.40901C9.98705 6.83097 9.75 7.40326 9.75 8V8.25H14.25V8C14.25 7.40326 14.0129 6.83097 13.591 6.40901C13.169 5.98705 12.5967 5.75 12 5.75ZM15.75 8.25V8C15.75 7.00544 15.3549 6.05161 14.6517 5.34835C13.9484 4.64509 12.9946 4.25 12 4.25C11.0054 4.25 10.0516 4.64509 9.34835 5.34835C8.64509 6.05161 8.25 7.00544 8.25 8V8.25H8C7.84118 8.25 7.68901 8.30027 7.56344 8.39015L4.40429 6.3683C4.05541 6.14501 3.59158 6.24683 3.3683 6.59571C3.14501 6.94459 3.24683 7.40842 3.59571 7.6317L6.78581 9.67336C6.47674 10.3952 6.29471 11.1684 6.25114 11.9587C6.25038 11.9725 6.25 11.9862 6.25 12V12.25H3C2.58579 12.25 2.25 12.5858 2.25 13C2.25 13.4142 2.58579 13.75 3 13.75H6.25V15C6.25 15.5606 6.33187 16.1128 6.48899 16.6405L3.61554 18.356C3.25989 18.5684 3.1437 19.0288 3.35603 19.3845C3.56836 19.7401 4.0288 19.8563 4.38446 19.644L7.10629 18.019C7.3388 18.3959 7.61589 18.7476 7.93414 19.0659C9.01247 20.1442 10.475 20.75 12 20.75C13.525 20.75 14.9875 20.1442 16.0659 19.0659C16.3841 18.7476 16.6612 18.3959 16.8937 18.019L19.6154 19.644C19.9711 19.8563 20.4315 19.7401 20.6439 19.3845C20.8562 19.0288 20.74 18.5684 20.3844 18.356L17.511 16.6406C17.6681 16.1128 17.75 15.5606 17.75 15V13.75H21C21.4142 13.75 21.75 13.4142 21.75 13C21.75 12.5858 21.4142 12.25 21 12.25H17.75V12C17.75 11.9862 17.7496 11.9725 17.7489 11.9587C17.7053 11.1684 17.5233 10.3952 17.2142 9.67336L20.4043 7.6317C20.7532 7.40842 20.855 6.94459 20.6317 6.59571C20.4084 6.24683 19.9446 6.14501 19.5957 6.3683L16.4366 8.39015C16.311 8.30027 16.1588 8.25 16 8.25H15.75ZM8.41875 9.75C8.02659 10.4449 7.79715 11.2216 7.75 12.0213V15C7.75 16.1272 8.19777 17.2082 8.9948 18.0052C9.61277 18.6232 10.4014 19.0312 11.25 19.1833V14C11.25 13.5858 11.5858 13.25 12 13.25C12.4142 13.25 12.75 13.5858 12.75 14V19.1833C13.5986 19.0312 14.3872 18.6232 15.0052 18.0052C15.8022 17.2082 16.25 16.1272 16.25 15V12.0213C16.2029 11.2216 15.9734 10.4449 15.5813 9.75H8.41875Z" fill="currentColor"/>
</svg>
