<svg width="24" height="24" viewBox="0 0 24 24" fill="none" xmlns="http://www.w3.org/2000/svg">
<path d="M4 21C5.147 16.98 5.983 12.973 6 9H12C12.017 12.973 12.853 16.98 14 21M12.5 13H17C17.025 15.612 17.894 18.296 19 21M9 5.00004C9.22717 4.68355 9.52797 4.42711 9.87642 4.25289C10.2249 4.07866 10.6105 3.99188 11 4.00004C11.3895 3.99188 11.7751 4.07866 12.1236 4.25289C12.472 4.42711 12.7728 4.68355 13 5.00004C13.2272 5.31653 13.528 5.57296 13.8764 5.74719C14.2249 5.92142 14.6105 6.0082 15 6.00004C15.3895 6.0082 15.7751 5.92142 16.1236 5.74719C16.472 5.57296 16.7728 5.31653 17 5.00004C17.2272 4.68355 17.528 4.42711 17.8764 4.25289C18.2249 4.07866 18.6105 3.99188 19 4.00004C19.3895 3.99188 19.7751 4.07866 20.1236 4.25289C20.472 4.42711 20.7728 4.68355 21 5.00004M3 21H22" stroke="currentColor" stroke-width="1.5" stroke-linecap="round" stroke-linejoin="round"/>
</svg>
