<svg width="24" height="24" viewBox="0 0 24 24" fill="none" xmlns="http://www.w3.org/2000/svg">
<path d="M9.99988 11C9.99988 11.5304 10.2106 12.0391 10.5857 12.4142C10.9607 12.7893 11.4694 13 11.9999 13C12.5303 13 13.039 12.7893 13.4141 12.4142C13.7892 12.0391 13.9999 11.5304 13.9999 11M9.99988 11C9.99988 10.4696 10.2106 9.96086 10.5857 9.58579C10.9607 9.21071 11.4694 9 11.9999 9C12.5303 9 13.039 9.21071 13.4141 9.58579C13.7892 9.96086 13.9999 10.4696 13.9999 11M9.99988 11V8.427C9.99988 8.247 10.0129 8.069 10.0399 7.891L10.7559 3.063C10.8199 2.466 11.3529 2 11.9999 2C12.6469 2 13.1799 2.466 13.2439 3.063L13.9599 7.891C13.9869 8.069 13.9999 8.248 13.9999 8.427V11M13.0099 9.28003L15.2449 10.556C15.4009 10.646 15.5499 10.746 15.6909 10.856L19.5269 13.767C20.0139 14.119 20.1509 14.807 19.8269 15.363C19.5019 15.919 18.8269 16.145 18.2789 15.904L13.7239 14.224C13.5564 14.1592 13.394 14.082 13.2379 13.993L11.0029 12.716M12.9999 12.716L10.7639 13.993C10.6082 14.0816 10.4461 14.1585 10.2789 14.223L5.72394 15.904C5.17294 16.145 4.50094 15.919 4.17594 15.364C3.85194 14.807 3.98894 14.119 4.47594 13.767L8.31194 10.857C8.45248 10.7455 8.60161 10.6451 8.75794 10.557L10.9929 9.28003M6.99988 21H16.9999M9.99988 21L10.9999 14M12.9999 14L13.9999 21" stroke="currentColor" stroke-width="1.5" stroke-linecap="round" stroke-linejoin="round"/>
</svg>
