<svg width="24" height="24" viewBox="0 0 24 24" fill="none" xmlns="http://www.w3.org/2000/svg">
<path d="M12 6C13.5913 6 15.1174 6.63214 16.2426 7.75736C17.3679 8.88258 18 10.4087 18 12C18 13.5913 17.3679 15.1174 16.2426 16.2426C15.1174 17.3679 13.5913 18 12 18C10.4087 18 8.88258 17.3679 7.75736 16.2426C6.63214 15.1174 6 13.5913 6 12C6 10.4087 6.63214 8.88258 7.75736 7.75736C8.88258 6.63214 10.4087 6 12 6ZM12 6C11.4696 6 10.9609 5.78929 10.5858 5.41421C10.2107 5.03914 10 4.53043 10 4C10 3.46957 10.2107 2.96086 10.5858 2.58579C10.9609 2.21071 11.4696 2 12 2C12.5304 2 13.0391 2.21071 13.4142 2.58579C13.7893 2.96086 14 3.46957 14 4C14 4.53043 13.7893 5.03914 13.4142 5.41421C13.0391 5.78929 12.5304 6 12 6ZM8 22L12 12L16 22M3 8C3 8.53043 3.21071 9.03914 3.58579 9.41421C3.96086 9.78929 4.46957 10 5 10C5.53043 10 6.03914 9.78929 6.41421 9.41421C6.78929 9.03914 7 8.53043 7 8C7 7.46957 6.78929 6.96086 6.41421 6.58579C6.03914 6.21071 5.53043 6 5 6C4.46957 6 3.96086 6.21071 3.58579 6.58579C3.21071 6.96086 3 7.46957 3 8ZM17 8C17 8.53043 17.2107 9.03914 17.5858 9.41421C17.9609 9.78929 18.4696 10 19 10C19.5304 10 20.0391 9.78929 20.4142 9.41421C20.7893 9.03914 21 8.53043 21 8C21 7.46957 20.7893 6.96086 20.4142 6.58579C20.0391 6.21071 19.5304 6 19 6C18.4696 6 17.9609 6.21071 17.5858 6.58579C17.2107 6.96086 17 7.46957 17 8ZM3 16C3 16.5304 3.21071 17.0391 3.58579 17.4142C3.96086 17.7893 4.46957 18 5 18C5.53043 18 6.03914 17.7893 6.41421 17.4142C6.78929 17.0391 7 16.5304 7 16C7 15.4696 6.78929 14.9609 6.41421 14.5858C6.03914 14.2107 5.53043 14 5 14C4.46957 14 3.96086 14.2107 3.58579 14.5858C3.21071 14.9609 3 15.4696 3 16ZM17 16C17 16.5304 17.2107 17.0391 17.5858 17.4142C17.9609 17.7893 18.4696 18 19 18C19.5304 18 20.0391 17.7893 20.4142 17.4142C20.7893 17.0391 21 16.5304 21 16C21 15.4696 20.7893 14.9609 20.4142 14.5858C20.0391 14.2107 19.5304 14 19 14C18.4696 14 17.9609 14.2107 17.5858 14.5858C17.2107 14.9609 17 15.4696 17 16Z" stroke="currentColor" stroke-width="1.5" stroke-linecap="round" stroke-linejoin="round"/>
</svg>
