<svg width="24" height="24" viewBox="0 0 24 24" fill="none" xmlns="http://www.w3.org/2000/svg">
<path d="M7 7V7.01M7 10V10.01M7 13V13.01M17 7V7.01M17 10V10.01M17 13V13.01M8 21C8.26522 21 8.51957 20.8946 8.70711 20.7071C8.89464 20.5196 9 20.2652 9 20V19C9 18.2044 9.31607 17.4413 9.87868 16.8787C10.4413 16.3161 11.2044 16 12 16C12.7956 16 13.5587 16.3161 14.1213 16.8787C14.6839 17.4413 15 18.2044 15 19V20C15 20.2652 15.1054 20.5196 15.2929 20.7071C15.4804 20.8946 15.7348 21 16 21H19C19.2652 21 19.5196 20.8946 19.7071 20.7071C19.8946 20.5196 20 20.2652 20 20V5L17 3L14 5V11H10V5L7 3L4 5V20C4 20.2652 4.10536 20.5196 4.29289 20.7071C4.48043 20.8946 4.73478 21 5 21H8Z" stroke="currentColor" stroke-width="1.5" stroke-linecap="round" stroke-linejoin="round"/>
</svg>
