<svg width="24" height="24" viewBox="0 0 24 24" fill="none" xmlns="http://www.w3.org/2000/svg">
<path d="M4 12C4 12.5304 4.84285 13.0391 6.34315 13.4142C7.84344 13.7893 9.87827 14 12 14C14.1217 14 16.1566 13.7893 17.6569 13.4142C19.1571 13.0391 20 12.5304 20 12M4 12C4 11.4696 4.84285 10.9609 6.34315 10.5858C7.84344 10.2107 9.87827 10 12 10C14.1217 10 16.1566 10.2107 17.6569 10.5858C19.1571 10.9609 20 11.4696 20 12M4 12V19C4 19.94 6.51 20.785 10 21V18H14V21C17.435 20.775 20 19.93 20 19V12M15 6H19V3H15V10M7 6H11V3H7V10" stroke="currentColor" stroke-width="1.5" stroke-linecap="round" stroke-linejoin="round"/>
</svg>
