<svg width="24" height="24" viewBox="0 0 24 24" fill="none" xmlns="http://www.w3.org/2000/svg">
<path d="M3 21H10V19C10 18.4696 10.2107 17.9609 10.5858 17.5858C10.9609 17.2107 11.4696 17 12 17C12.5304 17 13.0391 17.2107 13.4142 17.5858C13.7893 17.9609 14 18.4696 14 19V21H21M4 21V11M20 21V11M4 16H7V13M7 13H17M7 13C7 11.6739 7.52678 10.4021 8.46447 9.46447C9.40215 8.52678 10.6739 8 12 8M17 13V16H20M17 13C17 11.6739 16.4732 10.4021 15.5355 9.46447C14.5979 8.52678 13.3261 8 12 8M12 8V6M12 2C11.6044 2 11.2178 2.1173 10.8889 2.33706C10.56 2.55682 10.3036 2.86918 10.1522 3.23463C10.0009 3.60009 9.96126 4.00222 10.0384 4.39018C10.1156 4.77814 10.3061 5.13451 10.5858 5.41421C10.8655 5.69392 11.2219 5.8844 11.6098 5.96157C11.9978 6.03874 12.3999 5.99913 12.7654 5.84776C13.1308 5.69638 13.4432 5.44004 13.6629 5.11114C13.8827 4.78224 14 4.39556 14 4M21 10.5C21 10.171 20.923 9.847 20.776 9.553L20 8L19.224 9.553C19.0768 9.847 19.0002 10.1712 19 10.5C19 10.6326 19.0527 10.7598 19.1464 10.8536C19.2402 10.9473 19.3674 11 19.5 11H20.5C20.6326 11 20.7598 10.9473 20.8536 10.8536C20.9473 10.7598 21 10.6326 21 10.5ZM5 10.5C5 10.171 4.923 9.847 4.776 9.553L4 8L3.224 9.553C3.07684 9.847 3.00015 10.1712 3 10.5C3 10.6326 3.05268 10.7598 3.14645 10.8536C3.24021 10.9473 3.36739 11 3.5 11H4.5C4.63261 11 4.75979 10.9473 4.85355 10.8536C4.94732 10.7598 5 10.6326 5 10.5Z" stroke="currentColor" stroke-width="1.5" stroke-linecap="round" stroke-linejoin="round"/>
</svg>
