<svg width="24" height="24" viewBox="0 0 24 24" fill="none" xmlns="http://www.w3.org/2000/svg">
<path d="M3.99987 11C4.25475 11.0003 4.4999 11.0979 4.68524 11.2728C4.87057 11.4478 4.9821 11.687 4.99704 11.9414C5.01198 12.1958 4.92919 12.4464 4.7656 12.6418C4.60201 12.8373 4.36996 12.9629 4.11687 12.993L3.99987 13H2.99987C2.74499 12.9997 2.49984 12.9021 2.3145 12.7272C2.12916 12.5522 2.01763 12.313 2.0027 12.0586C1.98776 11.8042 2.07054 11.5536 2.23413 11.3582C2.39772 11.1627 2.62977 11.0371 2.88287 11.007L2.99987 11H3.99987Z" fill="currentColor"/>
<path d="M11.9999 2C12.2448 2.00003 12.4812 2.08996 12.6642 2.25272C12.8473 2.41547 12.9642 2.63975 12.9929 2.883L12.9999 3V4C12.9996 4.25488 12.902 4.50003 12.727 4.68537C12.5521 4.8707 12.3129 4.98223 12.0585 4.99717C11.804 5.01211 11.5535 4.92933 11.358 4.76574C11.1626 4.60214 11.037 4.3701 11.0069 4.117L10.9999 4V3C10.9999 2.73478 11.1052 2.48043 11.2928 2.29289C11.4803 2.10536 11.7347 2 11.9999 2Z" fill="currentColor"/>
<path d="M20.9999 11C21.2547 11.0003 21.4999 11.0979 21.6852 11.2728C21.8706 11.4478 21.9821 11.687 21.997 11.9414C22.012 12.1958 21.9292 12.4464 21.7656 12.6418C21.602 12.8373 21.37 12.9629 21.1169 12.993L20.9999 13H19.9999C19.745 12.9997 19.4998 12.9021 19.3145 12.7272C19.1292 12.5522 19.0176 12.313 19.0027 12.0586C18.9878 11.8042 19.0705 11.5536 19.2341 11.3582C19.3977 11.1627 19.6298 11.0371 19.8829 11.007L19.9999 11H20.9999Z" fill="currentColor"/>
<path d="M4.89287 4.893C5.06506 4.72082 5.29416 4.61739 5.53719 4.60211C5.78021 4.58683 6.02046 4.66075 6.21287 4.81L6.30687 4.893L7.00687 5.593C7.18622 5.77295 7.29034 6.01443 7.2981 6.26838C7.30585 6.52233 7.21665 6.76971 7.04862 6.96028C6.88059 7.15084 6.64632 7.2703 6.39339 7.2944C6.14047 7.31849 5.88786 7.24541 5.68687 7.09L5.59287 7.007L4.89287 6.307C4.7054 6.11947 4.60008 5.86516 4.60008 5.6C4.60008 5.33483 4.7054 5.08052 4.89287 4.893Z" fill="currentColor"/>
<path d="M17.6929 4.893C17.8728 4.71365 18.1143 4.60952 18.3683 4.60177C18.6222 4.59401 18.8696 4.68321 19.0602 4.85125C19.2507 5.01928 19.3702 5.25355 19.3943 5.50647C19.4184 5.75939 19.3453 6.01201 19.1899 6.213L19.1069 6.307L18.4069 7.007C18.2269 7.18635 17.9854 7.29047 17.7315 7.29823C17.4775 7.30598 17.2302 7.21678 17.0396 7.04875C16.849 6.88072 16.7296 6.64645 16.7055 6.39352C16.6814 6.1406 16.7545 5.88799 16.9099 5.687L16.9929 5.593L17.6929 4.893Z" fill="currentColor"/>
<path d="M13.9999 18C14.2651 18 14.5194 18.1054 14.707 18.2929C14.8945 18.4804 14.9999 18.7348 14.9999 19C14.9999 19.7956 14.6838 20.5587 14.1212 21.1213C13.5586 21.6839 12.7955 22 11.9999 22C11.2042 22 10.4412 21.6839 9.87855 21.1213C9.31594 20.5587 8.99987 19.7956 8.99987 19C8.9999 18.7551 9.08983 18.5187 9.25259 18.3356C9.41534 18.1526 9.63962 18.0357 9.88287 18.007L9.99987 18H13.9999Z" fill="currentColor"/>
<path d="M11.9999 6C13.2592 6 14.4865 6.39622 15.5081 7.13255C16.5297 7.86887 17.2937 8.90796 17.692 10.1026C18.0902 11.2973 18.1024 12.587 17.727 13.789C17.3515 14.991 16.6073 16.0444 15.5999 16.8C15.462 16.9035 15.2998 16.9697 15.1289 16.992L14.9999 17H8.99987C8.7835 17 8.57297 16.9298 8.39987 16.8C7.39243 16.0444 6.64827 14.991 6.27279 13.789C5.89731 12.587 5.90955 11.2973 6.30777 10.1026C6.70599 8.90796 7.47002 7.86887 8.49161 7.13255C9.5132 6.39622 10.7406 6 11.9999 6Z" fill="currentColor"/>
</svg>
