<svg width="24" height="24" viewBox="0 0 24 24" fill="none" xmlns="http://www.w3.org/2000/svg">
<path d="M3 12H4M12 3V4M20 12H21M5.6 5.6L6.3 6.3M18.4 5.6L17.7 6.3M11.089 7.08304C11.8877 6.93485 12.7105 6.98351 13.4862 7.2248C14.2619 7.46609 14.9671 7.89275 15.5409 8.46786C16.1146 9.04297 16.5396 9.74921 16.779 10.5255C17.0184 11.3018 17.0651 12.1247 16.915 12.923M15.537 15.534C15.3693 15.7019 15.1898 15.8576 15 16C14.6096 16.3865 14.3156 16.8595 14.1419 17.3807C13.9681 17.9018 13.9195 18.4566 14 19C14 19.5305 13.7893 20.0392 13.4142 20.4143C13.0391 20.7893 12.5304 21 12 21C11.4696 21 10.9609 20.7893 10.5858 20.4143C10.2107 20.0392 9.99999 19.5305 9.99999 19C10.0805 18.4566 10.0318 17.9018 9.85812 17.3807C9.6844 16.8595 9.39043 16.3865 8.99999 16C8.42603 15.5697 7.9514 15.0209 7.60831 14.3909C7.26523 13.7608 7.06174 13.0644 7.01165 12.3487C6.96157 11.6331 7.06606 10.9151 7.31804 10.2434C7.57001 9.57173 7.96357 8.96215 8.47199 8.45604M9.7 17H14.3M3 3L21 21" stroke="currentColor" stroke-width="1.5" stroke-linecap="round" stroke-linejoin="round"/>
</svg>
