<svg width="24" height="24" viewBox="0 0 24 24" fill="none" xmlns="http://www.w3.org/2000/svg">
<path d="M4 17C4 17.5304 4.21071 18.0391 4.58579 18.4142C4.96086 18.7893 5.46957 19 6 19C6.53043 19 7.03914 18.7893 7.41421 18.4142C7.78929 18.0391 8 17.5304 8 17M4 17C4 16.4696 4.21071 15.9609 4.58579 15.5858C4.96086 15.2107 5.46957 15 6 15C6.53043 15 7.03914 15.2107 7.41421 15.5858C7.78929 15.9609 8 16.4696 8 17M4 17H2V6C2 5.73478 2.10536 5.48043 2.29289 5.29289C2.48043 5.10536 2.73478 5 3 5H5M8 17H16M16.18 16.1721C16.011 16.5431 15.9593 16.9569 16.032 17.3581C16.1047 17.7593 16.2983 18.1286 16.5868 18.4167C16.8753 18.7048 17.245 18.8978 17.6463 18.9699C18.0475 19.042 18.4613 18.9897 18.832 18.8201M9 5H17C19.761 5 22 8.134 22 12M22 12V17H21M22 12H17.5L16 5M2 10H10M14 10H17M7 7V10M12 5V8M3 3L21 21" stroke="currentColor" stroke-width="1.5" stroke-linecap="round" stroke-linejoin="round"/>
</svg>
