<svg width="24" height="24" viewBox="0 0 24 24" fill="none" xmlns="http://www.w3.org/2000/svg">
<path d="M7 22C6.74512 21.9997 6.49997 21.9021 6.31463 21.7271C6.1293 21.5521 6.01777 21.313 6.00283 21.0586C5.98789 20.8041 6.07067 20.5536 6.23426 20.3581C6.39786 20.1627 6.6299 20.0371 6.883 20.007L7 20H9V14C7.97376 14 6.98677 13.6055 6.24319 12.8982C5.4996 12.191 5.05631 11.2249 5.005 10.2L5 9.99996V8.99996C5.00028 8.74508 5.09788 8.49993 5.27285 8.31459C5.44782 8.12926 5.68695 8.01773 5.94139 8.00279C6.19584 7.98785 6.44638 8.07064 6.64183 8.23423C6.83729 8.39782 6.9629 8.62987 6.993 8.88296L7 8.99996V9.99996C6.99984 10.5045 7.19041 10.9905 7.5335 11.3605C7.87659 11.7305 8.34685 11.9571 8.85 11.995L9 12V4.99996C8.99925 4.21906 9.30302 3.46863 9.84677 2.90815C10.3905 2.34766 11.1314 2.02128 11.912 1.99836C12.6925 1.97545 13.4513 2.2578 14.027 2.78542C14.6027 3.31305 14.9499 4.04436 14.995 4.82396L15 4.99996V15C15.5046 15.0001 15.9906 14.8096 16.3605 14.4665C16.7305 14.1234 16.9572 13.6531 16.995 13.15L17 13V7.99996C17.0003 7.74508 17.0979 7.49993 17.2728 7.31459C17.4478 7.12926 17.687 7.01773 17.9414 7.00279C18.1958 6.98785 18.4464 7.07064 18.6418 7.23423C18.8373 7.39782 18.9629 7.62987 18.993 7.88296L19 7.99996V13C19 14.0262 18.6056 15.0132 17.8983 15.7568C17.191 16.5004 16.225 16.9437 15.2 16.995L15 17V20H17C17.2549 20.0002 17.5 20.0978 17.6854 20.2728C17.8707 20.4478 17.9822 20.6869 17.9972 20.9414C18.0121 21.1958 17.9293 21.4463 17.7657 21.6418C17.6021 21.8372 17.3701 21.9629 17.117 21.993L17 22H7Z" fill="currentColor"/>
</svg>
