<svg width="24" height="24" viewBox="0 0 24 24" fill="none" xmlns="http://www.w3.org/2000/svg">
<path d="M21 17V12C21 11.2044 20.6839 10.4413 20.1213 9.87868C19.5587 9.31607 18.7956 9 18 9H13M9 9H6C5.20435 9 4.44129 9.31607 3.87868 9.87868C3.31607 10.4413 3 11.2044 3 12V20H20M3 14.803C3.312 14.938 3.654 15.007 4 15C4.3895 15.0082 4.77512 14.9214 5.12358 14.7472C5.47203 14.573 5.77283 14.3165 6 14C6.22717 13.6835 6.52797 13.4271 6.87642 13.2529C7.22488 13.0787 7.6105 12.9919 8 13C8.3895 12.9919 8.77512 13.0787 9.12358 13.2529C9.47203 13.4271 9.77283 13.6835 10 14C10.2272 14.3165 10.528 14.573 10.8764 14.7472C11.2249 14.9214 11.6105 15.0082 12 15C12.3895 15.0082 12.7751 14.9214 13.1236 14.7472C13.472 14.573 13.7728 14.3165 14 14M18 14C18.2272 14.3165 18.528 14.573 18.8764 14.7472C19.2249 14.9214 19.6105 15.0082 20 15C20.35 15.007 20.692 14.938 21 14.803M10.172 6.188C10.242 6.03 10.335 5.878 10.45 5.737L12 4L13.465 5.638C13.682 5.87104 13.8402 6.15253 13.9265 6.45906C14.0128 6.76558 14.0247 7.08828 13.9611 7.40031C13.8975 7.71233 13.7603 8.00467 13.561 8.25299C13.3617 8.50132 13.1059 8.69845 12.815 8.828M3 3L21 21" stroke="currentColor" stroke-width="1.5" stroke-linecap="round" stroke-linejoin="round"/>
</svg>
