<svg width="24" height="24" viewBox="0 0 24 24" fill="none" xmlns="http://www.w3.org/2000/svg">
<path d="M12.5 21H6C5.46957 21 4.96086 20.7893 4.58579 20.4142C4.21071 20.0391 4 19.5304 4 19V7C4 6.46957 4.21071 5.96086 4.58579 5.58579C4.96086 5.21071 5.46957 5 6 5H18C18.5304 5 19.0391 5.21071 19.4142 5.58579C19.7893 5.96086 20 6.46957 20 7V11H4M16 3V7M19 18V18.01M8 3V7M21.121 20.1209C21.5407 19.7014 21.8265 19.1668 21.9423 18.5849C22.0581 18.0029 21.9988 17.3997 21.7717 16.8514C21.5447 16.3032 21.1602 15.8346 20.6668 15.5049C20.1734 15.1752 19.5934 14.9993 19 14.9993C18.4066 14.9993 17.8266 15.1752 17.3332 15.5049C16.8398 15.8346 16.4553 16.3032 16.2283 16.8514C16.0012 17.3997 15.9419 18.0029 16.0577 18.5849C16.1735 19.1668 16.4594 19.7014 16.879 20.1209C17.297 20.5399 18.004 21.1659 19 21.9999C20.051 21.1099 20.759 20.4839 21.121 20.1209Z" stroke="currentColor" stroke-width="1.5" stroke-linecap="round" stroke-linejoin="round"/>
</svg>
