<svg width="24" height="24" viewBox="0 0 24 24" fill="none" xmlns="http://www.w3.org/2000/svg">
<path d="M12.5 20H5C4.46957 20 3.96086 19.7893 3.58579 19.4142C3.21071 19.0391 3 18.5304 3 18V9C3 8.46957 3.21071 7.96086 3.58579 7.58579C3.96086 7.21071 4.46957 7 5 7H6C6.53043 7 7.03914 6.78929 7.41421 6.41421C7.78929 6.03914 8 5.53043 8 5C8 4.73478 8.10536 4.48043 8.29289 4.29289C8.48043 4.10536 8.73478 4 9 4H15C15.2652 4 15.5196 4.10536 15.7071 4.29289C15.8946 4.48043 16 4.73478 16 5C16 5.53043 16.2107 6.03914 16.5858 6.41421C16.9609 6.78929 17.4696 7 18 7H19C19.5304 7 20.0391 7.21071 20.4142 7.58579C20.7893 7.96086 21 8.46957 21 9V11M14.933 12.366C14.8135 11.8124 14.5398 11.3038 14.1435 10.8991C13.7471 10.4945 13.2443 10.2103 12.6932 10.0793C12.1421 9.94839 11.5653 9.9761 11.0292 10.1592C10.4932 10.3424 10.02 10.6735 9.66426 11.1142C9.30851 11.555 9.08477 12.0875 9.0189 12.6501C8.95303 13.2127 9.04772 13.7824 9.29203 14.2934C9.53634 14.8045 9.92029 15.2359 10.3995 15.5379C10.8787 15.8399 11.4336 16.0001 12 16M19 18V18.01M21.121 20.121C21.5407 19.7015 21.8265 19.167 21.9423 18.585C22.0581 18.003 21.9988 17.3998 21.7717 16.8515C21.5447 16.3033 21.1602 15.8347 20.6668 15.505C20.1734 15.1754 19.5934 14.9994 19 14.9994C18.4066 14.9994 17.8266 15.1754 17.3332 15.505C16.8398 15.8347 16.4553 16.3033 16.2283 16.8515C16.0012 17.3998 15.9419 18.003 16.0577 18.585C16.1735 19.167 16.4594 19.7015 16.879 20.121C17.297 20.54 18.004 21.166 19 22C20.051 21.11 20.759 20.484 21.121 20.121Z" stroke="currentColor" stroke-width="1.5" stroke-linecap="round" stroke-linejoin="round"/>
</svg>
