<svg width="24" height="24" viewBox="0 0 24 24" fill="none" xmlns="http://www.w3.org/2000/svg">
<path d="M13 20H5C4.46957 20 3.96086 19.7893 3.58579 19.4142C3.21071 19.0391 3 18.5304 3 18V9C3 8.46957 3.21071 7.96086 3.58579 7.58579C3.96086 7.21071 4.46957 7 5 7H6C6.53043 7 7.03914 6.78929 7.41421 6.41421C7.78929 6.03914 8 5.53043 8 5C8 4.73478 8.10536 4.48043 8.29289 4.29289C8.48043 4.10536 8.73478 4 9 4H15C15.2652 4 15.5196 4.10536 15.7071 4.29289C15.8946 4.48043 16 4.73478 16 5C16 5.53043 16.2107 6.03914 16.5858 6.41421C16.9609 6.78929 17.4696 7 18 7H19C19.5304 7 20.0391 7.21071 20.4142 7.58579C20.7893 7.96086 21 8.46957 21 9V13M14.958 13.506C15.0705 12.8467 14.9596 12.1688 14.6427 11.5799C14.3259 10.9909 13.8213 10.5247 13.2092 10.2554C12.5971 9.98599 11.9125 9.92885 11.2642 10.093C10.616 10.2572 10.0411 10.6333 9.63103 11.1616C9.22094 11.6899 8.99912 12.34 9.0008 13.0088C9.00249 13.6775 9.22758 14.3266 9.64032 14.8528C10.0531 15.379 10.6298 15.7522 11.2789 15.9131C11.928 16.074 12.6123 16.0134 13.223 15.741M17 17V22M21 17V22" stroke="currentColor" stroke-width="1.5" stroke-linecap="round" stroke-linejoin="round"/>
</svg>
