<svg width="24" height="24" viewBox="0 0 24 24" fill="none" xmlns="http://www.w3.org/2000/svg">
<path d="M8.297 4.289C8.48398 4.10362 8.7367 3.99973 9 4H15C15.2652 4 15.5196 4.10536 15.7071 4.29289C15.8946 4.48043 16 4.73478 16 5C16 5.53043 16.2107 6.03914 16.5858 6.41421C16.9609 6.78929 17.4696 7 18 7H19C19.5304 7 20.0391 7.21071 20.4142 7.58579C20.7893 7.96086 21 8.46957 21 9V17M19.813 19.828C19.564 19.938 19.289 20 19 20H5C4.46957 20 3.96086 19.7893 3.58579 19.4142C3.21071 19.0391 3 18.5304 3 18V9C3 8.46957 3.21071 7.96086 3.58579 7.58579C3.96086 7.21071 4.46957 7 5 7H6C6.298 7 6.58 6.935 6.834 6.819M10.422 10.448C10.0362 10.6871 9.70969 11.0106 9.46701 11.3941C9.22434 11.7777 9.07186 12.2113 9.02105 12.6623C8.97025 13.1133 9.02244 13.57 9.1737 13.9979C9.32496 14.4258 9.57134 14.8139 9.89429 15.1328C10.2172 15.4517 10.6084 15.6931 11.0382 15.839C11.468 15.9848 11.9252 16.0313 12.3756 15.9748C12.8259 15.9183 13.2576 15.7604 13.638 15.5129C14.0185 15.2654 14.3378 14.9348 14.572 14.546M3 3L21 21" stroke="currentColor" stroke-width="1.5" stroke-linecap="round" stroke-linejoin="round"/>
</svg>
