<svg width="24" height="24" viewBox="0 0 24 24" fill="none" xmlns="http://www.w3.org/2000/svg">
<path d="M11 20H5C4.46957 20 3.96086 19.7893 3.58579 19.4142C3.21071 19.0391 3 18.5304 3 18V9C3 8.46957 3.21071 7.96086 3.58579 7.58579C3.96086 7.21071 4.46957 7 5 7H6C6.53043 7 7.03914 6.78929 7.41421 6.41421C7.78929 6.03914 8 5.53043 8 5C8 4.73478 8.10536 4.48043 8.29289 4.29289C8.48043 4.10536 8.73478 4 9 4H15C15.2652 4 15.5196 4.10536 15.7071 4.29289C15.8946 4.48043 16 4.73478 16 5C16 5.53043 16.2107 6.03914 16.5858 6.41421C16.9609 6.78929 17.4696 7 18 7H19C19.5304 7 20.0391 7.21071 20.4142 7.58579C20.7893 7.96086 21 8.46957 21 9V13M14.9479 13.559C15.0658 12.9371 14.9838 12.2938 14.7139 11.7212C14.4439 11.1487 13.9998 10.6762 13.445 10.3713C12.8902 10.0665 12.2532 9.945 11.6252 10.0242C10.9971 10.1033 10.4102 10.3791 9.94843 10.8121C9.48665 11.2451 9.17365 11.813 9.05424 12.4347C8.93482 13.0563 9.0151 13.6998 9.28359 14.2731C9.55208 14.8463 9.99501 15.3199 10.549 15.6262C11.103 15.9324 11.7397 16.0556 12.3679 15.978M20 21L22 19L20 17M17 17L15 19L17 21" stroke="currentColor" stroke-width="1.5" stroke-linecap="round" stroke-linejoin="round"/>
</svg>
