<svg width="24" height="24" viewBox="0 0 24 24" fill="none" xmlns="http://www.w3.org/2000/svg">
<path d="M10.5 20H5C4.46957 20 3.96086 19.7893 3.58579 19.4142C3.21071 19.0391 3 18.5304 3 18V9C3 8.46957 3.21071 7.96086 3.58579 7.58579C3.96086 7.21071 4.46957 7 5 7H6C6.53043 7 7.03914 6.78929 7.41421 6.41421C7.78929 6.03914 8 5.53043 8 5C8 4.73478 8.10536 4.48043 8.29289 4.29289C8.48043 4.10536 8.73478 4 9 4H15C15.2652 4 15.5196 4.10536 15.7071 4.29289C15.8946 4.48043 16 4.73478 16 5C16 5.53043 16.2107 6.03914 16.5858 6.41421C16.9609 6.78929 17.4696 7 18 7H19C19.5304 7 20.0391 7.21071 20.4142 7.58579C20.7893 7.96086 21 8.46957 21 9V11.5M14.569 11.45C14.3446 11.0779 14.0421 10.759 13.6823 10.5154C13.3225 10.2717 12.9141 10.1092 12.4853 10.0389C12.0565 9.96861 11.6176 9.99232 11.1989 10.1084C10.7802 10.2244 10.3916 10.43 10.0602 10.711C9.72877 10.992 9.46232 11.3416 9.27928 11.7357C9.09625 12.1297 9.001 12.5589 9.00013 12.9934C8.99926 13.4279 9.09278 13.8574 9.27423 14.2522C9.45568 14.647 9.72072 14.9977 10.051 15.28M17.8 20.817L15.628 21.955C15.5635 21.9885 15.491 22.0035 15.4186 21.9982C15.3461 21.9929 15.2765 21.9676 15.2176 21.9251C15.1587 21.8826 15.1127 21.8245 15.0849 21.7574C15.0571 21.6903 15.0485 21.6167 15.06 21.545L15.475 19.134L13.718 17.427C13.6656 17.3763 13.6284 17.3119 13.6108 17.2411C13.5933 17.1703 13.5959 17.096 13.6186 17.0266C13.6412 16.9573 13.6829 16.8957 13.7388 16.8489C13.7948 16.8021 13.8627 16.772 13.935 16.762L16.363 16.41L17.449 14.217C17.4815 14.1517 17.5315 14.0967 17.5935 14.0583C17.6556 14.0199 17.727 13.9995 17.8 13.9995C17.8729 13.9995 17.9444 14.0199 18.0064 14.0583C18.0685 14.0967 18.1185 14.1517 18.151 14.217L19.237 16.41L21.665 16.762C21.737 16.7723 21.8047 16.8027 21.8604 16.8495C21.9162 16.8963 21.9576 16.9578 21.9802 17.027C22.0028 17.0962 22.0056 17.1703 21.9882 17.241C21.9708 17.3117 21.9341 17.3761 21.882 17.427L20.125 19.134L20.539 21.544C20.5514 21.6158 20.5434 21.6898 20.516 21.7573C20.4885 21.8249 20.4426 21.8834 20.3836 21.9262C20.3245 21.969 20.2547 21.9944 20.1819 21.9995C20.1092 22.0046 20.0364 21.9891 19.972 21.955L17.8 20.817Z" stroke="currentColor" stroke-width="1.5" stroke-linecap="round" stroke-linejoin="round"/>
</svg>
