<svg width="24" height="24" viewBox="0 0 24 24" fill="none" xmlns="http://www.w3.org/2000/svg">
<path d="M12.5 20H5C4.46957 20 3.96086 19.7893 3.58579 19.4142C3.21071 19.0391 3 18.5304 3 18V9C3 8.46957 3.21071 7.96086 3.58579 7.58579C3.96086 7.21071 4.46957 7 5 7H6C6.53043 7 7.03914 6.78929 7.41421 6.41421C7.78929 6.03914 8 5.53043 8 5C8 4.73478 8.10536 4.48043 8.29289 4.29289C8.48043 4.10536 8.73478 4 9 4H15C15.2652 4 15.5196 4.10536 15.7071 4.29289C15.8946 4.48043 16 4.73478 16 5C16 5.53043 16.2107 6.03914 16.5858 6.41421C16.9609 6.78929 17.4696 7 18 7H19C19.5304 7 20.0391 7.21071 20.4142 7.58579C20.7893 7.96086 21 8.46957 21 9V13M14.9801 13.347C15.0532 12.7178 14.9253 12.0816 14.6147 11.5295C14.304 10.9774 13.8266 10.5378 13.2508 10.2737C12.675 10.0096 12.0304 9.93461 11.4093 10.0594C10.7882 10.1841 10.2226 10.5023 9.79343 10.9682C9.36428 11.4342 9.09365 12.0241 9.0203 12.6533C8.94696 13.2825 9.07467 13.9188 9.38514 14.4709C9.69562 15.0231 10.1729 15.4628 10.7486 15.7271C11.3244 15.9914 11.969 16.0666 12.5901 15.942M16 22L21 17M21 17V21.5M21 17H16.5" stroke="currentColor" stroke-width="1.5" stroke-linecap="round" stroke-linejoin="round"/>
</svg>
