<svg width="24" height="24" viewBox="0 0 24 24" fill="none" xmlns="http://www.w3.org/2000/svg">
<path fill-rule="evenodd" clip-rule="evenodd" d="M14.3942 2.36201C14.6153 2.49867 14.7499 2.74007 14.7499 3C14.7499 5.37043 15.2166 6.50631 15.6708 7.41459C15.7299 7.5329 15.7909 7.65062 15.8525 7.76931C16.2885 8.61017 16.7499 9.50021 16.7499 11C16.7499 12.2598 16.2495 13.468 15.3587 14.3588C14.4679 15.2496 13.2597 15.75 11.9999 15.75C10.7402 15.75 9.53197 15.2496 8.64118 14.3588C7.75038 13.468 7.24993 12.2598 7.24993 11C7.24993 7.63296 9.49426 4.41431 13.6645 2.32918C13.897 2.21293 14.1731 2.22536 14.3942 2.36201ZM13.2941 4.24256C10.1861 6.11585 8.74993 8.61862 8.74993 11C8.74993 11.862 9.09234 12.6886 9.70184 13.2981C10.3113 13.9076 11.138 14.25 11.9999 14.25C12.8619 14.25 13.6885 13.9076 14.298 13.2981C14.9075 12.6886 15.2499 11.862 15.2499 11C15.2499 9.87963 14.9482 9.293 14.5265 8.47296C14.4632 8.3499 14.3972 8.22158 14.3291 8.08541C13.8766 7.18032 13.4326 6.08799 13.2941 4.24256ZM3.27233 16.8181C3.37279 16.4163 3.77999 16.1719 4.18183 16.2724L11.9999 18.2269L19.818 16.2724C20.2199 16.1719 20.6271 16.4163 20.7275 16.8181C20.828 17.2199 20.5837 17.6271 20.1818 17.7276L15.0923 19L20.1818 20.2724C20.5837 20.3729 20.828 20.7801 20.7275 21.1819C20.6271 21.5837 20.2199 21.8281 19.818 21.7276L11.9999 19.7731L4.18183 21.7276C3.77999 21.8281 3.37279 21.5837 3.27233 21.1819C3.17186 20.7801 3.41619 20.3729 3.81803 20.2724L8.9076 19L3.81803 17.7276C3.41619 17.6271 3.17186 17.2199 3.27233 16.8181Z" fill="currentColor"/>
</svg>
