<svg width="24" height="24" viewBox="0 0 24 24" fill="none" xmlns="http://www.w3.org/2000/svg">
<path d="M19.7569 16.0299C20.0041 15.9686 20.2655 16.0039 20.4876 16.1287C20.7097 16.2535 20.8758 16.4583 20.952 16.7014C21.0282 16.9446 21.0087 17.2076 20.8976 17.4368C20.7864 17.6661 20.5919 17.8442 20.3539 17.9349L20.2429 17.9699L4.24287 21.9699C3.9956 22.0313 3.73423 21.996 3.51212 21.8712C3.29001 21.7464 3.1239 21.5416 3.04771 21.2984C2.97153 21.0553 2.991 20.7923 3.10217 20.5631C3.21333 20.3338 3.4078 20.1557 3.64587 20.0649L3.75687 20.0299L19.7569 16.0299Z" fill="currentColor"/>
<path d="M3.02997 16.757C3.08946 16.5193 3.23413 16.3117 3.43653 16.1737C3.63893 16.0356 3.88498 15.9766 4.12797 16.008L4.24297 16.03L20.243 20.03C20.4905 20.0918 20.705 20.2459 20.8426 20.4607C20.9802 20.6755 21.0305 20.9348 20.9832 21.1855C20.936 21.4361 20.7947 21.6593 20.5883 21.8092C20.3819 21.9591 20.126 22.0245 19.873 21.992L19.757 21.97L3.75697 17.97C3.49972 17.9055 3.2786 17.7415 3.14226 17.514C3.00592 17.2866 2.96553 17.0142 3.02997 16.757Z" fill="currentColor"/>
<path d="M13.553 2.10595C9.379 4.19195 7 7.46395 7 11C7 12.326 7.52678 13.5978 8.46447 14.5355C9.40215 15.4732 10.6739 16 12 16C13.3261 16 14.5979 15.4732 15.5355 14.5355C16.4732 13.5978 17 12.326 17 11C17 9.95295 16.812 9.19195 16.394 8.29495L16.225 7.94995L15.895 7.30295C15.274 6.06295 15 4.96495 15 2.99995C14.9999 2.82956 14.9563 2.66202 14.8733 2.51323C14.7902 2.36443 14.6706 2.23932 14.5256 2.14976C14.3806 2.0602 14.2152 2.00917 14.045 2.0015C13.8748 1.99383 13.7054 2.02979 13.553 2.10595Z" fill="currentColor"/>
</svg>
