<svg width="24" height="24" viewBox="0 0 24 24" fill="none" xmlns="http://www.w3.org/2000/svg">
<path d="M9 21H15V12C15 11.7348 14.8946 11.4804 14.7071 11.2929C14.5196 11.1054 14.2652 11 14 11H10C9.73478 11 9.48043 11.1054 9.29289 11.2929C9.10536 11.4804 9 11.7348 9 12V21Z" stroke="currentColor" stroke-width="1.5" stroke-linecap="round" stroke-linejoin="round"/>
<path d="M12 3L13.465 4.638C13.7264 4.91903 13.9015 5.26935 13.9692 5.64715C14.037 6.02495 13.9946 6.41426 13.8471 6.76862C13.6996 7.12298 13.4533 7.42742 13.1375 7.64561C12.8218 7.86379 12.4499 7.98651 12.0662 7.99911C11.6826 8.0117 11.3035 7.91365 10.9741 7.71665C10.6447 7.51964 10.3789 7.23202 10.2085 6.88809C10.0381 6.54417 9.97028 6.15848 10.0131 5.77705C10.0559 5.39563 10.2076 5.03458 10.45 4.737L12 3Z" stroke="currentColor" stroke-width="1.5" stroke-linecap="round" stroke-linejoin="round"/>
</svg>
