<svg width="24" height="24" viewBox="0 0 24 24" fill="none" xmlns="http://www.w3.org/2000/svg">
<path d="M11.174 7.16999L11.293 7.04999C11.6681 6.67505 12.1767 6.46442 12.707 6.46442C13.2374 6.46442 13.746 6.67505 14.121 7.04999M14.121 7.04999L16.95 9.87999C17.325 10.255 17.5356 10.7637 17.5356 11.294C17.5356 11.8243 17.325 12.3329 16.95 12.708L16.826 12.832M14.121 7.04999L15.37 4.13701C15.4665 3.91156 15.6168 3.71322 15.8078 3.55935C15.9987 3.40547 16.2245 3.30076 16.4653 3.25437C16.7061 3.20799 16.9546 3.22135 17.189 3.29329C17.4234 3.36522 17.6367 3.49354 17.81 3.66701L20.026 5.884C20.2137 6.07171 20.3483 6.30587 20.4159 6.56258C20.4836 6.8193 20.4819 7.08936 20.411 7.3452C20.3401 7.60103 20.2026 7.83348 20.0125 8.01879C19.8224 8.20411 19.5866 8.33566 19.329 8.4L16.243 9.172M14.826 14.832L12.703 16.955C12.328 17.3299 11.8193 17.5406 11.289 17.5406C10.7587 17.5406 10.2501 17.3299 9.87502 16.955L7.04602 14.124C6.67108 13.7489 6.46045 13.2403 6.46045 12.71C6.46045 12.1797 6.67108 11.671 7.04602 11.296L9.15902 9.18399M9.172 16.243L8.4 19.329C8.33566 19.5866 8.20411 19.8224 8.01879 20.0125C7.83348 20.2026 7.60103 20.3401 7.3452 20.411C7.08936 20.4819 6.8193 20.4836 6.56258 20.4159C6.30587 20.3483 6.07171 20.2137 5.884 20.026L3.66701 17.81C3.49354 17.6367 3.36522 17.4234 3.29329 17.189C3.22135 16.9546 3.20799 16.7061 3.25437 16.4653C3.30076 16.2245 3.40547 15.9987 3.55935 15.8078C3.71322 15.6168 3.91156 15.4665 4.13701 15.37L7.05 14.122M3 3L21 21" stroke="currentColor" stroke-width="1.5" stroke-linecap="round" stroke-linejoin="round"/>
</svg>
