<svg width="24" height="24" viewBox="0 0 24 24" fill="none" xmlns="http://www.w3.org/2000/svg">
<path d="M16.2433 9.172L19.3293 8.4C19.5868 8.33566 19.8227 8.20411 20.0128 8.01879C20.2028 7.83348 20.3403 7.60103 20.4112 7.3452C20.4821 7.08936 20.4838 6.8193 20.4162 6.56258C20.3485 6.30587 20.214 6.07171 20.0263 5.884L17.8103 3.66701C17.6369 3.49354 17.4237 3.36522 17.1892 3.29329C16.9548 3.22135 16.7063 3.20799 16.4655 3.25437C16.2247 3.30076 15.9989 3.40547 15.808 3.55935C15.6171 3.71322 15.4668 3.91156 15.3703 4.13701L14.1223 7.05001M9.17225 16.243L8.40025 19.329C8.3359 19.5866 8.20435 19.8224 8.01904 20.0125C7.83372 20.2026 7.60128 20.3401 7.34544 20.411C7.0896 20.4819 6.81954 20.4836 6.56283 20.4159C6.30612 20.3483 6.07195 20.2137 5.88425 20.026L3.66725 17.81C3.49379 17.6367 3.36547 17.4234 3.29353 17.189C3.22159 16.9546 3.20823 16.7061 3.25462 16.4653C3.301 16.2245 3.40571 15.9987 3.55959 15.8078C3.71347 15.6168 3.91181 15.4665 4.13725 15.37L7.05025 14.122M7.05023 11.293L11.2932 7.04999C11.6683 6.67505 12.1769 6.46442 12.7072 6.46442C13.2376 6.46442 13.7462 6.67505 14.1212 7.04999L16.9502 9.87999C17.3252 10.255 17.5358 10.7637 17.5358 11.294C17.5358 11.8243 17.3252 12.3329 16.9502 12.708L12.7072 16.951C12.3322 17.3259 11.8236 17.5366 11.2932 17.5366C10.7629 17.5366 10.2543 17.3259 9.87923 16.951L7.05023 14.12C6.67529 13.7449 6.46466 13.2363 6.46466 12.706C6.46466 12.1757 6.67529 11.667 7.05023 11.292V11.293Z" stroke="currentColor" stroke-width="1.5" stroke-linecap="round" stroke-linejoin="round"/>
</svg>
