<svg width="24" height="24" viewBox="0 0 24 24" fill="none" xmlns="http://www.w3.org/2000/svg">
<path d="M14 10H10C9.46957 10 8.96086 10.2107 8.58579 10.5858C8.21071 10.9609 8 11.4696 8 12V21C8 21.2652 8.10536 21.5196 8.29289 21.7071C8.48043 21.8946 8.73478 22 9 22H15C15.2652 22 15.5196 21.8946 15.7071 21.7071C15.8946 21.5196 16 21.2652 16 21V12C16 11.4696 15.7893 10.9609 15.4142 10.5858C15.0391 10.2107 14.5304 10 14 10Z" fill="currentColor"/>
<path d="M11.254 2.33399L9.70397 4.07099C8.66197 5.34799 8.80597 7.168 9.99997 8.237C10.5753 8.75163 11.3269 9.0247 12.0984 8.99941C12.8699 8.97412 13.6019 8.65242 14.1423 8.10121C14.6827 7.55 14.9898 6.81171 14.9998 6.03986C15.0098 5.26801 14.7219 4.52201 14.196 3.95699L12.744 2.33299C12.6501 2.22814 12.5352 2.14428 12.4067 2.0869C12.2782 2.02952 12.139 1.99991 11.9982 2C11.8575 2.00009 11.7184 2.02989 11.59 2.08745C11.4615 2.145 11.3477 2.22902 11.254 2.33399Z" fill="currentColor"/>
</svg>
