<svg width="24" height="24" viewBox="0 0 24 24" fill="none" xmlns="http://www.w3.org/2000/svg">
<path d="M12 17C12.562 17.78 15 20 17 20C17 20 17 18 16 16.5C17.5 16.5 18 16 20 15C20 15 18.161 13.62 15 14C16.789 13.03 18.279 11.97 20 8C20 8 16.031 7.73 13.5 11.5C14.389 9.5 14.734 7.47 12 2C12 2 8.216 6.6 10.5 11.5C7.98 7.7 4 8 4 8C5.721 11.97 7.211 13.03 9 14C5.839 13.62 4 15 4 15C6 16 6.5 16.5 8 16.5C7 18 7 20 7 20C9 20 11.437 17.78 12 17ZM12 17V22" stroke="currentColor" stroke-width="1.5" stroke-linecap="round" stroke-linejoin="round"/>
</svg>
