<svg width="24" height="24" viewBox="0 0 24 24" fill="none" xmlns="http://www.w3.org/2000/svg">
<path d="M4 16V18C4 18.5304 4.21071 19.0391 4.58579 19.4142C4.96086 19.7893 5.46957 20 6 20H8M16 4H18C18.5304 4 19.0391 4.21071 19.4142 4.58579C19.7893 4.96086 20 5.46957 20 6V8M16 20H18C18.554 20 19.055 19.775 19.417 19.411M9.86999 9.88697C9.3161 10.4527 9.00828 11.2144 9.01362 12.006C9.01896 12.7977 9.33702 13.5552 9.89849 14.1134C10.46 14.6715 11.2193 14.9851 12.011 14.9858C12.8027 14.9865 13.5626 14.6742 14.125 14.117M14.705 10.701C14.41 10.0888 13.9166 9.59431 13.305 9.29797M4 7.99997V5.99997C4 5.45197 4.22 4.95597 4.577 4.59497M3 3L21 21" stroke="currentColor" stroke-width="1.5" stroke-linecap="round" stroke-linejoin="round"/>
</svg>
