<svg width="24" height="24" viewBox="0 0 24 24" fill="none" xmlns="http://www.w3.org/2000/svg">
<path d="M11 9C12.0609 9 13.0783 9.42143 13.8284 10.1716C14.5786 10.9217 15 11.9391 15 13C15 14.0609 14.5786 15.0783 13.8284 15.8284C13.0783 16.5786 12.0609 17 11 17C9.93913 17 8.92172 16.5786 8.17157 15.8284C7.42143 15.0783 7 14.0609 7 13C7 11.9391 7.42143 10.9217 8.17157 10.1716C8.92172 9.42143 9.93913 9 11 9ZM11 9C13.489 9.108 15.489 9.108 17 9M11 9V13M18.86 11C18.948 11.66 19 12.512 19 13C19 14.5823 18.5308 16.129 17.6518 17.4446C16.7727 18.7602 15.5233 19.7855 14.0615 20.391C12.5997 20.9965 10.9911 21.155 9.43928 20.8463C7.88743 20.5376 6.46197 19.7757 5.34315 18.6569C4.22433 17.538 3.4624 16.1126 3.15372 14.5607C2.84504 13.0089 3.00347 11.4003 3.60897 9.93853C4.21447 8.47672 5.23985 7.22729 6.55544 6.34824C7.87103 5.46919 9.41775 5 11 5H17M11 13L7.5 11.5M11 13L13.5 16M11 13L8.5 16M11 13L14.5 11.5M17 4C17 3.73478 17.1054 3.48043 17.2929 3.29289C17.4804 3.10536 17.7348 3 18 3H20C20.2652 3 20.5196 3.10536 20.7071 3.29289C20.8946 3.48043 21 3.73478 21 4V10C21 10.2652 20.8946 10.5196 20.7071 10.7071C20.5196 10.8946 20.2652 11 20 11H18C17.7348 11 17.4804 10.8946 17.2929 10.7071C17.1054 10.5196 17 10.2652 17 10V4Z" stroke="currentColor" stroke-width="1.5" stroke-linecap="round" stroke-linejoin="round"/>
</svg>
