<svg width="24" height="24" viewBox="0 0 24 24" fill="none" xmlns="http://www.w3.org/2000/svg">
<path d="M8 17C8 17.5304 8.21071 18.0391 8.58579 18.4142C8.96086 18.7893 9.46957 19 10 19C10.5304 19 11.0391 18.7893 11.4142 18.4142C11.7893 18.0391 12 17.5304 12 17M8 17C8 16.4696 8.21071 15.9609 8.58579 15.5858C8.96086 15.2107 9.46957 15 10 15C10.5304 15 11.0391 15.2107 11.4142 15.5858C11.7893 15.9609 12 16.4696 12 17M8 17H3M12 17H14V13C14 12.4696 13.7893 11.9609 13.4142 11.5858C13.0391 11.2107 12.5304 11 12 11H11M11 11L7 6H3M11 11H3M5 11V6M14 8V6M19 12H21M17.5 15.5L19 17M17.5 8.5L19 7" stroke="currentColor" stroke-width="1.5" stroke-linecap="round" stroke-linejoin="round"/>
</svg>
