<svg width="24" height="24" viewBox="0 0 24 24" fill="none" xmlns="http://www.w3.org/2000/svg">
<path d="M5 17C5 17.5304 5.21071 18.0391 5.58579 18.4142C5.96086 18.7893 6.46957 19 7 19C7.53043 19 8.03914 18.7893 8.41421 18.4142C8.78929 18.0391 9 17.5304 9 17M5 17C5 16.4696 5.21071 15.9609 5.58579 15.5858C5.96086 15.2107 6.46957 15 7 15C7.53043 15 8.03914 15.2107 8.41421 15.5858C8.78929 15.9609 9 16.4696 9 17M5 17H3V11M9 17H15M15.584 15.5879C15.2087 15.9629 14.9978 16.4716 14.9976 17.0022C14.9974 17.5327 15.208 18.0416 15.583 18.4169C15.958 18.7922 16.4668 19.0031 16.9973 19.0033C17.5278 19.0035 18.0367 18.7929 18.412 18.4179M3 11L5 6H6M3 11H11M10 6H14L18 11M18 11H19C19.5304 11 20.0391 11.2107 20.4142 11.5858C20.7893 11.9609 21 12.4696 21 13V17M18 11H15M12 8V6M3 3L21 21" stroke="currentColor" stroke-width="1.5" stroke-linecap="round" stroke-linejoin="round"/>
</svg>
