<svg width="24" height="24" viewBox="0 0 24 24" fill="none" xmlns="http://www.w3.org/2000/svg">
<path d="M5 20C5 20.5304 5.21071 21.0391 5.58579 21.4142C5.96086 21.7893 6.46957 22 7 22C7.53043 22 8.03914 21.7893 8.41421 21.4142C8.78929 21.0391 9 20.5304 9 20M5 20C5 19.4696 5.21071 18.9609 5.58579 18.5858C5.96086 18.2107 6.46957 18 7 18C7.53043 18 8.03914 18.2107 8.41421 18.5858C8.78929 18.9609 9 19.4696 9 20M5 20H3V14M9 20H15M15 20C15 20.5304 15.2107 21.0391 15.5858 21.4142C15.9609 21.7893 16.4696 22 17 22C17.5304 22 18.0391 21.7893 18.4142 21.4142C18.7893 21.0391 19 20.5304 19 20M15 20C15 19.4696 15.2107 18.9609 15.5858 18.5858C15.9609 18.2107 16.4696 18 17 18C17.5304 18 18.0391 18.2107 18.4142 18.5858C18.7893 18.9609 19 19.4696 19 20M19 20H21V16C21 15.4696 20.7893 14.9609 20.4142 14.5858C20.0391 14.2107 19.5304 14 19 14H18M3 14L5 9H14L18 14M3 14H18M12 14V9M3 6L12 2L21 6" stroke="currentColor" stroke-width="1.5" stroke-linecap="round" stroke-linejoin="round"/>
</svg>
