<svg width="24" height="24" viewBox="0 0 24 24" fill="none" xmlns="http://www.w3.org/2000/svg">
<path d="M5 9L7 5H14.438C14.884 5.00007 15.3172 5.1492 15.6687 5.42371C16.0202 5.69821 16.2698 6.08232 16.378 6.515L17 9H20C20.5304 9 21.0391 9.21071 21.4142 9.58579C21.7893 9.96086 22 10.4696 22 11V14M5 9V12M5 9H18M10 9V5M2 7V11M22.001 14.0009C21.5357 13.3791 20.9318 12.8745 20.2372 12.5271C19.5426 12.1798 18.7766 11.9992 18 11.9999C17.2237 11.9993 16.4579 12.1797 15.7635 12.5269C15.0691 12.8741 14.4653 13.3784 14 13.9999H11C10.5343 13.3781 9.93017 12.8735 9.23544 12.526C8.54071 12.1785 7.77455 11.9978 6.99776 11.998C6.22097 11.9983 5.45494 12.1797 4.76047 12.5277C4.066 12.8757 3.46221 13.3808 2.99701 14.0029M5 17C5 17.5304 5.21071 18.0391 5.58579 18.4142C5.96086 18.7893 6.46957 19 7 19C7.53043 19 8.03914 18.7893 8.41421 18.4142C8.78929 18.0391 9 17.5304 9 17C9 16.4696 8.78929 15.9609 8.41421 15.5858C8.03914 15.2107 7.53043 15 7 15C6.46957 15 5.96086 15.2107 5.58579 15.5858C5.21071 15.9609 5 16.4696 5 17ZM16 17C16 17.5304 16.2107 18.0391 16.5858 18.4142C16.9609 18.7893 17.4696 19 18 19C18.5304 19 19.0391 18.7893 19.4142 18.4142C19.7893 18.0391 20 17.5304 20 17C20 16.4696 19.7893 15.9609 19.4142 15.5858C19.0391 15.2107 18.5304 15 18 15C17.4696 15 16.9609 15.2107 16.5858 15.5858C16.2107 15.9609 16 16.4696 16 17Z" stroke="currentColor" stroke-width="1.5" stroke-linecap="round" stroke-linejoin="round"/>
</svg>
