<svg width="24" height="24" viewBox="0 0 24 24" fill="none" xmlns="http://www.w3.org/2000/svg">
<path d="M5 17C5 17.5304 5.21071 18.0391 5.58579 18.4142C5.96086 18.7893 6.46957 19 7 19C7.53043 19 8.03914 18.7893 8.41421 18.4142C8.78929 18.0391 9 17.5304 9 17M5 17C5 16.4696 5.21071 15.9609 5.58579 15.5858C5.96086 15.2107 6.46957 15 7 15C7.53043 15 8.03914 15.2107 8.41421 15.5858C8.78929 15.9609 9 16.4696 9 17M5 17H3V11M9 17H15M15 17C15 17.5304 15.2107 18.0391 15.5858 18.4142C15.9609 18.7893 16.4696 19 17 19C17.5304 19 18.0391 18.7893 18.4142 18.4142C18.7893 18.0391 19 17.5304 19 17M15 17C15 16.4696 15.2107 15.9609 15.5858 15.5858C15.9609 15.2107 16.4696 15 17 15C17.5304 15 18.0391 15.2107 18.4142 15.5858C18.7893 15.9609 19 16.4696 19 17M19 17H21V13C21 12.4696 20.7893 11.9609 20.4142 11.5858C20.0391 11.2107 19.5304 11 19 11H18M3 11L5 6H14L18 11M3 11H18M12 11V6" stroke="currentColor" stroke-width="1.5" stroke-linecap="round" stroke-linejoin="round"/>
</svg>
