<svg width="24" height="24" viewBox="0 0 24 24" fill="none" xmlns="http://www.w3.org/2000/svg">
<path d="M10.3482 3.16896L3.19817 6.28196C2.71881 6.4948 2.34224 6.88741 2.14958 7.37523C1.95693 7.86305 1.9636 8.40702 2.16817 8.88996L7.08817 20.785C7.18629 21.0265 7.33162 21.2461 7.51564 21.4307C7.69966 21.6154 7.91868 21.7615 8.15987 21.8605C8.40106 21.9595 8.65958 22.0094 8.92028 22.0072C9.18099 22.0051 9.43865 21.9509 9.67817 21.848L16.8202 18.738C17.301 18.5258 17.6791 18.1331 17.873 17.6447C18.0668 17.1562 18.0607 16.611 17.8562 16.127L12.9362 4.23296C12.8381 3.99157 12.6929 3.77215 12.5091 3.58753C12.3253 3.40291 12.1065 3.25679 11.8655 3.15772C11.6245 3.05865 11.3662 3.00862 11.1057 3.01055C10.8452 3.01248 10.5876 3.06634 10.3482 3.16896Z" fill="currentColor"/>
<path d="M15.9999 3C16.5044 2.99984 16.9904 3.19041 17.3604 3.5335C17.7304 3.87659 17.957 4.34684 17.9949 4.85L17.9999 5V8.5C17.9996 8.75488 17.902 9.00003 17.727 9.18537C17.5521 9.3707 17.3129 9.48224 17.0585 9.49717C16.804 9.51211 16.5535 9.42933 16.358 9.26574C16.1626 9.10215 16.037 8.8701 16.0069 8.617L15.9999 8.5V5H14.9999C14.745 4.99972 14.4998 4.90212 14.3145 4.72715C14.1292 4.55218 14.0176 4.31305 14.0027 4.05861C13.9878 3.80416 14.0705 3.55362 14.2341 3.35817C14.3977 3.16271 14.6298 3.0371 14.8829 3.007L14.9999 3H15.9999Z" fill="currentColor"/>
<path d="M19.08 5.60999C19.1835 5.36613 19.3797 5.17334 19.6253 5.07397C19.8709 4.9746 20.1459 4.97677 20.39 5.07999C20.647 5.18799 20.895 5.28999 21.159 5.39399C21.6228 5.59089 21.9952 5.9556 22.2017 6.4152C22.4083 6.87481 22.4337 7.39544 22.273 7.87299L22.217 8.01899L19.919 13.393C19.8178 13.6262 19.6317 13.8122 19.3983 13.9131C19.165 14.014 18.902 14.0222 18.6628 13.9361C18.4236 13.85 18.2262 13.6761 18.1107 13.4496C17.9951 13.2231 17.9702 12.9612 18.041 12.717L18.081 12.607L20.377 7.23599L20.011 7.08799L19.609 6.92099C19.488 6.86971 19.3783 6.79507 19.2861 6.70136C19.194 6.60765 19.1212 6.4967 19.072 6.37485C19.0228 6.253 18.9981 6.12264 18.9993 5.99123C19.0004 5.85982 19.0275 5.72993 19.079 5.60899L19.08 5.60999Z" fill="currentColor"/>
</svg>
