<svg width="24" height="24" viewBox="0 0 24 24" fill="none" xmlns="http://www.w3.org/2000/svg">
<path d="M15 4H16C16.2652 4 16.5196 4.10536 16.7071 4.29289C16.8946 4.48043 17 4.73478 17 5V8.5M20 6C20.264 6.112 20.52 6.217 20.768 6.315C21.0121 6.41859 21.2051 6.6149 21.3045 6.86075C21.4039 7.1066 21.4015 7.38187 21.298 7.626L19 13M3.6041 7.19701L10.7421 4.08801C10.8599 4.03753 10.9866 4.01113 11.1147 4.01039C11.2429 4.00965 11.3699 4.03457 11.4882 4.08369C11.6066 4.1328 11.7139 4.20512 11.8039 4.29637C11.8939 4.38762 11.9647 4.49597 12.0121 4.61501L16.9361 16.517C17.0385 16.7584 17.0419 17.0302 16.9458 17.2741C16.8497 17.518 16.6616 17.7144 16.4221 17.821L9.2851 20.93C9.16726 20.9807 9.04047 21.0072 8.91222 21.008C8.78396 21.0088 8.65684 20.9839 8.53836 20.9348C8.41988 20.8857 8.31245 20.8133 8.2224 20.722C8.13236 20.6306 8.06153 20.5222 8.0141 20.403L3.0901 8.50001C2.98775 8.25866 2.98427 7.98678 3.08041 7.74289C3.17654 7.499 3.3646 7.30361 3.6041 7.19701Z" stroke="currentColor" stroke-width="1.5" stroke-linecap="round" stroke-linejoin="round"/>
</svg>
