<svg width="24" height="24" viewBox="0 0 24 24" fill="none" xmlns="http://www.w3.org/2000/svg">
<path d="M13 6.00004C13 5.11004 14.077 4.66304 14.707 5.29304L20.707 11.293C20.8945 11.4806 20.9998 11.7349 20.9998 12C20.9998 12.2652 20.8945 12.5195 20.707 12.707L14.707 18.707C14.6811 18.7329 14.6537 18.7573 14.625 18.78L14.616 18.786L14.594 18.802L14.536 18.844L14.52 18.853L14.511 18.86L14.483 18.874L14.44 18.898L14.422 18.905L14.404 18.915L14.37 18.927L14.337 18.942L14.311 18.949L14.291 18.957L14.265 18.962L14.229 18.974L14.2 18.978L14.176 18.984L14.148 18.987L14.117 18.993L14.085 18.995L14.059 18.998H14.033L14 19L13.967 18.998H13.941L13.915 18.995L13.883 18.993L13.852 18.987L13.824 18.984L13.8 18.978L13.77 18.974L13.735 18.962L13.708 18.957L13.689 18.949L13.663 18.942L13.63 18.927L13.596 18.915L13.578 18.905L13.56 18.898L13.517 18.874L13.489 18.86L13.48 18.853L13.464 18.844L13.406 18.802L13.387 18.79L13.384 18.786L13.374 18.78C13.3172 18.7341 13.2656 18.6821 13.22 18.625L13.214 18.616L13.198 18.594L13.156 18.536L13.147 18.52L13.14 18.511L13.126 18.483L13.102 18.44L13.095 18.422L13.085 18.404L13.073 18.37L13.058 18.337L13.051 18.311L13.043 18.291L13.038 18.265L13.026 18.229L13.022 18.2L13.016 18.176L13.013 18.148L13.007 18.117L13.005 18.085L13.002 18.059V18.033L13 18V6.00004Z" fill="currentColor"/>
<path d="M9.29279 5.29301C9.92279 4.66301 10.9998 5.10901 10.9998 6.00001V18L10.9978 18.033V18.059L10.9948 18.085L10.9928 18.117L10.9868 18.148L10.9838 18.176L10.9778 18.2L10.9738 18.23L10.9618 18.265L10.9568 18.292L10.9488 18.311L10.9418 18.337L10.9268 18.37L10.9148 18.404L10.9048 18.422L10.8978 18.44L10.8738 18.483L10.8598 18.511L10.8528 18.52L10.8438 18.536L10.8018 18.594L10.7898 18.613L10.7858 18.616L10.7798 18.626C10.7339 18.6828 10.6819 18.7345 10.6248 18.78L10.6158 18.786L10.5938 18.802L10.5358 18.844L10.5198 18.853L10.5108 18.86L10.4828 18.874L10.4398 18.898L10.4218 18.905L10.4038 18.915L10.3698 18.927L10.3368 18.942L10.3108 18.949L10.2908 18.957L10.2648 18.962L10.2288 18.974L10.1998 18.978L10.1758 18.984L10.1478 18.987L10.1168 18.993L10.0848 18.995L10.0588 18.998H10.0328L9.99979 19L9.96679 18.998H9.94079L9.91279 18.995L9.88279 18.993L9.85079 18.987L9.82379 18.984L9.79879 18.978L9.77079 18.974L9.73379 18.962L9.70779 18.957L9.68779 18.949L9.66279 18.942L9.62879 18.927L9.59579 18.915L9.57679 18.905L9.55979 18.898L9.51579 18.874L9.48879 18.86L9.47879 18.853L9.46379 18.844L9.40479 18.802L9.38679 18.79L9.38279 18.786L9.37479 18.78C9.34614 18.7572 9.31877 18.7328 9.29279 18.707L3.29279 12.707C3.10532 12.5195 3 12.2652 3 12C3 11.7348 3.10532 11.4805 3.29279 11.293L9.29279 5.29301Z" fill="currentColor"/>
</svg>
