<svg width="24" height="24" viewBox="0 0 24 24" fill="none" xmlns="http://www.w3.org/2000/svg">
<path d="M13.8829 5.00695L13.9409 5.00195H14.0589L14.1169 5.00695L14.1769 5.01595L14.2289 5.02595L14.3369 5.05795L14.4039 5.08495L14.5359 5.15495L14.6259 5.21995L14.7069 5.29295L14.7899 5.38695L14.8439 5.46395L14.8979 5.55995L14.9149 5.59595L14.9419 5.66295L14.9739 5.77095L14.9839 5.82395L14.9939 5.88395L14.9979 5.94095L14.9999 5.99995V18C14.9999 18.852 14.0139 19.297 13.3769 18.783L13.2929 18.707L7.29286 12.707C7.12068 12.5348 7.01725 12.3057 7.00197 12.0626C6.98669 11.8196 7.06061 11.5794 7.20986 11.387L7.29286 11.293L13.2929 5.29295L13.3869 5.20995L13.4639 5.15595L13.5599 5.10195L13.5959 5.08495L13.6629 5.05795L13.7709 5.02595L13.8239 5.01595L13.8839 5.00595L13.8829 5.00695Z" fill="currentColor"/>
</svg>
