<svg width="24" height="24" viewBox="0 0 24 24" fill="none" xmlns="http://www.w3.org/2000/svg">
<path d="M9 5.99999C9 5.14799 9.986 4.70299 10.623 5.21699L10.707 5.29299L16.707 11.293C16.8792 11.4652 16.9826 11.6943 16.9979 11.9373C17.0132 12.1803 16.9393 12.4206 16.79 12.613L16.707 12.707L10.707 18.707L10.613 18.79L10.536 18.844L10.44 18.898L10.404 18.915L10.337 18.942L10.229 18.974L10.176 18.984L10.116 18.994L10.059 18.998L10 19L9.941 18.998L9.883 18.993L9.823 18.984L9.771 18.974L9.663 18.942L9.596 18.915L9.464 18.845L9.374 18.78L9.293 18.707L9.21 18.613L9.156 18.536L9.102 18.44L9.085 18.404L9.058 18.337L9.026 18.229L9.016 18.176L9.006 18.116L9.002 18.059L9 5.99999Z" fill="currentColor"/>
</svg>
