<svg width="24" height="24" viewBox="0 0 24 24" fill="none" xmlns="http://www.w3.org/2000/svg">
<path d="M11.2932 7.29298C11.4654 7.12081 11.6945 7.01738 11.9376 7.00209C12.1806 6.98681 12.4208 7.06073 12.6132 7.20998L12.7072 7.29298L18.7072 13.293L18.7902 13.387L18.8442 13.464L18.8982 13.56L18.9152 13.596L18.9422 13.663L18.9742 13.771L18.9842 13.824L18.9942 13.884L18.9982 13.941L19.0002 14L18.9982 14.059L18.9932 14.117L18.9842 14.177L18.9742 14.229L18.9422 14.337L18.9152 14.404L18.8452 14.536L18.7802 14.626L18.7072 14.707L18.6132 14.79L18.5362 14.844L18.4402 14.898L18.4042 14.915L18.3372 14.942L18.2292 14.974L18.1762 14.984L18.1162 14.994L18.0592 14.998L18.0002 15H6.00024C5.14824 15 4.70324 14.014 5.21724 13.377L5.29324 13.293L11.2932 7.29298Z" fill="currentColor"/>
</svg>
