<svg width="24" height="24" viewBox="0 0 24 24" fill="none" xmlns="http://www.w3.org/2000/svg">
<path d="M11.2928 3.29303C11.4803 3.10556 11.7346 3.00024 11.9998 3.00024C12.265 3.00024 12.5193 3.10556 12.7068 3.29303L18.7068 9.29303C18.7327 9.31893 18.7571 9.34631 18.7798 9.37503L18.7858 9.38303L18.8018 9.40503L18.8438 9.46403L18.8528 9.47903L18.8598 9.48903L18.8738 9.51603L18.8978 9.56003L18.9048 9.57703L18.9148 9.59703L18.9268 9.62903L18.9418 9.66303L18.9488 9.68803L18.9568 9.70803L18.9618 9.73403L18.9738 9.77103L18.9778 9.79903L18.9838 9.82403L18.9868 9.85003L18.9928 9.88303L18.9948 9.91303L18.9978 9.94103V9.96703L18.9998 10L18.9978 10.033V10.059L18.9948 10.085L18.9928 10.117L18.9878 10.146L18.9838 10.176L18.9778 10.2L18.9738 10.23L18.9618 10.265L18.9568 10.292L18.9488 10.311L18.9418 10.337L18.9268 10.37L18.9148 10.404L18.9048 10.422L18.8978 10.44L18.8738 10.483L18.8598 10.511L18.8528 10.52L18.8438 10.536L18.8018 10.594L18.7898 10.613L18.7858 10.616L18.7798 10.626C18.7339 10.6828 18.6819 10.7345 18.6248 10.78L18.6158 10.786L18.5938 10.802L18.5358 10.844L18.5198 10.853L18.5108 10.86L18.4828 10.874L18.4398 10.898L18.4218 10.905L18.4038 10.915L18.3698 10.927L18.3368 10.942L18.3128 10.948L18.2918 10.957L18.2648 10.962L18.2288 10.974L18.1998 10.978L18.1758 10.984L18.1478 10.987L18.1168 10.993L18.0848 10.995L18.0588 10.998H18.0328L17.9998 11H5.99979C5.10979 11 4.66279 9.92303 5.29279 9.29303L11.2928 3.29303Z" fill="currentColor"/>
<path d="M18 13L18.033 13.002H18.059L18.085 13.005L18.117 13.007L18.148 13.013L18.176 13.016L18.2 13.022L18.23 13.026L18.265 13.038L18.292 13.043L18.311 13.051L18.337 13.058L18.37 13.073L18.404 13.085L18.422 13.095L18.44 13.102L18.483 13.126L18.511 13.14L18.52 13.147L18.536 13.156L18.587 13.193L18.613 13.21L18.616 13.214L18.626 13.22C18.6829 13.2658 18.7346 13.3178 18.78 13.375L18.786 13.384L18.801 13.404L18.844 13.464L18.853 13.48L18.86 13.489L18.874 13.517L18.898 13.56L18.903 13.573L18.915 13.596L18.927 13.63L18.942 13.663L18.949 13.689L18.957 13.709L18.962 13.735L18.974 13.771L18.978 13.8L18.984 13.824L18.987 13.852L18.993 13.883L18.995 13.915L18.998 13.941V13.967L19 14L18.998 14.033V14.059L18.995 14.085L18.993 14.117L18.987 14.148L18.984 14.176L18.978 14.2L18.974 14.23L18.962 14.265L18.957 14.292L18.949 14.311L18.942 14.337L18.927 14.37L18.915 14.404L18.905 14.422L18.898 14.44L18.874 14.483L18.86 14.511L18.853 14.52L18.844 14.536L18.802 14.594L18.79 14.613L18.786 14.616L18.78 14.626L18.707 14.707L12.707 20.707C12.5195 20.8945 12.2652 20.9998 12 20.9998C11.7348 20.9998 11.4805 20.8945 11.293 20.707L5.29301 14.707C4.66301 14.077 5.10901 13 6.00001 13H18Z" fill="currentColor"/>
</svg>
