<svg width="24" height="24" viewBox="0 0 24 24" fill="none" xmlns="http://www.w3.org/2000/svg">
<path d="M16 4H8C7.46957 4 6.96086 4.21071 6.58579 4.58579C6.21071 4.96086 6 5.46957 6 6V18C6 18.5304 6.21071 19.0391 6.58579 19.4142C6.96086 19.7893 7.46957 20 8 20H16C16.5304 20 17.0391 19.7893 17.4142 19.4142C17.7893 19.0391 18 18.5304 18 18V6C18 5.46957 17.7893 4.96086 17.4142 4.58579C17.0391 4.21071 16.5304 4 16 4Z" fill="currentColor"/>
<path d="M22 6C22.2549 6.00028 22.5 6.09788 22.6854 6.27285C22.8707 6.44782 22.9822 6.68695 22.9972 6.94139C23.0121 7.19584 22.9293 7.44638 22.7657 7.64183C22.6021 7.83729 22.3701 7.9629 22.117 7.993L22 8H21V16H22C22.2549 16.0003 22.5 16.0979 22.6854 16.2728C22.8707 16.4478 22.9822 16.687 22.9972 16.9414C23.0121 17.1958 22.9293 17.4464 22.7657 17.6418C22.6021 17.8373 22.3701 17.9629 22.117 17.993L22 18H21C20.4954 18.0002 20.0094 17.8096 19.6395 17.4665C19.2695 17.1234 19.0428 16.6532 19.005 16.15L19 16V8C18.9998 7.49542 19.1904 7.00943 19.5335 6.63945C19.8766 6.26947 20.3468 6.04284 20.85 6.005L21 6H22Z" fill="currentColor"/>
<path d="M2.99987 6C3.50445 5.99984 3.99044 6.19041 4.36042 6.5335C4.7304 6.87659 4.95703 7.34684 4.99487 7.85L4.99987 8V16C5.00003 16.5046 4.80946 16.9906 4.46637 17.3605C4.12328 17.7305 3.65302 17.9572 3.14987 17.995L2.99987 18H1.99987C1.74499 17.9997 1.49984 17.9021 1.3145 17.7272C1.12916 17.5522 1.01763 17.313 1.0027 17.0586C0.987759 16.8042 1.07054 16.5536 1.23413 16.3582C1.39772 16.1627 1.62977 16.0371 1.88287 16.007L1.99987 16H2.99987V8H1.99987C1.74499 7.99972 1.49984 7.90212 1.3145 7.72715C1.12916 7.55218 1.01763 7.31305 1.0027 7.05861C0.987759 6.80416 1.07054 6.55362 1.23413 6.35817C1.39772 6.16271 1.62977 6.0371 1.88287 6.007L1.99987 6H2.99987Z" fill="currentColor"/>
</svg>
