<svg width="24" height="24" viewBox="0 0 24 24" fill="none" xmlns="http://www.w3.org/2000/svg">
<path fill-rule="evenodd" clip-rule="evenodd" d="M6.75 1C7.16421 1 7.5 1.33579 7.5 1.75V2.75C7.5 2.8163 7.52634 2.87989 7.57322 2.92678C7.62011 2.97366 7.6837 3 7.75 3H15.75C15.8163 3 15.8799 2.97366 15.9268 2.92678C15.9737 2.87989 16 2.81631 16 2.75V1.75C16 1.33579 16.3358 1 16.75 1C17.1642 1 17.5 1.33579 17.5 1.75V2.75C17.5 3.21413 17.3156 3.65925 16.9874 3.98744C16.6592 4.31563 16.2141 4.5 15.75 4.5H7.75C7.28587 4.5 6.84075 4.31563 6.51256 3.98744C6.18437 3.65925 6 3.21413 6 2.75V1.75C6 1.33579 6.33579 1 6.75 1ZM5.75 7.5C5.6837 7.5 5.62011 7.52634 5.57322 7.57322C5.52634 7.62011 5.5 7.6837 5.5 7.75V15.75C5.5 15.8163 5.52634 15.8799 5.57322 15.9268C5.62011 15.9737 5.68369 16 5.75 16H17.75C17.8163 16 17.8799 15.9737 17.9268 15.9268C17.9737 15.8799 18 15.8163 18 15.75V7.75C18 7.68369 17.9737 7.62011 17.9268 7.57322C17.8799 7.52634 17.8163 7.5 17.75 7.5H5.75ZM4.51256 6.51256C4.84075 6.18437 5.28587 6 5.75 6H17.75C18.2141 6 18.6592 6.18437 18.9874 6.51256C19.3156 6.84075 19.5 7.28587 19.5 7.75V15.75C19.5 16.2141 19.3156 16.6592 18.9874 16.9874C18.6592 17.3156 18.2141 17.5 17.75 17.5H5.75C5.28587 17.5 4.84075 17.3156 4.51256 16.9874C4.18437 16.6592 4 16.2141 4 15.75V7.75C4 7.28587 4.18438 6.84075 4.51256 6.51256ZM7.75 20.5C7.68369 20.5 7.62011 20.5263 7.57322 20.5732C7.52634 20.6201 7.5 20.6837 7.5 20.75V21.75C7.5 22.1642 7.16421 22.5 6.75 22.5C6.33579 22.5 6 22.1642 6 21.75V20.75C6 20.2859 6.18437 19.8408 6.51256 19.5126C6.84075 19.1844 7.28587 19 7.75 19H15.75C16.2141 19 16.6592 19.1844 16.9874 19.5126C17.3156 19.8408 17.5 20.2859 17.5 20.75V21.75C17.5 22.1642 17.1642 22.5 16.75 22.5C16.3358 22.5 16 22.1642 16 21.75V20.75C16 20.6837 15.9737 20.6201 15.9268 20.5732C15.8799 20.5263 15.8163 20.5 15.75 20.5H7.75Z" fill="currentColor"/>
</svg>
