<svg width="24" height="24" viewBox="0 0 24 24" fill="none" xmlns="http://www.w3.org/2000/svg">
<path d="M8.868 8.846C6.112 12.228 3 21 3 21C3 21 11.75 17.896 15.134 15.15M16.801 12.808C17.041 12.03 17.0647 11.2014 16.8696 10.411C16.6745 9.62056 16.2681 8.89812 15.6937 8.32111C15.1194 7.74409 14.3988 7.33425 13.6093 7.13552C12.8198 6.93679 11.9911 6.95666 11.212 7.193M9 13L7.5 11.5M16 8C16 8 17.594 6 19 6C20.86 6 22 8 22 8C22 8 20.86 10 19 10C17.14 10 16 8 16 8ZM16 8C16 8 14 6.86 14 5C14 3.14 16 2 16 2C16 2 18 3.14 18 5C18 6.423 16 8 16 8ZM3 3L21 21" stroke="currentColor" stroke-width="1.5" stroke-linecap="round" stroke-linejoin="round"/>
</svg>
