<svg width="24" height="24" viewBox="0 0 24 24" fill="none" xmlns="http://www.w3.org/2000/svg">
<path d="M9 13L7.5 11.5M16 14L14 12M16 8C16 8 17.594 6 19 6C20.86 6 22 8 22 8C22 8 20.86 10 19 10C17.14 10 16 8 16 8ZM16 8C16 8 14 6.86 14 5C14 3.14 16 2 16 2C16 2 18 3.14 18 5C18 6.423 16 8 16 8ZM3 21C3 21 12.834 17.511 15.684 14.66C16.525 13.8186 16.9974 12.6776 16.9974 11.488C16.9974 10.2984 16.525 9.15741 15.684 8.316C15.2677 7.89941 14.7733 7.56893 14.2292 7.34345C13.6852 7.11798 13.102 7.00192 12.513 7.00192C11.924 7.00192 11.3408 7.11798 10.7967 7.34345C10.2527 7.56893 9.75832 7.89941 9.342 8.316C6.482 11.177 2.995 21.005 2.995 21.005L3 21Z" stroke="currentColor" stroke-width="1.5" stroke-linecap="round" stroke-linejoin="round"/>
</svg>
