<svg width="24" height="24" viewBox="0 0 24 24" fill="none" xmlns="http://www.w3.org/2000/svg">
<path d="M9.87992 9.87802C9.59759 10.1557 9.37303 10.4866 9.2192 10.8515C9.06538 11.2164 8.98533 11.6082 8.98367 12.0042C8.98201 12.4002 9.05878 12.7927 9.20954 13.1589C9.3603 13.5251 9.58208 13.8578 9.86207 14.1379C10.1421 14.4179 10.4747 14.6398 10.8409 14.7906C11.2071 14.9415 11.5995 15.0183 11.9955 15.0168C12.3915 15.0152 12.7833 14.9352 13.1483 14.7815C13.5132 14.6278 13.8441 14.4033 14.1219 14.121M14.7019 10.696C14.4042 10.0811 13.9063 9.58566 13.2899 9.29102M10 6H19C19.5304 6 20.0391 6.21071 20.4142 6.58579C20.7893 6.96086 21 7.46957 21 8V16C21 16.294 20.936 16.574 20.822 16.825M18 18H5C4.46957 18 3.96086 17.7893 3.58579 17.4142C3.21071 17.0391 3 16.5304 3 16V8C3 7.46957 3.21071 6.96086 3.58579 6.58579C3.96086 6.21071 4.46957 6 5 6H6M18 12H18.01M6 12H6.01M3 3L21 21" stroke="currentColor" stroke-width="1.5" stroke-linecap="round" stroke-linejoin="round"/>
</svg>
