<svg width="24" height="24" viewBox="0 0 24 24" fill="none" xmlns="http://www.w3.org/2000/svg">
<path d="M13 9H19C19.5304 9 20.0391 9.21071 20.4142 9.58579C20.7893 9.96086 21 10.4696 21 11V17M19 19H9C8.46957 19 7.96086 18.7893 7.58579 18.4142C7.21071 18.0391 7 17.5304 7 17V11C7 10.4696 7.21071 9.96086 7.58579 9.58579C7.96086 9.21071 8.46957 9 9 9M12.5819 12.59C12.2179 12.9675 12.0166 13.4728 12.0216 13.9972C12.0265 14.5216 12.2372 15.0231 12.6083 15.3936C12.9794 15.7642 13.4811 15.9742 14.0055 15.9784C14.5299 15.9825 15.035 15.7806 15.4119 15.416M17 9V7C17 6.46957 16.7893 5.96086 16.4142 5.58579C16.0391 5.21071 15.5304 5 15 5H9M5 5C4.46957 5 3.96086 5.21071 3.58579 5.58579C3.21071 5.96086 3 6.46957 3 7V13C3 13.5304 3.21071 14.0391 3.58579 14.4142C3.96086 14.7893 4.46957 15 5 15H7M3 3L21 21" stroke="currentColor" stroke-width="1.5" stroke-linecap="round" stroke-linejoin="round"/>
</svg>
