<svg width="24" height="24" viewBox="0 0 24 24" fill="none" xmlns="http://www.w3.org/2000/svg">
<path d="M3 19H3.01M7 19C7 17.9391 6.57857 16.9217 5.82843 16.1716C5.07828 15.4214 4.06087 15 3 15M11 19C11 16.8783 10.1571 14.8434 8.65685 13.3431C7.15656 11.8429 5.12173 11 3 11M15 19H18C18.2965 19.0001 18.5914 18.9563 18.875 18.87M20.875 16.87C20.96 16.5885 21.0031 16.296 21.003 16.002V8.00195C21.003 7.2063 20.6869 6.44324 20.1243 5.88063C19.5617 5.31802 18.7987 5.00195 18.003 5.00195H9.003M5.138 5.13795C4.69277 5.27686 4.28606 5.51766 3.95017 5.84123C3.61427 6.1648 3.35845 6.56223 3.203 7.00195M3 3L21 21" stroke="currentColor" stroke-width="1.5" stroke-linecap="round" stroke-linejoin="round"/>
</svg>
