<svg width="24" height="24" viewBox="0 0 24 24" fill="none" xmlns="http://www.w3.org/2000/svg">
<path d="M10.9999 4C10.1221 3.99925 9.25003 4.14317 8.41895 4.426M5.86707 5.86401C4.60707 6.91808 3.70212 8.33449 3.27517 9.9208C2.84821 11.5071 2.91995 13.1864 3.48064 14.7305C4.04133 16.2746 5.06379 17.6087 6.40909 18.5514C7.75439 19.4942 9.35731 20 11.0001 20M20 4C18.4616 3.99955 16.9557 4.44267 15.6627 5.27627C14.3697 6.10987 13.3445 7.29859 12.71 8.7M12 12C12 14.1217 12.8429 16.1566 14.3431 17.6569C15.8434 19.1571 17.8783 20 20 20M16 12H20M3 3L21 21" stroke="currentColor" stroke-width="1.5" stroke-linecap="round" stroke-linejoin="round"/>
</svg>
