<svg width="24" height="24" viewBox="0 0 24 24" fill="none" xmlns="http://www.w3.org/2000/svg">
<path d="M16 7V20M12 20V11M8 20V15M20.0002 20H4.73124C4.58642 20.0002 4.4448 19.9575 4.32433 19.8771C4.20387 19.7967 4.10999 19.6824 4.0546 19.5486C3.99921 19.4148 3.98482 19.2675 4.01324 19.1255C4.04166 18.9835 4.11162 18.8532 4.21424 18.751L18.7512 4.21399C18.8534 4.11137 18.9838 4.04142 19.1258 4.013C19.2678 3.98457 19.415 3.99897 19.5488 4.05436C19.6826 4.10974 19.797 4.20362 19.8773 4.32409C19.9577 4.44456 20.0005 4.58618 20.0002 4.73099V20Z" stroke="currentColor" stroke-width="1.5" stroke-linecap="round" stroke-linejoin="round"/>
</svg>
