<svg width="24" height="24" viewBox="0 0 24 24" fill="none" xmlns="http://www.w3.org/2000/svg">
<path d="M20.0002 20H4.73124C4.58642 20.0002 4.4448 19.9575 4.32433 19.8771C4.20387 19.7967 4.10999 19.6824 4.0546 19.5486C3.99921 19.4148 3.98482 19.2675 4.01324 19.1255C4.04166 18.9835 4.11162 18.8532 4.21424 18.751L11.4792 11.487M13.4792 9.487L18.7512 4.215C18.8534 4.11238 18.9838 4.04242 19.1258 4.014C19.2678 3.98558 19.415 3.99998 19.5488 4.05536C19.6826 4.11075 19.797 4.20463 19.8773 4.3251C19.9577 4.44556 20.0005 4.58719 20.0002 4.732V16.001M3 3L21 21" stroke="currentColor" stroke-width="1.5" stroke-linecap="round" stroke-linejoin="round"/>
</svg>
