<svg width="24" height="24" viewBox="0 0 24 24" fill="none" xmlns="http://www.w3.org/2000/svg">
<path d="M12.8758 12.881C12.3132 13.4437 11.9971 14.2068 11.9971 15.0025C11.9971 15.7982 12.3132 16.5613 12.8758 17.124C13.4385 17.6867 14.2016 18.0028 14.9973 18.0028C15.793 18.0028 16.5562 17.6867 17.1188 17.124M17.7068 13.704C17.4061 13.0782 16.8985 12.5756 16.2698 12.281M13 17.5V22L15 20.5L17 22V17.5M10 19H5C4.46957 19 3.96086 18.7893 3.58579 18.4142C3.21071 18.0391 3 17.5304 3 17V7C3 5.9 3.9 5 5 5M9 5H19C19.5304 5 20.0391 5.21071 20.4142 5.58579C20.7893 5.96086 21 6.46957 21 7V17M6 9H9M13 9H18M6 12H9M6 15H8M3 3L21 21" stroke="currentColor" stroke-width="1.5" stroke-linecap="round" stroke-linejoin="round"/>
</svg>
