<svg width="24" height="24" viewBox="0 0 24 24" fill="none" xmlns="http://www.w3.org/2000/svg">
<path d="M12 12C11.4067 12 10.8266 12.1759 10.3333 12.5056C9.83994 12.8352 9.45543 13.3038 9.22836 13.8519C9.0013 14.4001 8.94189 15.0033 9.05765 15.5853C9.1734 16.1672 9.45912 16.7018 9.87868 17.1213C10.2982 17.5409 10.8328 17.8266 11.4147 17.9424C11.9967 18.0581 12.5999 17.9987 13.1481 17.7716C13.6962 17.5446 14.1648 17.1601 14.4944 16.6667C14.8241 16.1734 15 15.5933 15 15M11 7H14M10 18V22L12 21L14 22V18M10 19H8C7.46957 19 6.96086 18.7893 6.58579 18.4142C6.21071 18.0391 6 17.5304 6 17V6M7.18 3.175C7.43 3.063 7.709 3 8 3H16C16.5304 3 17.0391 3.21071 17.4142 3.58579C17.7893 3.96086 18 4.46957 18 5V14M17.825 17.82C17.6669 18.1717 17.4105 18.4702 17.0868 18.6795C16.763 18.8889 16.3856 19.0002 16 19H14M3 3L21 21" stroke="currentColor" stroke-width="1.5" stroke-linecap="round" stroke-linejoin="round"/>
</svg>
