<svg width="24" height="24" viewBox="0 0 24 24" fill="none" xmlns="http://www.w3.org/2000/svg">
<path d="M3 16C3 16.7956 3.31607 17.5587 3.87868 18.1213C4.44129 18.6839 5.20435 19 6 19C6.79565 19 7.55871 18.6839 8.12132 18.1213C8.68393 17.5587 9 16.7956 9 16C9 15.2044 8.68393 14.4413 8.12132 13.8787C7.55871 13.3161 6.79565 13 6 13C5.20435 13 4.44129 13.3161 3.87868 13.8787C3.31607 14.4413 3 15.2044 3 16Z" stroke="currentColor" stroke-width="1.5" stroke-linecap="round" stroke-linejoin="round"/>
<path d="M14 19C14 19.5304 14.2107 20.0391 14.5858 20.4142C14.9609 20.7893 15.4696 21 16 21C16.5304 21 17.0391 20.7893 17.4142 20.4142C17.7893 20.0391 18 19.5304 18 19C18 18.4696 17.7893 17.9609 17.4142 17.5858C17.0391 17.2107 16.5304 17 16 17C15.4696 17 14.9609 17.2107 14.5858 17.5858C14.2107 17.9609 14 18.4696 14 19Z" stroke="currentColor" stroke-width="1.5" stroke-linecap="round" stroke-linejoin="round"/>
<path d="M10 7.5C10 8.69347 10.4741 9.83807 11.318 10.682C12.1619 11.5259 13.3065 12 14.5 12C15.6935 12 16.8381 11.5259 17.682 10.682C18.5259 9.83807 19 8.69347 19 7.5C19 6.30653 18.5259 5.16193 17.682 4.31802C16.8381 3.47411 15.6935 3 14.5 3C13.3065 3 12.1619 3.47411 11.318 4.31802C10.4741 5.16193 10 6.30653 10 7.5Z" stroke="currentColor" stroke-width="1.5" stroke-linecap="round" stroke-linejoin="round"/>
</svg>
