<svg width="24" height="24" viewBox="0 0 24 24" fill="none" xmlns="http://www.w3.org/2000/svg">
<path d="M10.0002 3.19998C8.43591 3.56262 6.99713 4.33718 5.83309 5.44332C4.66905 6.54946 3.82215 7.94689 3.38024 9.49066C2.93832 11.0344 2.91749 12.6683 3.3199 14.2229C3.7223 15.7774 4.5333 17.196 5.66875 18.3314C6.80421 19.4669 8.22278 20.2779 9.77732 20.6803C11.3319 21.0827 12.9658 21.0619 14.5095 20.62C16.0533 20.178 17.4507 19.3311 18.5569 18.1671C19.663 17.0031 20.4376 15.5643 20.8002 14C20.8002 13.7348 20.6948 13.4804 20.5073 13.2929C20.3198 13.1053 20.0654 13 19.8002 13H13.0002C12.4698 13 11.9611 12.7893 11.586 12.4142C11.2109 12.0391 11.0002 11.5304 11.0002 11V3.99998C10.9878 3.88151 10.952 3.76668 10.8948 3.66215C10.8377 3.55763 10.7604 3.46548 10.6673 3.39107C10.5743 3.31665 10.4675 3.26144 10.3529 3.22864C10.2384 3.19584 10.1185 3.1861 10.0002 3.19998Z" stroke="currentColor" stroke-width="1.5" stroke-linecap="round" stroke-linejoin="round"/>
<path d="M15.0002 3.5C16.2699 3.94708 17.4232 4.6733 18.3751 5.62516C19.3269 6.57702 20.0531 7.73028 20.5002 9H16.0002C15.735 9 15.4806 8.89464 15.2931 8.70711C15.1056 8.51957 15.0002 8.26522 15.0002 8V3.5Z" stroke="currentColor" stroke-width="1.5" stroke-linecap="round" stroke-linejoin="round"/>
</svg>
