<svg width="24" height="24" viewBox="0 0 24 24" fill="none" xmlns="http://www.w3.org/2000/svg">
<path d="M15.2201 9.375C15.3842 9.17023 15.6222 9.03816 15.8828 9.00729C16.1434 8.97643 16.4057 9.04923 16.6131 9.21L16.7071 9.293L20.7071 13.293C20.8625 13.4486 20.9623 13.651 20.9911 13.869L21.0001 14V19C21 19.2449 20.9101 19.4813 20.7473 19.6644C20.5846 19.8474 20.3603 19.9643 20.1171 19.993L20.0001 20H3.97806L3.86806 19.991L3.75806 19.971L3.65106 19.937L3.54606 19.891L3.44606 19.832L3.35206 19.762L3.29206 19.707L3.22006 19.625L3.15606 19.536L3.10206 19.44L3.08606 19.405L3.04606 19.302L3.01906 19.196L3.00406 19.088L3.00006 18.978L3.00906 18.868L3.02806 18.763C3.03806 18.723 3.05006 18.686 3.06306 18.651L3.10906 18.546L3.16806 18.446L7.16806 12.446C7.29118 12.2606 7.4726 12.1216 7.68361 12.051C7.89462 11.9804 8.12316 11.9821 8.33306 12.056L8.44706 12.106L11.7241 13.744L15.2191 9.375H15.2201Z" fill="currentColor"/>
<path d="M15.2321 3.36C15.398 3.16066 15.6349 3.03358 15.8928 3.0056C16.1506 2.97761 16.4092 3.0509 16.6141 3.21L16.7071 3.293L20.7071 7.293C20.8864 7.47296 20.9905 7.71444 20.9983 7.96839C21.0061 8.22234 20.9169 8.46972 20.7488 8.66028C20.5808 8.85085 20.3465 8.97031 20.0936 8.9944C19.8407 9.0185 19.5881 8.94542 19.3871 8.79L19.2931 8.707L16.0671 5.482L11.7681 10.64C11.6375 10.7966 11.4621 10.9096 11.2655 10.9638C11.0689 11.0179 10.8605 11.0107 10.6681 10.943L10.5531 10.894L7.29908 9.268L4.80008 12.6C4.65399 12.7948 4.44183 12.9297 4.2034 12.9792C3.96498 13.0287 3.71667 12.9895 3.50508 12.869L3.40008 12.8C3.20525 12.6539 3.07043 12.4418 3.0209 12.2033C2.97138 11.9649 3.01055 11.7166 3.13108 11.505L3.20008 11.4L6.20008 7.4C6.32833 7.22918 6.5079 7.10391 6.71251 7.04255C6.91711 6.98119 7.13599 6.98695 7.33708 7.059L7.44708 7.106L10.7381 8.751L15.2321 3.36Z" fill="currentColor"/>
</svg>
