<svg width="24" height="24" viewBox="0 0 24 24" fill="none" xmlns="http://www.w3.org/2000/svg">
<path d="M9.88299 2.20703C10.3587 2.15098 10.8379 2.27663 11.2249 2.55884C11.6119 2.84105 11.878 3.259 11.97 3.72903L11.995 3.89603L12 4.00003V11C12 11.245 12.0899 11.4814 12.2527 11.6644C12.4155 11.8474 12.6397 11.9644 12.883 11.993L13 12H19.8C20.3304 12 20.8391 12.2107 21.2142 12.5858C21.5893 12.9609 21.8 13.4696 21.8 14C21.7999 14.0761 21.7912 14.1519 21.774 14.226C21.3738 15.9527 20.5219 17.542 19.3055 18.8311C18.0891 20.1202 16.5519 21.0629 14.8513 21.5626C13.1508 22.0622 11.348 22.1009 9.62757 21.6747C7.90715 21.2485 6.33092 20.3727 5.06029 19.137C3.78967 17.9013 2.87031 16.35 2.39636 14.6421C1.92242 12.9342 1.91092 11.1311 2.36305 9.41728C2.81517 7.70348 3.71468 6.14065 4.96944 4.88882C6.22421 3.63699 7.78914 2.74115 9.50399 2.29303L9.77399 2.22603L9.88399 2.20603L9.88299 2.20703Z" fill="currentColor"/>
<path d="M14 3.50003V9.00003C14 9.26524 14.1054 9.5196 14.2929 9.70713C14.4804 9.89467 14.7348 10 15 10H20.5C20.6598 9.99998 20.8173 9.96162 20.9593 9.88817C21.1013 9.81471 21.2235 9.7083 21.3159 9.57784C21.4082 9.44739 21.468 9.29669 21.4901 9.13839C21.5122 8.98009 21.4961 8.8188 21.443 8.66803C20.9463 7.25736 20.1396 5.97606 19.0822 4.91846C18.0248 3.86087 16.7436 3.05392 15.333 2.55703C15.1822 2.50376 15.0208 2.48746 14.8623 2.50948C14.7039 2.5315 14.5531 2.5912 14.4225 2.68358C14.2919 2.77596 14.1854 2.89832 14.1119 3.04038C14.0383 3.18245 14 3.34007 14 3.50003Z" fill="currentColor"/>
</svg>
