<svg width="24" height="24" viewBox="0 0 24 24" fill="none" xmlns="http://www.w3.org/2000/svg">
<path d="M20 18C20.2549 18.0003 20.5 18.0979 20.6854 18.2729C20.8707 18.4478 20.9822 18.687 20.9972 18.9414C21.0121 19.1959 20.9293 19.4464 20.7657 19.6419C20.6021 19.8373 20.3701 19.9629 20.117 19.993L20 20H4C3.74512 19.9997 3.49997 19.9021 3.31463 19.7272C3.12929 19.5522 3.01776 19.3131 3.00283 19.0586C2.98789 18.8042 3.07067 18.5536 3.23426 18.3582C3.39785 18.1627 3.6299 18.0371 3.883 18.007L4 18H20Z" fill="currentColor"/>
<path d="M15.22 5.37502C15.3841 5.17024 15.6221 5.03818 15.8827 5.00731C16.1433 4.97644 16.4056 5.04925 16.613 5.21002L16.707 5.29302L20.707 9.29302C20.8624 9.44857 20.9622 9.65102 20.991 9.86902L21 10V15C21 15.245 20.91 15.4814 20.7473 15.6644C20.5845 15.8474 20.3603 15.9644 20.117 15.993L20 16H3.978L3.868 15.991L3.758 15.971L3.651 15.937L3.546 15.891L3.446 15.832L3.352 15.762L3.292 15.707L3.22 15.625L3.156 15.536L3.102 15.44L3.086 15.405L3.046 15.302L3.019 15.196L3.004 15.088L3 14.978L3.009 14.868L3.028 14.763C3.038 14.723 3.05 14.686 3.063 14.651L3.109 14.546L3.168 14.446L7.168 8.44602C7.29112 8.26066 7.47254 8.12166 7.68355 8.05102C7.89456 7.98038 8.1231 7.98214 8.333 8.05602L8.447 8.10602L11.724 9.74402L15.219 5.37502H15.22Z" fill="currentColor"/>
</svg>
