<svg width="24" height="24" viewBox="0 0 24 24" fill="none" xmlns="http://www.w3.org/2000/svg">
<path d="M5.62999 5.64298C3.94388 7.33268 2.99805 9.62297 3.00058 12.01C3.00312 14.3971 3.9538 16.6854 5.64349 18.3715C7.33319 20.0576 9.62348 21.0034 12.0105 21.0009C14.3976 20.9984 16.6859 20.0477 18.372 18.358M20.046 16.068C20.3807 15.412 20.6339 14.7175 20.8 14C20.8 13.7348 20.6946 13.4804 20.5071 13.2929C20.3196 13.1053 20.0652 13 19.8 13H17M13 13C12.4696 13 11.9609 12.7893 11.5858 12.4142C11.2107 12.0391 11 11.5304 11 11M11 6.99998V3.99998C10.9876 3.88151 10.9517 3.76668 10.8946 3.66215C10.8375 3.55763 10.7601 3.46548 10.6671 3.39107C10.5741 3.31665 10.4672 3.26144 10.3527 3.22864C10.2382 3.19584 10.1183 3.1861 9.99999 3.19998C9.2864 3.36502 8.59563 3.61655 7.94299 3.94898M3 3L21 21M15 3.5C16.2697 3.94708 17.423 4.6733 18.3748 5.62516C19.3267 6.57702 20.0529 7.73028 20.5 9H16C15.7348 9 15.4804 8.89464 15.2929 8.70711C15.1054 8.51957 15 8.26522 15 8V3.5Z" stroke="currentColor" stroke-width="1.5" stroke-linecap="round" stroke-linejoin="round"/>
</svg>
