<svg width="24" height="24" viewBox="0 0 24 24" fill="none" xmlns="http://www.w3.org/2000/svg">
<path d="M11 7C11 8.06087 10.5786 9.07828 9.82843 9.82843C9.07828 10.5786 8.06087 11 7 11C5.93913 11 4.92172 10.5786 4.17157 9.82843C3.42143 9.07828 3 8.06087 3 7C3 5.93913 3.42143 4.92172 4.17157 4.17157C4.92172 3.42143 5.93913 3 7 3M11 7C11 5.93913 10.5786 4.92172 9.82843 4.17157C9.07828 3.42143 8.06087 3 7 3M11 7H7V3M9 17V21M17 14V21M13 13V21M21 12V21" stroke="currentColor" stroke-width="1.5" stroke-linecap="round" stroke-linejoin="round"/>
</svg>
