<svg width="24" height="24" viewBox="0 0 24 24" fill="none" xmlns="http://www.w3.org/2000/svg">
<path d="M3 2C3.26522 2 3.51957 2.10536 3.70711 2.29289C3.89464 2.48043 4 2.73478 4 3V20H21C21.2449 20 21.4813 20.09 21.6644 20.2527C21.8474 20.4155 21.9643 20.6397 21.993 20.883L22 21C22 21.2652 21.8946 21.5196 21.7071 21.7071C21.5196 21.8946 21.2652 22 21 22H3C2.73478 22 2.48043 21.8946 2.29289 21.7071C2.10536 21.5196 2 21.2652 2 21V3C2 2.73478 2.10536 2.48043 2.29289 2.29289C2.48043 2.10536 2.73478 2 3 2Z" fill="currentColor"/>
<path d="M19.0002 4C19.4212 4.00095 19.8374 4.0905 20.2215 4.26284C20.6056 4.43517 20.9492 4.68643 21.2298 5.00027C21.5104 5.31412 21.7219 5.68352 21.8504 6.08445C21.9789 6.48538 22.0215 6.90887 21.9756 7.32737C21.9296 7.74587 21.7961 8.15002 21.5837 8.51352C21.3713 8.87703 21.0847 9.19176 20.7427 9.43725C20.4007 9.68273 20.0108 9.85347 19.5984 9.93837C19.186 10.0233 18.7604 10.0204 18.3492 9.93L16.3472 13.132C16.6879 13.56 16.9051 14.0731 16.9752 14.6156C17.0454 15.1582 16.9658 15.7096 16.7452 16.2102C16.5246 16.7108 16.1713 17.1415 15.7235 17.4558C15.2757 17.7701 14.7505 17.956 14.2047 17.9933C13.6589 18.0306 13.1133 17.918 12.6269 17.6676C12.1405 17.4172 11.7318 17.0386 11.4451 16.5727C11.1584 16.1068 11.0045 15.5714 11.0001 15.0243C10.9957 14.4773 11.141 13.9394 11.4202 13.469L10.0422 11.814C9.37868 12.0597 8.64963 12.063 7.98391 11.8232C7.31819 11.5834 6.75864 11.116 6.40415 10.5037C6.04965 9.89129 5.92302 9.17332 6.04662 8.47661C6.17023 7.77991 6.53612 7.14931 7.07965 6.69626C7.62317 6.24321 8.30934 5.99685 9.01692 6.00072C9.72449 6.0046 10.4079 6.25845 10.9465 6.71743C11.485 7.1764 11.844 7.81096 11.9599 8.50898C12.0759 9.20699 11.9414 9.92354 11.5802 10.532L12.9582 12.186C13.4997 11.9852 14.0876 11.9453 14.6512 12.071L16.6532 8.868C16.3018 8.42637 16.0821 7.89455 16.0193 7.33365C15.9565 6.77276 16.0533 6.20553 16.2984 5.69713C16.5435 5.18874 16.927 4.7598 17.405 4.45959C17.8829 4.15938 18.4358 4.00009 19.0002 4Z" fill="currentColor"/>
</svg>
