<svg width="24" height="24" viewBox="0 0 24 24" fill="none" xmlns="http://www.w3.org/2000/svg">
<path d="M7 7C7 7.53043 6.78929 8.03914 6.41421 8.41421C6.03914 8.78929 5.53043 9 5 9C4.46957 9 3.96086 8.78929 3.58579 8.41421C3.21071 8.03914 3 7.53043 3 7C3 6.46957 3.21071 5.96086 3.58579 5.58579C3.96086 5.21071 4.46957 5 5 5C5.53043 5 6.03914 5.21071 6.41421 5.58579C6.78929 5.96086 7 6.46957 7 7ZM7 7L15 6M15 6C15 6.79565 15.3161 7.55871 15.8787 8.12132C16.4413 8.68393 17.2044 9 18 9C18.7956 9 19.5587 8.68393 20.1213 8.12132C20.6839 7.55871 21 6.79565 21 6C21 5.20435 20.6839 4.44129 20.1213 3.87868C19.5587 3.31607 18.7956 3 18 3C17.2044 3 16.4413 3.31607 15.8787 3.87868C15.3161 4.44129 15 5.20435 15 6ZM9 17L14 15.5M6.5 8.5L14.31 13.87M14 15C14 15.5304 14.2107 16.0391 14.5858 16.4142C14.9609 16.7893 15.4696 17 16 17C16.5304 17 17.0391 16.7893 17.4142 16.4142C17.7893 16.0391 18 15.5304 18 15C18 14.4696 17.7893 13.9609 17.4142 13.5858C17.0391 13.2107 16.5304 13 16 13C15.4696 13 14.9609 13.2107 14.5858 13.5858C14.2107 13.9609 14 14.4696 14 15ZM3 18C3 18.7956 3.31607 19.5587 3.87868 20.1213C4.44129 20.6839 5.20435 21 6 21C6.79565 21 7.55871 20.6839 8.12132 20.1213C8.68393 19.5587 9 18.7956 9 18C9 17.2044 8.68393 16.4413 8.12132 15.8787C7.55871 15.3161 6.79565 15 6 15C5.20435 15 4.44129 15.3161 3.87868 15.8787C3.31607 16.4413 3 17.2044 3 18Z" stroke="currentColor" stroke-width="1.5" stroke-linecap="round" stroke-linejoin="round"/>
</svg>
