<svg width="24" height="24" viewBox="0 0 24 24" fill="none" xmlns="http://www.w3.org/2000/svg">
<path d="M16 6C16 6.53043 16.2107 7.03914 16.5858 7.41421C16.9609 7.78929 17.4696 8 18 8M16 6C16 5.46957 16.2107 4.96086 16.5858 4.58579C16.9609 4.21071 17.4696 4 18 4M16 6H3M18 8C18.5304 8 19.0391 7.78929 19.4142 7.41421C19.7893 7.03914 20 6.53043 20 6M18 8V16M20 6C20 5.46957 19.7893 4.96086 19.4142 4.58579C19.0391 4.21071 18.5304 4 18 4M20 6H21M18 4V3M4 12C4 12.5304 4.21071 13.0391 4.58579 13.4142C4.96086 13.7893 5.46957 14 6 14M4 12C4 11.4696 4.21071 10.9609 4.58579 10.5858C4.96086 10.2107 5.46957 10 6 10M4 12H3M6 14C6.53043 14 7.03914 13.7893 7.41421 13.4142C7.78929 13.0391 8 12.5304 8 12M6 14V16M8 12C8 11.4696 7.78929 10.9609 7.41421 10.5858C7.03914 10.2107 6.53043 10 6 10M8 12H21M6 10V3M4 18C4 18.5304 4.21071 19.0391 4.58579 19.4142C4.96086 19.7893 5.46957 20 6 20M4 18C4 17.4696 4.21071 16.9609 4.58579 16.5858C4.96086 16.2107 5.46957 16 6 16M4 18H3M6 20C6.53043 20 7.03914 19.7893 7.41421 19.4142C7.78929 19.0391 8 18.5304 8 18M6 20V21M8 18C8 17.4696 7.78929 16.9609 7.41421 16.5858C7.03914 16.2107 6.53043 16 6 16M8 18H16M16 18C16 18.5304 16.2107 19.0391 16.5858 19.4142C16.9609 19.7893 17.4696 20 18 20M16 18C16 17.4696 16.2107 16.9609 16.5858 16.5858C16.9609 16.2107 17.4696 16 18 16M18 20C18.5304 20 19.0391 19.7893 19.4142 19.4142C19.7893 19.0391 20 18.5304 20 18M18 20V21M20 18C20 17.4696 19.7893 16.9609 19.4142 16.5858C19.0391 16.2107 18.5304 16 18 16M20 18H21M12 3V21" stroke="currentColor" stroke-width="1.5" stroke-linecap="round" stroke-linejoin="round"/>
</svg>
