<svg width="24" height="24" viewBox="0 0 24 24" fill="none" xmlns="http://www.w3.org/2000/svg">
<path d="M7.00006 12C7.00006 12.9889 7.29331 13.9556 7.84271 14.7779C8.39212 15.6001 9.17301 16.241 10.0866 16.6194C11.0003 16.9978 12.0056 17.0969 12.9755 16.9039C13.9454 16.711 14.8363 16.2348 15.5356 15.5355C16.2349 14.8363 16.7111 13.9454 16.904 12.9755C17.0969 12.0055 16.9979 11.0002 16.6195 10.0866C16.241 9.17295 15.6002 8.39206 14.7779 7.84265C13.9557 7.29324 12.989 7 12.0001 7M6.29004 18.957C7.40524 19.8723 8.72412 20.506 10.1355 20.8048C11.5469 21.1036 13.0095 21.0588 14.3999 20.674C15.7904 20.2893 17.0679 19.5759 18.1249 18.594C19.182 17.6122 19.9874 16.3906 20.4735 15.0322C20.9596 13.6739 21.112 12.2186 20.9179 10.789C20.7237 9.35947 20.1888 7.99752 19.3581 6.81797C18.5275 5.63842 17.4254 4.67585 16.1448 4.01139C14.8643 3.34693 13.4427 3.00006 12 3M11.0001 12C11.0001 12.2652 11.1054 12.5196 11.293 12.7071C11.4805 12.8946 11.7348 13 12.0001 13C12.2653 13 12.5196 12.8946 12.7072 12.7071C12.8947 12.5196 13.0001 12.2652 13.0001 12C13.0001 11.7348 12.8947 11.4804 12.7072 11.2929C12.5196 11.1054 12.2653 11 12.0001 11C11.7348 11 11.4805 11.1054 11.293 11.2929C11.1054 11.4804 11.0001 11.7348 11.0001 12Z" stroke="currentColor" stroke-width="1.5" stroke-linecap="round" stroke-linejoin="round"/>
</svg>
