<svg width="24" height="24" viewBox="0 0 24 24" fill="none" xmlns="http://www.w3.org/2000/svg">
<path d="M9.88299 2.20703C10.3587 2.15098 10.8379 2.27663 11.2249 2.55884C11.6119 2.84105 11.878 3.259 11.97 3.72903L11.995 3.89603L12 4.00003V8.00003C11.9999 8.2021 11.9386 8.39941 11.8242 8.56596C11.7098 8.73251 11.5476 8.86049 11.359 8.93303L11.252 8.96803C10.7308 9.10353 10.2539 9.37245 9.86831 9.74831C9.48268 10.1242 9.20161 10.594 9.05278 11.1115C8.90395 11.629 8.8925 12.1764 9.01954 12.6997C9.14659 13.223 9.40776 13.7041 9.77732 14.0958C10.1469 14.4875 10.6121 14.7761 11.1271 14.9333C11.6422 15.0905 12.1893 15.1108 12.7146 14.9922C13.2399 14.8737 13.7252 14.6203 14.1228 14.2571C14.5204 13.8939 14.8165 13.4335 14.982 12.921L15.032 12.748C15.0828 12.5524 15.1918 12.3769 15.3444 12.2444C15.497 12.1119 15.6862 12.0288 15.887 12.006L16 12H19.8C20.3304 12 20.8391 12.2107 21.2142 12.5858C21.5893 12.9609 21.8 13.4696 21.8 14C21.7999 14.0761 21.7912 14.1519 21.774 14.226C21.3738 15.9527 20.5219 17.542 19.3055 18.8311C18.0891 20.1202 16.5519 21.0629 14.8513 21.5626C13.1508 22.0622 11.348 22.1009 9.62757 21.6747C7.90715 21.2485 6.33092 20.3727 5.06029 19.137C3.78967 17.9013 2.87031 16.35 2.39636 14.6421C1.92242 12.9342 1.91092 11.1311 2.36305 9.41728C2.81517 7.70348 3.71468 6.14065 4.96944 4.88882C6.22421 3.63699 7.78914 2.74115 9.50399 2.29303L9.77399 2.22603L9.88399 2.20603L9.88299 2.20703Z" fill="currentColor"/>
<path d="M14.775 2.52603C14.8471 2.50921 14.9209 2.50049 14.995 2.50003L15.117 2.50703L15.229 2.52703L15.332 2.55703C16.693 3.03614 17.9343 3.80411 18.9705 4.80821C20.0067 5.81231 20.8133 7.02875 21.335 8.37403L21.443 8.66803C21.4927 8.80931 21.5101 8.95995 21.4938 9.10885C21.4776 9.25774 21.428 9.40107 21.349 9.52826C21.2699 9.65545 21.1632 9.76325 21.0369 9.84369C20.9105 9.92414 20.7677 9.97517 20.619 9.99303L20.5 10H16C15.8556 10 15.7128 9.96876 15.5816 9.90834C15.4504 9.84792 15.3339 9.7598 15.24 9.65003C14.9672 9.33045 14.6696 9.03286 14.35 8.76003C14.1608 8.59803 14.0388 8.37123 14.008 8.12403L14 8.00003V3.50503L14.006 3.38703C14.011 3.34503 14.018 3.30703 14.026 3.27103L14.056 3.16803C14.0943 3.05942 14.1512 2.95826 14.224 2.86903L14.295 2.78903C14.325 2.76103 14.353 2.73703 14.382 2.71403L14.472 2.65103L14.56 2.60103L14.663 2.55803L14.775 2.52603Z" fill="currentColor"/>
</svg>
