<svg width="24" height="24" viewBox="0 0 24 24" fill="none" xmlns="http://www.w3.org/2000/svg">
<path d="M6 3C6.24493 3.00003 6.48134 3.08996 6.66437 3.25272C6.84741 3.41547 6.96434 3.63975 6.993 3.883L7 4V5C7.50458 4.99984 7.99057 5.19041 8.36055 5.5335C8.73053 5.87659 8.95716 6.34684 8.995 6.85L9 7V10C9.00016 10.5046 8.80959 10.9906 8.4665 11.3605C8.12341 11.7305 7.65316 11.9572 7.15 11.995L7 12V20C6.99972 20.2549 6.90212 20.5 6.72715 20.6854C6.55218 20.8707 6.31305 20.9822 6.05861 20.9972C5.80416 21.0121 5.55362 20.9293 5.35817 20.7657C5.16271 20.6021 5.0371 20.3701 5.007 20.117L5 20V12C4.49542 12.0002 4.00943 11.8096 3.63945 11.4665C3.26947 11.1234 3.04284 10.6532 3.005 10.15L3 10V7C2.99984 6.49542 3.19041 6.00943 3.5335 5.63945C3.87659 5.26947 4.34684 5.04284 4.85 5.005L5 5V4C5 3.73478 5.10536 3.48043 5.29289 3.29289C5.48043 3.10536 5.73478 3 6 3Z" fill="currentColor"/>
<path d="M12 3C12.2449 3.00003 12.4813 3.08996 12.6644 3.25272C12.8474 3.41547 12.9643 3.63975 12.993 3.883L13 4V13C13.5046 12.9998 13.9906 13.1904 14.3605 13.5335C14.7305 13.8766 14.9572 14.3468 14.995 14.85L15 15V18C15.0002 18.5046 14.8096 18.9906 14.4665 19.3605C14.1234 19.7305 13.6532 19.9572 13.15 19.995L13 20C12.9997 20.2549 12.9021 20.5 12.7272 20.6854C12.5522 20.8707 12.313 20.9822 12.0586 20.9972C11.8042 21.0121 11.5536 20.9293 11.3582 20.7657C11.1627 20.6021 11.0371 20.3701 11.007 20.117L11 20L10.85 19.995C10.3738 19.9592 9.92617 19.7542 9.58797 19.4171C9.24977 19.08 9.04334 18.6331 9.006 18.157L9 18V15C8.99984 14.4954 9.19041 14.0094 9.5335 13.6395C9.87659 13.2695 10.3468 13.0428 10.85 13.005L11 13V4C11 3.73478 11.1054 3.48043 11.2929 3.29289C11.4804 3.10536 11.7348 3 12 3Z" fill="currentColor"/>
<path d="M18 3C18.2449 3.00003 18.4813 3.08996 18.6644 3.25272C18.8474 3.41547 18.9643 3.63975 18.993 3.883L19 4C19.5046 3.99984 19.9906 4.19041 20.3605 4.5335C20.7305 4.87659 20.9572 5.34684 20.995 5.85L21 6V10C21.0002 10.5046 20.8096 10.9906 20.4665 11.3605C20.1234 11.7305 19.6532 11.9572 19.15 11.995L19 12V20C18.9997 20.2549 18.9021 20.5 18.7272 20.6854C18.5522 20.8707 18.313 20.9822 18.0586 20.9972C17.8042 21.0121 17.5536 20.9293 17.3582 20.7657C17.1627 20.6021 17.0371 20.3701 17.007 20.117L17 20V12C16.4954 12.0002 16.0094 11.8096 15.6395 11.4665C15.2695 11.1234 15.0428 10.6532 15.005 10.15L15 10V6C14.9998 5.49542 15.1904 5.00943 15.5335 4.63945C15.8766 4.26947 16.3468 4.04284 16.85 4.005L17 4C17 3.73478 17.1054 3.48043 17.2929 3.29289C17.4804 3.10536 17.7348 3 18 3Z" fill="currentColor"/>
</svg>
