<svg width="24" height="24" viewBox="0 0 24 24" fill="none" xmlns="http://www.w3.org/2000/svg">
<path fill-rule="evenodd" clip-rule="evenodd" d="M17.5303 6.46967C17.8232 6.76256 17.8232 7.23744 17.5303 7.53033L12.5303 12.5303C12.2374 12.8232 11.7626 12.8232 11.4697 12.5303C11.1768 12.2374 11.1768 11.7626 11.4697 11.4697L16.4697 6.46967C16.7626 6.17678 17.2374 6.17678 17.5303 6.46967ZM22.5303 6.46967C22.8232 6.76256 22.8232 7.23744 22.5303 7.53033L12.5303 17.5303C12.2374 17.8232 11.7626 17.8232 11.4697 17.5303L6.46967 12.5303C6.17678 12.2374 6.17678 11.7626 6.46967 11.4697C6.76256 11.1768 7.23744 11.1768 7.53033 11.4697L12 15.9393L21.4697 6.46967C21.7626 6.17678 22.2374 6.17678 22.5303 6.46967ZM1.46967 11.4697C1.76256 11.1768 2.23744 11.1768 2.53033 11.4697L7.53033 16.4697C7.82322 16.7626 7.82322 17.2374 7.53033 17.5303C7.23744 17.8232 6.76256 17.8232 6.46967 17.5303L1.46967 12.5303C1.17678 12.2374 1.17678 11.7626 1.46967 11.4697Z" fill="currentColor"/>
</svg>
