<svg width="24" height="24" viewBox="0 0 24 24" fill="none" xmlns="http://www.w3.org/2000/svg">
<path d="M21 9.00006V12.5001C20.4696 12.5001 19.9609 12.7108 19.5858 13.0858C19.2107 13.4609 19 13.9696 19 14.5001C19 15.0305 19.2107 15.5392 19.5858 15.9143C19.9609 16.2893 20.4696 16.5001 21 16.5001V20.0001L4.51902 20.0081C3.56002 18.3721 3 16.4041 3 14.2871C3 11.6541 3.865 9.25306 5.288 7.43306C6.857 5.42806 9.103 4.12806 11.615 4.00806L21 9.00006ZM21 9.00006H4.27802M15 13.0001V13.0101M8 13.0001V13.0101M11 16.0001V16.0101" stroke="currentColor" stroke-width="1.5" stroke-linecap="round" stroke-linejoin="round"/>
</svg>
