<svg width="24" height="24" viewBox="0 0 24 24" fill="none" xmlns="http://www.w3.org/2000/svg">
<path d="M8.71992 4.71201C9.16515 4.0735 9.787 3.57877 10.5092 3.28847C11.2315 2.99816 12.0228 2.9249 12.786 3.07766C13.5493 3.23042 14.2514 3.60257 14.8063 4.14848C15.3612 4.69439 15.7447 5.39034 15.9099 6.15102C16.9341 5.87386 18.0263 6.0149 18.9465 6.5431C19.8666 7.07129 20.5393 7.94338 20.8164 8.96751C21.0936 9.99165 20.9525 11.0839 20.4243 12.0041C19.8961 12.9242 19.0241 13.5969 17.9999 13.874V14M17.9999 18V21H5.99992V13.874C5.12009 13.662 4.33816 13.1579 3.78188 12.444C3.22559 11.7302 2.92783 10.8487 2.93723 9.94377C2.94663 9.0388 3.26264 8.16377 3.83364 7.46162C4.40464 6.75947 5.19688 6.27171 6.08092 6.07802M6.16092 17.009L16.9999 17M2.99992 3L20.9999 21" stroke="currentColor" stroke-width="1.5" stroke-linecap="round" stroke-linejoin="round"/>
</svg>
