<svg width="24" height="24" viewBox="0 0 24 24" fill="none" xmlns="http://www.w3.org/2000/svg">
<path d="M6.16107 17.009L18.0001 17M12.0001 3C13.9181 3 15.5201 4.35 15.9101 6.151C16.9342 5.87385 18.0265 6.01488 18.9466 6.54308C19.8668 7.07128 20.5394 7.94337 20.8166 8.9675C21.0937 9.99163 20.9527 11.0839 20.4245 12.0041C19.8963 12.9242 19.0242 13.5968 18.0001 13.874V21H6.00007V13.874C5.49297 13.7366 5.0179 13.5007 4.60196 13.1798C4.18603 12.8588 3.83739 12.4591 3.57595 12.0034C3.3145 11.5477 3.14538 11.0449 3.07822 10.5239C3.01107 10.0028 3.04721 9.4736 3.18457 8.9665C3.32194 8.4594 3.55783 7.98432 3.8788 7.56839C4.19976 7.15246 4.59951 6.80382 5.05521 6.54237C5.51092 6.28093 6.01365 6.1118 6.53472 6.04465C7.05578 5.9775 7.58497 6.01364 8.09207 6.151C8.28591 5.25857 8.77929 4.45933 9.49022 3.88611C10.2012 3.31289 11.0868 3.0002 12.0001 3Z" stroke="currentColor" stroke-width="1.5" stroke-linecap="round" stroke-linejoin="round"/>
</svg>
