<svg width="24" height="24" viewBox="0 0 24 24" fill="none" xmlns="http://www.w3.org/2000/svg">
<path d="M16.588 5.191L16.646 5.236L16.724 5.31L16.796 5.394L16.809 5.412C16.9618 5.62149 17.0271 5.88223 16.991 6.139L16.969 6.25L16.939 6.342C15.949 9.067 16.273 11.5 17.618 14.048C18.3651 14.1648 19.0638 14.4911 19.6331 14.9889C20.2024 15.4867 20.6188 16.1356 20.8343 16.8605C21.0497 17.5854 21.0552 18.3565 20.8502 19.0844C20.6452 19.8123 20.238 20.4671 19.676 20.9731C19.1139 21.479 18.4199 21.8152 17.6745 21.9427C16.9292 22.0702 16.1629 21.9838 15.4646 21.6936C14.7663 21.4033 14.1646 20.921 13.7293 20.3027C13.294 19.6843 13.0428 18.9553 13.005 18.2L13 18L13.005 17.8C13.0433 17.0372 13.299 16.3013 13.742 15.6792C14.185 15.0571 14.7967 14.5747 15.505 14.289C14.558 12.259 14.163 10.224 14.453 8.082C14.287 8.159 14.121 8.232 13.954 8.3L14.048 8.236C11.805 9.706 10.496 11.24 10.068 12.806C10.696 13.2427 11.2024 13.8323 11.5393 14.5191C11.8761 15.2059 12.0323 15.9672 11.9931 16.7311C11.9539 17.4951 11.7207 18.2364 11.3153 18.8851C10.91 19.5339 10.346 20.0686 9.67657 20.4387C9.00714 20.8089 8.25441 21.0023 7.48946 21.0006C6.72452 20.999 5.97261 20.8024 5.30477 20.4294C4.63692 20.0564 4.07519 19.5193 3.67262 18.8689C3.27004 18.2184 3.03993 17.4761 3.004 16.712L3 16.5L3.005 16.288C3.03473 15.656 3.19742 15.0373 3.48244 14.4724C3.76747 13.9075 4.16842 13.409 4.65913 13.0096C5.14984 12.6101 5.71928 12.3186 6.33027 12.1541C6.94126 11.9897 7.58007 11.9559 8.205 12.055C8.537 10.982 9.15 9.959 10.035 8.986C8.241 8.89 6.449 8.227 4.68 7L4.412 6.81L4.361 6.77L4.315 6.73L4.271 6.686L4.231 6.64L4.191 6.59L4.159 6.543L4.124 6.483L4.071 6.373L4.033 6.257L4.01 6.14L4.005 6.098L4 5.98L4.01 5.862L4.033 5.745L4.071 5.63L4.101 5.564L4.124 5.519L4.159 5.459L4.191 5.413L4.231 5.362L4.271 5.316L4.315 5.272L4.361 5.232L4.411 5.192C8.429 2.27 12.571 2.269 16.588 5.191Z" fill="currentColor"/>
</svg>
