<svg width="24" height="24" viewBox="0 0 24 24" fill="none" xmlns="http://www.w3.org/2000/svg">
<path d="M17 15C17.7956 15 18.5587 15.3161 19.1213 15.8787C19.6839 16.4413 20 17.2044 20 18C20 18.7957 19.6839 19.5587 19.1213 20.1213C18.5587 20.6839 17.7956 21 17 21C16.2044 21 15.4413 20.6839 14.8787 20.1213C14.3161 19.5587 14 18.7957 14 18C14 17.2044 14.3161 16.4413 14.8787 15.8787C15.4413 15.3161 16.2044 15 17 15ZM17 15C15.667 12.667 14.667 9.667 16 6M9 13C9.366 11 10.866 9.12703 13.5 7.40003M16 6C12.333 3.333 8.667 3.33301 5 6.00001C8.667 8.66701 12.333 8.667 16 6ZM4 16.5C4 17.4283 4.36875 18.3185 5.02513 18.9749C5.6815 19.6313 6.57174 20 7.5 20C8.42826 20 9.3185 19.6313 9.97487 18.9749C10.6313 18.3185 11 17.4283 11 16.5C11 15.5717 10.6313 14.6815 9.97487 14.0251C9.3185 13.3688 8.42826 13 7.5 13C6.57174 13 5.6815 13.3688 5.02513 14.0251C4.36875 14.6815 4 15.5717 4 16.5Z" stroke="currentColor" stroke-width="1.5" stroke-linecap="round" stroke-linejoin="round"/>
</svg>
