<svg width="24" height="24" viewBox="0 0 24 24" fill="none" xmlns="http://www.w3.org/2000/svg">
<path d="M9 6H15M12 3V11M8 16L6.553 16.724C6.38692 16.807 6.24722 16.9346 6.14955 17.0925C6.05188 17.2504 6.0001 17.4323 6 17.618V20H18V17.618C17.9999 17.4323 17.9481 17.2504 17.8504 17.0925C17.7528 16.9346 17.6131 16.807 17.447 16.724L16 16H8ZM8.49977 16C7.87344 15.9999 7.25863 15.8317 6.71946 15.513C6.1803 15.1943 5.73653 14.7367 5.43446 14.188C5.13239 13.6394 4.98308 13.0197 5.0021 12.3937C5.02113 11.7676 5.2078 11.1582 5.54264 10.6289C5.87748 10.0996 6.34822 9.6698 6.90575 9.38443C7.46328 9.09905 8.08717 8.96851 8.71235 9.00642C9.33752 9.04433 9.94107 9.24931 10.46 9.59996C10.979 9.95062 11.3943 10.4341 11.6628 11H12.3368C12.6052 10.4341 13.0205 9.95062 13.5395 9.59996C14.0585 9.24931 14.662 9.04433 15.2872 9.00642C15.9124 8.96851 16.5363 9.09905 17.0938 9.38443C17.6513 9.6698 18.1221 10.0996 18.4569 10.6289C18.7917 11.1582 18.9784 11.7676 18.9974 12.3937C19.0165 13.0197 18.8671 13.6394 18.5651 14.188C18.263 14.7367 17.8192 15.1943 17.2801 15.513C16.7409 15.8317 16.1261 15.9999 15.4998 16H8.49977Z" stroke="currentColor" stroke-width="1.5" stroke-linecap="round" stroke-linejoin="round"/>
</svg>
