<svg width="24" height="24" viewBox="0 0 24 24" fill="none" xmlns="http://www.w3.org/2000/svg">
<path d="M12 5C11.7348 5 11.4804 4.89464 11.2929 4.70711C11.1054 4.51957 11 4.26522 11 4C11 3.73478 11.1054 3.48043 11.2929 3.29289C11.4804 3.10536 11.7348 3 12 3C12.2652 3 12.5196 3.10536 12.7071 3.29289C12.8946 3.48043 13 3.73478 13 4C13 4.26522 12.8946 4.51957 12.7071 4.70711C12.5196 4.89464 12.2652 5 12 5ZM12 5V6M12 6C8.667 7 7 9.333 7 13C7 14.331 7.833 16 9.5 16H14.675C16.225 15.881 17 14.284 17 13C17 9.427 15.333 7 12 6ZM15 8L12 11M8 16L6.553 16.724C6.38692 16.807 6.24722 16.9346 6.14955 17.0925C6.05188 17.2504 6.0001 17.4323 6 17.618V20H18V17.618C17.9999 17.4323 17.9481 17.2504 17.8504 17.0925C17.7528 16.9346 17.6131 16.807 17.447 16.724L16 16H8Z" stroke="currentColor" stroke-width="1.5" stroke-linecap="round" stroke-linejoin="round"/>
</svg>
