<svg width="24" height="24" viewBox="0 0 24 24" fill="none" xmlns="http://www.w3.org/2000/svg">
<path d="M15 16L13.5 9C14.4 8.482 15 7.113 15 6C15 5.20435 14.6839 4.44129 14.1213 3.87868C13.5587 3.31607 12.7956 3 12 3C11.2044 3 10.4413 3.31607 9.87868 3.87868C9.31607 4.44129 9 5.20435 9 6C9 7.113 9.6 8.482 10.5 9L9 16M15 16H9M15 16L17.316 16.772C17.515 16.8383 17.6882 16.9655 17.8109 17.1356C17.9337 17.3058 17.9998 17.5102 18 17.72V19C18 19.2652 17.8946 19.5196 17.7071 19.7071C17.5196 19.8946 17.2652 20 17 20H7C6.73478 20 6.48043 19.8946 6.29289 19.7071C6.10536 19.5196 6 19.2652 6 19V17.721C5.99995 17.511 6.06599 17.3064 6.18876 17.136C6.31153 16.9657 6.48479 16.8383 6.684 16.772L9 16M8 9H16" stroke="currentColor" stroke-width="1.5" stroke-linecap="round" stroke-linejoin="round"/>
</svg>
