<svg width="24" height="24" viewBox="0 0 24 24" fill="none" xmlns="http://www.w3.org/2000/svg">
<path d="M12 2C12.399 1.99997 12.7888 2.11927 13.1194 2.34254C13.4501 2.56581 13.7063 2.88287 13.8554 3.25295C14.0044 3.62302 14.0393 4.02921 13.9557 4.4193C13.872 4.80939 13.6736 5.16555 13.386 5.442C14.032 5.722 14.612 6.062 15.126 6.459L11.293 10.293L11.21 10.387C11.0609 10.5794 10.987 10.8196 11.0024 11.0626C11.0177 11.3056 11.1211 11.5346 11.2933 11.7067C11.4654 11.8789 11.6944 11.9823 11.9374 11.9976C12.1804 12.013 12.4206 11.9391 12.613 11.79L12.707 11.707L16.521 7.894C17.498 9.244 18 10.964 18 13C18 14.913 16.822 16.722 14.911 16.973L14.711 16.993L14.5 17H9.5C7.374 17 6 15.076 6 13C6 9.32 7.57 6.745 10.613 5.44C10.326 5.16337 10.1282 4.80729 10.045 4.41745C9.9618 4.02761 9.99699 3.62181 10.146 3.25211C10.2951 2.88241 10.5512 2.56569 10.8816 2.34259C11.2119 2.11949 11.6014 2.00019 12 2Z" fill="currentColor"/>
<path d="M12 5V6V5Z" fill="currentColor"/>
<path d="M18 18H6C5.73478 18 5.48043 18.1054 5.29289 18.2929C5.10536 18.4804 5 18.7348 5 19C5 19.5304 5.21071 20.0391 5.58579 20.4142C5.96086 20.7893 6.46957 21 7 21H17C17.4903 21.0001 17.9636 20.8201 18.33 20.4942C18.6963 20.1682 18.9301 19.719 18.987 19.232L18.998 19.058C19.0059 18.9221 18.9859 18.7859 18.9394 18.658C18.8928 18.53 18.8206 18.4129 18.7271 18.3138C18.6337 18.2148 18.521 18.1358 18.3959 18.0819C18.2709 18.0279 18.1362 18 18 18Z" fill="currentColor"/>
</svg>
