<svg width="24" height="24" viewBox="0 0 24 24" fill="none" xmlns="http://www.w3.org/2000/svg">
<path d="M12 2C12.2449 2.00003 12.4813 2.08996 12.6644 2.25272C12.8474 2.41547 12.9643 2.63975 12.993 2.883L13 3V5H15C15.2549 5.00028 15.5 5.09788 15.6854 5.27285C15.8707 5.44782 15.9822 5.68695 15.9972 5.94139C16.0121 6.19584 15.9293 6.44638 15.7657 6.64183C15.6021 6.83729 15.3701 6.9629 15.117 6.993L15 7H13V8.758C13.6078 8.35144 14.3057 8.09947 15.033 8.024L15.273 8.006L15.5 8C16.0909 8 16.6761 8.1164 17.2221 8.34254C17.768 8.56869 18.2641 8.90016 18.682 9.31802C19.0998 9.73588 19.4313 10.232 19.6574 10.7779C19.8836 11.3239 20 11.9091 20 12.5C19.9989 13.6176 19.5823 14.6949 18.8312 15.5224C18.0802 16.35 17.0482 16.8688 15.936 16.978L15.719 16.994L15.5 17H8.49998C7.79726 17 7.1043 16.8354 6.47661 16.5194C5.84893 16.2035 5.30397 15.7449 4.88539 15.1804C4.46682 14.616 4.18625 13.9613 4.06618 13.2689C3.9461 12.5765 3.98986 11.8656 4.19393 11.1932C4.39801 10.5207 4.75673 9.90544 5.24137 9.39656C5.72601 8.88769 6.32309 8.49939 6.98478 8.26277C7.64647 8.02615 8.35438 7.94779 9.05181 8.03396C9.74923 8.12013 10.4168 8.36844 11.001 8.759L11 7H8.99998C8.7451 6.99972 8.49995 6.90212 8.31462 6.72715C8.12928 6.55218 8.01775 6.31305 8.00281 6.05861C7.98787 5.80416 8.07066 5.55362 8.23425 5.35817C8.39784 5.16271 8.62989 5.0371 8.88298 5.007L8.99998 5H11V3C11 2.73478 11.1053 2.48043 11.2929 2.29289C11.4804 2.10536 11.7348 2 12 2Z" fill="currentColor"/>
<path d="M18 18H5.99997C5.73475 18 5.4804 18.1054 5.29286 18.2929C5.10533 18.4804 4.99997 18.7348 4.99997 19C4.99997 19.5304 5.21068 20.0391 5.58576 20.4142C5.96083 20.7893 6.46954 21 6.99997 21H17C17.4903 21.0001 17.9636 20.8201 18.3299 20.4942C18.6963 20.1682 18.9301 19.719 18.987 19.232L18.998 19.058C19.0059 18.9221 18.9859 18.7859 18.9393 18.658C18.8928 18.53 18.8205 18.4129 18.7271 18.3138C18.6336 18.2148 18.5209 18.1358 18.3959 18.0819C18.2709 18.0279 18.1361 18 18 18Z" fill="currentColor"/>
</svg>
