<svg width="24" height="24" viewBox="0 0 24 24" fill="none" xmlns="http://www.w3.org/2000/svg">
<path d="M11.9998 2C12.3751 2.00007 12.7428 2.1057 13.0608 2.30483C13.3789 2.50396 13.6345 2.78856 13.7984 3.12609C13.9624 3.46362 14.0281 3.84047 13.988 4.21358C13.948 4.58668 13.8037 4.94099 13.5718 5.236L14.3648 7.219L16.0668 5.517C15.9882 5.22066 15.9786 4.91022 16.0388 4.60959C16.099 4.30896 16.2274 4.02617 16.4142 3.783C16.6009 3.53983 16.841 3.34278 17.1159 3.20703C17.3908 3.07128 17.6932 3.00045 17.9998 3C18.4715 2.99934 18.9281 3.16537 19.2892 3.46876C19.6503 3.77215 19.8925 4.19337 19.9732 4.65804C20.0538 5.12271 19.9676 5.60093 19.7299 6.00823C19.4921 6.41554 19.1181 6.72572 18.6738 6.884L16.9838 16.179C16.9456 16.3893 16.841 16.5818 16.6853 16.7283C16.5296 16.8748 16.3311 16.9676 16.1188 16.993L15.9998 17H7.99984C7.78606 17.0001 7.57787 16.9317 7.40582 16.8048C7.23377 16.6779 7.1069 16.4993 7.04384 16.295L7.01584 16.179L5.32584 6.884C4.96013 6.75296 4.6405 6.51825 4.406 6.20853C4.17149 5.89882 4.03226 5.52752 4.00531 5.13998C3.97836 4.75244 4.06485 4.36544 4.25423 4.02625C4.44361 3.68706 4.72767 3.41036 5.07171 3.22996C5.41576 3.04956 5.8049 2.97325 6.1916 3.01038C6.5783 3.0475 6.94581 3.19643 7.24926 3.43899C7.5527 3.68155 7.77894 4.00723 7.90033 4.37625C8.02173 4.74528 8.03302 5.14166 7.93284 5.517L9.63384 7.219L10.4278 5.236C10.1959 4.94099 10.0517 4.58668 10.0116 4.21358C9.97156 3.84047 10.0373 3.46362 10.2012 3.12609C10.3652 2.78856 10.6208 2.50396 10.9389 2.30483C11.2569 2.1057 11.6246 2.00007 11.9998 2Z" fill="currentColor"/>
<path d="M17.9998 18H5.99985C5.73463 18 5.48028 18.1054 5.29274 18.2929C5.1052 18.4804 4.99985 18.7348 4.99985 19C4.99985 19.5304 5.21056 20.0391 5.58563 20.4142C5.96071 20.7893 6.46941 21 6.99985 21H16.9998C17.4902 21.0001 17.9635 20.8201 18.3298 20.4942C18.6961 20.1682 18.93 19.719 18.9868 19.232L18.9978 19.058C19.0057 18.9221 18.9858 18.7859 18.9392 18.658C18.8926 18.53 18.8204 18.4129 18.727 18.3138C18.6335 18.2148 18.5208 18.1358 18.3958 18.0819C18.2708 18.0279 18.136 18 17.9998 18Z" fill="currentColor"/>
</svg>
