<svg width="24" height="24" viewBox="0 0 24 24" fill="none" xmlns="http://www.w3.org/2000/svg">
<path d="M14 3.00002C14.2449 3.00006 14.4813 3.08998 14.6644 3.25274C14.8474 3.4155 14.9643 3.63977 14.993 3.88302L15 4.00002V6.00002H16.652L17.014 3.83602C17.0539 3.59416 17.1813 3.37539 17.3719 3.22127C17.5626 3.06715 17.8031 2.98842 18.048 3.00002L18.164 3.01302C18.406 3.05297 18.625 3.18049 18.7791 3.37132C18.9332 3.56216 19.0119 3.803 19 4.04802L18.987 4.16402L18.487 7.16402C18.4517 7.37708 18.3483 7.57297 18.1924 7.72241C18.0365 7.87184 17.8364 7.96678 17.622 7.99302L17.5 8.00002H16.117L16.994 15.89C17.023 16.1524 16.9471 16.4156 16.7828 16.6222C16.6185 16.8289 16.3792 16.9622 16.117 16.993L16 17H8.00001C7.736 17 7.4827 16.8956 7.29536 16.7096C7.10803 16.5236 7.00185 16.271 7.00001 16.007L7.00601 15.89L7.88301 8.00002H6.50001C6.28389 8.00015 6.07355 7.93026 5.90049 7.80082C5.72742 7.67139 5.60095 7.48937 5.54001 7.28202L5.51401 7.16402L5.01401 4.16402C4.97227 3.91242 5.02823 3.65438 5.17046 3.44269C5.31269 3.23099 5.53043 3.08163 5.77914 3.02517C6.02785 2.96871 6.28873 3.00941 6.50843 3.13895C6.72812 3.26848 6.89002 3.47706 6.96101 3.72202L6.98601 3.83602L7.34701 6.00002H9.00001V4.00002C9.00029 3.74514 9.09789 3.49999 9.27285 3.31466C9.44782 3.12932 9.68696 3.01779 9.9414 3.00285C10.1958 2.98791 10.4464 3.0707 10.6418 3.23429C10.8373 3.39788 10.9629 3.62993 10.993 3.88302L11 4.00002V6.00002H13V4.00002C13 3.73481 13.1054 3.48045 13.2929 3.29292C13.4804 3.10538 13.7348 3.00002 14 3.00002Z" fill="currentColor"/>
<path d="M18 18H6C5.73478 18 5.48043 18.1054 5.29289 18.2929C5.10536 18.4805 5 18.7348 5 19C5 19.5305 5.21071 20.0392 5.58579 20.4142C5.96086 20.7893 6.46957 21 7 21H17C17.4903 21.0001 17.9636 20.8201 18.33 20.4942C18.6963 20.1682 18.9301 19.7191 18.987 19.232L18.998 19.058C19.0059 18.9221 18.9859 18.7859 18.9394 18.658C18.8928 18.53 18.8206 18.4129 18.7271 18.3138C18.6337 18.2148 18.521 18.1358 18.3959 18.0819C18.2709 18.0279 18.1362 18.0001 18 18Z" fill="currentColor"/>
</svg>
