<svg width="24" height="24" viewBox="0 0 24 24" fill="none" xmlns="http://www.w3.org/2000/svg">
<path d="M8 16.0002L6.553 16.7242C6.38692 16.8072 6.24722 16.9348 6.14955 17.0927C6.05188 17.2506 6.0001 17.4326 6 17.6182V20.0002H18V17.6182C17.9999 17.4326 17.9481 17.2506 17.8504 17.0927C17.7528 16.9348 17.6131 16.8072 17.447 16.7242L16 16.0002H8Z" stroke="currentColor" stroke-width="1.5" stroke-linecap="round" stroke-linejoin="round"/>
<path d="M9.00017 3.00026L10.0002 6.00026L6.50917 8.14826C6.32358 8.26231 6.18031 8.43383 6.10112 8.63675C6.02194 8.83968 6.01118 9.06291 6.07049 9.27251C6.12979 9.48211 6.25591 9.66662 6.42968 9.79798C6.60344 9.92933 6.81535 10.0004 7.03317 10.0003H10.0002L7.92717 16.0003H15.8882L16.0002 11.0003C16.0002 8.00026 14.9102 5.01726 12.0002 4.00026C10.0602 3.32226 9.06017 2.98926 9.00017 3.00026Z" stroke="currentColor" stroke-width="1.5" stroke-linecap="round" stroke-linejoin="round"/>
</svg>
