<svg width="24" height="24" viewBox="0 0 24 24" fill="none" xmlns="http://www.w3.org/2000/svg">
<path d="M8.959 1.98996L8.812 2.01796L8.697 2.04696C8.57062 2.08707 8.45348 2.15191 8.35239 2.23771C8.2513 2.32351 8.16828 2.42856 8.10816 2.54674C8.04805 2.66492 8.01204 2.79388 8.00222 2.92611C7.99241 3.05834 8.00899 3.1912 8.051 3.31696L8.8 5.56196L5.985 7.29696C5.53342 7.57498 5.21073 8.02096 5.0879 8.53684C4.96507 9.05273 5.05216 9.59627 5.33 10.048L5.419 10.181C5.6047 10.4348 5.84763 10.6412 6.12806 10.7835C6.40849 10.9258 6.71853 11 7.033 11L8.596 10.999L6.982 15.673C6.92988 15.8236 6.91452 15.9845 6.93721 16.1423C6.95991 16.3001 7.01999 16.4502 7.11247 16.58C7.20494 16.7099 7.32711 16.8158 7.4688 16.8888C7.61049 16.9618 7.76759 17 7.927 17H15.888C16.1495 17 16.4005 16.8977 16.5874 16.7149C16.7744 16.5321 16.8823 16.2833 16.888 16.022L17 11.022C17 7.19496 15.445 4.14396 12.33 3.05596L9.931 2.22596L9.556 2.10496L9.298 2.03096L9.163 1.99996L9.062 1.98696L9.007 1.98596L8.959 1.98896V1.98996Z" fill="currentColor"/>
<path d="M18 18H6C5.73478 18 5.48043 18.1053 5.29289 18.2929C5.10536 18.4804 5 18.7347 5 19C5 19.5304 5.21071 20.0391 5.58579 20.4142C5.96086 20.7892 6.46957 21 7 21H17C17.4903 21.0001 17.9636 20.8201 18.33 20.4941C18.6963 20.1682 18.9301 19.719 18.987 19.232L18.998 19.058C19.0059 18.922 18.9859 18.7859 18.9394 18.6579C18.8928 18.5299 18.8206 18.4128 18.7271 18.3138C18.6337 18.2147 18.521 18.1358 18.3959 18.0818C18.2709 18.0279 18.1362 18 18 18Z" fill="currentColor"/>
</svg>
