<svg width="24" height="24" viewBox="0 0 24 24" fill="none" xmlns="http://www.w3.org/2000/svg">
<path d="M12 2C13.0609 2 14.0783 2.42143 14.8284 3.17157C15.5786 3.92172 16 4.93913 16 6C15.9928 6.68998 15.8437 7.3711 15.562 8.001L16 8C16.2549 8.00028 16.5 8.09788 16.6854 8.27285C16.8707 8.44782 16.9822 8.68695 16.9972 8.94139C17.0121 9.19584 16.9293 9.44638 16.7657 9.64183C16.6021 9.83729 16.3701 9.9629 16.117 9.993L16 10H14.737L15.977 15.79C16.0322 16.0459 15.9849 16.3132 15.8452 16.5345C15.7056 16.7559 15.4847 16.9137 15.23 16.974L15.117 16.994L15 17H8.99999C8.8608 17 8.72313 16.971 8.5958 16.9148C8.46846 16.8586 8.35426 16.7764 8.26051 16.6735C8.16676 16.5707 8.09552 16.4493 8.05135 16.3173C8.00718 16.1854 7.99105 16.0456 8.00399 15.907L8.02199 15.79L9.26199 10H7.99999C7.74511 9.99972 7.49996 9.90212 7.31462 9.72715C7.12929 9.55218 7.01776 9.31305 7.00282 9.05861C6.98788 8.80416 7.07067 8.55362 7.23426 8.35817C7.39785 8.16271 7.62989 8.0371 7.88299 8.007L7.99999 8H8.43799C8.22311 7.51586 8.08414 7.00148 8.02599 6.475L8.00599 6.216L7.99999 6C7.99999 4.93913 8.42142 3.92172 9.17156 3.17157C9.92171 2.42143 10.9391 2 12 2Z" fill="currentColor"/>
<path d="M18 18H6C5.73478 18 5.48043 18.1054 5.29289 18.2929C5.10536 18.4804 5 18.7348 5 19C5 19.5304 5.21071 20.0391 5.58579 20.4142C5.96086 20.7893 6.46957 21 7 21H17C17.4903 21.0001 17.9636 20.8201 18.33 20.4942C18.6963 20.1682 18.9301 19.719 18.987 19.232L18.998 19.058C19.0059 18.9221 18.9859 18.7859 18.9394 18.658C18.8928 18.53 18.8206 18.4129 18.7271 18.3138C18.6337 18.2148 18.521 18.1358 18.3959 18.0819C18.2709 18.0279 18.1362 18 18 18Z" fill="currentColor"/>
</svg>
