<svg width="24" height="24" viewBox="0 0 24 24" fill="none" xmlns="http://www.w3.org/2000/svg">
<path d="M14 14L15.5 15.5M14 14V11.828C13.9999 11.2976 13.7891 10.789 13.414 10.414L6 3L3 6L10.414 13.414C10.789 13.7891 11.2976 13.9999 11.828 14H14ZM18.347 15.5749L20.427 17.6539C20.7946 18.0217 21.0011 18.5204 21.001 19.0403C21.0009 19.5602 20.7942 20.0589 20.4265 20.4264C20.0588 20.794 19.5601 21.0005 19.0402 21.0004C18.5202 21.0003 18.0216 20.7937 17.654 20.4259L15.574 18.3469C15.2064 17.9792 15 17.4805 15.0001 16.9606C15.0002 16.4406 15.2068 15.942 15.5745 15.5744C15.9422 15.2069 16.4409 15.0004 16.9609 15.0005C17.4808 15.0006 17.9794 15.2072 18.347 15.5749Z" stroke="currentColor" stroke-width="1.5" stroke-linecap="round" stroke-linejoin="round"/>
</svg>
