<svg width="24" height="24" viewBox="0 0 24 24" fill="none" xmlns="http://www.w3.org/2000/svg">
<path d="M11 5L12 3L13 5M4.51221 10.161C7.00821 9.05602 9.50421 9.33602 12.0002 11C14.6272 12.752 17.2552 12.97 19.8822 11.653M4.31494 15.252C6.87594 14.042 9.43794 14.292 11.9999 16C14.2929 17.528 16.5849 17.889 18.8779 17.081M4 13C4 15.1217 4.84285 17.1566 6.34315 18.6569C7.84344 20.1571 9.87827 21 12 21C14.1217 21 16.1566 20.1571 17.6569 18.6569C19.1571 17.1566 20 15.1217 20 13C20 10.8783 19.1571 8.84344 17.6569 7.34315C16.1566 5.84285 14.1217 5 12 5C9.87827 5 7.84344 5.84285 6.34315 7.34315C4.84285 8.84344 4 10.8783 4 13Z" stroke="currentColor" stroke-width="1.5" stroke-linecap="round" stroke-linejoin="round"/>
</svg>
