<svg width="24" height="24" viewBox="0 0 24 24" fill="none" xmlns="http://www.w3.org/2000/svg">
<path d="M8.56014 3.68994C7.46822 4.14193 6.47601 4.80454 5.64014 5.63994M3.69 8.56006C3.23656 9.65036 3.0021 10.8192 3 12.0001M3.68994 15.4399C4.14193 16.5319 4.80454 17.5241 5.63994 18.3599M8.56006 20.3101C9.65036 20.7635 10.8192 20.998 12.0001 21.0001M15.4399 20.31C16.5319 19.858 17.5241 19.1954 18.3599 18.36M20.3101 15.44C20.7635 14.3497 20.998 13.1808 21.0001 12M20.3099 8.56002C19.8579 7.4681 19.1953 6.47588 18.3599 5.64001M15.44 3.69C14.3497 3.23656 13.1808 3.0021 12 3M10 10V14C10 14.5304 10.2107 15.0391 10.5858 15.4142C10.9609 15.7893 11.4696 16 12 16C12.5304 16 13.0391 15.7893 13.4142 15.4142C13.7893 15.0391 14 14.5304 14 14V10C14 9.46957 13.7893 8.96086 13.4142 8.58579C13.0391 8.21071 12.5304 8 12 8C11.4696 8 10.9609 8.21071 10.5858 8.58579C10.2107 8.96086 10 9.46957 10 10Z" stroke="currentColor" stroke-width="1.5" stroke-linecap="round" stroke-linejoin="round"/>
</svg>
