<svg width="24" height="24" viewBox="0 0 24 24" fill="none" xmlns="http://www.w3.org/2000/svg">
<path d="M7 3.33999C8.89444 2.2463 11.0952 1.80396 13.2651 2.08076C15.435 2.35756 17.4543 3.33823 19.0135 4.87247C20.5727 6.40672 21.5859 8.40991 21.8977 10.5751C22.2095 12.7402 21.8027 14.9479 20.7397 16.8597C19.6768 18.7715 18.0162 20.2821 16.0126 21.1599C14.009 22.0377 11.7728 22.2343 9.64672 21.7196C7.52066 21.2049 5.62203 20.0072 4.24177 18.3102C2.86152 16.6131 2.07579 14.5103 2.005 12.324L2 12L2.005 11.676C2.06016 9.97645 2.5478 8.31905 3.42181 6.86043C4.29583 5.40181 5.52736 4.19016 7 3.33999Z" fill="currentColor"/>
</svg>
