<svg width="24" height="24" viewBox="0 0 24 24" fill="none" xmlns="http://www.w3.org/2000/svg">
<path d="M9 9L12 12L9 15M13 9L16 12L13 15M3 12.0001C3.03497 14.3753 4.00756 16.6403 5.70572 18.3014C7.40388 19.9625 9.68987 20.8848 12.0653 20.8673C14.4407 20.8498 16.7128 19.8939 18.3864 18.208C20.0599 16.5222 20.999 14.243 20.999 11.8676C20.999 9.49208 20.0599 7.21294 18.3864 5.52706C16.7128 3.84118 14.4407 2.88528 12.0653 2.8678C9.68987 2.85031 7.40388 3.77265 5.70572 5.43371C4.00756 7.09477 3.03497 9.35984 3 11.7351V12.0001Z" stroke="currentColor" stroke-width="1.5" stroke-linecap="round" stroke-linejoin="round"/>
</svg>
