<svg width="24" height="24" viewBox="0 0 24 24" fill="none" xmlns="http://www.w3.org/2000/svg">
<path d="M15 15L12 12L15 9M11 15L8 12L11 9M21 11.9999C20.965 9.62473 19.9924 7.35967 18.2943 5.6986C16.5961 4.03754 14.3101 3.1152 11.9347 3.13269C9.55932 3.15018 7.28715 4.10607 5.61363 5.79195C3.94012 7.47784 3.00098 9.75697 3.00098 12.1324C3.00098 14.5079 3.94012 16.7871 5.61363 18.4729C7.28715 20.1588 9.55932 21.1147 11.9347 21.1322C14.3101 21.1497 16.5961 20.2274 18.2943 18.5663C19.9924 16.9052 20.965 14.6402 21 12.2649V11.9999Z" stroke="currentColor" stroke-width="1.5" stroke-linecap="round" stroke-linejoin="round"/>
</svg>
