<svg width="24" height="24" viewBox="0 0 24 24" fill="none" xmlns="http://www.w3.org/2000/svg">
<path d="M17 3.34001C18.5083 4.21087 19.7629 5.46054 20.6398 6.96531C21.5167 8.47009 21.9854 10.1778 21.9994 11.9194C22.0135 13.6609 21.5725 15.376 20.72 16.8947C19.8676 18.4135 18.6332 19.6832 17.1392 20.5783C15.6452 21.4734 13.9434 21.9628 12.2021 21.9981C10.4608 22.0333 8.74055 21.6132 7.21155 20.7793C5.68256 19.9453 4.39787 18.7265 3.48467 17.2435C2.57146 15.7605 2.06141 14.0647 2.005 12.324L2 12L2.005 11.676C2.061 9.94901 2.56355 8.26598 3.46364 6.79101C4.36373 5.31604 5.63065 4.09947 7.14089 3.2599C8.65113 2.42033 10.3531 1.98641 12.081 2.00045C13.8089 2.01449 15.5036 2.47601 17 3.34001ZM12 7.00001C11.7348 7.00001 11.4804 7.10537 11.2929 7.29291C11.1054 7.48044 11 7.7348 11 8.00001V13.585L8.707 11.293L8.613 11.21C8.41201 11.0546 8.1594 10.9815 7.90647 11.0056C7.65355 11.0297 7.41928 11.1492 7.25125 11.3397C7.08322 11.5303 6.99402 11.7777 7.00177 12.0316C7.00953 12.2856 7.11365 12.5271 7.293 12.707L11.293 16.707C11.321 16.735 11.35 16.761 11.387 16.79L11.479 16.854L11.577 16.906L11.658 16.94L11.771 16.974L11.883 16.994L12 17L12.115 16.993L12.229 16.973L12.371 16.929L12.484 16.875L12.595 16.804C12.6348 16.7747 12.6723 16.7422 12.707 16.707L16.707 12.707L16.79 12.613C16.9454 12.412 17.0185 12.1594 16.9944 11.9065C16.9703 11.6536 16.8508 11.4193 16.6603 11.2513C16.4697 11.0832 16.2223 10.994 15.9684 11.0018C15.7144 11.0095 15.473 11.1137 15.293 11.293L13 13.584V8.00001L12.993 7.88301C12.9643 7.63976 12.8474 7.41549 12.6644 7.25273C12.4813 7.08997 12.2449 7.00005 12 7.00001Z" fill="currentColor"/>
</svg>
