<svg width="24" height="24" viewBox="0 0 24 24" fill="none" xmlns="http://www.w3.org/2000/svg">
<path d="M2 14H5V12C5 11.4696 5.21071 10.9609 5.58579 10.5858C5.96086 10.2107 6.46957 10 7 10C7.53043 10 8.03914 10.2107 8.41421 10.5858C8.78929 10.9609 9 11.4696 9 12V14V12.5C9 11.837 9.26339 11.2011 9.73223 10.7322C10.2011 10.2634 10.837 10 11.5 10C12.163 10 12.7989 10.2634 13.2678 10.7322C13.7366 11.2011 14 11.837 14 12.5M14 12.5V14M14 12.5C14 11.837 14.2634 11.2011 14.7322 10.7322C15.2011 10.2634 15.837 10 16.5 10C17.163 10 17.7989 10.2634 18.2678 10.7322C18.7366 11.2011 19 11.837 19 12.5V14H22" stroke="currentColor" stroke-width="1.5" stroke-linecap="round" stroke-linejoin="round"/>
</svg>
