<svg width="24" height="24" viewBox="0 0 24 24" fill="none" xmlns="http://www.w3.org/2000/svg">
<path d="M17 3.34001C18.5083 4.21087 19.7629 5.46054 20.6398 6.96531C21.5167 8.47009 21.9854 10.1778 21.9994 11.9194C22.0135 13.6609 21.5725 15.376 20.72 16.8947C19.8676 18.4135 18.6332 19.6832 17.1392 20.5783C15.6452 21.4734 13.9434 21.9628 12.2021 21.9981C10.4608 22.0333 8.74055 21.6132 7.21155 20.7793C5.68256 19.9453 4.39787 18.7265 3.48467 17.2435C2.57146 15.7605 2.06141 14.0647 2.005 12.324L2 12L2.005 11.676C2.061 9.94901 2.56355 8.26598 3.46364 6.79101C4.36373 5.31604 5.63065 4.09947 7.14089 3.2599C8.65113 2.42033 10.3531 1.98641 12.081 2.00045C13.8089 2.01449 15.5036 2.47601 17 3.34001ZM9 8.00001C8.73478 8.00001 8.48043 8.10537 8.29289 8.29291C8.10536 8.48044 8 8.7348 8 9.00001V15L8.007 15.117L8.036 15.266L8.071 15.371L8.125 15.484L8.196 15.595C8.226 15.635 8.257 15.672 8.293 15.707L8.383 15.787L8.479 15.854L8.577 15.906L8.687 15.95L8.799 15.98L8.925 15.997L15 16L15.117 15.993C15.3603 15.9644 15.5845 15.8474 15.7473 15.6644C15.91 15.4814 16 15.2449 16 15L15.993 14.883C15.9643 14.6398 15.8474 14.4155 15.6644 14.2527C15.4813 14.09 15.2449 14 15 14H11.414L15.707 9.70701L15.79 9.61301C15.9454 9.41202 16.0185 9.15941 15.9944 8.90649C15.9703 8.65357 15.8508 8.4193 15.6603 8.25126C15.4697 8.08323 15.2223 7.99403 14.9684 8.00179C14.7144 8.00954 14.473 8.11367 14.293 8.29302L10 12.584V9.00001L9.993 8.88302C9.96434 8.63976 9.84741 8.41549 9.66437 8.25273C9.48134 8.08997 9.24493 8.00005 9 8.00001Z" fill="currentColor"/>
</svg>
