<svg width="24" height="24" viewBox="0 0 24 24" fill="none" xmlns="http://www.w3.org/2000/svg">
<path d="M17 3.34001C18.5083 4.21087 19.7629 5.46054 20.6398 6.96531C21.5167 8.47009 21.9854 10.1778 21.9994 11.9194C22.0135 13.6609 21.5725 15.376 20.72 16.8947C19.8676 18.4135 18.6332 19.6832 17.1392 20.5783C15.6452 21.4734 13.9434 21.9628 12.2021 21.9981C10.4608 22.0333 8.74055 21.6132 7.21155 20.7793C5.68256 19.9453 4.39787 18.7265 3.48467 17.2435C2.57146 15.7605 2.06141 14.0647 2.005 12.324L2 12L2.005 11.676C2.061 9.94901 2.56355 8.26598 3.46364 6.79101C4.36373 5.31604 5.63065 4.09947 7.14089 3.2599C8.65113 2.42033 10.3531 1.98641 12.081 2.00045C13.8089 2.01449 15.5036 2.47601 17 3.34001ZM12.02 7.00001L11.857 7.01002L11.771 7.02601L11.629 7.07101L11.516 7.12501L11.446 7.16802L11.351 7.23901L11.293 7.29302L7.293 11.293L7.21 11.387C7.05459 11.588 6.98151 11.8406 7.0056 12.0935C7.02969 12.3465 7.14916 12.5807 7.33972 12.7488C7.53029 12.9168 7.77767 13.006 8.03162 12.9982C8.28557 12.9905 8.52704 12.8864 8.707 12.707L11 10.414V16L11.007 16.117C11.0371 16.3701 11.1627 16.6022 11.3582 16.7657C11.5536 16.9293 11.8042 17.0121 12.0586 16.9972C12.313 16.9822 12.5522 16.8707 12.7272 16.6854C12.9021 16.5 12.9997 16.2549 13 16V10.415L15.293 12.707L15.387 12.79C15.588 12.9454 15.8406 13.0185 16.0935 12.9944C16.3464 12.9703 16.5807 12.8509 16.7488 12.6603C16.9168 12.4697 17.006 12.2223 16.9982 11.9684C16.9905 11.7144 16.8863 11.473 16.707 11.293L12.707 7.29302L12.625 7.22001L12.536 7.15601L12.423 7.09401L12.342 7.06001L12.229 7.02601L12.117 7.00601L12.019 7.00001H12.02Z" fill="currentColor"/>
</svg>
