<svg width="24" height="24" viewBox="0 0 24 24" fill="none" xmlns="http://www.w3.org/2000/svg">
<path d="M17 3.34001C18.5083 4.21087 19.7629 5.46054 20.6398 6.96531C21.5167 8.47009 21.9854 10.1778 21.9994 11.9194C22.0135 13.6609 21.5725 15.376 20.72 16.8947C19.8676 18.4135 18.6332 19.6832 17.1392 20.5783C15.6452 21.4734 13.9434 21.9628 12.2021 21.9981C10.4608 22.0333 8.74055 21.6132 7.21155 20.7793C5.68256 19.9453 4.39787 18.7265 3.48467 17.2435C2.57146 15.7605 2.06141 14.0647 2.005 12.324L2 12L2.005 11.676C2.061 9.94901 2.56355 8.26598 3.46364 6.79101C4.36373 5.31604 5.63065 4.09947 7.14089 3.2599C8.65113 2.42033 10.3531 1.98641 12.081 2.00045C13.8089 2.01449 15.5036 2.47601 17 3.34001ZM12 10C11.5221 9.99999 11.0599 10.1711 10.6973 10.4824C10.3346 10.7937 10.0954 11.2246 10.023 11.697L10.005 11.851L10 12L10.005 12.15C10.0342 12.5381 10.1759 12.9092 10.4129 13.2178C10.6499 13.5265 10.9717 13.7594 11.339 13.8879C11.7064 14.0163 12.1032 14.0349 12.4809 13.9412C12.8586 13.8475 13.2007 13.6457 13.4654 13.3604C13.7301 13.0751 13.9059 12.7189 13.9711 12.3352C14.0363 11.9516 13.9882 11.5572 13.8326 11.2005C13.6771 10.8438 13.4208 10.5403 13.0953 10.327C12.7698 10.1138 12.3891 10.0001 12 10Z" fill="currentColor"/>
</svg>
