<svg width="24" height="24" viewBox="0 0 24 24" fill="none" xmlns="http://www.w3.org/2000/svg">
<path d="M12 2C17.523 2 22 6.477 22 12C22 17.523 17.523 22 12 22C6.477 22 2 17.523 2 12C2 6.477 6.477 2 12 2ZM13 7H11L10.85 7.005C10.3738 7.04078 9.92617 7.24576 9.58797 7.58286C9.24977 7.91996 9.04334 8.36695 9.006 8.843L9 9V15L9.005 15.15C9.04078 15.6262 9.24576 16.0738 9.58286 16.412C9.91996 16.7502 10.3669 16.9567 10.843 16.994L11 17H13L13.15 16.995C13.6262 16.9592 14.0738 16.7542 14.412 16.4171C14.7502 16.08 14.9567 15.6331 14.994 15.157L15 15V13L14.995 12.85C14.9592 12.3738 14.7542 11.9262 14.4171 11.588C14.08 11.2498 13.6331 11.0433 13.157 11.006L13 11H11V9H13L13.007 9.117C13.0371 9.3701 13.1627 9.60215 13.3582 9.76574C13.5536 9.92933 13.8042 10.0121 14.0586 9.99717C14.313 9.98224 14.5522 9.8707 14.7272 9.68537C14.9021 9.50003 14.9997 9.25488 15 9C15.0002 8.49542 14.8096 8.00943 14.4665 7.63945C14.1234 7.26947 13.6532 7.04284 13.15 7.005L13 7ZM13 13V15H11V13H13Z" fill="currentColor"/>
</svg>
