<svg width="24" height="24" viewBox="0 0 24 24" fill="none" xmlns="http://www.w3.org/2000/svg">
<path d="M9 15L12 12L15 15M9 11L12 8L15 11M11.9999 21C14.3751 20.965 16.6402 19.9924 18.3013 18.2943C19.9623 16.5961 20.8847 14.3101 20.8672 11.9347C20.8497 9.55932 19.8938 7.28715 18.2079 5.61363C16.522 3.94012 14.2429 3.00098 11.8674 3.00098C9.49196 3.00098 7.21282 3.94012 5.52694 5.61363C3.84105 7.28715 2.88516 9.55932 2.86768 11.9347C2.85019 14.3101 3.77253 16.5961 5.43359 18.2943C7.09465 19.9924 9.35972 20.965 11.7349 21H11.9999Z" stroke="currentColor" stroke-width="1.5" stroke-linecap="round" stroke-linejoin="round"/>
</svg>
