<svg width="24" height="24" viewBox="0 0 24 24" fill="none" xmlns="http://www.w3.org/2000/svg">
<path d="M12 2C17.523 2 22 6.477 22 12C22 14.6522 20.9464 17.1957 19.0711 19.0711C17.1957 20.9464 14.6522 22 12 22C9.34784 22 6.8043 20.9464 4.92893 19.0711C3.05357 17.1957 2 14.6522 2 12C2 6.477 6.477 2 12 2ZM14 7C13.2649 6.99988 12.5553 7.26968 12.006 7.75819C11.4566 8.24669 11.1058 8.91989 11.02 9.65L11.005 9.824L11 10L11.005 10.176C11.024 10.495 11.092 10.8 11.202 11.084L11.292 11.293L7.792 14.793L7.71 14.887C7.57393 15.0624 7.50008 15.278 7.50008 15.5C7.50008 15.722 7.57393 15.9376 7.71 16.113L7.793 16.207L9.293 17.707L9.387 17.79C9.56237 17.9261 9.77803 17.9999 10 17.9999C10.222 17.9999 10.4376 17.9261 10.613 17.79L10.707 17.707L10.79 17.613C10.9261 17.4376 10.9999 17.222 10.9999 17C10.9999 16.778 10.9261 16.5624 10.79 16.387L10.707 16.293L9.915 15.5L10.5 14.915L11.293 15.707L11.387 15.79C11.5794 15.9391 11.8196 16.013 12.0626 15.9976C12.3056 15.9823 12.5346 15.8789 12.7067 15.7067C12.8789 15.5346 12.9823 15.3056 12.9976 15.0626C13.013 14.8196 12.9391 14.5794 12.79 14.387L12.707 14.293L11.915 13.5L12.707 12.708C13.1133 12.9017 13.558 13.0015 14.0081 13C14.4582 12.9985 14.9022 12.8957 15.3072 12.6993C15.7122 12.5029 16.0678 12.2178 16.3476 11.8653C16.6275 11.5128 16.8244 11.1018 16.9239 10.6628C17.0233 10.2238 17.0227 9.76805 16.9221 9.32933C16.8215 8.89061 16.6234 8.48016 16.3426 8.12839C16.0618 7.77661 15.7054 7.49254 15.2999 7.2972C14.8944 7.10187 14.4501 7.0003 14 7ZM14 9C14.2652 9 14.5196 9.10536 14.7071 9.29289C14.8946 9.48043 15 9.73478 15 10C15 10.2652 14.8946 10.5196 14.7071 10.7071C14.5196 10.8946 14.2652 11 14 11C13.7348 11 13.4804 10.8946 13.2929 10.7071C13.1054 10.5196 13 10.2652 13 10C13 9.73478 13.1054 9.48043 13.2929 9.29289C13.4804 9.10536 13.7348 9 14 9Z" fill="currentColor"/>
</svg>
