<svg width="24" height="24" viewBox="0 0 24 24" fill="none" xmlns="http://www.w3.org/2000/svg">
<path d="M2 17H4M4 17C4 17.5304 4.21071 18.0391 4.58579 18.4142C4.96086 18.7893 5.46957 19 6 19C6.53043 19 7.03914 18.7893 7.41421 18.4142C7.78929 18.0391 8 17.5304 8 17C8 16.4696 7.78929 15.9609 7.41421 15.5858C7.03914 15.2107 6.53043 15 6 15C5.46957 15 4.96086 15.2107 4.58579 15.5858C4.21071 15.9609 4 16.4696 4 17ZM20 17H22M20 17C20 17.5304 19.7893 18.0391 19.4142 18.4142C19.0391 18.7893 18.5304 19 18 19C17.4696 19 16.9609 18.7893 16.5858 18.4142C16.2107 18.0391 16 17.5304 16 17C16 16.4696 16.2107 15.9609 16.5858 15.5858C16.9609 15.2107 17.4696 15 18 15C18.5304 15 19.0391 15.2107 19.4142 15.5858C19.7893 15.9609 20 16.4696 20 17ZM6 11H18M12 11V5" stroke="currentColor" stroke-width="1.5" stroke-linecap="round" stroke-linejoin="round"/>
</svg>
