<svg width="24" height="24" viewBox="0 0 24 24" fill="none" xmlns="http://www.w3.org/2000/svg">
<path d="M6.5 12C7.47968 11.9999 8.43779 12.2877 9.25533 12.8275C10.0729 13.3673 10.7138 14.1354 11.0986 15.0364C11.4833 15.9373 11.5949 16.9315 11.4195 17.8953C11.2441 18.8592 10.7893 19.7502 10.1118 20.4579C9.43431 21.1655 8.56384 21.6585 7.60853 21.8756C6.65322 22.0928 5.65517 22.0245 4.73834 21.6793C3.8215 21.334 3.02629 20.7271 2.45146 19.9338C1.87663 19.1405 1.54752 18.1958 1.505 17.217L1.5 17L1.505 16.783C1.56092 15.4958 2.11161 14.2798 3.04222 13.3887C3.97284 12.4975 5.21154 12.0001 6.5 12Z" fill="currentColor"/>
<path d="M17.5 12C18.4797 11.9999 19.4378 12.2877 20.2553 12.8275C21.0729 13.3673 21.7138 14.1354 22.0986 15.0364C22.4833 15.9373 22.5949 16.9315 22.4195 17.8953C22.2441 18.8592 21.7893 19.7502 21.1118 20.4579C20.4343 21.1655 19.5638 21.6585 18.6085 21.8756C17.6532 22.0928 16.6552 22.0245 15.7383 21.6793C14.8215 21.334 14.0263 20.7271 13.4515 19.9338C12.8766 19.1405 12.5475 18.1958 12.505 17.217L12.5 17L12.505 16.783C12.5609 15.4958 13.1116 14.2798 14.0422 13.3887C14.9728 12.4975 16.2115 12.0001 17.5 12Z" fill="currentColor"/>
<path d="M12 2C12.9797 1.99994 13.9378 2.28769 14.7553 2.8275C15.5729 3.36731 16.2138 4.1354 16.5986 5.03636C16.9833 5.93733 17.0949 6.93147 16.9195 7.89531C16.7441 8.85916 16.2893 9.75023 15.6118 10.4579C14.9343 11.1655 14.0638 11.6585 13.1085 11.8756C12.1532 12.0928 11.1552 12.0245 10.2383 11.6793C9.3215 11.334 8.52629 10.7271 7.95146 9.93376C7.37663 9.14045 7.04752 8.19575 7.005 7.217L7 7L7.005 6.783C7.06092 5.49575 7.61161 4.27978 8.54222 3.38866C9.47284 2.49754 10.7115 2.00007 12 2Z" fill="currentColor"/>
</svg>
