<svg width="24" height="24" viewBox="0 0 24 24" fill="none" xmlns="http://www.w3.org/2000/svg">
<path d="M17 3.34001C18.5083 4.21087 19.7629 5.46054 20.6398 6.96531C21.5167 8.47009 21.9854 10.1778 21.9994 11.9194C22.0135 13.6609 21.5725 15.376 20.72 16.8947C19.8676 18.4135 18.6332 19.6832 17.1392 20.5783C15.6452 21.4734 13.9434 21.9628 12.2021 21.9981C10.4608 22.0333 8.74055 21.6132 7.21155 20.7793C5.68256 19.9453 4.39787 18.7265 3.48467 17.2435C2.57146 15.7605 2.06141 14.0647 2.005 12.324L2 12L2.005 11.676C2.061 9.94901 2.56355 8.26598 3.46364 6.79101C4.36373 5.31604 5.63065 4.09947 7.14089 3.2599C8.65113 2.42033 10.3531 1.98641 12.081 2.00045C13.8089 2.01449 15.5036 2.47601 17 3.34001ZM15 8.00001H9L8.883 8.00701C8.63975 8.03567 8.41547 8.15261 8.25272 8.33564C8.08996 8.51868 8.00003 8.75508 8 9.00001L8.007 9.11701C8.03566 9.36027 8.15259 9.58454 8.33563 9.7473C8.51866 9.91006 8.75507 9.99998 9 10H12.584L8.293 14.293L8.21 14.387C8.05459 14.588 7.98151 14.8406 8.0056 15.0935C8.02969 15.3465 8.14916 15.5807 8.33972 15.7488C8.53029 15.9168 8.77767 16.006 9.03162 15.9982C9.28557 15.9905 9.52704 15.8864 9.707 15.707L14 11.414V15L14.007 15.117C14.0371 15.3701 14.1627 15.6022 14.3582 15.7657C14.5536 15.9293 14.8042 16.0121 15.0586 15.9972C15.313 15.9822 15.5522 15.8707 15.7272 15.6854C15.9021 15.5 15.9997 15.2549 16 15V9.00001L15.993 8.88302L15.964 8.73401L15.929 8.62901L15.875 8.51601L15.804 8.40501C15.7745 8.36536 15.742 8.32792 15.707 8.29302L15.617 8.21302L15.521 8.14601L15.423 8.09401L15.313 8.05001L15.201 8.02002L15.075 8.00302L15 8.00001Z" fill="currentColor"/>
</svg>
