<svg width="24" height="24" viewBox="0 0 24 24" fill="none" xmlns="http://www.w3.org/2000/svg">
<path d="M9.18284 6.11697C7.88885 5.8571 6.54528 6.03115 5.36021 6.61215C4.17514 7.19315 3.21471 8.14869 2.62766 9.33078C2.04062 10.5129 1.85971 11.8555 2.11297 13.1508C2.36622 14.4461 3.03951 15.6218 4.02854 16.4957C5.01758 17.3697 6.26718 17.8931 7.58381 17.985C8.90044 18.0768 10.2106 17.732 11.3114 17.0039C12.4123 16.2758 13.2423 15.2051 13.673 13.9575C14.1037 12.7099 14.111 11.3551 13.6938 10.103M14.8129 17.883C16.1082 18.1442 17.4536 17.9704 18.6401 17.3887C19.8266 16.807 20.7879 15.8498 21.3747 14.6659C21.9615 13.4819 22.1411 12.1373 21.8855 10.8408C21.6299 9.54434 20.9534 8.3685 19.9611 7.49583C18.9689 6.62317 17.7162 6.10249 16.3977 6.01463C15.0792 5.92676 13.7686 6.27663 12.6693 7.00991C11.57 7.74319 10.7435 8.81888 10.3181 10.07C9.89276 11.3211 9.89232 12.6776 10.3169 13.929" stroke="currentColor" stroke-width="1.5" stroke-linecap="round" stroke-linejoin="round"/>
</svg>
