<svg width="24" height="24" viewBox="0 0 24 24" fill="none" xmlns="http://www.w3.org/2000/svg">
<path d="M17 3.34001C18.5083 4.21087 19.7629 5.46054 20.6398 6.96531C21.5167 8.47009 21.9854 10.1778 21.9994 11.9194C22.0135 13.6609 21.5725 15.376 20.72 16.8947C19.8676 18.4135 18.6332 19.6832 17.1392 20.5783C15.6452 21.4734 13.9434 21.9628 12.2021 21.9981C10.4608 22.0333 8.74055 21.6132 7.21155 20.7793C5.68256 19.9453 4.39787 18.7265 3.48467 17.2435C2.57146 15.7605 2.06141 14.0647 2.005 12.324L2 12L2.005 11.676C2.061 9.94901 2.56355 8.26598 3.46364 6.79101C4.36373 5.31604 5.63065 4.09947 7.14089 3.2599C8.65113 2.42033 10.3531 1.98641 12.081 2.00045C13.8089 2.01449 15.5036 2.47601 17 3.34001ZM15 8.00001H9L8.883 8.00701L8.734 8.03602L8.629 8.07101L8.516 8.12501L8.405 8.19601C8.36534 8.22556 8.32791 8.25798 8.293 8.29302L8.213 8.38302L8.146 8.47901L8.094 8.57701L8.05 8.68702L8.02 8.79901L8.003 8.92501L8 15L8.007 15.117C8.03566 15.3603 8.15259 15.5845 8.33563 15.7473C8.51866 15.9101 8.75507 16 9 16L9.117 15.993C9.36025 15.9644 9.58453 15.8474 9.74728 15.6644C9.91004 15.4814 9.99997 15.2449 10 15V11.415L14.293 15.707L14.387 15.79C14.588 15.9454 14.8406 16.0185 15.0935 15.9944C15.3464 15.9703 15.5807 15.8509 15.7488 15.6603C15.9168 15.4697 16.006 15.2223 15.9982 14.9684C15.9905 14.7144 15.8863 14.473 15.707 14.293L11.415 10H15L15.117 9.99301C15.3701 9.96291 15.6021 9.8373 15.7657 9.64185C15.9293 9.44639 16.0121 9.19585 15.9972 8.94141C15.9822 8.68697 15.8707 8.44783 15.6854 8.27286C15.5 8.09789 15.2549 8.0003 15 8.00001Z" fill="currentColor"/>
</svg>
