<svg width="24" height="24" viewBox="0 0 24 24" fill="none" xmlns="http://www.w3.org/2000/svg">
<path d="M9 15L15 9M8.56014 3.68994C7.46822 4.14193 6.47601 4.80454 5.64014 5.63994M3.69 8.56006C3.23656 9.65036 3.0021 10.8192 3 12.0001M3.68994 15.4399C4.14193 16.5319 4.80454 17.5241 5.63994 18.3599M8.56006 20.3101C9.65036 20.7635 10.8192 20.998 12.0001 21.0001M15.4399 20.31C16.5319 19.858 17.5241 19.1954 18.3599 18.36M20.3101 15.44C20.7635 14.3497 20.998 13.1808 21.0001 12M20.3099 8.56002C19.8579 7.4681 19.1953 6.47588 18.3599 5.64001M15.44 3.69C14.3497 3.23656 13.1808 3.0021 12 3M8.5 9.5C8.5 9.76522 8.60536 10.0196 8.79289 10.2071C8.98043 10.3946 9.23478 10.5 9.5 10.5C9.76522 10.5 10.0196 10.3946 10.2071 10.2071C10.3946 10.0196 10.5 9.76522 10.5 9.5C10.5 9.23478 10.3946 8.98043 10.2071 8.79289C10.0196 8.60536 9.76522 8.5 9.5 8.5C9.23478 8.5 8.98043 8.60536 8.79289 8.79289C8.60536 8.98043 8.5 9.23478 8.5 9.5ZM13.5 14.5C13.5 14.7652 13.6054 15.0196 13.7929 15.2071C13.9804 15.3946 14.2348 15.5 14.5 15.5C14.7652 15.5 15.0196 15.3946 15.2071 15.2071C15.3946 15.0196 15.5 14.7652 15.5 14.5C15.5 14.2348 15.3946 13.9804 15.2071 13.7929C15.0196 13.6054 14.7652 13.5 14.5 13.5C14.2348 13.5 13.9804 13.6054 13.7929 13.7929C13.6054 13.9804 13.5 14.2348 13.5 14.5Z" stroke="currentColor" stroke-width="1.5" stroke-linecap="round" stroke-linejoin="round"/>
</svg>
