<svg width="24" height="24" viewBox="0 0 24 24" fill="none" xmlns="http://www.w3.org/2000/svg">
<path d="M12.0001 2C14.6256 1.99793 17.1465 3.02846 19.0187 4.86911C20.8909 6.70975 21.9642 9.21285 22.0067 11.838C22.0492 14.4631 21.0577 16.9997 19.2461 18.9C17.4345 20.8003 14.9483 21.912 12.3241 21.995L12.0001 22L11.6761 21.995C9.05194 21.912 6.56568 20.8003 4.7541 18.9C2.94252 16.9997 1.95096 14.4631 1.9935 11.838C2.03604 9.21285 3.10926 6.70975 4.98146 4.86911C6.85365 3.02846 9.37463 1.99793 12.0001 2ZM12.7071 7.293C12.5196 7.10553 12.2653 7.00022 12.0001 7.00022C11.7349 7.00022 11.4806 7.10553 11.2931 7.293L7.2931 11.293C7.26358 11.3227 7.23587 11.354 7.2101 11.387L7.1461 11.479L7.0941 11.577L7.0501 11.687L7.0201 11.799L7.0031 11.925L7.0001 12L7.0041 12.09L7.0111 12.148L7.0361 12.266L7.0711 12.371L7.1251 12.484L7.1681 12.554L7.2391 12.649L7.2931 12.707L11.2931 16.707L11.3871 16.79C11.5881 16.9454 11.8407 17.0185 12.0936 16.9944C12.3465 16.9703 12.5808 16.8508 12.7489 16.6603C12.9169 16.4697 13.0061 16.2223 12.9983 15.9684C12.9906 15.7144 12.8864 15.473 12.7071 15.293L10.4151 13H16.0001L16.1171 12.993C16.3702 12.9629 16.6022 12.8373 16.7658 12.6418C16.9294 12.4464 17.0122 12.1958 16.9973 11.9414C16.9823 11.687 16.8708 11.4478 16.6855 11.2729C16.5001 11.0979 16.255 11.0003 16.0001 11H10.4141L12.7071 8.707L12.7901 8.613C12.9394 8.4206 13.0133 8.18035 12.998 7.93732C12.9827 7.6943 12.8793 7.4652 12.7071 7.293Z" fill="currentColor"/>
</svg>
