<svg width="24" height="24" viewBox="0 0 24 24" fill="none" xmlns="http://www.w3.org/2000/svg">
<path d="M17 3.34001C18.5083 4.21087 19.7629 5.46054 20.6398 6.96531C21.5167 8.47009 21.9854 10.1778 21.9994 11.9194C22.0135 13.6609 21.5725 15.376 20.72 16.8947C19.8676 18.4135 18.6332 19.6832 17.1392 20.5783C15.6452 21.4734 13.9434 21.9628 12.2021 21.9981C10.4608 22.0333 8.74055 21.6132 7.21155 20.7793C5.68256 19.9453 4.39787 18.7265 3.48467 17.2435C2.57146 15.7605 2.06141 14.0647 2.005 12.324L2 12L2.005 11.676C2.061 9.94901 2.56355 8.26598 3.46364 6.79101C4.36373 5.31604 5.63065 4.09947 7.14089 3.2599C8.65113 2.42033 10.3531 1.98641 12.081 2.00045C13.8089 2.01449 15.5036 2.47601 17 3.34001ZM10.511 9.14002C10.3015 9.01529 10.0536 8.97142 9.81401 9.01664C9.57441 9.06187 9.35959 9.19308 9.20995 9.3856C9.06031 9.57811 8.98617 9.81867 9.00146 10.062C9.01675 10.3054 9.12043 10.5347 9.293 10.707L10.585 12L9.293 13.293L9.21 13.387C9.05459 13.588 8.98151 13.8406 9.0056 14.0935C9.02969 14.3465 9.14916 14.5807 9.33972 14.7488C9.53029 14.9168 9.77767 15.006 10.0316 14.9982C10.2856 14.9905 10.527 14.8864 10.707 14.707L12 13.415L13.293 14.707L13.387 14.79C13.588 14.9454 13.8406 15.0185 14.0935 14.9944C14.3464 14.9703 14.5807 14.8509 14.7488 14.6603C14.9168 14.4697 15.006 14.2223 14.9982 13.9684C14.9905 13.7144 14.8863 13.473 14.707 13.293L13.415 12L14.707 10.707L14.79 10.613C14.9454 10.412 15.0185 10.1594 14.9944 9.90649C14.9703 9.65357 14.8508 9.4193 14.6603 9.25126C14.4697 9.08323 14.2223 8.99403 13.9684 9.00179C13.7144 9.00954 13.473 9.11367 13.293 9.29302L12 10.585L10.707 9.29302L10.613 9.21001L10.511 9.14002Z" fill="currentColor"/>
</svg>
