<svg width="24" height="24" viewBox="0 0 24 24" fill="none" xmlns="http://www.w3.org/2000/svg">
<path d="M12 2L12.324 2.005C14.9467 2.09002 17.4309 3.20254 19.2408 5.10261C21.0507 7.00268 22.0412 9.53801 21.9987 12.1618C21.9562 14.7855 20.884 17.2874 19.0136 19.1279C17.1431 20.9683 14.6241 21.9998 12 21.9998C9.3759 21.9998 6.85694 20.9683 4.98645 19.1279C3.11596 17.2874 2.04383 14.7855 2.00131 12.1618C1.9588 9.53801 2.9493 7.00268 4.75918 5.10261C6.56906 3.20254 9.05328 2.09002 11.676 2.005L12 2ZM12.613 7.21C12.412 7.05459 12.1594 6.98151 11.9065 7.0056C11.6536 7.02969 11.4193 7.14916 11.2513 7.33972C11.0832 7.53029 10.994 7.77767 11.0018 8.03162C11.0095 8.28557 11.1137 8.52704 11.293 8.707L13.584 11H8L7.883 11.007C7.62991 11.0371 7.39786 11.1627 7.23427 11.3582C7.07068 11.5536 6.98789 11.8042 7.00283 12.0586C7.01777 12.313 7.1293 12.5522 7.31463 12.7272C7.49997 12.9021 7.74512 12.9997 8 13H13.584L11.293 15.293L11.21 15.387C11.0546 15.588 10.9815 15.8406 11.0056 16.0935C11.0297 16.3464 11.1492 16.5807 11.3397 16.7488C11.5303 16.9168 11.7777 17.006 12.0316 16.9982C12.2856 16.9905 12.527 16.8863 12.707 16.707L16.707 12.707L16.78 12.625L16.844 12.536L16.906 12.423L16.95 12.313L16.98 12.201L16.997 12.075L17 12L16.993 11.882L16.964 11.734L16.929 11.629L16.875 11.516L16.804 11.405C16.7745 11.3653 16.742 11.3279 16.707 11.293L12.707 7.293L12.613 7.21Z" fill="currentColor"/>
</svg>
