<svg width="24" height="24" viewBox="0 0 24 24" fill="none" xmlns="http://www.w3.org/2000/svg">
<path d="M17 3.34001C18.5083 4.21087 19.7629 5.46054 20.6398 6.96531C21.5167 8.47009 21.9854 10.1778 21.9994 11.9194C22.0135 13.6609 21.5725 15.376 20.72 16.8947C19.8676 18.4135 18.6332 19.6832 17.1392 20.5783C15.6452 21.4734 13.9434 21.9628 12.2021 21.9981C10.4608 22.0333 8.74055 21.6132 7.21155 20.7793C5.68256 19.9453 4.39787 18.7265 3.48467 17.2435C2.57146 15.7605 2.06141 14.0647 2.005 12.324L2 12L2.005 11.676C2.061 9.94901 2.56355 8.26598 3.46364 6.79101C4.36373 5.31604 5.63065 4.09947 7.14089 3.2599C8.65113 2.42033 10.3531 1.98641 12.081 2.00045C13.8089 2.01449 15.5036 2.47601 17 3.34001ZM15 8.00001L14.883 8.00701C14.6397 8.03567 14.4155 8.15261 14.2527 8.33564C14.09 8.51868 14 8.75508 14 9.00001V12.585L9.707 8.29302L9.613 8.21001C9.41201 8.0546 9.1594 7.98152 8.90647 8.00562C8.65355 8.02971 8.41928 8.14917 8.25125 8.33974C8.08321 8.5303 7.99402 8.77768 8.00177 9.03163C8.00953 9.28558 8.11365 9.52706 8.293 9.70701L12.585 14H9L8.883 14.007C8.6299 14.0371 8.39785 14.1627 8.23426 14.3582C8.07067 14.5536 7.98789 14.8042 8.00283 15.0586C8.01776 15.3131 8.1293 15.5522 8.31463 15.7272C8.49997 15.9021 8.74512 15.9997 9 16L15.034 16.001C15.0966 15.9985 15.1589 15.9902 15.22 15.976L15.273 15.962L15.339 15.942L15.469 15.883L15.562 15.828C15.6983 15.7375 15.8098 15.6144 15.8863 15.4697C15.9628 15.3251 16.0019 15.1636 16 15V9.00001L15.993 8.88302C15.9643 8.63976 15.8474 8.41549 15.6644 8.25273C15.4813 8.08997 15.2449 8.00005 15 8.00001Z" fill="currentColor"/>
</svg>
