<svg width="24" height="24" viewBox="0 0 24 24" fill="none" xmlns="http://www.w3.org/2000/svg">
<path fill-rule="evenodd" clip-rule="evenodd" d="M12 2.25C12.4142 2.25 12.75 2.58579 12.75 3V3.01C12.75 3.42421 12.4142 3.76 12 3.76C11.5858 3.76 11.25 3.42421 11.25 3.01V3C11.25 2.58579 11.5858 2.25 12 2.25ZM7.5 3.45996C7.91421 3.45996 8.25 3.79575 8.25 4.20996V4.21996C8.25 4.63417 7.91421 4.96996 7.5 4.96996C7.08579 4.96996 6.75 4.63417 6.75 4.21996V4.20996C6.75 3.79575 7.08579 3.45996 7.5 3.45996ZM16.5 3.45996C16.9142 3.45996 17.25 3.79575 17.25 4.20996V4.21996C17.25 4.63417 16.9142 4.96996 16.5 4.96996C16.0858 4.96996 15.75 4.63417 15.75 4.21996V4.20996C15.75 3.79575 16.0858 3.45996 16.5 3.45996ZM4.20996 6.75C4.62417 6.75 4.95996 7.08579 4.95996 7.5V7.51C4.95996 7.92421 4.62417 8.26 4.20996 8.26C3.79575 8.26 3.45996 7.92421 3.45996 7.51V7.5C3.45996 7.08579 3.79575 6.75 4.20996 6.75ZM19.79 6.75C20.2043 6.75 20.54 7.08579 20.54 7.5V7.51C20.54 7.92421 20.2043 8.26 19.79 8.26C19.3758 8.26 19.04 7.92421 19.04 7.51V7.5C19.04 7.08579 19.3758 6.75 19.79 6.75ZM3 11.25C3.41421 11.25 3.75 11.5858 3.75 12V12.01C3.75 12.4242 3.41421 12.76 3 12.76C2.58579 12.76 2.25 12.4242 2.25 12.01V12C2.25 11.5858 2.58579 11.25 3 11.25ZM21 11.25C21.4142 11.25 21.75 11.5858 21.75 12V12.01C21.75 12.4242 21.4142 12.76 21 12.76C20.5858 12.76 20.25 12.4242 20.25 12.01V12C20.25 11.5858 20.5858 11.25 21 11.25ZM4.20996 15.75C4.62417 15.75 4.95996 16.0858 4.95996 16.5V16.51C4.95996 16.9242 4.62417 17.26 4.20996 17.26C3.79575 17.26 3.45996 16.9242 3.45996 16.51V16.5C3.45996 16.0858 3.79575 15.75 4.20996 15.75ZM19.79 15.75C20.2043 15.75 20.54 16.0858 20.54 16.5V16.51C20.54 16.9242 20.2043 17.26 19.79 17.26C19.3758 17.26 19.04 16.9242 19.04 16.51V16.5C19.04 16.0858 19.3758 15.75 19.79 15.75ZM7.5 19.04C7.91421 19.04 8.25 19.3758 8.25 19.79V19.8C8.25 20.2143 7.91421 20.55 7.5 20.55C7.08579 20.55 6.75 20.2143 6.75 19.8V19.79C6.75 19.3758 7.08579 19.04 7.5 19.04ZM16.5 19.04C16.9142 19.04 17.25 19.3758 17.25 19.79V19.8C17.25 20.2143 16.9142 20.55 16.5 20.55C16.0858 20.55 15.75 20.2143 15.75 19.8V19.79C15.75 19.3758 16.0858 19.04 16.5 19.04ZM12 20.25C12.4142 20.25 12.75 20.5858 12.75 21V21.01C12.75 21.4242 12.4142 21.76 12 21.76C11.5858 21.76 11.25 21.4242 11.25 21.01V21C11.25 20.5858 11.5858 20.25 12 20.25Z" fill="currentColor"/>
</svg>
