<svg width="24" height="24" viewBox="0 0 24 24" fill="none" xmlns="http://www.w3.org/2000/svg">
<path d="M3 9.5C3 11.2239 3.68482 12.8772 4.90381 14.0962C6.12279 15.3152 7.77609 16 9.5 16C11.2239 16 12.8772 15.3152 14.0962 14.0962C15.3152 12.8772 16 11.2239 16 9.5C16 7.77609 15.3152 6.12279 14.0962 4.90381C12.8772 3.68482 11.2239 3 9.5 3C7.77609 3 6.12279 3.68482 4.90381 4.90381C3.68482 6.12279 3 7.77609 3 9.5Z" stroke="currentColor" stroke-width="1.5" stroke-linecap="round" stroke-linejoin="round"/>
<path d="M10 12C10 11.4696 10.2107 10.9609 10.5858 10.5858C10.9609 10.2107 11.4696 10 12 10H19C19.5304 10 20.0391 10.2107 20.4142 10.5858C20.7893 10.9609 21 11.4696 21 12V19C21 19.5304 20.7893 20.0391 20.4142 20.4142C20.0391 20.7893 19.5304 21 19 21H12C11.4696 21 10.9609 20.7893 10.5858 20.4142C10.2107 20.0391 10 19.5304 10 19V12Z" stroke="currentColor" stroke-width="1.5" stroke-linecap="round" stroke-linejoin="round"/>
</svg>
