<svg width="24" height="24" viewBox="0 0 24 24" fill="none" xmlns="http://www.w3.org/2000/svg">
<path d="M12 2C17.523 2 22 6.477 22 12C22 17.523 17.523 22 12 22C6.477 22 2 17.523 2 12C2 6.477 6.477 2 12 2ZM14 7H10C9.75507 7.00003 9.51866 7.08996 9.33563 7.25272C9.15259 7.41547 9.03566 7.63975 9.007 7.883L9 8V12C9.00003 12.2449 9.08996 12.4813 9.25272 12.6644C9.41547 12.8474 9.63975 12.9643 9.883 12.993L10 13H13V15H11L10.993 14.883C10.9629 14.6299 10.8373 14.3979 10.6418 14.2343C10.4464 14.0707 10.1958 13.9879 9.94139 14.0028C9.68695 14.0178 9.44782 14.1293 9.27285 14.3146C9.09788 14.5 9.00028 14.7451 9 15C8.99984 15.5046 9.19041 15.9906 9.5335 16.3605C9.87659 16.7305 10.3468 16.9572 10.85 16.995L11 17H13C13.5046 17.0002 13.9906 16.8096 14.3605 16.4665C14.7305 16.1234 14.9572 15.6532 14.995 15.15L15 15V13C15.0002 12.4954 14.8096 12.0094 14.4665 11.6395C14.1234 11.2695 13.6532 11.0428 13.15 11.005L13 11H11V9H14C14.2449 8.99997 14.4813 8.91004 14.6644 8.74728C14.8474 8.58453 14.9643 8.36025 14.993 8.117L15 8C15 7.75507 14.91 7.51866 14.7473 7.33563C14.5845 7.15259 14.3603 7.03566 14.117 7.007L14 7Z" fill="currentColor"/>
</svg>
