<svg width="24" height="24" viewBox="0 0 24 24" fill="none" xmlns="http://www.w3.org/2000/svg">
<path fill-rule="evenodd" clip-rule="evenodd" d="M11 3.75C10.6685 3.75 10.3505 3.8817 10.1161 4.11612C9.8817 4.35054 9.75 4.66848 9.75 5C9.75 5.33152 9.8817 5.64946 10.1161 5.88388C10.3505 6.1183 10.6685 6.25 11 6.25H13C13.3315 6.25 13.6495 6.1183 13.8839 5.88388C14.1183 5.64946 14.25 5.33152 14.25 5C14.25 4.66848 14.1183 4.35054 13.8839 4.11612C13.6495 3.8817 13.3315 3.75 13 3.75H11ZM9.05546 3.05546C9.57118 2.53973 10.2707 2.25 11 2.25H13C13.7293 2.25 14.4288 2.53973 14.9445 3.05546C15.2793 3.39024 15.5189 3.80245 15.6458 4.25H17C17.7293 4.25 18.4288 4.53973 18.9445 5.05546C19.4603 5.57118 19.75 6.27065 19.75 7V19C19.75 19.7293 19.4603 20.4288 18.9445 20.9445C18.4288 21.4603 17.7293 21.75 17 21.75H7C6.27065 21.75 5.57118 21.4603 5.05546 20.9445C4.53973 20.4288 4.25 19.7293 4.25 19V7C4.25 6.27065 4.53973 5.57118 5.05546 5.05546C5.57118 4.53973 6.27065 4.25 7 4.25H8.35424C8.48113 3.80245 8.72067 3.39024 9.05546 3.05546ZM8.35424 5.75H7C6.66848 5.75 6.35054 5.8817 6.11612 6.11612C5.8817 6.35054 5.75 6.66848 5.75 7V19C5.75 19.3315 5.8817 19.6495 6.11612 19.8839C6.35054 20.1183 6.66848 20.25 7 20.25H17C17.3315 20.25 17.6495 20.1183 17.8839 19.8839C18.1183 19.6495 18.25 19.3315 18.25 19V7C18.25 6.66848 18.1183 6.35054 17.8839 6.11612C17.6495 5.8817 17.3315 5.75 17 5.75H15.6458C15.5189 6.19755 15.2793 6.60976 14.9445 6.94454C14.4288 7.46027 13.7293 7.75 13 7.75H11C10.2707 7.75 9.57118 7.46027 9.05546 6.94454C8.72067 6.60976 8.48113 6.19755 8.35424 5.75ZM8.25 12C8.25 11.5858 8.58579 11.25 9 11.25H15C15.4142 11.25 15.75 11.5858 15.75 12C15.75 12.4142 15.4142 12.75 15 12.75H9C8.58579 12.75 8.25 12.4142 8.25 12ZM8.25 16C8.25 15.5858 8.58579 15.25 9 15.25H15C15.4142 15.25 15.75 15.5858 15.75 16C15.75 16.4142 15.4142 16.75 15 16.75H9C8.58579 16.75 8.25 16.4142 8.25 16Z" fill="currentColor"/>
</svg>
