<svg width="24" height="24" viewBox="0 0 24 24" fill="none" xmlns="http://www.w3.org/2000/svg">
<path d="M5.63289 5.63992C4.78651 6.47364 4.11357 7.46669 3.65289 8.56179C3.19221 9.65688 2.95291 10.8324 2.94878 12.0204C2.94466 13.2084 3.1758 14.3855 3.62886 15.4838C4.08192 16.5821 4.74795 17.5798 5.58852 18.4193C6.42909 19.2589 7.42758 19.9238 8.52638 20.3755C9.62518 20.8273 10.8025 21.0571 11.9906 21.0515C13.1786 21.046 14.3538 20.8053 15.4484 20.3434C16.5429 19.8814 17.5352 19.2073 18.3679 18.3599M20.0419 16.0399C20.8909 14.3494 21.1857 12.4344 20.8844 10.5669C20.5831 8.6993 19.7009 6.97418 18.3633 5.63654C17.0256 4.29889 15.3005 3.41675 13.4329 3.11542C11.5654 2.81408 9.65036 3.10887 7.95989 3.95792M12 7V8M3 3L21 21" stroke="currentColor" stroke-width="1.5" stroke-linecap="round" stroke-linejoin="round"/>
</svg>
