<svg width="24" height="24" viewBox="0 0 24 24" fill="none" xmlns="http://www.w3.org/2000/svg">
<path d="M20.943 13.016C21.1489 11.203 20.799 9.37034 19.9396 7.76084C19.0802 6.15133 17.7519 4.84105 16.1308 4.00371C14.5097 3.16637 12.6724 2.84153 10.8624 3.07225C9.05249 3.30297 7.35543 4.07836 5.99624 5.29561C4.63705 6.51286 3.67993 8.11448 3.25178 9.88811C2.82363 11.6617 2.94468 13.5236 3.59887 15.2269C4.25307 16.9302 5.4095 18.3944 6.91486 19.4254C8.42022 20.4564 10.2034 21.0055 12.028 21M16 22L21 17M21 17V21.5M21 17H16.5M12 7V12L14 14" stroke="currentColor" stroke-width="1.5" stroke-linecap="round" stroke-linejoin="round"/>
</svg>
