<svg width="24" height="24" viewBox="0 0 24 24" fill="none" xmlns="http://www.w3.org/2000/svg">
<path d="M20.9561 11.1069C20.786 9.39991 20.1315 7.77711 19.0699 6.42965C18.0083 5.08218 16.5836 4.0662 14.9638 3.50137C13.3441 2.93654 11.5966 2.84639 9.92728 3.24156C8.25797 3.63672 6.73637 4.50073 5.54172 5.7318C4.34706 6.96287 3.52912 8.50973 3.18425 10.1901C2.83937 11.8706 2.98193 13.6145 3.59513 15.2166C4.20833 16.8187 5.26662 18.2122 6.64535 19.2329C8.02407 20.2537 9.6658 20.8591 11.3771 20.9779M12 7V12L12.5 12.5M18.0001 22.0001L21.3501 18.7161C21.5556 18.5168 21.719 18.2783 21.8307 18.0147C21.9425 17.7512 22.0003 17.4679 22.0007 17.1817C22.0012 16.8954 21.9443 16.612 21.8334 16.3481C21.7225 16.0841 21.5599 15.8451 21.3551 15.6451C20.9373 15.2364 20.3763 15.0071 19.7918 15.006C19.2074 15.0049 18.6455 15.2321 18.2261 15.6391L18.0021 15.8591L17.7791 15.6391C17.3613 15.2307 16.8006 15.0016 16.2163 15.0005C15.6321 14.9994 15.0705 15.2264 14.6511 15.6331C14.4456 15.8324 14.2821 16.0708 14.1703 16.3343C14.0585 16.5978 14.0006 16.8811 14 17.1673C13.9994 17.4536 14.0562 17.7371 14.167 18.001C14.2778 18.265 14.4404 18.504 14.6451 18.7041L18.0001 22.0001Z" stroke="currentColor" stroke-width="1.5" stroke-linecap="round" stroke-linejoin="round"/>
</svg>
