<svg width="24" height="24" viewBox="0 0 24 24" fill="none" xmlns="http://www.w3.org/2000/svg">
<path d="M20.971 11.2779C20.8284 9.50635 20.1645 7.81666 19.0629 6.4219C17.9614 5.02714 16.4715 3.98974 14.7812 3.44051C13.0909 2.89129 11.2758 2.85482 9.56484 3.33571C7.85384 3.8166 6.32353 4.79331 5.16685 6.1427C4.01016 7.4921 3.2789 9.15375 3.06526 10.9182C2.85163 12.6826 3.16517 14.4707 3.96638 16.0572C4.76758 17.6436 6.02056 18.9574 7.56734 19.8327C9.11413 20.7081 10.8855 21.1059 12.658 20.9759M12 7V12L13.5 13.5M19 18V18.01M21.121 20.1209C21.5407 19.7014 21.8265 19.1668 21.9423 18.5849C22.0581 18.0029 21.9988 17.3997 21.7717 16.8514C21.5447 16.3032 21.1602 15.8346 20.6668 15.5049C20.1734 15.1752 19.5934 14.9993 19 14.9993C18.4066 14.9993 17.8266 15.1752 17.3332 15.5049C16.8398 15.8346 16.4553 16.3032 16.2283 16.8514C16.0012 17.3997 15.9419 18.0029 16.0577 18.5849C16.1735 19.1668 16.4594 19.7014 16.879 20.1209C17.297 20.5399 18.004 21.1659 19 21.9999C20.051 21.1099 20.759 20.4839 21.121 20.1209Z" stroke="currentColor" stroke-width="1.5" stroke-linecap="round" stroke-linejoin="round"/>
</svg>
