<svg width="24" height="24" viewBox="0 0 24 24" fill="none" xmlns="http://www.w3.org/2000/svg">
<path d="M20.975 11.3301C20.834 9.44178 20.1009 7.64606 18.8802 6.19849C17.6594 4.75092 16.0132 3.72525 14.1758 3.26746C12.3384 2.80967 10.4034 2.94308 8.64624 3.64871C6.88905 4.35433 5.39918 5.59621 4.38867 7.19762C3.37816 8.79903 2.89849 10.6784 3.01793 12.5682C3.13736 14.458 3.84982 16.262 5.05391 17.7234C6.258 19.1848 7.89236 20.2293 9.72441 20.7081C11.5565 21.1868 13.4929 21.0756 15.258 20.3901M12 7V12L14 14M19 22V22.01M19 19C19.4483 18.9986 19.8832 18.8468 20.235 18.569C20.5868 18.2911 20.8352 17.9033 20.9406 17.4675C21.0459 17.0318 21.0019 16.5733 20.8158 16.1655C20.6297 15.7576 20.3122 15.424 19.914 15.218C19.5162 15.0142 19.0611 14.951 18.6228 15.0387C18.1845 15.1264 17.7888 15.3598 17.5 15.701" stroke="currentColor" stroke-width="1.5" stroke-linecap="round" stroke-linejoin="round"/>
</svg>
