<svg width="24" height="24" viewBox="0 0 24 24" fill="none" xmlns="http://www.w3.org/2000/svg">
<path d="M20.9861 12.5021C21.0936 10.5726 20.5772 8.65977 19.5132 7.04653C18.4493 5.43329 16.8944 4.20533 15.0784 3.54433C13.2625 2.88332 11.2821 2.82437 9.43005 3.37619C7.57803 3.92801 5.9528 5.0613 4.7948 6.6084C3.6368 8.15551 3.00753 10.0343 3.00007 11.9667C2.99261 13.8992 3.60736 15.7827 4.75338 17.3387C5.8994 18.8947 7.51583 20.0405 9.36354 20.6066C11.2112 21.1727 13.1921 21.1291 15.0131 20.4821M12 7V12L15 15M19 16V19M19 22V22.01" stroke="currentColor" stroke-width="1.5" stroke-linecap="round" stroke-linejoin="round"/>
</svg>
