<svg width="24" height="24" viewBox="0 0 24 24" fill="none" xmlns="http://www.w3.org/2000/svg">
<path d="M20.9422 13.018C21.1536 11.1623 20.7824 9.28686 19.8801 7.65158C18.9778 6.01631 17.5891 4.70224 15.9065 3.89156C14.224 3.08087 12.3309 2.81373 10.4897 3.12715C8.64847 3.44058 6.95039 4.31905 5.63082 5.64079C4.31126 6.96252 3.43557 8.66205 3.12517 10.5038C2.81477 12.3455 3.08503 14.2381 3.89847 15.9194C4.71192 17.6006 6.02826 18.9871 7.66502 19.8867C9.30177 20.7863 11.1779 21.1544 13.0332 20.94M12 7V12L14 14M17 17V22M21 17V22" stroke="currentColor" stroke-width="1.5" stroke-linecap="round" stroke-linejoin="round"/>
</svg>
