<svg width="24" height="24" viewBox="0 0 24 24" fill="none" xmlns="http://www.w3.org/2000/svg">
<path d="M20.9999 12.3001C21.0602 10.495 20.576 8.71347 19.6103 7.18721C18.6445 5.66096 17.2419 4.46058 15.5848 3.74215C13.9277 3.02373 12.0928 2.8205 10.3187 3.15889C8.54451 3.49729 6.91322 4.36165 5.6369 5.63959C4.36058 6.91752 3.49829 8.5499 3.16214 10.3245C2.82599 12.0991 3.03154 13.9337 3.75206 15.5899C4.47258 17.2461 5.67474 18.6472 7.20222 19.611C8.7297 20.5748 10.5118 21.0567 12.3169 20.9941M12 7V12L14 14M16 19C16 19.7956 16.3161 20.5587 16.8787 21.1213C17.4413 21.6839 18.2044 22 19 22C19.7956 22 20.5587 21.6839 21.1213 21.1213C21.6839 20.5587 22 19.7956 22 19C22 18.2044 21.6839 17.4413 21.1213 16.8787C20.5587 16.3161 19.7956 16 19 16C18.2044 16 17.4413 16.3161 16.8787 16.8787C16.3161 17.4413 16 18.2044 16 19Z" stroke="currentColor" stroke-width="1.5" stroke-linecap="round" stroke-linejoin="round"/>
</svg>
