<svg width="24" height="24" viewBox="0 0 24 24" fill="none" xmlns="http://www.w3.org/2000/svg">
<path d="M20.9263 13.1501C21.1659 11.2896 20.8182 9.40081 19.9318 7.74764C19.0454 6.09446 17.6646 4.75956 15.9824 3.92953C14.3002 3.0995 12.4007 2.81583 10.5494 3.11816C8.69815 3.4205 6.98759 4.29372 5.65686 5.61579C4.32613 6.93786 3.44175 8.64268 3.12734 10.492C2.81292 12.3412 3.08418 14.2425 3.90321 15.9301C4.72224 17.6177 6.04809 19.0072 7.69544 19.9043C9.34279 20.8015 11.2293 21.1615 13.0913 20.9341M12.0002 7V12L14.0002 14M22.0002 22L17.0002 17M17.0002 22L22.0002 17" stroke="currentColor" stroke-width="1.5" stroke-linecap="round" stroke-linejoin="round"/>
</svg>
