<svg width="24" height="24" viewBox="0 0 24 24" fill="none" xmlns="http://www.w3.org/2000/svg">
<path d="M21 12.0003C20.9999 10.2618 20.4962 8.56048 19.5499 7.10205C18.6035 5.64363 17.255 4.49051 15.6674 3.78207C14.0797 3.07364 12.3208 2.84022 10.6033 3.11001C8.88584 3.37981 7.28325 4.14128 5.98927 5.30239C4.69529 6.4635 3.7653 7.97454 3.31171 9.65288C2.85812 11.3312 2.90035 13.105 3.43329 14.7599C3.96623 16.4147 4.96707 17.8798 6.31484 18.978C7.66261 20.0762 9.29962 20.7606 11.028 20.9483C11.348 20.9823 11.672 21.0003 12 21.0003M12 7.00024V12.0002L14 14.0002M18.42 15.6102C18.615 15.4152 18.8465 15.2605 19.1013 15.155C19.3561 15.0494 19.6292 14.9951 19.905 14.9951C20.1808 14.9951 20.4539 15.0494 20.7087 15.155C20.9635 15.2605 21.195 15.4152 21.39 15.6102C21.585 15.8052 21.7397 16.0368 21.8452 16.2915C21.9508 16.5463 22.0051 16.8194 22.0051 17.0952C22.0051 17.371 21.9508 17.6441 21.8452 17.8989C21.7397 18.1537 21.585 18.3852 21.39 18.5802L18 22.0002H15V19.0002L18.42 15.6102Z" stroke="currentColor" stroke-width="1.5" stroke-linecap="round" stroke-linejoin="round"/>
</svg>
