<svg width="24" height="24" viewBox="0 0 24 24" fill="none" xmlns="http://www.w3.org/2000/svg">
<path d="M20.997 12.2497C21.0472 10.4478 20.5552 8.6724 19.5847 7.1534C18.6142 5.63439 17.2099 4.44181 15.5537 3.73014C13.8976 3.01848 12.0659 2.82052 10.296 3.16192C8.526 3.50331 6.89934 4.36833 5.6267 5.64491C4.35406 6.9215 3.49408 8.55082 3.15815 10.3218C2.82223 12.0928 3.02585 13.9239 3.74263 15.5778C4.45942 17.2318 5.65633 18.6323 7.17834 19.5982C8.70034 20.564 10.4773 21.0505 12.279 20.9947M17 20.9998L21 16.9998M12 6.99976V11.9998L14 13.9998M16 18.9998C16 19.7954 16.3161 20.5585 16.8787 21.1211C17.4413 21.6837 18.2044 21.9998 19 21.9998C19.7956 21.9998 20.5587 21.6837 21.1213 21.1211C21.6839 20.5585 22 19.7954 22 18.9998C22 18.2041 21.6839 17.441 21.1213 16.8784C20.5587 16.3158 19.7956 15.9998 19 15.9998C18.2044 15.9998 17.4413 16.3158 16.8787 16.8784C16.3161 17.441 16 18.2041 16 18.9998Z" stroke="currentColor" stroke-width="1.5" stroke-linecap="round" stroke-linejoin="round"/>
</svg>
