<svg width="24" height="24" viewBox="0 0 24 24" fill="none" xmlns="http://www.w3.org/2000/svg">
<path d="M12 7V12L14 14M13.0169 20.9429C11.1347 21.1568 9.2331 20.7715 7.58276 19.8416C5.93242 18.9118 4.61753 17.485 3.82534 15.7644C3.03315 14.0437 2.80405 12.117 3.17068 10.2586C3.5373 8.40015 4.48095 6.70478 5.86725 5.4139C7.25354 4.12302 9.01179 3.30246 10.8916 3.06907C12.7714 2.83568 14.6769 3.20136 16.3368 4.11404C17.9967 5.02671 19.3263 6.43985 20.1363 8.1522C20.9462 9.86455 21.1952 11.7888 20.8479 13.6509M17 22L22 19L17 16V22Z" stroke="currentColor" stroke-width="1.5" stroke-linecap="round" stroke-linejoin="round"/>
</svg>
