<svg width="24" height="24" viewBox="0 0 24 24" fill="none" xmlns="http://www.w3.org/2000/svg">
<path d="M20.8661 10.45C20.5633 8.71768 19.7597 7.11203 18.5545 5.83141C17.3492 4.55079 15.7952 3.65132 14.0845 3.24411C12.3737 2.83691 10.5811 2.93983 8.9282 3.54014C7.27527 4.14045 5.83443 5.21186 4.78368 6.622C3.73294 8.03213 3.11833 9.71921 3.0158 11.4748C2.91327 13.2303 3.32731 14.9775 4.20675 16.5004C5.0862 18.0232 6.39253 19.2551 7.96433 20.0437C9.53614 20.8324 11.3046 21.1433 13.0511 20.938M12 7V12L13.5 13.5M21 15H18.5C18.1022 15 17.7206 15.158 17.4393 15.4393C17.158 15.7206 17 16.1022 17 16.5C17 16.8978 17.158 17.2794 17.4393 17.5607C17.7206 17.842 18.1022 18 18.5 18H19.5C19.8978 18 20.2794 18.158 20.5607 18.4393C20.842 18.7206 21 19.1022 21 19.5C21 19.8978 20.842 20.2794 20.5607 20.5607C20.2794 20.842 19.8978 21 19.5 21H17M19 21V22M19 14V15" stroke="currentColor" stroke-width="1.5" stroke-linecap="round" stroke-linejoin="round"/>
</svg>
