<svg width="24" height="24" viewBox="0 0 24 24" fill="none" xmlns="http://www.w3.org/2000/svg">
<path d="M20.4769 15.0222C21.1257 13.2024 21.1716 11.2222 20.608 9.37422C20.0443 7.52628 18.9009 5.90878 17.3469 4.76087C15.7929 3.61296 13.9108 2.99558 11.9788 3.00002C10.0468 3.00446 8.16757 3.63048 6.61887 4.78552C5.07017 5.94056 3.93426 7.5633 3.37909 9.41381C2.82393 11.2643 2.87898 13.2443 3.5361 15.0612C4.19322 16.878 5.41754 18.4351 7.02802 19.5023C8.6385 20.5695 10.5497 21.0901 12.4789 20.9872M12 7.00024V12.0002L15 15.0002M16 19.0002H22" stroke="currentColor" stroke-width="1.5" stroke-linecap="round" stroke-linejoin="round"/>
</svg>
