<svg width="24" height="24" viewBox="0 0 24 24" fill="none" xmlns="http://www.w3.org/2000/svg">
<path d="M20.9312 13.1109C21.154 11.3194 20.8329 9.5024 20.0097 7.8958C19.1865 6.28921 17.8991 4.9673 16.3149 4.10181C14.7307 3.23632 12.9228 2.86725 11.1261 3.04254C9.32939 3.21783 7.62692 3.92938 6.23985 5.08476C4.85278 6.24013 3.84522 7.78594 3.34805 9.52136C2.85088 11.2568 2.88708 13.1016 3.45195 14.8162C4.01682 16.5308 5.08426 18.0358 6.51559 19.1359C7.94692 20.236 9.67599 20.8802 11.4782 20.9849M20.0002 20.9998L22.0002 18.9998L20.0002 16.9998M17.0002 16.9998L15.0002 18.9998L17.0002 20.9998M12.0002 6.99976V11.9998L14.0002 13.9998" stroke="currentColor" stroke-width="1.5" stroke-linecap="round" stroke-linejoin="round"/>
</svg>
