<svg width="24" height="24" viewBox="0 0 24 24" fill="none" xmlns="http://www.w3.org/2000/svg">
<path d="M20.993 11.6461C20.9242 9.89636 20.3464 8.20468 19.3304 6.7784C18.3144 5.35213 16.9045 4.25321 15.2733 3.61634C13.642 2.97946 11.8605 2.83229 10.1469 3.19285C8.43326 3.55342 6.86207 4.40606 5.62582 5.64628C4.38958 6.8865 3.542 8.46043 3.18694 10.1752C2.83189 11.8899 2.98479 13.671 3.6269 15.3002C4.26902 16.9293 5.37246 18.3358 6.80199 19.3472C8.23153 20.3585 9.92506 20.9309 11.675 20.9941M12 7.00024V12.0002L13 13.0002M20.2002 20.2002L22.0002 22.0002M15 18.0002C15 18.7959 15.3161 19.559 15.8787 20.1216C16.4413 20.6842 17.2044 21.0002 18 21.0002C18.7956 21.0002 19.5587 20.6842 20.1213 20.1216C20.6839 19.559 21 18.7959 21 18.0002C21 17.2046 20.6839 16.4415 20.1213 15.8789C19.5587 15.3163 18.7956 15.0002 18 15.0002C17.2044 15.0002 16.4413 15.3163 15.8787 15.8789C15.3161 16.4415 15 17.2046 15 18.0002Z" stroke="currentColor" stroke-width="1.5" stroke-linecap="round" stroke-linejoin="round"/>
</svg>
