<svg width="24" height="24" viewBox="0 0 24 24" fill="none" xmlns="http://www.w3.org/2000/svg">
<path d="M20.9839 12.5303C21.0937 10.6696 20.6231 8.82063 19.637 7.23885C18.6509 5.65707 17.1981 4.42047 15.479 3.69983C13.76 2.97919 11.8596 2.81007 10.0404 3.21583C8.22111 3.62158 6.5727 4.58219 5.3228 5.96499C4.0729 7.34779 3.28318 9.08455 3.0627 10.9354C2.84222 12.7863 3.20186 14.66 4.09195 16.2977C4.98204 17.9354 6.35866 19.2564 8.03171 20.0782C9.70475 20.8999 11.5917 21.1819 13.4319 20.8853M12 7.00024V12.0002L15 15.0002M19 16.0002L17 19.0002H21L19 22.0002" stroke="currentColor" stroke-width="1.5" stroke-linecap="round" stroke-linejoin="round"/>
</svg>
