<svg width="24" height="24" viewBox="0 0 24 24" fill="none" xmlns="http://www.w3.org/2000/svg">
<path d="M11.9998 7C11.4694 7 10.9607 6.78929 10.5856 6.41421C10.2106 6.03914 9.99985 5.53043 9.99985 5C9.99985 4.46957 10.2106 3.96086 10.5856 3.58579C10.9607 3.21071 11.4694 3 11.9998 3C12.5303 3 13.039 3.21071 13.4141 3.58579C13.7891 3.96086 13.9998 4.46957 13.9998 5C13.9998 5.53043 13.7891 6.03914 13.4141 6.41421C13.039 6.78929 12.5303 7 11.9998 7ZM11.9998 7V21M8.99985 21H14.9998M7.75684 9.24304C8.314 9.8003 8.97548 10.2423 9.7035 10.5439C10.4315 10.8455 11.2118 11.0008 11.9998 11.0008C12.7879 11.0008 13.5682 10.8455 14.2962 10.5439C15.0242 10.2423 15.6857 9.8003 16.2428 9.24304" stroke="currentColor" stroke-width="1.5" stroke-linecap="round" stroke-linejoin="round"/>
</svg>
