<svg width="24" height="24" viewBox="0 0 24 24" fill="none" xmlns="http://www.w3.org/2000/svg">
<path d="M10.04 4.30501C12.235 3.63801 14.655 4.08101 16.4 5.48101C17.786 6.58901 18.588 8.16701 18.652 9.82101L18.655 10.033L18.746 10.036C21.046 10.143 22.889 11.997 22.996 14.306L23 14.517C23 16.924 21.115 18.889 18.745 18.999L18.535 19.004H6.657L6.435 18.996C3.495 18.886 1.118 16.597 1.005 13.733L1 13.517C1 10.77 3.08 8.50701 5.784 8.10001L5.898 8.08401L5.968 7.90301C6.631 6.28301 8.024 4.99701 9.797 4.38501L10.041 4.30501H10.04Z" fill="currentColor"/>
</svg>
