<svg width="24" height="24" viewBox="0 0 24 24" fill="none" xmlns="http://www.w3.org/2000/svg">
<path d="M14.5 18.0039H6.657C4.085 17.9999 2 15.9929 2 13.5169C2 11.0419 4.085 9.03488 6.657 9.03488C7.05 7.27288 8.451 5.83488 10.332 5.26188C12.212 4.68988 14.288 5.06888 15.776 6.26188C17.264 7.45188 17.938 9.26888 17.546 11.0309H18.536M19 22V22.01M19 19C19.4483 18.9986 19.8832 18.8468 20.235 18.569C20.5868 18.2911 20.8352 17.9033 20.9406 17.4675C21.0459 17.0318 21.0019 16.5733 20.8158 16.1655C20.6297 15.7576 20.3122 15.424 19.914 15.218C19.5162 15.0142 19.0611 14.951 18.6228 15.0387C18.1845 15.1264 17.7888 15.3598 17.5 15.701" stroke="currentColor" stroke-width="1.5" stroke-linecap="round" stroke-linejoin="round"/>
</svg>
