<svg width="24" height="24" viewBox="0 0 24 24" fill="none" xmlns="http://www.w3.org/2000/svg">
<path d="M3 19.9999H10M10 19.9999C10 20.5303 10.2107 21.039 10.5858 21.4141C10.9609 21.7892 11.4696 21.9999 12 21.9999C12.5304 21.9999 13.0391 21.7892 13.4142 21.4141C13.7893 21.039 14 20.5303 14 19.9999M10 19.9999C10 19.4694 10.2107 18.9607 10.5858 18.5857C10.9609 18.2106 11.4696 17.9999 12 17.9999M14 19.9999H21M14 19.9999C14 19.4694 13.7893 18.9607 13.4142 18.5857C13.0391 18.2106 12.5304 17.9999 12 17.9999M12 17.9999V15.9999M8 16.0039H6.657C4.085 15.9999 2 13.9929 2 11.5169C2 9.04188 4.085 7.03488 6.657 7.03488C7.05 5.27288 8.451 3.83488 10.332 3.26188C12.212 2.68988 14.288 3.06888 15.776 4.26188C17.264 5.45188 17.938 7.26888 17.546 9.03088H18.536C20.449 9.03088 22 10.5909 22 12.5169C22 14.4439 20.449 16.0039 18.535 16.0039H16" stroke="currentColor" stroke-width="1.5" stroke-linecap="round" stroke-linejoin="round"/>
</svg>
