<svg width="24" height="24" viewBox="0 0 24 24" fill="none" xmlns="http://www.w3.org/2000/svg">
<path d="M4.99997 20.0002H19M6.99996 16.0002C5.75223 16.0002 4.55561 15.5261 3.67334 14.6822C2.79107 13.8383 2.29541 12.6937 2.29541 11.5002C2.29541 10.3067 2.79107 9.16215 3.67334 8.31824C4.55561 7.47432 5.75223 7.00022 6.99996 7.00022C7.29464 5.68739 8.15672 4.5337 9.39654 3.79293C10.6364 3.05216 12.1524 2.785 13.6111 3.05022C15.0698 3.31543 16.3516 4.0913 17.1747 5.20714C17.9978 6.32298 18.2946 7.68739 18 9.00022H19C19.9282 9.00022 20.8185 9.36896 21.4748 10.0253C22.1312 10.6817 22.5 11.572 22.5 12.5002C22.5 13.4285 22.1312 14.3187 21.4748 14.9751C20.8185 15.6315 19.9282 16.0002 19 16.0002H6.99996Z" stroke="currentColor" stroke-width="1.5" stroke-linecap="round" stroke-linejoin="round"/>
</svg>
