<svg width="24" height="24" viewBox="0 0 24 24" fill="none" xmlns="http://www.w3.org/2000/svg">
<path d="M12 18.0039H6.657C4.085 17.9999 2 15.9929 2 13.5169C2 11.0419 4.085 9.03488 6.657 9.03488C7.05 7.27288 8.451 5.83488 10.332 5.26188C12.212 4.68988 14.288 5.06888 15.776 6.26188C17.264 7.45188 17.938 9.26888 17.546 11.0309H18.536M19 18V18.01M21.121 20.1209C21.5407 19.7014 21.8265 19.1668 21.9423 18.5849C22.0581 18.0029 21.9988 17.3997 21.7717 16.8514C21.5447 16.3032 21.1602 15.8346 20.6668 15.5049C20.1734 15.1752 19.5934 14.9993 19 14.9993C18.4066 14.9993 17.8266 15.1752 17.3332 15.5049C16.8398 15.8346 16.4553 16.3032 16.2283 16.8514C16.0012 17.3997 15.9419 18.0029 16.0577 18.5849C16.1735 19.1668 16.4594 19.7014 16.879 20.1209C17.297 20.5399 18.004 21.1659 19 21.9999C20.051 21.1099 20.759 20.4839 21.121 20.1209Z" stroke="currentColor" stroke-width="1.5" stroke-linecap="round" stroke-linejoin="round"/>
</svg>
