<svg width="24" height="24" viewBox="0 0 24 24" fill="none" xmlns="http://www.w3.org/2000/svg">
<path d="M12 13V16M12 16C12.5304 16 13.0391 16.2107 13.4142 16.5858C13.7893 16.9609 14 17.4696 14 18M12 16C11.4696 16 10.9609 16.2107 10.5858 16.5858C10.2107 16.9609 10 17.4696 10 18M10 18C10 18.5304 10.2107 19.0391 10.5858 19.4142C10.9609 19.7893 11.4696 20 12 20C12.5304 20 13.0391 19.7893 13.4142 19.4142C13.7893 19.0391 14 18.5304 14 18M10 18H3M14 18H21M5 9.89701C5 8.18301 6.46 6.79301 8.26 6.79301C8.535 5.57301 9.515 4.57801 10.832 4.18201C12.149 3.78501 13.602 4.04801 14.643 4.87201C15.685 5.69401 16.157 6.95201 15.882 8.17201H16.575C17.2167 8.17068 17.8326 8.42424 18.2873 8.87692C18.7421 9.32961 18.9984 9.94436 19 10.586C18.9984 11.2277 18.7421 11.8424 18.2873 12.2951C17.8326 12.7478 17.2167 13.0013 16.575 13H8.26C6.46 13 5 11.61 5 9.89701Z" stroke="currentColor" stroke-width="1.5" stroke-linecap="round" stroke-linejoin="round"/>
</svg>
