<svg width="24" height="24" viewBox="0 0 24 24" fill="none" xmlns="http://www.w3.org/2000/svg">
<path d="M10 18.0039H6.657C4.085 17.9999 2 15.9929 2 13.5169C2 11.0419 4.085 9.03488 6.657 9.03488C7.05 7.27288 8.451 5.83488 10.332 5.26188C12.212 4.68988 14.288 5.06888 15.776 6.26188C17.264 7.45188 17.938 9.26888 17.546 11.0309H18.536M18 22.0001L21.35 18.7161C21.5554 18.5168 21.7188 18.2783 21.8306 18.0147C21.9423 17.7512 22.0001 17.4679 22.0006 17.1817C22.0011 16.8954 21.9442 16.612 21.8333 16.3481C21.7224 16.0841 21.5598 15.8451 21.355 15.6451C20.9371 15.2364 20.3762 15.0071 19.7917 15.006C19.2072 15.0049 18.6454 15.2321 18.226 15.6391L18.002 15.8591L17.779 15.6391C17.3612 15.2307 16.8005 15.0016 16.2162 15.0005C15.632 14.9994 15.0704 15.2264 14.651 15.6331C14.4455 15.8324 14.282 16.0708 14.1702 16.3343C14.0583 16.5978 14.0004 16.8811 13.9999 17.1673C13.9993 17.4536 14.0561 17.7371 14.1669 18.001C14.2777 18.265 14.4403 18.504 14.645 18.7041L18 22.0001Z" stroke="currentColor" stroke-width="1.5" stroke-linecap="round" stroke-linejoin="round"/>
</svg>
