<svg width="24" height="24" viewBox="0 0 24 24" fill="none" xmlns="http://www.w3.org/2000/svg">
<path fill-rule="evenodd" clip-rule="evenodd" d="M13.4769 5.7881C12.842 5.67267 12.1876 5.6709 11.5519 5.78293C10.9162 5.89495 10.3146 6.11803 9.78122 6.43674C8.70351 7.08066 7.97782 8.06819 7.73175 9.16446C7.65489 9.50686 7.35088 9.7502 6.99996 9.7502C5.94065 9.7502 4.93108 10.153 4.19176 10.8602C3.45357 11.5663 3.04541 12.5167 3.04541 13.5002C3.04541 14.4837 3.45357 15.4341 4.19176 16.1402C4.93108 16.8474 5.94065 17.2502 6.99996 17.2502C7.41417 17.2502 7.74996 17.586 7.74996 18.0002C7.74996 18.4144 7.41417 18.7502 6.99996 18.7502C5.56381 18.7502 4.18015 18.2048 3.15492 17.2242C2.12857 16.2424 1.54541 14.9036 1.54541 13.5002C1.54541 12.0968 2.12857 10.758 3.15492 9.77623C4.04244 8.9273 5.19858 8.40456 6.42484 8.27945C6.86421 6.98793 7.78305 5.88326 9.01187 5.14908C9.70623 4.7342 10.481 4.44854 11.2916 4.30569C12.1021 4.16285 12.9356 4.16508 13.7452 4.31229C14.5549 4.45951 15.3279 4.74937 16.0196 5.16805C16.7114 5.58679 17.3101 6.12726 17.7783 6.76192C18.2466 7.39681 18.5746 8.11301 18.7394 8.87035C18.8384 9.3255 18.877 9.78877 18.8552 10.2502H19C20.1271 10.2502 21.2081 10.698 22.0052 11.495C22.8022 12.292 23.25 13.373 23.25 14.5002C23.25 15.6274 22.8022 16.7084 22.0052 17.5054C21.2081 18.3024 20.1271 18.7502 19 18.7502H18C17.5857 18.7502 17.25 18.4144 17.25 18.0002C17.25 17.586 17.5857 17.2502 18 17.2502H19C19.7293 17.2502 20.4288 16.9605 20.9445 16.4447C21.4602 15.929 21.75 15.2295 21.75 14.5002C21.75 13.7709 21.4602 13.0714 20.9445 12.5557C20.4288 12.0399 19.7293 11.7502 19 11.7502H18C17.7722 11.7502 17.5568 11.6467 17.4144 11.4689C17.2721 11.291 17.2183 11.0582 17.2682 10.8359C17.3902 10.2924 17.392 9.73333 17.2736 9.18924C17.1552 8.64494 16.9179 8.12245 16.5712 7.65233C16.2242 7.18197 15.774 6.77274 15.2429 6.4513C14.7117 6.12981 14.1118 5.90353 13.4769 5.7881ZM11.4697 11.4699C11.7626 11.177 12.2374 11.177 12.5303 11.4699L15.5303 14.4699C15.8232 14.7628 15.8232 15.2377 15.5303 15.5306C15.2374 15.8235 14.7626 15.8235 14.4697 15.5306L12.75 13.8109V21.0002C12.75 21.4145 12.4142 21.7502 12 21.7502C11.5858 21.7502 11.25 21.4145 11.25 21.0002V13.8109L9.53033 15.5306C9.23744 15.8235 8.76256 15.8235 8.46967 15.5306C8.17678 15.2377 8.17678 14.7628 8.46967 14.4699L11.4697 11.4699Z" fill="currentColor"/>
</svg>
