<svg width="24" height="24" viewBox="0 0 24 24" fill="none" xmlns="http://www.w3.org/2000/svg">
<path d="M18.9998 17.9999C19.928 17.9999 20.8183 17.6312 21.4746 16.9748C22.131 16.3184 22.4998 15.4282 22.4998 14.4999C22.4998 13.5717 22.131 12.6814 21.4746 12.025C20.8183 11.3687 19.928 10.9999 18.9998 10.9999H17.9998C18.3968 9.23192 17.7148 7.40692 16.2118 6.21292C14.7088 5.01992 12.6118 4.63792 10.7118 5.21292C8.81176 5.78792 7.39676 7.23192 6.99976 8.99992C4.80076 8.91192 2.84476 10.3259 2.33376 12.3729C1.82176 14.4199 2.89776 16.5269 4.89976 17.3999M10 15.0001V13.0001C9.99849 12.5585 10.1431 12.1289 10.4114 11.7782C10.6796 11.4274 11.0563 11.1753 11.4829 11.0612C11.9094 10.947 12.3617 10.9772 12.7693 11.147C13.1769 11.3169 13.5168 11.6168 13.736 12.0001M8 16C8 15.7348 8.10536 15.4804 8.29289 15.2929C8.48043 15.1054 8.73478 15 9 15H15C15.2652 15 15.5196 15.1054 15.7071 15.2929C15.8946 15.4804 16 15.7348 16 16V19C16 19.2652 15.8946 19.5196 15.7071 19.7071C15.5196 19.8946 15.2652 20 15 20H9C8.73478 20 8.48043 19.8946 8.29289 19.7071C8.10536 19.5196 8 19.2652 8 19V16Z" stroke="currentColor" stroke-width="1.5" stroke-linecap="round" stroke-linejoin="round"/>
</svg>
