<svg width="24" height="24" viewBox="0 0 24 24" fill="none" xmlns="http://www.w3.org/2000/svg">
<path d="M18.9998 17.9999C19.928 17.9999 20.8183 17.6312 21.4746 16.9748C22.131 16.3184 22.4998 15.4282 22.4998 14.4999C22.4998 13.5717 22.131 12.6814 21.4746 12.025C20.8183 11.3687 19.928 10.9999 18.9998 10.9999H17.9998C18.3968 9.23192 17.7148 7.40692 16.2118 6.21292C14.7088 5.01992 12.6118 4.63792 10.7118 5.21292C8.81176 5.78792 7.39676 7.23192 6.99976 8.99992C4.80076 8.91192 2.84476 10.3259 2.33376 12.3729C1.82176 14.4199 2.89776 16.5269 4.89976 17.3999M9.99976 15V13C9.99976 12.4696 10.2105 11.9609 10.5855 11.5858C10.9606 11.2107 11.4693 11 11.9998 11C12.5302 11 13.0389 11.2107 13.414 11.5858C13.789 11.9609 13.9998 12.4696 13.9998 13V15M7.99976 16C7.99976 15.7348 8.10511 15.4804 8.29265 15.2929C8.48019 15.1054 8.73454 15 8.99976 15H14.9998C15.265 15 15.5193 15.1054 15.7069 15.2929C15.8944 15.4804 15.9998 15.7348 15.9998 16V19C15.9998 19.2652 15.8944 19.5196 15.7069 19.7071C15.5193 19.8946 15.265 20 14.9998 20H8.99976C8.73454 20 8.48019 19.8946 8.29265 19.7071C8.10511 19.5196 7.99976 19.2652 7.99976 19V16Z" stroke="currentColor" stroke-width="1.5" stroke-linecap="round" stroke-linejoin="round"/>
</svg>
