<svg width="24" height="24" viewBox="0 0 24 24" fill="none" xmlns="http://www.w3.org/2000/svg">
<path fill-rule="evenodd" clip-rule="evenodd" d="M9.91309 4.50665C12.0199 3.86563 14.355 4.28502 16.0439 5.63848C17.4895 6.79464 18.278 8.49211 18.1963 10.244H18.3359C20.6673 10.244 22.5497 12.1436 22.5498 14.4793C22.5496 16.816 20.6673 18.7165 18.335 18.7166H6.45703C6.42599 18.7166 6.39528 18.7134 6.36523 18.7098C3.44757 18.6626 1.04998 16.3659 1.0498 13.4793C1.04995 10.754 3.1885 8.55325 5.88379 8.27716C6.48905 6.48899 7.99719 5.0904 9.91309 4.50665ZM15.1064 6.80938C13.8196 5.7778 12.0031 5.43957 10.3506 5.94219C8.69985 6.44508 7.51648 7.69034 7.18848 9.16094C7.11185 9.50351 6.80808 9.74775 6.45703 9.74786C4.27205 9.74786 2.54996 11.4454 2.5498 13.4793C2.54999 15.5143 4.27218 17.2127 6.45703 17.2127C6.48275 17.2127 6.50815 17.2141 6.5332 17.2166H18.335C19.8302 17.2165 21.0496 15.9963 21.0498 14.4793C21.0497 12.9633 19.8302 11.744 18.3359 11.744H17.3457C17.1183 11.7439 16.9031 11.64 16.7607 11.4627C16.6185 11.2854 16.5641 11.0528 16.6133 10.8309C16.9389 9.36728 16.3873 7.83403 15.1074 6.81036L15.1064 6.80938Z" fill="currentColor"/>
<path d="M21.377 8.5711C21.5423 8.19138 21.9835 8.01725 22.3633 8.18243L22.9043 8.41778C23.2838 8.58324 23.4583 9.02542 23.293 9.40508C23.1276 9.78465 22.6853 9.95783 22.3057 9.79278L21.7646 9.55743C21.3851 9.39205 21.2118 8.95075 21.377 8.5711Z" fill="currentColor"/>
<path d="M17.7275 3.87774C18.0856 3.87812 18.502 3.92811 18.9785 4.13555C19.7344 4.46477 20.329 5.0812 20.6309 5.84844C20.9324 6.61562 20.9179 7.47151 20.5889 8.22735C20.4236 8.60689 19.9812 8.78082 19.6016 8.61602C19.2218 8.45072 19.0477 8.00846 19.2129 7.62872C19.3832 7.23746 19.3905 6.7944 19.2344 6.39727C19.0782 6.00022 18.771 5.68097 18.3799 5.51055C18.1347 5.4038 17.9308 5.37795 17.7256 5.37774C17.3118 5.37713 16.9765 5.04155 16.9766 4.62774C16.9772 4.21372 17.3135 3.87736 17.7275 3.87774Z" fill="currentColor"/>
<path d="M22.4307 4.3338C22.8159 4.18232 23.2515 4.37162 23.4033 4.75665C23.5549 5.14206 23.3649 5.57762 22.9795 5.7293L22.4365 5.94317C22.0512 6.09466 21.6156 5.90546 21.4639 5.52032C21.3126 5.13514 21.5018 4.69945 21.8867 4.54766L22.4307 4.3338Z" fill="currentColor"/>
<path d="M19.1689 1.82012C19.3343 1.44034 19.7765 1.26612 20.1562 1.43145C20.5356 1.59699 20.7092 2.03917 20.5439 2.41876L20.3086 2.95977C20.1432 3.33899 19.7017 3.51221 19.3223 3.34747C18.9425 3.18213 18.7683 2.73995 18.9336 2.36016L19.1689 1.82012Z" fill="currentColor"/>
<path d="M15.5088 1.32012C15.8939 1.16896 16.3286 1.3582 16.4805 1.74298L16.6943 2.28692C16.8459 2.67229 16.6568 3.10784 16.2715 3.25958C15.886 3.41122 15.4505 3.22121 15.2988 2.83575L15.085 2.29278C14.9335 1.90739 15.1234 1.47173 15.5088 1.32012Z" fill="currentColor"/>
</svg>
