<svg width="24" height="24" viewBox="0 0 24 24" fill="none" xmlns="http://www.w3.org/2000/svg">
<path d="M14.5039 19.2497C14.918 19.2497 15.2538 19.5856 15.2539 19.9997V21.9997C15.2537 22.4138 14.918 22.7497 14.5039 22.7497C14.09 22.7495 13.7541 22.4136 13.7539 21.9997V19.9997C13.754 19.5858 14.09 19.2499 14.5039 19.2497Z" fill="currentColor"/>
<path d="M10.5039 17.2497C10.918 17.2497 11.2538 17.5856 11.2539 17.9997V19.9997C11.2537 20.4138 10.918 20.7497 10.5039 20.7497C10.09 20.7495 9.7541 20.4136 9.75391 19.9997V17.9997C9.75404 17.5858 10.09 17.2499 10.5039 17.2497Z" fill="currentColor"/>
<path d="M10.7959 4.30537C11.6065 4.16253 12.4403 4.165 13.25 4.31221C14.0595 4.45945 14.8328 4.74908 15.5244 5.16768C16.2159 5.5863 16.8142 6.12705 17.2822 6.76143C17.7504 7.39623 18.0794 8.11263 18.2441 8.86983C18.3431 9.32483 18.3802 9.78845 18.3584 10.2497H18.5039C19.6311 10.2497 20.7127 10.6978 21.5098 11.4948C22.3065 12.2918 22.7539 13.3728 22.7539 14.4997C22.7538 15.6268 22.3067 16.7086 21.5098 17.5056C20.7128 18.3024 19.6309 18.7497 18.5039 18.7497C18.09 18.7495 17.7541 18.4136 17.7539 17.9997C17.754 17.5857 18.09 17.25 18.5039 17.2497C19.2332 17.2497 19.9335 16.9597 20.4492 16.444C20.9646 15.9284 21.2538 15.2288 21.2539 14.4997C21.2539 13.7706 20.9647 13.071 20.4492 12.5554C19.9335 12.0396 19.2333 11.7497 18.5039 11.7497H17.5039C17.2764 11.7496 17.0612 11.646 16.9189 11.4685C16.7767 11.2907 16.7227 11.0578 16.7725 10.8356C16.8944 10.2923 16.8966 9.73307 16.7783 9.18916C16.6599 8.64495 16.4219 8.12211 16.0752 7.65205C15.7283 7.1818 15.278 6.77227 14.7471 6.45088C14.216 6.12949 13.6162 5.90322 12.9814 5.7878C12.3467 5.67238 11.6922 5.67094 11.0566 5.78291C10.421 5.89494 9.81857 6.11753 9.28516 6.43623C8.2078 7.08007 7.48246 8.06781 7.23633 9.16377C7.15935 9.506 6.85472 9.74971 6.50391 9.74971C5.44477 9.74982 4.43551 10.153 3.69629 10.8601C2.95826 11.5661 2.54986 12.5163 2.5498 13.4997C2.5499 14.4831 2.95819 15.4343 3.69629 16.1403C4.43547 16.8471 5.44499 17.2496 6.50391 17.2497C6.91805 17.2497 7.2538 17.5856 7.25391 17.9997C7.25372 18.4138 6.918 18.7497 6.50391 18.7497C5.06808 18.7496 3.68426 18.2047 2.65918 17.2243C1.63291 16.2427 1.0499 14.903 1.0498 13.4997C1.04986 12.0965 1.63307 10.7577 2.65918 9.77608C3.54657 8.92727 4.70265 8.40422 5.92871 8.27901C6.36806 6.98754 7.28786 5.88332 8.5166 5.14912C9.21091 4.73431 9.9854 4.44822 10.7959 4.30537Z" fill="currentColor"/>
<path d="M14.5039 14.2497C14.918 14.2497 15.2538 14.5856 15.2539 14.9997V16.9997C15.2537 17.4138 14.918 17.7497 14.5039 17.7497C14.09 17.7495 13.7541 17.4136 13.7539 16.9997V14.9997C13.754 14.5858 14.09 14.2499 14.5039 14.2497Z" fill="currentColor"/>
<path d="M10.5039 12.2497C10.918 12.2497 11.2538 12.5856 11.2539 12.9997V14.9997C11.2537 15.4138 10.918 15.7497 10.5039 15.7497C10.09 15.7495 9.7541 15.4136 9.75391 14.9997V12.9997C9.75404 12.5858 10.09 12.2499 10.5039 12.2497Z" fill="currentColor"/>
<path d="M21.3779 8.571C21.5432 8.19133 21.9846 8.01723 22.3643 8.18233L22.9053 8.41768C23.2848 8.58312 23.4591 9.02535 23.2939 9.40498C23.1287 9.78461 22.6863 9.95863 22.3066 9.79366L21.7656 9.5583C21.3858 9.39297 21.2126 8.95078 21.3779 8.571Z" fill="currentColor"/>
<path d="M17.7285 3.87862C18.0866 3.87899 18.503 3.92802 18.9795 4.13545C19.7354 4.46466 20.33 5.08107 20.6318 5.84834C20.9335 6.6155 20.9188 7.47139 20.5898 8.22725C20.4246 8.60683 19.9822 8.7808 19.6025 8.61592C19.2228 8.45059 19.0485 8.0084 19.2139 7.62862C19.3842 7.23737 19.3915 6.79428 19.2354 6.39717C19.0791 6.00023 18.7719 5.68083 18.3809 5.51045C18.1357 5.40373 17.9317 5.37883 17.7266 5.37862C17.3128 5.37801 16.9776 5.0423 16.9775 4.62862C16.9779 4.21442 17.3143 3.87824 17.7285 3.87862Z" fill="currentColor"/>
<path d="M22.4316 4.33369C22.8169 4.1822 23.2525 4.37237 23.4043 4.75752C23.5556 5.14284 23.3657 5.57757 22.9805 5.7292L22.4375 5.94307C22.0521 6.0946 21.6165 5.90554 21.4648 5.52022C21.3135 5.135 21.5027 4.69931 21.8877 4.54756L22.4316 4.33369Z" fill="currentColor"/>
<path d="M19.1699 1.82002C19.3353 1.44024 19.7774 1.26602 20.1572 1.43135C20.5367 1.59685 20.7102 2.03903 20.5449 2.41866L20.3096 2.95967C20.1443 3.33912 19.7028 3.51223 19.3232 3.34737C18.9435 3.18206 18.7694 2.74079 18.9346 2.36104L19.1699 1.82002Z" fill="currentColor"/>
<path d="M15.5098 1.32002C15.895 1.16887 16.3298 1.35877 16.4814 1.74385L16.6953 2.28682C16.8469 2.67215 16.6577 3.1077 16.2725 3.25948C15.8871 3.41109 15.4515 3.22196 15.2998 2.83662L15.0859 2.29268C14.9345 1.9073 15.1244 1.47162 15.5098 1.32002Z" fill="currentColor"/>
</svg>
