<svg width="24" height="24" viewBox="0 0 24 24" fill="none" xmlns="http://www.w3.org/2000/svg">
<path d="M6.657 16C4.085 16 2 13.993 2 11.517C2 9.04201 4.085 7.03501 6.657 7.03501C7.05 5.27301 8.451 3.83501 10.332 3.26201C12.212 2.69001 14.288 3.06901 15.776 4.26201C17.264 5.45201 17.938 7.26901 17.546 9.03101H18.536C20.449 9.03101 22 10.591 22 12.517C22 14.444 20.449 16.004 18.535 16.004H6.657M12 16V21M16 16V20C16 20.2652 16.1054 20.5196 16.2929 20.7071C16.4804 20.8946 16.7348 21 17 21H21M8 16V20C8 20.2652 7.89464 20.5196 7.70711 20.7071C7.51957 20.8946 7.26522 21 7 21H3" stroke="currentColor" stroke-width="1.5" stroke-linecap="round" stroke-linejoin="round"/>
</svg>
