<svg width="24" height="24" viewBox="0 0 24 24" fill="none" xmlns="http://www.w3.org/2000/svg">
<path d="M11.0001 11.0002L7.60312 7.56016C7.21628 7.16666 6.99951 6.63695 6.99951 6.08516C6.99951 5.53336 7.21628 5.00365 7.60312 4.61016C7.79302 4.41665 8.01959 4.26293 8.26959 4.158C8.51958 4.05307 8.78799 3.99902 9.05911 3.99902C9.33024 3.99902 9.59865 4.05307 9.84864 4.158C10.0986 4.26293 10.3252 4.41665 10.5151 4.61016L11.0001 5.00016L11.4851 4.61016C11.675 4.41665 11.9016 4.26293 12.1516 4.158C12.4016 4.05307 12.67 3.99902 12.9411 3.99902C13.2122 3.99902 13.4806 4.05307 13.7306 4.158C13.9806 4.26293 14.2072 4.41665 14.3971 4.61016C14.7839 5.00365 15.0007 5.53336 15.0007 6.08516C15.0007 6.63695 14.7839 7.16666 14.3971 7.56016L11.0001 11.0002ZM11.0001 11.0002L7.60312 14.4401C7.21628 14.8336 6.99951 15.3633 6.99951 15.9151C6.99951 16.4669 7.21628 16.9966 7.60312 17.3901C7.79302 17.5836 8.01959 17.7373 8.26959 17.8423C8.51958 17.9472 8.78799 18.0013 9.05911 18.0013C9.33024 18.0013 9.59865 17.9472 9.84864 17.8423C10.0986 17.7373 10.3252 17.5836 10.5151 17.3901L11.0001 17.0001L11.4851 17.3901C11.675 17.5836 11.9016 17.7373 12.1516 17.8423C12.4016 17.9472 12.67 18.0013 12.9411 18.0013C13.2122 18.0013 13.4806 17.9472 13.7306 17.8423C13.9806 17.7373 14.2072 17.5836 14.3971 17.3901C14.7839 16.9966 15.0007 16.4669 15.0007 15.9151C15.0007 15.3633 14.7839 14.8336 14.3971 14.4401L11.0001 11.0002ZM14.4401 7.60312C14.8336 7.21628 15.3633 6.99951 15.9151 6.99951C16.4669 6.99951 16.9966 7.21628 17.3901 7.60312C17.5836 7.79302 17.7373 8.01959 17.8422 8.26959C17.9471 8.51958 18.0012 8.78799 18.0012 9.05911C18.0012 9.33024 17.9471 9.59865 17.8422 9.84864C17.7373 10.0986 17.5836 10.3252 17.3901 10.5151L17.0001 11.0001L17.3901 11.4851C17.5836 11.675 17.7373 11.9016 17.8422 12.1516C17.9471 12.4016 18.0012 12.67 18.0012 12.9411C18.0012 13.2122 17.9471 13.4806 17.8422 13.7306C17.7373 13.9806 17.5836 14.2072 17.3901 14.3971C16.9966 14.7839 16.4669 15.0007 15.9151 15.0007C15.3633 15.0007 14.8336 14.7839 14.4401 14.3971M7.56016 7.60312C7.16666 7.21628 6.63695 6.99951 6.08516 6.99951C5.53336 6.99951 5.00365 7.21628 4.61016 7.60312C4.41665 7.79302 4.26293 8.01959 4.158 8.26959C4.05307 8.51958 3.99902 8.78799 3.99902 9.05911C3.99902 9.33024 4.05307 9.59865 4.158 9.84864C4.26293 10.0986 4.41665 10.3252 4.61016 10.5151L5.00016 11.0001L4.61016 11.4851C4.41665 11.675 4.26293 11.9016 4.158 12.1516C4.05307 12.4016 3.99902 12.67 3.99902 12.9411C3.99902 13.2122 4.05307 13.4806 4.158 13.7306C4.26293 13.9806 4.41665 14.2072 4.61016 14.3971C5.00365 14.7839 5.53336 15.0007 6.08516 15.0007C6.63695 15.0007 7.16666 14.7839 7.56016 14.3971M15.0001 15.0001L21.0001 21.0001" stroke="currentColor" stroke-width="1.5" stroke-linecap="round" stroke-linejoin="round"/>
</svg>
