<svg width="24" height="24" viewBox="0 0 24 24" fill="none" xmlns="http://www.w3.org/2000/svg">
<path d="M12.0001 10.0002L8.60311 6.56016C8.21628 6.16666 7.99951 5.63695 7.99951 5.08516C7.99951 4.53336 8.21628 4.00365 8.60311 3.61016C8.79302 3.41665 9.01959 3.26293 9.26959 3.158C9.51958 3.05307 9.78799 2.99902 10.0591 2.99902C10.3302 2.99902 10.5986 3.05307 10.8486 3.158C11.0986 3.26293 11.3252 3.41665 11.5151 3.61016L12.0001 4.00016L12.4851 3.61016C12.675 3.41665 12.9016 3.26293 13.1516 3.158C13.4016 3.05307 13.67 2.99902 13.9411 2.99902C14.2122 2.99902 14.4806 3.05307 14.7306 3.158C14.9806 3.26293 15.2072 3.41665 15.3971 3.61016C15.7839 4.00365 16.0007 4.53336 16.0007 5.08516C16.0007 5.63695 15.7839 6.16666 15.3971 6.56016L12.0001 10.0002Z" stroke="currentColor" stroke-width="1.5" stroke-linecap="round" stroke-linejoin="round"/>
<path d="M12.0001 14.0001L8.60311 17.4401C8.21628 17.8336 7.99951 18.3633 7.99951 18.9151C7.99951 19.4669 8.21628 19.9966 8.60311 20.3901C8.79302 20.5836 9.01959 20.7373 9.26959 20.8423C9.51958 20.9472 9.78799 21.0013 10.0591 21.0013C10.3302 21.0013 10.5986 20.9472 10.8486 20.8423C11.0986 20.7373 11.3252 20.5836 11.5151 20.3901L12.0001 20.0001L12.4851 20.3901C12.675 20.5836 12.9016 20.7373 13.1516 20.8423C13.4016 20.9472 13.67 21.0013 13.9411 21.0013C14.2122 21.0013 14.4806 20.9472 14.7306 20.8423C14.9806 20.7373 15.2072 20.5836 15.3971 20.3901C15.7839 19.9966 16.0007 19.4669 16.0007 18.9151C16.0007 18.3633 15.7839 17.8336 15.3971 17.4401L12.0001 14.0001Z" stroke="currentColor" stroke-width="1.5" stroke-linecap="round" stroke-linejoin="round"/>
<path d="M14.0001 12.0001L17.4401 8.60311C17.8336 8.21628 18.3633 7.99951 18.9151 7.99951C19.4669 7.99951 19.9966 8.21628 20.3901 8.60311C20.5836 8.79302 20.7373 9.01959 20.8423 9.26959C20.9472 9.51958 21.0013 9.78799 21.0013 10.0591C21.0013 10.3302 20.9472 10.5986 20.8423 10.8486C20.7373 11.0986 20.5836 11.3252 20.3901 11.5151L20.0001 12.0001L20.3901 12.4851C20.5836 12.675 20.7373 12.9016 20.8423 13.1516C20.9472 13.4016 21.0013 13.67 21.0013 13.9411C21.0013 14.2122 20.9472 14.4806 20.8423 14.7306C20.7373 14.9806 20.5836 15.2072 20.3901 15.3971C19.9966 15.7839 19.4669 16.0007 18.9151 16.0007C18.3633 16.0007 17.8336 15.7839 17.4401 15.3971L14.0001 12.0001Z" stroke="currentColor" stroke-width="1.5" stroke-linecap="round" stroke-linejoin="round"/>
<path d="M10.0002 12.0001L6.56016 8.60311C6.16666 8.21628 5.63695 7.99951 5.08516 7.99951C4.53336 7.99951 4.00365 8.21628 3.61016 8.60311C3.41665 8.79302 3.26293 9.01959 3.158 9.26959C3.05307 9.51958 2.99902 9.78799 2.99902 10.0591C2.99902 10.3302 3.05307 10.5986 3.158 10.8486C3.26293 11.0986 3.41665 11.3252 3.61016 11.5151L4.00016 12.0001L3.61016 12.4851C3.41665 12.675 3.26293 12.9016 3.158 13.1516C3.05307 13.4016 2.99902 13.67 2.99902 13.9411C2.99902 14.2122 3.05307 14.4806 3.158 14.7306C3.26293 14.9806 3.41665 15.2072 3.61016 15.3971C4.00365 15.7839 4.53336 16.0007 5.08516 16.0007C5.63695 16.0007 6.16666 15.7839 6.56016 15.3971L10.0002 12.0001Z" stroke="currentColor" stroke-width="1.5" stroke-linecap="round" stroke-linejoin="round"/>
</svg>
