<svg width="24" height="24" viewBox="0 0 24 24" fill="none" xmlns="http://www.w3.org/2000/svg">
<path d="M12.0001 3C12.7479 3.00004 13.4808 3.20973 14.1155 3.60527C14.7501 4.0008 15.2612 4.56635 15.5907 5.23771C15.9202 5.90906 16.0549 6.65934 15.9795 7.40338C15.904 8.14742 15.6216 8.85541 15.1641 9.447C15.8298 9.10286 16.5787 8.95264 17.3257 9.01348C18.0726 9.07431 18.7874 9.34374 19.3886 9.79107C19.9899 10.2384 20.4534 10.8456 20.7263 11.5436C20.9992 12.2415 21.0706 13.0021 20.9322 13.7386C20.7939 14.4751 20.4515 15.1579 19.9439 15.7093C19.4364 16.2607 18.7842 16.6584 18.0616 16.8571C17.3391 17.0558 16.5752 17.0475 15.8571 16.8332C15.139 16.6189 14.4955 16.2072 14.0001 15.645V17L15.0001 21H9.00006L10.0001 17V15.645C9.50449 16.2071 8.86101 16.6186 8.14294 16.8328C7.42486 17.0469 6.66107 17.0551 5.9386 16.8563C5.21612 16.6575 4.56401 16.2597 4.05656 15.7084C3.54912 15.157 3.20675 14.4742 3.06846 13.7378C2.93018 13.0013 3.00154 12.2408 3.27441 11.543C3.54728 10.8451 4.0107 10.2379 4.61185 9.79055C5.21301 9.34322 5.92772 9.07375 6.67457 9.01283C7.42142 8.95191 8.17036 9.102 8.83606 9.446C8.37891 8.85447 8.09667 8.14667 8.02138 7.40288C7.94608 6.65909 8.08073 5.90908 8.41006 5.23794C8.73938 4.56679 9.2502 4.00136 9.88457 3.6058C10.5189 3.21024 11.2515 3.00037 11.9991 3H12.0001Z" stroke="currentColor" stroke-width="1.5" stroke-linecap="round" stroke-linejoin="round"/>
</svg>
