<svg width="24" height="24" viewBox="0 0 24 24" fill="none" xmlns="http://www.w3.org/2000/svg">
<path d="M12.0001 2C11.0653 2.0001 10.1493 2.26222 9.35603 2.75661C8.56273 3.25101 7.92391 3.95788 7.51206 4.797L7.40906 5.022C7.0241 5.91504 6.90802 6.90098 7.07506 7.859L7.10206 7.999C6.04251 7.97685 5.00333 8.29193 4.1345 8.89878C3.26566 9.50562 2.61211 10.3728 2.26818 11.3753C1.92425 12.3777 1.90773 13.4634 2.22099 14.4759C2.53425 15.4883 3.1611 16.375 4.01106 17.008L4.20906 17.148C4.85067 17.5801 5.58383 17.8574 6.35082 17.9581C7.1178 18.0587 7.89769 17.98 8.62906 17.728L8.80306 17.662L8.03006 20.757C7.99312 20.9044 7.99029 21.0584 8.02177 21.2071C8.05325 21.3558 8.11821 21.4954 8.21173 21.6152C8.30524 21.735 8.42485 21.832 8.56145 21.8987C8.69805 21.9653 8.84806 22 9.00006 22H15.0001L15.1131 21.994C15.2546 21.9779 15.3912 21.9317 15.5134 21.8586C15.6357 21.7855 15.741 21.687 15.8221 21.5699C15.9033 21.4528 15.9585 21.3196 15.984 21.1794C16.0095 21.0392 16.0047 20.8952 15.9701 20.757L15.1961 17.662L15.3701 17.727C16.0609 17.9647 16.7954 18.0481 17.522 17.9713C18.2485 17.8946 18.9494 17.6596 19.5754 17.2828C20.2013 16.906 20.7371 16.3966 21.145 15.7905C21.5528 15.1843 21.8229 14.4962 21.9362 13.7744C22.0495 13.0527 22.0033 12.3149 21.8008 11.6129C21.5982 10.911 21.2443 10.2619 20.764 9.71146C20.2836 9.161 19.6884 8.7225 19.0204 8.42681C18.3523 8.13112 17.6275 7.98544 16.8971 8L16.9251 7.86C17.0511 7.14143 17.0182 6.40398 16.8287 5.69947C16.6393 4.99495 16.2979 4.34046 15.8285 3.78197C15.3592 3.22349 14.7732 2.77455 14.1118 2.4667C13.4504 2.15885 12.7296 1.99955 12.0001 2Z" fill="currentColor"/>
</svg>
