<svg width="24" height="24" viewBox="0 0 24 24" fill="none" xmlns="http://www.w3.org/2000/svg">
<path d="M3 14C3.83 14.642 5.077 15.017 6.5 15C7.923 15.017 9.17 14.642 10 14C10.73 13.435 11.783 13.077 13 13.01M7.99999 3C7.80599 3.14 7.63599 3.305 7.49399 3.49M12 3C11.6835 3.22717 11.4271 3.52797 11.2529 3.87642C11.0786 4.22488 10.9918 4.6105 11 5C10.9918 5.3895 11.0786 5.77512 11.2529 6.12358C11.4271 6.47203 11.6835 6.77283 12 7M14 10H17V13M16.743 16.743C16.369 17.9748 15.6089 19.0536 14.5747 19.8202C13.5405 20.5867 12.2873 21.0004 11 21H9C7.4087 21 5.88258 20.3679 4.75736 19.2426C3.63214 18.1174 3 16.5913 3 15V10H10M20.116 16.124C20.5981 15.6433 20.9025 15.0129 20.9789 14.3364C21.0554 13.6598 20.8994 12.9774 20.5367 12.4012C20.174 11.825 19.6261 11.3894 18.983 11.1658C18.3399 10.9422 17.6399 10.9441 16.998 11.171M3 3L21 21" stroke="currentColor" stroke-width="1.5" stroke-linecap="round" stroke-linejoin="round"/>
</svg>
