<svg width="24" height="24" viewBox="0 0 24 24" fill="none" xmlns="http://www.w3.org/2000/svg">
<path d="M17 3.34001C18.5202 4.2177 19.7826 5.48009 20.6603 7.0003C21.538 8.5205 22 10.245 22 12.0003C22 13.7557 21.5379 15.4802 20.6602 17.0003C19.7825 18.5205 18.5201 19.7829 16.9999 20.6606C15.4797 21.5383 13.7552 22.0003 11.9998 22.0003C10.2445 22.0002 8.52002 21.5381 6.99984 20.6604C5.47965 19.7827 4.21729 18.5203 3.33963 17.0001C2.46198 15.4799 1.99996 13.7554 2 12L2.005 11.676C2.061 9.94901 2.56355 8.26598 3.46364 6.79101C4.36373 5.31604 5.63065 4.09947 7.14089 3.2599C8.65113 2.42033 10.3531 1.98641 12.081 2.00045C13.8089 2.01449 15.5036 2.47601 17 3.34001ZM12 6.00001C9.948 6.00001 8.232 7.44901 7.451 9.50001H7C6.74512 9.5003 6.49997 9.59789 6.31463 9.77286C6.1293 9.94783 6.01777 10.187 6.00283 10.4414C5.98789 10.6959 6.07067 10.9464 6.23426 11.1418C6.39786 11.3373 6.6299 11.4629 6.883 11.493L7.017 11.5C6.99414 11.833 6.99414 12.1671 7.017 12.5H7C6.73478 12.5 6.48043 12.6054 6.29289 12.7929C6.10536 12.9804 6 13.2348 6 13.5C6 13.7652 6.10536 14.0196 6.29289 14.2071C6.48043 14.3947 6.73478 14.5 7 14.5H7.452C8.232 16.553 9.948 18 12 18C13.141 18 14.217 17.543 15.084 16.73C15.2776 16.5486 15.3912 16.2977 15.3998 16.0325C15.4085 15.7674 15.3114 15.5096 15.13 15.316C14.9486 15.1224 14.6977 15.0088 14.4325 15.0002C14.1673 14.9915 13.9096 15.0886 13.716 15.27C13.207 15.748 12.614 16 12 16C11.078 16 10.224 15.422 9.665 14.501L11 14.5C11.2652 14.5 11.5196 14.3947 11.7071 14.2071C11.8946 14.0196 12 13.7652 12 13.5C12 13.2348 11.8946 12.9804 11.7071 12.7929C11.5196 12.6054 11.2652 12.5 11 12.5H9.023C8.99173 12.1674 8.99173 11.8326 9.023 11.5H11C11.2652 11.5 11.5196 11.3947 11.7071 11.2071C11.8946 11.0196 12 10.7652 12 10.5C12 10.2348 11.8946 9.98044 11.7071 9.79291C11.5196 9.60537 11.2652 9.50001 11 9.50001H9.664C10.224 8.57901 11.078 8.00001 12 8.00001C12.615 8.00001 13.208 8.25201 13.717 8.73001C13.9106 8.91142 14.1684 9.00849 14.4335 8.99986C14.6987 8.99124 14.9496 8.87762 15.131 8.68401C15.3124 8.49041 15.4095 8.23266 15.4008 7.96749C15.3922 7.70231 15.2786 7.45142 15.085 7.27001C14.218 6.45801 13.142 6.00001 12 6.00001Z" fill="currentColor"/>
</svg>
