<svg width="24" height="24" viewBox="0 0 24 24" fill="none" xmlns="http://www.w3.org/2000/svg">
<path d="M17 3.34001C18.5202 4.2177 19.7826 5.48009 20.6603 7.0003C21.538 8.5205 22 10.245 22 12.0003C22 13.7557 21.5379 15.4802 20.6602 17.0003C19.7825 18.5205 18.5201 19.7829 16.9999 20.6606C15.4797 21.5383 13.7552 22.0003 11.9998 22.0003C10.2445 22.0002 8.52002 21.5381 6.99984 20.6604C5.47965 19.7827 4.21729 18.5203 3.33963 17.0001C2.46198 15.4799 1.99996 13.7554 2 12L2.005 11.676C2.061 9.94901 2.56355 8.26598 3.46364 6.79101C4.36373 5.31604 5.63065 4.09947 7.14089 3.2599C8.65113 2.42033 10.3531 1.98641 12.081 2.00045C13.8089 2.01449 15.5036 2.47601 17 3.34001ZM15.555 7.16802C15.4457 7.09512 15.3232 7.04445 15.1944 7.01892C15.0655 6.99339 14.9329 6.99348 14.8041 7.01921C14.6753 7.04493 14.5529 7.09577 14.4437 7.16883C14.3346 7.2419 14.2409 7.33574 14.168 7.44501L12 10.696L9.832 7.44601C9.69618 7.24202 9.49018 7.095 9.25311 7.03288C9.01604 6.97075 8.76441 6.99785 8.546 7.10901L8.446 7.16802C8.33665 7.24081 8.24271 7.33444 8.16955 7.44355C8.09639 7.55266 8.04545 7.67511 8.01964 7.80392C7.99382 7.93272 7.99363 8.06535 8.01909 8.19423C8.04455 8.3231 8.09515 8.4457 8.168 8.55502L9.798 11H9C8.75507 11 8.51866 11.09 8.33563 11.2527C8.15259 11.4155 8.03566 11.6398 8.007 11.883L8 12C8 12.2652 8.10536 12.5196 8.29289 12.7071C8.48043 12.8947 8.73478 13 9 13H11V14H9C8.75507 14 8.51866 14.09 8.33563 14.2527C8.15259 14.4155 8.03566 14.6398 8.007 14.883L8 15C8 15.2652 8.10536 15.5196 8.29289 15.7071C8.48043 15.8947 8.73478 16 9 16H11V17C11 17.2449 11.09 17.4814 11.2527 17.6644C11.4155 17.8474 11.6397 17.9644 11.883 17.993L12 18L12.117 17.993C12.3603 17.9644 12.5845 17.8474 12.7473 17.6644C12.91 17.4814 13 17.2449 13 17V16H15C15.2449 16 15.4813 15.9101 15.6644 15.7473C15.8474 15.5845 15.9643 15.3603 15.993 15.117L16 15C16 14.7348 15.8946 14.4804 15.7071 14.2929C15.5196 14.1054 15.2652 14 15 14H13V13H15C15.2449 13 15.4813 12.9101 15.6644 12.7473C15.8474 12.5845 15.9643 12.3603 15.993 12.117L16 12C16 11.7348 15.8946 11.4804 15.7071 11.2929C15.5196 11.1054 15.2652 11 15 11H14.201L15.832 8.55502C15.9681 8.3511 16.0246 8.1043 15.9906 7.8615C15.9567 7.6187 15.8348 7.39682 15.648 7.23801L15.555 7.16802Z" fill="currentColor"/>
</svg>
