<svg width="24" height="24" viewBox="0 0 24 24" fill="none" xmlns="http://www.w3.org/2000/svg">
<path d="M15 11.414V16C15 16.2652 15.1054 16.5196 15.2929 16.7071C15.4804 16.8947 15.7348 17 16 17L20.66 17.001C19.7823 18.5211 18.5199 19.7834 16.9998 20.661C15.4796 21.5386 13.7553 22.0006 12 22.0006C10.2447 22.0006 8.52036 21.5386 7.00022 20.661C5.48008 19.7834 4.21772 18.5211 3.34 17.001L8 17L8.117 16.993C8.36025 16.9644 8.58453 16.8474 8.74729 16.6644C8.91004 16.4814 8.99997 16.2449 9 16V11.415L11.293 13.707L11.387 13.79C11.5794 13.9393 11.8197 14.0132 12.0627 13.9979C12.3057 13.9826 12.5348 13.8792 12.707 13.707L15 11.414ZM17 3.34001C18.9701 4.47733 20.4936 6.25239 21.319 8.37221C22.1444 10.492 22.2223 12.8299 21.54 15H17V9.00001C17 8.11001 15.923 7.66301 15.293 8.29302L12 11.585L8.707 8.29302L8.623 8.21701C7.986 7.70301 7 8.14701 7 9.00001V15H2.46C2.15479 14.0293 1.99966 13.0176 2 12L2.005 11.676C2.061 9.94901 2.56355 8.26598 3.46364 6.79101C4.36373 5.31604 5.63065 4.09947 7.14089 3.2599C8.65113 2.42033 10.3531 1.98641 12.081 2.00045C13.8089 2.01449 15.5036 2.47601 17 3.34001Z" fill="currentColor"/>
</svg>
