<svg width="24" height="24" viewBox="0 0 24 24" fill="none" xmlns="http://www.w3.org/2000/svg">
<path d="M17 3.34001C18.5202 4.2177 19.7826 5.48009 20.6603 7.0003C21.538 8.5205 22 10.245 22 12.0003C22 13.7557 21.5379 15.4802 20.6602 17.0003C19.7825 18.5205 18.5201 19.7829 16.9999 20.6606C15.4797 21.5383 13.7552 22.0003 11.9998 22.0003C10.2445 22.0002 8.52002 21.5381 6.99984 20.6604C5.47965 19.7827 4.21729 18.5203 3.33963 17.0001C2.46198 15.4799 1.99996 13.7554 2 12L2.005 11.676C2.061 9.94901 2.56355 8.26598 3.46364 6.79101C4.36373 5.31604 5.63065 4.09947 7.14089 3.2599C8.65113 2.42033 10.3531 1.98641 12.081 2.00045C13.8089 2.01449 15.5036 2.47601 17 3.34001ZM15 7.00001H9C7.713 7.00001 7.668 8.86401 8.867 8.99301L9 9.00001H10C10.3511 9.00002 10.6959 9.09244 11 9.26798C11.304 9.44351 11.5565 9.69598 11.732 10H9C8.73478 10 8.48043 10.1054 8.29289 10.2929C8.10536 10.4804 8 10.7348 8 11C8 11.2652 8.10536 11.5196 8.29289 11.7071C8.48043 11.8947 8.73478 12 9 12L11.732 12.001C11.5563 12.3049 11.3038 12.5571 10.9998 12.7325C10.6958 12.9078 10.351 13.0001 10 13H9C8.11 13 7.663 14.077 8.293 14.707L11.293 17.707C11.4805 17.8945 11.7348 17.9998 12 17.9998C12.2652 17.9998 12.5195 17.8945 12.707 17.707L12.79 17.613C12.9393 17.4206 13.0132 17.1804 12.9979 16.9373C12.9826 16.6943 12.8792 16.4652 12.707 16.293L11.223 14.808L11.336 14.771C11.9531 14.5517 12.5071 14.1846 12.9496 13.7017C13.392 13.2188 13.7094 12.6349 13.874 12.001L15 12C15.2652 12 15.5196 11.8947 15.7071 11.7071C15.8946 11.5196 16 11.2652 16 11C16 10.7348 15.8946 10.4804 15.7071 10.2929C15.5196 10.1054 15.2652 10 15 10H13.874C13.7973 9.70324 13.6866 9.41633 13.544 9.14502L13.465 9.00001H15C15.2652 9.00001 15.5196 8.89466 15.7071 8.70712C15.8946 8.51959 16 8.26523 16 8.00001L15.993 7.88301C15.9643 7.63976 15.8474 7.41549 15.6644 7.25273C15.4813 7.08997 15.2449 7.00005 15 7.00001Z" fill="currentColor"/>
</svg>
