<svg width="24" height="24" viewBox="0 0 24 24" fill="none" xmlns="http://www.w3.org/2000/svg">
<path d="M14.7999 8.99997C14.6188 8.68573 14.3556 8.42668 14.0385 8.25053C13.7214 8.07438 13.3624 7.98777 12.9999 7.99997H11.9999L12 5.99997M9.1799 9.17097C9.04114 9.47563 8.98107 9.81024 9.0052 10.1441C9.02933 10.478 9.13689 10.8005 9.31801 11.0821C9.49913 11.3636 9.74803 11.5952 10.0419 11.7555C10.3357 11.9159 10.6651 12 10.9999 12H11.9999M14.8239 14.822C14.6656 15.1731 14.4093 15.4711 14.0857 15.6801C13.7621 15.889 13.3851 16.0001 12.9999 16H10.9999C10.6374 16.0122 10.2784 15.9256 9.96132 15.7494C9.64425 15.5733 9.38105 15.3142 9.1999 15M20.0421 16.045C20.8941 14.3538 21.191 12.4371 20.8905 10.5674C20.5901 8.69777 19.7075 6.97053 18.3685 5.63153C17.0295 4.29253 15.3023 3.40999 13.4326 3.10951C11.563 2.80904 9.6462 3.10595 7.95507 3.95797M5.63708 5.63497C4.79001 6.46803 4.11627 7.46055 3.65471 8.55529C3.19315 9.65003 2.95291 10.8253 2.94784 12.0134C2.94277 13.2014 3.17297 14.3787 3.62517 15.4774C4.07737 16.576 4.74262 17.5742 5.58254 18.4145C6.42247 19.2547 7.42044 19.9204 8.5189 20.373C9.61736 20.8256 10.7946 21.0563 11.9826 21.0517C13.1707 21.0471 14.3461 20.8073 15.441 20.3462C16.5359 19.8851 17.5287 19.2117 18.3621 18.365M12 16V18M3 2.99997L21 21" stroke="currentColor" stroke-width="1.5" stroke-linecap="round" stroke-linejoin="round"/>
</svg>
