<svg width="24" height="24" viewBox="0 0 24 24" fill="none" xmlns="http://www.w3.org/2000/svg">
<path d="M17 3.34001C18.5202 4.2177 19.7826 5.48009 20.6603 7.0003C21.538 8.5205 22 10.245 22 12.0003C22 13.7557 21.5379 15.4802 20.6602 17.0003C19.7825 18.5205 18.5201 19.7829 16.9999 20.6606C15.4797 21.5383 13.7552 22.0003 11.9998 22.0003C10.2445 22.0002 8.52002 21.5381 6.99984 20.6604C5.47965 19.7827 4.21729 18.5203 3.33963 17.0001C2.46198 15.4799 1.99996 13.7554 2 12L2.005 11.676C2.061 9.94901 2.56355 8.26598 3.46364 6.79101C4.36373 5.31604 5.63065 4.09947 7.14089 3.2599C8.65113 2.42033 10.3531 1.98641 12.081 2.00045C13.8089 2.01449 15.5036 2.47601 17 3.34001ZM10.789 7.72401C10.5519 7.24955 10.136 6.88871 9.63285 6.72087C9.1297 6.55303 8.58047 6.59193 8.106 6.82901L7.553 7.10601C7.32427 7.22936 7.15254 7.43689 7.07418 7.68466C6.99583 7.93244 7.017 8.20098 7.13321 8.43341C7.24943 8.66584 7.45156 8.8439 7.69679 8.92988C7.94202 9.01585 8.21109 9.00299 8.447 8.89401L9 8.61801L8.999 10H8C7.75507 10 7.51866 10.09 7.33563 10.2527C7.15259 10.4155 7.03566 10.6398 7.007 10.883L7 11C7 11.2652 7.10536 11.5196 7.29289 11.7071C7.48043 11.8947 7.73478 12 8 12H8.999L9 15C8.99996 15.7652 9.29233 16.5015 9.81728 17.0583C10.3422 17.615 11.0601 17.9501 11.824 17.995L12 18H12.5C13.4283 18 14.3185 17.6313 14.9749 16.9749C15.6313 16.3185 16 15.4283 16 14.5V14C16 13.7348 15.8946 13.4804 15.7071 13.2929C15.5196 13.1054 15.2652 13 15 13H14C13.7348 13 13.4804 13.1054 13.2929 13.2929C13.1054 13.4804 13 13.7348 13 14L13.007 14.117C13.0333 14.3402 13.1341 14.5481 13.293 14.707C13.4519 14.8659 13.6598 14.9667 13.883 14.993L13.915 14.995L13.895 15.052C13.7843 15.3317 13.5921 15.5716 13.3434 15.7407C13.0946 15.9097 12.8008 16.0001 12.5 16H12C11.7348 16 11.4804 15.8947 11.2929 15.7071C11.1054 15.5196 11 15.2652 11 15L10.999 12H15C15.2449 12 15.4813 11.9101 15.6644 11.7473C15.8474 11.5845 15.9643 11.3603 15.993 11.117L16 11C16 10.7348 15.8946 10.4804 15.7071 10.2929C15.5196 10.1054 15.2652 10 15 10H10.999L11 8.61801C11 8.37001 10.9539 8.12416 10.864 7.89301L10.789 7.72401Z" fill="currentColor"/>
</svg>
