<svg width="24" height="24" viewBox="0 0 24 24" fill="none" xmlns="http://www.w3.org/2000/svg">
<path d="M17 3.34001C18.5202 4.2177 19.7826 5.48009 20.6603 7.0003C21.538 8.5205 22 10.245 22 12.0003C22 13.7557 21.5379 15.4802 20.6602 17.0003C19.7825 18.5205 18.5201 19.7829 16.9999 20.6606C15.4797 21.5383 13.7552 22.0003 11.9998 22.0003C10.2445 22.0002 8.52002 21.5381 6.99984 20.6604C5.47965 19.7827 4.21729 18.5203 3.33963 17.0001C2.46198 15.4799 1.99996 13.7554 2 12L2.005 11.676C2.061 9.94901 2.56355 8.26598 3.46364 6.79101C4.36373 5.31604 5.63065 4.09947 7.14089 3.2599C8.65113 2.42033 10.3531 1.98641 12.081 2.00045C13.8089 2.01449 15.5036 2.47601 17 3.34001ZM13 6.00001C12.2044 6.00001 11.4413 6.31609 10.8787 6.87869C10.3161 7.4413 10 8.20437 10 9.00001V11H9C8.75507 11 8.51866 11.09 8.33563 11.2527C8.15259 11.4155 8.03566 11.6398 8.007 11.883L8 12C8 12.2652 8.10536 12.5196 8.29289 12.7071C8.48043 12.8947 8.73478 13 9 13H10V14C10.0002 14.2254 9.92423 14.4442 9.78447 14.621C9.64471 14.7978 9.44932 14.9222 9.23 14.974L9.117 14.994L9 15C7.713 15 7.668 16.864 8.867 16.993L9 17H15C15.2652 17 15.5196 16.8947 15.7071 16.7071C15.8946 16.5196 16 16.2652 16 16L15.993 15.883C15.9643 15.6398 15.8474 15.4155 15.6644 15.2527C15.4813 15.09 15.2449 15 15 15H11.829L11.877 14.852C11.9587 14.5754 12.0002 14.2885 12 14V13H13C13.2449 13 13.4813 12.9101 13.6644 12.7473C13.8474 12.5845 13.9643 12.3603 13.993 12.117L14 12C14 11.7348 13.8946 11.4804 13.7071 11.2929C13.5196 11.1054 13.2652 11 13 11H12V9.00001C12 8.75508 12.09 8.51868 12.2527 8.33564C12.4155 8.15261 12.6397 8.03567 12.883 8.00701L13 8.00001C13.2449 8.00005 13.4813 8.08997 13.6644 8.25273C13.8474 8.41549 13.9643 8.63976 13.993 8.88302L14 9.00001C14 9.26523 14.1054 9.51959 14.2929 9.70712C14.4804 9.89466 14.7348 10 15 10C15.2652 10 15.5196 9.89466 15.7071 9.70712C15.8946 9.51959 16 9.26523 16 9.00001C16 8.20437 15.6839 7.4413 15.1213 6.87869C14.5587 6.31609 13.7956 6.00001 13 6.00001Z" fill="currentColor"/>
</svg>
