<svg width="24" height="24" viewBox="0 0 24 24" fill="none" xmlns="http://www.w3.org/2000/svg">
<path d="M17 3.34001C18.5202 4.2177 19.7826 5.48009 20.6603 7.0003C21.538 8.5205 22 10.245 22 12.0003C22 13.7557 21.5379 15.4802 20.6602 17.0003C19.7825 18.5205 18.5201 19.7829 16.9999 20.6606C15.4797 21.5383 13.7552 22.0003 11.9998 22.0003C10.2445 22.0002 8.52002 21.5381 6.99984 20.6604C5.47965 19.7827 4.21729 18.5203 3.33963 17.0001C2.46198 15.4799 1.99996 13.7554 2 12L2.005 11.676C2.061 9.94901 2.56355 8.26598 3.46364 6.79101C4.36373 5.31604 5.63065 4.09947 7.14089 3.2599C8.65113 2.42033 10.3531 1.98641 12.081 2.00045C13.8089 2.01449 15.5036 2.47601 17 3.34001ZM12 6.00001C11.7348 6.00001 11.4804 6.10537 11.2929 6.29291C11.1054 6.48044 11 6.7348 11 7.00001C10.2044 7.00001 9.44129 7.31609 8.87868 7.87869C8.31607 8.4413 8 9.20437 8 10C8 10.7957 8.31607 11.5587 8.87868 12.1213C9.44129 12.6839 10.2044 13 11 13V15C10.8342 15.0089 10.6687 14.9772 10.5179 14.9079C10.367 14.8386 10.2353 14.7336 10.134 14.602L10.066 14.501C9.92918 14.2804 9.71191 14.1216 9.46014 14.0582C9.20836 13.9949 8.94182 14.0319 8.71686 14.1615C8.49191 14.2912 8.32619 14.5032 8.25474 14.7528C8.18329 15.0024 8.21171 15.27 8.334 15.499C8.58924 15.9417 8.95331 16.3118 9.3917 16.5743C9.8301 16.8368 10.3283 16.983 10.839 16.999H11C10.9998 17.2441 11.0896 17.4808 11.2524 17.664C11.4152 17.8473 11.6396 17.9643 11.883 17.993L12 18C12.2652 18 12.5196 17.8947 12.7071 17.7071C12.8946 17.5196 13 17.2652 13 17L13.176 16.995C13.9556 16.95 14.6869 16.6027 15.2145 16.027C15.7422 15.4513 16.0245 14.6925 16.0016 13.912C15.9787 13.1314 15.6523 12.3905 15.0918 11.8468C14.5313 11.303 13.7809 10.9993 13 11V9.00001C13.358 8.98801 13.671 9.14001 13.866 9.39801L13.934 9.49901C14.0708 9.71966 14.2881 9.87845 14.5399 9.9418C14.7916 10.0052 15.0582 9.9681 15.2831 9.83848C15.5081 9.70886 15.6738 9.49684 15.7453 9.24724C15.8167 8.99764 15.7883 8.73004 15.666 8.50102C15.4109 8.05816 15.0469 7.68783 14.6085 7.42514C14.1701 7.16245 13.6718 7.01612 13.161 7.00001H13C13 6.7348 12.8946 6.48044 12.7071 6.29291C12.5196 6.10537 12.2652 6.00001 12 6.00001ZM13 13C13.2652 13 13.5196 13.1054 13.7071 13.2929C13.8946 13.4804 14 13.7348 14 14C14 14.2652 13.8946 14.5196 13.7071 14.7071C13.5196 14.8947 13.2652 15 13 15V13ZM11 9.00001V11C10.7348 11 10.4804 10.8947 10.2929 10.7071C10.1054 10.5196 10 10.2652 10 10C10 9.7348 10.1054 9.48044 10.2929 9.29291C10.4804 9.10537 10.7348 9.00001 11 9.00001Z" fill="currentColor"/>
</svg>
