<svg width="24" height="24" viewBox="0 0 24 24" fill="none" xmlns="http://www.w3.org/2000/svg">
<path d="M17 3.34001C18.5202 4.2177 19.7826 5.48009 20.6603 7.0003C21.538 8.5205 22 10.245 22 12.0003C22 13.7557 21.5379 15.4802 20.6602 17.0003C19.7825 18.5205 18.5201 19.7829 16.9999 20.6606C15.4797 21.5383 13.7552 22.0003 11.9998 22.0003C10.2445 22.0002 8.52002 21.5381 6.99984 20.6604C5.47965 19.7827 4.21729 18.5203 3.33963 17.0001C2.46198 15.4799 1.99996 13.7554 2 12L2.005 11.676C2.061 9.94901 2.56355 8.26598 3.46364 6.79101C4.36373 5.31604 5.63065 4.09947 7.14089 3.2599C8.65113 2.42033 10.3531 1.98641 12.081 2.00045C13.8089 2.01449 15.5036 2.47601 17 3.34001ZM13 6.00001C12.7348 6.00001 12.4804 6.10537 12.2929 6.29291C12.1054 6.48044 12 6.7348 12 7.00001H11C11 6.7348 10.8946 6.48044 10.7071 6.29291C10.5196 6.10537 10.2652 6.00001 10 6.00001C9.73478 6.00001 9.48043 6.10537 9.29289 6.29291C9.10536 6.48044 9 6.7348 9 7.00001C8.73478 7.00001 8.48043 7.10537 8.29289 7.29291C8.10536 7.48044 8 7.7348 8 8.00001C8 8.26523 8.10536 8.51959 8.29289 8.70712C8.48043 8.89466 8.73478 9.00001 9 9.00001V15C8.73478 15 8.48043 15.1054 8.29289 15.2929C8.10536 15.4804 8 15.7348 8 16C8 16.2652 8.10536 16.5196 8.29289 16.7071C8.48043 16.8947 8.73478 17 9 17C9 18.333 11 18.333 11 17H12C12 17.2652 12.1054 17.5196 12.2929 17.7071C12.4804 17.8947 12.7348 18 13 18C13.2652 18 13.5196 17.8947 13.7071 17.7071C13.8946 17.5196 14 17.2652 14 17V16.85C15.167 16.456 16 15.323 16 14L15.995 13.825C15.9581 13.1518 15.7001 12.5096 15.261 11.998C15.721 11.466 16 10.765 16 10C16 8.67701 15.167 7.54401 14 7.15001V7.00001C14 6.7348 13.8946 6.48044 13.7071 6.29291C13.5196 6.10537 13.2652 6.00001 13 6.00001ZM13.09 13C13.582 13 14 13.437 14 14C14 14.563 13.582 15 13.09 15H11V13H13.09ZM13.09 9.00001C13.582 9.00001 14 9.43701 14 10C14 10.522 13.64 10.937 13.194 10.993L13.09 11H11V9.00001H13.09Z" fill="currentColor"/>
</svg>
