<svg width="24" height="24" viewBox="0 0 24 24" fill="none" xmlns="http://www.w3.org/2000/svg">
<path fill-rule="evenodd" clip-rule="evenodd" d="M7.98457 2.27516C9.0395 1.83957 10.1569 1.57828 11.2928 1.5V6.81788C10.8552 6.87906 10.4262 6.99533 10.0162 7.16463C9.60622 7.33393 9.22039 7.55411 8.8676 7.81928L5.09546 4.05897C5.95421 3.31362 6.92965 2.71075 7.98457 2.27516Z" fill="#F05FC7"/>
<path fill-rule="evenodd" clip-rule="evenodd" d="M7.98457 2.27516C9.0395 1.83957 10.1569 1.57828 11.2928 1.5V6.81788C10.8552 6.87906 10.4262 6.99533 10.0162 7.16463C9.60622 7.33393 9.22039 7.55411 8.8676 7.81928L5.09546 4.05897C5.95421 3.31362 6.92965 2.71075 7.98457 2.27516Z" fill="#F05FC7"/>
<path d="M7.18243 9.98981C7.01263 10.3985 6.89601 10.826 6.83463 11.2621L1.5 11.2621C1.57855 10.1298 1.84065 9.01606 2.27758 7.96453C2.71455 6.91291 3.31931 5.94053 4.067 5.08447L7.83914 8.84479C7.57314 9.19647 7.35226 9.58109 7.18243 9.98981Z" fill="#775DD0"/>
<path d="M6.83463 12.7123H1.5C1.57855 13.8446 1.84065 14.9583 2.27758 16.0099C2.71454 17.0615 3.31928 18.0338 4.06695 18.8899L7.8391 15.1296C7.57311 14.7779 7.35225 14.3933 7.18243 13.9846C7.01263 13.576 6.89601 13.1484 6.83463 12.7123Z" fill="#0083F5"/>
<path fill-rule="evenodd" clip-rule="evenodd" d="M18.9041 19.9155L15.1319 16.1552C14.4221 16.6887 13.5872 17.0334 12.7068 17.1565V22.4744C14.9965 22.3167 17.1731 21.418 18.9041 19.9155Z" fill="#98DF00"/>
<path fill-rule="evenodd" clip-rule="evenodd" d="M18.9041 19.9155L15.1319 16.1552C14.4221 16.6887 13.5872 17.0334 12.7068 17.1565V22.4744C14.9965 22.3167 17.1731 21.418 18.9041 19.9155Z" fill="#98DF00"/>
<path fill-rule="evenodd" clip-rule="evenodd" d="M18.9041 19.9155L15.1319 16.1552C14.4221 16.6887 13.5872 17.0334 12.7068 17.1565V22.4744C14.9965 22.3167 17.1731 21.418 18.9041 19.9155Z" fill="#98DF00"/>
<path fill-rule="evenodd" clip-rule="evenodd" d="M18.9041 19.9155L15.1319 16.1552C14.4221 16.6887 13.5872 17.0334 12.7068 17.1565V22.4744C14.9965 22.3167 17.1731 21.418 18.9041 19.9155Z" fill="#98DF00"/>
<path d="M17.1654 12.7123H22.5C22.4214 13.8446 22.1593 14.9583 21.7224 16.0099C21.2855 17.0615 20.6807 18.0338 19.933 18.8899L16.1609 15.1296C16.4269 14.7779 16.6477 14.3933 16.8176 13.9846C16.9874 13.576 17.104 13.1484 17.1654 12.7123Z" fill="#F9E213"/>
<path d="M16.8176 9.98981C16.9874 10.3985 17.104 10.826 17.1654 11.2621L22.5 11.2621C22.4215 10.1298 22.1594 9.01606 21.7225 7.96453C21.2855 6.91291 20.6807 5.94053 19.933 5.08447L16.1609 8.84479C16.4269 9.19647 16.6478 9.58109 16.8176 9.98981Z" fill="#FEB019"/>
<path d="M16.0157 2.27516C14.9608 1.83957 13.8434 1.57828 12.7075 1.5V6.81788C13.1451 6.87906 13.5741 6.99533 13.9841 7.16463C14.3941 7.33393 14.7799 7.55411 15.1327 7.81928L18.9049 4.05897C18.0461 3.31362 17.0707 2.71075 16.0157 2.27516Z" fill="#FF4560"/>
<path fill-rule="evenodd" clip-rule="evenodd" d="M5.12156 19.941L8.8937 16.1807C9.60355 16.7142 10.4384 17.0589 11.3188 17.182V22.4999C9.0291 22.3422 6.85253 21.4435 5.12156 19.941Z" fill="#00DF8F"/>
<path fill-rule="evenodd" clip-rule="evenodd" d="M5.12156 19.941L8.8937 16.1807C9.60355 16.7142 10.4384 17.0589 11.3188 17.182V22.4999C9.0291 22.3422 6.85253 21.4435 5.12156 19.941Z" fill="#00DF8F"/>
<path fill-rule="evenodd" clip-rule="evenodd" d="M5.12156 19.941L8.8937 16.1807C9.60355 16.7142 10.4384 17.0589 11.3188 17.182V22.4999C9.0291 22.3422 6.85253 21.4435 5.12156 19.941Z" fill="#00DF8F"/>
<path fill-rule="evenodd" clip-rule="evenodd" d="M5.12156 19.941L8.8937 16.1807C9.60355 16.7142 10.4384 17.0589 11.3188 17.182V22.4999C9.0291 22.3422 6.85253 21.4435 5.12156 19.941Z" fill="#00DF8F"/>
</svg>
