<svg width="24" height="24" viewBox="0 0 24 24" fill="none" xmlns="http://www.w3.org/2000/svg">
<path d="M18.411 18.417C18.131 18.6958 17.7746 18.8853 17.3869 18.9618C16.9993 19.0382 16.5976 18.9981 16.2327 18.8466C15.8678 18.695 15.556 18.4387 15.3366 18.11C15.1172 17.7814 15.0001 17.3951 15 17V15H7C6.60444 15 6.21776 15.1173 5.88886 15.3371C5.55996 15.5568 5.30362 15.8692 5.15224 16.2346C5.00087 16.6001 4.96126 17.0022 5.03843 17.3902C5.1156 17.7781 5.30608 18.1345 5.58579 18.4142C5.86549 18.6939 6.22186 18.8844 6.60982 18.9616C6.99778 19.0387 7.39992 18.9991 7.76537 18.8478C8.13082 18.6964 8.44318 18.44 8.66294 18.1111C8.8827 17.7822 9 17.3956 9 17V9H7C6.60486 8.99992 6.2186 8.88279 5.88996 8.6634C5.56133 8.444 5.30504 8.13218 5.15345 7.76727C5.00186 7.40236 4.96176 7.00073 5.03821 6.61306C5.11466 6.22538 5.30423 5.86904 5.583 5.589M15 11V7C15 6.60444 15.1173 6.21776 15.3371 5.88886C15.5568 5.55996 15.8692 5.30362 16.2346 5.15224C16.6001 5.00087 17.0022 4.96126 17.3902 5.03843C17.7781 5.1156 18.1345 5.30608 18.4142 5.58579C18.6939 5.86549 18.8844 6.22186 18.9616 6.60982C19.0387 6.99778 18.9991 7.39992 18.8478 7.76537C18.6964 8.13082 18.44 8.44318 18.1111 8.66294C17.7822 8.8827 17.3956 9 17 9H13M3 3L21 21" stroke="currentColor" stroke-width="1.5" stroke-linecap="round" stroke-linejoin="round"/>
</svg>
