<svg width="24" height="24" viewBox="0 0 24 24" fill="none" xmlns="http://www.w3.org/2000/svg">
<path fill-rule="evenodd" clip-rule="evenodd" d="M7.61762 3.28806C9.44967 2.36503 11.5262 2.04338 13.5516 2.3689C15.5771 2.69441 17.4483 3.65049 18.8988 5.10108C20.3494 6.55167 21.3055 8.42284 21.631 10.4483C21.9565 12.4737 21.6349 14.5503 20.7119 16.3823C20.5255 16.7522 20.0745 16.901 19.7046 16.7146C19.3347 16.5283 19.1859 16.0773 19.3723 15.7074C19.8406 14.778 20.1259 13.7741 20.22 12.7499H19C18.5858 12.7499 18.25 12.4141 18.25 11.9999C18.25 11.5857 18.5858 11.2499 19 11.2499H20.2208C20.2037 11.0617 20.1802 10.8738 20.15 10.6863C19.8746 8.97246 19.0656 7.38916 17.8382 6.16174C16.6108 4.93432 15.0275 4.12533 13.3136 3.84989C13.1262 3.81976 12.9382 3.79619 12.75 3.77911V4.99988C12.75 5.41409 12.4142 5.74988 12 5.74988C11.5858 5.74988 11.25 5.41409 11.25 4.99988V3.77995C10.2257 3.87403 9.22196 4.15938 8.29253 4.62765C7.92262 4.81402 7.47165 4.66523 7.28528 4.29531C7.09891 3.92539 7.2477 3.47443 7.61762 3.28806ZM2.46967 2.46955C2.76256 2.17666 3.23744 2.17666 3.53033 2.46955L6.13264 5.07186C6.14603 5.08367 6.15909 5.09604 6.17181 5.10896C6.18151 5.11883 6.19089 5.1289 6.19994 5.13916L10.5188 9.45807C10.5264 9.4653 10.5338 9.47269 10.541 9.48021L14.5197 13.4589C14.5272 13.4661 14.5346 13.4735 14.5418 13.481L21.5303 20.4695C21.8232 20.7624 21.8232 21.2373 21.5303 21.5302C21.2374 21.8231 20.7626 21.8231 20.4697 21.5302L18.3471 19.4077C17.5685 20.085 16.6861 20.6355 15.7321 21.0373C14.5459 21.5368 13.2726 21.7966 11.9855 21.8016C10.6985 21.8066 9.42316 21.5567 8.23316 21.0663C7.04316 20.576 5.96202 19.8549 5.05211 18.9446C4.14219 18.0343 3.42151 16.9529 2.93162 15.7627C2.44174 14.5725 2.19235 13.2971 2.19784 12.01C2.20333 10.723 2.4636 9.44976 2.96362 8.26379C3.36528 7.31112 3.91527 6.42991 4.59176 5.65229L2.46967 3.53021C2.17678 3.23732 2.17678 2.76244 2.46967 2.46955ZM5.65545 6.71598C5.1141 7.35439 4.6721 8.0726 4.3458 8.84654C4.02233 9.61375 3.81744 10.4241 3.73681 11.2499H5C5.41421 11.2499 5.75 11.5857 5.75 11.9999C5.75 12.4141 5.41421 12.7499 5 12.7499H3.72735C3.79853 13.5878 3.99754 14.4114 4.31872 15.1918C4.73324 16.1989 5.34305 17.1139 6.11298 17.8841C6.88291 18.6544 7.79772 19.2645 8.80464 19.6795C9.58599 20.0014 10.4108 20.2009 11.25 20.2721V18.9999C11.25 18.5857 11.5858 18.2499 12 18.2499C12.4142 18.2499 12.75 18.5857 12.75 18.9999V20.2626C13.5745 20.182 14.3837 19.9776 15.1499 19.6549C15.9249 19.3284 16.6442 18.886 17.2834 18.344L13.7974 14.858L8.23717 16.7114C7.96767 16.8012 7.67054 16.7311 7.46967 16.5302C7.2688 16.3293 7.19865 16.0322 7.28849 15.7627L9.14191 10.2024L5.65545 6.71598ZM10.3278 11.3883L9.18585 14.814L12.6116 13.6721L10.3278 11.3883ZM16.5303 7.46955C16.7312 7.67042 16.8013 7.96755 16.7115 8.23705L15.7115 11.2371C15.5805 11.63 15.1558 11.8424 14.7628 11.7114C14.3699 11.5804 14.1575 11.1557 14.2885 10.7627L14.8141 9.18573L13.2372 9.71139C12.8442 9.84238 12.4195 9.63001 12.2885 9.23705C12.1575 8.84409 12.3699 8.41935 12.7628 8.28837L15.7628 7.28837C16.0323 7.19853 16.3295 7.26867 16.5303 7.46955Z" fill="currentColor"/>
</svg>
