<svg width="24" height="24" viewBox="0 0 24 24" fill="none" xmlns="http://www.w3.org/2000/svg">
<path fill-rule="evenodd" clip-rule="evenodd" d="M8.26884 2.99217C9.45176 2.50219 10.7196 2.25 12 2.25C13.2804 2.25 14.5482 2.50219 15.7312 2.99217C16.9141 3.48216 17.9889 4.20034 18.8943 5.10571C19.7997 6.01108 20.5178 7.08591 21.0078 8.26884C21.4978 9.45176 21.75 10.7196 21.75 12C21.75 13.2804 21.4978 14.5482 21.0078 15.7312C20.5178 16.9141 19.7997 17.9889 18.8943 18.8943C17.9889 19.7997 16.9141 20.5178 15.7312 21.0078C14.5482 21.4978 13.2804 21.75 12 21.75C10.7196 21.75 9.45176 21.4978 8.26884 21.0078C7.08591 20.5178 6.01108 19.7997 5.10571 18.8943C4.20034 17.9889 3.48216 16.9141 2.99217 15.7312C2.50219 14.5482 2.25 13.2804 2.25 12C2.25 10.7196 2.50219 9.45176 2.99217 8.26884C3.48216 7.08591 4.20034 6.01108 5.10571 5.10571C6.01108 4.20034 7.08591 3.48216 8.26884 2.99217ZM11.25 3.78416C10.4237 3.85959 9.61207 4.05938 8.84286 4.37799C7.84193 4.7926 6.93245 5.40029 6.16637 6.16637C5.40029 6.93245 4.79259 7.84193 4.37799 8.84286C4.05938 9.61207 3.85959 10.4237 3.78416 11.25H5C5.41421 11.25 5.75 11.5858 5.75 12C5.75 12.4142 5.41421 12.75 5 12.75H3.78416C3.85959 13.5763 4.05938 14.3879 4.37799 15.1571C4.79259 16.1581 5.40029 17.0675 6.16637 17.8336C6.93245 18.5997 7.84193 19.2074 8.84286 19.622C9.61207 19.9406 10.4237 20.1404 11.25 20.2158V19C11.25 18.5858 11.5858 18.25 12 18.25C12.4142 18.25 12.75 18.5858 12.75 19V20.2158C13.5763 20.1404 14.3879 19.9406 15.1571 19.622C16.1581 19.2074 17.0675 18.5997 17.8336 17.8336C18.5997 17.0675 19.2074 16.1581 19.622 15.1571C19.9406 14.3879 20.1404 13.5763 20.2158 12.75H19C18.5858 12.75 18.25 12.4142 18.25 12C18.25 11.5858 18.5858 11.25 19 11.25H20.2158C20.1404 10.4237 19.9406 9.61207 19.622 8.84286C19.2074 7.84193 18.5997 6.93245 17.8336 6.16637C17.0675 5.40029 16.1581 4.7926 15.1571 4.37799C14.3879 4.05938 13.5763 3.85959 12.75 3.78416V5C12.75 5.41421 12.4142 5.75 12 5.75C11.5858 5.75 11.25 5.41421 11.25 5V3.78416ZM16.5303 7.46967C16.7312 7.67054 16.8013 7.96767 16.7115 8.23717L14.7115 14.2372C14.6369 14.4611 14.4611 14.6369 14.2372 14.7115L8.23717 16.7115C7.96767 16.8013 7.67054 16.7312 7.46967 16.5303C7.2688 16.3295 7.19865 16.0323 7.28849 15.7628L9.28849 9.76283C9.36314 9.53888 9.53888 9.36314 9.76283 9.28849L15.7628 7.28849C16.0323 7.19865 16.3295 7.2688 16.5303 7.46967ZM10.5929 10.5929L9.18585 14.8141L13.4071 13.4071L14.8141 9.18585L10.5929 10.5929Z" fill="currentColor"/>
</svg>
