<svg width="24" height="24" viewBox="0 0 24 24" fill="none" xmlns="http://www.w3.org/2000/svg">
<path d="M17 3.34001C18.5202 4.2177 19.7826 5.48009 20.6603 7.0003C21.538 8.5205 22 10.245 22 12.0003C22 13.7557 21.5379 15.4802 20.6602 17.0003C19.7825 18.5205 18.5201 19.7829 16.9999 20.6606C15.4797 21.5383 13.7552 22.0003 11.9998 22.0003C10.2445 22.0002 8.52002 21.5381 6.99984 20.6604C5.47965 19.7827 4.21729 18.5203 3.33963 17.0001C2.46198 15.4799 1.99996 13.7554 2 12L2.005 11.676C2.061 9.94901 2.56355 8.26598 3.46364 6.79101C4.36373 5.31604 5.63065 4.09947 7.14089 3.2599C8.65113 2.42033 10.3531 1.98641 12.081 2.00045C13.8089 2.01449 15.5036 2.47601 17 3.34001ZM12 18C11.7348 18 11.4804 18.1054 11.2929 18.2929C11.1054 18.4804 11 18.7348 11 19C11 19.2652 11.1054 19.5196 11.2929 19.7071C11.4804 19.8947 11.7348 20 12 20C12.2652 20 12.5196 19.8947 12.7071 19.7071C12.8946 19.5196 13 19.2652 13 19C13 18.7348 12.8946 18.4804 12.7071 18.2929C12.5196 18.1054 12.2652 18 12 18ZM15.684 7.05101L9.684 9.05101C9.53656 9.10009 9.40259 9.18285 9.29271 9.29273C9.18283 9.4026 9.10007 9.53658 9.051 9.68401L7.044 15.71L7.021 15.796L7.004 15.909L7 15.977V16.021L7.009 16.132L7.021 16.202L7.061 16.346L7.106 16.446L7.16 16.541L7.224 16.631L7.293 16.706L7.377 16.78L7.475 16.85L7.575 16.904L7.653 16.937L7.758 16.97L7.867 16.99L7.91 16.995L7.978 16.999H8.022L8.133 16.99L8.203 16.978L8.223 16.972L8.242 16.97L8.316 16.948L14.316 14.948C14.4634 14.8989 14.5974 14.8162 14.7073 14.7063C14.8172 14.5964 14.8999 14.4625 14.949 14.315L16.949 8.31501C17.0078 8.13882 17.0163 7.94974 16.9736 7.76897C16.931 7.5882 16.8388 7.42288 16.7075 7.29155C16.5761 7.16021 16.4108 7.06805 16.23 7.02539C16.0493 6.98273 15.8602 6.99226 15.684 7.05101ZM14.419 9.58001L13.209 13.209L9.58 14.419L10.79 10.79L14.419 9.58001ZM5 11C4.73478 11 4.48043 11.1054 4.29289 11.2929C4.10536 11.4804 4 11.7348 4 12C4 12.2652 4.10536 12.5196 4.29289 12.7071C4.48043 12.8947 4.73478 13 5 13C5.26522 13 5.51957 12.8947 5.70711 12.7071C5.89464 12.5196 6 12.2652 6 12C6 11.7348 5.89464 11.4804 5.70711 11.2929C5.51957 11.1054 5.26522 11 5 11ZM19 11C18.7348 11 18.4804 11.1054 18.2929 11.2929C18.1054 11.4804 18 11.7348 18 12C18 12.2652 18.1054 12.5196 18.2929 12.7071C18.4804 12.8947 18.7348 13 19 13C19.2652 13 19.5196 12.8947 19.7071 12.7071C19.8946 12.5196 20 12.2652 20 12C20 11.7348 19.8946 11.4804 19.7071 11.2929C19.5196 11.1054 19.2652 11 19 11ZM12 4.00001C11.7348 4.00001 11.4804 4.10537 11.2929 4.29291C11.1054 4.48044 11 4.7348 11 5.00001C11 5.26523 11.1054 5.51958 11.2929 5.70712C11.4804 5.89466 11.7348 6.00001 12 6.00001C12.2652 6.00001 12.5196 5.89466 12.7071 5.70712C12.8946 5.51958 13 5.26523 13 5.00001C13 4.7348 12.8946 4.48044 12.7071 4.29291C12.5196 4.10537 12.2652 4.00001 12 4.00001Z" fill="currentColor"/>
</svg>
