<svg width="24" height="24" viewBox="0 0 24 24" fill="none" xmlns="http://www.w3.org/2000/svg">
<path d="M3.9998 5H5.9998M4.9998 4V6M11.4998 4L10.9998 6M17.9998 5H19.9998M18.9998 4V6M14.9998 9L13.9998 10M17.9998 13L19.9998 12.5M17.9998 19H19.9998M18.9998 18V20M13.9998 16.518L7.4818 10L3.0918 19.58C3.00504 19.766 2.9776 19.9742 3.01323 20.1763C3.04885 20.3785 3.14581 20.5647 3.29094 20.7099C3.43607 20.855 3.62234 20.952 3.82447 20.9876C4.02661 21.0232 4.2348 20.9958 4.4208 20.909L13.9998 16.518Z" stroke="currentColor" stroke-width="1.5" stroke-linecap="round" stroke-linejoin="round"/>
</svg>
