<svg width="16" height="18" viewBox="0 0 16 18" fill="none" xmlns="http://www.w3.org/2000/svg">
  <path
    d="M6.18527 12.4427C7.07576 12.4427 7.92931 12.7974 8.55897 13.4271C9.18861 14.0568 9.54258 14.9103 9.54258 15.8008V17.2144C9.54258 17.5072 9.30528 17.7445 9.01248 17.7445C8.71979 17.7444 8.48238 17.5071 8.48238 17.2144V15.8008C8.48238 15.1915 8.24049 14.6072 7.8097 14.1764C7.37888 13.7455 6.79454 13.5037 6.18527 13.5037H3.35731C2.74822 13.5038 2.16437 13.7457 1.73364 14.1764C1.3028 14.6072 1.0602 15.1915 1.0602 15.8008V17.2144C1.0602 17.5072 0.8229 17.7445 0.530101 17.7445C0.237329 17.7445 0 17.5072 0 17.2144V15.8008C0 14.9104 0.354062 14.0568 0.983607 13.4271C1.61321 12.7975 2.46693 12.4428 3.35731 12.4427H6.18527ZM4.77167 3.96034C5.66203 3.96041 6.51575 4.3144 7.14537 4.94395C7.77506 5.57364 8.12898 6.4279 8.12898 7.31841C8.12891 8.20883 7.775 9.06248 7.14537 9.69211C6.51574 10.3217 5.66209 10.6757 4.77167 10.6757C3.88116 10.6757 3.0269 10.3218 2.39721 9.69211C1.76767 9.0625 1.41367 8.20876 1.4136 7.31841C1.4136 6.4279 1.76753 5.57364 2.39721 4.94395C3.0269 4.31426 3.88116 3.96034 4.77167 3.96034ZM4.77167 5.02055C4.16237 5.02055 3.57808 5.26314 3.14724 5.69398C2.71641 6.12482 2.47381 6.70912 2.47381 7.31841C2.47387 7.92755 2.71655 8.51132 3.14724 8.94208C3.57808 9.37292 4.16237 9.61552 4.77167 9.61552C5.38088 9.61545 5.96532 9.37287 6.3961 8.94208C6.82665 8.51134 7.06871 7.92744 7.06878 7.31841C7.06878 6.70923 6.82678 6.12479 6.3961 5.69398C5.96532 5.2632 5.38088 5.02061 4.77167 5.02055ZM12.1696 0.000131289C13.1046 -0.00505769 13.9069 0.141808 14.6328 0.75471L14.7769 0.883633L14.7799 0.885908L14.8792 0.994355C15.3598 1.54734 15.6121 2.24772 15.6088 2.97977V3.0867C15.5982 3.91078 15.2436 4.62988 14.6631 5.20104L14.6623 5.2018C14.536 5.32218 14.4027 5.42079 14.2559 5.51197L14.2566 5.51273C14.2321 5.52856 14.2075 5.54496 14.1823 5.56126L14.1808 5.56202C13.7277 5.84221 13.191 5.99687 12.6557 5.98595H12.6542C12.4704 5.97766 12.3309 6.02136 12.1946 6.08985C12.1253 6.12468 12.057 6.1655 11.983 6.21043C11.9128 6.25309 11.8368 6.298 11.754 6.34239C11.7527 6.34359 11.7519 6.34531 11.751 6.34618C11.7505 6.34659 11.7492 6.34849 11.7472 6.34997C11.7462 6.35067 11.7439 6.35207 11.7411 6.35376C11.7406 6.35403 11.7396 6.35412 11.7388 6.35452C11.6994 6.38627 11.6599 6.41626 11.622 6.44477C11.5907 6.46901 11.5592 6.4932 11.528 6.51757L11.4787 6.55625C11.3675 6.64394 11.2576 6.73356 11.1473 6.82395C11.0957 6.86608 11.0436 6.90842 10.9918 6.94984C10.9644 6.97225 10.964 6.9722 10.9357 6.99534L10.935 6.9961C10.8691 7.04817 10.8095 7.08978 10.7416 7.11517C10.6722 7.14104 10.5996 7.148 10.5095 7.14247H10.5042L10.4989 7.14095C10.3891 7.11836 10.3256 7.06949 10.2585 6.9961L10.2517 6.98776L10.2464 6.9779C10.2183 6.92177 10.2093 6.86517 10.2069 6.81333C10.2047 6.76552 10.2082 6.7091 10.2084 6.66924C10.2085 6.63944 10.2084 6.63458 10.2084 6.60402C10.2086 6.53466 10.2088 6.46469 10.2092 6.39547L10.2099 6.25517C10.2102 6.16623 10.2103 6.07715 10.2107 5.98823C10.2087 5.98826 10.2067 5.98895 10.2046 5.98899C10.0995 5.99047 9.99414 5.99125 9.88916 5.99202C9.84416 5.99243 9.79916 5.99283 9.75417 5.99354C9.68866 5.99453 9.62292 5.99469 9.55775 5.99505C9.52686 5.9957 9.52901 5.9959 9.49708 5.99657H9.49556C9.41383 5.99659 9.34402 5.9872 9.27791 5.96093C9.21191 5.93467 9.15472 5.89422 9.0959 5.83959L9.08604 5.83049L9.07997 5.81835C9.022 5.70566 9.02065 5.59961 9.04054 5.48846L9.04206 5.47557L9.04888 5.46495C9.08748 5.39435 9.11271 5.34719 9.13989 5.31555C9.1721 5.27815 9.20681 5.26119 9.2453 5.24199L9.25971 5.23517L9.27488 5.23441C9.32221 5.23113 9.36946 5.22975 9.41593 5.2291C9.44086 5.22872 9.47583 5.22798 9.50163 5.22758C9.63195 5.22637 9.76322 5.22518 9.89371 5.22455L10.0992 5.22227C10.1982 5.22079 10.2971 5.2204 10.3957 5.22L10.489 5.21772H10.4905C10.592 5.218 10.658 5.21777 10.7097 5.23062C10.7672 5.24497 10.8068 5.27524 10.8576 5.31252L10.8682 5.32086L10.8758 5.33148C10.9136 5.3867 10.9382 5.43776 10.9524 5.49301C10.9662 5.54707 10.9694 5.60166 10.9691 5.66213L10.9683 5.73948C10.9681 5.76603 10.9686 5.79327 10.9683 5.82063C10.9682 5.84747 10.9677 5.87412 10.9676 5.90177C10.9675 5.91386 10.9669 5.92608 10.9668 5.93818C11.1472 5.79681 11.3276 5.6558 11.5045 5.51045C11.539 5.48225 11.5741 5.45389 11.6091 5.42627C11.6563 5.38935 11.6545 5.39035 11.6956 5.3512L11.6986 5.34892C11.8735 5.19878 12.0677 5.21436 12.2469 5.21469C12.313 5.21344 12.3795 5.2124 12.4456 5.2109C12.4777 5.21027 12.5089 5.21003 12.5419 5.20938L12.7914 5.1927C13.3624 5.12968 13.8565 4.90059 14.271 4.47224C14.6938 3.99442 14.845 3.41137 14.8231 2.7788L14.8133 2.67566C14.7513 2.16358 14.476 1.69883 14.1019 1.33714L13.9282 1.20063C13.5112 0.907004 13.0189 0.780312 12.4964 0.78277C12.4571 0.782659 12.4168 0.782188 12.3774 0.782012H11.7244C11.5372 0.781864 11.3497 0.78238 11.1625 0.78277C10.9468 0.783213 10.7312 0.782461 10.5156 0.782012H9.62449C9.52061 0.781775 9.41672 0.782304 9.31279 0.78277C9.2747 0.782877 9.2364 0.782195 9.19828 0.782012C8.54976 0.7792 7.997 0.997876 7.53517 1.45089C7.51615 1.46953 7.49714 1.48858 7.47754 1.50777L7.47678 1.50701C7.18484 1.814 7.01809 2.21232 6.9444 2.63244C6.92996 2.71162 6.91434 2.78281 6.88449 2.84781C6.85363 2.91493 6.80873 2.97256 6.74116 3.03134L6.73433 3.03816L6.72523 3.04196C6.61576 3.09656 6.50374 3.08692 6.40975 3.07684L6.39762 3.07608L6.387 3.07153C6.3308 3.04715 6.28356 3.02073 6.24443 2.98205C6.20503 2.94306 6.17844 2.89648 6.15494 2.83947L6.15191 2.83113L6.15039 2.82279C6.10689 2.57334 6.15928 2.2946 6.25049 2.03636C6.34216 1.77696 6.4757 1.52991 6.60314 1.34017L6.60465 1.33866C7.09844 0.646539 7.76225 0.189926 8.60599 0.0259159L8.61054 0.0251575C8.70545 0.0117595 8.79502 0.00881981 8.88735 0.00847337C8.94083 0.00818229 8.94113 0.00801251 8.9958 0.007715C9.03497 0.00763803 9.07417 0.00778539 9.11334 0.007715C9.15497 0.00754458 9.19684 0.00714669 9.23847 0.00695663C9.37516 0.00638565 9.51217 0.00571086 9.64875 0.00543988C9.69577 0.0053302 9.74279 0.00555311 9.78981 0.00543988C10.0119 0.00492207 10.2343 0.00490839 10.4564 0.00468151C10.7116 0.00441659 10.9672 0.00350772 11.2224 0.0024064C11.4205 0.00158144 11.6189 0.00097934 11.8169 0.00088966C11.9346 0.000826002 12.0521 0.000818542 12.1696 0.000131289ZM9.20207 2.66353C9.35453 2.61997 9.47068 2.63937 9.60704 2.71358C9.70145 2.78069 9.74571 2.86947 9.78147 2.97674C9.79648 3.12993 9.76358 3.23503 9.67909 3.36047C9.55966 3.47407 9.46195 3.49652 9.30218 3.49395C9.17746 3.48239 9.09782 3.4271 9.01779 3.33545C8.92682 3.2107 8.92256 3.10047 8.93664 2.95095C8.98839 2.80673 9.06814 2.73405 9.20207 2.66353ZM10.8326 2.66353C10.9851 2.61995 11.1018 2.63927 11.2383 2.71358C11.3326 2.78068 11.3762 2.86952 11.412 2.97674C11.427 3.13 11.3942 3.23496 11.3096 3.36047C11.1901 3.47411 11.0925 3.49654 10.9327 3.49395C10.8082 3.48237 10.729 3.42693 10.649 3.33545C10.5581 3.2107 10.5531 3.10047 10.5671 2.95095C10.6189 2.80675 10.6988 2.73403 10.8326 2.66353ZM12.4638 2.66353C12.6163 2.61996 12.7324 2.63932 12.8688 2.71358C12.9632 2.78069 13.0075 2.86947 13.0432 2.97674C13.0582 3.1299 13.0253 3.23506 12.9408 3.36047C12.8215 3.47404 12.7236 3.4965 12.5639 3.49395C12.4392 3.4824 12.3595 3.42705 12.2795 3.33545C12.1886 3.2107 12.1843 3.10047 12.1984 2.95095C12.2502 2.80672 12.3298 2.73406 12.4638 2.66353Z"
    fill="currentColor" />
</svg>