<svg width="24" height="24" viewBox="0 0 24 24" fill="none" xmlns="http://www.w3.org/2000/svg">
<path d="M12 12.0001V17.0001C13.3197 17.0021 14.5863 16.4807 15.522 15.5501M16.914 12.9271C17.0503 12.2047 17.0256 11.461 16.8417 10.7492C16.6577 10.0374 16.3191 9.37484 15.8498 8.80886C15.3806 8.24287 14.7923 7.78733 14.1268 7.4747C13.4614 7.16206 12.7352 7.00002 12 7.00012V8.00012M5.64091 5.63107C3.95175 7.31772 3.00178 9.6063 3 11.9934C2.99822 14.3804 3.94477 16.6704 5.63141 18.3596C7.31806 20.0487 9.60664 20.9987 11.9937 21.0005C14.3808 21.0023 16.6707 20.0557 18.3599 18.3691M20.0399 16.0511C20.893 14.3609 21.1914 12.4448 20.8926 10.5753C20.5938 8.70573 19.7131 6.97804 18.3757 5.63798C17.0383 4.29791 15.3123 3.41374 13.4434 3.11124C11.5745 2.80874 9.65775 3.10332 7.96591 3.95307M3 3.00012L21 21.0001" stroke="currentColor" stroke-width="1.5" stroke-linecap="round" stroke-linejoin="round"/>
</svg>
