<svg width="24" height="24" viewBox="0 0 24 24" fill="none" xmlns="http://www.w3.org/2000/svg">
<path d="M4 18H6C7.5913 18 9.11742 17.3679 10.2426 16.2426C11.3679 15.1174 12 13.5913 12 12M4 18C4 18.5304 4.21071 19.0391 4.58579 19.4142C4.96086 19.7893 5.46957 20 6 20H18C18.5304 19.9999 19.039 19.7891 19.414 19.414M4 18V6C4 5.453 4.22 4.957 4.576 4.595M12.878 8.874C13.4138 7.99612 14.1664 7.27072 15.0633 6.76744C15.9602 6.26416 16.9715 5.99989 18 6H20M20 6C20 5.46957 19.7893 4.96086 19.4142 4.58579C19.0391 4.21071 18.5304 4 18 4H8M20 6V16M3 3L21 21" stroke="currentColor" stroke-width="1.5" stroke-linecap="round" stroke-linejoin="round"/>
</svg>
