<svg width="24" height="24" viewBox="0 0 24 24" fill="none" xmlns="http://www.w3.org/2000/svg">
<path d="M11.9998 16H12.0098M11.9998 13H12.0098M9.99978 7H10.0098M13.9998 7H14.0098M11.9998 9H12.0098M11.9998 2C13.0656 1.9999 14.1036 2.34039 14.9622 2.97178C15.8209 3.60318 16.4553 4.49243 16.773 5.50982C17.0907 6.5272 17.0749 7.61947 16.728 8.62727C16.3811 9.63506 15.7213 10.5056 14.8448 11.112L14.9918 11.481L16.7468 10.678C17.7158 10.235 18.8668 10.646 19.3178 11.596C19.5218 12.0276 19.554 12.5206 19.4078 12.975C19.2617 13.4294 18.9481 13.8113 18.5308 14.043L18.3828 14.119L15.9998 15.208V17.228L17.4258 18.653L17.5398 18.778C17.8566 19.1534 18.021 19.6341 18.0002 20.1249C17.9795 20.6157 17.7753 21.0808 17.4279 21.4281C17.0806 21.7755 16.6154 21.9798 16.1246 22.0005C15.6338 22.0212 15.1532 21.8568 14.7778 21.54L14.6528 21.426L12.5738 19.346L12.4598 19.222C12.4011 19.1525 12.3473 19.079 12.2988 19.002H11.6998C11.6528 19.077 11.5988 19.152 11.5398 19.222L11.4248 19.347L9.34478 21.426C8.98778 21.7846 8.50593 21.9912 8.00006 22.0027C7.49419 22.0141 7.0035 21.8295 6.63066 21.4874C6.25782 21.1453 6.03173 20.6722 5.99969 20.1673C5.96765 19.6623 6.13216 19.1645 6.45878 18.778L6.57278 18.653L7.99978 17.227V15.208L5.61678 14.118L5.46878 14.043C5.05145 13.8113 4.7379 13.4294 4.59175 12.975C4.4456 12.5206 4.47778 12.0276 4.68178 11.596C5.11078 10.694 6.17078 10.278 7.10578 10.618L7.25278 10.678L9.00778 11.481L9.15478 11.112C8.52008 10.6728 7.9957 10.0926 7.62269 9.41681C7.24969 8.74106 7.0382 7.98813 7.00478 7.217V7C7.00478 5.67392 7.53156 4.40215 8.46924 3.46447C9.40693 2.52678 10.6787 2 12.0048 2H11.9998Z" stroke="currentColor" stroke-width="1.5" stroke-linecap="round" stroke-linejoin="round"/>
</svg>
