<svg width="24" height="24" viewBox="0 0 24 24" fill="none" xmlns="http://www.w3.org/2000/svg">
<path d="M8 13V13.01M12 17V17.01M12 12V12.01M18.192 18.187C17.9128 18.4665 17.5811 18.688 17.216 18.839C16.168 19.102 15.429 19.322 15 19.5C14.525 19.697 13.908 20.038 13.148 20.524C12.4129 20.8284 11.587 20.8284 10.852 20.524C10.05 20.021 9.43299 19.68 8.99999 19.5C8.52899 19.305 7.78999 19.085 6.78399 18.84C6.04905 18.5353 5.46524 17.9511 5.16099 17.216C4.89599 16.164 4.67599 15.426 4.49999 15C4.30199 14.521 3.95999 13.904 3.47599 13.148C3.17154 12.4129 3.17154 11.587 3.47599 10.852C3.95599 10.108 4.29599 9.49099 4.49999 8.99999C4.67099 8.58699 4.89099 7.84799 5.15999 6.78399C5.31062 6.42093 5.53114 6.09102 5.80899 5.81299M8.62999 4.63899C8.76999 4.58999 8.89299 4.54399 8.99999 4.49999C9.45799 4.30999 10.075 3.96899 10.852 3.47599C11.587 3.17154 12.4129 3.17154 13.148 3.47599L15.815 4.57999C15.2864 5.27541 15 6.12474 14.9995 6.99823C14.999 7.87173 15.2845 8.72137 15.8123 9.41739C16.3401 10.1134 17.0812 10.6175 17.9224 10.8527C18.7636 11.0879 19.6587 11.0413 20.471 10.72L20.524 10.852C20.8284 11.587 20.8284 12.4129 20.524 13.148C20.027 13.934 19.686 14.552 19.5 15C19.4515 15.1186 19.4065 15.2387 19.365 15.36M3 3L21 21" stroke="currentColor" stroke-width="1.5" stroke-linecap="round" stroke-linejoin="round"/>
</svg>
