<svg width="24" height="24" viewBox="0 0 24 24" fill="none" xmlns="http://www.w3.org/2000/svg">
<path d="M7.99991 13V13.01M11.9999 17V17.01M11.9999 12V12.01M15.9999 14V14.01M10.9999 8.00003V8.01003M13.1479 3.47602L15.8149 4.58002C15.2863 5.27544 14.9999 6.12477 14.9994 6.99826C14.9989 7.87176 15.2844 8.7214 15.8122 9.41742C16.34 10.1134 17.0811 10.6175 17.9223 10.8528C18.7636 11.088 19.6587 11.0414 20.4709 10.72L20.5239 10.852C20.8284 11.5871 20.8284 12.413 20.5239 13.148C20.0269 13.934 19.6859 14.552 19.4999 15C19.3109 15.456 19.0909 16.194 18.8399 17.216C18.5352 17.951 17.951 18.5348 17.2159 18.839C16.1679 19.102 15.4289 19.322 14.9999 19.5C14.5249 19.697 13.9079 20.038 13.1479 20.524C12.4128 20.8285 11.587 20.8285 10.8519 20.524C10.0499 20.021 9.4329 19.68 8.9999 19.5C8.5289 19.305 7.7899 19.085 6.7839 18.84C6.04896 18.5353 5.46515 17.9511 5.1609 17.216C4.8959 16.164 4.6759 15.426 4.4999 15C4.3019 14.521 3.9599 13.904 3.4759 13.148C3.17145 12.413 3.17145 11.5871 3.4759 10.852C3.9559 10.108 4.2959 9.49102 4.4999 9.00002C4.6709 8.58702 4.8909 7.84802 5.1599 6.78402C5.46461 6.04908 6.04877 5.46528 6.7839 5.16102C7.8159 4.90502 8.5539 4.68502 8.9999 4.50002C9.4579 4.31002 10.0749 3.96902 10.8519 3.47602C11.587 3.17157 12.4128 3.17157 13.1479 3.47602Z" stroke="currentColor" stroke-width="1.5" stroke-linecap="round" stroke-linejoin="round"/>
</svg>
