<svg width="24" height="24" viewBox="0 0 24 24" fill="none" xmlns="http://www.w3.org/2000/svg">
<path d="M13.303 9.30005C13.917 9.5961 14.4124 10.0918 14.708 10.706M14.122 14.119C13.58 14.6602 12.8524 14.9748 12.0869 14.9992C11.3214 15.0235 10.5753 14.7557 10 14.25M20.0421 16.0451C20.8941 14.354 21.191 12.4372 20.8905 10.5675C20.5901 8.69789 19.7075 6.97066 18.3685 5.63165C17.0295 4.29265 15.3023 3.41011 13.4326 3.10964C11.563 2.80916 9.6462 3.10607 7.95507 3.9581M5.63708 5.6351C4.79001 6.46815 4.11627 7.46067 3.65471 8.55541C3.19315 9.65015 2.95291 10.8254 2.94784 12.0135C2.94277 13.2015 3.17297 14.3788 3.62517 15.4775C4.07737 16.5761 4.74262 17.5744 5.58254 18.4146C6.42247 19.2549 7.42044 19.9205 8.5189 20.3731C9.61736 20.8258 10.7946 21.0564 11.9826 21.0518C13.1707 21.0472 14.3461 20.8074 15.441 20.3463C16.5359 19.8852 17.5287 19.2118 18.3621 18.3651M3 3L21 21" stroke="currentColor" stroke-width="1.5" stroke-linecap="round" stroke-linejoin="round"/>
</svg>
