<svg width="24" height="24" viewBox="0 0 24 24" fill="none" xmlns="http://www.w3.org/2000/svg">
<path d="M17 3.34001C18.5083 4.21087 19.7629 5.46054 20.6398 6.96531C21.5167 8.47009 21.9854 10.1778 21.9994 11.9194C22.0135 13.6609 21.5725 15.376 20.72 16.8947C19.8676 18.4135 18.6332 19.6832 17.1392 20.5783C15.6452 21.4734 13.9434 21.9628 12.2021 21.9981C10.4608 22.0333 8.74055 21.6132 7.21155 20.7793C5.68256 19.9453 4.39787 18.7265 3.48467 17.2435C2.57146 15.7605 2.06141 14.0647 2.005 12.324L2 12L2.005 11.676C2.061 9.94901 2.56355 8.26598 3.46364 6.79101C4.36373 5.31604 5.63065 4.09947 7.14089 3.2599C8.65113 2.42033 10.3531 1.98641 12.081 2.00045C13.8089 2.01449 15.5036 2.47601 17 3.34001ZM14.883 9.22901C14.1661 8.48499 13.1899 8.04591 12.1576 8.00307C11.1253 7.96024 10.1161 8.31694 9.34 8.99901C9.14687 9.1757 9.03072 9.42107 9.01648 9.68244C9.00225 9.94381 9.09106 10.2003 9.26385 10.397C9.43665 10.5936 9.67965 10.7146 9.94068 10.7341C10.2017 10.7535 10.46 10.6698 10.66 10.501C11.0497 10.1586 11.5564 9.9795 12.0748 10.0011C12.5931 10.0227 13.0832 10.2433 13.443 10.617C13.801 10.9884 14.001 11.4842 14.001 12C14.001 12.5158 13.801 13.0116 13.443 13.383C13.0832 13.7567 12.5931 13.9773 12.0748 13.9989C11.5564 14.0205 11.0497 13.8415 10.66 13.499C10.4596 13.3344 10.203 13.2542 9.94452 13.2752C9.68603 13.2962 9.4458 13.4168 9.27453 13.6115C9.10326 13.8063 9.01436 14.0599 9.02657 14.319C9.03879 14.5781 9.15117 14.8222 9.34 15C10.1161 15.6821 11.1253 16.0388 12.1576 15.996C13.1899 15.9531 14.1661 15.514 14.883 14.77C15.6002 14.0259 16.001 13.0326 16.001 11.999C16.001 10.9655 15.6002 9.97218 14.883 9.22801V9.22901Z" fill="currentColor"/>
</svg>
