<svg width="24" height="24" viewBox="0 0 24 24" fill="none" xmlns="http://www.w3.org/2000/svg">
<path d="M17 3.34001C18.5083 4.21087 19.7629 5.46054 20.6398 6.96531C21.5167 8.47009 21.9854 10.1778 21.9994 11.9194C22.0135 13.6609 21.5725 15.376 20.72 16.8947C19.8676 18.4135 18.6332 19.6832 17.1392 20.5783C15.6452 21.4734 13.9434 21.9628 12.2021 21.9981C10.4608 22.0333 8.74055 21.6132 7.21155 20.7793C5.68256 19.9453 4.39787 18.7265 3.48467 17.2435C2.57146 15.7605 2.06141 14.0647 2.005 12.324L2 12L2.005 11.676C2.061 9.94901 2.56355 8.26598 3.46364 6.79101C4.36373 5.31604 5.63065 4.09947 7.14089 3.2599C8.65113 2.42033 10.3531 1.98641 12.081 2.00045C13.8089 2.01449 15.5036 2.47601 17 3.34001ZM14.66 8.99901C13.8839 8.31694 12.8747 7.96024 11.8424 8.00307C10.8101 8.04591 9.83394 8.48499 9.117 9.22901C8.39975 9.97318 7.999 10.9665 7.999 12C7.999 13.0336 8.39975 14.0268 9.117 14.771C9.83394 15.515 10.8101 15.9541 11.8424 15.997C12.8747 16.0398 13.8839 15.6831 14.66 15.001C14.8531 14.8243 14.9693 14.579 14.9835 14.3176C14.9978 14.0562 14.9089 13.7997 14.7361 13.6031C14.5634 13.4064 14.3204 13.2854 14.0593 13.266C13.7983 13.2465 13.54 13.3302 13.34 13.499C12.53 14.21 11.305 14.159 10.557 13.383C10.199 13.0116 9.99905 12.5158 9.99905 12C9.99905 11.4842 10.199 10.9884 10.557 10.617C10.9168 10.2433 11.4069 10.0227 11.9252 10.0011C12.4436 9.9795 12.9503 10.1586 13.34 10.501C13.5404 10.6656 13.797 10.7458 14.0555 10.7248C14.314 10.7038 14.5542 10.5833 14.7255 10.3885C14.8967 10.1938 14.9856 9.94008 14.9734 9.68102C14.9612 9.42197 14.8488 9.17779 14.66 9.00001V8.99901Z" fill="currentColor"/>
</svg>
