<svg width="24" height="24" viewBox="0 0 24 24" fill="none" xmlns="http://www.w3.org/2000/svg">
<path fill-rule="evenodd" clip-rule="evenodd" d="M5.40762 2.22862C6.646 1.51364 7.97746 1.84794 9.00216 2.30612C10.0897 2.7924 10.9837 3.58963 11.6093 4.22443C11.9607 4.58105 12.8138 5.63756 13.6847 6.99101C14.2938 7.93769 14.9336 9.06298 15.4237 10.2315C15.6215 9.92556 15.8199 9.6532 16.0097 9.41407C16.3526 8.98206 16.6682 8.65713 16.9022 8.4371C17.0192 8.32701 17.1161 8.24291 17.1861 8.18455C17.2211 8.15537 17.2494 8.13259 17.2702 8.11619L17.2957 8.09635L17.304 8.09001L17.3071 8.08773L17.3083 8.08681C17.3083 8.08681 17.3093 8.08604 17.7585 8.68667L17.3093 8.08604C17.5274 7.92292 17.8168 7.89089 18.0654 8.00235C18.3139 8.1138 18.4824 8.35124 18.5057 8.62261C18.6018 9.74296 18.9746 10.7444 19.3862 11.8498C19.4047 11.8995 19.4233 11.9494 19.4419 11.9995C19.8645 13.1365 20.3134 14.3871 20.3426 15.8221C20.3747 17.3989 19.4779 18.8162 18.6021 19.7945C18.153 20.2961 17.6801 20.7156 17.2706 21.0214C17.2349 21.048 17.1995 21.074 17.1644 21.0992L17.2705 21.283C17.4776 21.6418 17.3547 22.1005 16.996 22.3076C16.6373 22.5147 16.1786 22.3918 15.9715 22.033L15.8588 21.8378C15.8554 21.8393 15.852 21.8408 15.8486 21.8422C15.3789 22.044 14.7791 22.2438 14.1202 22.3819C12.8351 22.6513 11.1593 22.7192 9.80979 21.903C8.58168 21.1602 7.72299 20.1462 6.94969 19.2117C6.91559 19.1705 6.88167 19.1295 6.84789 19.0886C6.09635 18.1794 5.41553 17.3558 4.4933 16.7125C4.26991 16.5567 4.14857 16.292 4.1763 16.021C4.20403 15.7501 4.37649 15.5154 4.62681 15.4081L4.9224 16.0974C4.62681 15.4081 4.62681 15.4081 4.62681 15.4081L4.6294 15.407L4.63289 15.4055L4.64254 15.4015L4.67245 15.3893C4.69706 15.3795 4.73095 15.3664 4.77373 15.3506C4.85928 15.3192 4.98055 15.2773 5.13442 15.231C5.44194 15.1384 5.88113 15.0276 6.4267 14.9466C6.72514 14.9024 7.05594 14.867 7.41478 14.8485C5.54655 12.3174 4.37738 9.40639 4.10149 8.61514C3.76608 7.6532 3.54357 6.49523 3.72312 5.32054C3.87549 4.32371 4.14972 2.95487 5.40762 2.22862ZM9.40066 14.9311C9.8427 14.9906 10.3059 15.0806 10.7859 15.2092C11.5361 15.4102 12.2951 15.8494 12.9846 16.3467C13.3956 16.6431 13.7981 16.9721 14.1786 17.3078C14.0781 16.8105 13.9945 16.2975 13.9433 15.7934C13.8574 14.9476 13.8565 14.0707 14.0575 13.3205C14.1794 12.8655 14.3239 12.4409 14.483 12.0465C14.0621 10.6001 13.2399 9.07187 12.4232 7.80269C11.5827 6.49636 10.7929 5.53302 10.5409 5.2773C9.95961 4.68743 9.22214 4.04761 8.38988 3.67547C7.49478 3.27524 6.75398 3.18335 6.15762 3.52766C5.58079 3.86069 5.36363 4.51524 5.2059 5.54718C5.07536 6.40125 5.23199 7.30144 5.51786 8.12128C5.81103 8.96209 7.22223 12.4352 9.40066 14.9311ZM14.9453 20.1706C14.6494 19.8485 14.2916 19.4742 13.8956 19.0901C13.3435 18.5547 12.7267 18.0101 12.1072 17.5633C11.4787 17.1101 10.8922 16.7906 10.3976 16.6581C8.88843 16.2537 7.57702 16.2924 6.64683 16.4304C6.6005 16.4373 6.55512 16.4444 6.51074 16.4517C7.05931 16.9883 7.52982 17.5583 7.97192 18.0939C8.01666 18.1481 8.06111 18.202 8.10533 18.2554C8.88467 19.1972 9.60041 20.0233 10.5861 20.6195C11.4504 21.1423 12.6625 21.1549 13.8125 20.9138C14.2838 20.815 14.7166 20.6792 15.069 20.541C15.0461 20.474 15.0219 20.4023 14.9966 20.3263C14.9799 20.2763 14.9628 20.2244 14.9453 20.1706ZM16.5335 19.6956C16.4868 19.6422 16.4368 19.5853 16.3836 19.5254C16.3486 19.486 16.3122 19.4452 16.2745 19.4032C16.1435 18.986 15.9982 18.489 15.8636 17.954C15.676 17.2082 15.5128 16.4018 15.4356 15.6419C15.3573 14.871 15.3739 14.2033 15.5064 13.7087C15.9108 12.1995 16.6 11.0831 17.1846 10.3466C17.2138 10.3099 17.2426 10.2742 17.2712 10.2394C17.4616 10.9828 17.72 11.6752 17.9627 12.3259C17.9873 12.3918 18.0117 12.4572 18.0359 12.5222C18.4618 13.668 18.8194 14.7009 18.8429 15.8526C18.8635 16.8626 18.2683 17.9186 17.4845 18.794C17.1634 19.1527 16.8294 19.4596 16.5335 19.6956ZM7.71916 6.88541C7.92626 7.24413 7.80336 7.70283 7.44464 7.90993L7.40748 7.93138C7.04876 8.13849 6.59007 8.01559 6.38296 7.65687C6.17586 7.29815 6.29876 6.83945 6.65748 6.63235L6.69464 6.6109C7.05336 6.40379 7.51205 6.52669 7.71916 6.88541ZM10.731 7.12001C10.9381 7.47873 10.8152 7.93742 10.4565 8.14453L10.4193 8.16598C10.0606 8.37309 9.60191 8.25018 9.39481 7.89146C9.1877 7.53274 9.31061 7.07405 9.66932 6.86694L9.70648 6.84549C10.0652 6.63838 10.5239 6.76129 10.731 7.12001ZM9.48183 9.93845C9.68894 10.2972 9.56603 10.7559 9.20731 10.963L9.17016 10.9844C8.81144 11.1915 8.35274 11.0686 8.14564 10.7099C7.93853 10.3512 8.06144 9.8925 8.42016 9.68539L8.45731 9.66394C8.81603 9.45683 9.27472 9.57973 9.48183 9.93845ZM12.4825 10.1538C12.6896 10.5125 12.5667 10.9712 12.208 11.1783L12.1709 11.1997C11.8121 11.4068 11.3534 11.2839 11.1463 10.9252C10.9392 10.5665 11.0621 10.1078 11.4209 9.90069L11.458 9.87924C11.8167 9.67213 12.2754 9.79504 12.4825 10.1538ZM11.2334 12.9722C11.4405 13.3309 11.3176 13.7896 10.9588 13.9967L10.9217 14.0182C10.563 14.2253 10.1043 14.1024 9.89717 13.7436C9.69007 13.3849 9.81298 12.9262 10.1717 12.7191L10.2089 12.6977C10.5676 12.4906 11.0263 12.6135 11.2334 12.9722Z" fill="currentColor"/>
</svg>
