<svg width="24" height="25" viewBox="0 0 24 25" fill="none" xmlns="http://www.w3.org/2000/svg">
<path d="M11.2466 22.4866V20.0706C10.9404 20.0438 10.5584 20.0034 10.147 19.9339C9.65104 19.8502 9.09608 19.7257 8.5728 19.5384C8.12183 19.377 7.65671 19.1554 7.27007 18.8441L7.10893 18.7054C6.60582 18.2363 6.21131 17.7343 5.9019 17.2572C5.42085 17.2448 5.03178 17.134 4.65679 16.9857L4.20268 16.7923C3.58204 16.5167 3.02782 16.1126 2.57573 15.6087L2.38823 15.387C1.96604 14.8551 1.66172 14.2403 1.49468 13.5843L1.43218 13.3011C1.28645 12.5388 1.32712 11.7521 1.55132 11.0091L1.64311 10.7337C1.87747 10.0985 2.24396 9.51879 2.71929 9.03352C3.26242 8.47904 3.93218 8.0641 4.67046 7.82454L4.94878 7.74348C5.37179 7.63394 5.80715 7.58408 6.24272 7.59212C6.23545 7.0035 6.31719 6.41586 6.48882 5.84993C6.72747 5.06311 7.1324 4.33653 7.67534 3.71907C8.21822 3.10169 8.88655 2.60718 9.63628 2.26985C10.3861 1.93251 11.1998 1.75973 12.022 1.76302C12.8441 1.76631 13.6558 1.94611 14.4029 2.28938C15.1499 2.63267 15.8151 3.13157 16.3531 3.75325C16.8911 4.37504 17.2897 5.10517 17.522 5.89388C17.6848 6.44645 17.7606 7.01886 17.7535 7.59212C18.2864 7.58193 18.8195 7.65899 19.3296 7.82454L19.6031 7.92317C20.233 8.17061 20.8047 8.54851 21.2798 9.03352C21.823 9.588 22.2236 10.266 22.4478 11.0091L22.524 11.2894C22.6578 11.8541 22.6882 12.4385 22.6138 13.014L22.5679 13.3011C22.4404 13.968 22.1727 14.599 21.7847 15.1536L21.6109 15.387C21.1888 15.9188 20.6599 16.3548 20.0591 16.6663L19.7964 16.7923C19.285 17.0195 18.7938 17.2625 18.0845 17.2757C17.8465 17.6405 17.5599 18.0201 17.2115 18.387L16.8902 18.7054C16.4762 19.0914 15.9418 19.3539 15.4263 19.5384C14.9032 19.7256 14.3489 19.8502 13.8531 19.9339C13.4389 20.0038 13.0539 20.0439 12.7466 20.0706V22.4866C12.7464 22.9007 12.4107 23.2366 11.9966 23.2366C11.5827 23.2364 11.2469 22.9005 11.2466 22.4866ZM6.77593 15.7689C7.05657 16.3341 7.48863 17.0076 8.13237 17.6077L8.2144 17.679C8.41849 17.8424 8.71071 17.9946 9.07866 18.1263C9.49135 18.274 9.95313 18.3796 10.396 18.4544C10.6537 18.4979 10.9003 18.5285 11.1197 18.5521C11.0572 18.3148 10.9735 18.0493 10.8667 17.7806C10.5481 16.9791 10.117 16.3608 9.66753 16.1497C9.09699 15.8818 8.51422 15.8428 7.78179 15.8197C7.47443 15.81 7.13495 15.8013 6.77593 15.7689ZM17.2222 15.7689C16.8636 15.8012 16.5244 15.81 16.2173 15.8197C15.4849 15.8428 14.9021 15.8818 14.3316 16.1497C13.8822 16.3609 13.4509 16.9792 13.1324 17.7806C13.0256 18.0493 12.941 18.3148 12.8785 18.5521C13.0981 18.5285 13.345 18.498 13.6031 18.4544C14.046 18.3796 14.5077 18.274 14.9205 18.1263C15.3412 17.9757 15.6635 17.7981 15.8677 17.6077L16.1246 17.3538C16.6286 16.8228 16.9807 16.2552 17.2222 15.7689ZM12.0162 3.26302C11.4081 3.26058 10.806 3.38855 10.2515 3.63802C9.6972 3.88747 9.20271 4.25282 8.80132 4.70931C8.39983 5.16591 8.10084 5.70364 7.92436 6.28548C7.7691 6.79753 7.71221 7.33353 7.75542 7.86556C8.22391 8.03108 8.66584 8.2679 9.06401 8.57063C9.39371 8.82137 9.4583 9.29269 9.20757 9.62239C8.95687 9.95189 8.48643 10.0154 8.15679 9.76497C7.78487 9.48213 7.35747 9.28167 6.90386 9.1761L6.70757 9.13704C6.24689 9.05884 5.77565 9.07886 5.32475 9.19563L5.13335 9.2513C4.62541 9.41612 4.16425 9.70184 3.79057 10.0833C3.46379 10.417 3.21155 10.8155 3.05034 11.2523L2.98686 11.4427C2.83274 11.9537 2.80463 12.4946 2.90483 13.0189L2.94878 13.2142C3.06371 13.6655 3.27259 14.0885 3.56304 14.4544L3.69194 14.6068C4.00297 14.9535 4.38405 15.2315 4.81108 15.4212L5.04839 15.5218C5.01997 15.441 4.99223 15.3677 4.97124 15.3011C4.93557 15.1879 4.9103 15.0956 4.89311 15.0296C4.88455 14.9967 4.87819 14.97 4.87358 14.9505L4.86577 14.9193V14.9163L4.86479 14.9144C4.86474 14.9141 4.86487 14.9135 5.59819 14.7562L4.86479 14.9134C4.80738 14.6451 4.90095 14.3668 5.10893 14.1878C5.31719 14.0089 5.60705 13.9578 5.86382 14.055C6.46841 14.2842 7.07006 14.2957 7.82964 14.3197C8.55661 14.3426 9.42485 14.3789 10.3052 14.7923C11.0911 15.1615 11.6354 15.9202 11.9996 16.6458C12.3637 15.9201 12.9088 15.1614 13.6949 14.7923C14.5753 14.379 15.4435 14.3426 16.1705 14.3197C16.9298 14.2957 17.5308 14.2842 18.1353 14.055C18.3921 13.9577 18.6819 14.0088 18.8902 14.1878C19.0983 14.3668 19.1918 14.645 19.1343 14.9134L18.4009 14.7562L19.1343 14.9144V14.9163C19.1342 14.9171 19.1336 14.9183 19.1333 14.9193C19.1329 14.9214 19.1321 14.9241 19.1314 14.9271C19.13 14.9332 19.1287 14.9411 19.1265 14.9505C19.1219 14.97 19.1146 14.9967 19.106 15.0296C19.0888 15.0956 19.0636 15.1878 19.0279 15.3011C19.0066 15.3686 18.9777 15.4427 18.9488 15.5247C19.0216 15.4928 19.1014 15.4597 19.188 15.4212L19.3677 15.3343C19.7812 15.1199 20.1456 14.8204 20.4361 14.4544L20.5562 14.2943C20.8232 13.9126 21.0066 13.4778 21.0943 13.0189L21.1255 12.8216C21.1767 12.4256 21.1561 12.0236 21.064 11.6351L21.0123 11.4427C20.858 10.9315 20.5822 10.4648 20.2085 10.0833C19.8815 9.74946 19.4879 9.48893 19.0542 9.31868L18.8658 9.2513C18.4215 9.10724 17.9526 9.05966 17.4898 9.1097L17.2916 9.13704C16.7652 9.22643 16.2683 9.44181 15.8433 9.76497L15.7798 9.80794C15.4555 10.0065 15.0267 9.93157 14.7916 9.62239C14.5408 9.29269 14.6054 8.82137 14.9351 8.57063L15.1714 8.40266C15.5051 8.17938 15.8646 7.99899 16.2417 7.86556C16.284 7.34489 16.2316 6.82017 16.0835 6.3177C15.9117 5.73448 15.6171 5.19449 15.2193 4.7347C14.8215 4.27489 14.3294 3.90558 13.7769 3.65169C13.2245 3.39786 12.6241 3.26547 12.0162 3.26302ZM6.33061 14.599H6.33159V14.598L6.33061 14.597V14.599Z" fill="currentColor"/>
</svg>
