<svg width="24" height="24" viewBox="0 0 24 24" fill="none" xmlns="http://www.w3.org/2000/svg">
<path d="M10.5002 10.5C9.6532 9.79004 8.3682 9.84204 7.5862 10.616C7.40089 10.7958 7.25356 11.0109 7.15295 11.2486C7.05233 11.4864 7.00049 11.7419 7.00049 12C7.00049 12.2582 7.05233 12.5137 7.15295 12.7515C7.25356 12.9892 7.40089 13.2043 7.5862 13.384C8.3682 14.158 9.6532 14.209 10.5002 13.5M16.5002 10.5C15.6532 9.79004 14.3682 9.84204 13.5862 10.616C13.4009 10.7958 13.2536 11.0109 13.1529 11.2486C13.0523 11.4864 13.0005 11.7419 13.0005 12C13.0005 12.2582 13.0523 12.5137 13.1529 12.7515C13.2536 12.9892 13.4009 13.2043 13.5862 13.384C14.3682 14.158 15.6532 14.209 16.5002 13.5M3 12C3 13.1819 3.23279 14.3522 3.68508 15.4442C4.13738 16.5361 4.80031 17.5282 5.63604 18.364C6.47177 19.1997 7.46392 19.8626 8.55585 20.3149C9.64778 20.7672 10.8181 21 12 21C13.1819 21 14.3522 20.7672 15.4442 20.3149C16.5361 19.8626 17.5282 19.1997 18.364 18.364C19.1997 17.5282 19.8626 16.5361 20.3149 15.4442C20.7672 14.3522 21 13.1819 21 12C21 10.8181 20.7672 9.64778 20.3149 8.55585C19.8626 7.46392 19.1997 6.47177 18.364 5.63604C17.5282 4.80031 16.5361 4.13738 15.4442 3.68508C14.3522 3.23279 13.1819 3 12 3C10.8181 3 9.64778 3.23279 8.55585 3.68508C7.46392 4.13738 6.47177 4.80031 5.63604 5.63604C4.80031 6.47177 4.13738 7.46392 3.68508 8.55585C3.23279 9.64778 3 10.8181 3 12Z" stroke="currentColor" stroke-width="1.5" stroke-linecap="round" stroke-linejoin="round"/>
</svg>
