<svg width="24" height="24" viewBox="0 0 24 24" fill="none" xmlns="http://www.w3.org/2000/svg">
<path d="M5.63807 5.63426C4.80201 6.46967 4.13868 7.46156 3.68595 8.55332C3.23323 9.64508 2.99998 10.8153 2.99951 11.9972C2.99905 13.1791 3.23138 14.3496 3.68325 15.4417C4.13511 16.5338 4.79766 17.5262 5.63307 18.3623C6.46847 19.1983 7.46037 19.8617 8.55213 20.3144C9.64389 20.7671 10.8141 21.0004 11.996 21.0008C13.1779 21.0013 14.3484 20.7689 15.4405 20.3171C16.5326 19.8652 17.525 19.2027 18.3611 18.3673M20.0471 16.0353C20.8968 14.3438 21.1916 12.4276 20.8895 10.5589C20.5875 8.69033 19.7039 6.96453 18.3646 5.62695C17.0252 4.28938 15.2983 3.40814 13.4293 3.10856C11.5603 2.80898 9.64437 3.10631 7.95407 3.95826M10.5001 10.5003C10.0851 10.1578 9.55852 9.98033 9.02092 10.0017C8.48333 10.0231 7.97248 10.2419 7.58608 10.6163C7.40077 10.7961 7.25344 11.0112 7.15282 11.2489C7.05221 11.4867 7.00037 11.7422 7.00037 12.0003C7.00037 12.2585 7.05221 12.514 7.15282 12.7518C7.25344 12.9895 7.40077 13.2046 7.58608 13.3843C7.97259 13.7585 8.4834 13.9772 9.02094 13.9986C9.55847 14.02 10.0851 13.8426 10.5001 13.5003M16.5002 10.5002C16.1824 10.2382 15.7974 10.071 15.389 10.0176C14.9807 9.96415 14.5656 10.0267 14.1912 10.1982M3.00012 3.00024L21.0001 21.0002" stroke="currentColor" stroke-width="1.5" stroke-linecap="round" stroke-linejoin="round"/>
</svg>
