<svg width="24" height="24" viewBox="0 0 24 24" fill="none" xmlns="http://www.w3.org/2000/svg">
<path d="M11.1048 18.7899L10.1048 19.7819C9.33774 20.5423 8.30495 20.9743 7.22497 20.9868C6.14499 20.9992 5.10252 20.591 4.31811 19.8486C3.53371 19.1061 3.06889 18.0877 3.02199 17.0086C2.9751 15.9296 3.3498 14.8746 4.06684 14.0669L4.22384 13.9009L12.5058 5.49994L14.0058 6.99994L17.4558 3.60894C17.836 3.23221 18.3467 3.01651 18.8818 3.0067C19.4169 2.99688 19.9352 3.19371 20.3289 3.55625C20.7226 3.91879 20.9614 4.41913 20.9957 4.95323C21.03 5.48733 20.857 6.01408 20.5128 6.42394L20.3968 6.54994L17.0058 9.99994L18.5058 11.4999L14.8378 15.1169M10.5 7.49988L16.5 13.4999M11 17.9999C11 18.3938 11.0776 18.784 11.2284 19.1479C11.3791 19.5119 11.6001 19.8426 11.8787 20.1212C12.1573 20.3998 12.488 20.6208 12.8519 20.7715C13.2159 20.9223 13.606 20.9999 14 20.9999C14.394 20.9999 14.7841 20.9223 15.1481 20.7715C15.512 20.6208 15.8427 20.3998 16.1213 20.1212C16.3999 19.8426 16.6209 19.5119 16.7716 19.1479C16.9224 18.784 17 18.3938 17 17.9999C17 17.6059 16.9224 17.2158 16.7716 16.8518C16.6209 16.4879 16.3999 16.1571 16.1213 15.8786C15.8427 15.6 15.512 15.379 15.1481 15.2282C14.7841 15.0775 14.394 14.9999 14 14.9999C13.606 14.9999 13.2159 15.0775 12.8519 15.2282C12.488 15.379 12.1573 15.6 11.8787 15.8786C11.6001 16.1571 11.3791 16.4879 11.2284 16.8518C11.0776 17.2158 11 17.6059 11 17.9999Z" stroke="currentColor" stroke-width="1.5" stroke-linecap="round" stroke-linejoin="round"/>
</svg>
