<svg width="24" height="24" viewBox="0 0 24 24" fill="none" xmlns="http://www.w3.org/2000/svg">
<path d="M18 18H4.99999L3.13499 8.673C3.1253 8.62294 3.13115 8.57112 3.15175 8.52449C3.17235 8.47785 3.20672 8.43863 3.25024 8.41208C3.29377 8.38553 3.34437 8.37292 3.39526 8.37594C3.44616 8.37897 3.49491 8.39748 3.53499 8.429L7.99999 12L9.59999 9.6M11.196 7.206L12 6L16 12L20.464 8.429C20.504 8.39711 20.5529 8.37828 20.604 8.37506C20.6551 8.37184 20.7059 8.38439 20.7497 8.411C20.7934 8.43761 20.8279 8.477 20.8485 8.52386C20.8692 8.57072 20.8749 8.62278 20.865 8.673L19.502 15.491M3 3L21 21" stroke="currentColor" stroke-width="1.5" stroke-linecap="round" stroke-linejoin="round"/>
</svg>
