<svg width="24" height="24" viewBox="0 0 24 24" fill="none" xmlns="http://www.w3.org/2000/svg">
<path d="M14 7C14.5304 7 15.0391 6.78929 15.4142 6.41421C15.7893 6.03914 16 5.53043 16 5C16 4.46957 15.7893 3.96086 15.4142 3.58579C15.0391 3.21071 14.5304 3 14 3H10C9.46957 3 8.96086 3.21071 8.58579 3.58579C8.21071 3.96086 8 4.46957 8 5C8 5.53043 8.21071 6.03914 8.58579 6.41421C8.96086 6.78929 9.46957 7 10 7M14 7H10M14 7V12.092C13.9999 12.6843 13.8246 13.2632 13.496 13.756L12.504 15.244C12.1754 15.7368 12.0001 16.3157 12 16.908M10 7V12.092C10.0001 12.6843 10.1754 13.2632 10.504 13.756L11.496 15.244C11.8246 15.7368 11.9999 16.3157 12 16.908M11 21H13M12 21V16.908M10 11H14" stroke="currentColor" stroke-width="1.5" stroke-linecap="round" stroke-linejoin="round"/>
</svg>
