<svg width="24" height="24" viewBox="0 0 24 24" fill="none" xmlns="http://www.w3.org/2000/svg">
<path d="M6.73 17.0179C5.5056 15.9459 4.63727 14.5259 4.24091 12.9475C3.84454 11.3691 3.93899 9.70732 4.51164 8.18399C5.08429 6.66066 6.10791 5.3482 7.4459 4.42178C8.78388 3.49535 10.3726 2.99902 12 2.99902C13.6274 2.99902 15.2161 3.49535 16.5541 4.42178C17.8921 5.3482 18.9157 6.66066 19.4884 8.18399C20.061 9.70732 20.1555 11.3691 19.7591 12.9475C19.3627 14.5259 18.4944 15.9459 17.27 17.0179M11 6.99988C10.2044 6.99988 9.44129 7.31595 8.87868 7.87856C8.31607 8.44117 8 9.20423 8 9.99988M5 18.9999C5 19.5303 5.21071 20.039 5.58579 20.4141C5.96086 20.7892 6.46957 20.9999 7 20.9999H17C17.5304 20.9999 18.0391 20.7892 18.4142 20.4141C18.7893 20.039 19 19.5303 19 18.9999C19 18.4694 18.7893 17.9607 18.4142 17.5857C18.0391 17.2106 17.5304 16.9999 17 16.9999H7C6.46957 16.9999 5.96086 17.2106 5.58579 17.5857C5.21071 17.9607 5 18.4694 5 18.9999Z" stroke="currentColor" stroke-width="1.5" stroke-linecap="round" stroke-linejoin="round"/>
</svg>
