<svg width="24" height="24" viewBox="0 0 24 24" fill="none" xmlns="http://www.w3.org/2000/svg">
<path d="M21 12.5V7.99099C20.9994 7.64206 20.9066 7.29949 20.731 6.99797C20.5554 6.69645 20.3032 6.44669 20 6.27399L13 2.26599C12.6954 2.092 12.3508 2.00049 12 2.00049C11.6492 2.00049 11.3046 2.092 11 2.26599L4 6.27299C3.381 6.62799 3 7.28299 3 7.99099V16.009C3 16.718 3.381 17.372 4 17.726L11 21.734C11.3046 21.908 11.6492 21.9995 12 21.9995M12 21.9995C12.3508 21.9995 12.6954 21.908 13 21.734M12 21.9995V12M12 12L20.73 6.95996M12 12L3.27002 6.95996M16 19H22M19 16V22" stroke="currentColor" stroke-width="1.5" stroke-linecap="round" stroke-linejoin="round"/>
</svg>
