<svg width="24" height="24" viewBox="0 0 24 24" fill="none" xmlns="http://www.w3.org/2000/svg">
<path d="M12 21.9995C11.6492 21.9995 11.3046 21.908 11 21.734L4 17.726C3.381 17.372 3 16.718 3 16.009V7.99101C3 7.28301 3.381 6.62801 4 6.27301L11 2.26501C11.3046 2.09103 11.6492 1.99951 12 1.99951C12.3508 1.99951 12.6954 2.09103 13 2.26501L20 6.27301C20.3032 6.44571 20.5554 6.69547 20.731 6.99699C20.9066 7.29851 20.9994 7.64108 21 7.99001V16.008C21 16.716 20.619 17.371 20 17.726L13 21.734C12.6954 21.908 12.3508 21.9995 12 21.9995ZM12 21.9995V12M12 12L20.73 6.95996M12 12L3.27002 6.95996" stroke="currentColor" stroke-width="1.5" stroke-linecap="round" stroke-linejoin="round"/>
</svg>
