<svg width="24" height="24" viewBox="0 0 24 24" fill="none" xmlns="http://www.w3.org/2000/svg">
<path d="M20.83 16.809C20.94 16.561 21 16.289 21 16.008V7.99001C20.9994 7.64108 20.9066 7.29851 20.731 6.99699C20.5554 6.69547 20.3032 6.44571 20 6.27301L13 2.26501C12.6954 2.09103 12.3508 1.99951 12 1.99951C11.6492 1.99951 11.3046 2.09103 11 2.26501L7.988 3.99001M5.441 5.44801L4 6.27301C3.381 6.62801 3 7.28301 3 7.99101V16.009C3 16.718 3.381 17.372 4 17.726L11 21.734C11.3046 21.908 11.6492 21.9995 12 21.9995M12 21.9995C12.3508 21.9995 12.6954 21.908 13 21.734L18.544 18.56M12 21.9995V12L3.27002 6.95996M14.5322 10.538L20.7302 6.95996M3 3L21 21" stroke="currentColor" stroke-width="1.5" stroke-linecap="round" stroke-linejoin="round"/>
</svg>
