<svg width="24" height="24" viewBox="0 0 24 24" fill="none" xmlns="http://www.w3.org/2000/svg">
<path d="M17 18.5C16.2156 18.8596 15.3629 19.0457 14.5 19.0457C13.6371 19.0457 12.7844 18.8596 12 18.5C11.18 18.217 10.3083 18.1151 9.44514 18.2014C8.58194 18.2877 7.74773 18.5602 7 19C7.53542 18.8147 8.00742 18.4816 8.36137 18.0391C8.71531 17.5967 8.93673 17.0631 9 16.5V9.00003M10.192 6.17503C10.6256 5.74771 11.151 5.42498 11.7281 5.23145C12.3053 5.03791 12.9191 4.97867 13.5226 5.05824C14.1261 5.1378 14.7036 5.35408 15.2109 5.69058C15.7182 6.02708 16.142 6.47494 16.45 7.00003M13 13H7M3 3L21 21" stroke="currentColor" stroke-width="1.5" stroke-linecap="round" stroke-linejoin="round"/>
</svg>
