<svg width="24" height="24" viewBox="0 0 24 24" fill="none" xmlns="http://www.w3.org/2000/svg">
<path d="M15 13H11.5C10.8078 13 10.1311 12.7947 9.55551 12.4101C8.97993 12.0256 8.53133 11.4789 8.26642 10.8394C8.00152 10.1999 7.9322 9.49612 8.06725 8.81718C8.2023 8.13825 8.53564 7.51461 9.02513 7.02513C9.51461 6.53564 10.1383 6.2023 10.8172 6.06725C11.4961 5.9322 12.1999 6.00152 12.8394 6.26642C13.4789 6.53133 14.0256 6.97993 14.4101 7.55551C14.7947 8.13108 15 8.80777 15 9.5V16H8M12 3V3.01M12 19V21" stroke="currentColor" stroke-width="1.5" stroke-linecap="round" stroke-linejoin="round"/>
</svg>
