<svg width="24" height="24" viewBox="0 0 24 24" fill="none" xmlns="http://www.w3.org/2000/svg">
<path d="M14 20.01V20M6 13L8.386 12.1C8.5842 12.0253 8.75357 11.8896 8.86969 11.7125C8.98581 11.5353 9.04268 11.3259 9.03211 11.1144C9.02155 10.9028 8.94409 10.7001 8.81089 10.5354C8.6777 10.3707 8.49566 10.2526 8.291 10.198L6.777 9.794C6.57273 9.73976 6.39089 9.6222 6.25759 9.45819C6.12429 9.29417 6.04638 9.09214 6.03505 8.88109C6.02372 8.67005 6.07955 8.46083 6.19453 8.28349C6.3095 8.10615 6.47771 7.96979 6.675 7.894L9 7M3 14V15C3 15.7956 3.31607 16.5587 3.87868 17.1213C4.44129 17.6839 5.20435 18 6 18H10.161C10.582 18 10.9982 17.9114 11.3827 17.74C11.7672 17.5686 12.1113 17.3182 12.3927 17.005C12.674 16.6919 12.8863 16.3231 13.0158 15.9225C13.1452 15.5219 13.1889 15.0986 13.144 14.68L12 4M16 17L17 18H19C19.3642 17.9999 19.7214 17.9004 20.0332 17.7122C20.3449 17.524 20.5994 17.2542 20.7691 16.932C20.9388 16.6098 21.0173 16.2473 20.9961 15.8838C20.975 15.5202 20.8549 15.1693 20.649 14.869L17.996 11" stroke="currentColor" stroke-width="1.5" stroke-linecap="round" stroke-linejoin="round"/>
</svg>
