<svg width="24" height="24" viewBox="0 0 24 24" fill="none" xmlns="http://www.w3.org/2000/svg">
<path d="M6 6H14C14.7956 6 15.5587 6.31607 16.1213 6.87868C16.6839 7.44129 17 8.20435 17 9C17 9.79565 16.6839 10.5587 16.1213 11.1213C15.5587 11.6839 14.7956 12 14 12M14 12C14.7956 12 15.5587 12.3161 16.1213 12.8787C16.6839 13.4413 17 14.2044 17 15C17 15.7956 16.6839 16.5587 16.1213 17.1213C15.5587 17.6839 14.7956 18 14 18H6M14 12H8M8 6V18M9 3V6M13 3V6M9 18V21M13 18V21" stroke="currentColor" stroke-width="1.5" stroke-linecap="round" stroke-linejoin="round"/>
</svg>
