<svg width="24" height="24" viewBox="0 0 24 24" fill="none" xmlns="http://www.w3.org/2000/svg">
<path d="M10 12C10 12.394 9.9224 12.7841 9.77164 13.1481C9.62087 13.512 9.3999 13.8427 9.12132 14.1213C8.84274 14.3999 8.51203 14.6209 8.14805 14.7716C7.78407 14.9224 7.39397 15 7 15C6.60603 15 6.21593 14.9224 5.85195 14.7716C5.48797 14.6209 5.15726 14.3999 4.87868 14.1213C4.6001 13.8427 4.37913 13.512 4.22836 13.1481C4.0776 12.7841 4 12.394 4 12C4 11.606 4.0776 11.2159 4.22836 10.8519C4.37913 10.488 4.6001 10.1573 4.87868 9.87868C5.15726 9.6001 5.48797 9.37913 5.85195 9.22836C6.21593 9.0776 6.60603 9 7 9C7.39397 9 7.78407 9.0776 8.14805 9.22836C8.51203 9.37913 8.84274 9.6001 9.12132 9.87868C9.3999 10.1573 9.62087 10.488 9.77164 10.8519C9.9224 11.2159 10 11.606 10 12ZM10 12H13M13 12L15 9.5M13 12L15 14.5M14 7C14 7.79565 14.3161 8.55871 14.8787 9.12132C15.4413 9.68393 16.2044 10 17 10C17.7956 10 18.5587 9.68393 19.1213 9.12132C19.6839 8.55871 20 7.79565 20 7C20 6.20435 19.6839 5.44129 19.1213 4.87868C18.5587 4.31607 17.7956 4 17 4C16.2044 4 15.4413 4.31607 14.8787 4.87868C14.3161 5.44129 14 6.20435 14 7ZM14 17C14 17.7956 14.3161 18.5587 14.8787 19.1213C15.4413 19.6839 16.2044 20 17 20C17.7956 20 18.5587 19.6839 19.1213 19.1213C19.6839 18.5587 20 17.7956 20 17C20 16.2044 19.6839 15.4413 19.1213 14.8787C18.5587 14.3161 17.7956 14 17 14C16.2044 14 15.4413 14.3161 14.8787 14.8787C14.3161 15.4413 14 16.2044 14 17Z" stroke="currentColor" stroke-width="1.5" stroke-linecap="round" stroke-linejoin="round"/>
</svg>
