<svg width="24" height="24" viewBox="0 0 24 24" fill="none" xmlns="http://www.w3.org/2000/svg">
<path fill-rule="evenodd" clip-rule="evenodd" d="M12 1.25C12.4142 1.25 12.75 1.58579 12.75 2V3.28218C14.7958 3.45811 16.724 4.34958 18.1872 5.81282C19.6504 7.27605 20.5419 9.20416 20.7178 11.25H22C22.4142 11.25 22.75 11.5858 22.75 12C22.75 12.4142 22.4142 12.75 22 12.75H20.7178C20.5419 14.7958 19.6504 16.724 18.1872 18.1872C16.724 19.6504 14.7958 20.5419 12.75 20.7178V22C12.75 22.4142 12.4142 22.75 12 22.75C11.5858 22.75 11.25 22.4142 11.25 22V20.7178C9.20416 20.5419 7.27605 19.6504 5.81282 18.1872C4.34958 16.724 3.45811 14.7958 3.28218 12.75H2C1.58579 12.75 1.25 12.4142 1.25 12C1.25 11.5858 1.58579 11.25 2 11.25H3.28218C3.45811 9.20416 4.34958 7.27605 5.81282 5.81282C7.27605 4.34958 9.20416 3.45811 11.25 3.28218V2C11.25 1.58579 11.5858 1.25 12 1.25ZM12 4.75C10.0772 4.75 8.23311 5.51384 6.87348 6.87348C5.51384 8.23311 4.75 10.0772 4.75 12C4.75 13.9228 5.51384 15.7669 6.87348 17.1265C8.23311 18.4862 10.0772 19.25 12 19.25C13.9228 19.25 15.7669 18.4862 17.1265 17.1265C18.4862 15.7669 19.25 13.9228 19.25 12C19.25 10.0772 18.4862 8.23311 17.1265 6.87348C15.7669 5.51384 13.9228 4.75 12 4.75ZM9.34835 9.34835C10.0516 8.64509 11.0054 8.25 12 8.25C12.9946 8.25 13.9484 8.64509 14.6517 9.34835C15.3549 10.0516 15.75 11.0054 15.75 12C15.75 12.9946 15.3549 13.9484 14.6517 14.6517C13.9484 15.3549 12.9946 15.75 12 15.75C11.0054 15.75 10.0516 15.3549 9.34835 14.6517C8.64509 13.9484 8.25 12.9946 8.25 12C8.25 11.0054 8.64509 10.0516 9.34835 9.34835ZM12 9.75C11.4033 9.75 10.831 9.98705 10.409 10.409C9.98705 10.831 9.75 11.4033 9.75 12C9.75 12.5967 9.98705 13.169 10.409 13.591C10.831 14.0129 11.4033 14.25 12 14.25C12.5967 14.25 13.169 14.0129 13.591 13.591C14.0129 13.169 14.25 12.5967 14.25 12C14.25 11.4033 14.0129 10.831 13.591 10.409C13.169 9.98705 12.5967 9.75 12 9.75Z" fill="currentColor"/>
</svg>
