<svg width="24" height="24" viewBox="0 0 24 24" fill="none" xmlns="http://www.w3.org/2000/svg">
<path d="M3 10V11C3 12.0609 3.42143 13.0783 4.17157 13.8284C4.92172 14.5786 5.93913 15 7 15H9C9.53043 15 10.0391 14.7893 10.4142 14.4142C10.7893 14.0391 11 13.5304 11 13V10M7 19.01V19M14 15.01V15M17 15H19C19.3642 14.9999 19.7214 14.9004 20.0332 14.7122C20.3449 14.524 20.5994 14.2542 20.7691 13.932C20.9388 13.6098 21.0173 13.2473 20.9961 12.8838C20.975 12.5202 20.8549 12.1693 20.649 11.869L17.996 8" stroke="currentColor" stroke-width="1.5" stroke-linecap="round" stroke-linejoin="round"/>
</svg>
