<svg width="24" height="24" viewBox="0 0 24 24" fill="none" xmlns="http://www.w3.org/2000/svg">
<path fill-rule="evenodd" clip-rule="evenodd" d="M12 1.25C12.4142 1.25 12.75 1.58579 12.75 2V3.27794C13.0224 3.30125 13.2944 3.33739 13.5651 3.38647C15.3139 3.70354 16.9247 4.54565 18.1831 5.80074C19.4415 7.05582 20.2879 8.66437 20.6096 10.4123C20.6607 10.6904 20.6983 10.97 20.7222 11.25H22C22.4142 11.25 22.75 11.5858 22.75 12C22.75 12.4142 22.4142 12.75 22 12.75H20.7216C20.6373 13.7245 20.3897 14.6835 19.9839 15.5856C19.814 15.9634 19.37 16.1319 18.9923 15.9619C18.6145 15.792 18.446 15.348 18.616 14.9703C19.0278 14.0548 19.2429 13.0685 19.2537 12.0747C19.2512 12.0501 19.25 12.0252 19.25 12C19.25 11.9745 19.2513 11.9494 19.2537 11.9246C19.2497 11.5103 19.21 11.0952 19.1343 10.6838C18.8678 9.23552 18.1665 7.90273 17.1238 6.8628C16.0811 5.82287 14.7465 5.12512 13.2975 4.8624C12.8917 4.78883 12.4823 4.75035 12.0737 4.74643C12.0494 4.74879 12.0249 4.75 12 4.75C11.9754 4.75 11.9511 4.74882 11.9271 4.7465C10.9262 4.75714 9.93322 4.975 9.01242 5.39213C8.63512 5.56305 8.19069 5.39575 8.01977 5.01844C7.84885 4.64114 8.01615 4.19671 8.39346 4.02579C9.30157 3.61441 10.2679 3.36362 11.25 3.27865V2C11.25 1.58579 11.5858 1.25 12 1.25ZM2.46967 2.46967C2.76256 2.17678 3.23744 2.17678 3.53033 2.46967L6.75439 5.69373C6.80305 5.72418 6.84895 5.76074 6.89101 5.8034C6.93046 5.84341 6.96451 5.88675 6.99314 5.93248L10.3194 9.25869C10.3551 9.28406 10.3891 9.31293 10.4209 9.3453C10.4496 9.37443 10.4753 9.40531 10.4982 9.43758L14.5782 13.5175C14.6039 13.537 14.6287 13.5584 14.6523 13.5817C14.6787 13.6077 14.7028 13.6352 14.7246 13.6639L18.1547 17.094C18.1652 17.1033 18.1756 17.113 18.1857 17.1231C18.1976 17.1349 18.209 17.1469 18.22 17.1593L21.5303 20.4697C21.8232 20.7626 21.8232 21.2374 21.5303 21.5303C21.2374 21.8232 20.7626 21.8232 20.4697 21.5303L17.6365 18.6971C16.9519 19.2783 16.1807 19.7517 15.3494 20.0993C14.5196 20.4463 13.6428 20.6627 12.75 20.7422V22C12.75 22.4142 12.4142 22.75 12 22.75C11.5858 22.75 11.25 22.4142 11.25 22V20.7467C10.35 20.672 9.4655 20.4583 8.62829 20.1119C7.56246 19.6709 6.59433 19.0236 5.77962 18.207C4.9649 17.3905 4.31966 16.421 3.88102 15.3542C3.53888 14.5221 3.3277 13.6436 3.25358 12.75H2C1.58579 12.75 1.25 12.4142 1.25 12C1.25 11.5858 1.58579 11.25 2 11.25H3.25817C3.3383 10.3508 3.55724 9.46795 3.9085 8.63314C4.25546 7.80857 4.7262 7.04352 5.30319 6.36385L2.46967 3.53033C2.17678 3.23744 2.17678 2.76256 2.46967 2.46967ZM6.36812 7.42878C5.92575 7.9681 5.56266 8.56949 5.2911 9.21489C4.94412 10.0395 4.75297 10.9208 4.72675 11.814C4.74193 11.8735 4.75 11.9358 4.75 12C4.75 12.066 4.74148 12.1299 4.72549 12.1909C4.74565 13.0806 4.92947 13.9596 5.26832 14.7837C5.63177 15.6677 6.16639 16.471 6.84145 17.1475C7.5165 17.8241 8.31866 18.3605 9.20177 18.7259C10.0296 19.0684 10.9133 19.2544 11.808 19.2748C11.8693 19.2586 11.9336 19.25 12 19.25C12.0646 19.25 12.1273 19.2582 12.1872 19.2735C13.0747 19.2474 13.9505 19.0584 14.7707 18.7154C15.4216 18.4432 16.0281 18.078 16.5715 17.6322L14.0697 15.1304C13.8724 15.262 13.6626 15.3749 13.4429 15.4673C12.9866 15.6593 12.4968 15.759 12.0018 15.7607C11.5068 15.7624 11.0163 15.6661 10.5587 15.4773C10.1011 15.2885 9.68538 15.011 9.33556 14.6608C8.98573 14.3106 8.70871 13.8945 8.52047 13.4367C8.33224 12.9789 8.23651 12.4883 8.23881 11.9933C8.24111 11.4983 8.3414 11.0086 8.53389 10.5525C8.62599 10.3343 8.73832 10.1259 8.86912 9.92978L6.36812 7.42878ZM9.96558 11.0262C9.94804 11.0623 9.93146 11.0988 9.91584 11.1358C9.80035 11.4094 9.74018 11.7032 9.73879 12.0002C9.73741 12.2973 9.79485 12.5916 9.90779 12.8663C10.0207 13.141 10.1869 13.3906 10.3968 13.6008C10.6067 13.8109 10.8562 13.9774 11.1307 14.0907C11.4053 14.2039 11.6996 14.2617 11.9966 14.2607C12.2936 14.2597 12.5875 14.1998 12.8612 14.0847C12.8991 14.0688 12.9364 14.0518 12.9732 14.0339L9.96558 11.0262ZM12.6054 8.96549C12.783 8.59126 13.2303 8.43183 13.6045 8.60939C14.3634 8.96944 14.9811 9.57614 15.3558 10.3256C15.5411 10.6961 15.3909 11.1466 15.0204 11.3318C14.6499 11.517 14.1994 11.3669 14.0142 10.9964C13.7889 10.5458 13.4167 10.1805 12.9615 9.96459C12.5873 9.78703 12.4279 9.33972 12.6054 8.96549Z" fill="currentColor"/>
</svg>
