<svg width="24" height="24" viewBox="0 0 24 24" fill="none" xmlns="http://www.w3.org/2000/svg">
<path d="M16.9999 18.4999C16.2155 18.8595 15.3628 19.0456 14.4999 19.0456C13.637 19.0456 12.7843 18.8595 11.9999 18.4999C11.1799 18.2169 10.3082 18.115 9.44504 18.2013C8.58184 18.2876 7.74763 18.5601 6.9999 18.9999C7.53533 18.8146 8.00733 18.4815 8.36127 18.039C8.71522 17.5966 8.93663 17.063 8.9999 16.4999V8.99994C9.00518 8.12387 9.29793 7.27376 9.83319 6.5802C10.3684 5.88664 11.1166 5.38798 11.9627 5.16084C12.8089 4.93369 13.7062 4.99061 14.5168 5.32286C15.3274 5.65511 16.0066 6.2443 16.4499 6.99994M13.8999 12.9999H6.8999" stroke="currentColor" stroke-width="1.5" stroke-linecap="round" stroke-linejoin="round"/>
</svg>
