<svg width="24" height="24" viewBox="0 0 24 24" fill="none" xmlns="http://www.w3.org/2000/svg">
<path d="M15 5H4H7C8.06087 5 9.07828 5.42143 9.82843 6.17157C10.5786 6.92172 11 7.93913 11 9C11 10.0609 10.5786 11.0783 9.82843 11.8284C9.07828 12.5786 8.06087 13 7 13H4L10 19M21.0001 17L16.4141 12.586C16.0369 12.2216 15.5317 12.0201 15.0073 12.0246C14.4829 12.0292 13.9813 12.2395 13.6104 12.6103C13.2396 12.9811 13.0293 13.4828 13.0247 14.0072C13.0202 14.5316 13.2218 15.0368 13.5861 15.414L14.2931 16.121" stroke="currentColor" stroke-width="1.5" stroke-linecap="round" stroke-linejoin="round"/>
</svg>
