<svg width="24" height="24" viewBox="0 0 24 24" fill="none" xmlns="http://www.w3.org/2000/svg">
<path d="M18.531 14.5239C19.0209 13.2584 19.1324 11.8777 18.8518 10.5499C18.5713 9.22212 17.9108 8.00453 16.9509 7.04529C15.9909 6.08605 14.7728 5.42655 13.4448 5.14704C12.1168 4.86752 10.7362 4.98006 9.47099 5.47094M7.04899 7.05294C5.7367 8.36616 4.99983 10.1469 5.00049 12.0034C5.00115 13.8599 5.73927 15.6401 7.05249 16.9524C8.36571 18.2647 10.1465 19.0016 12.003 19.0009C13.8595 19.0003 15.6397 18.2622 16.952 16.9489M4 4L7 7M20 4L17 7M4 20L7 17M20 20L17 17M3 3L21 21" stroke="currentColor" stroke-width="1.5" stroke-linecap="round" stroke-linejoin="round"/>
</svg>
