<svg width="24" height="24" viewBox="0 0 24 24" fill="none" xmlns="http://www.w3.org/2000/svg">
<path d="M5 6C5 6.39397 5.18106 6.78407 5.53284 7.14805C5.88463 7.51203 6.40024 7.84274 7.05025 8.12132C7.70026 8.3999 8.47194 8.62087 9.32122 8.77164C10.1705 8.9224 11.0807 9 12 9C12.9193 9 13.8295 8.9224 14.6788 8.77164C15.5281 8.62087 16.2997 8.3999 16.9497 8.12132C17.5998 7.84274 18.1154 7.51203 18.4672 7.14805C18.8189 6.78407 19 6.39397 19 6M5 6C5 5.60603 5.18106 5.21593 5.53284 4.85195C5.88463 4.48797 6.40024 4.15726 7.05025 3.87868C7.70026 3.6001 8.47194 3.37913 9.32122 3.22836C10.1705 3.0776 11.0807 3 12 3C12.9193 3 13.8295 3.0776 14.6788 3.22836C15.5281 3.37913 16.2997 3.6001 16.9497 3.87868C17.5998 4.15726 18.1154 4.48797 18.4672 4.85195C18.8189 5.21593 19 5.60603 19 6M5 6V18C5 19.657 8.134 21 12 21C12.173 21 12.345 20.997 12.515 20.992M19 6V12M16 19H22M19 16V22" stroke="currentColor" stroke-width="1.5" stroke-linecap="round" stroke-linejoin="round"/>
</svg>
