<svg width="24" height="24" viewBox="0 0 24 24" fill="none" xmlns="http://www.w3.org/2000/svg">
<path d="M11.1749 11.178C10.8798 11.3117 10.6216 11.5151 10.4225 11.7706C10.2234 12.0262 10.0893 12.3264 10.0319 12.6452C9.97449 12.9641 9.99538 13.2921 10.0928 13.6011C10.1902 13.9101 10.3612 14.1908 10.5911 14.419C10.821 14.6473 11.103 14.8163 11.4126 14.9115C11.7223 15.0066 12.0505 15.0252 12.3689 14.9655C12.6873 14.9057 12.9865 14.7696 13.2406 14.5686C13.4948 14.3677 13.6963 14.108 13.8279 13.812M14.5 10.5L15.5 9.5M8.62104 4.61209C10.2597 3.94826 12.0576 3.78178 13.7903 4.13343C15.5229 4.48507 17.1137 5.33927 18.3639 6.58938C19.6141 7.8395 20.4685 9.43017 20.8203 11.1628C21.172 12.8955 21.0057 14.6934 20.342 16.3321M18.826 18.8201C18.4555 19.2512 18.045 19.6463 17.6 20.0001H6.40004C5.36254 19.1755 4.51994 18.132 3.93244 16.9441C3.34494 15.7562 3.02704 14.4532 3.00144 13.1282C2.97583 11.8032 3.24317 10.4888 3.78434 9.27912C4.32551 8.06939 5.12717 6.99411 6.13204 6.13009M3 3L21 21" stroke="currentColor" stroke-width="1.5" stroke-linecap="round" stroke-linejoin="round"/>
</svg>
