<svg width="24" height="24" viewBox="0 0 24 24" fill="none" xmlns="http://www.w3.org/2000/svg">
<path d="M4 6C4 7.657 7.582 9 12 9C16.418 9 20 7.657 20 6M4 6C4 4.343 7.582 3 12 3C16.418 3 20 4.343 20 6M4 6V18C4 19.657 7.582 21 12 21C16.418 21 20 19.657 20 18V6M4 15C4.3895 15.0082 4.77512 14.9214 5.12358 14.7472C5.47203 14.573 5.77283 14.3165 6 14C6.22717 13.6835 6.52797 13.4271 6.87642 13.2529C7.22488 13.0787 7.6105 12.9919 8 13C8.3895 12.9919 8.77512 13.0787 9.12358 13.2529C9.47203 13.4271 9.77283 13.6835 10 14C10.2272 14.3165 10.528 14.573 10.8764 14.7472C11.2249 14.9214 11.6105 15.0082 12 15C12.3895 15.0082 12.7751 14.9214 13.1236 14.7472C13.472 14.573 13.7728 14.3165 14 14C14.2272 13.6835 14.528 13.4271 14.8764 13.2529C15.2249 13.0787 15.6105 12.9919 16 13C16.3895 12.9919 16.7751 13.0787 17.1236 13.2529C17.472 13.4271 17.7728 13.6835 18 14C18.2272 14.3165 18.528 14.573 18.8764 14.7472C19.2249 14.9214 19.6105 15.0082 20 15" stroke="currentColor" stroke-width="1.5" stroke-linecap="round" stroke-linejoin="round"/>
</svg>
