<svg width="24" height="24" viewBox="0 0 24 24" fill="none" xmlns="http://www.w3.org/2000/svg">
<path d="M3 3C3 5 4 6 7 6M7 6C9 6 10 7 10 9M7 6C4.333 6.667 2.667 7.667 2 9M21 3C21 5 20 6 17 6M17 6C15 6 14 6.333 14 9M17 6C19.667 6.667 21.333 7.667 22 9M15.185 14.889L15.28 14.709C15.6985 15.3086 15.9447 16.0115 15.9917 16.7413C16.0387 17.471 15.8848 18.1997 15.5467 18.8481C15.2085 19.4964 14.6991 20.0397 14.0738 20.4189C13.4485 20.798 12.7313 20.9984 12 20.9984C11.2687 20.9984 10.5515 20.798 9.92617 20.4189C9.30087 20.0397 8.79146 19.4964 8.45333 18.8481C8.11519 18.1997 7.96126 17.471 8.00828 16.7413C8.05529 16.0115 8.30146 15.3086 8.72 14.709M17 3C17 4.333 16.667 5.333 16 6M7 3C7 4.333 7.333 5.333 8 6M8.5 10L7 9M15.5 10L17 9M12 15H12.01M12 18C11 18 8 15 8 12C8 10 9.333 9 12 9C14.667 9 16 10 16 12C16 15 13 18 12 18Z" stroke="currentColor" stroke-width="1.5" stroke-linecap="round" stroke-linejoin="round"/>
</svg>
