<svg width="24" height="24" viewBox="0 0 24 24" fill="none" xmlns="http://www.w3.org/2000/svg">
<path d="M12 8H15C15.2652 8 15.5196 8.10536 15.7071 8.29289C15.8946 8.48043 16 8.73478 16 9V12M16 16H9C8.73478 16 8.48043 15.8946 8.29289 15.7071C8.10536 15.5196 8 15.2652 8 15V8M12 20V20.01M16 20V20.01M8 20V20.01M4 20V20.01M4 16V16.01M4 12V12.01M4 8V8.01M8 4V4.01M12 4V4.01M16 4V4.01M20 4V4.01M20 8V8.01M20 12V12.01M20 16V16.01M3 3L21 21" stroke="currentColor" stroke-width="1.5" stroke-linecap="round" stroke-linejoin="round"/>
</svg>
