<svg width="24" height="24" viewBox="0 0 24 24" fill="none" xmlns="http://www.w3.org/2000/svg">
<path d="M5.00018 19H19.0002M20.9862 16.984C20.9841 16.7323 20.9346 16.4833 20.8402 16.25L13.7402 4.00002C13.5672 3.68741 13.3137 3.42685 13.0059 3.2454C12.6982 3.06396 12.3474 2.96826 11.9902 2.96826C11.6329 2.96826 11.2822 3.06396 10.9744 3.2454C10.6667 3.42685 10.4131 3.68741 10.2402 4.00002L9.41919 5.41702M7.95019 7.95102L3.14019 16.25C3.02013 16.5456 2.97252 16.8656 3.00134 17.1833C3.03016 17.501 3.13456 17.8073 3.30584 18.0764C3.47712 18.3456 3.7103 18.5698 3.98592 18.7305C4.26153 18.8912 4.57158 18.9836 4.89019 19M12.0002 3V8M12.0002 12V19M3.00018 3L21.0002 21" stroke="currentColor" stroke-width="1.5" stroke-linecap="round" stroke-linejoin="round"/>
</svg>
