<svg width="24" height="24" viewBox="0 0 24 24" fill="none" xmlns="http://www.w3.org/2000/svg">
<path d="M7.5 10C7.77614 10 8 9.77614 8 9.5C8 9.22386 7.77614 9 7.5 9C7.22386 9 7 9.22386 7 9.5C7 9.77614 7.22386 10 7.5 10Z" fill="currentColor"/>
<path d="M16.5 10C16.7761 10 17 9.77614 17 9.5C17 9.22386 16.7761 9 16.5 9C16.2239 9 16 9.22386 16 9.5C16 9.77614 16.2239 10 16.5 10Z" fill="currentColor"/>
<path d="M21 17V7C21 6.46957 20.7893 5.96086 20.4142 5.58579C20.0391 5.21071 19.5304 5 19 5H5C4.46957 5 3.96086 5.21071 3.58579 5.58579C3.21071 5.96086 3 6.46957 3 7V17M21 17C21 17.5304 20.7893 18.0391 20.4142 18.4142C20.0391 18.7893 19.5304 19 19 19H5C4.46957 19 3.96086 18.7893 3.58579 18.4142C3.21071 18.0391 3 17.5304 3 17M21 17L17 14H7L3 17M8 9.5C8 9.77614 7.77614 10 7.5 10C7.22386 10 7 9.77614 7 9.5C7 9.22386 7.22386 9 7.5 9C7.77614 9 8 9.22386 8 9.5ZM17 9.5C17 9.77614 16.7761 10 16.5 10C16.2239 10 16 9.77614 16 9.5C16 9.22386 16.2239 9 16.5 9C16.7761 9 17 9.22386 17 9.5Z" stroke="currentColor" stroke-width="1.5" stroke-linecap="round" stroke-linejoin="round"/>
</svg>
