<svg width="24" height="24" viewBox="0 0 24 24" fill="none" xmlns="http://www.w3.org/2000/svg">
<path d="M12.0001 7C13.1431 7 14.2351 7.035 15.2751 7.104C16.2921 7.172 17.2251 7.311 18.0731 7.524C18.8861 7.727 19.5931 8.029 20.1921 8.433C20.7618 8.81749 21.2199 9.34563 21.5201 9.964C21.8461 10.621 22.0001 11.444 22.0001 12.43C22.0001 13.436 21.8111 14.34 21.4261 15.137C21.0511 15.916 20.5401 16.533 19.8891 16.985C19.2556 17.425 18.5003 17.6558 17.7291 17.645C17.2201 17.645 16.7591 17.577 16.3471 17.435C15.938 17.2962 15.5456 17.1124 15.1771 16.887C14.821 16.6673 14.4724 16.4354 14.1321 16.192C13.8124 15.9605 13.478 15.7501 13.1311 15.562C12.7854 15.3691 12.3969 15.2656 12.0011 15.261C11.6281 15.261 11.2511 15.358 10.8691 15.561C10.5531 15.731 10.2191 15.941 9.86908 16.191C9.54708 16.421 9.19908 16.653 8.82208 16.886C8.45441 17.1117 8.06264 17.2955 7.65408 17.434C7.24108 17.576 6.78208 17.644 6.27608 17.644C5.50335 17.6554 4.74638 17.425 4.11108 16.985C3.46008 16.533 2.94908 15.915 2.57408 15.137C2.18908 14.339 2.00008 13.437 2.00008 12.428C1.99608 11.448 2.15008 10.626 2.47708 9.968C2.77752 9.34923 3.23639 8.82101 3.80708 8.437C4.40708 8.034 5.11408 7.733 5.92708 7.53C6.84616 7.30697 7.78312 7.16542 8.72708 7.107C9.76708 7.036 10.8571 7 12.0001 7Z" stroke="currentColor" stroke-width="1.5" stroke-linecap="round" stroke-linejoin="round"/>
</svg>
