<svg width="24" height="24" viewBox="0 0 24 24" fill="none" xmlns="http://www.w3.org/2000/svg">
<path d="M11.5 21H6C5.73478 21 5.48043 20.8946 5.29289 20.7071C5.10536 20.5196 5 20.2652 5 20V4C5 3.73478 5.10536 3.48043 5.29289 3.29289C5.48043 3.10536 5.73478 3 6 3H18C18.2652 3 18.5196 3.10536 18.7071 3.29289C18.8946 3.48043 19 3.73478 19 4V13M12.344 16.06C12.1322 15.9823 11.9004 15.9785 11.6862 16.0491C11.472 16.1198 11.288 16.2608 11.164 16.4493C11.0401 16.6378 10.9835 16.8626 11.0034 17.0873C11.0234 17.312 11.1188 17.5233 11.274 17.687M20 21L22 19L20 17M17 17L15 19L17 21" stroke="currentColor" stroke-width="1.5" stroke-linecap="round" stroke-linejoin="round"/>
</svg>
