<svg width="24" height="24" viewBox="0 0 24 24" fill="none" xmlns="http://www.w3.org/2000/svg">
<path d="M14 15L18.07 19.284C18.4128 19.6447 18.8632 19.8844 19.3538 19.9674C19.8444 20.0503 20.3487 19.9719 20.7909 19.744C21.2332 19.516 21.5896 19.1508 21.8067 18.7031C22.0238 18.2554 22.0899 17.7494 21.995 17.261L20.395 9.029M8 9V11M7 10H9M14 10H16M15.5002 5C16.8263 5 18.0981 5.52678 19.0358 6.46447C19.9735 7.40215 20.5002 8.67392 20.5002 10C20.5002 11.3261 19.9735 12.5979 19.0358 13.5355C18.0981 14.4732 16.8263 15 15.5002 15H10.0002L5.98524 19.227C5.6418 19.5886 5.19014 19.8288 4.69832 19.9113C4.20651 19.9939 3.70118 19.9143 3.2585 19.6847C2.81582 19.4551 2.45977 19.0878 2.244 18.6382C2.02823 18.1886 1.96444 17.681 2.06224 17.192L3.69624 9.019C3.92305 7.88546 4.53563 6.86553 5.42974 6.13278C6.32384 5.40003 7.44423 4.99973 8.60024 5H15.5002Z" stroke="currentColor" stroke-width="1.5" stroke-linecap="round" stroke-linejoin="round"/>
</svg>
