<svg width="24" height="24" viewBox="0 0 24 24" fill="none" xmlns="http://www.w3.org/2000/svg">
<path d="M14 18H9M9 18C8.20435 18 7.44129 17.6839 6.87868 17.1213C6.31607 16.5587 6 15.7956 6 15V9C6 8.20435 6.31607 7.44129 6.87868 6.87868C7.44129 6.31607 8.20435 6 9 6M9 18V21H15V19M9 6H15M9 6V3H15V6M15 6C15.7956 6 16.5587 6.31607 17.1213 6.87868C17.6839 7.44129 18 8.20435 18 9V11M19 22V22.01M19 19C19.4483 18.9986 19.8832 18.8468 20.235 18.569C20.5868 18.2911 20.8352 17.9033 20.9406 17.4675C21.0459 17.0318 21.0019 16.5733 20.8158 16.1655C20.6297 15.7576 20.3122 15.424 19.914 15.218C19.5162 15.0142 19.0611 14.951 18.6228 15.0387C18.1845 15.1264 17.7888 15.3598 17.5 15.701" stroke="currentColor" stroke-width="1.5" stroke-linecap="round" stroke-linejoin="round"/>
</svg>
