<svg width="24" height="24" viewBox="0 0 24 24" fill="none" xmlns="http://www.w3.org/2000/svg">
<path d="M21 10H3M7 10V11.5C7 11.8978 7.15804 12.2794 7.43934 12.5607C7.72064 12.842 8.10218 13 8.5 13H15.5C15.8978 13 16.2794 12.842 16.5607 12.5607C16.842 12.2794 17 11.8978 17 11.5V10M3 8C3 6.93913 3.42143 5.92172 4.17157 5.17157C4.92172 4.42143 5.93913 4 7 4H17C18.0609 4 19.0783 4.42143 19.8284 5.17157C20.5786 5.92172 21 6.93913 21 8V16C21 17.0609 20.5786 18.0783 19.8284 18.8284C19.0783 19.5786 18.0609 20 17 20H7C5.93913 20 4.92172 19.5786 4.17157 18.8284C3.42143 18.0783 3 17.0609 3 16V8Z" stroke="currentColor" stroke-width="1.5" stroke-linecap="round" stroke-linejoin="round"/>
</svg>
