<svg width="24" height="24" viewBox="0 0 24 24" fill="none" xmlns="http://www.w3.org/2000/svg">
<path d="M12 21H6C5.46957 21 4.96086 20.7893 4.58579 20.4142C4.21071 20.0391 4 19.5304 4 19V5C4 4.46957 4.21071 3.96086 4.58579 3.58579C4.96086 3.21071 5.46957 3 6 3H18C18.5304 3 19.0391 3.21071 19.4142 3.58579C19.7893 3.96086 20 4.46957 20 5V11.5M9 18H12M19.001 21C18.4705 21 17.9618 20.7893 17.5868 20.4142C17.2117 20.0391 17.001 19.5304 17.001 19C17.001 18.4696 17.2117 17.9609 17.5868 17.5858C17.9618 17.2107 18.4705 17 19.001 17M19.001 21C19.5314 21 20.0401 20.7893 20.4152 20.4142C20.7903 20.0391 21.001 19.5304 21.001 19C21.001 18.4696 20.7903 17.9609 20.4152 17.5858C20.0401 17.2107 19.5314 17 19.001 17M19.001 21V22.5M19.001 17V15.5M22.0319 17.25L20.7329 18M17.2702 20L15.9702 20.75M15.9702 17.25L17.2702 18M20.7329 20L22.0329 20.75" stroke="currentColor" stroke-width="1.5" stroke-linecap="round" stroke-linejoin="round"/>
</svg>
