<svg width="24" height="24" viewBox="0 0 24 24" fill="none" xmlns="http://www.w3.org/2000/svg">
<path d="M12.5 21H6C5.73478 21 5.48043 20.8946 5.29289 20.7071C5.10536 20.5196 5 20.2652 5 20V4C5 3.73478 5.10536 3.48043 5.29289 3.29289C5.48043 3.10536 5.73478 3 6 3H18C18.2652 3 18.5196 3.10536 18.7071 3.29289C18.8946 3.48043 19 3.73478 19 4V12M12.9062 16.576C12.8302 16.4137 12.712 16.2749 12.564 16.1739C12.416 16.0729 12.2436 16.0136 12.0648 16.0021C11.886 15.9905 11.7074 16.0273 11.5477 16.1084C11.388 16.1895 11.253 16.312 11.1568 16.4632C11.0606 16.6144 11.0068 16.7886 11.001 16.9676C10.9952 17.1467 11.0376 17.324 11.1238 17.4811C11.21 17.6382 11.3368 17.7692 11.491 17.8605C11.6451 17.9517 11.821 17.9999 12.0002 18M19 22V16M19 16L22 19M19 16L16 19" stroke="currentColor" stroke-width="1.5" stroke-linecap="round" stroke-linejoin="round"/>
</svg>
