<svg width="24" height="24" viewBox="0 0 24 24" fill="none" xmlns="http://www.w3.org/2000/svg">
<path d="M12 21H6C5.73478 21 5.48043 20.8946 5.29289 20.7071C5.10536 20.5196 5 20.2652 5 20V4C5 3.73478 5.10536 3.48043 5.29289 3.29289C5.48043 3.10536 5.73478 3 6 3H18C18.2652 3 18.5196 3.10536 18.7071 3.29289C18.8946 3.48043 19 3.73478 19 4V11.5M12 16C11.7348 16 11.4804 16.1054 11.2929 16.2929C11.1054 16.4804 11 16.7348 11 17C11 17.2652 11.1054 17.5196 11.2929 17.7071C11.4804 17.8946 11.7348 18 12 18M19.001 21C18.4705 21 17.9618 20.7893 17.5868 20.4142C17.2117 20.0391 17.001 19.5304 17.001 19C17.001 18.4696 17.2117 17.9609 17.5868 17.5858C17.9618 17.2107 18.4705 17 19.001 17M19.001 21C19.5314 21 20.0401 20.7893 20.4152 20.4142C20.7903 20.0391 21.001 19.5304 21.001 19C21.001 18.4696 20.7903 17.9609 20.4152 17.5858C20.0401 17.2107 19.5314 17 19.001 17M19.001 21V22.5M19.001 17V15.5M22.0319 17.25L20.7329 18M17.2702 20L15.9702 20.75M15.9702 17.25L17.2702 18M20.7329 20L22.0329 20.75" stroke="currentColor" stroke-width="1.5" stroke-linecap="round" stroke-linejoin="round"/>
</svg>
