<svg width="24" height="24" viewBox="0 0 24 24" fill="none" xmlns="http://www.w3.org/2000/svg">
<path d="M7 3H17C17.5304 3 18.0391 3.21071 18.4142 3.58579C18.7893 3.96086 19 4.46957 19 5V15M19 19C19 19.5304 18.7893 20.0391 18.4142 20.4142C18.0391 20.7893 17.5304 21 17 21H7C6.46957 21 5.96086 20.7893 5.58579 20.4142C5.21071 20.0391 5 19.5304 5 19V5M11.1139 11.133C10.6201 11.2859 10.1742 11.5639 9.81948 11.9398C9.46473 12.3158 9.21314 12.777 9.08911 13.2788C8.96508 13.7806 8.97281 14.306 9.11155 14.8039C9.25029 15.3018 9.51534 15.7555 9.88099 16.1208C10.2466 16.4862 10.7005 16.7509 11.1986 16.8892C11.6966 17.0276 12.2219 17.0349 12.7237 16.9105C13.2254 16.786 13.6864 16.5341 14.0621 16.179C14.4378 15.824 14.7153 15.3779 14.8679 14.884M12 7V7.01M3 3L21 21" stroke="currentColor" stroke-width="1.5" stroke-linecap="round" stroke-linejoin="round"/>
</svg>
