<svg width="24" height="24" viewBox="0 0 24 24" fill="none" xmlns="http://www.w3.org/2000/svg">
<path d="M12 17H4C3.73478 17 3.48043 16.8946 3.29289 16.7071C3.10536 16.5196 3 16.2652 3 16V4C3 3.73478 3.10536 3.48043 3.29289 3.29289C3.48043 3.10536 3.73478 3 4 3H20C20.2652 3 20.5196 3.10536 20.7071 3.29289C20.8946 3.48043 21 3.73478 21 4V11.5M19 18V18.01M3 13H14M8 21H12.5M10 17L9.5 21M21.121 20.121C21.5407 19.7015 21.8265 19.1669 21.9423 18.585C22.0581 18.003 21.9988 17.3997 21.7717 16.8515C21.5447 16.3033 21.1602 15.8347 20.6668 15.505C20.1734 15.1753 19.5934 14.9994 19 14.9994C18.4066 14.9994 17.8266 15.1753 17.3332 15.505C16.8398 15.8347 16.4553 16.3033 16.2283 16.8515C16.0012 17.3997 15.9419 18.003 16.0577 18.585C16.1735 19.1669 16.4594 19.7015 16.879 20.121C17.297 20.54 18.004 21.166 19 22C20.051 21.11 20.759 20.484 21.121 20.121Z" stroke="currentColor" stroke-width="1.5" stroke-linecap="round" stroke-linejoin="round"/>
</svg>
