<svg width="24" height="24" viewBox="0 0 24 24" fill="none" xmlns="http://www.w3.org/2000/svg">
<path d="M11.5 21H6C5.73478 21 5.48043 20.8946 5.29289 20.7071C5.10536 20.5196 5 20.2652 5 20V4C5 3.73478 5.10536 3.48043 5.29289 3.29289C5.48043 3.10536 5.73478 3 6 3H18C18.2652 3 18.5196 3.10536 18.7071 3.29289C18.8946 3.48043 19 3.73478 19 4V13.5M12.314 16.05C12.1028 15.9801 11.8742 15.9827 11.6646 16.0573C11.455 16.132 11.2763 16.2743 11.1567 16.462C11.0371 16.6496 10.9835 16.8718 11.0044 17.0933C11.0253 17.3148 11.1195 17.523 11.272 17.685M15 19L17 21L21 17" stroke="currentColor" stroke-width="1.5" stroke-linecap="round" stroke-linejoin="round"/>
</svg>
