<svg width="24" height="24" viewBox="0 0 24 24" fill="none" xmlns="http://www.w3.org/2000/svg">
<path d="M4.713 4.718C4.18415 5.08655 3.75221 5.57745 3.45395 6.14889C3.15569 6.72034 2.99995 7.3554 3 8V16C3 17.0609 3.42143 18.0783 4.17157 18.8284C4.92172 19.5786 5.93913 20 7 20H10V10M10 6V4H8M14 10V4H17C18.0609 4 19.0783 4.42143 19.8284 5.17157C20.5786 5.92172 21 6.93913 21 8V16C21 16.308 20.965 16.608 20.9 16.896M19.28 19.286C18.611 19.7518 17.8152 20.001 17 20H14V14M3 3L21 21M5.5 8.5C5.5 8.76522 5.60536 9.01957 5.79289 9.20711C5.98043 9.39464 6.23478 9.5 6.5 9.5C6.76522 9.5 7.01957 9.39464 7.20711 9.20711C7.39464 9.01957 7.5 8.76522 7.5 8.5C7.5 8.23478 7.39464 7.98043 7.20711 7.79289C7.01957 7.60536 6.76522 7.5 6.5 7.5C6.23478 7.5 5.98043 7.60536 5.79289 7.79289C5.60536 7.98043 5.5 8.23478 5.5 8.5Z" stroke="currentColor" stroke-width="1.5" stroke-linecap="round" stroke-linejoin="round"/>
</svg>
