<svg width="24" height="24" viewBox="0 0 24 24" fill="none" xmlns="http://www.w3.org/2000/svg">
<path d="M7 7H4C3.73478 7 3.48043 6.89464 3.29289 6.70711C3.10536 6.51957 3 6.26522 3 6V4C3 3.725 3.11 3.477 3.29 3.296M7 3H20C20.2652 3 20.5196 3.10536 20.7071 3.29289C20.8946 3.48043 21 3.73478 21 4V6C21 6.26522 20.8946 6.51957 20.7071 6.70711C20.5196 6.89464 20.2652 7 20 7H11M10.36 10.35C9.77005 10.6157 9.25333 11.0205 8.8542 11.5298C8.45506 12.039 8.18541 12.6375 8.0684 13.2739C7.95138 13.9102 7.99049 14.5655 8.18236 15.1834C8.37423 15.8013 8.71314 16.3635 9.17001 16.8217C9.62688 17.2798 10.1881 17.6203 10.8055 17.814C11.4229 18.0076 12.078 18.0486 12.7147 17.9333C13.3514 17.8181 13.9506 17.5502 14.461 17.1525C14.9714 16.7548 15.3777 16.2392 15.645 15.65M19 7V14C19 14.321 18.978 14.637 18.936 14.947M17.841 17.86C17.0115 19.1159 15.7993 20.071 14.3841 20.5837C12.969 21.0963 11.4263 21.1392 9.98488 20.7059C8.54346 20.2726 7.28009 19.3862 6.38215 18.1783C5.48421 16.9703 4.99953 15.5051 5 14V7M12 14H12.01M3 3L21 21" stroke="currentColor" stroke-width="1.5" stroke-linecap="round" stroke-linejoin="round"/>
</svg>
