<svg width="24" height="24" viewBox="0 0 24 24" fill="none" xmlns="http://www.w3.org/2000/svg">
<path d="M16 2C16.7652 1.99996 17.5015 2.29233 18.0583 2.81728C18.615 3.34224 18.9501 4.06011 18.995 4.824L19 5V19C19 19.7652 18.7077 20.5015 18.1827 21.0583C17.6578 21.615 16.9399 21.9501 16.176 21.995L16 22H8C7.23479 22 6.49849 21.7077 5.94174 21.1827C5.38499 20.6578 5.04989 19.9399 5.005 19.176L5 19V5C4.99996 4.23479 5.29233 3.49849 5.81728 2.94174C6.34224 2.38499 7.06011 2.04989 7.824 2.005L8 2H16ZM12 16C11.7551 16 11.5187 16.09 11.3356 16.2527C11.1526 16.4155 11.0357 16.6397 11.007 16.883L11 17L11.007 17.127C11.0359 17.3701 11.153 17.5941 11.336 17.7566C11.519 17.9191 11.7552 18.0089 12 18.0089C12.2448 18.0089 12.481 17.9191 12.664 17.7566C12.847 17.5941 12.9641 17.3701 12.993 17.127L13 17.01L12.993 16.883C12.9643 16.6397 12.8474 16.4155 12.6644 16.2527C12.4813 16.09 12.2449 16 12 16ZM13 4H11L10.883 4.007C10.64 4.03591 10.4159 4.15296 10.2534 4.33596C10.0909 4.51897 10.0011 4.75524 10.0011 5C10.0011 5.24476 10.0909 5.48103 10.2534 5.66404C10.4159 5.84704 10.64 5.96409 10.883 5.993L11 6H13L13.117 5.993C13.36 5.96409 13.5841 5.84704 13.7466 5.66404C13.9091 5.48103 13.9989 5.24476 13.9989 5C13.9989 4.75524 13.9091 4.51897 13.7466 4.33596C13.5841 4.15296 13.36 4.03591 13.117 4.007L13 4Z" fill="currentColor"/>
</svg>
