<svg width="24" height="24" viewBox="0 0 24 24" fill="none" xmlns="http://www.w3.org/2000/svg">
<path d="M12.5 21H6C5.73478 21 5.48043 20.8946 5.29289 20.7071C5.10536 20.5196 5 20.2652 5 20V4C5 3.73478 5.10536 3.48043 5.29289 3.29289C5.48043 3.10536 5.73478 3 6 3H18C18.2652 3 18.5196 3.10536 18.7071 3.29289C18.8946 3.48043 19 3.73478 19 4V15M12.8722 16.51C12.786 16.3566 12.6607 16.2286 12.5092 16.1391C12.3577 16.0495 12.1852 16.0016 12.0092 16C11.8332 15.9985 11.6599 16.0435 11.5068 16.1303C11.3538 16.2172 11.2263 16.343 11.1374 16.4949C11.0485 16.6468 11.0013 16.8195 11.0005 16.9955C10.9997 17.1715 11.0454 17.3446 11.1329 17.4973C11.2205 17.65 11.3467 17.7769 11.499 17.8652C11.6513 17.9534 11.8242 18 12.0002 18M16 19H22" stroke="currentColor" stroke-width="1.5" stroke-linecap="round" stroke-linejoin="round"/>
</svg>
