<svg width="24" height="24" viewBox="0 0 24 24" fill="none" xmlns="http://www.w3.org/2000/svg">
<path d="M16 4H5C4.20435 4 3.44129 4.31607 2.87868 4.87868C2.31607 5.44129 2 6.20435 2 7V17C2 17.7956 2.31607 18.5587 2.87868 19.1213C3.44129 19.6839 4.20435 20 5 20H16M12 14V14.01M9 14V14.01M6 14V14.01M12 17V17.01M9 17V17.01M6 17V17.01M20 3H18C17.4696 3 16.9609 3.21071 16.5858 3.58579C16.2107 3.96086 16 4.46957 16 5V19C16 19.5304 16.2107 20.0391 16.5858 20.4142C16.9609 20.7893 17.4696 21 18 21H20C20.5304 21 21.0391 20.7893 21.4142 20.4142C21.7893 20.0391 22 19.5304 22 19V5C22 4.46957 21.7893 3.96086 21.4142 3.58579C21.0391 3.21071 20.5304 3 20 3ZM12 8H6V11H12V8Z" stroke="currentColor" stroke-width="1.5" stroke-linecap="round" stroke-linejoin="round"/>
</svg>
