<svg width="24" height="24" viewBox="0 0 24 24" fill="none" xmlns="http://www.w3.org/2000/svg">
<path d="M6.15015 6.15297C5.264 7.49879 4.8693 9.10913 5.03266 10.7122C5.19602 12.3153 5.90744 13.8129 7.04685 14.9523C8.18625 16.0917 9.68387 16.8031 11.2869 16.9665C12.89 17.1298 14.5003 16.7351 15.8461 15.849M17.8461 13.849C18.733 12.5029 19.1282 10.892 18.9648 9.28834C18.8015 7.68467 18.0896 6.18652 16.9496 5.04692C15.8095 3.90733 14.3111 3.19612 12.7073 3.03343C11.1036 2.87074 9.49284 3.26654 8.14715 4.15397M9.12982 9.12197C8.97026 9.64243 8.95531 10.1965 9.08658 10.7248C9.21786 11.2531 9.49041 11.7357 9.87503 12.121C10.2596 12.5062 10.7418 12.7795 11.2699 12.9116C11.798 13.0438 12.3521 13.0297 12.8728 12.871M14.8728 10.871C15.0287 10.3519 15.0411 9.80035 14.9087 9.27483C14.7763 8.74931 14.504 8.26948 14.1207 7.88631C13.7374 7.50315 13.2575 7.23096 12.732 7.09867C12.2064 6.96638 11.6548 6.97893 11.1358 7.13498M7.99981 16L5.90881 19.486C5.81791 19.6377 5.76887 19.8108 5.76668 19.9876C5.76449 20.1644 5.80923 20.3387 5.89635 20.4926C5.98347 20.6465 6.10984 20.7745 6.26258 20.8637C6.41532 20.9528 6.58896 20.9998 6.76581 21H17.2338C17.4107 20.9998 17.5843 20.9528 17.737 20.8637C17.8898 20.7745 18.0162 20.6465 18.1033 20.4926C18.1904 20.3387 18.2351 20.1644 18.2329 19.9876C18.2308 19.8108 18.1817 19.6377 18.0908 19.486L15.9998 16M3 2.99997L21 21" stroke="currentColor" stroke-width="1.5" stroke-linecap="round" stroke-linejoin="round"/>
</svg>
