<svg width="24" height="24" viewBox="0 0 24 24" fill="none" xmlns="http://www.w3.org/2000/svg">
<path d="M13 7H5C4.46957 7 3.96086 7.21071 3.58579 7.58579C3.21071 7.96086 3 8.46957 3 9V16C3 16.5304 3.21071 17.0391 3.58579 17.4142C3.96086 17.7893 4.46957 18 5 18H18C18.5304 18 19.0391 17.7893 19.4142 17.4142C19.7893 17.0391 20 16.5304 20 16V14M17 15V14M16 8.5C16 9.16304 16.2634 9.79893 16.7322 10.2678C17.2011 10.7366 17.837 11 18.5 11C19.163 11 19.7989 10.7366 20.2678 10.2678C20.7366 9.79893 21 9.16304 21 8.5C21 7.83696 20.7366 7.20107 20.2678 6.73223C19.7989 6.26339 19.163 6 18.5 6C17.837 6 17.2011 6.26339 16.7322 6.73223C16.2634 7.20107 16 7.83696 16 8.5Z" stroke="currentColor" stroke-width="1.5" stroke-linecap="round" stroke-linejoin="round"/>
</svg>
