<svg width="24" height="24" viewBox="0 0 24 24" fill="none" xmlns="http://www.w3.org/2000/svg">
<path d="M12 21H6C5.73478 21 5.48043 20.8946 5.29289 20.7071C5.10536 20.5196 5 20.2652 5 20V4C5 3.73478 5.10536 3.48043 5.29289 3.29289C5.48043 3.10536 5.73478 3 6 3H18C18.2652 3 18.5196 3.10536 18.7071 3.29289C18.8946 3.48043 19 3.73478 19 4V13M12.5702 16.178C12.4195 16.0736 12.243 16.0127 12.06 16.0019C11.877 15.9911 11.6945 16.0308 11.5326 16.1166C11.3706 16.2025 11.2353 16.3313 11.1416 16.4888C11.0479 16.6463 10.9992 16.8266 11.001 17.0099C11.0028 17.1933 11.055 17.3726 11.1518 17.5282C11.2486 17.6839 11.3863 17.81 11.55 17.8927C11.7136 17.9754 11.8968 18.0115 12.0795 17.9971C12.2623 17.9827 12.4376 17.9183 12.5862 17.811M16 22L21 17M21 17V21.5M21 17H16.5" stroke="currentColor" stroke-width="1.5" stroke-linecap="round" stroke-linejoin="round"/>
</svg>
