<svg width="24" height="24" viewBox="0 0 24 24" fill="none" xmlns="http://www.w3.org/2000/svg">
<path d="M13 14.5V9C13 8.73478 13.1054 8.48043 13.2929 8.29289C13.4804 8.10536 13.7348 8 14 8H20C20.2652 8 20.5196 8.10536 20.7071 8.29289C20.8946 8.48043 21 8.73478 21 9V12M18 8V5C18 4.73478 17.8946 4.48043 17.7071 4.29289C17.5196 4.10536 17.2652 4 17 4H4C3.73478 4 3.48043 4.10536 3.29289 4.29289C3.10536 4.48043 3 4.73478 3 5V17C3 17.2652 3.10536 17.5196 3.29289 17.7071C3.48043 17.8946 3.73478 18 4 18H12M16 9H18M19.001 21C18.4705 21 17.9618 20.7893 17.5868 20.4142C17.2117 20.0391 17.001 19.5304 17.001 19C17.001 18.4696 17.2117 17.9609 17.5868 17.5858C17.9618 17.2107 18.4705 17 19.001 17M19.001 21C19.5314 21 20.0401 20.7893 20.4152 20.4142C20.7903 20.0391 21.001 19.5304 21.001 19C21.001 18.4696 20.7903 17.9609 20.4152 17.5858C20.0401 17.2107 19.5314 17 19.001 17M19.001 21V22.5M19.001 17V15.5M22.0319 17.25L20.7329 18M17.2702 20L15.9702 20.75M15.9702 17.25L17.2702 18M20.7329 20L22.0329 20.75" stroke="currentColor" stroke-width="1.5" stroke-linecap="round" stroke-linejoin="round"/>
</svg>
