<svg width="24" height="24" viewBox="0 0 24 24" fill="none" xmlns="http://www.w3.org/2000/svg">
<path d="M6 4C7.02711 3.99872 8.01535 4.39258 8.76 5.1C9.50465 5.80742 9.94865 6.77418 10 7.8V18.5C10 18.8978 9.84196 19.2794 9.56066 19.5607C9.27936 19.842 8.89782 20 8.5 20C8.10218 20 7.72064 19.842 7.43934 19.5607C7.15804 19.2794 7 18.8978 7 18.5V12H6C4.97289 12.0013 3.98465 11.6074 3.24 10.9C2.49535 10.1926 2.05135 9.22583 2 8.2V8C2 6.93914 2.42143 5.92172 3.17157 5.17158C3.92172 4.42143 4.93913 4 6 4Z" stroke="currentColor" stroke-width="1.5" stroke-linecap="round" stroke-linejoin="round"/>
<path d="M18 4C16.9729 3.99872 15.9847 4.39258 15.24 5.1C14.4953 5.80742 14.0514 6.77418 14 7.8V18.5C14 18.8978 14.158 19.2794 14.4393 19.5607C14.7206 19.842 15.1022 20 15.5 20C15.8978 20 16.2794 19.842 16.5607 19.5607C16.842 19.2794 17 18.8978 17 18.5V12H18C19.0271 12.0013 20.0153 11.6074 20.76 10.9C21.5047 10.1926 21.9486 9.22583 22 8.2V8C22 6.93914 21.5786 5.92172 20.8284 5.17158C20.0783 4.42143 19.0609 4 18 4Z" stroke="currentColor" stroke-width="1.5" stroke-linecap="round" stroke-linejoin="round"/>
</svg>
