<svg width="24" height="24" viewBox="0 0 24 24" fill="none" xmlns="http://www.w3.org/2000/svg">
<path d="M18 3C18.7652 2.99996 19.5015 3.29233 20.0583 3.81728C20.615 4.34224 20.9501 5.06011 20.995 5.824L21 6V18C21 18.7652 20.7077 19.5015 20.1827 20.0583C19.6578 20.615 18.9399 20.9501 18.176 20.995L18 21H6C5.23479 21 4.49849 20.7077 3.94174 20.1827C3.38499 19.6578 3.04989 18.9399 3.005 18.176L3 18V6C2.99996 5.23479 3.29233 4.49849 3.81728 3.94174C4.34224 3.38499 5.06011 3.04989 5.824 3.005L6 3H18ZM14 16C13.7551 16 13.5187 16.09 13.3356 16.2527C13.1526 16.4155 13.0357 16.6397 13.007 16.883L13 17L13.007 17.127C13.0359 17.3701 13.153 17.5941 13.336 17.7566C13.519 17.9191 13.7552 18.0089 14 18.0089C14.2448 18.0089 14.481 17.9191 14.664 17.7566C14.847 17.5941 14.9641 17.3701 14.993 17.127L15 17.01L14.993 16.883C14.9643 16.6397 14.8474 16.4155 14.6644 16.2527C14.4813 16.09 14.2449 16 14 16ZM17 16C16.7551 16 16.5187 16.09 16.3356 16.2527C16.1526 16.4155 16.0357 16.6397 16.007 16.883L16 17L16.007 17.127C16.0359 17.3701 16.153 17.5941 16.336 17.7566C16.519 17.9191 16.7552 18.0089 17 18.0089C17.2448 18.0089 17.481 17.9191 17.664 17.7566C17.847 17.5941 17.9641 17.3701 17.993 17.127L18 17.01L17.993 16.883C17.9643 16.6397 17.8474 16.4155 17.6644 16.2527C17.4813 16.09 17.2449 16 17 16ZM11 9.236L10.894 9.447C10.8204 9.59418 10.7116 9.72093 10.5773 9.816C10.443 9.91107 10.2873 9.97153 10.124 9.992L10 10L5 9.999V13H19V9.999L14.618 10L13.894 11.447C13.8158 11.6035 13.6979 11.7367 13.5521 11.8334C13.4063 11.9301 13.2377 11.9868 13.0631 11.9979C12.8885 12.0091 12.7141 11.9742 12.5572 11.8968C12.4003 11.8195 12.2664 11.7023 12.169 11.557L12.106 11.447L11 9.236ZM18 5H6C5.75507 5.00003 5.51866 5.08996 5.33563 5.25272C5.15259 5.41547 5.03566 5.63975 5.007 5.883L5 6V7.999L9.381 8L10.106 6.553C10.1842 6.39652 10.3021 6.26329 10.4479 6.16661C10.5937 6.06994 10.7623 6.0132 10.9369 6.00207C11.1115 5.99093 11.2859 6.02579 11.4428 6.10317C11.5997 6.18054 11.7336 6.29772 11.831 6.443L11.894 6.553L13 8.763L13.106 8.553C13.1796 8.40582 13.2884 8.27907 13.4227 8.184C13.557 8.08893 13.7127 8.02847 13.876 8.008L14 8L19 7.999V6C19 5.75507 18.91 5.51866 18.7473 5.33563C18.5845 5.15259 18.3603 5.03566 18.117 5.007L18 5Z" fill="currentColor"/>
</svg>
