<svg width="24" height="24" viewBox="0 0 24 24" fill="none" xmlns="http://www.w3.org/2000/svg">
<path d="M11.5 21H6C5.73478 21 5.48043 20.8946 5.29289 20.7071C5.10536 20.5196 5 20.2652 5 20V4C5 3.73478 5.10536 3.48043 5.29289 3.29289C5.48043 3.10536 5.73478 3 6 3H18C18.2652 3 18.5196 3.10536 18.7071 3.29289C18.8946 3.48043 19 3.73478 19 4V11M18.0001 22L21.3501 18.716C21.5556 18.5167 21.719 18.2782 21.8307 18.0146C21.9425 17.7511 22.0003 17.4678 22.0007 17.1816C22.0012 16.8953 21.9443 16.6119 21.8334 16.3479C21.7225 16.084 21.5599 15.845 21.3551 15.645C20.9373 15.2363 20.3763 15.007 19.7918 15.0059C19.2074 15.0048 18.6455 15.2319 18.2261 15.639L18.0021 15.859L17.7791 15.639C17.3613 15.2306 16.8006 15.0015 16.2163 15.0004C15.6321 14.9993 15.0705 15.2262 14.6511 15.633C14.4456 15.8323 14.2821 16.0707 14.1703 16.3342C14.0585 16.5977 14.0006 16.881 14 17.1672C13.9994 17.4535 14.0562 17.737 14.167 18.0009C14.2778 18.2648 14.4404 18.5039 14.6451 18.704L18.0001 22Z" stroke="currentColor" stroke-width="1.5" stroke-linecap="round" stroke-linejoin="round"/>
</svg>
