<svg width="24" height="24" viewBox="0 0 24 24" fill="none" xmlns="http://www.w3.org/2000/svg">
<path d="M4 6C4 6.79565 4.84285 7.55871 6.34315 8.12132C7.84344 8.68393 9.87827 9 12 9C14.1217 9 16.1566 8.68393 17.6569 8.12132C19.1571 7.55871 20 6.79565 20 6M4 6C4 5.20435 4.84285 4.44129 6.34315 3.87868C7.84344 3.31607 9.87827 3 12 3C14.1217 3 16.1566 3.31607 17.6569 3.87868C19.1571 4.44129 20 5.20435 20 6M4 6L4 6.143C3.99991 6.24721 4.0161 6.35079 4.048 6.45L6 12M20 6V6.143C20.0001 6.24721 19.9839 6.35079 19.952 6.45L18 12C18 13.105 15.314 14 12 14C8.686 14 6 13.105 6 12M6 12L4.036 17.67C4.01219 17.7563 4.00008 17.8455 4 17.935V18C4 19.657 7.582 21 12 21C12.17 21 12.34 20.998 12.508 20.994M16 19H22M19 16V22" stroke="currentColor" stroke-width="1.5" stroke-linecap="round" stroke-linejoin="round"/>
</svg>
