<svg width="24" height="24" viewBox="0 0 24 24" fill="none" xmlns="http://www.w3.org/2000/svg">
<path d="M6 2H4C3.46957 2 2.96086 2.21071 2.58579 2.58579C2.21071 2.96086 2 3.46957 2 4V6C2 6.53043 2.21071 7.03914 2.58579 7.41421C2.96086 7.78929 3.46957 8 4 8H6C6.53043 8 7.03914 7.78929 7.41421 7.41421C7.78929 7.03914 8 6.53043 8 6V4C8 3.46957 7.78929 2.96086 7.41421 2.58579C7.03914 2.21071 6.53043 2 6 2Z" fill="currentColor"/>
<path d="M20 2H18C17.4696 2 16.9609 2.21071 16.5858 2.58579C16.2107 2.96086 16 3.46957 16 4V6C16 6.53043 16.2107 7.03914 16.5858 7.41421C16.9609 7.78929 17.4696 8 18 8H20C20.5304 8 21.0391 7.78929 21.4142 7.41421C21.7893 7.03914 22 6.53043 22 6V4C22 3.46957 21.7893 2.96086 21.4142 2.58579C21.0391 2.21071 20.5304 2 20 2Z" fill="currentColor"/>
<path d="M13 2H11C10.4696 2 9.96086 2.21071 9.58579 2.58579C9.21071 2.96086 9 3.46957 9 4V6C9 6.53043 9.21071 7.03914 9.58579 7.41421C9.96086 7.78929 10.4696 8 11 8H13C13.5304 8 14.0391 7.78929 14.4142 7.41421C14.7893 7.03914 15 6.53043 15 6V4C15 3.46957 14.7893 2.96086 14.4142 2.58579C14.0391 2.21071 13.5304 2 13 2Z" fill="currentColor"/>
<path d="M6 9H4C3.46957 9 2.96086 9.21071 2.58579 9.58579C2.21071 9.96086 2 10.4696 2 11V13C2 13.5304 2.21071 14.0391 2.58579 14.4142C2.96086 14.7893 3.46957 15 4 15H6C6.53043 15 7.03914 14.7893 7.41421 14.4142C7.78929 14.0391 8 13.5304 8 13V11C8 10.4696 7.78929 9.96086 7.41421 9.58579C7.03914 9.21071 6.53043 9 6 9Z" fill="currentColor"/>
<path d="M20 9H18C17.4696 9 16.9609 9.21071 16.5858 9.58579C16.2107 9.96086 16 10.4696 16 11V13C16 13.5304 16.2107 14.0391 16.5858 14.4142C16.9609 14.7893 17.4696 15 18 15H20C20.5304 15 21.0391 14.7893 21.4142 14.4142C21.7893 14.0391 22 13.5304 22 13V11C22 10.4696 21.7893 9.96086 21.4142 9.58579C21.0391 9.21071 20.5304 9 20 9Z" fill="currentColor"/>
<path d="M13 9H11C10.4696 9 9.96086 9.21071 9.58579 9.58579C9.21071 9.96086 9 10.4696 9 11V13C9 13.5304 9.21071 14.0391 9.58579 14.4142C9.96086 14.7893 10.4696 15 11 15H13C13.5304 15 14.0391 14.7893 14.4142 14.4142C14.7893 14.0391 15 13.5304 15 13V11C15 10.4696 14.7893 9.96086 14.4142 9.58579C14.0391 9.21071 13.5304 9 13 9Z" fill="currentColor"/>
<path d="M13 16H11C10.4696 16 9.96086 16.2107 9.58579 16.5858C9.21071 16.9609 9 17.4696 9 18V20C9 20.5304 9.21071 21.0391 9.58579 21.4142C9.96086 21.7893 10.4696 22 11 22H13C13.5304 22 14.0391 21.7893 14.4142 21.4142C14.7893 21.0391 15 20.5304 15 20V18C15 17.4696 14.7893 16.9609 14.4142 16.5858C14.0391 16.2107 13.5304 16 13 16Z" fill="currentColor"/>
</svg>
