<svg width="24" height="24" viewBox="0 0 24 24" fill="none" xmlns="http://www.w3.org/2000/svg">
<path d="M10.831 20.4132L5.456 13.5032C4.848 12.7202 4.848 11.2802 5.456 10.5032L10.831 3.59223C10.9666 3.40998 11.1429 3.26196 11.3459 3.15998C11.5488 3.05799 11.7728 3.00488 12 3.00488C12.2272 3.00488 12.4512 3.05799 12.6541 3.15998C12.8571 3.26196 13.0334 3.40998 13.169 3.59223L18.544 10.5022C19.152 11.2852 19.152 12.7252 18.544 13.5022L13.169 20.4132C13.0334 20.5955 12.8571 20.7435 12.6541 20.8455C12.4512 20.9475 12.2272 21.0006 12 21.0006C11.7728 21.0006 11.5488 20.9475 11.3459 20.8455C11.1429 20.7435 10.9666 20.5955 10.831 20.4132Z" stroke="currentColor" stroke-width="1.5" stroke-linecap="round" stroke-linejoin="round"/>
</svg>
