<svg width="24" height="24" viewBox="0 0 24 24" fill="none" xmlns="http://www.w3.org/2000/svg">
<path d="M17.9998 4C18.1504 4 18.299 4.034 18.4346 4.09945C18.5701 4.1649 18.6892 4.26012 18.7828 4.378L18.8568 4.486L21.8568 9.486C21.9551 9.64995 22.0043 9.83863 21.9986 10.0297C21.9929 10.2207 21.9326 10.4062 21.8248 10.564L21.7448 10.667L13.2148 20.2C13.0564 20.3616 12.8674 20.4899 12.6587 20.5775C12.4501 20.6651 12.2261 20.7101 11.9998 20.71C11.5998 20.71 11.2148 20.57 10.8898 20.293L10.7548 20.167L2.25482 10.667C2.12694 10.5243 2.04275 10.3479 2.01226 10.1587C1.98176 9.96958 2.00626 9.77564 2.08282 9.6L2.14282 9.485L5.15582 4.463L5.21982 4.373C5.2656 4.31606 5.31758 4.26441 5.37482 4.219L5.46382 4.155L5.55182 4.105L5.60182 4.082L5.66182 4.057L5.77082 4.025L5.88282 4.005L5.99982 4H17.9998ZM9.11382 7.943C8.88648 7.80686 8.61441 7.76652 8.35735 7.83083C8.10029 7.89514 7.87927 8.05885 7.74282 8.286L7.14282 9.286L7.08282 9.402C7.00628 9.57848 6.98227 9.77329 7.01367 9.96308C7.04506 10.1529 7.13053 10.3296 7.25982 10.472L9.25982 12.672L9.34982 12.76C9.53493 12.9184 9.7715 13.0038 10.0151 13.0001C10.2587 12.9964 10.4926 12.9039 10.6728 12.74L10.7598 12.65C10.9182 12.4649 11.0036 12.2283 10.9999 11.9847C10.9962 11.7411 10.9037 11.5072 10.7398 11.327L9.23882 9.677L9.45682 9.314L9.51182 9.211C9.61231 8.98758 9.62729 8.73505 9.55393 8.50132C9.48057 8.26759 9.32396 8.06892 9.11382 7.943Z" fill="currentColor"/>
</svg>
