<svg width="24" height="24" viewBox="0 0 24 24" fill="none" xmlns="http://www.w3.org/2000/svg">
<path d="M12 2.00501C11.223 2.00501 10.492 2.37201 10.029 2.99501L4.66701 9.89001C3.77701 11.026 3.77701 12.973 4.66701 14.117L10.042 21.028C10.2722 21.3319 10.57 21.5781 10.9118 21.7471C11.2536 21.9161 11.63 22.0032 12.0113 22.0015C12.3925 21.9999 12.7682 21.9095 13.1085 21.7376C13.4488 21.5657 13.7444 21.3169 13.972 21.011L19.333 14.117C20.223 12.981 20.223 11.034 19.333 9.89001L13.958 2.97901C13.7296 2.67587 13.4338 2.43005 13.0939 2.261C12.7541 2.09195 12.3796 2.00431 12 2.00501Z" fill="currentColor"/>
</svg>
