<svg width="24" height="24" viewBox="0 0 24 24" fill="none" xmlns="http://www.w3.org/2000/svg">
<path d="M18.333 2C20.293 2 21.893 3.537 21.995 5.472L22 5.667V18.333C22 20.293 20.463 21.893 18.528 21.995L18.333 22H5.667C4.72818 22 3.82509 21.64 3.1438 20.9941C2.46252 20.3481 2.05492 19.4655 2.005 18.528L2 18.333V5.667C2 3.707 3.537 2.107 5.472 2.005L5.667 2H18.333ZM15.5 14C15.1022 14 14.7206 14.158 14.4393 14.4393C14.158 14.7206 14 15.1022 14 15.5C14 15.8978 14.158 16.2794 14.4393 16.5607C14.7206 16.842 15.1022 17 15.5 17C15.8978 17 16.2794 16.842 16.5607 16.5607C16.842 16.2794 17 15.8978 17 15.5C17 15.1022 16.842 14.7206 16.5607 14.4393C16.2794 14.158 15.8978 14 15.5 14ZM12 10.5C11.6022 10.5 11.2206 10.658 10.9393 10.9393C10.658 11.2206 10.5 11.6022 10.5 12C10.5 12.3978 10.658 12.7794 10.9393 13.0607C11.2206 13.342 11.6022 13.5 12 13.5C12.3978 13.5 12.7794 13.342 13.0607 13.0607C13.342 12.7794 13.5 12.3978 13.5 12C13.5 11.6022 13.342 11.2206 13.0607 10.9393C12.7794 10.658 12.3978 10.5 12 10.5ZM8.5 7C8.10218 7 7.72064 7.15804 7.43934 7.43934C7.15804 7.72064 7 8.10218 7 8.5C7 8.89782 7.15804 9.27936 7.43934 9.56066C7.72064 9.84196 8.10218 10 8.5 10C8.89782 10 9.27936 9.84196 9.56066 9.56066C9.84196 9.27936 10 8.89782 10 8.5C10 8.10218 9.84196 7.72064 9.56066 7.43934C9.27936 7.15804 8.89782 7 8.5 7Z" fill="currentColor"/>
</svg>
