<svg width="24" height="24" viewBox="0 0 24 24" fill="none" xmlns="http://www.w3.org/2000/svg">
<path d="M18.333 2C20.293 2 21.893 3.537 21.995 5.472L22 5.667V18.333C22 20.293 20.463 21.893 18.528 21.995L18.333 22H5.667C4.72818 22 3.82509 21.64 3.1438 20.9941C2.46252 20.3481 2.05492 19.4655 2.005 18.528L2 18.333V5.667C2 3.707 3.537 2.107 5.472 2.005L5.667 2H18.333ZM15.5 15C15.1022 15 14.7206 15.158 14.4393 15.4393C14.158 15.7206 14 16.1022 14 16.5C14 16.8978 14.158 17.2794 14.4393 17.5607C14.7206 17.842 15.1022 18 15.5 18C15.8978 18 16.2794 17.842 16.5607 17.5607C16.842 17.2794 17 16.8978 17 16.5C17 16.1022 16.842 15.7206 16.5607 15.4393C16.2794 15.158 15.8978 15 15.5 15ZM8.5 15C8.10218 15 7.72064 15.158 7.43934 15.4393C7.15804 15.7206 7 16.1022 7 16.5C7 16.8978 7.15804 17.2794 7.43934 17.5607C7.72064 17.842 8.10218 18 8.5 18C8.89782 18 9.27936 17.842 9.56066 17.5607C9.84196 17.2794 10 16.8978 10 16.5C10 16.1022 9.84196 15.7206 9.56066 15.4393C9.27936 15.158 8.89782 15 8.5 15ZM8.5 10.5C8.10218 10.5 7.72064 10.658 7.43934 10.9393C7.15804 11.2206 7 11.6022 7 12C7 12.3978 7.15804 12.7794 7.43934 13.0607C7.72064 13.342 8.10218 13.5 8.5 13.5C8.89782 13.5 9.27936 13.342 9.56066 13.0607C9.84196 12.7794 10 12.3978 10 12C10 11.6022 9.84196 11.2206 9.56066 10.9393C9.27936 10.658 8.89782 10.5 8.5 10.5ZM15.5 10.5C15.1022 10.5 14.7206 10.658 14.4393 10.9393C14.158 11.2206 14 11.6022 14 12C14 12.3978 14.158 12.7794 14.4393 13.0607C14.7206 13.342 15.1022 13.5 15.5 13.5C15.8978 13.5 16.2794 13.342 16.5607 13.0607C16.842 12.7794 17 12.3978 17 12C17 11.6022 16.842 11.2206 16.5607 10.9393C16.2794 10.658 15.8978 10.5 15.5 10.5ZM8.5 6C8.10218 6 7.72064 6.15804 7.43934 6.43934C7.15804 6.72064 7 7.10218 7 7.5C7 7.89782 7.15804 8.27936 7.43934 8.56066C7.72064 8.84196 8.10218 9 8.5 9C8.89782 9 9.27936 8.84196 9.56066 8.56066C9.84196 8.27936 10 7.89782 10 7.5C10 7.10218 9.84196 6.72064 9.56066 6.43934C9.27936 6.15804 8.89782 6 8.5 6ZM15.5 6C15.1022 6 14.7206 6.15804 14.4393 6.43934C14.158 6.72064 14 7.10218 14 7.5C14 7.89782 14.158 8.27936 14.4393 8.56066C14.7206 8.84196 15.1022 9 15.5 9C15.8978 9 16.2794 8.84196 16.5607 8.56066C16.842 8.27936 17 7.89782 17 7.5C17 7.10218 16.842 6.72064 16.5607 6.43934C16.2794 6.15804 15.8978 6 15.5 6Z" fill="currentColor"/>
</svg>
