<svg width="24" height="24" viewBox="0 0 24 24" fill="none" xmlns="http://www.w3.org/2000/svg">
<path d="M8.5 8C8.77614 8 9 7.77614 9 7.5C9 7.22386 8.77614 7 8.5 7C8.22386 7 8 7.22386 8 7.5C8 7.77614 8.22386 8 8.5 8Z" fill="currentColor"/>
<path d="M15.5 8C15.7761 8 16 7.77614 16 7.5C16 7.22386 15.7761 7 15.5 7C15.2239 7 15 7.22386 15 7.5C15 7.77614 15.2239 8 15.5 8Z" fill="currentColor"/>
<path d="M8.5 12.5C8.77614 12.5 9 12.2761 9 12C9 11.7239 8.77614 11.5 8.5 11.5C8.22386 11.5 8 11.7239 8 12C8 12.2761 8.22386 12.5 8.5 12.5Z" fill="currentColor"/>
<path d="M15.5 12.5C15.7761 12.5 16 12.2761 16 12C16 11.7239 15.7761 11.5 15.5 11.5C15.2239 11.5 15 11.7239 15 12C15 12.2761 15.2239 12.5 15.5 12.5Z" fill="currentColor"/>
<path d="M15.5 17C15.7761 17 16 16.7761 16 16.5C16 16.2239 15.7761 16 15.5 16C15.2239 16 15 16.2239 15 16.5C15 16.7761 15.2239 17 15.5 17Z" fill="currentColor"/>
<path d="M8.5 17C8.77614 17 9 16.7761 9 16.5C9 16.2239 8.77614 16 8.5 16C8.22386 16 8 16.2239 8 16.5C8 16.7761 8.22386 17 8.5 17Z" fill="currentColor"/>
<path d="M3 5C3 4.46957 3.21071 3.96086 3.58579 3.58579C3.96086 3.21071 4.46957 3 5 3H19C19.5304 3 20.0391 3.21071 20.4142 3.58579C20.7893 3.96086 21 4.46957 21 5V19C21 19.5304 20.7893 20.0391 20.4142 20.4142C20.0391 20.7893 19.5304 21 19 21H5C4.46957 21 3.96086 20.7893 3.58579 20.4142C3.21071 20.0391 3 19.5304 3 19V5Z" stroke="currentColor" stroke-width="1.5" stroke-linecap="round" stroke-linejoin="round"/>
<path d="M8.5 8C8.77614 8 9 7.77614 9 7.5C9 7.22386 8.77614 7 8.5 7C8.22386 7 8 7.22386 8 7.5C8 7.77614 8.22386 8 8.5 8Z" stroke="currentColor" stroke-width="1.5" stroke-linecap="round" stroke-linejoin="round"/>
<path d="M15.5 8C15.7761 8 16 7.77614 16 7.5C16 7.22386 15.7761 7 15.5 7C15.2239 7 15 7.22386 15 7.5C15 7.77614 15.2239 8 15.5 8Z" stroke="currentColor" stroke-width="1.5" stroke-linecap="round" stroke-linejoin="round"/>
<path d="M8.5 12.5C8.77614 12.5 9 12.2761 9 12C9 11.7239 8.77614 11.5 8.5 11.5C8.22386 11.5 8 11.7239 8 12C8 12.2761 8.22386 12.5 8.5 12.5Z" stroke="currentColor" stroke-width="1.5" stroke-linecap="round" stroke-linejoin="round"/>
<path d="M15.5 12.5C15.7761 12.5 16 12.2761 16 12C16 11.7239 15.7761 11.5 15.5 11.5C15.2239 11.5 15 11.7239 15 12C15 12.2761 15.2239 12.5 15.5 12.5Z" stroke="currentColor" stroke-width="1.5" stroke-linecap="round" stroke-linejoin="round"/>
<path d="M15.5 17C15.7761 17 16 16.7761 16 16.5C16 16.2239 15.7761 16 15.5 16C15.2239 16 15 16.2239 15 16.5C15 16.7761 15.2239 17 15.5 17Z" stroke="currentColor" stroke-width="1.5" stroke-linecap="round" stroke-linejoin="round"/>
<path d="M8.5 17C8.77614 17 9 16.7761 9 16.5C9 16.2239 8.77614 16 8.5 16C8.22386 16 8 16.2239 8 16.5C8 16.7761 8.22386 17 8.5 17Z" stroke="currentColor" stroke-width="1.5" stroke-linecap="round" stroke-linejoin="round"/>
</svg>
