<svg width="24" height="24" viewBox="0 0 24 24" fill="none" xmlns="http://www.w3.org/2000/svg">
<path d="M3 5H14M3 5L5 3M3 5L5 7M14 5L12 7M14 5L12 3M19 10V21M19 10L21 12M19 10L17 12M19 21L17 19M19 21L21 19M3 12C3 11.4696 3.21071 10.9609 3.58579 10.5858C3.96086 10.2107 4.46957 10 5 10H12C12.5304 10 13.0391 10.2107 13.4142 10.5858C13.7893 10.9609 14 11.4696 14 12V19C14 19.5304 13.7893 20.0391 13.4142 20.4142C13.0391 20.7893 12.5304 21 12 21H5C4.46957 21 3.96086 20.7893 3.58579 20.4142C3.21071 20.0391 3 19.5304 3 19V12Z" stroke="currentColor" stroke-width="1.5" stroke-linecap="round" stroke-linejoin="round"/>
</svg>
