<svg width="24" height="24" viewBox="0 0 24 24" fill="none" xmlns="http://www.w3.org/2000/svg">
<path fill-rule="evenodd" clip-rule="evenodd" d="M2.46967 2.46967C2.76256 2.17678 3.23744 2.17678 3.53033 2.46967L21.5303 20.4697C21.8232 20.7626 21.8232 21.2374 21.5303 21.5303C21.2374 21.8232 20.7626 21.8232 20.4697 21.5303L14.75 15.8107V17C14.75 17.4142 14.4142 17.75 14 17.75H12.75V20.25H14C14.4142 20.25 14.75 20.5858 14.75 21C14.75 21.4142 14.4142 21.75 14 21.75H10C9.58579 21.75 9.25 21.4142 9.25 21C9.25 20.5858 9.58579 20.25 10 20.25H11.25V17.75H6C5.80109 17.75 5.61032 17.671 5.46967 17.5303L3.46967 15.5303C3.17678 15.2374 3.17678 14.7626 3.46967 14.4697L5.46967 12.4697C5.61032 12.329 5.80109 12.25 6 12.25H11.1893L8.68934 9.75H8C7.58579 9.75 7.25 9.41421 7.25 9V8.31066L2.46967 3.53033C2.17678 3.23744 2.17678 2.76256 2.46967 2.46967ZM6.31066 13.75L5.06066 15L6.31066 16.25H13.25V14.3107L12.6893 13.75H6.31066ZM12 2.25C12.4142 2.25 12.75 2.58579 12.75 3V4.25H19C19.1989 4.25 19.3897 4.32902 19.5303 4.46967L21.5303 6.46967C21.8232 6.76256 21.8232 7.23744 21.5303 7.53033L19.5303 9.53033C19.3897 9.67098 19.1989 9.75 19 9.75H13C12.5858 9.75 12.25 9.41421 12.25 9C12.25 8.58579 12.5858 8.25 13 8.25H18.6893L19.9393 7L18.6893 5.75H9C8.58579 5.75 8.25 5.41421 8.25 5C8.25 4.58579 8.58579 4.25 9 4.25H11.25V3C11.25 2.58579 11.5858 2.25 12 2.25Z" fill="currentColor"/>
</svg>
