<svg width="24" height="24" viewBox="0 0 24 24" fill="none" xmlns="http://www.w3.org/2000/svg">
<path d="M7.99994 11.9999H15.4999M15.4999 11.9999L11.9999 8.49988M15.4999 11.9999L11.9999 15.4999M3.31992 12.7739L11.2259 20.6789C11.6529 21.1069 12.3459 21.1069 12.7739 20.6789L20.6789 12.7739C20.8841 12.5686 20.9994 12.2902 20.9994 11.9999C20.9994 11.7097 20.8841 11.4313 20.6789 11.2259L12.7739 3.32092C12.5686 3.11574 12.2902 3.00049 11.9999 3.00049C11.7097 3.00049 11.4313 3.11574 11.2259 3.32092L3.32092 11.2259C3.11574 11.4313 3.00049 11.7097 3.00049 11.9999C3.00049 12.2902 3.11574 12.5686 3.32092 12.7739H3.31992Z" stroke="currentColor" stroke-width="1.5" stroke-linecap="round" stroke-linejoin="round"/>
</svg>
