<svg width="24" height="24" viewBox="0 0 24 24" fill="none" xmlns="http://www.w3.org/2000/svg">
<path d="M18.73 14.724L20.679 12.774C20.8842 12.5687 20.9994 12.2903 20.9994 12C20.9994 11.7098 20.8842 11.4314 20.679 11.226L12.774 3.32105C12.5687 3.11587 12.2903 3.00061 12 3.00061C11.7097 3.00061 11.4313 3.11587 11.226 3.32105L9.27599 5.27105M7.26599 7.28105L3.32099 11.226C3.11581 11.4314 3.00055 11.7098 3.00055 12C3.00055 12.2903 3.11581 12.5687 3.32099 12.774L11.226 20.679C11.653 21.107 12.346 21.107 12.774 20.679L16.724 16.729M8 12H12M13.748 13.752L12 15.5M3 3L21 21" stroke="currentColor" stroke-width="1.5" stroke-linecap="round" stroke-linejoin="round"/>
</svg>
