<svg width="24" height="24" viewBox="0 0 24 24" fill="none" xmlns="http://www.w3.org/2000/svg">
<path d="M9.00053 11C8.14212 10.9852 7.29435 11.1916 6.53886 11.5994C5.78338 12.0073 5.14563 12.6028 4.68706 13.3286C4.22848 14.0544 3.96453 14.8861 3.92061 15.7435C3.87669 16.6009 4.05429 17.4552 4.43631 18.2241C4.81833 18.9929 5.39188 19.6505 6.10174 20.1334C6.8116 20.6163 7.63385 20.9083 8.48929 20.9812C9.34472 21.0541 10.2045 20.9056 10.9859 20.5498C11.7673 20.1941 12.4439 19.6431 12.9505 18.95M19.0005 20L15.0005 15H11.0005L14.0005 10L10.0005 7L6.00049 8M15.0005 6C15.0005 6.53043 15.2112 7.03914 15.5863 7.41421C15.9613 7.78929 16.4701 8 17.0005 8C17.5309 8 18.0396 7.78929 18.4147 7.41421C18.7898 7.03914 19.0005 6.53043 19.0005 6C19.0005 5.46957 18.7898 4.96086 18.4147 4.58579C18.0396 4.21071 17.5309 4 17.0005 4C16.4701 4 15.9613 4.21071 15.5863 4.58579C15.2112 4.96086 15.0005 5.46957 15.0005 6Z" stroke="currentColor" stroke-width="1.5" stroke-linecap="round" stroke-linejoin="round"/>
</svg>
