<svg width="24" height="24" viewBox="0 0 24 24" fill="none" xmlns="http://www.w3.org/2000/svg">
<path d="M11 7C11.3956 7 11.7822 6.8827 12.1111 6.66294C12.44 6.44318 12.6964 6.13082 12.8478 5.76537C12.9991 5.39992 13.0387 4.99778 12.9616 4.60982C12.8844 4.22186 12.6939 3.86549 12.4142 3.58579C12.1345 3.30608 11.7781 3.1156 11.3902 3.03843C11.0022 2.96126 10.6001 3.00087 10.2346 3.15224C9.86918 3.30362 9.55682 3.55996 9.33706 3.88886C9.1173 4.21776 9 4.60444 9 5M11 11V15H15L19 20M15 11H16M7.00001 11.5C6.2835 11.7967 5.64584 12.2561 5.13743 12.8417C4.62902 13.4273 4.26381 14.1231 4.07065 14.8742C3.8775 15.6253 3.8617 16.411 4.02451 17.1692C4.18733 17.9275 4.52428 18.6374 5.00874 19.243C5.4932 19.8486 6.11189 20.3332 6.81589 20.6585C7.51989 20.9837 8.28991 21.1408 9.06507 21.1172C9.84022 21.0937 10.5993 20.8901 11.2822 20.5226C11.9651 20.1552 12.5532 19.6339 13 19M3 3L21 21" stroke="currentColor" stroke-width="1.5" stroke-linecap="round" stroke-linejoin="round"/>
</svg>
