<svg width="24" height="24" viewBox="0 0 24 24" fill="none" xmlns="http://www.w3.org/2000/svg">
<path d="M9 15.0001L12 12.0001M14 10.0001L15 9.00006M9.14788 9.14505C9.07655 9.21442 9.02764 9.30356 9.00744 9.40098C8.98724 9.49841 8.99669 9.59965 9.03457 9.69166C9.07245 9.78366 9.13702 9.86221 9.21995 9.91718C9.30289 9.97215 9.40039 10.001 9.49988 10C9.63063 10.0003 9.75627 9.94932 9.84988 9.85805M14.1479 14.1451C14.0766 14.2144 14.0276 14.3036 14.0074 14.401C13.9872 14.4984 13.9967 14.5997 14.0346 14.6917C14.0724 14.7837 14.137 14.8622 14.22 14.9172C14.3029 14.9721 14.4004 15.001 14.4999 15C14.6306 15.0003 14.7563 14.9493 14.8499 14.858M5.64091 5.63107C3.95175 7.31772 3.00178 9.6063 3 11.9934C2.99822 14.3804 3.94477 16.6704 5.63141 18.3596C7.31806 20.0487 9.60664 20.9987 11.9937 21.0005C14.3808 21.0023 16.6707 20.0557 18.3599 18.3691M20.0399 16.0511C20.893 14.3609 21.1914 12.4448 20.8926 10.5753C20.5938 8.70573 19.7131 6.97804 18.3757 5.63798C17.0383 4.29791 15.3123 3.41374 13.4434 3.11124C11.5745 2.80874 9.65775 3.10332 7.96591 3.95307M3 3.00006L21 21.0001" stroke="currentColor" stroke-width="1.5" stroke-linecap="round" stroke-linejoin="round"/>
</svg>
