<svg width="24" height="24" viewBox="0 0 24 24" fill="none" xmlns="http://www.w3.org/2000/svg">
<path d="M20.0441 16.04C20.8942 14.3495 21.1899 12.4339 20.8891 10.5657C20.5882 8.6975 19.7062 6.97164 18.3683 5.63342C17.0304 4.2952 15.3047 3.41273 13.4366 3.11142C11.5685 2.81011 9.65286 3.1053 7.96209 3.95503M5.62909 5.64303C4.37238 6.90249 3.51717 8.50617 3.1715 10.2515C2.82583 11.9968 3.00521 13.8054 3.68699 15.4488C4.36877 17.0922 5.52234 18.4966 7.00197 19.4847C8.4816 20.4727 10.2209 21 12.0001 21C14.4911 21 16.7301 20 18.3601 18.369M11.2978 11.288C11.1085 11.4739 11.0009 11.7274 10.9986 11.9927C10.9962 12.258 11.0994 12.5133 11.2853 12.7025C11.4712 12.8918 11.7247 12.9994 11.9899 13.0017C12.2552 13.0041 12.5105 12.9009 12.6998 12.715M7 12C7 10.62 7.559 9.37103 8.462 8.46603M11.069 7.08603C11.371 7.03003 11.682 7.00003 12 7.00003M12 17C12.6604 17.0009 13.3144 16.8705 13.924 16.6164C14.5336 16.3623 15.0867 15.9896 15.551 15.52M16.913 12.933C16.97 12.631 17 12.319 17 12M3 3.00003L21 21" stroke="currentColor" stroke-width="1.5" stroke-linecap="round" stroke-linejoin="round"/>
</svg>
