<svg width="24" height="24" viewBox="0 0 24 24" fill="none" xmlns="http://www.w3.org/2000/svg">
<path d="M9.17262 20.485C9.54407 20.1136 9.83871 19.6726 10.0397 19.1873C10.2408 18.702 10.3442 18.1818 10.3442 17.6565C10.3442 17.1312 10.2408 16.611 10.0397 16.1257C9.83871 15.6404 9.54407 15.1994 9.17262 14.828C8.80118 14.4566 8.36021 14.1619 7.8749 13.9609C7.38958 13.7599 6.86943 13.6564 6.34413 13.6564C5.81882 13.6564 5.29867 13.7599 4.81335 13.9609C4.32804 14.1619 3.88707 14.4566 3.51562 14.828M14.8283 3.51501C14.0782 4.26518 13.6567 5.28262 13.6567 6.34351C13.6567 7.40441 14.0782 8.42185 14.8283 9.17201C15.5785 9.92218 16.5959 10.3436 17.6568 10.3436C18.7177 10.3436 19.7352 9.92218 20.4853 9.17201M14.8287 14.828C15.2107 14.459 15.5154 14.0176 15.7251 13.5296C15.9347 13.0416 16.045 12.5167 16.0497 11.9856C16.0543 11.4545 15.9531 10.9278 15.7519 10.4362C15.5508 9.94459 15.2538 9.49798 14.8782 9.12241C14.5027 8.74684 14.0561 8.44983 13.5645 8.2487C13.0729 8.04758 12.5462 7.94637 12.015 7.95099C11.4839 7.9556 10.959 8.06595 10.471 8.27558C9.98302 8.48522 9.54164 8.78995 9.17265 9.17199C8.44402 9.9264 8.04084 10.9368 8.04996 11.9856C8.05907 13.0344 8.47975 14.0376 9.22138 14.7793C9.96301 15.5209 10.9663 15.9416 12.015 15.9507C13.0638 15.9598 14.0742 15.5566 14.8287 14.828Z" stroke="currentColor" stroke-width="1.5" stroke-linecap="round" stroke-linejoin="round"/>
</svg>
