<svg width="24" height="24" viewBox="0 0 24 24" fill="none" xmlns="http://www.w3.org/2000/svg">
<path d="M13.9999 15L17.5869 11.414C17.8195 11.6467 18.1059 11.8184 18.4207 11.9139C18.7355 12.0094 19.069 12.0258 19.3917 11.9616C19.7143 11.8974 20.0162 11.7546 20.2704 11.5458C20.5247 11.3371 20.7235 11.0689 20.8493 10.7649C20.9751 10.4609 21.024 10.1306 20.9917 9.80323C20.9593 9.47585 20.8467 9.16151 20.6638 8.88807C20.4808 8.61463 20.2333 8.39053 19.9431 8.23562C19.6529 8.08072 19.3289 7.9998 18.9999 8.00004C18.9998 7.67115 18.9186 7.34736 18.7635 7.05734C18.6084 6.76733 18.3842 6.52004 18.1107 6.33739C17.8372 6.15474 17.5228 6.04236 17.1955 6.0102C16.8682 5.97804 16.538 6.02709 16.2342 6.15302C15.9303 6.27895 15.6623 6.47786 15.4537 6.73214C15.2451 6.98641 15.1024 7.28821 15.0383 7.61079C14.9742 7.93338 14.9906 8.26679 15.0862 8.5815C15.1817 8.89621 15.3533 9.18251 15.5859 9.41504L9.99994 15L6.41296 11.414C6.18038 11.6467 5.89399 11.8184 5.57919 11.9139C5.26438 12.0094 4.93088 12.0258 4.60823 11.9616C4.28558 11.8974 3.98375 11.7546 3.72948 11.5458C3.47522 11.3371 3.27637 11.0689 3.15056 10.7649C3.02475 10.4609 2.97587 10.1306 3.00824 9.80323C3.04062 9.47585 3.15324 9.16151 3.33615 8.88807C3.51905 8.61463 3.76659 8.39053 4.05681 8.23562C4.34703 8.08072 4.67099 7.9998 4.99996 8.00004C5.00006 7.67115 5.08126 7.34736 5.23637 7.05734C5.39149 6.76733 5.61573 6.52004 5.88924 6.33739C6.16275 6.15474 6.47708 6.04236 6.8044 6.0102C7.13171 5.97804 7.46191 6.02709 7.76573 6.15302C8.06956 6.27895 8.33764 6.47786 8.54624 6.73214C8.75483 6.98641 8.8975 7.28821 8.9616 7.61079C9.02571 7.93338 9.00927 8.26679 8.91375 8.5815C8.81822 8.89621 8.64656 9.18251 8.41396 9.41504L12 13M2.99994 20H20.9999C20.8249 18.329 20.9539 16.655 18.9999 15H4.99994C3.66694 16 2.99994 17.667 2.99994 20Z" stroke="currentColor" stroke-width="1.5" stroke-linecap="round" stroke-linejoin="round"/>
</svg>
