<svg width="24" height="24" viewBox="0 0 24 24" fill="none" xmlns="http://www.w3.org/2000/svg">
<path d="M11 5H13M19 12C18.333 17.333 16.667 20 14 20H10C7.333 20 5.667 17.333 5 12M12 18V20M10 11V11.01M14 11V11.01M11 16C11 16.667 11.333 17 12 17C12.667 17 13 16.667 13 16H11ZM5.00001 4L11 4.97L4.76201 11.658C4.58678 11.855 4.34215 11.9765 4.07934 11.9972C3.81653 12.0179 3.5559 11.9361 3.35201 11.769C3.21373 11.6565 3.10978 11.5074 3.05198 11.3388C2.99417 11.1702 2.98483 10.9887 3.02501 10.815L5.00001 4ZM19 4L13 4.97L19.238 11.658C19.596 12.066 20.227 12.116 20.648 11.769C20.7863 11.6565 20.8902 11.5074 20.948 11.3388C21.0058 11.1702 21.0152 10.9887 20.975 10.815L19 4Z" stroke="currentColor" stroke-width="1.5" stroke-linecap="round" stroke-linejoin="round"/>
</svg>
