<svg width="24" height="24" viewBox="0 0 24 24" fill="none" xmlns="http://www.w3.org/2000/svg">
<path d="M10 10H14M10 10V14M10 10L6.5 6.5M14 10V14M14 10L17.5 6.5M14 14H10M14 14L17.5 17.5M10 14L6.5 17.5M9.95991 5.99991C9.86794 5.35647 9.59863 4.75136 9.18213 4.25236C8.76564 3.75337 8.21843 3.38021 7.6018 3.17469C6.98518 2.96917 6.32351 2.93942 5.69092 3.08876C5.05834 3.2381 4.47984 3.56064 4.02024 4.02024C3.56064 4.47984 3.2381 5.05834 3.08876 5.69092C2.93942 6.32351 2.96917 6.98518 3.17469 7.6018C3.38021 8.21843 3.75337 8.76564 4.25236 9.18213C4.75136 9.59863 5.35647 9.86794 5.99991 9.95991M18 9.95991C18.6435 9.86794 19.2486 9.59863 19.7476 9.18213C20.2466 8.76564 20.6197 8.21843 20.8253 7.6018C21.0308 6.98518 21.0605 6.32351 20.9112 5.69092C20.7618 5.05834 20.4393 4.47984 19.9797 4.02024C19.5201 3.56064 18.9416 3.2381 18.309 3.08876C17.6764 2.93942 17.0148 2.96917 16.3981 3.17469C15.7815 3.38021 15.2343 3.75337 14.8178 4.25236C14.4013 4.75136 14.132 5.35647 14.04 5.99991M14.04 18C14.132 18.6435 14.4013 19.2486 14.8178 19.7476C15.2343 20.2466 15.7815 20.6197 16.3981 20.8253C17.0148 21.0308 17.6764 21.0605 18.309 20.9112C18.9416 20.7618 19.5201 20.4393 19.9797 19.9797C20.4393 19.5201 20.7618 18.9416 20.9112 18.309C21.0605 17.6764 21.0308 17.0148 20.8253 16.3981C20.6197 15.7815 20.2466 15.2343 19.7476 14.8178C19.2486 14.4013 18.6435 14.132 18 14.04M5.99991 14.04C5.35647 14.132 4.75136 14.4013 4.25236 14.8178C3.75337 15.2343 3.38021 15.7815 3.17469 16.3981C2.96917 17.0148 2.93942 17.6764 3.08876 18.309C3.2381 18.9416 3.56064 19.5201 4.02024 19.9797C4.47984 20.4393 5.05834 20.7618 5.69092 20.9112C6.32351 21.0605 6.98518 21.0308 7.6018 20.8253C8.21843 20.6197 8.76564 20.2466 9.18213 19.7476C9.59863 19.2486 9.86794 18.6435 9.95991 18" stroke="currentColor" stroke-width="1.5" stroke-linecap="round" stroke-linejoin="round"/>
</svg>
