<svg width="24" height="24" viewBox="0 0 24 24" fill="none" xmlns="http://www.w3.org/2000/svg">
<path d="M18.0642 10.877L13.1742 3.61703C12.7542 2.99203 11.8872 2.81402 11.2382 3.22002C11.0753 3.32225 10.9356 3.45749 10.8282 3.61703L5.9352 10.877C4.2402 13.715 4.9002 17.318 7.5022 19.423C9.7052 21.205 12.7612 21.479 15.2252 20.243M19.0002 22V22.01M19.0002 19C19.4485 18.9986 19.8834 18.8468 20.2352 18.569C20.587 18.2911 20.8355 17.9033 20.9408 17.4675C21.0461 17.0318 21.0022 16.5733 20.8161 16.1655C20.63 15.7576 20.3124 15.424 19.9142 15.218C19.5164 15.0142 19.0613 14.951 18.6231 15.0387C18.1848 15.1264 17.789 15.3598 17.5002 15.701" stroke="currentColor" stroke-width="1.5" stroke-linecap="round" stroke-linejoin="round"/>
</svg>
