<svg width="24" height="24" viewBox="0 0 24 24" fill="none" xmlns="http://www.w3.org/2000/svg">
<path d="M17.6682 10.29L13.1752 3.61703C12.7542 2.99203 11.8872 2.81402 11.2382 3.22002C11.0753 3.32225 10.9356 3.45749 10.8282 3.61703L5.9352 10.877C4.2402 13.715 4.9002 17.318 7.5022 19.423C8.26618 20.0364 9.1477 20.4869 10.0924 20.7465C11.0371 21.0062 12.025 21.0697 12.9952 20.933M21.0002 15H18.5002C18.1024 15 17.7209 15.158 17.4396 15.4393C17.1583 15.7206 17.0002 16.1022 17.0002 16.5C17.0002 16.8978 17.1583 17.2794 17.4396 17.5607C17.7209 17.842 18.1024 18 18.5002 18H19.5002C19.8981 18 20.2796 18.158 20.5609 18.4393C20.8422 18.7206 21.0002 19.1022 21.0002 19.5C21.0002 19.8978 20.8422 20.2794 20.5609 20.5607C20.2796 20.842 19.8981 21 19.5002 21H17.0002M19.0002 21V22M19.0002 14V15" stroke="currentColor" stroke-width="1.5" stroke-linecap="round" stroke-linejoin="round"/>
</svg>
