<svg width="24" height="24" viewBox="0 0 24 24" fill="none" xmlns="http://www.w3.org/2000/svg">
<path d="M13.9051 2.92305L14.0031 3.05805L18.9231 10.364C19.5019 11.329 19.8582 12.411 19.9661 13.531L19.9901 13.857C19.9971 13.904 20.0001 13.951 20.0001 14L19.9981 14.06C20.0541 16.36 19.0541 18.642 17.1281 20.2C14.1591 22.602 9.84206 22.602 6.87306 20.2C4.96906 18.66 3.96906 16.413 4.00806 14.129C3.99467 14.0181 3.99906 13.9056 4.02106 13.796C4.09069 12.6836 4.40227 11.5997 4.93406 10.62L5.10606 10.318L9.99906 3.05805C10.1841 2.78305 10.4251 2.54905 10.7081 2.37205C11.7631 1.71205 13.1541 1.95905 13.9051 2.92205V2.92305ZM11.8451 4.03005L11.7681 4.06805L11.7271 4.09805L11.6901 4.13405L11.6571 4.17605L6.79406 11.39C6.49476 11.8896 6.27513 12.4328 6.14306 13H17.8661C17.76 12.5431 17.5953 12.1018 17.3761 11.687L17.2351 11.436L12.3441 4.17505C12.2883 4.09927 12.209 4.044 12.1186 4.01778C12.0283 3.99157 11.9317 3.99588 11.8441 4.03005H11.8451Z" fill="currentColor"/>
</svg>
