<svg width="24" height="24" viewBox="0 0 24 24" fill="none" xmlns="http://www.w3.org/2000/svg">
<path d="M18.4212 11.56C18.3154 11.3257 18.1962 11.0977 18.0642 10.877L13.1742 3.61703C12.7542 2.99203 11.8872 2.81402 11.2382 3.22002C11.0753 3.32225 10.9356 3.45749 10.8282 3.61703L5.9352 10.877C4.2402 13.715 4.9002 17.318 7.5022 19.423C8.78172 20.4535 10.3773 21.0115 12.0202 21.003M19.0012 21C18.4708 21 17.9621 20.7893 17.587 20.4142C17.2119 20.0391 17.0012 19.5304 17.0012 19C17.0012 18.4696 17.2119 17.9609 17.587 17.5858C17.9621 17.2107 18.4708 17 19.0012 17M19.0012 21C19.5317 21 20.0404 20.7893 20.4154 20.4142C20.7905 20.0391 21.0012 19.5304 21.0012 19C21.0012 18.4696 20.7905 17.9609 20.4154 17.5858C20.0404 17.2107 19.5317 17 19.0012 17M19.0012 21V22.5M19.0012 17V15.5M22.0322 17.25L20.7332 18M17.2702 20L15.9702 20.75M15.9702 17.25L17.2702 18M20.7332 20L22.0332 20.75" stroke="currentColor" stroke-width="1.5" stroke-linecap="round" stroke-linejoin="round"/>
</svg>
