<svg width="24" height="24" viewBox="0 0 24 24" fill="none" xmlns="http://www.w3.org/2000/svg">
<path d="M4.07211 20.3001C4.61227 20.7534 5.29492 21.0019 6.00011 21.0019C6.70531 21.0019 7.38796 20.7534 7.92811 20.3001C8.46809 19.8465 8.83117 19.2173 8.95367 18.5229C9.07618 17.8284 8.95031 17.113 8.59811 16.5021L6.50311 13.2751C6.44859 13.1915 6.37409 13.1229 6.28634 13.0753C6.1986 13.0278 6.1004 13.0029 6.00061 13.0029C5.90083 13.0029 5.80263 13.0278 5.71489 13.0753C5.62714 13.1229 5.55264 13.1915 5.49811 13.2751L3.40011 16.5021C3.04823 17.1132 2.92263 17.8286 3.04531 18.523C3.168 19.2174 3.53214 19.8465 4.07211 20.3001Z" stroke="currentColor" stroke-width="1.5" stroke-linecap="round" stroke-linejoin="round"/>
<path d="M16.0721 20.3001C16.6123 20.7534 17.2949 21.0019 18.0001 21.0019C18.7053 21.0019 19.388 20.7534 19.9281 20.3001C20.4681 19.8465 20.8312 19.2173 20.9537 18.5229C21.0762 17.8284 20.9503 17.113 20.5981 16.5021L18.5031 13.2751C18.4486 13.1915 18.3741 13.1229 18.2863 13.0753C18.1986 13.0278 18.1004 13.0029 18.0006 13.0029C17.9008 13.0029 17.8026 13.0278 17.7149 13.0753C17.6271 13.1229 17.5526 13.1915 17.4981 13.2751L15.4001 16.5021C15.0482 17.1132 14.9226 17.8286 15.0453 18.523C15.168 19.2174 15.5311 19.8465 16.0711 20.3001H16.0721Z" stroke="currentColor" stroke-width="1.5" stroke-linecap="round" stroke-linejoin="round"/>
<path d="M10.0721 10.3001C10.6123 10.7534 11.2949 11.0019 12.0001 11.0019C12.7053 11.0019 13.388 10.7534 13.9281 10.3001C14.4681 9.84652 14.8312 9.21735 14.9537 8.52289C15.0762 7.82843 14.9503 7.113 14.5981 6.50207L12.5031 3.27507C12.4486 3.1915 12.3741 3.12285 12.2863 3.07533C12.1986 3.02781 12.1004 3.00293 12.0006 3.00293C11.9008 3.00293 11.8026 3.02781 11.7149 3.07533C11.6271 3.12285 11.5526 3.1915 11.4981 3.27507L9.40011 6.50207C9.04823 7.11317 8.92263 7.82861 9.04531 8.52302C9.168 9.21744 9.53214 9.84653 10.0721 10.3001Z" stroke="currentColor" stroke-width="1.5" stroke-linecap="round" stroke-linejoin="round"/>
</svg>
