<svg width="24" height="24" viewBox="0 0 24 24" fill="none" xmlns="http://www.w3.org/2000/svg">
<path d="M12.0001 2L12.0701 2.003C12.4221 2.01169 12.7679 2.0974 13.0832 2.2541C13.3985 2.4108 13.6757 2.63468 13.8951 2.91L14.0031 3.058L18.9231 10.364C20.8751 13.631 20.1141 17.784 17.1271 20.2C14.1591 22.602 9.84213 22.602 6.87313 20.2C3.95613 17.84 3.16213 13.824 4.97213 10.55L5.10613 10.318L9.99913 3.058C10.1841 2.783 10.4251 2.549 10.7081 2.372C11.0303 2.17012 11.3955 2.0468 11.7741 2.012L12.0001 2ZM11.0001 5.149L6.79413 11.389C5.35413 13.799 5.91413 16.852 8.13113 18.646C8.95976 19.3144 9.94885 19.7543 11.0001 19.922V5.149Z" fill="currentColor"/>
</svg>
