<svg width="24" height="24" viewBox="0 0 24 24" fill="none" xmlns="http://www.w3.org/2000/svg">
<path d="M18.6062 12.014C18.4619 11.6188 18.2804 11.238 18.0642 10.877L13.1742 3.61703C12.7542 2.99203 11.8872 2.81402 11.2382 3.22002C11.0753 3.32225 10.9356 3.45749 10.8282 3.61703L5.9352 10.877C4.2402 13.715 4.9002 17.318 7.5022 19.423C8.86467 20.5192 10.5815 21.0785 12.3282 20.995M17 21L21 17M16 19C16 19.7956 16.3161 20.5587 16.8787 21.1213C17.4413 21.6839 18.2044 22 19 22C19.7956 22 20.5587 21.6839 21.1213 21.1213C21.6839 20.5587 22 19.7956 22 19C22 18.2044 21.6839 17.4413 21.1213 16.8787C20.5587 16.3161 19.7956 16 19 16C18.2044 16 17.4413 16.3161 16.8787 16.8787C16.3161 17.4413 16 18.2044 16 19Z" stroke="currentColor" stroke-width="1.5" stroke-linecap="round" stroke-linejoin="round"/>
</svg>
