<svg width="24" height="24" viewBox="0 0 24 24" fill="none" xmlns="http://www.w3.org/2000/svg">
<path d="M18.0642 10.877L13.1742 3.61703C12.7542 2.99203 11.8872 2.81402 11.2382 3.22002C11.0753 3.32225 10.9356 3.45749 10.8282 3.61703L5.9352 10.877C4.2402 13.715 4.9002 17.318 7.5022 19.423C8.68798 20.3787 10.1486 20.9296 11.6702 20.995M20.2002 20.2L22.0002 22M15.0002 18C15.0002 18.7956 15.3163 19.5587 15.8789 20.1213C16.4415 20.6839 17.2046 21 18.0002 21C18.7959 21 19.559 20.6839 20.1216 20.1213C20.6842 19.5587 21.0002 18.7956 21.0002 18C21.0002 17.2044 20.6842 16.4413 20.1216 15.8787C19.559 15.3161 18.7959 15 18.0002 15C17.2046 15 16.4415 15.3161 15.8789 15.8787C15.3163 16.4413 15.0002 17.2044 15.0002 18Z" stroke="currentColor" stroke-width="1.5" stroke-linecap="round" stroke-linejoin="round"/>
</svg>
