<svg width="24" height="24" viewBox="0 0 24 24" fill="none" xmlns="http://www.w3.org/2000/svg">
<path d="M15 14.9999C15 15.5304 14.7893 16.0391 14.4142 16.4142C14.0391 16.7892 13.5304 16.9999 13 16.9999C12.268 16.9999 11.445 16.7529 11.28 16.0199C10.646 13.2199 8.11 13.3919 8 10.9999V10.4999C7.99965 9.70339 8.27102 8.93055 8.76929 8.30908C9.26755 7.6876 9.9629 7.25468 10.7405 7.08182C11.518 6.90896 12.3313 7.00651 13.046 7.35835C13.7606 7.71019 14.3338 8.29527 14.671 9.01695M4 8V6C4 5.46957 4.21071 4.96086 4.58579 4.58579C4.96086 4.21071 5.46957 4 6 4H8M4 16V18C4 18.5304 4.21071 19.0391 4.58579 19.4142C4.96086 19.7893 5.46957 20 6 20H8M16 4H18C18.5304 4 19.0391 4.21071 19.4142 4.58579C19.7893 4.96086 20 5.46957 20 6V8M16 20H18C18.5304 20 19.0391 19.7893 19.4142 19.4142C19.7893 19.0391 20 18.5304 20 18V16M13 12V12.01" stroke="currentColor" stroke-width="1.5" stroke-linecap="round" stroke-linejoin="round"/>
</svg>
