<svg width="24" height="24" viewBox="0 0 24 24" fill="none" xmlns="http://www.w3.org/2000/svg">
<path d="M6 10.0001C6 8.85405 6.277 7.75505 6.78 6.78105M8.572 4.57305C9.84858 3.53044 11.4521 2.97173 13.1002 2.99535C14.7483 3.01896 16.3352 3.62338 17.5814 4.70214C18.8276 5.78091 19.6531 7.26482 19.9126 8.89251C20.1721 10.5202 19.8489 12.1873 19 13.6001C18.8017 13.8644 18.5905 14.1187 18.367 14.3621M16.322 16.3221C15.7585 17.0031 15.3118 17.7729 15 18.6001C14.6897 19.1865 14.2535 19.697 13.7228 20.0951C13.192 20.4933 12.5798 20.7691 11.93 20.9029C11.2802 21.0367 10.6088 21.0251 9.96393 20.869C9.31908 20.7129 8.71673 20.4162 8.2 20.0001M11.4199 7.41407C11.9949 7.05753 12.6734 6.90578 13.3455 6.98348C14.0175 7.06117 14.6436 7.36373 15.122 7.84205C15.6005 8.32037 15.9032 8.94635 15.981 9.61839C16.0589 10.2904 15.9073 10.969 15.5509 11.5441M3 3.00006L21 21.0001" stroke="currentColor" stroke-width="1.5" stroke-linecap="round" stroke-linejoin="round"/>
</svg>
