<svg width="24" height="24" viewBox="0 0 24 24" fill="none" xmlns="http://www.w3.org/2000/svg">
<path d="M6 9.99993C5.99915 8.92081 6.2478 7.85611 6.72652 6.88899C7.20525 5.92187 7.9011 5.07853 8.7597 4.42484C9.6183 3.77116 10.6164 3.32483 11.676 3.12073C12.7357 2.91663 13.8282 2.96028 14.8682 3.24827C15.9081 3.53627 16.8674 4.06081 17.6712 4.78091C18.4749 5.50102 19.1012 6.39719 19.5012 7.39942C19.9013 8.40166 20.0642 9.48281 19.9772 10.5584C19.8903 11.634 19.5558 12.675 19 13.5999C18.4315 14.358 17.7581 15.0314 17 15.5999C16.1137 16.4347 15.4297 17.4608 15 18.5999C14.6897 19.1864 14.2535 19.6969 13.7228 20.095C13.192 20.4931 12.5798 20.769 11.93 20.9028C11.2802 21.0365 10.6088 21.025 9.96393 20.8689C9.31908 20.7128 8.71673 20.4161 8.2 19.9999M9.99997 9.99994C9.99397 9.49805 10.114 9.00268 10.349 8.55919C10.5841 8.1157 10.9266 7.73828 11.3453 7.46148C11.7641 7.18468 12.2455 7.01737 12.7456 6.97485C13.2458 6.93233 13.7486 7.01598 14.208 7.21812C14.6674 7.42027 15.0688 7.73445 15.3753 8.1319C15.6818 8.52934 15.8837 8.99735 15.9625 9.49305C16.0414 9.98875 15.9945 10.4963 15.8264 10.9692C15.6582 11.4421 15.3741 11.8653 15 12.1999" stroke="currentColor" stroke-width="1.5" stroke-linecap="round" stroke-linejoin="round"/>
</svg>
