<svg width="24" height="24" viewBox="0 0 24 24" fill="none" xmlns="http://www.w3.org/2000/svg">
<path d="M17 20C17 20.5304 17.2107 21.0391 17.5858 21.4142C17.9609 21.7893 18.4696 22 19 22C19.5304 22 20.0391 21.7893 20.4142 21.4142C20.7893 21.0391 21 20.5304 21 20C21 19.4696 20.7893 18.9609 20.4142 18.5858C20.0391 18.2107 19.5304 18 19 18C18.4696 18 17.9609 18.2107 17.5858 18.5858C17.2107 18.9609 17 19.4696 17 20ZM17 20H15M7 4C7 4.53043 6.78929 5.03914 6.41421 5.41421C6.03914 5.78929 5.53043 6 5 6C4.46957 6 3.96086 5.78929 3.58579 5.41421C3.21071 5.03914 3 4.53043 3 4C3 3.46957 3.21071 2.96086 3.58579 2.58579C3.96086 2.21071 4.46957 2 5 2C5.53043 2 6.03914 2.21071 6.41421 2.58579C6.78929 2.96086 7 3.46957 7 4ZM7 4H9M14 4H12M12 20H10M3 20C11 20 13 4 21 4" stroke="currentColor" stroke-width="1.5" stroke-linecap="round" stroke-linejoin="round"/>
</svg>
