<svg width="24" height="24" viewBox="0 0 24 24" fill="none" xmlns="http://www.w3.org/2000/svg">
<path d="M16 5L19 8M8.99992 7.06995C7.24571 7.31989 5.65156 8.22579 4.53904 9.60493C3.42651 10.9841 2.87841 12.7338 3.00528 14.5012C3.13216 16.2686 3.92457 17.9221 5.22269 19.1281C6.5208 20.3342 8.228 21.0031 9.99992 20.9999C11.6833 21.0001 13.3104 20.3937 14.583 19.2917C15.8556 18.1897 16.6884 16.6661 16.9289 14.9999M12 15L20.385 6.58499C20.7788 6.19114 21.0001 5.65697 21.0001 5.09998C21.0001 4.543 20.7788 4.00883 20.385 3.61498C19.9912 3.22114 19.457 2.99988 18.9 2.99988C18.343 2.99988 17.8088 3.22114 17.415 3.61498L9 12V15H12Z" stroke="currentColor" stroke-width="1.5" stroke-linecap="round" stroke-linejoin="round"/>
</svg>
