<svg width="24" height="24" viewBox="0 0 24 24" fill="none" xmlns="http://www.w3.org/2000/svg">
<path d="M10.507 10.498L9 12V15H12L13.493 13.502M15.493 11.492L20.383 6.58499C20.7768 6.19114 20.9981 5.65697 20.9981 5.09998C20.9981 4.543 20.7768 4.00883 20.383 3.61498C19.9892 3.22114 19.455 2.99988 18.898 2.99988C18.341 2.99988 17.8068 3.22114 17.413 3.61498L12.5 8.51098M16 5L19 8M7.47619 7.47095C5.95237 8.0601 4.68262 9.1637 3.8869 10.5906C3.09117 12.0174 2.8196 13.6777 3.11923 15.2837C3.41886 16.8898 4.2708 18.3404 5.52749 19.3844C6.78418 20.4284 8.36644 20.9999 10.0002 20.9999C11.413 21.0003 12.7928 20.5731 13.9583 19.7746C15.1238 18.9761 16.0204 17.8436 16.5302 16.5259M3 3L21 21" stroke="currentColor" stroke-width="1.5" stroke-linecap="round" stroke-linejoin="round"/>
</svg>
