<svg width="24" height="24" viewBox="0 0 24 24" fill="none" xmlns="http://www.w3.org/2000/svg">
<path d="M7 7H6C5.46957 7 4.96086 7.21071 4.58579 7.58579C4.21071 7.96086 4 8.46957 4 9V18C4 18.5304 4.21071 19.0391 4.58579 19.4142C4.96086 19.7893 5.46957 20 6 20H15C15.5304 20 16.0391 19.7893 16.4142 19.4142C16.7893 19.0391 17 18.5304 17 18V17M10.507 10.498L9 12V15H12L13.493 13.502M15.493 11.492L20.383 6.58499C20.7768 6.19114 20.9981 5.65697 20.9981 5.09998C20.9981 4.543 20.7768 4.00883 20.383 3.61498C19.9892 3.22114 19.455 2.99988 18.898 2.99988C18.341 2.99988 17.8068 3.22114 17.413 3.61498L12.5 8.51098M16 5L19 8M3 3L21 21" stroke="currentColor" stroke-width="1.5" stroke-linecap="round" stroke-linejoin="round"/>
</svg>
