<svg width="24" height="24" viewBox="0 0 24 24" fill="none" xmlns="http://www.w3.org/2000/svg">
<path d="M9 12C9 12.7956 9.31607 13.5587 9.87868 14.1213C10.4413 14.6839 11.2044 15 12 15C12.7956 15 13.5587 14.6839 14.1213 14.1213C14.6839 13.5587 15 12.7956 15 12C15 11.2043 14.6839 10.4413 14.1213 9.87865C13.5587 9.31604 12.7956 8.99997 12 8.99997C11.2044 8.99997 10.4413 9.31604 9.87868 9.87865C9.31607 10.4413 9 11.2043 9 12Z" stroke="currentColor" stroke-width="1.5" stroke-linecap="round" stroke-linejoin="round"/>
<path d="M14 2.99998C14.7528 2.99977 15.4959 3.16954 16.1739 3.49663C16.8519 3.82371 17.4473 4.29966 17.9156 4.88898C18.384 5.47829 18.7133 6.16576 18.8789 6.90009C19.0445 7.63443 19.0421 8.39668 18.872 9.12998C19.4723 9.31226 20.0004 9.67818 20.382 10.1763C20.7635 10.6743 20.9793 11.2795 20.9989 11.9066C21.0186 12.5337 20.8411 13.1512 20.4915 13.6722C20.1419 14.1932 19.6378 14.5915 19.05 14.811C19.3672 15.1077 19.6161 15.4698 19.7796 15.8722C19.9432 16.2747 20.0173 16.7078 19.9971 17.1417C19.9768 17.5755 19.8625 17.9999 19.6622 18.3853C19.4619 18.7707 19.1802 19.108 18.8367 19.3739C18.4933 19.6398 18.0962 19.8279 17.6729 19.9253C17.2495 20.0226 16.8101 20.0269 16.385 19.9378C15.9599 19.8487 15.5592 19.6684 15.2106 19.4093C14.862 19.1501 14.5738 18.8184 14.366 18.437C14.0377 19.0057 13.6006 19.5043 13.0796 19.9041C12.5586 20.3039 11.964 20.5972 11.3297 20.7672C10.6954 20.9372 10.0338 20.9807 9.3827 20.895C8.7316 20.8093 8.10375 20.5963 7.53499 20.268C6.96624 19.9397 6.46772 19.5026 6.06789 18.9816C5.66807 18.4606 5.37477 17.866 5.20475 17.2317C5.03472 16.5974 4.9913 15.9358 5.07696 15.2847C5.16262 14.6336 5.37569 14.0057 5.70399 13.437C4.52961 12.821 3.64803 11.7638 3.25317 10.4978C2.85831 9.23183 2.98253 7.86085 3.59849 6.68648C4.21446 5.5121 5.27172 4.63051 6.53768 4.23565C7.80364 3.84079 9.17461 3.96501 10.349 4.58098C10.8159 4.08004 11.3812 3.68075 12.0093 3.40803C12.6375 3.13532 13.3152 2.99505 14 2.99598V2.99998Z" stroke="currentColor" stroke-width="1.5" stroke-linecap="round" stroke-linejoin="round"/>
</svg>
