<svg width="24" height="24" viewBox="0 0 24 24" fill="none" xmlns="http://www.w3.org/2000/svg">
<path d="M9.5 5.5C9.5 6.16304 9.76339 6.79893 10.2322 7.26777C10.7011 7.73661 11.337 8 12 8C12.663 8 13.2989 7.73661 13.7678 7.26777C14.2366 6.79893 14.5 6.16304 14.5 5.5C14.5 4.83696 14.2366 4.20107 13.7678 3.73223C13.2989 3.26339 12.663 3 12 3C11.337 3 10.7011 3.26339 10.2322 3.73223C9.76339 4.20107 9.5 4.83696 9.5 5.5Z" stroke="currentColor" stroke-width="1.5" stroke-linecap="round" stroke-linejoin="round"/>
<path d="M12 21.368L17.095 16.272C17.3848 15.9859 17.6151 15.6454 17.7728 15.2699C17.9304 14.8945 18.0123 14.4916 18.0136 14.0844C18.0149 13.6772 17.9357 13.2737 17.7804 12.8973C17.6252 12.5208 17.3971 12.1787 17.1091 11.8908C16.8212 11.6029 16.4792 11.3747 16.1027 11.2195C15.7262 11.0643 15.3228 10.9851 14.9156 10.9864C14.5084 10.9877 14.1055 11.0695 13.73 11.2272C13.3546 11.3848 13.014 11.6152 12.728 11.905L12 12.632L11.272 11.905C10.9859 11.6152 10.6453 11.3848 10.2699 11.2272C9.89444 11.0695 9.49152 10.9877 9.08432 10.9864C8.67712 10.9851 8.27368 11.0643 7.89722 11.2195C7.52076 11.3747 7.17872 11.6029 6.89078 11.8908C6.60285 12.1787 6.3747 12.5208 6.21948 12.8973C6.06426 13.2737 5.98503 13.6772 5.98634 14.0844C5.98766 14.4916 6.0695 14.8945 6.22716 15.2699C6.38481 15.6454 6.61517 15.9859 6.90496 16.272L12 21.368Z" stroke="currentColor" stroke-width="1.5" stroke-linecap="round" stroke-linejoin="round"/>
</svg>
