<svg width="24" height="24" viewBox="0 0 24 24" fill="none" xmlns="http://www.w3.org/2000/svg">
<path d="M12 8C12.4945 8 12.9778 7.85338 13.3889 7.57867C13.8 7.30397 14.1205 6.91352 14.3097 6.45671C14.4989 5.99989 14.5484 5.49723 14.452 5.01228C14.3555 4.52732 14.1174 4.08187 13.7678 3.73223C13.4181 3.3826 12.9727 3.1445 12.4877 3.04804C12.0028 2.95157 11.5001 3.00108 11.0433 3.1903C10.5865 3.37952 10.196 3.69995 9.92133 4.11108C9.64662 4.5222 9.5 5.00555 9.5 5.5M12.317 12.315L12 12.632L11.272 11.905C10.9859 11.6152 10.6453 11.3848 10.2699 11.2272C9.89444 11.0695 9.49152 10.9877 9.08432 10.9864C8.67712 10.9851 8.27368 11.0643 7.89722 11.2195C7.52076 11.3747 7.17872 11.6029 6.89078 11.8908C6.60285 12.1787 6.3747 12.5208 6.21948 12.8973C6.06426 13.2737 5.98503 13.6772 5.98634 14.0844C5.98766 14.4916 6.0695 14.8945 6.22716 15.2699C6.38481 15.6454 6.61517 15.9859 6.90496 16.272L12 21.368L16.689 16.678M18.013 14.005C17.9954 13.2096 17.6713 12.4517 17.1085 11.8894C16.5456 11.3271 15.7874 11.0038 14.992 10.987M3 3L21 21" stroke="currentColor" stroke-width="1.5" stroke-linecap="round" stroke-linejoin="round"/>
</svg>
