<svg width="24" height="24" viewBox="0 0 24 24" fill="none" xmlns="http://www.w3.org/2000/svg">
<path d="M3 3L21 21M19.0001 19.9999H8.50006L4.29006 15.6999C4.10381 15.5125 3.99927 15.2591 3.99927 14.9949C3.99927 14.7307 4.10381 14.4772 4.29006 14.2899L9.29006 9.29689M11.2991 7.28689L14.2991 4.28689C14.4864 4.10064 14.7399 3.99609 15.0041 3.99609C15.2682 3.99609 15.5217 4.10064 15.7091 4.28689L20.7091 9.28689C20.8953 9.47425 20.9999 9.7277 20.9999 9.99189C20.9999 10.2561 20.8953 10.5095 20.7091 10.6969C19.2921 12.1279 18.3031 13.1289 17.7391 13.6969M15.7191 15.7399L11.5081 19.9959M18 13.3L11.7 7" stroke="currentColor" stroke-width="1.5" stroke-linecap="round" stroke-linejoin="round"/>
</svg>
