<svg width="24" height="24" viewBox="0 0 24 24" fill="none" xmlns="http://www.w3.org/2000/svg">
<path fill-rule="evenodd" clip-rule="evenodd" d="M14.8837 5.05567C15.3993 4.53996 16.0986 4.25016 16.8278 4.25H19.5C20.362 4.25 21.1886 4.59241 21.7981 5.2019C22.4076 5.8114 22.75 6.63805 22.75 7.5C22.75 8.36195 22.4076 9.1886 21.7981 9.7981C21.1886 10.4076 20.362 10.75 19.5 10.75H18.3107L10.1164 18.9442C10.1164 18.9443 10.1164 18.9442 10.1164 18.9442C9.60081 19.46 8.90141 19.7498 8.17216 19.75H4.5C3.63805 19.75 2.8114 19.4076 2.2019 18.7981C1.59241 18.1886 1.25 17.362 1.25 16.5C1.25 15.638 1.59241 14.8114 2.2019 14.2019C2.8114 13.5924 3.63805 13.25 4.5 13.25H6.68934L14.8837 5.05567C14.8837 5.05564 14.8836 5.0557 14.8837 5.05567ZM16.828 5.75C16.4966 5.75011 16.1787 5.88185 15.9444 6.11625L7.53033 14.5303C7.38968 14.671 7.19891 14.75 7 14.75H4.5C4.03587 14.75 3.59075 14.9344 3.26256 15.2626C2.93437 15.5908 2.75 16.0359 2.75 16.5C2.75 16.9641 2.93437 17.4092 3.26256 17.7374C3.59075 18.0656 4.03587 18.25 4.5 18.25H8.17184C8.17179 18.25 8.17189 18.25 8.17184 18.25C8.50328 18.2499 8.82126 18.1181 9.05559 17.8837L17.4697 9.46967C17.6103 9.32902 17.8011 9.25 18 9.25H19.5C19.9641 9.25 20.4092 9.06563 20.7374 8.73744C21.0656 8.40925 21.25 7.96413 21.25 7.5C21.25 7.03587 21.0656 6.59075 20.7374 6.26256C20.4092 5.93437 19.9641 5.75 19.5 5.75H16.828C16.8281 5.75 16.8279 5.75 16.828 5.75Z" fill="currentColor"/>
</svg>
