<svg width="24" height="24" viewBox="0 0 24 24" fill="none" xmlns="http://www.w3.org/2000/svg">
<path d="M13.9881 3.82028V4.04685H18.7107C20.2107 4.04685 21.4412 5.28122 21.4412 6.78123V17.7148C21.4412 19.2148 20.2107 20.4492 18.7107 20.4492H13.9256C13.7693 21.3906 12.8748 22.0781 11.906 21.8867L4.35523 20.375C3.31226 20.168 2.55835 19.2461 2.55835 18.1836V5.81638C2.55835 4.75388 3.31226 3.832 4.35523 3.62497L11.906 2.11325C12.0388 2.0859 12.1717 2.07809 12.3006 2.082C13.2068 2.11325 13.9881 2.87106 13.9881 3.82028ZM4.6482 5.08591C4.29273 5.15622 4.04663 5.45701 4.04663 5.81638V18.1836C4.04663 18.543 4.29273 18.8438 4.6482 18.9141L12.199 20.4219C12.199 20.4258 12.199 20.4258 12.199 20.4258C12.367 20.457 12.4959 20.3516 12.4959 20.1797V3.82028C12.4959 3.64841 12.367 3.54294 12.199 3.57419L4.6482 5.08591ZM13.9881 18.957H18.7107C19.406 18.957 19.9529 18.4102 19.9529 17.7148V6.78123C19.9529 6.08591 19.406 5.53904 18.7107 5.53904H13.9881V18.957ZM17.7146 7.52732C17.9842 7.52342 18.2342 7.66404 18.3709 7.89842C18.5037 8.12889 18.5037 8.41795 18.3709 8.64842C18.2342 8.87889 17.9842 9.02342 17.7146 9.01951H15.7263C15.4568 9.02342 15.2068 8.87889 15.074 8.64842C14.9373 8.41795 14.9373 8.12889 15.074 7.89842C15.2068 7.66404 15.4568 7.52342 15.7263 7.52732H17.7146ZM7.14039 8.94529L8.25368 10.6914L9.36305 8.94529C9.58571 8.59764 10.0466 8.49608 10.3904 8.71483C10.7381 8.93748 10.8396 9.39842 10.6209 9.74608L9.13649 12.0781L10.6209 14.4102C10.8396 14.7578 10.7381 15.2187 10.3904 15.4414C10.2654 15.5195 10.1287 15.5586 9.99196 15.5586C9.74587 15.5586 9.50368 15.4336 9.36305 15.2109L8.25368 13.4687L7.14039 15.2148C6.99977 15.4375 6.75758 15.5586 6.51148 15.5586C6.37476 15.5586 6.23414 15.5195 6.11305 15.4414C5.76539 15.2187 5.66383 14.7578 5.88258 14.4141L7.36695 12.0781L5.88258 9.74608C5.66383 9.39842 5.76539 8.93748 6.11305 8.71483C6.24195 8.63279 6.38648 8.59764 6.53102 8.60154C6.7693 8.60545 7.00367 8.72654 7.14039 8.94529ZM17.7146 11.5039C17.9842 11.5 18.2342 11.6406 18.3709 11.8711C18.5037 12.1055 18.5037 12.3906 18.3709 12.625C18.2342 12.8555 17.9842 12.9961 17.7146 12.9922H15.7263C15.4568 12.9961 15.2068 12.8555 15.074 12.625C14.9373 12.3906 14.9373 12.1055 15.074 11.8711C15.2068 11.6406 15.4568 11.5 15.7263 11.5039H17.7146ZM17.7146 15.4805C17.9842 15.4766 18.2342 15.6172 18.3709 15.8477C18.5037 16.082 18.5037 16.3672 18.3709 16.6016C18.2342 16.832 17.9842 16.9727 17.7146 16.9688H15.7263C15.4568 16.9727 15.2068 16.832 15.074 16.6016C14.9373 16.3672 14.9373 16.082 15.074 15.8477C15.2068 15.6172 15.4568 15.4766 15.7263 15.4805H17.7146Z" fill="currentColor"/>
<path d="M12.3006 2.082C12.1717 2.07809 12.0388 2.0859 11.906 2.11325L4.35523 3.62497C3.31226 3.832 2.55835 4.75388 2.55835 5.81638V18.1836C2.55835 19.2461 3.31226 20.168 4.35523 20.375L11.906 21.8867C12.8748 22.0781 13.7693 21.3906 13.9255 20.4492H18.7107C20.2107 20.4492 21.4412 19.2148 21.4412 17.7148L21.4412 6.78123C21.4412 5.28122 20.2107 4.04685 18.7107 4.04685H13.9881V3.82028C13.9881 2.87106 13.2068 2.11325 12.3006 2.082ZM12.199 3.57419C12.367 3.54294 12.4959 3.64841 12.4959 3.82028L12.4958 20.1797C12.4958 20.3515 12.3669 20.457 12.199 20.4257C12.199 20.4257 12.199 20.4257 12.199 20.4218L4.6482 18.9141C4.29273 18.8438 4.04663 18.543 4.04663 18.1836V5.81638C4.04663 5.45701 4.29273 5.15622 4.6482 5.08591L12.199 3.57419ZM13.9881 5.53904H18.7107C19.406 5.53904 19.9529 6.08591 19.9529 6.78123L19.9529 17.7148C19.9529 18.4101 19.406 18.957 18.7107 18.957H13.988L13.9881 5.53904ZM15.7263 7.52732C15.4568 7.52342 15.2068 7.66404 15.074 7.89842C14.9373 8.12889 14.9373 8.41795 15.074 8.64842C15.2068 8.87889 15.4568 9.02342 15.7263 9.01951H17.7146C17.9842 9.02342 18.2342 8.87889 18.3709 8.64842C18.5037 8.41795 18.5037 8.12889 18.3709 7.89842C18.2342 7.66404 17.9842 7.52342 17.7146 7.52732H15.7263ZM6.53102 8.60154C6.38648 8.59764 6.24195 8.63279 6.11305 8.71483C5.76539 8.93748 5.66383 9.39842 5.88258 9.74608L7.36695 12.0781L5.88258 14.4141C5.66383 14.7578 5.76539 15.2187 6.11305 15.4414C6.23414 15.5195 6.37476 15.5586 6.51148 15.5586C6.75758 15.5586 6.99977 15.4375 7.14039 15.2148L8.25368 13.4687L9.36305 15.2109C9.50368 15.4336 9.74587 15.5586 9.99196 15.5586C10.1287 15.5586 10.2654 15.5195 10.3904 15.4414C10.7381 15.2187 10.8396 14.7578 10.6209 14.4102L9.13649 12.0781L10.6209 9.74608C10.8396 9.39842 10.7381 8.93748 10.3904 8.71483C10.0466 8.49608 9.58571 8.59764 9.36305 8.94529L8.25368 10.6914L7.14039 8.94529C7.00367 8.72654 6.7693 8.60545 6.53102 8.60154ZM15.7263 11.5039C15.4568 11.5 15.2068 11.6406 15.074 11.8711C14.9373 12.1055 14.9373 12.3906 15.074 12.625C15.2068 12.8555 15.4568 12.9961 15.7263 12.9922H17.7146C17.9842 12.9961 18.2342 12.8555 18.3709 12.625C18.5037 12.3906 18.5037 12.1055 18.3709 11.8711C18.2342 11.6406 17.9842 11.5 17.7146 11.5039H15.7263ZM15.7263 15.4805C15.4568 15.4766 15.2068 15.6172 15.074 15.8477C14.9373 16.082 14.9373 16.3672 15.074 16.6016C15.2068 16.832 15.4568 16.9726 15.7263 16.9687H17.7146C17.9841 16.9726 18.2341 16.832 18.3708 16.6015C18.5037 16.3672 18.5037 16.082 18.3708 15.8476C18.2341 15.6172 17.9841 15.4765 17.7146 15.4804L15.7263 15.4805Z" fill="currentColor"/>
</svg>
