<svg width="24" height="24" viewBox="0 0 24 24" fill="none" xmlns="http://www.w3.org/2000/svg">
<path d="M12 18C8.4 18 5.4 16 3 12C5.4 8 8.4 6 12 6C15.362 6 18.202 7.745 20.517 11.234M19 18V18.01M10 12C10 12.5304 10.2107 13.0391 10.5858 13.4142C10.9609 13.7893 11.4696 14 12 14C12.5304 14 13.0391 13.7893 13.4142 13.4142C13.7893 13.0391 14 12.5304 14 12C14 11.4696 13.7893 10.9609 13.4142 10.5858C13.0391 10.2107 12.5304 10 12 10C11.4696 10 10.9609 10.2107 10.5858 10.5858C10.2107 10.9609 10 11.4696 10 12ZM21.121 20.121C21.5407 19.7015 21.8265 19.167 21.9423 18.585C22.0581 18.003 21.9988 17.3998 21.7717 16.8515C21.5447 16.3033 21.1602 15.8347 20.6668 15.505C20.1734 15.1754 19.5934 14.9994 19 14.9994C18.4066 14.9994 17.8266 15.1754 17.3332 15.505C16.8398 15.8347 16.4553 16.3033 16.2283 16.8515C16.0012 17.3998 15.9419 18.003 16.0577 18.585C16.1735 19.167 16.4594 19.7015 16.879 20.121C17.297 20.54 18.004 21.166 19 22C20.051 21.11 20.759 20.484 21.121 20.121Z" stroke="currentColor" stroke-width="1.5" stroke-linecap="round" stroke-linejoin="round"/>
</svg>
