<svg width="24" height="24" viewBox="0 0 24 24" fill="none" xmlns="http://www.w3.org/2000/svg">
<path d="M13.905 11.39C13.8052 11.0784 13.6304 10.796 13.396 10.5677C13.1616 10.3393 12.8748 10.172 12.5607 10.0803C12.2465 9.98864 11.9147 9.97545 11.5943 10.0419C11.2739 10.1083 10.9747 10.2524 10.7229 10.4614C10.4711 10.6704 10.2745 10.938 10.1502 11.2407C10.0259 11.5434 9.97784 11.8719 10.0101 12.1976C10.0424 12.5232 10.1541 12.8359 10.3354 13.1083C10.5167 13.3807 10.7621 13.6045 11.05 13.76M9.992 17.779C7.27 17.158 4.939 15.232 3 12C5.4 8 8.4 6 12 6C15.332 6 18.15 7.714 20.454 11.14M18 22L21.35 18.716C21.5554 18.5167 21.7188 18.2782 21.8306 18.0146C21.9423 17.7511 22.0001 17.4678 22.0006 17.1816C22.0011 16.8953 21.9442 16.6119 21.8333 16.3479C21.7224 16.084 21.5598 15.845 21.355 15.645C20.9371 15.2363 20.3762 15.007 19.7917 15.0059C19.2072 15.0048 18.6454 15.2319 18.226 15.639L18.002 15.859L17.779 15.639C17.3612 15.2306 16.8005 15.0015 16.2162 15.0004C15.632 14.9993 15.0704 15.2262 14.651 15.633C14.4455 15.8323 14.282 16.0707 14.1702 16.3342C14.0583 16.5977 14.0004 16.881 13.9999 17.1672C13.9993 17.4535 14.0561 17.737 14.1669 18.0009C14.2777 18.2648 14.4403 18.5039 14.645 18.704L18 22Z" stroke="currentColor" stroke-width="1.5" stroke-linecap="round" stroke-linejoin="round"/>
</svg>
