<svg width="24" height="24" viewBox="0 0 24 24" fill="none" xmlns="http://www.w3.org/2000/svg">
<path d="M5.536 5.54599L3 14M3 14V16.5C3 17.4283 3.36875 18.3185 4.02513 18.9749C4.6815 19.6313 5.57174 20 6.5 20C7.42826 20 8.3185 19.6313 8.97487 18.9749C9.63125 18.3185 10 17.4283 10 16.5V14L3 14ZM16 4H18L21 14M21 14H18M21 14V16.5C21 16.657 20.99 16.812 20.97 16.963M10 16H14M19.426 19.423C18.8983 19.7708 18.2863 19.9692 17.655 19.9972C17.0236 20.0251 16.3965 19.8816 15.8401 19.5819C15.2837 19.2822 14.8188 18.8374 14.4949 18.2948C14.1709 17.7522 13.9999 17.132 14 16.5V14M3 3L21 21" stroke="currentColor" stroke-width="1.5" stroke-linecap="round" stroke-linejoin="round"/>
</svg>
