<svg width="24" height="24" viewBox="0 0 24 24" fill="none" xmlns="http://www.w3.org/2000/svg">
<path d="M5 14.5H4.778C3.243 14.5 2 13.38 2 12C2 10.62 3.243 9.5 4.778 9.5H5M19 14.5H19.222C20.756 14.5 22 13.38 22 12C22 10.62 20.756 9.5 19.222 9.5H19M9 10H10M14 10H15M9 14H14M19 15V8.51001C19 8.07547 18.8585 7.65275 18.5969 7.30579C18.3353 6.95883 17.9678 6.70651 17.55 6.58701L12.55 5.15801C12.1905 5.0552 11.8095 5.0552 11.45 5.15801L9.662 5.66901M6.544 6.56001L6.45 6.58701C6.03238 6.70647 5.665 6.95863 5.4034 7.30539C5.14179 7.65215 5.00019 8.07464 5 8.50901V15.491C4.99998 15.9256 5.14148 16.3483 5.40309 16.6952C5.66471 17.0422 6.03221 17.2945 6.45 17.414L11.45 18.843C11.8095 18.9458 12.1905 18.9458 12.55 18.843L17.449 17.443M3 3L21 21" stroke="currentColor" stroke-width="1.5" stroke-linecap="round" stroke-linejoin="round"/>
</svg>
