<svg width="24" height="24" viewBox="0 0 24 24" fill="none" xmlns="http://www.w3.org/2000/svg">
<path d="M5 14.5H4.778C3.243 14.5 2 13.38 2 12C2 10.62 3.243 9.50005 4.778 9.50005H5M19 14.5H19.222C20.756 14.5 22 13.38 22 12C22 10.62 20.756 9.50005 19.222 9.50005H19M9 10H15M9 14H15M12.55 18.843L17.55 17.414C17.9678 17.2945 18.3353 17.0422 18.5969 16.6953C18.8585 16.3483 19 15.9256 19 15.491V8.51004C19 8.0755 18.8585 7.65278 18.5969 7.30582C18.3353 6.95886 17.9678 6.70654 17.55 6.58704L12.55 5.15804C12.1905 5.05523 11.8095 5.05523 11.45 5.15804L6.45 6.58704C6.03238 6.7065 5.665 6.95866 5.4034 7.30542C5.14179 7.65218 5.00019 8.07467 5 8.50904V15.491C4.99998 15.9256 5.14148 16.3483 5.40309 16.6953C5.66471 17.0422 6.03221 17.2945 6.45 17.414L11.45 18.843C11.8095 18.9459 12.1905 18.9459 12.55 18.843Z" stroke="currentColor" stroke-width="1.5" stroke-linecap="round" stroke-linejoin="round"/>
</svg>
