<svg width="24" height="24" viewBox="0 0 24 24" fill="none" xmlns="http://www.w3.org/2000/svg">
<path d="M4 20L12 12M14 5V10H19M14 5L11.525 7.475M14 5C14.636 4.367 15.513 4 16.483 4C16.9447 3.99974 17.4019 4.09043 17.8285 4.26689C18.2551 4.44336 18.6428 4.70214 18.9694 5.02846C19.296 5.35478 19.5551 5.74224 19.732 6.16871C19.9088 6.59519 19.9999 7.05232 20 7.514C20 8.485 19.638 9.364 19 10M19 10L16.507 12.493M9 11V15H13M9.502 9.498L6 13V18H11L14.499 14.501M3 3L21 21" stroke="currentColor" stroke-width="1.5" stroke-linecap="round" stroke-linejoin="round"/>
</svg>
