<svg width="24" height="25" viewBox="0 0 24 25" fill="none" xmlns="http://www.w3.org/2000/svg">
<path d="M9.76029 16.4667C9.71457 16.8782 9.34367 17.1752 8.93217 17.1297C8.52066 17.084 8.22363 16.7131 8.26908 16.3016L9.76029 16.4667Z" fill="currentColor"/>
<path fill-rule="evenodd" clip-rule="evenodd" d="M15.439 8.4442C15.8169 8.48278 16.1117 8.80221 16.1119 9.1903V10.037L16.1109 10.0799C15.9989 12.0301 15.4561 13.5038 14.4722 14.4881C13.481 15.4797 12.1529 15.8641 10.7076 15.8641H9.85502C9.81528 16.0567 9.78353 16.2576 9.76029 16.4667L9.0142 16.3837L8.26908 16.3016C8.31293 15.9071 8.3839 15.5223 8.48393 15.1512C7.84065 14.2558 7.83549 13.4061 7.83549 12.9989V12.9969L7.84037 12.7704C7.88729 11.6406 8.26925 10.5474 9.20658 9.73424C10.1881 8.88283 11.6633 8.4403 13.6636 8.4403H15.3619L15.439 8.4442ZM13.6636 9.9403C11.8557 9.9403 10.7938 10.3443 10.19 10.868C9.60473 11.3758 9.33807 12.0945 9.33549 13.0008C9.33549 13.0901 9.33433 13.1931 9.3433 13.3065C9.89918 12.5336 10.6678 11.9132 11.6724 11.4667C12.0506 11.2989 12.4933 11.4696 12.6617 11.8475C12.8298 12.2259 12.6599 12.6694 12.2818 12.8378C11.4467 13.2089 10.8747 13.7034 10.4849 14.288C10.4684 14.3127 10.4539 14.3389 10.438 14.3641H10.7076C11.893 14.3641 12.7863 14.0532 13.4117 13.4276C14.0425 12.7963 14.5105 11.7352 14.6119 10.0077V9.9403H13.6636Z" fill="currentColor"/>
<path fill-rule="evenodd" clip-rule="evenodd" d="M17.8701 2.71862C18.3519 2.74699 18.8151 2.91696 19.2002 3.20787C19.5852 3.49874 19.8752 3.89781 20.0342 4.35338C20.1931 4.80915 20.2134 5.30302 20.0928 5.77037C19.9996 6.13075 19.8256 6.4639 19.5859 6.74498C19.6322 6.94822 19.6696 7.16912 19.7002 7.39635C19.7586 7.83059 19.8007 8.34126 19.8301 8.8944C19.889 10.002 19.8998 11.3208 19.8828 12.6239C19.8528 14.9248 19.7344 17.2346 19.6358 18.3172C19.8493 18.5848 20.0063 18.895 20.0928 19.2294C20.2135 19.6967 20.193 20.1906 20.0342 20.6464C19.8752 21.1019 19.5851 21.501 19.2002 21.7919C18.8151 22.0828 18.3519 22.2527 17.8701 22.2811L17.8408 22.2821C16.9998 22.2982 16.4687 22.0417 15.8399 21.6893H11.5215L11.5 21.6874L11.4785 21.6893H8.16017C7.53136 22.0417 7.00017 22.2982 6.15919 22.2821L6.12989 22.2811C5.648 22.2528 5.185 22.0828 4.79982 21.7919C4.41479 21.501 4.12482 21.102 3.96583 20.6464C3.80696 20.1905 3.7865 19.6967 3.90724 19.2294C3.99375 18.895 4.1507 18.5848 4.36427 18.3172C4.26561 17.2333 4.14725 14.9167 4.1172 12.6092C4.10019 11.3026 4.11105 9.98111 4.16993 8.87096C4.19936 8.31644 4.24143 7.80504 4.29982 7.36998C4.32928 7.15049 4.36433 6.93667 4.40821 6.73912C4.17128 6.45933 3.99974 6.12814 3.90724 5.77037C3.78656 5.303 3.8069 4.80918 3.96583 4.35338C4.12486 3.89786 4.41483 3.49871 4.79982 3.20787C5.18495 2.91703 5.64811 2.74694 6.12989 2.71862L6.15919 2.71764C7.0001 2.70153 7.53139 2.95807 8.16017 3.31041H11.4785L11.5 3.31139L11.5215 3.31041H15.8399C16.4685 2.95814 17 2.7015 17.8408 2.71764L17.8701 2.71862ZM17.792 4.21666C17.3282 4.21092 17.0874 4.32402 16.4024 4.71276C16.2897 4.7767 16.1618 4.81031 16.0322 4.81041H11.5215L11.5 4.80846L11.4785 4.81041H7.96778C7.83815 4.81035 7.71041 4.77674 7.59767 4.71276C6.91243 4.32393 6.67178 4.21094 6.20802 4.21666C6.02552 4.22932 5.85023 4.29484 5.70411 4.40514C5.55546 4.51745 5.44329 4.67164 5.38185 4.84752C5.3205 5.02345 5.3129 5.21398 5.35939 5.3944C5.39436 5.52976 5.45826 5.65591 5.54689 5.76256L5.64357 5.86217L5.69825 5.91686L5.70118 5.92077C5.944 6.1034 6.05849 6.41834 5.97462 6.71862L5.95021 6.79186L5.91017 6.91295C5.86932 7.05737 5.82582 7.2737 5.78614 7.5692C5.73504 7.94995 5.69622 8.41804 5.66798 8.95006C5.61155 10.0139 5.6004 11.2992 5.6172 12.5897C5.65095 15.181 5.79512 17.727 5.88868 18.4862L5.89357 18.578C5.89365 18.7596 5.82762 18.9354 5.70802 19.0721L5.64357 19.1376C5.50479 19.2618 5.40604 19.425 5.35939 19.6053C5.31284 19.7857 5.32057 19.9763 5.38185 20.1522C5.44325 20.3282 5.55542 20.4822 5.70411 20.5946C5.85028 20.705 6.02542 20.7704 6.20802 20.7831C6.67184 20.7888 6.91237 20.6758 7.59767 20.287C7.71036 20.2231 7.83824 20.1894 7.96778 20.1893H11.4785L11.5 20.1903L11.5215 20.1893H16.0322C16.1618 20.1894 16.2897 20.223 16.4024 20.287C17.0877 20.6759 17.3281 20.7888 17.792 20.7831C17.9745 20.7704 18.1498 20.705 18.2959 20.5946C18.4445 20.4822 18.5568 20.3281 18.6182 20.1522C18.6794 19.9763 18.6872 19.7857 18.6406 19.6053C18.594 19.425 18.4952 19.2618 18.3565 19.1376L18.292 19.0721C18.1723 18.9354 18.1064 18.7597 18.1065 18.578L18.1113 18.4862C18.2049 17.7269 18.3491 15.1882 18.3828 12.6044C18.3996 11.3174 18.3885 10.0356 18.332 8.97448C18.3038 8.44366 18.265 7.97658 18.2139 7.59655C18.1742 7.30168 18.1307 7.08564 18.0899 6.94127L18.0498 6.82018L18.0254 6.74694C17.9474 6.46785 18.0388 6.17391 18.2471 5.98717C18.2641 5.96333 18.2816 5.93895 18.3018 5.91686L18.3565 5.86217L18.4531 5.76256C18.5417 5.65595 18.6057 5.52968 18.6406 5.3944C18.6871 5.21401 18.6795 5.02342 18.6182 4.84752C18.5567 4.67159 18.4446 4.51748 18.2959 4.40514C18.1498 4.29477 17.9745 4.22936 17.792 4.21666Z" fill="currentColor"/>
</svg>
