<svg width="24" height="24" viewBox="0 0 24 24" fill="none" xmlns="http://www.w3.org/2000/svg">
<path d="M14 3V7C14 7.26522 14.1054 7.51957 14.2929 7.70711C14.4804 7.89464 14.7348 8 15 8H19M14 3H7C6.46957 3 5.96086 3.21071 5.58579 3.58579C5.21071 3.96086 5 4.46957 5 5V19C5 19.5304 5.21071 20.0391 5.58579 20.4142C5.96086 20.7893 6.46957 21 7 21H17C17.5304 21 18.0391 20.7893 18.4142 20.4142C18.7893 20.0391 19 19.5304 19 19V8M14 3L19 8M12 10V14H16M12 10C13.0609 10 14.0783 10.4214 14.8284 11.1716C15.5786 11.9217 16 12.9391 16 14M12 10C10.9391 10 9.92172 10.4214 9.17157 11.1716C8.42143 11.9217 8 12.9391 8 14C8 15.0609 8.42143 16.0783 9.17157 16.8284C9.92172 17.5786 10.9391 18 12 18C13.0609 18 14.0783 17.5786 14.8284 16.8284C15.5786 16.0783 16 15.0609 16 14" stroke="currentColor" stroke-width="1.5" stroke-linecap="round" stroke-linejoin="round"/>
</svg>
