<svg width="24" height="24" viewBox="0 0 24 24" fill="none" xmlns="http://www.w3.org/2000/svg">
<path d="M14 3V7C14 7.26522 14.1054 7.51957 14.2929 7.70711C14.4804 7.89464 14.7348 8 15 8H19M14 3H7C6.46957 3 5.96086 3.21071 5.58579 3.58579C5.21071 3.96086 5 4.46957 5 5V19C5 19.5304 5.21071 20.0391 5.58579 20.4142C5.96086 20.7893 6.46957 21 7 21H17C17.5304 21 18.0391 20.7893 18.4142 20.4142C18.7893 20.0391 19 19.5304 19 19V8M14 3L19 8M12 17V17.01M11.9999 14C12.2516 14.0001 12.4993 13.9369 12.7201 13.8162C12.941 13.6954 13.1279 13.5211 13.2637 13.3091C13.3994 13.0972 13.4797 12.8545 13.4971 12.6034C13.5144 12.3523 13.4683 12.1009 13.3629 11.8723C13.2576 11.6437 13.0964 11.4452 12.8943 11.2953C12.6921 11.1453 12.4555 11.0486 12.2062 11.0141C11.9568 10.9797 11.7028 11.0085 11.4676 11.0979C11.2323 11.1874 11.0233 11.3346 10.8599 11.526" stroke="currentColor" stroke-width="1.5" stroke-linecap="round" stroke-linejoin="round"/>
</svg>
