<svg width="24" height="24" viewBox="0 0 24 24" fill="none" xmlns="http://www.w3.org/2000/svg">
<path fill-rule="evenodd" clip-rule="evenodd" d="M6.99996 3.75C6.66844 3.75 6.35049 3.8817 6.11607 4.11612C5.88165 4.35054 5.74996 4.66848 5.74996 5V12C5.74996 12.4142 5.41417 12.75 4.99996 12.75C4.58574 12.75 4.24996 12.4142 4.24996 12V5C4.24996 4.27065 4.53969 3.57118 5.05541 3.05546C5.57114 2.53973 6.27061 2.25 6.99996 2.25H14C14.1989 2.25 14.3896 2.32902 14.5303 2.46967L19.5303 7.46967C19.6709 7.61032 19.75 7.80109 19.75 8V12C19.75 12.4142 19.4142 12.75 19 12.75C18.5857 12.75 18.25 12.4142 18.25 12V8.75H15C14.5358 8.75 14.0907 8.56563 13.7625 8.23744C13.4343 7.90925 13.25 7.46413 13.25 7V3.75H6.99996ZM14.75 4.81066L17.1893 7.25H15C14.9337 7.25 14.8701 7.22366 14.8232 7.17678C14.7763 7.12989 14.75 7.0663 14.75 7V4.81066ZM3.58393 14.376C3.92858 14.1462 4.39423 14.2393 4.624 14.584L5.99996 16.6479L7.37592 14.584C7.60568 14.2393 8.07134 14.1462 8.41598 14.376C8.76063 14.6057 8.85376 15.0714 8.624 15.416L6.90135 18L8.624 20.584C8.85376 20.9286 8.76063 21.3943 8.41598 21.624C8.07134 21.8538 7.60568 21.7607 7.37592 21.416L5.99996 19.3521L4.624 21.416C4.39423 21.7607 3.92858 21.8538 3.58393 21.624C3.23929 21.3943 3.14616 20.9286 3.37592 20.584L5.09857 18L3.37592 15.416C3.14616 15.0714 3.23929 14.6057 3.58393 14.376ZM11 14.25C11.4142 14.25 11.75 14.5858 11.75 15V20.25H14C14.4142 20.25 14.75 20.5858 14.75 21C14.75 21.4142 14.4142 21.75 14 21.75H11C10.5857 21.75 10.25 21.4142 10.25 21V15C10.25 14.5858 10.5857 14.25 11 14.25ZM18 15.75C17.9337 15.75 17.8701 15.7763 17.8232 15.8232C17.7763 15.8701 17.75 15.9337 17.75 16V17C17.75 17.0663 17.7763 17.1299 17.8232 17.1768C17.8701 17.2237 17.9337 17.25 18 17.25H19C19.4641 17.25 19.9092 17.4344 20.2374 17.7626C20.5656 18.0908 20.75 18.5359 20.75 19V20C20.75 20.4641 20.5656 20.9092 20.2374 21.2374C19.9092 21.5656 19.4641 21.75 19 21.75H17.75C16.9217 21.75 16.25 21.0782 16.25 20.25C16.25 19.8358 16.5857 19.5 17 19.5C17.4142 19.5 17.75 19.8358 17.75 20.25H19C19.0663 20.25 19.1299 20.2237 19.1767 20.1768C19.2236 20.1299 19.25 20.0663 19.25 20V19C19.25 18.9337 19.2236 18.8701 19.1767 18.8232C19.1299 18.7763 19.0663 18.75 19 18.75H18C17.5358 18.75 17.0907 18.5656 16.7625 18.2374C16.4343 17.9092 16.25 17.4641 16.25 17V16C16.25 15.5359 16.4343 15.0908 16.7625 14.7626C17.0907 14.4344 17.5358 14.25 18 14.25H19.25C19.6478 14.25 20.0293 14.408 20.3106 14.6893C20.5919 14.9706 20.75 15.3522 20.75 15.75C20.75 16.1642 20.4142 16.5 20 16.5C19.5857 16.5 19.25 16.1642 19.25 15.75H18Z" fill="currentColor"/>
</svg>
