<svg width="24" height="24" viewBox="0 0 24 24" fill="none" xmlns="http://www.w3.org/2000/svg">
<path d="M14 3V7C14 7.26522 14.1054 7.51957 14.2929 7.70711C14.4804 7.89464 14.7348 8 15 8H19M14 3H7C6.46957 3 5.96086 3.21071 5.58579 3.58579C5.21071 3.96086 5 4.46957 5 5V19C5 19.5304 5.21071 20.0391 5.58579 20.4142C5.96086 20.7893 6.46957 21 7 21H17C17.5304 21 18.0391 20.7893 18.4142 20.4142C18.7893 20.0391 19 19.5304 19 19V8M14 3L19 8M12 14V14.01M9.52501 11.525C9.19997 11.85 8.94213 12.2359 8.76621 12.6605C8.5903 13.0852 8.49976 13.5403 8.49976 14C8.49976 14.4597 8.5903 14.9148 8.76621 15.3395C8.94213 15.7641 9.19997 16.15 9.52501 16.475M14.475 16.475C14.8001 16.15 15.0579 15.7641 15.2338 15.3395C15.4097 14.9148 15.5003 14.4597 15.5003 14C15.5003 13.5403 15.4097 13.0852 15.2338 12.6605C15.0579 12.2359 14.8001 11.85 14.475 11.525" stroke="currentColor" stroke-width="1.5" stroke-linecap="round" stroke-linejoin="round"/>
</svg>
