<svg width="24" height="24" viewBox="0 0 24 24" fill="none" xmlns="http://www.w3.org/2000/svg">
<path d="M15 3V7C15 7.26522 15.1054 7.51957 15.2929 7.70711C15.4804 7.89464 15.7348 8 16 8H20M15 3H11C10.4696 3 9.96086 3.21071 9.58579 3.58579C9.21071 3.96086 9 4.46957 9 5M15 3L20 8M20 8V15C20 15.294 19.937 15.572 19.823 15.823M17 17H11C10.4696 17 9.96086 16.7893 9.58579 16.4142C9.21071 16.0391 9 15.5304 9 15V9M16 17V19C16 19.5304 15.7893 20.0391 15.4142 20.4142C15.0391 20.7893 14.5304 21 14 21H7C6.46957 21 5.96086 20.7893 5.58579 20.4142C5.21071 20.0391 5 19.5304 5 19V9C5 8.46957 5.21071 7.96086 5.58579 7.58579C5.96086 7.21071 6.46957 7 7 7M3 3L21 21" stroke="currentColor" stroke-width="1.5" stroke-linecap="round" stroke-linejoin="round"/>
</svg>
