<svg width="24" height="24" viewBox="0 0 24 24" fill="none" xmlns="http://www.w3.org/2000/svg">
<path d="M14 3V7C14 7.26522 14.1054 7.51957 14.2929 7.70711C14.4804 7.89464 14.7348 8 15 8H19M14 3H7C6.46957 3 5.96086 3.21071 5.58579 3.58579C5.21071 3.96086 5 4.46957 5 5V12M14 3L19 8M19 8V12M20 16.5C20 16.1022 19.842 15.7206 19.5607 15.4393C19.2794 15.158 18.8978 15 18.5 15C18.1022 15 17.7206 15.158 17.4393 15.4393C17.158 15.7206 17 16.1022 17 16.5V19.5C17 19.8978 17.158 20.2794 17.4393 20.5607C17.7206 20.842 18.1022 21 18.5 21C18.8978 21 19.2794 20.842 19.5607 20.5607C19.842 20.2794 20 19.8978 20 19.5M5 15V21H6C6.53043 21 7.03914 20.7893 7.41421 20.4142C7.78929 20.0391 8 19.5304 8 19V17C8 16.4696 7.78929 15.9609 7.41421 15.5858C7.03914 15.2107 6.53043 15 6 15H5ZM12.5 15C12.8978 15 13.2794 15.158 13.5607 15.4393C13.842 15.7206 14 16.1022 14 16.5V19.5C14 19.8978 13.842 20.2794 13.5607 20.5607C13.2794 20.842 12.8978 21 12.5 21C12.1022 21 11.7206 20.842 11.4393 20.5607C11.158 20.2794 11 19.8978 11 19.5V16.5C11 16.1022 11.158 15.7206 11.4393 15.4393C11.7206 15.158 12.1022 15 12.5 15Z" stroke="currentColor" stroke-width="1.5" stroke-linecap="round" stroke-linejoin="round"/>
</svg>
