<svg width="24" height="24" viewBox="0 0 24 24" fill="none" xmlns="http://www.w3.org/2000/svg">
<path d="M14 3V7C14 7.26522 14.1054 7.51957 14.2929 7.70711C14.4804 7.89464 14.7348 8 15 8H19M14 3H7C6.46957 3 5.96086 3.21071 5.58579 3.58579C5.21071 3.96086 5 4.46957 5 5V12M14 3L19 8M19 8V12M8 16.5C8 16.1022 7.84196 15.7206 7.56066 15.4393C7.27936 15.158 6.89782 15 6.5 15C6.10218 15 5.72064 15.158 5.43934 15.4393C5.15804 15.7206 5 16.1022 5 16.5V19.5C5 19.8978 5.15804 20.2794 5.43934 20.5607C5.72064 20.842 6.10218 21 6.5 21C6.89782 21 7.27936 20.842 7.56066 20.5607C7.84196 20.2794 8 19.8978 8 19.5M11 20.25C11 20.664 11.336 21 11.75 21H13C13.2652 21 13.5196 20.8946 13.7071 20.7071C13.8946 20.5196 14 20.2652 14 20V19C14 18.7348 13.8946 18.4804 13.7071 18.2929C13.5196 18.1054 13.2652 18 13 18H12C11.7348 18 11.4804 17.8946 11.2929 17.7071C11.1054 17.5196 11 17.2652 11 17V16C11 15.7348 11.1054 15.4804 11.2929 15.2929C11.4804 15.1054 11.7348 15 12 15H13.25C13.4489 15 13.6397 15.079 13.7803 15.2197C13.921 15.3603 14 15.5511 14 15.75M17 20.25C17 20.664 17.336 21 17.75 21H19C19.2652 21 19.5196 20.8946 19.7071 20.7071C19.8946 20.5196 20 20.2652 20 20V19C20 18.7348 19.8946 18.4804 19.7071 18.2929C19.5196 18.1054 19.2652 18 19 18H18C17.7348 18 17.4804 17.8946 17.2929 17.7071C17.1054 17.5196 17 17.2652 17 17V16C17 15.7348 17.1054 15.4804 17.2929 15.2929C17.4804 15.1054 17.7348 15 18 15H19.25C19.4489 15 19.6397 15.079 19.7803 15.2197C19.921 15.3603 20 15.5511 20 15.75" stroke="currentColor" stroke-width="1.5" stroke-linecap="round" stroke-linejoin="round"/>
</svg>
