<svg width="24" height="24" viewBox="0 0 24 24" fill="none" xmlns="http://www.w3.org/2000/svg">
<path d="M6 20V17C6 16.7348 5.89464 16.4804 5.70711 16.2929C5.51957 16.1054 5.26522 16 5 16H4C3.73478 16 3.48043 16.1054 3.29289 16.2929C3.10536 16.4804 3 16.7348 3 17V20C3 20.2652 3.10536 20.5196 3.29289 20.7071C3.48043 20.8946 3.73478 21 4 21H5C5.26522 21 5.51957 20.8946 5.70711 20.7071C5.89464 20.5196 6 20.2652 6 20ZM6 20C6 20.2652 6.10536 20.5196 6.29289 20.7071C6.48043 20.8946 6.73478 21 7 21H10.756C10.9711 21 11.1805 20.9306 11.3531 20.8022C11.5257 20.6738 11.6523 20.4931 11.714 20.287L12.914 17.287C13.004 16.984 13.047 16.657 12.858 16.403C12.67 16.149 12.316 16 12 16H10V13.533C9.99988 13.297 9.92386 13.0673 9.78318 12.8778C9.64249 12.6883 9.4446 12.5491 9.21872 12.4807C8.99284 12.4124 8.75096 12.4184 8.5288 12.4981C8.30665 12.5777 8.11599 12.7267 7.985 12.923L6 16V20ZM14 3V7C14 7.26522 14.1054 7.51957 14.2929 7.70711C14.4804 7.89464 14.7348 8 15 8H19M14 3H7C6.46957 3 5.96086 3.21071 5.58579 3.58579C5.21071 3.96086 5 4.46957 5 5V12.1M14 3L19 8M19 8V19C19 19.5304 18.7893 20.0391 18.4142 20.4142C18.0391 20.7893 17.5304 21 17 21H14.7" stroke="currentColor" stroke-width="1.5" stroke-linecap="round" stroke-linejoin="round"/>
</svg>
