<svg width="24" height="24" viewBox="0 0 24 24" fill="none" xmlns="http://www.w3.org/2000/svg">
<path d="M14 3V7C14 7.26522 14.1054 7.51957 14.2929 7.70711C14.4804 7.89464 14.7348 8 15 8H19M14 3H7C6.46957 3 5.96086 3.21071 5.58579 3.58579C5.21071 3.96086 5 4.46957 5 5V19C5 19.5304 5.21071 20.0391 5.58579 20.4142C5.96086 20.7893 6.46957 21 7 21H17C17.5304 21 18.0391 20.7893 18.4142 20.4142C18.7893 20.0391 19 19.5304 19 19V8M14 3L19 8M9.5 15C9.89782 15 10.2794 15.158 10.5607 15.4393C10.842 15.7206 11 16.1022 11 16.5C11 16.8978 10.842 17.2794 10.5607 17.5607C10.2794 17.842 9.89782 18 9.5 18C9.10218 18 8.72064 17.842 8.43934 17.5607C8.15804 17.2794 8 16.8978 8 16.5C8 16.1022 8.15804 15.7206 8.43934 15.4393C8.72064 15.158 9.10218 15 9.5 15ZM9.5 15C9.5 14.337 9.76339 13.7011 10.2322 13.2322C10.7011 12.7634 11.337 12.5 12 12.5H13M13 12.5C13 12.8978 13.158 13.2794 13.4393 13.5607C13.7206 13.842 14.1022 14 14.5 14C14.8978 14 15.2794 13.842 15.5607 13.5607C15.842 13.2794 16 12.8978 16 12.5C16 12.1022 15.842 11.7206 15.5607 11.4393C15.2794 11.158 14.8978 11 14.5 11C14.1022 11 13.7206 11.158 13.4393 11.4393C13.158 11.7206 13 12.1022 13 12.5Z" stroke="currentColor" stroke-width="1.5" stroke-linecap="round" stroke-linejoin="round"/>
</svg>
