<svg width="24" height="24" viewBox="0 0 24 24" fill="none" xmlns="http://www.w3.org/2000/svg">
<path d="M14 3V7C14 7.26522 14.1054 7.51957 14.2929 7.70711C14.4804 7.89464 14.7348 8 15 8H19M14 3H7C6.46957 3 5.96086 3.21071 5.58579 3.58579C5.21071 3.96086 5 4.46957 5 5V12M14 3L19 8M19 8V12M18 18H19.5C19.8978 18 20.2794 17.842 20.5607 17.5607C20.842 17.2794 21 16.8978 21 16.5C21 16.1022 20.842 15.7206 20.5607 15.4393C20.2794 15.158 19.8978 15 19.5 15H18V21M5.5 18C5.89782 18 6.27936 18.158 6.56066 18.4393C6.84196 18.7206 7 19.1022 7 19.5C7 19.8978 6.84196 20.2794 6.56066 20.5607C6.27936 20.842 5.89782 21 5.5 21H4V15H5.5C5.89782 15 6.27936 15.158 6.56066 15.4393C6.84196 15.7206 7 16.1022 7 16.5C7 16.8978 6.84196 17.2794 6.56066 17.5607C6.27936 17.842 5.89782 18 5.5 18ZM5.5 18H4M10 21V15L12.5 18L15 15V21" stroke="currentColor" stroke-width="1.5" stroke-linecap="round" stroke-linejoin="round"/>
</svg>
