<svg width="24" height="24" viewBox="0 0 24 24" fill="none" xmlns="http://www.w3.org/2000/svg">
<path d="M14 3V7C14 7.26522 14.1054 7.51957 14.2929 7.70711C14.4804 7.89464 14.7348 8 15 8H19M14 3H7C6.46957 3 5.96086 3.21071 5.58579 3.58579C5.21071 3.96086 5 4.46957 5 5V19C5 19.5304 5.21071 20.0391 5.58579 20.4142C5.96086 20.7893 6.46957 21 7 21H17C17.5304 21 18.0391 20.7893 18.4142 20.4142C18.7893 20.0391 19 19.5304 19 19V8M14 3L19 8M12 14H9M14.0002 11.172C13.5477 11.0118 13.0633 10.9625 12.5878 11.0283C12.1123 11.0941 11.6595 11.2731 11.2675 11.5501C10.8755 11.8272 10.5557 12.1943 10.3349 12.6206C10.1142 13.0469 9.99902 13.5199 9.99902 14C9.99902 14.4801 10.1142 14.9531 10.3349 15.3794C10.5557 15.8057 10.8755 16.1728 11.2675 16.4499C11.6595 16.7269 12.1123 16.9059 12.5878 16.9717C13.0633 17.0375 13.5477 16.9882 14.0002 16.828" stroke="currentColor" stroke-width="1.5" stroke-linecap="round" stroke-linejoin="round"/>
</svg>
