<svg width="24" height="24" viewBox="0 0 24 24" fill="none" xmlns="http://www.w3.org/2000/svg">
<path d="M14 3V7C14 7.26522 14.1054 7.51957 14.2929 7.70711C14.4804 7.89464 14.7348 8 15 8H19M14 3H7C6.46957 3 5.96086 3.21071 5.58579 3.58579C5.21071 3.96086 5 4.46957 5 5V12M14 3L19 8M19 8V12M5 18H6.5C6.89782 18 7.27936 17.842 7.56066 17.5607C7.84196 17.2794 8 16.8978 8 16.5C8 16.1022 7.84196 15.7206 7.56066 15.4393C7.27936 15.158 6.89782 15 6.5 15H5V21M17 18H18.5C18.8978 18 19.2794 17.842 19.5607 17.5607C19.842 17.2794 20 16.8978 20 16.5C20 16.1022 19.842 15.7206 19.5607 15.4393C19.2794 15.158 18.8978 15 18.5 15H17V21M11 21V15M14 15V21M11 18H14" stroke="currentColor" stroke-width="1.5" stroke-linecap="round" stroke-linejoin="round"/>
</svg>
