<svg width="24" height="24" viewBox="0 0 24 24" fill="none" xmlns="http://www.w3.org/2000/svg">
<path d="M14 3V7C14 7.26522 14.1054 7.51957 14.2929 7.70711C14.4804 7.89464 14.7348 8 15 8H19M14 3H7C6.46957 3 5.96086 3.21071 5.58579 3.58579C5.21071 3.96086 5 4.46957 5 5V12M14 3L19 8M19 8V12M7 16.5C7 16.1022 6.84196 15.7206 6.56066 15.4393C6.27936 15.158 5.89782 15 5.5 15C5.10218 15 4.72064 15.158 4.43934 15.4393C4.15804 15.7206 4 16.1022 4 16.5V19.5C4 19.8978 4.15804 20.2794 4.43934 20.5607C4.72064 20.842 5.10218 21 5.5 21C5.89782 21 6.27936 20.842 6.56066 20.5607C6.84196 20.2794 7 19.8978 7 19.5M10 20.25C10 20.664 10.336 21 10.75 21H12C12.2652 21 12.5196 20.8946 12.7071 20.7071C12.8946 20.5196 13 20.2652 13 20V19C13 18.7348 12.8946 18.4804 12.7071 18.2929C12.5196 18.1054 12.2652 18 12 18H11C10.7348 18 10.4804 17.8946 10.2929 17.7071C10.1054 17.5196 10 17.2652 10 17V16C10 15.7348 10.1054 15.4804 10.2929 15.2929C10.4804 15.1054 10.7348 15 11 15H12.25C12.4489 15 12.6397 15.079 12.7803 15.2197C12.921 15.3603 13 15.5511 13 15.75M16 15L18 21L20 15" stroke="currentColor" stroke-width="1.5" stroke-linecap="round" stroke-linejoin="round"/>
</svg>
