<svg width="24" height="24" viewBox="0 0 24 24" fill="none" xmlns="http://www.w3.org/2000/svg">
<path d="M14 3V7C14 7.26522 14.1054 7.51957 14.2929 7.70711C14.4804 7.89464 14.7348 8 15 8H19M14 3H7C6.46957 3 5.96086 3.21071 5.58579 3.58579C5.21071 3.96086 5 4.46957 5 5V12M14 3L19 8M19 8V12M17 16.5C17 16.1022 16.842 15.7206 16.5607 15.4393C16.2794 15.158 15.8978 15 15.5 15C15.1022 15 14.7206 15.158 14.4393 15.4393C14.158 15.7206 14 16.1022 14 16.5V19.5C14 19.8978 14.158 20.2794 14.4393 20.5607C14.7206 20.842 15.1022 21 15.5 21C15.8978 21 16.2794 20.842 16.5607 20.5607C16.842 20.2794 17 19.8978 17 19.5M19.5 15L22.5 21M19.5 21L22.5 15M2 15V21H3C3.53043 21 4.03914 20.7893 4.41421 20.4142C4.78929 20.0391 5 19.5304 5 19V17C5 16.4696 4.78929 15.9609 4.41421 15.5858C4.03914 15.2107 3.53043 15 3 15H2ZM9.5 15C9.89782 15 10.2794 15.158 10.5607 15.4393C10.842 15.7206 11 16.1022 11 16.5V19.5C11 19.8978 10.842 20.2794 10.5607 20.5607C10.2794 20.842 9.89782 21 9.5 21C9.10218 21 8.72064 20.842 8.43934 20.5607C8.15804 20.2794 8 19.8978 8 19.5V16.5C8 16.1022 8.15804 15.7206 8.43934 15.4393C8.72064 15.158 9.10218 15 9.5 15Z" stroke="currentColor" stroke-width="1.5" stroke-linecap="round" stroke-linejoin="round"/>
</svg>
