<svg width="24" height="24" viewBox="0 0 24 24" fill="none" xmlns="http://www.w3.org/2000/svg">
<path d="M14 3V7C14 7.26522 14.1054 7.51957 14.2929 7.70711C14.4804 7.89464 14.7348 8 15 8H19M14 3H7C6.46957 3 5.96086 3.21071 5.58579 3.58579C5.21071 3.96086 5 4.46957 5 5V12M14 3L19 8M19 8V12M4 15L6 21L8 15M11 15V19.5C11 19.8978 11.158 20.2794 11.4393 20.5607C11.7206 20.842 12.1022 21 12.5 21C12.8978 21 13.2794 20.842 13.5607 20.5607C13.842 20.2794 14 19.8978 14 19.5V15M20 15H17V21H20M17 18H19" stroke="currentColor" stroke-width="1.5" stroke-linecap="round" stroke-linejoin="round"/>
</svg>
