<svg width="24" height="24" viewBox="0 0 24 24" fill="none" xmlns="http://www.w3.org/2000/svg">
<path d="M6 15C6 14.7348 5.89464 14.4804 5.70711 14.2929C5.51957 14.1054 5.26522 14 5 14H4C3.73478 14 3.48043 14.1054 3.29289 14.2929C3.10536 14.4804 3 14.7348 3 15V18C3 18.2652 3.10536 18.5196 3.29289 18.7071C3.48043 18.8946 3.73478 19 4 19H5C5.26522 19 5.51957 18.8946 5.70711 18.7071C5.89464 18.5196 6 18.2652 6 18V15ZM6 15C6 14.7348 6.10536 14.4804 6.29289 14.2929C6.48043 14.1054 6.73478 14 7 14H10.756C10.9711 14 11.1805 14.0693 11.3531 14.1978C11.5257 14.3262 11.6523 14.5069 11.714 14.713L12.914 17.713C13.004 18.016 13.047 18.343 12.858 18.597C12.67 18.851 12.316 19 12 19H10V21.467C9.99988 21.703 9.92386 21.9327 9.78318 22.1222C9.64249 22.3117 9.4446 22.4509 9.21872 22.5193C8.99284 22.5876 8.75096 22.5816 8.5288 22.5019C8.30665 22.4223 8.11599 22.2733 7.985 22.077L6 19V15ZM14 3V7C14 7.26522 14.1054 7.51957 14.2929 7.70711C14.4804 7.89464 14.7348 8 15 8H19M14 3H7C6.46957 3 5.96086 3.21071 5.58579 3.58579C5.21071 3.96086 5 4.46957 5 5V11M14 3L19 8M19 8V19C19 19.5304 18.7893 20.0391 18.4142 20.4142C18.0391 20.7893 17.5304 21 17 21H14.5" stroke="currentColor" stroke-width="1.5" stroke-linecap="round" stroke-linejoin="round"/>
</svg>
