<svg width="24" height="24" viewBox="0 0 24 24" fill="none" xmlns="http://www.w3.org/2000/svg">
<path d="M14 3V7C14 7.26522 14.1054 7.51957 14.2929 7.70711C14.4804 7.89464 14.7348 8 15 8H19M14 3H7C6.46957 3 5.96086 3.21071 5.58579 3.58579C5.21071 3.96086 5 4.46957 5 5V12M14 3L19 8M19 8V12M5 20.25C5 20.664 5.336 21 5.75 21H7C7.26522 21 7.51957 20.8946 7.70711 20.7071C7.89464 20.5196 8 20.2652 8 20V19C8 18.7348 7.89464 18.4804 7.70711 18.2929C7.51957 18.1054 7.26522 18 7 18H6C5.73478 18 5.48043 17.8946 5.29289 17.7071C5.10536 17.5196 5 17.2652 5 17V16C5 15.7348 5.10536 15.4804 5.29289 15.2929C5.48043 15.1054 5.73478 15 6 15H7.25C7.44891 15 7.63968 15.079 7.78033 15.2197C7.92098 15.3603 8 15.5511 8 15.75M18 15V21H20M14 20L15.5 21.5M13 15C13.5304 15 14.0391 15.2107 14.4142 15.5858C14.7893 15.9609 15 16.4696 15 17V19C15 19.5304 14.7893 20.0391 14.4142 20.4142C14.0391 20.7893 13.5304 21 13 21C12.4696 21 11.9609 20.7893 11.5858 20.4142C11.2107 20.0391 11 19.5304 11 19V17C11 16.4696 11.2107 15.9609 11.5858 15.5858C11.9609 15.2107 12.4696 15 13 15Z" stroke="currentColor" stroke-width="1.5" stroke-linecap="round" stroke-linejoin="round"/>
</svg>
