<svg width="24" height="24" viewBox="0 0 24 24" fill="none" xmlns="http://www.w3.org/2000/svg">
<path d="M12 2L12.117 2.007C12.3402 2.03332 12.5481 2.13408 12.707 2.29301C12.8659 2.45194 12.9667 2.65978 12.993 2.883L13 3V7L13.005 7.15C13.0408 7.62617 13.2458 8.07383 13.5829 8.41203C13.92 8.75023 14.3669 8.95666 14.843 8.994L15 9H19L19.117 9.007C19.3402 9.03332 19.5481 9.13408 19.707 9.29301C19.8659 9.45194 19.9667 9.65978 19.993 9.883L20 10V19C20 19.7652 19.7077 20.5015 19.1827 21.0583C18.6578 21.615 17.9399 21.9501 17.176 21.995L17 22H7C6.23479 22 5.49849 21.7077 4.94174 21.1827C4.38499 20.6578 4.04989 19.9399 4.005 19.176L4 19V5C3.99996 4.23479 4.29233 3.49849 4.81728 2.94174C5.34224 2.38499 6.06011 2.04989 6.824 2.005L7 2H12ZM10.511 11.14C10.3108 11.0208 10.0752 10.9753 9.84495 11.0113C9.61472 11.0474 9.4043 11.1627 9.25004 11.3373C9.09577 11.512 9.00735 11.735 9.00004 11.9679C8.99273 12.2009 9.06699 12.429 9.21 12.613L9.293 12.707L10.585 14L9.293 15.293L9.21 15.387C9.06086 15.5794 8.98702 15.8196 9.00235 16.0626C9.01768 16.3056 9.12112 16.5346 9.29326 16.7067C9.46541 16.8789 9.69444 16.9823 9.9374 16.9976C10.1804 17.013 10.4206 16.9391 10.613 16.79L10.707 16.707L12 15.415L13.293 16.707L13.387 16.79C13.5794 16.9391 13.8196 17.013 14.0626 16.9976C14.3056 16.9823 14.5346 16.8789 14.7067 16.7067C14.8789 16.5346 14.9823 16.3056 14.9976 16.0626C15.013 15.8196 14.9391 15.5794 14.79 15.387L14.707 15.293L13.415 14L14.707 12.707L14.79 12.613C14.9391 12.4206 15.013 12.1804 14.9976 11.9374C14.9823 11.6944 14.8789 11.4654 14.7067 11.2933C14.5346 11.1211 14.3056 11.0177 14.0626 11.0024C13.8196 10.987 13.5794 11.0609 13.387 11.21L13.293 11.293L12 12.585L10.707 11.293L10.613 11.21L10.511 11.14Z" fill="currentColor"/>
<path d="M19 7H15L14.999 2.999L19 7Z" fill="currentColor"/>
</svg>
