<svg width="24" height="24" viewBox="0 0 24 24" fill="none" xmlns="http://www.w3.org/2000/svg">
<path d="M14 3V7C14 7.26522 14.1054 7.51957 14.2929 7.70711C14.4804 7.89464 14.7348 8 15 8H19M14 3H7C6.46957 3 5.96086 3.21071 5.58579 3.58579C5.21071 3.96086 5 4.46957 5 5V19C5 19.5304 5.21071 20.0391 5.58579 20.4142C5.96086 20.7893 6.46957 21 7 21H17C17.5304 21 18.0391 20.7893 18.4142 20.4142C18.7893 20.0391 19 19.5304 19 19V8M14 3L19 8M11.8002 16.817L9.62824 17.955C9.56378 17.9885 9.49127 18.0035 9.4188 17.9982C9.34633 17.993 9.27675 17.9677 9.21783 17.9251C9.15891 17.8826 9.11297 17.8245 9.08514 17.7574C9.05732 17.6903 9.04869 17.6167 9.06024 17.545L9.47524 15.134L7.71824 13.427C7.66579 13.3763 7.62866 13.3119 7.61108 13.2411C7.5935 13.1703 7.59617 13.096 7.6188 13.0266C7.64143 12.9573 7.6831 12.8957 7.73905 12.8489C7.795 12.8021 7.86299 12.772 7.93524 12.762L10.3632 12.41L11.4492 10.217C11.4817 10.1517 11.5318 10.0967 11.5938 10.0583C11.6558 10.0199 11.7273 9.99953 11.8002 9.99953C11.8732 9.99953 11.9447 10.0199 12.0067 10.0583C12.0687 10.0967 12.1188 10.1517 12.1512 10.217L13.2372 12.41L15.6652 12.762C15.7373 12.7724 15.805 12.8027 15.8607 12.8495C15.9164 12.8964 15.9579 12.9578 15.9805 13.027C16.003 13.0962 16.0058 13.1704 15.9885 13.241C15.9711 13.3117 15.9343 13.3761 15.8822 13.427L14.1252 15.134L14.5392 17.544C14.5517 17.6159 14.5437 17.6898 14.5162 17.7573C14.4887 17.8249 14.4429 17.8834 14.3838 17.9262C14.3248 17.969 14.2549 17.9944 14.1822 17.9995C14.1094 18.0046 14.0367 17.9892 13.9722 17.955L11.8002 16.817Z" stroke="currentColor" stroke-width="1.5" stroke-linecap="round" stroke-linejoin="round"/>
</svg>
