<svg width="24" height="24" viewBox="0 0 24 24" fill="none" xmlns="http://www.w3.org/2000/svg">
<path d="M7.99975 11C6.87325 11.0001 5.77978 11.3805 4.89655 12.0797C4.01331 12.7789 3.39207 13.7559 3.1335 14.8523C2.87493 15.9488 2.99419 17.1004 3.47194 18.1205C3.9497 19.1407 4.75795 19.9696 5.76573 20.473C6.7735 20.9764 7.92173 21.1247 9.02433 20.894C10.1269 20.6632 11.1193 20.0668 11.8406 19.2015C12.5619 18.3362 12.9699 17.2527 12.9984 16.1266C13.0269 15.0005 12.6743 13.8977 11.9978 12.997M12.0018 19.003C12.5135 19.6843 13.191 20.2235 13.9697 20.5694C14.7484 20.9154 15.6027 21.0565 16.4513 20.9795C17.2999 20.9026 18.1148 20.61 18.8186 20.1295C19.5223 19.6491 20.0916 18.9968 20.4724 18.2345C20.8532 17.4722 21.0329 16.6253 20.9944 15.774C20.9559 14.9228 20.7005 14.0955 20.2524 13.3707C19.8043 12.6459 19.1784 12.0477 18.4341 11.6328C17.6898 11.2179 16.8519 11 15.9998 11M6.99976 8C6.99976 9.32608 7.52654 10.5979 8.46422 11.5355C9.4019 12.4732 10.6737 13 11.9998 13C13.3258 13 14.5976 12.4732 15.5353 11.5355C16.473 10.5979 16.9998 9.32608 16.9998 8C16.9998 6.67392 16.473 5.40215 15.5353 4.46447C14.5976 3.52678 13.3258 3 11.9998 3C10.6737 3 9.4019 3.52678 8.46422 4.46447C7.52654 5.40215 6.99976 6.67392 6.99976 8Z" stroke="currentColor" stroke-width="1.5" stroke-linecap="round" stroke-linejoin="round"/>
</svg>
