<svg width="24" height="24" viewBox="0 0 24 24" fill="none" xmlns="http://www.w3.org/2000/svg">
<path d="M18.9 6.99976C19.8045 8.50094 20.1909 10.2576 20 11.9998V12.9998C19.9989 14.0526 20.2748 15.0873 20.8 15.9998M8 10.9999C8 10.1519 8.264 9.36585 8.713 8.71985M11.113 7.09885C11.6987 6.96565 12.307 6.96608 12.8925 7.10012C13.4781 7.23416 14.0259 7.49836 14.4954 7.87311C14.9649 8.24786 15.3439 8.72354 15.6044 9.26484C15.8649 9.80614 16.0001 10.3991 16 10.9999V11.9999M12 11.9998V12.9998C11.9968 15.8592 12.8693 18.651 14.5 20.9998M8 14.9998C8.2447 17.0896 8.85393 19.1203 9.8 20.9998M4.90006 18.9997C4.22531 16.73 3.9214 14.3663 4.00006 11.9997V10.9997C3.99495 9.12086 4.6513 7.30015 5.85406 5.85672M8.03006 4.03172C9.24421 3.33787 10.619 2.9744 12.0175 2.97756C13.4159 2.98072 14.7891 3.35039 16.0001 4.04972M3 2.99976L21 20.9998" stroke="currentColor" stroke-width="1.5" stroke-linecap="round" stroke-linejoin="round"/>
</svg>
