<svg width="24" height="24" viewBox="0 0 24 24" fill="none" xmlns="http://www.w3.org/2000/svg">
<path d="M18.8999 7.00024C19.8044 8.50143 20.1908 10.2581 19.9999 12.0002V13.0002C19.9987 14.0531 20.2746 15.0878 20.7999 16.0002M8 11.0002C8 9.93938 8.42143 8.92196 9.17157 8.17182C9.92172 7.42167 10.9391 7.00024 12 7.00024C13.0609 7.00024 14.0783 7.42167 14.8284 8.17182C15.5786 8.92196 16 9.93938 16 11.0002V12.0002C16 14.1639 16.7018 16.2693 18 18.0002M12 11.0002V13.0002C11.9968 15.8596 12.8693 18.6515 14.5 21.0002M8 15.0002C8.2447 17.0901 8.85393 19.1208 9.8 21.0002M4.89994 19.0003C4.22518 16.7306 3.92127 14.3669 3.99994 12.0003V11.0003C3.9961 9.59419 4.36296 8.21188 5.06354 6.99268C5.76412 5.77349 6.77368 4.76049 7.99048 4.05576C9.20728 3.35103 10.5883 2.97947 11.9945 2.97852C13.4006 2.97756 14.7822 3.34725 15.9999 4.05033" stroke="currentColor" stroke-width="1.5" stroke-linecap="round" stroke-linejoin="round"/>
</svg>
