<svg width="24" height="24" viewBox="0 0 24 24" fill="none" xmlns="http://www.w3.org/2000/svg">
<path d="M5 21H19M17 21.0001V17.0001M19 15.0001V13.0001C19 12.7348 18.8946 12.4805 18.7071 12.293C18.5196 12.1054 18.2652 12.0001 18 12.0001H17V8.00006C17 7.01146 16.7069 6.04506 16.1578 5.22298C15.6087 4.4009 14.8283 3.76004 13.915 3.3814C13.0018 3.00276 11.9969 2.90333 11.0272 3.09568C10.0575 3.28803 9.16654 3.76352 8.467 4.46206M7.08 7.10006C7.02639 7.39705 6.99961 7.69827 7 8.00006V12.0001H6C5.73478 12.0001 5.48043 12.1054 5.29289 12.293C5.10536 12.4805 5 12.7348 5 13.0001V15.0001C5 15.2653 5.10536 15.5196 5.29289 15.7072C5.48043 15.8947 5.73478 16.0001 6 16.0001H7V21.0001M12 12C11.6044 12 11.2178 12.1173 10.8889 12.3371C10.56 12.5568 10.3036 12.8692 10.1522 13.2346C10.0009 13.6001 9.96126 14.0022 10.0384 14.3902C10.1156 14.7781 10.3061 15.1345 10.5858 15.4142C10.8655 15.6939 11.2219 15.8844 11.6098 15.9616C11.9978 16.0387 12.3999 15.9991 12.7654 15.8478C13.1308 15.6964 13.4432 15.44 13.6629 15.1111C13.8827 14.7822 14 14.3956 14 14M6 8H8M12 8H18M3 3L21 21" stroke="currentColor" stroke-width="1.5" stroke-linecap="round" stroke-linejoin="round"/>
</svg>
