<svg width="24" height="24" viewBox="0 0 24 24" fill="none" xmlns="http://www.w3.org/2000/svg">
<path d="M16 9V12M16 9C15.4696 9 14.9609 8.78929 14.5858 8.41421C14.2107 8.03914 14 7.53043 14 7C14 6.46957 14.2107 5.96086 14.5858 5.58579C14.9609 5.21071 15.4696 5 16 5M16 9C16.5304 9 17.0391 8.78929 17.4142 8.41421C17.7893 8.03914 18 7.53043 18 7C18 6.46957 17.7893 5.96086 17.4142 5.58579C17.0391 5.21071 16.5304 5 16 5M15.915 15.924C15.6861 17.1496 15.0075 18.2455 14.0124 18.9966C13.0173 19.7478 11.7775 20.1001 10.536 19.9844C9.29463 19.8687 8.14122 19.2934 7.30206 18.3713C6.46289 17.4492 5.99851 16.2468 6 15V11L9 14M16 5V3M3 3L21 21" stroke="currentColor" stroke-width="1.5" stroke-linecap="round" stroke-linejoin="round"/>
</svg>
