<svg width="24" height="24" viewBox="0 0 24 24" fill="none" xmlns="http://www.w3.org/2000/svg">
<path d="M13.533 15.0281C12.9625 14.7838 12.4426 14.4351 12 14.0001C11.0654 13.084 9.80876 12.5708 8.5 12.5708C7.19124 12.5708 5.93464 13.084 5 14.0001M5 14.0001V5.00009C5.93464 4.08395 7.19124 3.5708 8.5 3.5708C9.80876 3.5708 11.0654 4.08395 12 5.00009C12.9346 5.91622 14.1912 6.42937 15.5 6.42937C16.8088 6.42937 18.0654 5.91622 19 5.00009V13.5001M5 14.0001V21.0001M22 22.0001L17 17.0001M17 22.0001L22 17.0001" stroke="currentColor" stroke-width="1.5" stroke-linecap="round" stroke-linejoin="round"/>
</svg>
