<svg width="24" height="24" viewBox="0 0 24 24" fill="none" xmlns="http://www.w3.org/2000/svg">
<path d="M11.475 13.5511C10.5187 12.8436 9.34149 12.5002 8.15477 12.5825C6.96804 12.6648 5.84952 13.1674 5 14.0001M5 14.0001V5.00009C5.93464 4.08395 7.19124 3.5708 8.5 3.5708C9.80876 3.5708 11.0654 4.08395 12 5.00009C12.9346 5.91622 14.1912 6.42937 15.5 6.42937C16.8088 6.42937 18.0654 5.91622 19 5.00009V10.0001M5 14.0001V21.0001M17.8002 20.8171L15.6282 21.9551C15.5638 21.9886 15.4913 22.0036 15.4188 21.9983C15.3463 21.9931 15.2767 21.9677 15.2178 21.9252C15.1589 21.8827 15.113 21.8246 15.0851 21.7575C15.0573 21.6904 15.0487 21.6168 15.0602 21.5451L15.4752 19.1341L13.7182 17.4271C13.6658 17.3764 13.6287 17.312 13.6111 17.2412C13.5935 17.1704 13.5962 17.0961 13.6188 17.0267C13.6414 16.9574 13.6831 16.8958 13.7391 16.849C13.795 16.8022 13.863 16.7721 13.9352 16.7621L16.3632 16.4101L17.4492 14.2171C17.4817 14.1518 17.5318 14.0968 17.5938 14.0584C17.6558 14.02 17.7273 13.9996 17.8002 13.9996C17.8732 13.9996 17.9447 14.02 18.0067 14.0584C18.0687 14.0968 18.1188 14.1518 18.1512 14.2171L19.2372 16.4101L21.6652 16.7621C21.7373 16.7724 21.805 16.8028 21.8607 16.8496C21.9164 16.8964 21.9579 16.9579 21.9805 17.0271C22.003 17.0963 22.0058 17.1704 21.9885 17.2411C21.9711 17.3118 21.9343 17.3762 21.8822 17.4271L20.1252 19.1341L20.5392 21.5441C20.5517 21.616 20.5437 21.6899 20.5162 21.7574C20.4887 21.825 20.4429 21.8835 20.3838 21.9263C20.3248 21.9691 20.2549 21.9945 20.1822 21.9996C20.1094 22.0047 20.0367 21.9893 19.9722 21.9551L17.8002 20.8171Z" stroke="currentColor" stroke-width="1.5" stroke-linecap="round" stroke-linejoin="round"/>
</svg>
