<svg width="24" height="24" viewBox="0 0 24 24" fill="none" xmlns="http://www.w3.org/2000/svg">
<path d="M13.342 14.9411C12.8459 14.7035 12.3924 14.3855 12 14.0001C11.0654 13.084 9.80876 12.5708 8.5 12.5708C7.19124 12.5708 5.93464 13.084 5 14.0001M5 14.0001V5.00009C5.93464 4.08395 7.19124 3.5708 8.5 3.5708C9.80876 3.5708 11.0654 4.08395 12 5.00009C12.9346 5.91622 14.1912 6.42937 15.5 6.42937C16.8088 6.42937 18.0654 5.91622 19 5.00009V12.0001M5 14.0001V21.0001M17 21.0001L21 17.0001M16 19.0001C16 19.7957 16.3161 20.5588 16.8787 21.1214C17.4413 21.684 18.2044 22.0001 19 22.0001C19.7956 22.0001 20.5587 21.684 21.1213 21.1214C21.6839 20.5588 22 19.7957 22 19.0001C22 18.2044 21.6839 17.4414 21.1213 16.8788C20.5587 16.3162 19.7956 16.0001 19 16.0001C18.2044 16.0001 17.4413 16.3162 16.8787 16.8788C16.3161 17.4414 16 18.2044 16 19.0001Z" stroke="currentColor" stroke-width="1.5" stroke-linecap="round" stroke-linejoin="round"/>
</svg>
