<svg width="24" height="24" viewBox="0 0 24 24" fill="none" xmlns="http://www.w3.org/2000/svg">
<path d="M4 5.00002C4.00002 4.86704 4.02656 4.7354 4.07807 4.6128C4.12959 4.4902 4.20503 4.37911 4.3 4.28602C5.38984 3.21766 6.84585 2.60475 8.37166 2.57206C9.89746 2.53936 11.3784 3.08933 12.513 4.11002L12.864 4.43802C13.5934 5.07712 14.5302 5.42945 15.5 5.42945C16.4698 5.42945 17.4066 5.07712 18.136 4.43802L18.385 4.21102C18.995 3.72802 19.912 4.11402 19.995 4.88702L20 5.00002V14C20 14.133 19.9734 14.2646 19.9219 14.3872C19.8704 14.5098 19.795 14.6209 19.7 14.714C18.6102 15.7824 17.1542 16.3953 15.6283 16.428C14.1025 16.4607 12.6216 15.9107 11.487 14.89L11.136 14.562C10.4295 13.943 9.52777 13.5924 8.58872 13.5715C7.64967 13.5507 6.73323 13.861 6 14.448V21C5.99972 21.2549 5.90212 21.5001 5.72715 21.6854C5.55218 21.8707 5.31305 21.9823 5.05861 21.9972C4.80416 22.0121 4.55362 21.9293 4.35817 21.7658C4.16271 21.6022 4.0371 21.3701 4.007 21.117L4 21V5.00002Z" fill="currentColor"/>
</svg>
