<svg width="24" height="24" viewBox="0 0 24 24" fill="none" xmlns="http://www.w3.org/2000/svg">
<path d="M13.222 14.8821C12.7724 14.6515 12.3604 14.3542 12 14.0001C11.0654 13.084 9.80876 12.5708 8.5 12.5708C7.19124 12.5708 5.93464 13.084 5 14.0001M5 14.0001V5.00009C5.93464 4.08395 7.19124 3.5708 8.5 3.5708C9.80876 3.5708 11.0654 4.08395 12 5.00009C12.9346 5.91622 14.1912 6.42937 15.5 6.42937C16.8088 6.42937 18.0654 5.91622 19 5.00009V10.0001M5 14.0001V21.0001M21 15.0001H18.5C18.1022 15.0001 17.7206 15.1582 17.4393 15.4395C17.158 15.7208 17 16.1023 17 16.5001C17 16.8979 17.158 17.2795 17.4393 17.5608C17.7206 17.8421 18.1022 18.0001 18.5 18.0001H19.5C19.8978 18.0001 20.2794 18.1582 20.5607 18.4395C20.842 18.7208 21 19.1023 21 19.5001C21 19.8979 20.842 20.2795 20.5607 20.5608C20.2794 20.8421 19.8978 21.0001 19.5 21.0001H17M19 21.0001V22.0001M19 14.0001V15.0001" stroke="currentColor" stroke-width="1.5" stroke-linecap="round" stroke-linejoin="round"/>
</svg>
