<svg width="24" height="24" viewBox="0 0 24 24" fill="none" xmlns="http://www.w3.org/2000/svg">
<path d="M5 5V21M7.64111 3.64501C8.42308 3.50865 9.22628 3.56042 9.98427 3.79604C10.7423 4.03167 11.4333 4.44437 12.0001 5.00001C12.9348 5.91615 14.1913 6.4293 15.5001 6.4293C16.8089 6.4293 18.0654 5.91613 19 5V14C18.827 14.169 18.646 14.323 18.456 14.463M5 14C5.93464 13.0838 7.19124 12.5707 8.5 12.5707C9.80876 12.5707 11.0654 13.0838 12 14C12.9181 14.9023 14.1498 15.4144 15.437 15.429M3 3L21 21" stroke="currentColor" stroke-width="1.5" stroke-linecap="round" stroke-linejoin="round"/>
</svg>
