<svg width="24" height="24" viewBox="0 0 24 24" fill="none" xmlns="http://www.w3.org/2000/svg">
<path d="M12.857 14.6751C12.5476 14.4819 12.2603 14.2556 12 14.0001C11.0654 13.084 9.80876 12.5708 8.5 12.5708C7.19124 12.5708 5.93464 13.084 5 14.0001M5 14.0001V5.00009C5.93464 4.08395 7.19124 3.5708 8.5 3.5708C9.80876 3.5708 11.0654 4.08395 12 5.00009C12.9346 5.91622 14.1912 6.42937 15.5 6.42937C16.8088 6.42937 18.0654 5.91622 19 5.00009V11.0001M5 14.0001V21.0001M19 18.0001V18.0101M21.121 20.1211C21.5407 19.7016 21.8265 19.167 21.9423 18.5851C22.0581 18.0031 21.9988 17.3998 21.7717 16.8516C21.5447 16.3034 21.1602 15.8348 20.6668 15.5051C20.1734 15.1754 19.5934 14.9995 19 14.9995C18.4066 14.9995 17.8266 15.1754 17.3332 15.5051C16.8398 15.8348 16.4553 16.3034 16.2283 16.8516C16.0012 17.3998 15.9419 18.0031 16.0577 18.5851C16.1735 19.167 16.4594 19.7016 16.879 20.1211C17.297 20.5401 18.004 21.1661 19 22.0001C20.051 21.1101 20.759 20.4841 21.121 20.1211Z" stroke="currentColor" stroke-width="1.5" stroke-linecap="round" stroke-linejoin="round"/>
</svg>
