<svg width="24" height="24" viewBox="0 0 24 24" fill="none" xmlns="http://www.w3.org/2000/svg">
<path d="M12 14.0001C11.0654 13.084 9.80876 12.5708 8.5 12.5708C7.19124 12.5708 5.93464 13.084 5 14.0001M5 14.0001V5.00009C5.93464 4.08395 7.19124 3.5708 8.5 3.5708C9.80876 3.5708 11.0654 4.08395 12 5.00009C12.9346 5.91622 14.1912 6.42937 15.5 6.42937C16.8088 6.42937 18.0654 5.91622 19 5.00009V11.0001M5 14.0001V21.0001M20.2002 20.2001L22.0002 22.0001M15 18.0001C15 18.7957 15.3161 19.5588 15.8787 20.1214C16.4413 20.684 17.2044 21.0001 18 21.0001C18.7956 21.0001 19.5587 20.684 20.1213 20.1214C20.6839 19.5588 21 18.7957 21 18.0001C21 17.2044 20.6839 16.4413 20.1213 15.8787C19.5587 15.3161 18.7956 15.0001 18 15.0001C17.2044 15.0001 16.4413 15.3161 15.8787 15.8787C15.3161 16.4413 15 17.2044 15 18.0001Z" stroke="currentColor" stroke-width="1.5" stroke-linecap="round" stroke-linejoin="round"/>
</svg>
