<svg width="24" height="24" viewBox="0 0 24 24" fill="none" xmlns="http://www.w3.org/2000/svg">
<path d="M13.5 15.0001C12.9426 14.7621 12.4341 14.4231 12 14.0001C11.0654 13.084 9.80876 12.5708 8.5 12.5708C7.19124 12.5708 5.93464 13.084 5 14.0001M5 14.0001V5.00009C5.93464 4.08395 7.19124 3.5708 8.5 3.5708C9.80876 3.5708 11.0654 4.08395 12 5.00009C12.9346 5.91622 14.1912 6.42937 15.5 6.42937C16.8088 6.42937 18.0654 5.91622 19 5.00009V11.0001M5 14.0001V21.0001M19 22.0001V22.0101M19 19.0001C19.4483 18.9986 19.8832 18.8469 20.235 18.569C20.5868 18.2912 20.8352 17.9034 20.9406 17.4676C21.0459 17.0318 21.0019 16.5734 20.8158 16.1655C20.6297 15.7577 20.3122 15.4241 19.914 15.2181C19.5162 15.0143 19.0611 14.9511 18.6228 15.0388C18.1845 15.1265 17.7888 15.3599 17.5 15.7011" stroke="currentColor" stroke-width="1.5" stroke-linecap="round" stroke-linejoin="round"/>
</svg>
