<svg width="24" height="24" viewBox="0 0 24 24" fill="none" xmlns="http://www.w3.org/2000/svg">
<path d="M12.901 14.7021C12.5749 14.5032 12.2726 14.2676 12 14.0001C11.0654 13.084 9.80876 12.5708 8.5 12.5708C7.19124 12.5708 5.93464 13.084 5 14.0001M5 14.0001V5.00009C5.93464 4.08395 7.19124 3.5708 8.5 3.5708C9.80876 3.5708 11.0654 4.08395 12 5.00009C12.9346 5.91622 14.1912 6.42937 15.5 6.42937C16.8088 6.42937 18.0654 5.91622 19 5.00009V11.5001M5 14.0001V21.0001M19.001 21.0001C18.4705 21.0001 17.9618 20.7894 17.5868 20.4143C17.2117 20.0393 17.001 19.5306 17.001 19.0001C17.001 18.4697 17.2117 17.961 17.5868 17.5859C17.9618 17.2108 18.4705 17.0001 19.001 17.0001M19.001 21.0001C19.5314 21.0001 20.0401 20.7894 20.4152 20.4143C20.7903 20.0393 21.001 19.5306 21.001 19.0001C21.001 18.4697 20.7903 17.961 20.4152 17.5859C20.0401 17.2108 19.5314 17.0001 19.001 17.0001M19.001 21.0001V22.5001M19.001 17.0001V15.5001M22.0319 17.2501L20.7329 18.0001M17.2702 20.0001L15.9702 20.7501M15.9702 17.2501L17.2702 18.0001M20.7329 20.0001L22.0329 20.7501" stroke="currentColor" stroke-width="1.5" stroke-linecap="round" stroke-linejoin="round"/>
</svg>
