<svg width="24" height="24" viewBox="0 0 24 24" fill="none" xmlns="http://www.w3.org/2000/svg">
<path d="M15 2C15.2652 2 15.5196 2.10536 15.7071 2.29289C15.8947 2.48043 16 2.73478 16 3C16 3.26522 15.8947 3.51957 15.7071 3.70711C15.5196 3.89464 15.2652 4 15 4V9.674L15.062 9.704C16.0716 10.1946 16.9483 10.9207 17.6184 11.8212C18.2884 12.7217 18.7321 13.7701 18.912 14.878L18.949 15.14C19.1088 16.4315 18.9054 17.7419 18.3617 18.9242C17.818 20.1064 16.9555 21.1137 15.871 21.833C15.7071 21.9419 15.5148 21.9999 15.318 22H8.68302C8.48672 22 8.29474 21.9423 8.13102 21.834C7.10126 21.1523 6.27019 20.2103 5.72214 19.1036C5.1741 17.9969 4.9286 16.7649 5.01055 15.5326C5.0925 14.3004 5.499 13.1118 6.18877 12.0874C6.87855 11.063 7.82706 10.2393 8.93802 9.7L9.00002 9.672V4C8.73481 4 8.48045 3.89464 8.29292 3.70711C8.10538 3.51957 8.00002 3.26522 8.00002 3C8.00002 2.73478 8.10538 2.48043 8.29292 2.29289C8.48045 2.10536 8.73481 2 9.00002 2H15ZM13 4H11V10.34C11.0001 10.5255 10.9486 10.7073 10.8513 10.8651C10.754 11.023 10.6147 11.1507 10.449 11.234L10.333 11.283C9.68592 11.5113 9.09273 11.8703 8.59037 12.3377C8.08802 12.8052 7.68725 13.371 7.41302 14H16.585C16.3108 13.3716 15.9102 12.8062 15.4082 12.3392C14.9063 11.8721 14.3136 11.5133 13.667 11.285C13.472 11.2161 13.3031 11.0884 13.1836 10.9195C13.0641 10.7506 13 10.5489 13 10.342V4Z" fill="currentColor"/>
</svg>
