<svg width="24" height="24" viewBox="0 0 24 24" fill="none" xmlns="http://www.w3.org/2000/svg">
<path d="M14.9999 2C15.2652 2 15.5195 2.10536 15.7071 2.29289C15.8946 2.48043 15.9999 2.73478 15.9999 3C15.9999 3.26522 15.8946 3.51957 15.7071 3.70711C15.5195 3.89464 15.2652 4 14.9999 4V8.826L18.9319 19.64L18.9659 19.717C19.1094 20.1019 19.1087 20.5256 18.9639 20.91L18.8939 21.072C18.7761 21.3074 18.6052 21.5122 18.3947 21.6703C18.1842 21.8284 17.9399 21.9354 17.6809 21.983L17.4999 22H6.49995L6.31895 21.983C6.07475 21.938 5.84337 21.8401 5.64107 21.6962C5.43877 21.5522 5.27046 21.3657 5.14798 21.1497C5.0255 20.9337 4.95182 20.6935 4.93212 20.446C4.91242 20.1985 4.94717 19.9496 5.03395 19.717L5.07295 19.627L8.99995 8.823V4C8.73473 4 8.48038 3.89464 8.29284 3.70711C8.1053 3.51957 7.99995 3.26522 7.99995 3C7.99995 2.73478 8.1053 2.48043 8.29284 2.29289C8.48038 2.10536 8.73473 2 8.99995 2H14.9999ZM12.9999 4H10.9999V8H12.9999V4Z" fill="currentColor"/>
</svg>
