<svg width="24" height="24" viewBox="0 0 24 24" fill="none" xmlns="http://www.w3.org/2000/svg">
<path d="M6.1001 15H17.9001M9 3H15M13.9999 3V10.342C15.0517 10.7134 15.9791 11.3707 16.678 12.24C17.3769 13.1093 17.8197 14.1562 17.9566 15.2632C18.0935 16.3702 17.9191 17.4934 17.453 18.5068C16.9869 19.5202 16.2475 20.3835 15.3179 21H8.68293C7.75274 20.3838 7.01282 19.5204 6.54627 18.5068C6.07973 17.4933 5.90505 16.3697 6.04186 15.2624C6.17867 14.155 6.62155 13.1077 7.32074 12.2382C8.01993 11.3686 8.94774 10.7113 9.99993 10.34V3H13.9999Z" stroke="currentColor" stroke-width="1.5" stroke-linecap="round" stroke-linejoin="round"/>
</svg>
