<svg width="24" height="24" viewBox="0 0 24 24" fill="none" xmlns="http://www.w3.org/2000/svg">
<path d="M14.4999 14C15.4999 10.667 16.6669 9 17.9999 9C19.3329 9 20.4999 10.667 21.4999 14M17.9999 16V17M2.49994 14C3.49994 10.667 4.66694 9 5.99994 9C7.33294 9 8.49994 10.667 9.49994 14M5.99994 16V17M17.9999 4.00001C20.2099 4.00001 21.9999 5.68201 21.9999 7.75801C21.9999 7.83601 21.9999 7.91401 21.9919 7.99201L21.3919 17.006C21.2819 18.689 19.7959 20.006 17.9999 20.006C16.2039 20.006 14.7199 18.695 14.6079 17.006L14.0079 7.99201C13.8699 5.92101 15.5459 4.13701 17.7509 4.00701C17.8342 4.00217 17.9166 3.99983 17.9999 4.00001ZM5.99995 4C8.20995 4 9.99995 5.682 9.99995 7.758C9.99995 7.836 9.99995 7.914 9.99195 7.992L9.39195 17.006C9.28195 18.689 7.79595 20.006 5.99995 20.006C4.20395 20.006 2.71995 18.695 2.60795 17.006L2.00795 7.992C1.86995 5.921 3.54595 4.137 5.74995 4.007C5.83395 4.007 5.91695 4 5.99995 4Z" stroke="currentColor" stroke-width="1.5" stroke-linecap="round" stroke-linejoin="round"/>
</svg>
