<svg width="24" height="24" viewBox="0 0 24 24" fill="none" xmlns="http://www.w3.org/2000/svg">
<path d="M9.87526 9.88196C9.32075 10.4467 9.01187 11.2077 9.01591 11.9991C9.01994 12.7906 9.33656 13.5483 9.8968 14.1074C10.457 14.6664 11.2155 14.9814 12.0069 14.9838C12.7984 14.9862 13.5587 14.6757 14.1223 14.12M14.7033 10.697C14.4048 10.0796 13.9045 9.58251 13.2853 9.28796M9.00035 5C9.00035 4.20435 9.31642 3.44129 9.87903 2.87868C10.4416 2.31607 11.2047 2 12.0004 2C12.796 2 13.5591 2.31607 14.1217 2.87868C14.6843 3.44129 15.0004 4.20435 15.0004 5C15.0004 5.562 14.7414 6.442 14.2244 7.64L13.5004 9L15.2604 7.107C15.7594 6.507 16.1824 6.107 16.5304 5.902C16.8693 5.70519 17.2439 5.57747 17.6325 5.52621C18.0211 5.47495 18.416 5.50116 18.7944 5.60334C19.1728 5.70552 19.5272 5.88163 19.8372 6.12152C20.1471 6.36141 20.4065 6.66032 20.6004 7.001C20.9959 7.68975 21.1033 8.50687 20.8991 9.27442C20.6949 10.042 20.1958 10.6978 19.5104 11.099C19.1364 11.316 18.5204 11.495 17.6644 11.634L15.8854 11.878M16.1774 12.16L17.4004 12.326C18.4004 12.471 19.0984 12.663 19.5104 12.902C20.1513 13.2771 20.631 13.8758 20.8573 14.5832C21.0836 15.2905 21.0405 16.0565 20.7364 16.734M18.4594 18.467C17.7931 18.5665 17.1128 18.4363 16.5304 18.098C16.1824 17.896 15.7594 17.494 15.2604 16.893L13.5004 15L14.2244 16.36C14.7404 17.559 15.0004 18.439 15.0004 19C15.0004 19.7956 14.6843 20.5587 14.1217 21.1213C13.5591 21.6839 12.796 22 12.0004 22C11.2047 22 10.4416 21.6839 9.87903 21.1213C9.31642 20.5587 9.00035 19.7956 9.00035 19C9.00035 18.438 9.25935 17.558 9.77635 16.36L10.5004 15L8.74035 16.893C8.24135 17.494 7.81835 17.893 7.47035 18.098C7.13145 18.2949 6.75692 18.4226 6.36837 18.474C5.97982 18.5253 5.58496 18.4992 5.20656 18.3971C4.82816 18.295 4.47373 18.119 4.16372 17.8792C3.85371 17.6394 3.59427 17.3406 3.40035 17C3.00483 16.3113 2.89745 15.4941 3.10161 14.7266C3.30577 13.959 3.80492 13.3032 4.49035 12.902C4.86435 12.684 5.48035 12.506 6.33635 12.366L9.00035 12L6.60035 11.675C5.60035 11.53 4.90235 11.338 4.49035 11.099C3.80465 10.6978 3.3053 10.0418 3.10113 9.27399C2.89696 8.5062 3.00452 7.68884 3.40035 7C3.62209 6.61012 3.92931 6.27557 4.29892 6.02149C4.66853 5.7674 5.09092 5.60039 5.53435 5.533M3.00024 3L21.0002 21" stroke="currentColor" stroke-width="1.5" stroke-linecap="round" stroke-linejoin="round"/>
</svg>
