<svg width="24" height="24" viewBox="0 0 24 24" fill="none" xmlns="http://www.w3.org/2000/svg">
<path d="M17 3.34001C18.5083 4.21087 19.7629 5.46054 20.6398 6.96531C21.5167 8.47009 21.9854 10.1778 21.9994 11.9194C22.0135 13.6609 21.5725 15.376 20.72 16.8947C19.8676 18.4135 18.6332 19.6832 17.1392 20.5783C15.6452 21.4734 13.9434 21.9628 12.2021 21.9981C10.4608 22.0333 8.74055 21.6132 7.21155 20.7793C5.68256 19.9453 4.39787 18.7265 3.48467 17.2435C2.57146 15.7605 2.06141 14.0647 2.005 12.324L2 12L2.005 11.676C2.061 9.94901 2.56355 8.26598 3.46364 6.79101C4.36373 5.31604 5.63065 4.09947 7.14089 3.2599C8.65113 2.42033 10.3531 1.98641 12.081 2.00045C13.8089 2.01449 15.5036 2.47601 17 3.34001ZM15.707 8.29302C15.5195 8.10554 15.2652 8.00023 15 8.00023C14.7348 8.00023 14.4805 8.10554 14.293 8.29302L8.293 14.293L8.21 14.387C8.05459 14.588 7.98151 14.8406 8.0056 15.0935C8.02969 15.3465 8.14916 15.5807 8.33972 15.7488C8.53029 15.9168 8.77767 16.006 9.03162 15.9982C9.28557 15.9905 9.52704 15.8864 9.707 15.707L15.707 9.70701L15.79 9.61301C15.9393 9.42061 16.0132 9.18036 15.9979 8.93733C15.9826 8.69431 15.8792 8.46521 15.707 8.29302Z" fill="currentColor"/>
</svg>
