<svg width="24" height="24" viewBox="0 0 24 24" fill="none" xmlns="http://www.w3.org/2000/svg">
<path d="M17 3.34001C18.5083 4.21087 19.7629 5.46054 20.6398 6.96531C21.5167 8.47009 21.9854 10.1778 21.9994 11.9194C22.0135 13.6609 21.5725 15.376 20.72 16.8947C19.8676 18.4135 18.6332 19.6832 17.1392 20.5783C15.6452 21.4734 13.9434 21.9628 12.2021 21.9981C10.4608 22.0333 8.74055 21.6132 7.21155 20.7793C5.68256 19.9453 4.39787 18.7265 3.48467 17.2435C2.57146 15.7605 2.06141 14.0647 2.005 12.324L2 12L2.005 11.676C2.061 9.94901 2.56355 8.26598 3.46364 6.79101C4.36373 5.31604 5.63065 4.09947 7.14089 3.2599C8.65113 2.42033 10.3531 1.98641 12.081 2.00045C13.8089 2.01449 15.5036 2.47601 17 3.34001ZM9.613 8.21001C9.41201 8.0546 9.1594 7.98152 8.90647 8.00562C8.65355 8.02971 8.41928 8.14917 8.25125 8.33974C8.08321 8.5303 7.99402 8.77768 8.00177 9.03163C8.00953 9.28558 8.11365 9.52706 8.293 9.70701L14.293 15.707L14.387 15.79C14.588 15.9454 14.8406 16.0185 15.0935 15.9944C15.3464 15.9703 15.5807 15.8509 15.7488 15.6603C15.9168 15.4697 16.006 15.2223 15.9982 14.9684C15.9905 14.7144 15.8863 14.473 15.707 14.293L9.707 8.29302L9.613 8.21001Z" fill="currentColor"/>
</svg>
