<svg width="24" height="24" viewBox="0 0 24 24" fill="none" xmlns="http://www.w3.org/2000/svg">
<path fill-rule="evenodd" clip-rule="evenodd" d="M9 3.75C8.40326 3.75 7.83097 3.98705 7.40901 4.40901C6.98705 4.83097 6.75 5.40326 6.75 6C6.75 6.41421 6.41421 6.75 6 6.75C5.58579 6.75 5.25 6.41421 5.25 6C5.25 5.00544 5.64509 4.05161 6.34835 3.34835C7.05161 2.64509 8.00544 2.25 9 2.25C9.99456 2.25 10.9484 2.64509 11.6517 3.34835C11.7779 3.47456 11.8941 3.60884 12 3.74997C12.1059 3.60884 12.2221 3.47456 12.3483 3.34835C13.0516 2.64509 14.0054 2.25 15 2.25C15.9946 2.25 16.9484 2.64509 17.6517 3.34835C18.3549 4.05161 18.75 5.00544 18.75 6C18.75 6.41421 18.4142 6.75 18 6.75C17.5858 6.75 17.25 6.41421 17.25 6C17.25 5.40326 17.0129 4.83097 16.591 4.40901C16.169 3.98705 15.5967 3.75 15 3.75C14.4033 3.75 13.831 3.98705 13.409 4.40901C12.9871 4.83097 12.75 5.40326 12.75 6V15.25H14.25V11C14.25 10.2707 14.5397 9.57118 15.0555 9.05546C15.5712 8.53973 16.2707 8.25 17 8.25C17.7293 8.25 18.4288 8.53973 18.9445 9.05546C19.4603 9.57118 19.75 10.2707 19.75 11C19.75 11.4142 19.4142 11.75 19 11.75C18.5858 11.75 18.25 11.4142 18.25 11C18.25 10.6685 18.1183 10.3505 17.8839 10.1161C17.6495 9.8817 17.3315 9.75 17 9.75C16.6685 9.75 16.3505 9.8817 16.1161 10.1161C15.8817 10.3505 15.75 10.6685 15.75 11V15.25H21C21.4142 15.25 21.75 15.5858 21.75 16V18C21.75 18.9946 21.3549 19.9484 20.6517 20.6517C19.9484 21.3549 18.9946 21.75 18 21.75H6C5.00544 21.75 4.05161 21.3549 3.34835 20.6517C2.64509 19.9484 2.25 18.9946 2.25 18V16C2.25 15.5858 2.58579 15.25 3 15.25H8.25V11C8.25 10.6685 8.1183 10.3505 7.88388 10.1161C7.64946 9.8817 7.33152 9.75 7 9.75C6.66848 9.75 6.35054 9.8817 6.11612 10.1161C5.8817 10.3505 5.75 10.6685 5.75 11C5.75 11.4142 5.41421 11.75 5 11.75C4.58579 11.75 4.25 11.4142 4.25 11C4.25 10.2707 4.53973 9.57118 5.05546 9.05546C5.57118 8.53973 6.27065 8.25 7 8.25C7.72935 8.25 8.42882 8.53973 8.94454 9.05546C9.46027 9.57118 9.75 10.2707 9.75 11V15.25H11.25V6C11.25 5.40326 11.0129 4.83097 10.591 4.40901C10.169 3.98705 9.59674 3.75 9 3.75ZM3.75 16.75V18C3.75 18.5967 3.98705 19.169 4.40901 19.591C4.83097 20.0129 5.40326 20.25 6 20.25H18C18.5967 20.25 19.169 20.0129 19.591 19.591C20.0129 19.169 20.25 18.5967 20.25 18V16.75H3.75Z" fill="currentColor"/>
</svg>
