<svg width="24" height="24" viewBox="0 0 24 24" fill="none" xmlns="http://www.w3.org/2000/svg">
<path d="M15 2.00002C16.0609 2.00002 17.0783 2.42145 17.8284 3.17159C18.5786 3.92174 19 4.93915 19 6.00002C18.9997 6.2549 18.9021 6.50005 18.7272 6.68539C18.5522 6.87072 18.313 6.98225 18.0586 6.99719C17.8042 7.01213 17.5536 6.92934 17.3582 6.76575C17.1627 6.60216 17.0371 6.37011 17.007 6.11702L17 6.00002C17.0023 5.48103 16.8028 4.98147 16.4436 4.60687C16.0844 4.23226 15.5937 4.01195 15.0751 3.99248C14.5564 3.973 14.0506 4.15589 13.6643 4.50251C13.278 4.84913 13.0416 5.33232 13.005 5.85002L13 6.00002V15H14V11C14 10.2044 14.3161 9.44131 14.8787 8.8787C15.4413 8.31609 16.2044 8.00002 17 8.00002C17.7956 8.00002 18.5587 8.31609 19.1213 8.8787C19.6839 9.44131 20 10.2044 20 11C19.9997 11.2549 19.9021 11.5001 19.7272 11.6854C19.5522 11.8707 19.313 11.9823 19.0586 11.9972C18.8042 12.0121 18.5536 11.9293 18.3582 11.7658C18.1627 11.6022 18.0371 11.3701 18.007 11.117L18 11C17.9997 10.7451 17.9021 10.5 17.7272 10.3146C17.5522 10.1293 17.313 10.0178 17.0586 10.0028C16.8042 9.98791 16.5536 10.0707 16.3582 10.2343C16.1627 10.3979 16.0371 10.6299 16.007 10.883L16 11V15H21C21.2449 15.0001 21.4813 15.09 21.6644 15.2527C21.8474 15.4155 21.9643 15.6398 21.993 15.883L22 16V18C22 19.0263 21.6056 20.0132 20.8983 20.7568C20.191 21.5004 19.225 21.9437 18.2 21.995L18 22H6C4.97376 22 3.98677 21.6056 3.24319 20.8983C2.4996 20.191 2.05631 19.225 2.005 18.2L2 18V16C2.00003 15.7551 2.08996 15.5187 2.25272 15.3356C2.41547 15.1526 2.63975 15.0357 2.883 15.007L3 15H8V11C7.99972 10.7451 7.90212 10.5 7.72715 10.3146C7.55218 10.1293 7.31305 10.0178 7.05861 10.0028C6.80416 9.98791 6.55362 10.0707 6.35817 10.2343C6.16271 10.3979 6.0371 10.6299 6.007 10.883L6 11C6 11.2652 5.89464 11.5196 5.70711 11.7071C5.51957 11.8947 5.26522 12 5 12C4.73478 12 4.48043 11.8947 4.29289 11.7071C4.10536 11.5196 4 11.2652 4 11C3.99925 10.2191 4.30302 9.46869 4.84677 8.9082C5.39052 8.34771 6.13139 8.02133 6.91196 7.99842C7.69253 7.9755 8.45127 8.25785 9.02697 8.78548C9.60267 9.3131 9.94994 10.0444 9.995 10.824L10 11V15H11V6.00002C11 5.46958 10.7893 4.96088 10.4142 4.5858C10.0391 4.21073 9.53043 4.00002 9 4.00002C8.46957 4.00002 7.96086 4.21073 7.58579 4.5858C7.21071 4.96088 7 5.46958 7 6.00002C7 6.26523 6.89464 6.51959 6.70711 6.70712C6.51957 6.89466 6.26522 7.00002 6 7.00002C5.73478 7.00002 5.48043 6.89466 5.29289 6.70712C5.10536 6.51959 5 6.26523 5 6.00002C4.99992 5.18737 5.24737 4.39398 5.70939 3.72545C6.17142 3.05693 6.82611 2.54498 7.58631 2.25778C8.34652 1.97057 9.17617 1.92172 9.96482 2.11774C10.7535 2.31375 11.4637 2.74533 12.001 3.35502C12.3755 2.92853 12.8368 2.58699 13.354 2.3533C13.8712 2.11961 14.4324 1.99916 15 2.00002Z" fill="currentColor"/>
</svg>
