<svg width="24" height="24" viewBox="0 0 24 24" fill="none" xmlns="http://www.w3.org/2000/svg">
<g opacity="0.2">
<path d="M5 10.9999C5 10.4694 5.21071 9.96074 5.58579 9.58566C5.96086 9.21059 6.46957 8.99988 7 8.99988C7.53043 8.99988 8.03914 9.21059 8.41421 9.58566C8.78929 9.96074 9 10.4694 9 10.9999V15.5V15.9999M15 15.9999V14.9999M15 10.9999C15 10.4694 15.2107 9.96074 15.5858 9.58566C15.9609 9.21059 16.4696 8.99988 17 8.99988C17.5304 8.99988 18.0391 9.21059 18.4142 9.58566C18.7893 9.96074 19 10.4694 19 10.9999M12 15.9999V12M12 12L3 2.99988M12 12L21 20.9999M12 7.99988V5.99988M12 5.99988C12 5.20423 12.3161 4.44117 12.8787 3.87856C13.4413 3.31595 14.2044 2.99988 15 2.99988C15.7956 2.99988 16.5587 3.31595 17.1213 3.87856C17.6839 4.44117 18 5.20423 18 5.99988M12 5.99988C12.0001 5.46837 11.859 4.94635 11.5912 4.48726C11.3233 4.02818 10.9383 3.64849 10.4756 3.38705C10.0128 3.12561 9.48892 2.9918 8.95747 2.99932C8.42602 3.00685 7.9061 3.15543 7.45093 3.42986M20 15.9999H21V16.9999M20.129 20.1139C19.8504 20.3951 19.5188 20.6183 19.1534 20.7704C18.7879 20.9225 18.3959 21.0005 18 20.9999H6C5.20435 20.9999 4.44129 20.6838 3.87868 20.1212C3.31607 19.5586 3 18.7955 3 17.9999V15.9999H9M16 15.9999H9" stroke="currentColor" stroke-width="1.5" stroke-linecap="round" stroke-linejoin="round"/>
</g>
</svg>
