<svg width="24" height="24" viewBox="0 0 24 24" fill="none" xmlns="http://www.w3.org/2000/svg">
<path d="M5 22V17L4 16V12C4 11.7348 4.10536 11.4804 4.29289 11.2929C4.48043 11.1054 4.73478 11 5 11H9C9.26522 11 9.51957 11.1054 9.70711 11.2929C9.89464 11.4804 10 11.7348 10 12V16L9 17V22M15 22V18H13L15 12C15 11.7348 15.1054 11.4804 15.2929 11.2929C15.4804 11.1054 15.7348 11 16 11H18C18.2652 11 18.5196 11.1054 18.7071 11.2929C18.8946 11.4804 19 11.7348 19 12L21 18H19V22M5 5C5 5.53043 5.21071 6.03914 5.58579 6.41421C5.96086 6.78929 6.46957 7 7 7C7.53043 7 8.03914 6.78929 8.41421 6.41421C8.78929 6.03914 9 5.53043 9 5C9 4.46957 8.78929 3.96086 8.41421 3.58579C8.03914 3.21071 7.53043 3 7 3C6.46957 3 5.96086 3.21071 5.58579 3.58579C5.21071 3.96086 5 4.46957 5 5ZM15 5C15 5.53043 15.2107 6.03914 15.5858 6.41421C15.9609 6.78929 16.4696 7 17 7C17.5304 7 18.0391 6.78929 18.4142 6.41421C18.7893 6.03914 19 5.53043 19 5C19 4.46957 18.7893 3.96086 18.4142 3.58579C18.0391 3.21071 17.5304 3 17 3C16.4696 3 15.9609 3.21071 15.5858 3.58579C15.2107 3.96086 15 4.46957 15 5Z" stroke="currentColor" stroke-width="1.5" stroke-linecap="round" stroke-linejoin="round"/>
</svg>
