<svg width="24" height="24" viewBox="0 0 24 24" fill="none" xmlns="http://www.w3.org/2000/svg">
<path d="M12.8408 21.3089C12.5783 21.4348 12.2909 21.5001 11.9998 21.5001M11.9998 21.5001C11.7087 21.5001 11.4213 21.4348 11.1588 21.3089L4.12381 17.9439C3.71139 17.7446 3.38033 17.4092 3.18649 16.9942C2.99266 16.5792 2.94791 16.1101 3.05981 15.6659L5.59781 5.50791C5.67021 5.21695 5.80774 4.94624 6.00002 4.7162C6.19231 4.48615 6.43432 4.30277 6.70781 4.17991L11.2038 2.16991C11.454 2.05821 11.7249 2.00049 11.9988 2.00049C12.2728 2.00049 12.5437 2.05821 12.7938 2.16991L17.2898 4.17991C17.8438 4.42591 18.2528 4.91591 18.4018 5.50791L20.0718 12.1909M11.9998 21.5001L12 7.31982M18 4.81985L12.802 7.14385C12.55 7.25649 12.277 7.31471 12.001 7.31471C11.725 7.31471 11.452 7.25649 11.2 7.14385L6 4.81885M16 18.9999H22M19 15.9999V21.9999" stroke="currentColor" stroke-width="1.5" stroke-linecap="round" stroke-linejoin="round"/>
</svg>
