<svg width="24" height="24" viewBox="0 0 24 24" fill="none" xmlns="http://www.w3.org/2000/svg">
<path d="M7.71981 3.72791L11.2038 2.16991C11.454 2.05821 11.7249 2.00049 11.9988 2.00049C12.2728 2.00049 12.5437 2.05821 12.7938 2.16991L17.2898 4.17991C17.8438 4.42591 18.2528 4.91591 18.4018 5.50791L20.9398 15.6659C21.0428 16.0779 21.0098 16.4979 20.8648 16.8719M18.5658 18.5709L12.8408 21.3089C12.5783 21.4348 12.2909 21.5001 11.9998 21.5001M11.9998 21.5001C11.7087 21.5001 11.4213 21.4348 11.1588 21.3089L4.12381 17.9439C3.71139 17.7446 3.38033 17.4092 3.18649 16.9942C2.99266 16.5792 2.94791 16.1101 3.05981 15.6659L5.57981 5.58591M11.9998 21.5001L12 12.0001M18.0002 4.82007L12.8022 7.14407C12.5502 7.25671 12.2772 7.31493 12.0012 7.31493C11.7252 7.31493 11.4522 7.25671 11.2002 7.14407M12 7.32007V8.00007M3 3L21 21" stroke="currentColor" stroke-width="1.5" stroke-linecap="round" stroke-linejoin="round"/>
</svg>
