<svg width="24" height="24" viewBox="0 0 24 24" fill="none" xmlns="http://www.w3.org/2000/svg">
<path d="M18 4.81991L12.802 7.14391C12.55 7.25655 12.277 7.31477 12.001 7.31477C11.725 7.31477 11.452 7.25655 11.2 7.14391L6 4.81891M12 7.31992V21.4999M18.4018 5.50791L20.9398 15.6659C21.0517 16.1101 21.007 16.5792 20.8132 16.9942C20.6193 17.4092 20.2883 17.7446 19.8758 17.9439L12.8398 21.3099C12.5773 21.4358 12.2899 21.5011 11.9988 21.5011C11.7077 21.5011 11.4203 21.4358 11.1578 21.3099L4.12284 17.9449C3.71041 17.7456 3.37935 17.4102 3.18552 16.9952C2.99168 16.5802 2.94694 16.1111 3.05884 15.6669L5.59784 5.50791C5.67023 5.21695 5.80776 4.94624 6.00005 4.7162C6.19233 4.48615 6.43435 4.30277 6.70784 4.17991L11.2038 2.16991C11.454 2.05821 11.7249 2.00049 11.9988 2.00049C12.2728 2.00049 12.5437 2.05821 12.7938 2.16991L17.2898 4.17991C17.8438 4.42591 18.2528 4.91591 18.4018 5.50791Z" stroke="currentColor" stroke-width="1.5" stroke-linecap="round" stroke-linejoin="round"/>
</svg>
