<svg width="24" height="24" viewBox="0 0 24 24" fill="none" xmlns="http://www.w3.org/2000/svg">
<path d="M17.333 3C18.3055 3 19.2383 3.38634 19.926 4.07404C20.6137 4.76174 21 5.69445 21 6.667V17.333C21 18.3055 20.6137 19.2383 19.926 19.926C19.2383 20.6137 18.3055 21 17.333 21H6.667C5.69445 21 4.76174 20.6137 4.07404 19.926C3.38634 19.2383 3 18.3055 3 17.333V6.667C3 5.69445 3.38634 4.76174 4.07404 4.07404C4.76174 3.38634 5.69445 3 6.667 3H17.333ZM13.75 6C13.1592 5.9996 12.5893 6.21895 12.1513 6.61541C11.7133 7.01186 11.4383 7.55708 11.38 8.145L11.095 11H9L8.883 11.007C8.6299 11.0371 8.39785 11.1627 8.23426 11.3582C8.07067 11.5536 7.98789 11.8042 8.00283 12.0586C8.01776 12.313 8.1293 12.5522 8.31463 12.7272C8.49997 12.9021 8.74512 12.9997 9 13H10.894L10.629 15.656L10.615 15.727C10.5919 15.8059 10.5438 15.8751 10.478 15.9243C10.4122 15.9735 10.3322 16.0001 10.25 16C10.1837 16 10.1201 15.9737 10.0732 15.9268C10.0263 15.8799 10 15.8163 10 15.75V15.5L9.993 15.383C9.9629 15.1299 9.83729 14.8979 9.64183 14.7343C9.44638 14.5707 9.19584 14.4879 8.94139 14.5028C8.68695 14.5178 8.44782 14.6293 8.27285 14.8146C8.09788 15 8.00028 15.2451 8 15.5V15.75L8.005 15.904C8.04402 16.4728 8.29751 17.0056 8.71425 17.3946C9.13098 17.7837 9.67987 18.0001 10.25 18C10.8408 18.0004 11.4107 17.781 11.8487 17.3846C12.2867 16.9881 12.5617 16.4429 12.62 15.855L12.904 13H15L15.117 12.993C15.3701 12.9629 15.6021 12.8373 15.7657 12.6418C15.9293 12.4464 16.0121 12.1958 15.9972 11.9414C15.9822 11.687 15.8707 11.4478 15.6854 11.2728C15.5 11.0979 15.2549 11.0003 15 11H13.105L13.371 8.344L13.385 8.273C13.4083 8.19423 13.4564 8.1251 13.5222 8.0759C13.5879 8.0267 13.6679 8.00008 13.75 8C13.8163 8 13.8799 8.02634 13.9268 8.07322C13.9737 8.12011 14 8.1837 14 8.25V8.5L14.007 8.617C14.0371 8.8701 14.1627 9.10215 14.3582 9.26574C14.5536 9.42933 14.8042 9.51211 15.0586 9.49717C15.313 9.48224 15.5522 9.3707 15.7272 9.18537C15.9021 9.00003 15.9997 8.75488 16 8.5V8.25L15.995 8.096C15.956 7.52721 15.7025 6.99444 15.2858 6.60537C14.869 6.2163 14.3201 5.99993 13.75 6Z" fill="currentColor"/>
</svg>
