<svg width="24" height="24" viewBox="0 0 24 24" fill="none" xmlns="http://www.w3.org/2000/svg">
<path d="M12 3C10.667 4 10 5.5 10 7.5C10 10.5 12 12 12 12M12 12C12 12 14 13.5 14 16.5C14 18.5 13.333 20 12 21M12 12C12 12 14.3001 11.018 16.8971 12.518C18.6291 13.518 19.5941 14.845 19.7941 16.5M12 12C12 12 9.70106 12.982 7.10306 11.482C5.37106 10.482 4.40505 9.155 4.20605 7.5M12 12C12 12 12.3001 9.518 14.8971 8.018C16.6291 7.018 18.2621 6.845 19.7941 7.5M12 12C12 12 11.7011 14.482 9.10305 15.982C7.37105 16.982 5.73805 17.155 4.20605 16.5" stroke="currentColor" stroke-width="1.5" stroke-linecap="round" stroke-linejoin="round"/>
</svg>
