<svg width="24" height="25" viewBox="0 0 24 25" fill="none" xmlns="http://www.w3.org/2000/svg">
<path d="M18.1918 10.0243V5.07605C18.1918 4.66184 17.856 4.32605 17.4418 4.32605H13.6615C13.442 4.32605 13.2356 4.42196 13.0941 4.58582L13.0375 4.66003L12.2465 5.84558C11.8292 6.47158 11.1267 6.84851 10.3744 6.84851H10.0121C9.97108 6.85547 9.92909 6.86022 9.88611 6.86023C9.84285 6.86023 9.80041 6.85554 9.75916 6.84851H6.57849C6.53718 6.85556 6.49486 6.86023 6.45154 6.86023C6.44533 6.86023 6.43915 6.8594 6.43298 6.85925C6.07834 6.91882 5.80798 7.22693 5.80798 7.59851V20.2958C5.80805 20.7099 6.14381 21.0458 6.55798 21.0458H8.13416C8.26355 21.0457 8.3907 21.0119 8.5033 20.9481L9.55115 20.3553L9.68005 20.287C9.98486 20.1396 10.3197 20.0624 10.6595 20.0624H13.1849L13.2611 20.0663C13.6394 20.1045 13.9347 20.4241 13.9349 20.8124C13.9349 21.2008 13.6395 21.5202 13.2611 21.5585L13.1849 21.5624H10.6595C10.5625 21.5624 10.4667 21.5817 10.3773 21.618L10.2904 21.66L9.24255 22.2538C8.90454 22.4452 8.52259 22.5457 8.13416 22.5458H6.55798C5.31538 22.5458 4.30805 21.5384 4.30798 20.2958V7.59851C4.30798 6.65919 4.88381 5.85442 5.70154 5.51746V3.20398L5.70544 3.12683C5.74407 2.74886 6.06337 2.45398 6.45154 2.45398H9.88611L9.96228 2.45789C10.3406 2.49614 10.6361 2.81554 10.6361 3.20398V5.30066C10.7819 5.24635 10.9096 5.14758 10.9984 5.01453L11.7894 3.828L11.8705 3.71375C12.2942 3.15634 12.956 2.82605 13.6615 2.82605H17.4418C18.6844 2.82605 19.6918 3.83341 19.6918 5.07605V10.0243C19.6918 10.4385 19.356 10.7743 18.9418 10.7743C18.5277 10.7742 18.1918 10.4384 18.1918 10.0243ZM16.267 5.36023L16.3431 5.36414C16.7215 5.4024 17.017 5.7218 17.017 6.11023C17.0169 6.49859 16.7214 6.81808 16.3431 6.85632L16.267 6.86023H14.5101C14.096 6.86023 13.7602 6.52436 13.7601 6.11023C13.7601 5.69602 14.0959 5.36023 14.5101 5.36023H16.267ZM7.20154 5.34851H9.13611V3.95398H7.20154V5.34851Z" fill="currentColor"/>
<path d="M18.942 13.0256C19.3562 13.0256 19.692 13.3614 19.692 13.7756V14.0256H20.942C21.3562 14.0256 21.692 14.3614 21.692 14.7756C21.692 15.1898 21.3562 15.5256 20.942 15.5256H18.442C18.2431 15.5256 18.0523 15.6046 17.9117 15.7453C17.771 15.8859 17.692 16.0767 17.692 16.2756C17.692 16.4745 17.771 16.6653 17.9117 16.8059C18.0523 16.9466 18.2431 17.0256 18.442 17.0256H19.442C20.0388 17.0256 20.611 17.2626 21.033 17.6846C21.455 18.1066 21.692 18.6788 21.692 19.2756C21.692 19.8723 21.455 20.4446 21.033 20.8666C20.6704 21.2292 20.1968 21.4552 19.692 21.5117V21.7756C19.692 22.1898 19.3562 22.5256 18.942 22.5256C18.5278 22.5256 18.192 22.1898 18.192 21.7756V21.5256H16.942C16.5278 21.5256 16.192 21.1898 16.192 20.7756C16.192 20.3614 16.5278 20.0256 16.942 20.0256H19.442C19.6409 20.0256 19.8317 19.9466 19.9723 19.8059C20.113 19.6653 20.192 19.4745 20.192 19.2756C20.192 19.0767 20.113 18.8859 19.9723 18.7453C19.8317 18.6046 19.6409 18.5256 19.442 18.5256H18.442C17.8453 18.5256 17.273 18.2885 16.851 17.8666C16.4291 17.4446 16.192 16.8723 16.192 16.2756C16.192 15.6788 16.4291 15.1066 16.851 14.6846C17.2136 14.322 17.6873 14.0959 18.192 14.0395V13.7756C18.192 13.3614 18.5278 13.0256 18.942 13.0256Z" fill="currentColor"/>
</svg>
