<svg width="24" height="24" viewBox="0 0 24 24" fill="none" xmlns="http://www.w3.org/2000/svg">
<path d="M15.7329 15.7319C15.4999 15.9643 15.3151 16.2404 15.1891 16.5444C15.063 16.8484 14.9982 17.1743 14.9984 17.5034C14.9986 17.8324 15.0638 18.1582 15.1902 18.4621C15.3165 18.7659 15.5017 19.0418 15.7349 19.2739C15.9682 19.5061 16.2449 19.6899 16.5494 19.8148C16.8538 19.9397 17.1799 20.0033 17.509 20.0019C17.8381 20.0005 18.1636 19.9342 18.467 19.8067C18.7704 19.6792 19.0456 19.493 19.2769 19.2589M11.4999 14.555V14.5L7.80588 19.591C7.68118 19.7608 7.50605 19.8869 7.30546 19.9513C7.10488 20.0156 6.88908 20.015 6.68886 19.9495C6.48865 19.884 6.31424 19.7569 6.19051 19.5864C6.06679 19.4159 6.00007 19.2107 5.99988 19V8H7.99988M11.9999 8H20.9999L17.9999 14.01M14.6809 14.703L10.4049 14.253C9.68059 14.1769 8.99083 13.9045 8.40999 13.4651C7.82915 13.0258 7.37927 12.4362 7.10888 11.76L4.25588 4.63C4.18191 4.44425 4.05395 4.28494 3.88853 4.17264C3.72311 4.06034 3.52782 4.00021 3.32788 4H2.00488M2.99988 3L20.9999 21" stroke="currentColor" stroke-width="1.5" stroke-linecap="round" stroke-linejoin="round"/>
</svg>
