<svg width="24" height="24" viewBox="0 0 24 24" fill="none" xmlns="http://www.w3.org/2000/svg">
<path d="M17.5 15C18.163 15 18.7989 15.2634 19.2678 15.7322C19.7366 16.2011 20 16.837 20 17.5C20 18.163 19.7366 18.7989 19.2678 19.2678C18.7989 19.7366 18.163 20 17.5 20C16.837 20 16.2011 19.7366 15.7322 19.2678C15.2634 18.7989 15 18.163 15 17.5C15 16.837 15.2634 16.2011 15.7322 15.7322C16.2011 15.2634 16.837 15 17.5 15ZM17.5 15L21 8H6V19C6.00019 19.2107 6.06691 19.4159 6.19063 19.5864C6.31436 19.7569 6.48877 19.884 6.68899 19.9495C6.8892 20.015 7.105 20.0156 7.30558 19.9513C7.50617 19.8869 7.6813 19.7608 7.806 19.591L11.5 14.5V14.555M17.5 15L10.4 14.253C9.67571 14.1769 8.98595 13.9045 8.40511 13.4651C7.82427 13.0258 7.37439 12.4362 7.104 11.76L4.251 4.63C4.17702 4.44425 4.04906 4.28494 3.88364 4.17264C3.71822 4.06034 3.52294 4.00021 3.323 4H2" stroke="currentColor" stroke-width="1.5" stroke-linecap="round" stroke-linejoin="round"/>
</svg>
