<svg width="24" height="24" viewBox="0 0 24 24" fill="none" xmlns="http://www.w3.org/2000/svg">
<path fill-rule="evenodd" clip-rule="evenodd" d="M2.46967 2.46967C2.76256 2.17678 3.23744 2.17678 3.53033 2.46967L21.5303 20.4697C21.8232 20.7626 21.8232 21.2374 21.5303 21.5303C21.2374 21.8232 20.7626 21.8232 20.4697 21.5303L14.75 15.8107V19.25H15C15.4142 19.25 15.75 19.5858 15.75 20C15.75 20.4142 15.4142 20.75 15 20.75H3C2.58579 20.75 2.25 20.4142 2.25 20C2.25 19.5858 2.58579 19.25 3 19.25H3.25V6C3.25 5.5134 3.37664 5.05588 3.59857 4.65924L2.46967 3.53033C2.17678 3.23744 2.17678 2.76256 2.46967 2.46967ZM4.76234 5.823C4.7542 5.88077 4.75 5.93986 4.75 6V10.25H9.18934L4.76234 5.823ZM10.6893 11.75H4.75V19.25H13.25V14.3107L10.6893 11.75ZM7.25 4C7.25 3.58579 7.58579 3.25 8 3.25H12C12.7293 3.25 13.4288 3.53973 13.9445 4.05546C14.4603 4.57118 14.75 5.27065 14.75 6V10C14.75 10.1156 14.7239 10.2251 14.6771 10.3229C14.7749 10.2762 14.8844 10.25 15 10.25C15.7293 10.25 16.4288 10.5397 16.9445 11.0555C17.4603 11.5712 17.75 12.2707 17.75 13C17.75 13.4142 17.4142 13.75 17 13.75C16.5858 13.75 16.25 13.4142 16.25 13C16.25 12.6685 16.1183 12.3505 15.8839 12.1161C15.6495 11.8817 15.3315 11.75 15 11.75C14.5858 11.75 14.25 11.4142 14.25 11C14.25 10.8844 14.2762 10.7749 14.3229 10.6771C14.2251 10.7239 14.1156 10.75 14 10.75C13.5858 10.75 13.25 10.4142 13.25 10V6C13.25 5.66848 13.1183 5.35054 12.8839 5.11612C12.6495 4.8817 12.3315 4.75 12 4.75H8C7.58579 4.75 7.25 4.41421 7.25 4ZM16.4697 5.46967C16.7626 5.17678 17.2374 5.17678 17.5303 5.46967L20.5303 8.46967C20.671 8.61032 20.75 8.80109 20.75 9V16C20.75 16.4142 20.4142 16.75 20 16.75C19.5858 16.75 19.25 16.4142 19.25 16V9.75H19C18.5359 9.75 18.0908 9.56563 17.7626 9.23744C17.4344 8.90925 17.25 8.46413 17.25 8V7.31066L16.4697 6.53033C16.1768 6.23744 16.1768 5.76256 16.4697 5.46967Z" fill="currentColor"/>
</svg>
