<svg width="24" height="24" viewBox="0 0 24 24" fill="none" xmlns="http://www.w3.org/2000/svg">
<path d="M20 9V16C20 16.3978 19.842 16.7794 19.5607 17.0607C19.2794 17.342 18.8978 17.5 18.5 17.5C18.1022 17.5 17.7206 17.342 17.4393 17.0607C17.158 16.7794 17 16.3978 17 16V13C17 12.4696 16.7893 11.9609 16.4142 11.5858C16.0391 11.2107 15.5304 11 15 11H4M20 9L17 6M20 9H19C18.7348 9 18.4804 8.89464 18.2929 8.70711C18.1054 8.51957 18 8.26522 18 8V7M4 20V6C4 5.46957 4.21071 4.96086 4.58579 4.58579C4.96086 4.21071 5.46957 4 6 4H12C12.5304 4 13.0391 4.21071 13.4142 4.58579C13.7893 4.96086 14 5.46957 14 6V20M3 20H15" stroke="currentColor" stroke-width="1.5" stroke-linecap="round" stroke-linejoin="round"/>
</svg>
