<svg width="24" height="24" viewBox="0 0 24 24" fill="none" xmlns="http://www.w3.org/2000/svg">
<path d="M17 3.34001C18.5083 4.21087 19.7629 5.46054 20.6398 6.96531C21.5167 8.47009 21.9854 10.1778 21.9994 11.9194C22.0135 13.6609 21.5725 15.376 20.72 16.8947C19.8676 18.4135 18.6332 19.6832 17.1392 20.5783C15.6452 21.4734 13.9434 21.9628 12.2021 21.9981C10.4608 22.0333 8.74055 21.6132 7.21155 20.7793C5.68256 19.9453 4.39787 18.7265 3.48467 17.2435C2.57146 15.7605 2.06141 14.0647 2.005 12.324L2 12L2.005 11.676C2.061 9.94901 2.56355 8.26598 3.46364 6.79101C4.36373 5.31604 5.63065 4.09947 7.14089 3.2599C8.65113 2.42033 10.3531 1.98641 12.081 2.00045C13.8089 2.01449 15.5036 2.47601 17 3.34001ZM16.707 7.29302C16.5195 7.10554 16.2652 7.00023 16 7.00023C15.7348 7.00023 15.4805 7.10554 15.293 7.29302L12.703 9.88302L12.62 9.97702L12.552 10.077C12.2663 9.99507 11.9659 9.97782 11.6726 10.0265C11.3794 10.0752 11.1007 10.1886 10.8568 10.3585C10.6128 10.5284 10.4098 10.7505 10.2625 11.0087C10.1152 11.2668 10.0272 11.5546 10.005 11.851L10 12L10.005 12.15C10.026 12.429 10.1053 12.7005 10.2378 12.947C10.3703 13.1934 10.5531 13.4093 10.7743 13.5807C10.9954 13.7521 11.2501 13.8752 11.5218 13.942C11.7935 14.0088 12.0763 14.0179 12.3517 13.9686C12.6271 13.9193 12.8891 13.8128 13.1208 13.6559C13.3525 13.499 13.5487 13.2952 13.6967 13.0577C13.8447 12.8203 13.9412 12.5544 13.98 12.2773C14.0188 12.0002 13.9991 11.718 13.922 11.449C13.9932 11.4069 14.0588 11.3558 14.117 11.297L16.707 8.70701L16.79 8.61301C16.9393 8.42061 17.0132 8.18036 16.9979 7.93733C16.9826 7.69431 16.8792 7.46521 16.707 7.29302ZM12 6.00001C10.4087 6.00001 8.88258 6.63216 7.75736 7.75737C6.63214 8.88259 6 10.4087 6 12C6 12.2652 6.10536 12.5196 6.29289 12.7071C6.48043 12.8947 6.73478 13 7 13C7.26522 13 7.51957 12.8947 7.70711 12.7071C7.89464 12.5196 8 12.2652 8 12C8 10.9391 8.42143 9.92173 9.17157 9.17159C9.92172 8.42144 10.9391 8.00001 12 8.00001C12.2652 8.00001 12.5196 7.89466 12.7071 7.70712C12.8946 7.51959 13 7.26523 13 7.00001C13 6.7348 12.8946 6.48044 12.7071 6.29291C12.5196 6.10537 12.2652 6.00001 12 6.00001Z" fill="currentColor"/>
</svg>
