<svg width="24" height="24" viewBox="0 0 24 24" fill="none" xmlns="http://www.w3.org/2000/svg">
<path d="M12.9999 9.99988L20.3829 17.4179C21.2059 18.2379 21.2059 19.5659 20.3829 20.3849C19.9875 20.7781 19.4525 20.9989 18.8949 20.9989C18.3372 20.9989 17.8022 20.7781 17.4069 20.3849L9.99988 12.9999M12.9999 9.99988L8.99988 5.99988M12.9999 9.99988L13.4998 10.4998L15.7928 8.20685C15.9803 8.01932 16.0856 7.76501 16.0856 7.49985C16.0856 7.23468 15.9803 6.98038 15.7928 6.79285L12.2068 3.20685C12.0193 3.01938 11.765 2.91406 11.4998 2.91406C11.2347 2.91406 10.9804 3.01938 10.7928 3.20685L8.49985 5.49985L8.99988 5.99988M12.9999 9.99988L9.99988 12.9999M9.99988 12.9999L5.99988 8.99988M9.99988 12.9999L10.4998 13.4998L8.20685 15.7928C8.01932 15.9803 7.76501 16.0856 7.49985 16.0856C7.23468 16.0856 6.98038 15.9803 6.79285 15.7928L3.20685 12.2068C3.01938 12.0193 2.91406 11.765 2.91406 11.4998C2.91406 11.2347 3.01938 10.9804 3.20685 10.7928L5.49985 8.49985L5.99988 8.99988M5.99988 8.99988L8.99988 5.99988M2.99988 20.9999H9.99988" stroke="currentColor" stroke-width="1.5" stroke-linecap="round" stroke-linejoin="round"/>
</svg>
