<svg width="24" height="24" viewBox="0 0 24 24" fill="none" xmlns="http://www.w3.org/2000/svg">
<path d="M15.5359 15.5359C16.0003 15.0716 16.3686 14.5203 16.6199 13.9136C16.8712 13.3069 17.0006 12.6566 17.0006 11.9999C17.0006 11.3432 16.8712 10.693 16.6199 10.0863C16.3686 9.47955 16.0003 8.92828 15.5359 8.46393C15.0716 7.99957 14.5203 7.63123 13.9136 7.37992C13.3069 7.12861 12.6566 6.99927 11.9999 6.99927C11.3432 6.99927 10.693 7.12861 10.0863 7.37992C9.47955 7.63123 8.92828 7.99957 8.46393 8.46393C7.52612 9.40173 6.99927 10.6737 6.99927 11.9999C6.99927 13.3262 7.52612 14.5981 8.46393 15.5359C9.40173 16.4737 10.6737 17.0006 11.9999 17.0006C13.3262 17.0006 14.5981 16.4737 15.5359 15.5359ZM15.5359 15.5359L20.9999 9.99994M3 13.9999L8.464 8.46494M12 11.9999H12.01" stroke="currentColor" stroke-width="1.5" stroke-linecap="round" stroke-linejoin="round"/>
</svg>
