<svg width="24" height="24" viewBox="0 0 24 24" fill="none" xmlns="http://www.w3.org/2000/svg">
<path d="M15.4641 14L18.4641 8.80399M5.53589 15.195L8.53589 9.99899M12 12H12.01M9 9L3 3M3 3V7M3 3H7M5.5 8.5L8.5 5.5M21 21L15 15M17 20L20 17M9.99998 15.464C10.4551 15.7308 10.9584 15.9049 11.4811 15.9764C12.0037 16.0478 12.5354 16.0152 13.0454 15.8804C13.5554 15.7455 14.0337 15.5112 14.4527 15.1907C14.8717 14.8703 15.2233 14.4701 15.487 14.0133C15.7508 13.5565 15.9216 13.052 15.9896 12.5288C16.0576 12.0057 16.0214 11.4743 15.8832 10.9652C15.745 10.4561 15.5075 9.9794 15.1842 9.56249C14.861 9.14558 14.4586 8.79672 14 8.53599C13.0817 8.01392 11.9943 7.87624 10.9749 8.15299C9.95555 8.42974 9.08703 9.09846 8.55888 10.0132C8.03074 10.928 7.88585 12.0145 8.15583 13.0357C8.42582 14.0568 9.08876 14.9298 9.99998 15.464Z" stroke="currentColor" stroke-width="1.5" stroke-linecap="round" stroke-linejoin="round"/>
</svg>
