<svg width="24" height="24" viewBox="0 0 24 24" fill="none" xmlns="http://www.w3.org/2000/svg">
<path d="M13.5 11.5L20 18V14M11.5 13.5L18 20M14 20L16 18M9 4C10.3261 4 11.5979 4.52678 12.5355 5.46447C13.4732 6.40215 14 7.67392 14 9C14 10.3261 13.4732 11.5979 12.5355 12.5355C11.5979 13.4732 10.3261 14 9 14C7.67392 14 6.40215 13.4732 5.46447 12.5355C4.52678 11.5979 4 10.3261 4 9C4 7.67392 4.52678 6.40215 5.46447 5.46447C6.40215 4.52678 7.67392 4 9 4Z" stroke="currentColor" stroke-width="1.5" stroke-linecap="round" stroke-linejoin="round"/>
</svg>
