<svg width="24" height="24" viewBox="0 0 24 24" fill="none" xmlns="http://www.w3.org/2000/svg">
<path d="M13 11L19 5M19 5V9M19 5H15M16.5 10.5L13.5 7.5M4 15C4 16.3261 4.52678 17.5979 5.46447 18.5355C6.40215 19.4732 7.67392 20 9 20C10.3261 20 11.5979 19.4732 12.5355 18.5355C13.4732 17.5979 14 16.3261 14 15C14 13.6739 13.4732 12.4021 12.5355 11.4645C11.5979 10.5268 10.3261 10 9 10C7.67392 10 6.40215 10.5268 5.46447 11.4645C4.52678 12.4021 4 13.6739 4 15Z" stroke="currentColor" stroke-width="1.5" stroke-linecap="round" stroke-linejoin="round"/>
</svg>
