<svg width="24" height="24" viewBox="0 0 24 24" fill="none" xmlns="http://www.w3.org/2000/svg">
<path fill-rule="evenodd" clip-rule="evenodd" d="M11.9999 2.25C12.4141 2.25 12.7499 2.58579 12.7499 3V4.35424C13.1975 4.48113 13.6097 4.72067 13.9445 5.05546C14.4602 5.57118 14.7499 6.27065 14.7499 7C14.7499 7.72935 14.4602 8.42882 13.9445 8.94454C13.9019 8.98712 13.858 9.02816 13.813 9.06762L15.1914 13.2018C15.3224 13.5947 15.1101 14.0195 14.7171 14.1505C14.3242 14.2815 13.8994 14.0692 13.7684 13.6762L12.4472 9.7134C12.3003 9.73761 12.1507 9.75 11.9999 9.75C11.8491 9.75 11.6996 9.73761 11.5527 9.7134L9.50972 15.8423C10.3017 16.107 11.1396 16.25 11.9999 16.25C15.1059 16.25 17.9244 14.3801 19.3338 11.6554C19.5241 11.2875 19.9766 11.1435 20.3445 11.3338C20.7124 11.5242 20.8564 11.9767 20.6661 12.3446C19.7085 14.1958 18.1871 15.7238 16.3499 16.6774L17.7114 20.7629C17.8424 21.1558 17.63 21.5806 17.237 21.7115C16.8441 21.8425 16.4193 21.6301 16.2884 21.2371L14.9647 17.2651C14.0253 17.5794 13.0282 17.75 11.9999 17.75C10.9715 17.75 9.97438 17.5797 9.03517 17.2659L7.71142 21.2372C7.58044 21.6301 7.1557 21.8425 6.76274 21.7115C6.36978 21.5805 6.15741 21.1558 6.2884 20.7628L7.64973 16.6788C5.81212 15.7258 4.2908 14.1978 3.33352 12.3441C3.14347 11.9761 3.28774 11.5237 3.65578 11.3336C4.02382 11.1436 4.47624 11.2878 4.6663 11.6559C5.44952 13.1725 6.66855 14.4232 8.13111 15.2347L10.1868 9.06764C10.1418 9.02817 10.098 8.98713 10.0554 8.94454C9.53964 8.42882 9.24991 7.72935 9.24991 7C9.24991 6.27065 9.53964 5.57118 10.0554 5.05546C10.3902 4.72067 10.8024 4.48113 11.2499 4.35424V3C11.2499 2.58579 11.5857 2.25 11.9999 2.25ZM11.9999 5.75C11.6684 5.75 11.3504 5.8817 11.116 6.11612C10.8816 6.35054 10.7499 6.66848 10.7499 7C10.7499 7.33152 10.8816 7.64946 11.116 7.88388C11.3505 8.1183 11.6684 8.25 11.9999 8.25C12.3314 8.25 12.6494 8.1183 12.8838 7.88388C13.1182 7.64946 13.2499 7.33152 13.2499 7C13.2499 6.66848 13.1182 6.35054 12.8838 6.11612C12.6494 5.8817 12.3314 5.75 11.9999 5.75Z" fill="currentColor"/>
</svg>
