<svg width="24" height="24" viewBox="0 0 24 24" fill="none" xmlns="http://www.w3.org/2000/svg">
<path d="M12.0002 3C14.0787 3.00002 16.0755 3.80894 17.5679 5.25547C19.0604 6.702 19.9313 8.67259 19.9962 10.75L20.0002 11L19.9992 17.954L20.0092 18.057C20.0407 18.5881 19.9191 19.1171 19.6589 19.5811C19.3987 20.0452 19.0108 20.4248 18.5412 20.675L18.3782 20.755C17.3252 21.23 16.0952 21.003 15.2492 20.162L15.1122 20.016C15.0514 19.9383 14.9737 19.8754 14.885 19.8322C14.7963 19.7889 14.6989 19.7664 14.6002 19.7664C14.5015 19.7664 14.4041 19.7889 14.3154 19.8322C14.2267 19.8754 14.149 19.9383 14.0882 20.016C13.8404 20.3331 13.5235 20.5897 13.1617 20.7661C12.8 20.9425 12.4027 21.0342 12.0002 21.0342C11.5977 21.0342 11.2005 20.9425 10.8387 20.7661C10.4769 20.5897 10.1601 20.3331 9.91223 20.016C9.85147 19.9382 9.77379 19.8752 9.68508 19.8319C9.59637 19.7886 9.49895 19.7661 9.40023 19.766C9.20023 19.766 9.01123 19.858 8.85023 20.062C8.46725 20.4957 7.95848 20.7992 7.39484 20.93C6.83121 21.0608 6.2408 21.0125 5.70593 20.7918C5.17106 20.5711 4.71839 20.189 4.41101 19.6987C4.10364 19.2085 3.95689 18.6346 3.99123 18.057L3.99923 17.966L4.00023 11L4.00423 10.75C4.06918 8.67259 4.94007 6.702 6.43252 5.25547C7.92497 3.80894 9.9218 3.00002 12.0002 3ZM14.8202 13.429C14.6688 13.2115 14.4373 13.0631 14.1765 13.0162C13.9156 12.9693 13.6469 13.0279 13.4292 13.179C13.0099 13.4711 12.5112 13.6277 12.0002 13.6277C11.4892 13.6277 10.9905 13.4711 10.5712 13.179C10.3535 13.0276 10.0845 12.9688 9.82345 13.0157C9.5624 13.0626 9.33067 13.2113 9.17923 13.429C9.02779 13.6467 8.96905 13.9157 9.01593 14.1768C9.06282 14.4378 9.21148 14.6696 9.42923 14.821C10.1837 15.3462 11.0809 15.6278 12.0002 15.6278C12.9195 15.6278 13.8168 15.3462 14.5712 14.821C14.679 14.746 14.771 14.6505 14.842 14.54C14.9129 14.4295 14.9613 14.306 14.9845 14.1768C15.0078 14.0475 15.0053 13.915 14.9773 13.7866C14.9492 13.6583 14.8962 13.5368 14.8212 13.429H14.8202ZM10.0102 9L9.88323 9.007C9.63013 9.0371 9.39808 9.16271 9.23449 9.35817C9.0709 9.55362 8.98812 9.80416 9.00306 10.0586C9.01799 10.313 9.12952 10.5522 9.31486 10.7272C9.5002 10.9021 9.74535 10.9997 10.0002 11L10.1272 10.993C10.3803 10.9629 10.6124 10.8373 10.776 10.6418C10.9396 10.4464 11.0223 10.1958 11.0074 9.94139C10.9925 9.68695 10.8809 9.44782 10.6956 9.27285C10.5103 9.09788 10.2651 9.00028 10.0102 9ZM14.0102 9L13.8832 9.007C13.6301 9.0371 13.3981 9.16271 13.2345 9.35817C13.0709 9.55362 12.9881 9.80416 13.0031 10.0586C13.018 10.313 13.1295 10.5522 13.3149 10.7272C13.5002 10.9021 13.7453 10.9997 14.0002 11L14.1272 10.993C14.3803 10.9629 14.6124 10.8373 14.776 10.6418C14.9396 10.4464 15.0223 10.1958 15.0074 9.94139C14.9925 9.68695 14.8809 9.44782 14.6956 9.27285C14.5103 9.09788 14.2651 9.00028 14.0102 9Z" fill="currentColor"/>
</svg>
