<svg width="24" height="24" viewBox="0 0 24 24" fill="none" xmlns="http://www.w3.org/2000/svg">
<path d="M12 1.99902L12.041 2.00102L12.249 2.00402C14.2835 2.06741 16.2174 2.90396 17.6567 4.34329C19.0961 5.78262 19.9326 7.71649 19.996 9.75102L19.999 9.99902L20.176 10.005C20.9096 10.0481 21.6019 10.3589 22.1215 10.8785C22.6411 11.3982 22.9519 12.0904 22.995 12.824L23 13C23 13.7957 22.6839 14.5587 22.1213 15.1213C21.5587 15.684 20.7956 16 20 16L19.999 17.696L21.832 20.446C21.927 20.5887 21.9838 20.7534 21.9968 20.9243C22.0098 21.0952 21.9787 21.2666 21.9064 21.4221C21.8341 21.5775 21.7231 21.7117 21.584 21.8119C21.4449 21.9121 21.2823 21.9748 21.112 21.994L21 22H11C7.555 22.002 4.673 19.51 4.099 16.176L4.071 15.998L4 15.999C3.23479 15.9991 2.49849 15.7067 1.94174 15.1817C1.38499 14.6568 1.04989 13.9389 1.005 13.175L1 13C1 12.2044 1.31607 11.4413 1.87868 10.8787C2.44129 10.3161 3.20435 10 4 10L4.004 9.75002C4.06895 7.67261 4.93985 5.70203 6.4323 4.25549C7.92474 2.80896 9.92157 2.00005 12 2.00002V1.99902ZM12 12C11.4696 12 10.9609 12.2107 10.5858 12.5858C10.2107 12.9609 10 13.4696 10 14C10 14.2652 10.1054 14.5196 10.2929 14.7071C10.4804 14.8947 10.7348 15 11 15H13C13.2652 15 13.5196 14.8947 13.7071 14.7071C13.8946 14.5196 14 14.2652 14 14C14 13.4696 13.7893 12.9609 13.4142 12.5858C13.0391 12.2107 12.5304 12 12 12ZM10.01 8.00002L9.883 8.00702C9.6299 8.03713 9.39785 8.16274 9.23426 8.35819C9.07067 8.55364 8.98789 8.80419 9.00283 9.05863C9.01777 9.31307 9.1293 9.55221 9.31463 9.72718C9.49997 9.90214 9.74512 9.99974 10 10L10.127 9.99302C10.3801 9.96292 10.6121 9.83731 10.7757 9.64186C10.9393 9.4464 11.0221 9.19586 11.0072 8.94142C10.9922 8.68698 10.8807 8.44784 10.6954 8.27287C10.51 8.0979 10.2649 8.00031 10.01 8.00002ZM14.01 8.00002L13.883 8.00702C13.6299 8.03713 13.3979 8.16274 13.2343 8.35819C13.0707 8.55364 12.9879 8.80419 13.0028 9.05863C13.0178 9.31307 13.1293 9.55221 13.3146 9.72718C13.5 9.90214 13.7451 9.99974 14 10L14.127 9.99302C14.3801 9.96292 14.6121 9.83731 14.7757 9.64186C14.9393 9.4464 15.0221 9.19586 15.0072 8.94142C14.9922 8.68698 14.8807 8.44784 14.6954 8.27287C14.51 8.0979 14.2649 8.00031 14.01 8.00002Z" fill="currentColor"/>
</svg>
