<svg width="24" height="24" viewBox="0 0 24 24" fill="none" xmlns="http://www.w3.org/2000/svg">
<path d="M10 8.99998H10.01M14 8.99998H14.01M12 3C13.8565 3 15.637 3.7375 16.9497 5.05025C18.2625 6.36301 19 8.14348 19 10V11H20C20.5304 11 21.0391 11.2107 21.4142 11.5858C21.7893 11.9609 22 12.4696 22 13C22 13.5304 21.7893 14.0391 21.4142 14.4142C21.0391 14.7893 20.5304 15 20 15H19V18L21 21H11C9.44693 21.0011 7.95394 20.3999 6.83497 19.3229C5.716 18.2459 5.05824 16.777 5 15.225V14.999H4C3.46957 14.999 2.96086 14.7883 2.58579 14.4132C2.21071 14.0381 2 13.5294 2 12.999C2 12.4686 2.21071 11.9599 2.58579 11.5848C2.96086 11.2097 3.46957 10.999 4 10.999H5V9.999C5 8.14248 5.7375 6.36201 7.05025 5.04925C8.36301 3.7365 10.1435 3 12 3ZM11 14H13C13 13.7348 12.8946 13.4804 12.7071 13.2929C12.5196 13.1053 12.2652 13 12 13C11.7348 13 11.4804 13.1053 11.2929 13.2929C11.1054 13.4804 11 13.7348 11 14Z" stroke="currentColor" stroke-width="1.5" stroke-linecap="round" stroke-linejoin="round"/>
</svg>
