<svg width="24" height="24" viewBox="0 0 24 24" fill="none" xmlns="http://www.w3.org/2000/svg">
<path d="M8.79402 4.77599C9.86119 4.22617 11.0518 3.96004 12.2515 4.00318C13.4512 4.04631 14.6197 4.39726 15.6446 5.0223C16.6696 5.64734 17.5165 6.52547 18.1041 7.57231C18.6917 8.61914 19.0002 9.79951 19 11V15M18.88 18.898C18.7652 19.1779 18.581 19.4239 18.3447 19.6127C18.1084 19.8016 17.8278 19.9271 17.5296 19.9773C17.2313 20.0276 16.9251 20.0009 16.6399 19.8999C16.3548 19.7989 16.1001 19.6268 15.9 19.4C15.7457 19.2026 15.5484 19.0429 15.3232 18.933C15.0979 18.8232 14.8506 18.7661 14.6 18.7661C14.3494 18.7661 14.1021 18.8232 13.8769 18.933C13.6516 19.0429 13.4543 19.2026 13.3 19.4C13.1457 19.5974 12.9484 19.7571 12.7232 19.867C12.4979 19.9768 12.2506 20.0339 12 20.0339C11.7494 20.0339 11.5021 19.9768 11.2769 19.867C11.0516 19.7571 10.8543 19.5974 10.7 19.4C10.5457 19.2026 10.3484 19.0429 10.1232 18.933C9.89792 18.8232 9.65062 18.7661 9.40002 18.7661C9.14942 18.7661 8.90211 18.8232 8.67686 18.933C8.45162 19.0429 8.25434 19.2026 8.10002 19.4C7.84816 19.685 7.51163 19.8818 7.13975 19.9616C6.76788 20.0415 6.38022 20.0001 6.03358 19.8435C5.68695 19.687 5.39957 19.4235 5.21357 19.0918C5.02757 18.76 4.95273 18.3774 5.00002 18V11C5.00002 9.31699 5.59402 7.77299 6.58302 6.56599M14 10H14.01M10 14C10.5869 14.4087 11.2849 14.6277 12 14.6277C12.7151 14.6277 13.4131 14.4087 14 14M3 3L21 21" stroke="currentColor" stroke-width="1.5" stroke-linecap="round" stroke-linejoin="round"/>
</svg>
