<svg width="24" height="24" viewBox="0 0 24 24" fill="none" xmlns="http://www.w3.org/2000/svg">
<path d="M10.0001 10H10.0101M14.0001 10H14.0101M10.0001 14C10.587 14.4087 11.285 14.6277 12.0001 14.6277C12.7153 14.6277 13.4132 14.4087 14.0001 14M5.00014 11C5.00014 9.14348 5.73764 7.36301 7.05039 6.05025C8.36315 4.7375 10.1436 4 12.0001 4C13.8567 4 15.6371 4.7375 16.9499 6.05025C18.2626 7.36301 19.0001 9.14348 19.0001 11V18C19.0474 18.3774 18.9726 18.76 18.7866 19.0918C18.6006 19.4235 18.3132 19.687 17.9666 19.8435C17.6199 20.0001 17.2323 20.0415 16.8604 19.9617C16.4885 19.8818 16.152 19.685 15.9001 19.4C15.7458 19.2026 15.5485 19.0429 15.3233 18.933C15.098 18.8232 14.8507 18.7661 14.6001 18.7661C14.3495 18.7661 14.1022 18.8232 13.877 18.933C13.6517 19.0429 13.4545 19.2026 13.3001 19.4C13.1458 19.5974 12.9485 19.7571 12.7233 19.867C12.498 19.9768 12.2507 20.0339 12.0001 20.0339C11.7495 20.0339 11.5022 19.9768 11.277 19.867C11.0517 19.7571 10.8545 19.5974 10.7001 19.4C10.5458 19.2026 10.3485 19.0429 10.1233 18.933C9.89804 18.8232 9.65074 18.7661 9.40014 18.7661C9.14954 18.7661 8.90223 18.8232 8.67699 18.933C8.45174 19.0429 8.25447 19.2026 8.10014 19.4C7.84828 19.685 7.51175 19.8818 7.13988 19.9617C6.768 20.0415 6.38034 20.0001 6.03371 19.8435C5.68707 19.687 5.3997 19.4235 5.2137 19.0918C5.0277 18.76 4.95285 18.3774 5.00014 18V11Z" stroke="currentColor" stroke-width="1.5" stroke-linecap="round" stroke-linejoin="round"/>
</svg>
