<svg width="24" height="24" viewBox="0 0 24 24" fill="none" xmlns="http://www.w3.org/2000/svg">
<path d="M18 4C19.0262 4 20.0132 4.39444 20.7568 5.10172C21.5004 5.80901 21.9437 6.77504 21.995 7.8L22 8V16C22 17.0262 21.6056 18.0132 20.8983 18.7568C20.191 19.5004 19.225 19.9437 18.2 19.995L18 20H6C4.97376 20 3.98677 19.6056 3.24319 18.8983C2.4996 18.191 2.05631 17.225 2.005 16.2L2 16V8C2 6.97376 2.39444 5.98677 3.10172 5.24319C3.80901 4.4996 4.77504 4.05631 5.8 4.005L6 4H18ZM12.507 9L12.317 9.004C11.389 9.056 10.598 9.587 10 10.448C9.44 9.643 8.712 9.126 7.861 9.02L7.663 9.003L7.499 9L7.339 9.005C6.059 9.091 5 10.184 5 11.5C5 12.726 6.222 13.711 7.453 13.947L7.613 13.973L6.293 15.293L6.21 15.387C6.07393 15.5624 6.00008 15.778 6.00008 16C6.00008 16.222 6.07393 16.4376 6.21 16.613L6.293 16.707L6.387 16.79C6.56237 16.9261 6.77803 16.9999 7 16.9999C7.22197 16.9999 7.43763 16.9261 7.613 16.79L7.707 16.707L10 14.415L12.293 16.707L12.387 16.79C12.5794 16.9391 12.8196 17.013 13.0626 16.9976C13.3056 16.9823 13.5346 16.8789 13.7067 16.7067C13.8789 16.5346 13.9823 16.3056 13.9976 16.0626C14.013 15.8196 13.9391 15.5794 13.79 15.387L13.707 15.293L12.387 13.973C13.616 13.804 14.889 12.863 14.993 11.658L15 11.5L14.995 11.337C14.915 10.148 13.975 9.175 12.82 9.021L12.661 9.005L12.507 9ZM12.482 11L12.584 11.009C12.778 11.049 12.951 11.219 12.991 11.415L13 11.5L12.988 11.531L12.954 11.571C12.824 11.706 12.441 11.94 12.118 11.991L12 12H11.398L11.45 11.9L11.538 11.744C11.808 11.3 12.112 11.048 12.39 11.006L12.482 11ZM7.518 11L7.602 11.005L7.696 11.025C7.95 11.102 8.219 11.345 8.461 11.743L8.551 11.9L8.601 12H8L7.894 11.992C7.496 11.935 7 11.592 7 11.5C7 11.27 7.194 11.054 7.416 11.009L7.518 10.999V11Z" fill="currentColor"/>
</svg>
