<svg width="24" height="24" viewBox="0 0 24 24" fill="none" xmlns="http://www.w3.org/2000/svg">
<path d="M7 16C7.53043 16 8.03914 16.2107 8.41421 16.5858C8.78929 16.9609 9 17.4696 9 18C9 18.5304 8.78929 19.0391 8.41421 19.4142C8.03914 19.7893 7.53043 20 7 20C6.46957 20 5.96086 19.7893 5.58579 19.4142C5.21071 19.0391 5 18.5304 5 18C5 17.4696 5.21071 16.9609 5.58579 16.5858C5.96086 16.2107 6.46957 16 7 16ZM7 16V8M7 8C6.46957 8 5.96086 7.78929 5.58579 7.41421C5.21071 7.03914 5 6.53043 5 6C5 5.46957 5.21071 4.96086 5.58579 4.58579C5.96086 4.21071 6.46957 4 7 4C7.53043 4 8.03914 4.21071 8.41421 4.58579C8.78929 4.96086 9 5.46957 9 6C9 6.53043 8.78929 7.03914 8.41421 7.41421C8.03914 7.78929 7.53043 8 7 8ZM7 8C7 9.06087 7.42143 10.0783 8.17157 10.8284C8.92172 11.5786 9.93913 12 11 12H15M15 12C15 12.5304 15.2107 13.0391 15.5858 13.4142C15.9609 13.7893 16.4696 14 17 14C17.5304 14 18.0391 13.7893 18.4142 13.4142C18.7893 13.0391 19 12.5304 19 12C19 11.4696 18.7893 10.9609 18.4142 10.5858C18.0391 10.2107 17.5304 10 17 10C16.4696 10 15.9609 10.2107 15.5858 10.5858C15.2107 10.9609 15 11.4696 15 12Z" stroke="currentColor" stroke-width="1.5" stroke-linecap="round" stroke-linejoin="round"/>
</svg>
