<svg width="24" height="24" viewBox="0 0 24 24" fill="none" xmlns="http://www.w3.org/2000/svg">
<path d="M7 15C6.60603 15 6.21593 14.9224 5.85195 14.7716C5.48797 14.6209 5.15726 14.3999 4.87868 14.1213C4.6001 13.8427 4.37913 13.512 4.22836 13.1481C4.0776 12.7841 4 12.394 4 12C4 11.606 4.0776 11.2159 4.22836 10.8519C4.37913 10.488 4.6001 10.1573 4.87868 9.87868C5.15726 9.6001 5.48797 9.37913 5.85195 9.22836C6.21593 9.0776 6.60603 9 7 9M7 15C7.39397 15 7.78407 14.9224 8.14805 14.7716C8.51203 14.6209 8.84274 14.3999 9.12132 14.1213C9.3999 13.8427 9.62087 13.512 9.77164 13.1481C9.9224 12.7841 10 12.394 10 12C10 11.606 9.9224 11.2159 9.77164 10.8519C9.62087 10.488 9.3999 10.1573 9.12132 9.87868C8.84274 9.6001 8.51203 9.37913 8.14805 9.22836C7.78407 9.0776 7.39397 9 7 9M7 15V21M7 9V3M13 7H15.5L17 12M17 12L15.5 17H13M17 12H20" stroke="currentColor" stroke-width="1.5" stroke-linecap="round" stroke-linejoin="round"/>
</svg>
