<svg width="24" height="24" viewBox="0 0 24 24" fill="none" xmlns="http://www.w3.org/2000/svg">
<path d="M5.00398 10.229L5.00098 10.043L5.00198 9.93L5.00998 9.859L6.00998 2.859C6.0411 2.63979 6.1441 2.43711 6.30281 2.28274C6.46153 2.12837 6.66699 2.03103 6.88698 2.006L6.99998 2H17C17.2212 1.99988 17.4363 2.07315 17.6114 2.20832C17.7866 2.34349 17.912 2.53294 17.968 2.747L17.99 2.859L18.996 9.909L19 10C19 13.226 16.44 15.564 13 15.945V20H16C16.2549 20.0003 16.5 20.0979 16.6853 20.2728C16.8707 20.4478 16.9822 20.687 16.9971 20.9414C17.0121 21.1958 16.9293 21.4464 16.7657 21.6418C16.6021 21.8373 16.3701 21.9629 16.117 21.993L16 22H7.99998C7.7451 21.9997 7.49994 21.9021 7.31461 21.7272C7.12927 21.5522 7.01774 21.313 7.0028 21.0586C6.98787 20.8042 7.07065 20.5536 7.23424 20.3582C7.39783 20.1627 7.62988 20.0371 7.88298 20.007L7.99998 20H11V15.945C7.64198 15.574 5.12198 13.336 5.00398 10.229ZM16.133 4H7.86598L7.25898 8.258C8.11772 7.99766 9.02392 7.93322 9.91086 8.06942C10.7978 8.20562 11.6429 8.53899 12.384 9.045L12.6 9.2C13.2143 9.66095 13.9483 9.9353 14.7144 9.99028C15.4804 10.0452 16.2461 9.87852 16.92 9.51L16.133 4Z" fill="currentColor"/>
</svg>
