<svg width="24" height="24" viewBox="0 0 24 24" fill="none" xmlns="http://www.w3.org/2000/svg">
<path fill-rule="evenodd" clip-rule="evenodd" d="M14.3498 1.62611C14.5562 1.267 15.0147 1.14323 15.3738 1.34966C16.43 1.9568 17.348 2.77748 18.0693 3.7593C18.7906 4.74112 19.2993 5.86252 19.563 7.05195C19.8266 8.24138 19.8394 9.4727 19.6005 10.6673C19.3616 11.862 18.8763 12.9937 18.1755 13.9903C17.9373 14.3291 17.4694 14.4106 17.1306 14.1724C16.7918 13.9341 16.7102 13.4663 16.9485 13.1275C17.5293 12.3015 17.9316 11.3634 18.1296 10.3732C18.3276 9.38302 18.317 8.36242 18.0985 7.37654C17.88 6.39067 17.4583 5.46117 16.8605 4.64738C16.2626 3.83358 15.5017 3.15335 14.6262 2.65011C14.2671 2.44368 14.1433 1.98522 14.3498 1.62611ZM2.46967 2.46955C2.76256 2.17666 3.23744 2.17666 3.53033 2.46955L21.5303 20.4696C21.8232 20.7624 21.8232 21.2373 21.5303 21.5302C21.2374 21.8231 20.7626 21.8231 20.4697 21.5302L15.4458 16.5063C14.315 17.1706 13.0516 17.5714 11.75 17.6823V20.2499H15C15.4142 20.2499 15.75 20.5857 15.75 20.9999C15.75 21.4141 15.4142 21.7499 15 21.7499H7C6.58579 21.7499 6.25 21.4141 6.25 20.9999C6.25 20.5857 6.58579 20.2499 7 20.2499H10.25V17.6812C8.40659 17.5217 6.65841 16.7824 5.25817 15.5661C4.94546 15.2945 4.91215 14.8208 5.18378 14.5081C5.45541 14.1953 5.92912 14.162 6.24183 14.4337C7.45652 15.4888 8.9871 16.1108 10.5935 16.2022C11.8975 16.2764 13.1916 15.9974 14.3421 15.4027L12.4604 13.521C11.7153 13.7621 10.9192 13.816 10.1434 13.6741C9.19431 13.5004 8.32063 13.0419 7.63858 12.3594C6.95654 11.677 6.49849 10.8031 6.32538 9.85389C6.18403 9.07891 6.23812 8.28379 6.47893 7.53947L2.46967 3.53021C2.17678 3.23732 2.17678 2.76245 2.46967 2.46955ZM7.7537 8.81424C7.73889 9.07066 7.75445 9.32931 7.80103 9.58475C7.91948 10.2342 8.23289 10.8321 8.69955 11.2991C9.1662 11.766 9.76399 12.0797 10.4134 12.1986C10.6694 12.2454 10.9286 12.2611 11.1857 12.2462L7.7537 8.81424ZM9.04022 4.67181C9.91909 4.27321 10.8985 4.15176 11.8481 4.32362C12.7977 4.49548 13.6725 4.95251 14.3559 5.63386C15.0393 6.3152 15.4989 7.18855 15.6737 8.13763C15.8484 9.08671 15.7299 10.0665 15.334 10.9466C15.164 11.3243 14.72 11.4928 14.3423 11.3228C13.9645 11.1529 13.7961 10.7089 13.966 10.3311C14.2369 9.72898 14.318 9.0586 14.1985 8.40923C14.0789 7.75985 13.7644 7.1623 13.2968 6.69612C12.8292 6.22993 12.2307 5.91723 11.581 5.79964C10.9313 5.68205 10.2611 5.76515 9.65979 6.03788C9.28256 6.20897 8.83806 6.04186 8.66697 5.66463C8.49589 5.2874 8.663 4.8429 9.04022 4.67181Z" fill="currentColor"/>
</svg>
