<svg width="24" height="24" viewBox="0 0 24 24" fill="none" xmlns="http://www.w3.org/2000/svg">
<path d="M11 4C11.9797 3.99994 12.9378 4.28769 13.7553 4.8275C14.5729 5.36731 15.2138 6.1354 15.5986 7.03636C15.9833 7.93733 16.0949 8.93147 15.9195 9.89531C15.7441 10.8592 15.2893 11.7502 14.6118 12.4579C13.9343 13.1655 13.0638 13.6585 12.1085 13.8756C11.1532 14.0928 10.1552 14.0245 9.23834 13.6793C8.3215 13.334 7.52629 12.7271 6.95146 11.9338C6.37663 11.1405 6.04752 10.1958 6.005 9.217L6 9L6.005 8.783C6.06092 7.49575 6.61161 6.27978 7.54222 5.38866C8.47284 4.49754 9.71154 4.00007 11 4Z" fill="currentColor"/>
<path d="M14.1332 1.50204C14.2653 1.27213 14.4833 1.1041 14.7393 1.0349C14.9952 0.9657 15.2682 1.001 15.4982 1.13304C16.5883 1.75957 17.5352 2.60721 18.2783 3.62148C19.0213 4.63576 19.544 5.79424 19.8126 7.02251C20.0813 8.25078 20.0901 9.52168 19.8384 10.7535C19.5868 11.9854 19.0802 13.151 18.3513 14.1755C17.6223 15.1999 16.6872 16.0606 15.6058 16.7021C14.5245 17.3437 13.321 17.7519 12.0725 17.9007C10.824 18.0495 9.55819 17.9354 8.3564 17.5659C7.15462 17.1964 6.04341 16.5795 5.09418 15.755C4.99503 15.6689 4.91382 15.5641 4.85519 15.4465C4.79656 15.329 4.76165 15.2011 4.75245 15.07C4.74326 14.939 4.75996 14.8075 4.80161 14.6829C4.84326 14.5583 4.90903 14.4432 4.99518 14.344C5.08133 14.2449 5.18616 14.1637 5.30369 14.105C5.42122 14.0464 5.54915 14.0115 5.68018 14.0023C5.8112 13.9931 5.94275 14.0098 6.06732 14.0515C6.19189 14.0931 6.30703 14.1589 6.40618 14.245C7.14482 14.8866 8.00949 15.3666 8.94465 15.6541C9.87981 15.9416 10.8648 16.0304 11.8363 15.9146C12.8078 15.7989 13.7443 15.4812 14.5857 14.982C15.4271 14.4828 16.1548 13.8131 16.722 13.0159C17.2893 12.2188 17.6835 11.3118 17.8793 10.3532C18.0752 9.39465 18.0684 8.40573 17.8593 7.44996C17.6502 6.49419 17.2436 5.59272 16.6654 4.80346C16.0873 4.01419 15.3504 3.3546 14.5022 2.86704C14.2723 2.73493 14.1042 2.51692 14.035 2.26094C13.9658 2.00497 14.0011 1.73199 14.1332 1.50204Z" fill="currentColor"/>
<path d="M11 16C11.2449 16 11.4813 16.09 11.6644 16.2527C11.8474 16.4155 11.9643 16.6397 11.993 16.883L12 17V21C11.9997 21.2549 11.9021 21.5 11.7272 21.6854C11.5522 21.8707 11.313 21.9822 11.0586 21.9972C10.8042 22.0121 10.5536 21.9293 10.3582 21.7657C10.1627 21.6021 10.0371 21.3701 10.007 21.117L10 21V17C10 16.7348 10.1054 16.4804 10.2929 16.2929C10.4804 16.1054 10.7348 16 11 16Z" fill="currentColor"/>
<path d="M14.9999 20C15.2547 20.0003 15.4999 20.0979 15.6852 20.2728C15.8706 20.4478 15.9821 20.687 15.997 20.9414C16.012 21.1958 15.9292 21.4464 15.7656 21.6418C15.602 21.8373 15.37 21.9629 15.1169 21.993L14.9999 22H6.99987C6.74499 21.9997 6.49984 21.9021 6.3145 21.7272C6.12916 21.5522 6.01763 21.313 6.0027 21.0586C5.98776 20.8042 6.07054 20.5536 6.23413 20.3582C6.39772 20.1627 6.62977 20.0371 6.88287 20.007L6.99987 20H14.9999Z" fill="currentColor"/>
</svg>
