<svg width="24" height="24" viewBox="0 0 24 24" fill="none" xmlns="http://www.w3.org/2000/svg">
<path fill-rule="evenodd" clip-rule="evenodd" d="M14.3498 1.62614C14.5562 1.26702 15.0146 1.14323 15.3738 1.34964C16.4336 1.95881 17.3543 2.78295 18.0767 3.7691C18.7991 4.75525 19.3073 5.88161 19.5685 7.07581C19.8297 8.27002 19.8382 9.50566 19.5935 10.7034C19.3488 11.9011 18.8563 13.0343 18.1476 14.0304C17.4389 15.0264 16.5296 15.8632 15.4783 16.4869C14.427 17.1107 13.2568 17.5076 12.0429 17.6522C11.9454 17.6639 11.8477 17.6738 11.75 17.6822V20.2499H15C15.4142 20.2499 15.75 20.5857 15.75 20.9999C15.75 21.4141 15.4142 21.7499 15 21.7499H7.00001C6.5858 21.7499 6.25001 21.4141 6.25001 20.9999C6.25001 20.5857 6.5858 20.2499 7.00001 20.2499H10.25V17.6812C9.63416 17.6278 9.024 17.5094 8.42994 17.3267C7.26148 16.9675 6.1811 16.3677 5.25819 15.5661C4.94547 15.2945 4.91216 14.8208 5.18378 14.5081C5.45541 14.1953 5.92911 14.162 6.24183 14.4337C7.0068 15.0981 7.90229 15.5952 8.87078 15.893C9.83927 16.1908 10.8593 16.2827 11.8655 16.1628C12.8716 16.0429 13.8415 15.7139 14.7129 15.1969C15.5843 14.6799 16.338 13.9863 16.9254 13.1607C17.5128 12.3352 17.9211 11.3958 18.1239 10.4031C18.3267 9.41036 18.3196 8.38618 18.1031 7.39635C17.8866 6.40651 17.4654 5.47291 16.8666 4.65553C16.2679 3.83814 15.5047 3.15505 14.6263 2.65013C14.2671 2.44371 14.1434 1.98526 14.3498 1.62614ZM7.64125 5.64112C8.53205 4.75033 9.74023 4.24988 11 4.24988C12.2598 4.24988 13.468 4.75033 14.3588 5.64112C15.2496 6.53192 15.75 7.7401 15.75 8.99988C15.75 10.2597 15.2496 11.4678 14.3588 12.3586C13.468 13.2494 12.2598 13.7499 11 13.7499C9.74023 13.7499 8.53205 13.2494 7.64125 12.3586C6.75046 11.4678 6.25001 10.2597 6.25001 8.99988C6.25001 7.7401 6.75046 6.53192 7.64125 5.64112ZM11 5.74988C10.1381 5.74988 9.31141 6.09229 8.70191 6.70179C8.09242 7.31128 7.75001 8.13793 7.75001 8.99988C7.75001 9.86184 8.09242 10.6885 8.70191 11.298C9.31141 11.9075 10.1381 12.2499 11 12.2499C11.862 12.2499 12.6886 11.9075 13.2981 11.298C13.9076 10.6885 14.25 9.86184 14.25 8.99988C14.25 8.13793 13.9076 7.31128 13.2981 6.70179C12.6886 6.09229 11.862 5.74988 11 5.74988Z" fill="currentColor"/>
</svg>
