<svg width="24" height="24" viewBox="0 0 24 24" fill="none" xmlns="http://www.w3.org/2000/svg">
<path d="M3.22678 14C4.14378 18 7.72378 21 11.9998 21C16.2768 21 19.8578 18 20.7728 14M20.7798 10C20.3264 8.01081 19.2106 6.23468 17.6153 4.96283C16.0201 3.69097 14.04 2.99888 11.9998 3.00002C9.95851 2.9957 7.97661 3.68658 6.38038 4.95891C4.78415 6.23125 3.66873 8.00919 3.21777 10M9.99979 12C9.99979 12.5304 10.2105 13.0391 10.5856 13.4142C10.9606 13.7893 11.4694 14 11.9998 14C12.5302 14 13.0389 13.7893 13.414 13.4142C13.7891 13.0391 13.9998 12.5304 13.9998 12C13.9998 11.4696 13.7891 10.9609 13.414 10.5858C13.0389 10.2107 12.5302 10 11.9998 10C11.4694 10 10.9606 10.2107 10.5856 10.5858C10.2105 10.9609 9.99979 11.4696 9.99979 12Z" stroke="currentColor" stroke-width="1.5" stroke-linecap="round" stroke-linejoin="round"/>
</svg>
