<svg width="24" height="24" viewBox="0 0 24 24" fill="none" xmlns="http://www.w3.org/2000/svg">
<path fill-rule="evenodd" clip-rule="evenodd" d="M8.26256 3.26256C8.59075 2.93437 9.03587 2.75 9.5 2.75C9.96413 2.75 10.4092 2.93437 10.7374 3.26256C11.0656 3.59075 11.25 4.03587 11.25 4.5C11.25 4.96413 11.0656 5.40925 10.7374 5.73744C10.4092 6.06562 9.96413 6.25 9.5 6.25C9.03587 6.25 8.59075 6.06562 8.26256 5.73744C7.93437 5.40925 7.75 4.96413 7.75 4.5C7.75 4.03587 7.93437 3.59075 8.26256 3.26256ZM9.5 4.25C9.4337 4.25 9.37011 4.27634 9.32322 4.32322C9.27634 4.37011 9.25 4.4337 9.25 4.5C9.25 4.5663 9.27634 4.62989 9.32322 4.67678C9.37011 4.72366 9.4337 4.75 9.5 4.75C9.5663 4.75 9.62989 4.72366 9.67678 4.67678C9.72366 4.62989 9.75 4.5663 9.75 4.5C9.75 4.4337 9.72366 4.37011 9.67678 4.32322C9.62989 4.27634 9.5663 4.25 9.5 4.25ZM18.2626 3.26256C18.5908 2.93437 19.0359 2.75 19.5 2.75C19.9641 2.75 20.4092 2.93437 20.7374 3.26256C21.0656 3.59075 21.25 4.03587 21.25 4.5C21.25 4.96413 21.0656 5.40925 20.7374 5.73744C20.4092 6.06563 19.9641 6.25 19.5 6.25C19.0359 6.25 18.5908 6.06563 18.2626 5.73744C17.9344 5.40925 17.75 4.96413 17.75 4.5C17.75 4.03587 17.9344 3.59075 18.2626 3.26256ZM19.5 4.25C19.4337 4.25 19.3701 4.27634 19.3232 4.32322C19.2763 4.37011 19.25 4.43369 19.25 4.5C19.25 4.56631 19.2763 4.62989 19.3232 4.67678C19.3701 4.72366 19.4337 4.75 19.5 4.75C19.5663 4.75 19.6299 4.72366 19.6768 4.67678C19.7237 4.62989 19.75 4.56631 19.75 4.5C19.75 4.43369 19.7237 4.37011 19.6768 4.32322C19.6299 4.27634 19.5663 4.25 19.5 4.25ZM3.26256 8.26256C3.59075 7.93437 4.03587 7.75 4.5 7.75C4.96413 7.75 5.40925 7.93437 5.73744 8.26256C6.06562 8.59075 6.25 9.03587 6.25 9.5C6.25 9.96413 6.06562 10.4092 5.73744 10.7374C5.40925 11.0656 4.96413 11.25 4.5 11.25C4.03587 11.25 3.59075 11.0656 3.26256 10.7374C2.93437 10.4092 2.75 9.96413 2.75 9.5C2.75 9.03587 2.93437 8.59075 3.26256 8.26256ZM4.5 9.25C4.4337 9.25 4.37011 9.27634 4.32322 9.32322C4.27634 9.37011 4.25 9.4337 4.25 9.5C4.25 9.5663 4.27634 9.62989 4.32322 9.67678C4.37011 9.72366 4.4337 9.75 4.5 9.75C4.5663 9.75 4.62989 9.72366 4.67678 9.67678C4.72366 9.62989 4.75 9.5663 4.75 9.5C4.75 9.4337 4.72366 9.37011 4.67678 9.32322C4.62989 9.27634 4.5663 9.25 4.5 9.25ZM13.2626 8.26256C13.5908 7.93437 14.0359 7.75 14.5 7.75C14.9641 7.75 15.4092 7.93437 15.7374 8.26256C16.0656 8.59075 16.25 9.03587 16.25 9.5C16.25 9.96413 16.0656 10.4092 15.7374 10.7374C15.4092 11.0656 14.9641 11.25 14.5 11.25C14.0359 11.25 13.5908 11.0656 13.2626 10.7374C12.9344 10.4092 12.75 9.96413 12.75 9.5C12.75 9.03587 12.9344 8.59075 13.2626 8.26256ZM14.5 9.25C14.4337 9.25 14.3701 9.27634 14.3232 9.32322C14.2763 9.37011 14.25 9.4337 14.25 9.5C14.25 9.5663 14.2763 9.62989 14.3232 9.67678C14.3701 9.72366 14.4337 9.75 14.5 9.75C14.5663 9.75 14.6299 9.72366 14.6768 9.67678C14.7237 9.62989 14.75 9.5663 14.75 9.5C14.75 9.4337 14.7237 9.37011 14.6768 9.32322C14.6299 9.27634 14.5663 9.25 14.5 9.25ZM8.26256 13.2626C8.59075 12.9344 9.03587 12.75 9.5 12.75C9.96413 12.75 10.4092 12.9344 10.7374 13.2626C11.0656 13.5908 11.25 14.0359 11.25 14.5C11.25 14.9641 11.0656 15.4092 10.7374 15.7374C10.4092 16.0656 9.96413 16.25 9.5 16.25C9.03587 16.25 8.59075 16.0656 8.26256 15.7374C7.93437 15.4092 7.75 14.9641 7.75 14.5C7.75 14.0359 7.93437 13.5908 8.26256 13.2626ZM9.5 14.25C9.4337 14.25 9.37011 14.2763 9.32322 14.3232C9.27634 14.3701 9.25 14.4337 9.25 14.5C9.25 14.5663 9.27634 14.6299 9.32322 14.6768C9.37011 14.7237 9.4337 14.75 9.5 14.75C9.5663 14.75 9.62989 14.7237 9.67678 14.6768C9.72366 14.6299 9.75 14.5663 9.75 14.5C9.75 14.4337 9.72366 14.3701 9.67678 14.3232C9.62989 14.2763 9.5663 14.25 9.5 14.25ZM18.2626 13.2626C18.5908 12.9344 19.0359 12.75 19.5 12.75C19.9641 12.75 20.4092 12.9344 20.7374 13.2626C21.0656 13.5908 21.25 14.0359 21.25 14.5C21.25 14.9641 21.0656 15.4092 20.7374 15.7374C20.4092 16.0656 19.9641 16.25 19.5 16.25C19.0359 16.25 18.5908 16.0656 18.2626 15.7374C17.9344 15.4092 17.75 14.9641 17.75 14.5C17.75 14.0359 17.9344 13.5908 18.2626 13.2626ZM19.5 14.25C19.4337 14.25 19.3701 14.2763 19.3232 14.3232C19.2763 14.3701 19.25 14.4337 19.25 14.5C19.25 14.5663 19.2763 14.6299 19.3232 14.6768C19.3701 14.7237 19.4337 14.75 19.5 14.75C19.5663 14.75 19.6299 14.7237 19.6768 14.6768C19.7237 14.6299 19.75 14.5663 19.75 14.5C19.75 14.4337 19.7237 14.3701 19.6768 14.3232C19.6299 14.2763 19.5663 14.25 19.5 14.25ZM3.26256 18.2626C3.59075 17.9344 4.03587 17.75 4.5 17.75C4.96413 17.75 5.40925 17.9344 5.73744 18.2626C6.06563 18.5908 6.25 19.0359 6.25 19.5C6.25 19.9641 6.06563 20.4092 5.73744 20.7374C5.40925 21.0656 4.96413 21.25 4.5 21.25C4.03587 21.25 3.59075 21.0656 3.26256 20.7374C2.93437 20.4092 2.75 19.9641 2.75 19.5C2.75 19.0359 2.93437 18.5908 3.26256 18.2626ZM4.5 19.25C4.43369 19.25 4.37011 19.2763 4.32322 19.3232C4.27634 19.3701 4.25 19.4337 4.25 19.5C4.25 19.5663 4.27634 19.6299 4.32322 19.6768C4.37011 19.7237 4.43369 19.75 4.5 19.75C4.56631 19.75 4.62989 19.7237 4.67678 19.6768C4.72366 19.6299 4.75 19.5663 4.75 19.5C4.75 19.4337 4.72366 19.3701 4.67678 19.3232C4.62989 19.2763 4.56631 19.25 4.5 19.25ZM13.2626 18.2626C13.5908 17.9344 14.0359 17.75 14.5 17.75C14.9641 17.75 15.4092 17.9344 15.7374 18.2626C16.0656 18.5908 16.25 19.0359 16.25 19.5C16.25 19.9641 16.0656 20.4092 15.7374 20.7374C15.4092 21.0656 14.9641 21.25 14.5 21.25C14.0359 21.25 13.5908 21.0656 13.2626 20.7374C12.9344 20.4092 12.75 19.9641 12.75 19.5C12.75 19.0359 12.9344 18.5908 13.2626 18.2626ZM14.5 19.25C14.4337 19.25 14.3701 19.2763 14.3232 19.3232C14.2763 19.3701 14.25 19.4337 14.25 19.5C14.25 19.5663 14.2763 19.6299 14.3232 19.6768C14.3701 19.7237 14.4337 19.75 14.5 19.75C14.5663 19.75 14.6299 19.7237 14.6768 19.6768C14.7237 19.6299 14.75 19.5663 14.75 19.5C14.75 19.4337 14.7237 19.3701 14.6768 19.3232C14.6299 19.2763 14.5663 19.25 14.5 19.25Z" fill="currentColor"/>
</svg>
