<svg width="24" height="24" viewBox="0 0 24 24" fill="none" xmlns="http://www.w3.org/2000/svg">
<path fill-rule="evenodd" clip-rule="evenodd" d="M6 4.75C5.66848 4.75 5.35054 4.8817 5.11612 5.11612C4.8817 5.35054 4.75 5.66848 4.75 6V18C4.75 18.3315 4.8817 18.6495 5.11612 18.8839C5.35054 19.1183 5.66848 19.25 6 19.25H18C18.3315 19.25 18.6495 19.1183 18.8839 18.8839C19.1183 18.6495 19.25 18.3315 19.25 18V6C19.25 5.66848 19.1183 5.35054 18.8839 5.11612C18.6495 4.8817 18.3315 4.75 18 4.75H6ZM4.05546 4.05546C4.57118 3.53973 5.27065 3.25 6 3.25H18C18.7293 3.25 19.4288 3.53973 19.9445 4.05546C20.4603 4.57118 20.75 5.27065 20.75 6V18C20.75 18.7293 20.4603 19.4288 19.9445 19.9445C19.4288 20.4603 18.7293 20.75 18 20.75H6C5.27065 20.75 4.57118 20.4603 4.05546 19.9445C3.53973 19.4288 3.25 18.7293 3.25 18V6C3.25 5.27065 3.53973 4.57118 4.05546 4.05546ZM14.4697 9.46967C14.7626 9.17678 15.2374 9.17678 15.5303 9.46967L17.5303 11.4697C17.8232 11.7626 17.8232 12.2374 17.5303 12.5303C17.2374 12.8232 16.7626 12.8232 16.4697 12.5303L15 11.0607L12.5303 13.5303C12.2374 13.8232 11.7626 13.8232 11.4697 13.5303L10 12.0607L7.53033 14.5303C7.23744 14.8232 6.76256 14.8232 6.46967 14.5303C6.17678 14.2374 6.17678 13.7626 6.46967 13.4697L9.46967 10.4697C9.76256 10.1768 10.2374 10.1768 10.5303 10.4697L12 11.9393L14.4697 9.46967Z" fill="currentColor"/>
</svg>
