<svg width="24" height="24" viewBox="0 0 24 24" fill="none" xmlns="http://www.w3.org/2000/svg">
<path fill-rule="evenodd" clip-rule="evenodd" d="M10 4.75C9.40326 4.75 8.83097 4.98705 8.40901 5.40901C7.98705 5.83097 7.75 6.40326 7.75 7V15.2583C7.83296 15.2528 7.91634 15.25 8 15.25H16C16.0837 15.25 16.167 15.2528 16.25 15.2583V7C16.25 6.40326 16.0129 5.83097 15.591 5.40901C15.169 4.98705 14.5967 4.75 14 4.75H10ZM17.75 15.6834V7C17.75 6.00544 17.3549 5.05161 16.6517 4.34835C15.9484 3.64509 14.9946 3.25 14 3.25H10C9.00544 3.25 8.05161 3.64509 7.34835 4.34835C6.64509 5.05161 6.25 6.00544 6.25 7V15.6834C5.9208 15.8571 5.61638 16.0803 5.34835 16.3483C4.64509 17.0516 4.25 18.0054 4.25 19V21C4.25 21.4142 4.58579 21.75 5 21.75H19C19.4142 21.75 19.75 21.4142 19.75 21V19C19.75 18.0054 19.3549 17.0516 18.6517 16.3483C18.3836 16.0803 18.0792 15.8571 17.75 15.6834ZM12 6.25C12.4142 6.25 12.75 6.58579 12.75 7V8.25H14C14.4142 8.25 14.75 8.58579 14.75 9C14.75 9.41421 14.4142 9.75 14 9.75H12.75V12C12.75 12.4142 12.4142 12.75 12 12.75C11.5858 12.75 11.25 12.4142 11.25 12V9.75H10C9.58579 9.75 9.25 9.41421 9.25 9C9.25 8.58579 9.58579 8.25 10 8.25H11.25V7C11.25 6.58579 11.5858 6.25 12 6.25ZM8 16.75C7.40326 16.75 6.83097 16.9871 6.40901 17.409C5.98705 17.831 5.75 18.4033 5.75 19V20.25H18.25V19C18.25 18.4033 18.0129 17.831 17.591 17.409C17.169 16.9871 16.5967 16.75 16 16.75H8Z" fill="currentColor"/>
</svg>
