<svg width="24" height="24" viewBox="0 0 24 24" fill="none" xmlns="http://www.w3.org/2000/svg">
<path fill-rule="evenodd" clip-rule="evenodd" d="M9.25 3C9.25 2.58579 9.58579 2.25 10 2.25H14C14.4142 2.25 14.75 2.58579 14.75 3V6.25H18C18.4142 6.25 18.75 6.58579 18.75 7V11C18.75 11.4142 18.4142 11.75 18 11.75H14.75V15.25H16C16.9946 15.25 17.9484 15.6451 18.6517 16.3483C19.3549 17.0516 19.75 18.0054 19.75 19V21C19.75 21.4142 19.4142 21.75 19 21.75H5C4.58579 21.75 4.25 21.4142 4.25 21V19C4.25 18.0054 4.64509 17.0516 5.34835 16.3483C6.05161 15.6451 7.00544 15.25 8 15.25H9.25V11.75H6C5.58579 11.75 5.25 11.4142 5.25 11V7C5.25 6.58579 5.58579 6.25 6 6.25H9.25V3ZM8 16.75C7.40326 16.75 6.83097 16.9871 6.40901 17.409C5.98705 17.831 5.75 18.4033 5.75 19V20.25H18.25V19C18.25 18.4033 18.0129 17.831 17.591 17.409C17.169 16.9871 16.5967 16.75 16 16.75H8ZM13.25 15.25H10.75V11C10.75 10.5858 10.4142 10.25 10 10.25H6.75V7.75H10C10.4142 7.75 10.75 7.41421 10.75 7V3.75H13.25V7C13.25 7.41421 13.5858 7.75 14 7.75H17.25V10.25H14C13.5858 10.25 13.25 10.5858 13.25 11V15.25Z" fill="currentColor"/>
</svg>
