<svg width="24" height="24" viewBox="0 0 24 24" fill="none" xmlns="http://www.w3.org/2000/svg">
<path d="M10.2 10.2L16.5 16.5M19.347 16.575L20.427 17.654C20.7946 18.0217 21.0011 18.5204 21.001 19.0404C21.0009 19.5603 20.7942 20.0589 20.4265 20.4265C20.0588 20.7941 19.5601 21.0005 19.0402 21.0005C18.5202 21.0004 18.0216 20.7937 17.654 20.426L16.574 19.347C16.2064 18.9793 16 18.4806 16.0001 17.9606C16.0002 17.4407 16.2068 16.9421 16.5745 16.5745C16.9422 16.2069 17.4409 16.0005 17.9609 16.0005C18.4808 16.0006 18.9794 16.2073 19.347 16.575ZM3 7L6.05 10.15C6.59809 10.672 7.32853 10.959 8.08536 10.9498C8.84218 10.9406 9.56541 10.6358 10.1006 10.1006C10.6358 9.56541 10.9406 8.84218 10.9498 8.08536C10.959 7.32853 10.672 6.59809 10.15 6.05L7 3L3 7Z" stroke="currentColor" stroke-width="1.5" stroke-linecap="round" stroke-linejoin="round"/>
</svg>
