<svg width="24" height="24" viewBox="0 0 24 24" fill="none" xmlns="http://www.w3.org/2000/svg">
<path d="M15 18C15 18.5304 15.2107 19.0391 15.5858 19.4142C15.9609 19.7893 16.4696 20 17 20C17.5304 20 18.0391 19.7893 18.4142 19.4142C18.7893 19.0391 19 18.5304 19 18C19 17.4696 18.7893 16.9609 18.4142 16.5858C18.0391 16.2107 17.5304 16 17 16C16.4696 16 15.9609 16.2107 15.5858 16.5858C15.2107 16.9609 15 17.4696 15 18ZM15 18H7M15 14L16 16M9 14L6 20M15 5V4M12 5V4M9 5V4M19 8H5C5 9.5913 5.63214 11.1174 6.75736 12.2426C7.88258 13.3679 9.4087 14 11 14H13C14.5531 14.0011 16.0461 13.3999 17.165 12.3229C18.284 11.2459 18.9418 9.77698 19 8.225V8Z" stroke="currentColor" stroke-width="1.5" stroke-linecap="round" stroke-linejoin="round"/>
</svg>
