<svg width="24" height="24" viewBox="0 0 24 24" fill="none" xmlns="http://www.w3.org/2000/svg">
<path d="M8 8H5C5 9.5913 5.63214 11.1174 6.75736 12.2426C7.88258 13.3679 9.4087 14 11 14H13C13.315 14 13.624 13.976 13.926 13.929M16.712 12.715C17.3959 12.1773 17.9545 11.4972 18.3489 10.7218C18.7434 9.94638 18.9642 9.09437 18.996 8.225V8H11.996M18.827 18.815C18.695 19.11 18.4935 19.3687 18.2397 19.5688C17.9859 19.7689 17.6873 19.9046 17.3697 19.9641C17.052 20.0236 16.7246 20.0052 16.4156 19.9106C16.1065 19.8159 15.825 19.6477 15.5952 19.4205C15.3654 19.1932 15.194 18.9137 15.0959 18.6057C14.9977 18.2978 14.9756 17.9706 15.0315 17.6523C15.0874 17.3339 15.2197 17.0339 15.4169 16.7778C15.6141 16.5218 15.8705 16.3173 16.164 16.182M9 14L6 20M15 18H7M15 5V4M12 5V4M9 5V4M3 3L21 21" stroke="currentColor" stroke-width="1.5" stroke-linecap="round" stroke-linejoin="round"/>
</svg>
