<svg width="24" height="24" viewBox="0 0 24 24" fill="none" xmlns="http://www.w3.org/2000/svg">
<path d="M4 9C4 9.26522 4.10536 9.51957 4.29289 9.70711C4.48043 9.89464 4.73478 10 5 10C5.26522 10 5.51957 9.89464 5.70711 9.70711C5.89464 9.51957 6 9.26522 6 9C6 8.73478 5.89464 8.48043 5.70711 8.29289C5.51957 8.10536 5.26522 8 5 8C4.73478 8 4.48043 8.10536 4.29289 8.29289C4.10536 8.48043 4 8.73478 4 9Z" stroke="currentColor" stroke-width="1.5" stroke-linecap="round" stroke-linejoin="round"/>
<path d="M4 15C4 15.2652 4.10536 15.5196 4.29289 15.7071C4.48043 15.8946 4.73478 16 5 16C5.26522 16 5.51957 15.8946 5.70711 15.7071C5.89464 15.5196 6 15.2652 6 15C6 14.7348 5.89464 14.4804 5.70711 14.2929C5.51957 14.1054 5.26522 14 5 14C4.73478 14 4.48043 14.1054 4.29289 14.2929C4.10536 14.4804 4 14.7348 4 15Z" stroke="currentColor" stroke-width="1.5" stroke-linecap="round" stroke-linejoin="round"/>
<path d="M11 9C11 9.26522 11.1054 9.51957 11.2929 9.70711C11.4804 9.89464 11.7348 10 12 10C12.2652 10 12.5196 9.89464 12.7071 9.70711C12.8946 9.51957 13 9.26522 13 9C13 8.73478 12.8946 8.48043 12.7071 8.29289C12.5196 8.10536 12.2652 8 12 8C11.7348 8 11.4804 8.10536 11.2929 8.29289C11.1054 8.48043 11 8.73478 11 9Z" stroke="currentColor" stroke-width="1.5" stroke-linecap="round" stroke-linejoin="round"/>
<path d="M11 15C11 15.2652 11.1054 15.5196 11.2929 15.7071C11.4804 15.8946 11.7348 16 12 16C12.2652 16 12.5196 15.8946 12.7071 15.7071C12.8946 15.5196 13 15.2652 13 15C13 14.7348 12.8946 14.4804 12.7071 14.2929C12.5196 14.1054 12.2652 14 12 14C11.7348 14 11.4804 14.1054 11.2929 14.2929C11.1054 14.4804 11 14.7348 11 15Z" stroke="currentColor" stroke-width="1.5" stroke-linecap="round" stroke-linejoin="round"/>
<path d="M18 9C18 9.26522 18.1054 9.51957 18.2929 9.70711C18.4804 9.89464 18.7348 10 19 10C19.2652 10 19.5196 9.89464 19.7071 9.70711C19.8946 9.51957 20 9.26522 20 9C20 8.73478 19.8946 8.48043 19.7071 8.29289C19.5196 8.10536 19.2652 8 19 8C18.7348 8 18.4804 8.10536 18.2929 8.29289C18.1054 8.48043 18 8.73478 18 9Z" stroke="currentColor" stroke-width="1.5" stroke-linecap="round" stroke-linejoin="round"/>
<path d="M18 15C18 15.2652 18.1054 15.5196 18.2929 15.7071C18.4804 15.8946 18.7348 16 19 16C19.2652 16 19.5196 15.8946 19.7071 15.7071C19.8946 15.5196 20 15.2652 20 15C20 14.7348 19.8946 14.4804 19.7071 14.2929C19.5196 14.1054 19.2652 14 19 14C18.7348 14 18.4804 14.1054 18.2929 14.2929C18.1054 14.4804 18 14.7348 18 15Z" stroke="currentColor" stroke-width="1.5" stroke-linecap="round" stroke-linejoin="round"/>
</svg>
