<svg width="24" height="24" viewBox="0 0 24 24" fill="none" xmlns="http://www.w3.org/2000/svg">
<path d="M13 21L14 12M14 12L21 6M14 12L9 11H3M11.5 8.5L16 5M7 7C7 7.26522 7.10536 7.51957 7.29289 7.70711C7.48043 7.89464 7.73478 8 8 8C8.26522 8 8.51957 7.89464 8.70711 7.70711C8.89464 7.51957 9 7.26522 9 7C9 6.73478 8.89464 6.48043 8.70711 6.29289C8.51957 6.10536 8.26522 6 8 6C7.73478 6 7.48043 6.10536 7.29289 6.29289C7.10536 6.48043 7 6.73478 7 7Z" stroke="currentColor" stroke-width="1.5" stroke-linecap="round" stroke-linejoin="round"/>
</svg>
