<svg width="24" height="24" viewBox="0 0 24 24" fill="none" xmlns="http://www.w3.org/2000/svg">
<path d="M10.698 10.72L4.03 17.418C3.83435 17.6123 3.67907 17.8435 3.57311 18.0981C3.46715 18.3527 3.4126 18.6257 3.4126 18.9015C3.4126 19.1773 3.46715 19.4503 3.57311 19.7049C3.67907 19.9595 3.83435 20.1907 4.03 20.385C4.42537 20.7783 4.96035 20.999 5.518 20.999C6.07565 20.999 6.61063 20.7783 7.006 20.385L13.702 13.709M18.713 14.702L20.713 12.702C20.9005 12.5145 21.0058 12.2602 21.0058 11.995C21.0058 11.7298 20.9005 11.4755 20.713 11.288L13.127 3.702C12.9395 3.51453 12.6852 3.40921 12.42 3.40921C12.1548 3.40921 11.9005 3.51453 11.713 3.702L9.713 5.702M3 3L21 21" stroke="currentColor" stroke-width="1.5" stroke-linecap="round" stroke-linejoin="round"/>
</svg>
