<svg width="24" height="24" viewBox="0 0 24 24" fill="none" xmlns="http://www.w3.org/2000/svg">
<path d="M11.414 9.99985L4.03097 17.4178C3.83532 17.6122 3.68004 17.8433 3.57408 18.0979C3.46812 18.3525 3.41357 18.6256 3.41357 18.9014C3.41357 19.1771 3.46812 19.4502 3.57408 19.7048C3.68004 19.9594 3.83532 20.1905 4.03097 20.3848C4.42634 20.7781 4.96132 20.9989 5.51897 20.9989C6.07662 20.9989 6.6116 20.7781 7.00697 20.3848L14.414 12.9998M18.121 15.2928L20.707 12.7068C20.8944 12.5193 20.9998 12.265 20.9998 11.9998C20.9998 11.7347 20.8944 11.4804 20.707 11.2928L13.121 3.70685C12.9334 3.51938 12.6791 3.41406 12.414 3.41406C12.1488 3.41406 11.8945 3.51938 11.707 3.70685L9.12097 6.29285C8.9335 6.48038 8.82818 6.73468 8.82818 6.99985C8.82818 7.26501 8.9335 7.51932 9.12097 7.70685L16.707 15.2928C16.8945 15.4803 17.1488 15.5856 17.414 15.5856C17.6791 15.5856 17.9334 15.4803 18.121 15.2928Z" stroke="currentColor" stroke-width="1.5" stroke-linecap="round" stroke-linejoin="round"/>
</svg>
