<svg width="24" height="24" viewBox="0 0 24 24" fill="none" xmlns="http://www.w3.org/2000/svg">
<path d="M11.0002 5.5C11.0002 5.10218 10.8422 4.72064 10.5609 4.43934C10.2796 4.15804 9.89807 4 9.50024 4C9.10242 4 8.72089 4.15804 8.43958 4.43934C8.15828 4.72064 8.00024 5.10218 8.00024 5.5V13L6.53018 11.53C6.23572 11.2359 5.85143 11.0486 5.43834 10.9978C5.02526 10.9471 4.60706 11.0359 4.25018 11.25C3.91513 11.4509 3.67166 11.7745 3.57157 12.1522C3.47147 12.5298 3.52263 12.9315 3.71418 13.272C5.59318 16.612 6.68818 18.521 7.00018 19C7.06526 19.1002 7.13059 19.2002 7.19618 19.3C7.7427 20.1299 8.48676 20.811 9.36157 21.2823C10.2364 21.7535 11.2145 22.0002 12.2082 22H12.0002H14.0002C15.5915 22 17.1176 21.3679 18.2428 20.2426C19.368 19.1174 20.0002 17.5913 20.0002 16V7.5C20.0002 7.10218 19.8421 6.72064 19.5608 6.43934C19.2795 6.15804 18.898 6 18.5002 6C18.1024 6 17.7208 6.15804 17.4395 6.43934C17.1582 6.72064 17.0002 7.10218 17.0002 7.5M11.0002 5.5V12M11.0002 5.5V3.5C11.0002 3.30302 11.039 3.10796 11.1144 2.92597C11.1898 2.74399 11.3003 2.57863 11.4396 2.43934C11.5789 2.30005 11.7442 2.18956 11.9262 2.11418C12.1082 2.0388 12.3033 2 12.5002 2C12.6972 2 12.8923 2.0388 13.0743 2.11418C13.2563 2.18956 13.4216 2.30005 13.5609 2.43934C13.7002 2.57863 13.8107 2.74399 13.8861 2.92597C13.9614 3.10796 14.0002 3.30302 14.0002 3.5V12M14.0002 5.5C14.0002 5.10218 14.1583 4.72064 14.4396 4.43934C14.7209 4.15804 15.1024 4 15.5002 4C15.8981 4 16.2796 4.15804 16.5609 4.43934C16.8422 4.72064 17.0002 5.10218 17.0002 5.5V12" stroke="currentColor" stroke-width="1.5" stroke-linecap="round" stroke-linejoin="round"/>
</svg>
