<svg width="24" height="24" viewBox="0 0 24 24" fill="none" xmlns="http://www.w3.org/2000/svg">
<path d="M11.0002 10V7.5C11.0002 7.10218 10.8422 6.72064 10.5609 6.43934C10.2796 6.15804 9.89807 6 9.50024 6C9.10242 6 8.72089 6.15804 8.43958 6.43934C8.15828 6.72064 8.00024 7.10218 8.00024 7.5V11L6.53018 9.53C6.23572 9.23588 5.85143 9.04858 5.43834 8.99785C5.02526 8.94712 4.60706 9.03587 4.25018 9.25C3.91513 9.45088 3.67166 9.77454 3.57157 10.1522C3.47147 10.5298 3.52263 10.9315 3.71418 11.272C5.59318 14.612 6.68818 16.521 7.00018 17L7.19618 17.3C7.7427 18.1299 8.48676 18.811 9.36157 19.2823C10.2364 19.7535 11.2145 20.0002 12.2082 20H12.0002H14.0002C15.5915 20 17.1176 19.3679 18.2428 18.2426C19.368 17.1174 20.0002 15.5913 20.0002 14V9.5C20.0002 9.10218 19.8421 8.72064 19.5608 8.43934C19.2795 8.15804 18.898 8 18.5002 8C18.1024 8 17.7208 8.15804 17.4395 8.43934C17.1582 8.72064 17.0002 9.10218 17.0002 9.5M11.0002 9.5V6.5C11.0002 6.10218 11.1583 5.72064 11.4396 5.43934C11.7209 5.15804 12.1024 5 12.5002 5C12.8981 5 13.2796 5.15804 13.5609 5.43934C13.8422 5.72064 14.0002 6.10218 14.0002 6.5V10M14.0002 7.5C14.0002 7.10218 14.1583 6.72064 14.4396 6.43934C14.7209 6.15804 15.1024 6 15.5002 6C15.8981 6 16.2796 6.15804 16.5609 6.43934C16.8422 6.72064 17.0002 7.10218 17.0002 7.5V10" stroke="currentColor" stroke-width="1.5" stroke-linecap="round" stroke-linejoin="round"/>
</svg>
