<svg width="24" height="24" viewBox="0 0 24 24" fill="none" xmlns="http://www.w3.org/2000/svg">
<path d="M11.0002 10.5C11.0002 10.1022 10.8422 9.72064 10.5609 9.43934C10.2796 9.15804 9.89807 9 9.50024 9C9.10242 9 8.72089 9.15804 8.43958 9.43934C8.15828 9.72064 8.00024 10.1022 8.00024 10.5V13L6.53018 11.53C6.23572 11.2359 5.85143 11.0486 5.43834 10.9978C5.02526 10.9471 4.60706 11.0359 4.25018 11.25C3.91513 11.4509 3.67166 11.7745 3.57157 12.1522C3.47147 12.5298 3.52263 12.9315 3.71418 13.272C5.59318 16.612 6.68818 18.521 7.00018 19C7.06526 19.1002 7.13059 19.2002 7.19618 19.3C7.7427 20.1299 8.48676 20.811 9.36157 21.2823C10.2364 21.7535 11.2145 22.0002 12.2082 22H12.0002H14.0002C15.5915 22 17.1176 21.3679 18.2428 20.2426C19.368 19.1174 20.0002 17.5913 20.0002 16V6.5C20.0002 6.10218 19.8421 5.72064 19.5608 5.43934C19.2795 5.15804 18.898 5 18.5002 5C18.1024 5 17.7208 5.15804 17.4395 5.43934C17.1582 5.72064 17.0002 6.10218 17.0002 6.5V12L17.0002 10.5C17.0002 10.1022 16.8422 9.72064 16.5609 9.43934C16.2796 9.15804 15.8981 9 15.5002 9C15.1024 9 14.7209 9.15804 14.4396 9.43934C14.1583 9.72064 14.0002 10.1022 14.0002 10.5M11.0002 10.5V12M11.0002 10.5V11.5M11.0002 10.5C11.0002 10.1022 11.1583 9.72064 11.4396 9.43934C11.7209 9.15804 12.1024 9 12.5002 9C12.8981 9 13.2796 9.15804 13.5609 9.43934C13.8422 9.72064 14.0002 10.1022 14.0002 10.5M14.0002 10.5V12" stroke="currentColor" stroke-width="1.5" stroke-linecap="round" stroke-linejoin="round"/>
</svg>
