<svg width="24" height="24" viewBox="0 0 24 24" fill="none" xmlns="http://www.w3.org/2000/svg">
<path d="M11.0002 11.5V10.5C11.0002 10.1022 11.1583 9.72064 11.4396 9.43934C11.7209 9.15804 12.1024 9 12.5002 9C12.8981 9 13.2796 9.15804 13.5609 9.43934C13.8422 9.72064 14.0002 10.1022 14.0002 10.5M14.0002 10.5V12M14.0002 10.5C14.0002 10.1022 14.1583 9.72064 14.4396 9.43934C14.7209 9.15804 15.1024 9 15.5002 9C15.8981 9 16.2796 9.15804 16.5609 9.43934C16.8422 9.72064 17.0002 10.1022 17.0002 10.5L17.0002 12V5.5C17.0002 5.10218 17.1582 4.72064 17.4395 4.43934C17.7208 4.15804 18.1024 4 18.5002 4C18.898 4 19.2795 4.15804 19.5608 4.43934C19.8421 4.72064 20.0002 5.10218 20.0002 5.5V16C20.0002 17.5913 19.368 19.1174 18.2428 20.2426C17.1176 21.3679 15.5915 22 14.0002 22H12.0002H12.2082C11.2145 22.0002 10.2364 21.7535 9.36157 21.2823C8.48676 20.811 7.7427 20.1299 7.19618 19.3C7.13059 19.2002 7.06526 19.1002 7.00018 19C6.68818 18.521 5.59318 16.612 3.71418 13.272C3.52263 12.9315 3.47147 12.5298 3.57157 12.1522C3.67166 11.7745 3.91513 11.4509 4.25018 11.25C4.60706 11.0359 5.02526 10.9471 5.43834 10.9978C5.85143 11.0486 6.23572 11.2359 6.53018 11.53L8.00018 13L8.00024 4.5C8.00024 4.10218 8.15828 3.72064 8.43958 3.43934C8.72089 3.15804 9.10242 3 9.50024 3C9.89807 3 10.2796 3.15804 10.5609 3.43934C10.8422 3.72064 11.0002 4.10218 11.0002 4.5V12" stroke="currentColor" stroke-width="1.5" stroke-linecap="round" stroke-linejoin="round"/>
</svg>
