<svg width="24" height="24" viewBox="0 0 24 24" fill="none" xmlns="http://www.w3.org/2000/svg">
<path d="M8 7.99997V13L6.52994 11.53C6.23548 11.2358 5.85119 11.0485 5.4381 10.9978C5.02501 10.9471 4.60682 11.0358 4.24994 11.25C3.91489 11.4508 3.67142 11.7745 3.57132 12.1521C3.47122 12.5297 3.52239 12.9315 3.71394 13.272C5.59294 16.612 6.68794 18.521 6.99994 19L7.19594 19.3C7.74245 20.1298 8.48652 20.811 9.36132 21.2823C10.2361 21.7535 11.2143 22.0001 12.2079 22H11.9999H13.9999C15.0278 22.0001 16.0385 21.7361 16.935 21.2333C17.8315 20.7306 18.5839 20.006 19.1199 19.129M8.06006 4.07696C8.16123 3.73008 8.38421 3.43138 8.68802 3.23577C8.99182 3.04016 9.35603 2.96078 9.71368 3.01224C10.0713 3.0637 10.3984 3.24253 10.6347 3.51585C10.8711 3.78918 11.0008 4.13863 11.0001 4.49996V6.99996M11.0001 11V12M12.063 8.06498C12.2872 7.9967 12.5243 7.9819 12.7552 8.02178C12.9862 8.06167 13.2046 8.15511 13.3929 8.29463C13.5812 8.43414 13.7342 8.61585 13.8397 8.82517C13.9451 9.03449 14 9.2656 14 9.49998V9.99998M14.0601 10.082C14.1611 9.7355 14.3837 9.43708 14.687 9.24145C14.9902 9.04582 15.3539 8.96609 15.7112 9.01689C16.0685 9.06769 16.3955 9.24561 16.6323 9.51802C16.869 9.79043 16.9996 10.1391 17.0001 10.5V12M16.9999 11.5C16.9999 11.1021 17.158 10.7206 17.4393 10.4393C17.7206 10.158 18.1021 9.99997 18.4999 9.99997C18.8978 9.99997 19.2793 10.158 19.5606 10.4393C19.8419 10.7206 19.9999 11.1021 19.9999 11.5V16M3 2.99997L21 21" stroke="currentColor" stroke-width="1.5" stroke-linecap="round" stroke-linejoin="round"/>
</svg>
