<svg width="24" height="24" viewBox="0 0 24 24" fill="none" xmlns="http://www.w3.org/2000/svg">
<path d="M3 3L21 21M8.00004 13.5V8M8.44004 4.438C8.64994 4.22837 8.91728 4.08568 9.20826 4.02797C9.49925 3.97027 9.80081 4.00014 10.0748 4.11381C10.3488 4.22748 10.583 4.41985 10.7477 4.66658C10.9123 4.91332 11.0002 5.20335 11 5.5M11 5.5V7M11 5.5V3.5C11 3.30302 11.0388 3.10796 11.1142 2.92597C11.1896 2.74399 11.3001 2.57863 11.4394 2.43934C11.5787 2.30005 11.744 2.18956 11.926 2.11418C12.108 2.0388 12.3031 2 12.5 2C12.697 2 12.8921 2.0388 13.0741 2.11418C13.2561 2.18956 13.4214 2.30005 13.5607 2.43934C13.7 2.57863 13.8105 2.74399 13.8859 2.92597C13.9612 3.10796 14 3.30302 14 3.5V10M11 11.008V12M14 5.5C14 5.10218 14.1581 4.72064 14.4394 4.43934C14.7207 4.15804 15.1022 4 15.5 4C15.8979 4 16.2794 4.15804 16.5607 4.43934C16.842 4.72064 17 5.10218 17 5.5V12M17 7.5C17 7.10218 17.1581 6.72064 17.4394 6.43934C17.7207 6.15804 18.1022 6 18.5 6C18.8979 6 19.2794 6.15804 19.5607 6.43934C19.842 6.72064 20 7.10218 20 7.5V16C20 17.5913 19.3679 19.1174 18.2427 20.2426C17.1175 21.3679 15.5913 22 14 22H12C9.88604 21.708 8.04404 20.603 7.00004 19L4.30004 13.75C4.03483 13.3853 3.92534 12.9302 3.99567 12.4848C4.06599 12.0394 4.31037 11.6402 4.67504 11.375C5.03972 11.1098 5.49481 11.0003 5.94021 11.0706C6.38561 11.1409 6.78483 11.3853 7.05004 11.75L7.95004 13.5" stroke="currentColor" stroke-width="1.5" stroke-linecap="round" stroke-linejoin="round"/>
</svg>
