<svg width="24" height="24" viewBox="0 0 24 24" fill="none" xmlns="http://www.w3.org/2000/svg">
<path d="M11.0002 12V10.5C11.0002 10.1022 10.8422 9.72064 10.5609 9.43934C10.2796 9.15804 9.89807 9 9.50024 9C9.10242 9 8.72089 9.15804 8.43958 9.43934C8.15828 9.72064 8.00024 10.1022 8.00024 10.5V13L6.53018 11.53C6.23572 11.2359 5.85143 11.0486 5.43834 10.9978C5.02526 10.9471 4.60706 11.0359 4.25018 11.25C3.91513 11.4509 3.67166 11.7745 3.57157 12.1522C3.47147 12.5298 3.52263 12.9315 3.71418 13.272C5.59318 16.612 6.68818 18.521 7.00018 19C7.06526 19.1002 7.13059 19.2002 7.19618 19.3C7.7427 20.1299 8.48676 20.811 9.36157 21.2823C10.2364 21.7535 11.2145 22.0002 12.2082 22H12.0002H14.0002C15.5915 22 17.1176 21.3679 18.2428 20.2426C19.368 19.1174 20.0002 17.5913 20.0002 16V11.5C20.0002 11.1022 19.8421 10.7206 19.5608 10.4393C19.2795 10.158 18.898 10 18.5002 10C18.1024 10 17.7208 10.158 17.4395 10.4393C17.1582 10.7206 17.0002 11.1022 17.0002 11.5M11.0002 11.5V9.5C11.0002 9.30302 11.039 9.10796 11.1144 8.92597C11.1898 8.74399 11.3003 8.57863 11.4396 8.43934C11.5789 8.30005 11.7442 8.18956 11.9262 8.11418C12.1082 8.0388 12.3033 8 12.5002 8C12.6972 8 12.8923 8.0388 13.0743 8.11418C13.2563 8.18956 13.4216 8.30005 13.5609 8.43934C13.7002 8.57863 13.8107 8.74399 13.8861 8.92597C13.9614 9.10796 14.0002 9.30302 14.0002 9.5V12V5.5C14.0002 5.10218 14.1583 4.72064 14.4396 4.43934C14.7209 4.15804 15.1024 4 15.5002 4C15.8981 4 16.2796 4.15804 16.5609 4.43934C16.8422 4.72064 17.0002 5.10218 17.0002 5.5V12" stroke="currentColor" stroke-width="1.5" stroke-linecap="round" stroke-linejoin="round"/>
</svg>
