<svg width="24" height="24" viewBox="0 0 24 24" fill="none" xmlns="http://www.w3.org/2000/svg">
<path d="M14.0001 6C14.0001 5.46957 13.7894 4.96086 13.4143 4.58579C13.0392 4.21071 12.5305 4 12.0001 4C11.4697 4 10.961 4.21071 10.5859 4.58579C10.2108 4.96086 10.0001 5.46957 10.0001 6M16.5061 12.506L19.9671 14.428C20.279 14.6012 20.539 14.8548 20.7199 15.1623C20.9008 15.4698 20.9962 15.8202 20.9961 16.177V17M18.9961 19H4.99609C4.46566 19 3.95695 18.7893 3.58188 18.4142C3.20681 18.0391 2.99609 17.5304 2.99609 17V16.177C2.996 15.8202 3.09137 15.4698 3.2723 15.1623C3.45324 14.8548 3.71315 14.6012 4.02509 14.428L10.6981 10.721M3.00012 3L21.0001 21" stroke="currentColor" stroke-width="1.5" stroke-linecap="round" stroke-linejoin="round"/>
</svg>
