<svg width="24" height="24" viewBox="0 0 24 24" fill="none" xmlns="http://www.w3.org/2000/svg">
<path fill-rule="evenodd" clip-rule="evenodd" d="M17.7579 7.33987C18.1583 7.33993 18.4825 7.66411 18.4825 8.06448C18.4825 8.07333 18.4799 8.08207 18.4796 8.09084C18.4836 8.14228 18.4832 8.19488 18.4757 8.24807L17.5304 14.9453L19.0636 15.085C19.0659 15.0852 19.0681 15.0857 19.0704 15.086C19.1138 15.0903 19.1566 15.0984 19.1984 15.1104C19.2094 15.1135 19.2198 15.1184 19.2306 15.1221C19.2623 15.1328 19.2933 15.1451 19.3234 15.1602C19.3337 15.1654 19.3436 15.1711 19.3536 15.1768C19.3847 15.1943 19.4141 15.2142 19.4425 15.2364C19.4484 15.2409 19.4544 15.2453 19.4601 15.25C19.4957 15.2796 19.5297 15.3118 19.5597 15.3487L23.4689 20.1465C23.6457 20.3635 23.6817 20.6632 23.5616 20.916C23.4415 21.1685 23.1869 21.3299 22.9073 21.3301H18.9972C18.5969 21.33 18.2727 21.0048 18.2726 20.6045V16.4678L16.9757 16.3506C17.3273 16.8744 17.5332 17.5044 17.5333 18.1826C17.5333 19.9446 16.1494 21.3836 14.4093 21.4717L14.2404 21.4766C12.93 21.4766 11.8 20.7106 11.2697 19.6026H8.73938C8.49197 20.5993 7.64097 21.3577 6.59583 21.4639L6.3429 21.4766C5.06396 21.4765 4.01158 20.5043 3.88489 19.2588L3.87219 19.0059C3.87219 18.4948 4.02919 18.021 4.29504 17.627C4.26903 17.5934 4.24412 17.5576 4.22375 17.5186L2.64075 14.4785L1.81946 14.336C1.42553 14.267 1.16121 13.8922 1.22961 13.4981C1.29841 13.1039 1.67422 12.8398 2.06848 12.9082L3.24231 13.1123C3.43675 13.1463 3.6083 13.2577 3.7179 13.419L3.76086 13.4912L5.43469 16.7071C5.64092 16.6255 5.86089 16.5712 6.08997 16.5479L6.3429 16.5352C7.40686 16.5352 8.31048 17.2092 8.65833 18.1524H10.9474C10.964 16.3478 12.4319 14.8897 14.2404 14.8897C14.8885 14.8897 15.4926 15.078 16.0021 15.4014L16.9357 8.78909H1.09387C0.693605 8.78909 0.368512 8.46469 0.368286 8.06448C0.368286 7.66407 0.693466 7.33987 1.09387 7.33987H17.7579ZM6.3429 17.9854C5.77934 17.9855 5.32239 18.4423 5.32239 19.0059C5.32244 19.5694 5.77936 20.0263 6.3429 20.0264C6.90651 20.0264 7.36335 19.5695 7.3634 19.0059C7.3634 18.4422 6.90654 17.9854 6.3429 17.9854ZM14.2404 16.3399C13.2226 16.3399 12.397 17.1649 12.3966 18.1826C12.3966 19.2006 13.2224 20.0264 14.2404 20.0264C15.2582 20.0262 16.0831 19.2005 16.0831 18.1826C16.0828 17.1651 15.258 16.3401 14.2404 16.3399ZM19.7218 19.8799H21.381L19.7218 17.8438V19.8799Z" fill="currentColor"/>
<path d="M8.87805 10.2305C9.27829 10.2307 9.60266 10.5548 9.60266 10.9551C9.60266 11.3554 9.27829 11.6795 8.87805 11.6797H1.49622C1.09581 11.6797 0.77063 11.3555 0.77063 10.9551C0.770635 10.5547 1.09581 10.2305 1.49622 10.2305H8.87805Z" fill="currentColor"/>
<path d="M12.255 2.54104C12.5017 2.48631 12.769 2.55967 12.9503 2.76077L14.8448 4.86135C15.1128 5.15861 15.0891 5.61665 14.7921 5.88479C14.4947 6.15258 14.0357 6.12932 13.7677 5.83206L12.1075 3.99026H7.64758L5.98743 5.83206C5.7193 6.12921 5.26032 6.15278 4.96301 5.88479C4.66608 5.61672 4.64257 5.15862 4.91028 4.86135L6.80481 2.76077C6.98605 2.55977 7.25355 2.48651 7.50012 2.54104H12.255Z" fill="currentColor"/>
</svg>
