<svg width="24" height="24" viewBox="0 0 24 24" fill="none" xmlns="http://www.w3.org/2000/svg">
<path fill-rule="evenodd" clip-rule="evenodd" d="M12 3.75C10.0772 3.75 8.23311 4.51384 6.87348 5.87348C5.51384 7.23311 4.75 9.07718 4.75 11V11.5505C5.13355 11.3548 5.56137 11.25 6 11.25H7C7.72935 11.25 8.42882 11.5397 8.94454 12.0555C9.46027 12.5712 9.75 13.2707 9.75 14V17C9.75 17.7293 9.46027 18.4288 8.94454 18.9445C8.42882 19.4603 7.72935 19.75 7 19.75H6C5.27065 19.75 4.57118 19.4603 4.05546 18.9445C3.53973 18.4288 3.25 17.7293 3.25 17V11C3.25 8.67936 4.17187 6.45376 5.81282 4.81282C7.45376 3.17187 9.67936 2.25 12 2.25C14.3206 2.25 16.5462 3.17187 18.1872 4.81282C19.8281 6.45376 20.75 8.67936 20.75 11V17C20.75 17.7293 20.4603 18.4288 19.9445 18.9445C19.5853 19.3038 19.1368 19.5534 18.6512 19.6718C18.3706 20.6038 17.5272 21.3177 16.5782 21.7922C15.3678 22.3974 13.7482 22.75 12 22.75C11.5858 22.75 11.25 22.4142 11.25 22C11.25 21.5858 11.5858 21.25 12 21.25C13.5658 21.25 14.9462 20.9311 15.9073 20.4506C16.3673 20.2206 16.6873 19.9795 16.8992 19.7482C16.2065 19.7228 15.5474 19.4365 15.0555 18.9445C14.5397 18.4288 14.25 17.7293 14.25 17V14C14.25 13.2707 14.5397 12.5712 15.0555 12.0555C15.5712 11.5397 16.2707 11.25 17 11.25H18C18.4386 11.25 18.8665 11.3548 19.25 11.5505V11C19.25 9.07718 18.4862 7.23311 17.1265 5.87348C15.7669 4.51384 13.9228 3.75 12 3.75ZM19.25 14C19.25 13.6685 19.1183 13.3505 18.8839 13.1161C18.6495 12.8817 18.3315 12.75 18 12.75H17C16.6685 12.75 16.3505 12.8817 16.1161 13.1161C15.8817 13.3505 15.75 13.6685 15.75 14V17C15.75 17.3315 15.8817 17.6495 16.1161 17.8839C16.3505 18.1183 16.6685 18.25 17 18.25H18C18.3315 18.25 18.6495 18.1183 18.8839 17.8839C19.1183 17.6495 19.25 17.3315 19.25 17V14ZM4.75 14V17C4.75 17.3315 4.8817 17.6495 5.11612 17.8839C5.35054 18.1183 5.66848 18.25 6 18.25H7C7.33152 18.25 7.64946 18.1183 7.88388 17.8839C8.1183 17.6495 8.25 17.3315 8.25 17V14C8.25 13.6685 8.1183 13.3505 7.88388 13.1161C7.64946 12.8817 7.33152 12.75 7 12.75H6C5.66848 12.75 5.35054 12.8817 5.11612 13.1161C4.8817 13.3505 4.75 13.6685 4.75 14Z" fill="currentColor"/>
</svg>
