<svg width="24" height="24" viewBox="0 0 24 24" fill="none" xmlns="http://www.w3.org/2000/svg">
<path d="M3 3L21 21M4 15C4 14.4696 4.21071 13.9609 4.58579 13.5858C4.96086 13.2107 5.46957 13 6 13H7C7.53043 13 8.03914 13.2107 8.41421 13.5858C8.78929 13.9609 9 14.4696 9 15V18C9 18.5304 8.78929 19.0391 8.41421 19.4142C8.03914 19.7893 7.53043 20 7 20H6C5.46957 20 4.96086 19.7893 4.58579 19.4142C4.21071 19.0391 4 18.5304 4 18V15ZM4 15V12C4 9.79003 4.896 7.79003 6.344 6.34203M17 13H18C18.5304 13 19.0391 13.2107 19.4142 13.5858C19.7893 13.9609 20 14.4696 20 15M20 15V16M20 15V12C20.0004 10.6634 19.6659 9.34801 19.0271 8.17395C18.3883 6.99989 17.4654 6.0046 16.3429 5.279C15.2204 4.5534 13.934 4.12062 12.6012 4.02018C11.2683 3.91974 9.93158 4.15485 8.713 4.70403M19.411 19.417C19.05 19.777 18.551 20 18 20H17C16.4696 20 15.9609 19.7893 15.5858 19.4142C15.2107 19.0391 15 18.5304 15 18V15" stroke="currentColor" stroke-width="1.5" stroke-linecap="round" stroke-linejoin="round"/>
</svg>
