<svg width="24" height="24" viewBox="0 0 24 24" fill="none" xmlns="http://www.w3.org/2000/svg">
<path d="M4 14.0001V11.0001C4 9.04711 4.7 7.25811 5.862 5.87011M4 14.0001C4 13.4697 4.21071 12.961 4.58579 12.5859C4.96086 12.2108 5.46957 12.0001 6 12.0001H7C7.53043 12.0001 8.03914 12.2108 8.41421 12.5859C8.78929 12.961 9 13.4697 9 14.0001V17.0001C9 17.5306 8.78929 18.0393 8.41421 18.4143C8.03914 18.7894 7.53043 19.0001 7 19.0001H6C5.46957 19.0001 4.96086 18.7894 4.58579 18.4143C4.21071 18.0393 4 17.5306 4 17.0001V14.0001ZM8.044 4.04511C9.26096 3.35275 10.6383 2.9919 12.0384 2.99863C13.4385 3.00535 14.8124 3.37942 16.0226 4.08344C17.2329 4.78747 18.2372 5.79679 18.9351 7.01055C19.6331 8.2243 20.0003 9.59999 20 11.0001V14.0001M20 14.0001C20 13.4697 19.7893 12.961 19.4142 12.5859C19.0391 12.2108 18.5304 12.0001 18 12.0001H17C16.703 12.0001 16.422 12.0651 16.169 12.1801M20 14.0001V16.0001M18 19.0001C18 20.6571 15.314 22.0001 12 22.0001M18 19.0001C18.291 19.0001 18.567 18.9381 18.817 18.8261M18 19.0001H17C16.4696 19.0001 15.9609 18.7894 15.5858 18.4143C15.2107 18.0393 15 17.5306 15 17.0001V15.0001M3 3.00012L21 21.0001" stroke="currentColor" stroke-width="1.5" stroke-linecap="round" stroke-linejoin="round"/>
</svg>
