<svg width="24" height="24" viewBox="0 0 24 24" fill="none" xmlns="http://www.w3.org/2000/svg">
<path d="M21 18C21 18.7652 20.7077 19.5015 20.1827 20.0583C19.6578 20.615 18.9399 20.9501 18.176 20.995L18 21H17C16.2348 21.0001 15.4985 20.7077 14.9417 20.1827C14.385 19.6578 14.0499 18.9399 14.005 18.176L14 18V15C14 14.2348 14.2923 13.4985 14.8173 12.9418C15.3422 12.385 16.0601 12.0499 16.824 12.005L17 12H18C18.351 12 18.688 12.06 19 12.171V12C19.0009 10.1637 18.2802 8.40056 16.9932 7.09069C15.7062 5.78082 13.9561 5.02912 12.12 4.99763C10.284 4.96615 8.50907 5.6574 7.17794 6.92238C5.84681 8.18736 5.06606 9.92475 5.004 11.76L5 12V12.17C5.25 12.082 5.516 12.026 5.791 12.007L6 12H7C7.76521 12 8.50151 12.2923 9.05826 12.8173C9.61501 13.3423 9.95011 14.0601 9.995 14.824L10 15V18C10 18.7652 9.70767 19.5015 9.18272 20.0583C8.65776 20.615 7.93989 20.9501 7.176 20.995L7 21H6C5.23479 21.0001 4.49849 20.7077 3.94174 20.1827C3.38499 19.6578 3.04989 18.9399 3.005 18.176L3 18V12C3.00086 9.63659 3.93135 7.36835 5.59051 5.68519C7.24966 4.00204 9.50431 3.03907 11.8675 3.00427C14.2307 2.96947 16.5127 3.86564 18.2207 5.49921C19.9287 7.13278 20.9256 9.37264 20.996 11.735L21 12V18Z" fill="currentColor"/>
</svg>
