<svg width="24" height="24" viewBox="0 0 24 24" fill="none" xmlns="http://www.w3.org/2000/svg">
<path d="M4 8V6C4 5.46957 4.21071 4.96086 4.58579 4.58579C4.96086 4.21071 5.46957 4 6 4H8M4 16V18C4 18.5304 4.21071 19.0391 4.58579 19.4142C4.96086 19.7893 5.46957 20 6 20H8M16 4H18C18.5304 4 19.0391 4.21071 19.4142 4.58579C19.7893 4.96086 20 5.46957 20 6V8M16 20H18C18.5304 20 19.0391 19.7893 19.4142 19.4142C19.7893 19.0391 20 18.5304 20 18V16M8.60299 9.61003C8.7929 9.41652 9.01947 9.26281 9.26946 9.15788C9.51946 9.05295 9.78787 8.9989 10.059 8.9989C10.3301 8.9989 10.5985 9.05295 10.8485 9.15788C11.0985 9.26281 11.3251 9.41652 11.515 9.61003L12 10L12.5 9.60403C12.6898 9.41265 12.9157 9.26087 13.1646 9.1575C13.4135 9.05413 13.6804 9.00124 13.95 9.00189C14.2195 9.00254 14.4862 9.05673 14.7346 9.16129C14.983 9.26586 15.2082 9.41873 15.397 9.61103C15.7835 10.0045 16.0001 10.534 16.0001 11.0855C16.0001 11.6371 15.7835 12.1666 15.397 12.56L12 16L8.60299 12.56C8.21616 12.1665 7.99939 11.6368 7.99939 11.085C7.99939 10.5332 8.21616 10.0035 8.60299 9.61003Z" stroke="currentColor" stroke-width="1.5" stroke-linecap="round" stroke-linejoin="round"/>
</svg>
