<svg width="24" height="24" viewBox="0 0 24 24" fill="none" xmlns="http://www.w3.org/2000/svg">
<path d="M11.9998 20.0002L4.49981 12.5722C4.00512 12.0908 3.61546 11.5122 3.35536 10.8728C3.09527 10.2334 2.97037 9.54713 2.98855 8.85711C3.00673 8.16709 3.16758 7.48831 3.46097 6.86351C3.75436 6.23871 4.17395 5.68143 4.6933 5.22676C5.21265 4.77208 5.82052 4.42987 6.47862 4.22166C7.13673 4.01345 7.83082 3.94376 8.51718 4.01698C9.20354 4.0902 9.86731 4.30473 10.4667 4.64708C11.0661 4.98943 11.5881 5.45218 11.9998 6.00618C12.3999 5.47942 12.9005 5.03728 13.4726 4.70537C14.0448 4.37345 14.6771 4.15836 15.3329 4.07254C15.9888 3.98672 16.6551 4.03189 17.2934 4.20543C17.9317 4.37897 18.5292 4.67743 19.0513 5.08352C19.5734 5.48961 20.0098 5.99526 20.3351 6.57118C20.6604 7.1471 20.8682 7.78185 20.9465 8.43865C21.0248 9.09545 20.9719 9.76126 20.7911 10.3975C20.6102 11.0337 20.3049 11.6278 19.8928 12.1452M19 22.0001V16.0001M19 16.0001L22 19.0001M19 16.0001L16 19.0001" stroke="currentColor" stroke-width="1.5" stroke-linecap="round" stroke-linejoin="round"/>
</svg>
