<svg width="24" height="24" viewBox="0 0 24 24" fill="none" xmlns="http://www.w3.org/2000/svg">
<path d="M11.9998 20.0002L4.49981 12.5722C4.00512 12.0908 3.61546 11.5122 3.35536 10.8728C3.09527 10.2334 2.97037 9.54713 2.98855 8.85711C3.00673 8.16709 3.16758 7.48831 3.46097 6.86351C3.75436 6.23871 4.17395 5.68143 4.6933 5.22676C5.21265 4.77208 5.82052 4.42987 6.47862 4.22166C7.13673 4.01345 7.83082 3.94376 8.51718 4.01698C9.20354 4.0902 9.86731 4.30473 10.4667 4.64708C11.0661 4.98943 11.5881 5.45218 11.9998 6.00618C12.8025 4.95061 13.9916 4.25715 15.3056 4.07833C16.6196 3.89952 17.9508 4.25 19.0063 5.05268C20.0619 5.85535 20.7553 7.04448 20.9342 8.35845C21.113 9.67242 20.7625 11.0036 19.9598 12.0592M15.9998 19.0002H21.9998M18.9998 16.0002V22.0002" stroke="currentColor" stroke-width="1.5" stroke-linecap="round" stroke-linejoin="round"/>
</svg>
