<svg width="24" height="24" viewBox="0 0 24 24" fill="none" xmlns="http://www.w3.org/2000/svg">
<path d="M11.9998 20.0002L4.49981 12.5722C4.00512 12.0908 3.61546 11.5122 3.35536 10.8728C3.09527 10.2334 2.97037 9.54713 2.98855 8.85711C3.00673 8.16709 3.16758 7.48831 3.46097 6.86351C3.75436 6.23871 4.17395 5.68143 4.6933 5.22676C5.21265 4.77208 5.82052 4.42987 6.47862 4.22166C7.13673 4.01345 7.83082 3.94376 8.51718 4.01698C9.20354 4.0902 9.86731 4.30473 10.4667 4.64708C11.0661 4.98943 11.5881 5.45218 11.9998 6.00618C12.7456 5.01217 13.8349 4.33152 15.0552 4.09691C16.2756 3.8623 17.5396 4.09054 18.6008 4.73714C19.662 5.38374 20.4444 6.40236 20.7955 7.59443C21.1466 8.7865 21.0412 10.0666 20.4998 11.1852M19 18.0001V18.0101M21.121 20.1212C21.5406 19.7016 21.8265 19.1671 21.9423 18.5851C22.0581 18.0031 21.9988 17.3999 21.7717 16.8517C21.5447 16.3034 21.1602 15.8349 20.6668 15.5052C20.1734 15.1755 19.5934 14.9995 19 14.9995C18.4066 14.9995 17.8266 15.1755 17.3332 15.5052C16.8398 15.8349 16.4553 16.3034 16.2283 16.8517C16.0012 17.3999 15.9419 18.0031 16.0577 18.5851C16.1735 19.1671 16.4594 19.7016 16.879 20.1212C17.297 20.5402 18.004 21.1662 19 22.0002C20.051 21.1102 20.759 20.4842 21.121 20.1212Z" stroke="currentColor" stroke-width="1.5" stroke-linecap="round" stroke-linejoin="round"/>
</svg>
