<svg width="24" height="24" viewBox="0 0 24 24" fill="none" xmlns="http://www.w3.org/2000/svg">
<path d="M9.72981 17.7529L4.49981 12.5719C4.00512 12.0905 3.61546 11.5119 3.35536 10.8726C3.09527 10.2332 2.97037 9.54688 2.98855 8.85687C3.00673 8.16685 3.16758 7.48807 3.46097 6.86327C3.75436 6.23847 4.17395 5.68119 4.6933 5.22651C5.21265 4.77184 5.82052 4.42962 6.47862 4.22141C7.13673 4.01321 7.83082 3.94352 8.51718 4.01673C9.20354 4.08995 9.86731 4.30449 10.4667 4.64684C11.0661 4.98919 11.5881 5.45193 11.9998 6.00593C12.7383 5.0238 13.8125 4.34798 15.0175 4.10746C16.2225 3.86694 17.4739 4.07856 18.5328 4.70193C19.5917 5.32531 20.384 6.31678 20.7584 7.48711C21.1328 8.65744 21.0632 9.92467 20.5628 11.0469M17.8002 20.8169L15.6282 21.9549C15.5638 21.9885 15.4913 22.0035 15.4188 21.9982C15.3463 21.9929 15.2767 21.9676 15.2178 21.9251C15.1589 21.8825 15.113 21.8245 15.0851 21.7573C15.0573 21.6902 15.0487 21.6167 15.0602 21.5449L15.4752 19.1339L13.7182 17.4269C13.6658 17.3762 13.6287 17.3118 13.6111 17.241C13.5935 17.1702 13.5962 17.0959 13.6188 17.0266C13.6414 16.9572 13.6831 16.8957 13.7391 16.8489C13.795 16.8021 13.863 16.772 13.9352 16.7619L16.3632 16.4099L17.4492 14.2169C17.4817 14.1516 17.5318 14.0967 17.5938 14.0583C17.6558 14.0198 17.7273 13.9995 17.8002 13.9995C17.8732 13.9995 17.9447 14.0198 18.0067 14.0583C18.0687 14.0967 18.1188 14.1516 18.1512 14.2169L19.2372 16.4099L21.6652 16.7619C21.7373 16.7723 21.805 16.8026 21.8607 16.8495C21.9164 16.8963 21.9579 16.9578 21.9805 17.027C22.003 17.0962 22.0058 17.1703 21.9885 17.241C21.9711 17.3117 21.9343 17.3761 21.8822 17.4269L20.1252 19.1339L20.5392 21.5439C20.5517 21.6158 20.5437 21.6897 20.5162 21.7573C20.4887 21.8248 20.4429 21.8834 20.3838 21.9262C20.3248 21.969 20.2549 21.9943 20.1822 21.9994C20.1094 22.0045 20.0367 21.9891 19.9722 21.9549L17.8002 20.8169Z" stroke="currentColor" stroke-width="1.5" stroke-linecap="round" stroke-linejoin="round"/>
</svg>
