<svg width="24" height="24" viewBox="0 0 24 24" fill="none" xmlns="http://www.w3.org/2000/svg">
<path d="M11.9998 20.0002L4.49981 12.5722C4.00512 12.0908 3.61546 11.5122 3.35536 10.8728C3.09527 10.2334 2.97037 9.54713 2.98855 8.85711C3.00673 8.16709 3.16758 7.48831 3.46097 6.86351C3.75436 6.23871 4.17395 5.68143 4.6933 5.22676C5.21265 4.77208 5.82052 4.42987 6.47862 4.22166C7.13673 4.01345 7.83082 3.94376 8.51718 4.01698C9.20354 4.0902 9.86731 4.30473 10.4667 4.64708C11.0661 4.98943 11.5881 5.45218 11.9998 6.00618C12.3974 5.47533 12.8967 5.02889 13.4685 4.69288C14.0404 4.35686 14.6734 4.13797 15.3306 4.04895C15.9879 3.95994 16.6563 4.00258 17.2969 4.1744C17.9375 4.34621 18.5375 4.64376 19.062 5.04973C19.5865 5.45569 20.025 5.96195 20.352 6.53902C20.6789 7.1161 20.8878 7.75246 20.9664 8.41103C21.045 9.06961 20.9918 9.73725 20.8099 10.3751C20.628 11.0129 20.321 11.6082 19.9068 12.1262M19 16.0001V22.0001M19 22.0001L22 19.0001M19 22.0001L16 19.0001" stroke="currentColor" stroke-width="1.5" stroke-linecap="round" stroke-linejoin="round"/>
</svg>
