<svg width="24" height="24" viewBox="0 0 24 24" fill="none" xmlns="http://www.w3.org/2000/svg">
<path d="M12.9998 19.0002L11.9998 20.0002L4.49981 12.5722C4.00512 12.0908 3.61546 11.5122 3.35536 10.8728C3.09527 10.2334 2.97037 9.54713 2.98855 8.85711C3.00673 8.16709 3.16758 7.48831 3.46097 6.86351C3.75436 6.23871 4.17395 5.68143 4.6933 5.22676C5.21265 4.77208 5.82052 4.42987 6.47862 4.22166C7.13673 4.01345 7.83082 3.94376 8.51718 4.01698C9.20354 4.0902 9.86731 4.30473 10.4667 4.64708C11.0661 4.98943 11.5881 5.45218 11.9998 6.00618C12.7052 5.06771 13.7184 4.40742 14.8618 4.14097C16.0052 3.87453 17.2059 4.01893 18.2535 4.54888C19.3011 5.07883 20.1289 5.96053 20.5917 7.03949C21.0545 8.11845 21.1229 9.32586 20.7848 10.4502M21 15.0001H18.5C18.1022 15.0001 17.7206 15.1582 17.4393 15.4395C17.158 15.7208 17 16.1023 17 16.5001C17 16.8979 17.158 17.2795 17.4393 17.5608C17.7206 17.8421 18.1022 18.0001 18.5 18.0001H19.5C19.8978 18.0001 20.2794 18.1582 20.5607 18.4395C20.842 18.7208 21 19.1023 21 19.5001C21 19.8979 20.842 20.2795 20.5607 20.5608C20.2794 20.8421 19.8978 21.0001 19.5 21.0001H17M19 21.0001V22.0001M19 14.0001V15.0001" stroke="currentColor" stroke-width="1.5" stroke-linecap="round" stroke-linejoin="round"/>
</svg>
