<svg width="24" height="24" viewBox="0 0 24 24" fill="none" xmlns="http://www.w3.org/2000/svg">
<path d="M19.5 12.572L18.964 13.102M11.054 19.062L4.50004 12.573C4.00596 12.0915 3.61688 11.5129 3.35726 10.8737C3.09765 10.2345 2.97312 9.54849 2.99152 8.85883C3.00993 8.16917 3.17085 7.49078 3.46418 6.86633C3.75751 6.24189 4.17689 5.68491 4.69595 5.23042C5.215 4.77594 5.82249 4.43379 6.48021 4.2255C7.13792 4.01721 7.83162 3.94729 8.51767 4.02014C9.20372 4.09298 9.86728 4.30701 10.4666 4.64877C11.0659 4.99053 11.588 5.45262 12 6.00597C12.4136 5.45599 12.9362 4.99729 13.5351 4.65857C14.1341 4.31985 14.7965 4.10841 15.481 4.03749C16.1654 3.96656 16.8571 4.03766 17.5128 4.24636C18.1685 4.45505 18.7741 4.79684 19.2916 5.25033C19.8091 5.70382 20.2275 6.25925 20.5205 6.88186C20.8135 7.50447 20.9748 8.18085 20.9944 8.86867C21.0139 9.5565 20.8913 10.241 20.6342 10.8792C20.3771 11.5175 19.991 12.0958 19.5 12.578M20 21L22 19L20 17M17 17L15 19L17 21" stroke="currentColor" stroke-width="1.5" stroke-linecap="round" stroke-linejoin="round"/>
</svg>
