<svg width="24" height="24" viewBox="0 0 24 24" fill="none" xmlns="http://www.w3.org/2000/svg">
<path d="M19.4998 12.5719L16.4998 15.4999M10.9998 18.9999C8.83424 16.8562 6.66758 14.7135 4.49981 12.5719C4.00512 12.0905 3.61546 11.5119 3.35536 10.8726C3.09527 10.2332 2.97037 9.54688 2.98855 8.85687C3.00673 8.16685 3.16758 7.48807 3.46097 6.86327C3.75436 6.23847 4.17395 5.68119 4.6933 5.22651C5.21265 4.77184 5.82052 4.42962 6.47862 4.22141C7.13673 4.01321 7.83082 3.94352 8.51718 4.01673C9.20354 4.08995 9.86731 4.30449 10.4667 4.64684C11.0661 4.98919 11.5881 5.45193 11.9998 6.00593C12.4133 5.45595 12.9359 4.99725 13.5349 4.65854C14.1339 4.31982 14.7963 4.10838 15.4807 4.03745C16.1652 3.96652 16.8569 4.03763 17.5126 4.24632C18.1683 4.45502 18.7738 4.79681 19.2914 5.2503C19.8089 5.70379 20.2272 6.25922 20.5202 6.88182C20.8132 7.50443 20.9746 8.18082 20.9941 8.86864C21.0137 9.55647 20.8911 10.2409 20.6339 10.8792C20.3768 11.5174 19.9907 12.0958 19.4998 12.5779M15 18.9999L17 20.9999L21 16.9999" stroke="currentColor" stroke-width="1.5" stroke-linecap="round" stroke-linejoin="round"/>
</svg>
