<svg width="24" height="24" viewBox="0 0 24 24" fill="none" xmlns="http://www.w3.org/2000/svg">
<path d="M19.4995 13.572L11.9995 21L9.10349 18.132M2.98649 10.028C2.97813 8.97338 3.30348 7.94311 3.916 7.08453C4.52853 6.22596 5.39687 5.58306 6.39683 5.24778C7.39679 4.9125 8.47717 4.90201 9.48345 5.2178C10.4897 5.5336 11.3704 6.15951 11.9995 7.00603C12.413 6.45605 12.9356 5.99735 13.5346 5.65863C14.1335 5.31992 14.796 5.10848 15.4804 5.03755C16.1649 4.96662 16.8566 5.03773 17.5123 5.24642C18.168 5.45511 18.7735 5.7969 19.291 6.25039C19.8086 6.70388 20.2269 7.25931 20.5199 7.88192C20.8129 8.50453 20.9742 9.18091 20.9938 9.86874C21.0134 10.5566 20.8907 11.241 20.6336 11.8793C20.3765 12.5175 19.9904 13.0958 19.4995 13.578M2.99951 13H4.99951L6.99951 16L8.99951 10L9.99951 13H12.9995" stroke="currentColor" stroke-width="1.5" stroke-linecap="round" stroke-linejoin="round"/>
</svg>
