<svg width="24" height="24" viewBox="0 0 24 24" fill="none" xmlns="http://www.w3.org/2000/svg">
<path d="M3 3L21 21M18.0002 14L19.5002 12.572C19.9911 12.0898 20.3772 11.5115 20.6343 10.8733C20.8914 10.235 21.0141 9.55053 20.9945 8.86271C20.9749 8.17488 20.8136 7.4985 20.5206 6.87589C20.2276 6.25328 19.8093 5.69785 19.2917 5.24436C18.7742 4.79087 18.1687 4.44909 17.513 4.24039C16.8573 4.0317 16.1656 3.96059 15.4811 4.03152C14.7967 4.10245 14.1343 4.31389 13.5353 4.65261C12.9363 4.99132 12.4137 5.45002 12.0002 6C11.0502 4.727 9.56019 4 8.00019 4M16.0002 16L12.0002 20L4.50019 12.572C3.83867 11.9284 3.3682 11.1143 3.14087 10.2198C2.91353 9.3253 2.93822 8.38533 3.21219 7.504C3.52869 6.5014 4.15462 5.62482 5.00019 5" stroke="currentColor" stroke-width="1.5" stroke-linecap="round" stroke-linejoin="round"/>
</svg>
