<svg width="24" height="24" viewBox="0 0 24 24" fill="none" xmlns="http://www.w3.org/2000/svg">
<path d="M14.0168 18.0002L11.9998 20.0002L4.49981 12.5722C4.00512 12.0908 3.61546 11.5122 3.35536 10.8728C3.09527 10.2334 2.97037 9.54713 2.98855 8.85711C3.00673 8.16709 3.16758 7.48831 3.46097 6.86351C3.75436 6.23871 4.17395 5.68143 4.6933 5.22676C5.21265 4.77208 5.82052 4.42987 6.47862 4.22166C7.13673 4.01345 7.83082 3.94376 8.51718 4.01698C9.20354 4.0902 9.86731 4.30473 10.4667 4.64708C11.0661 4.98943 11.5881 5.45218 11.9998 6.00618C12.7821 4.96471 13.9399 4.26962 15.2269 4.06883C16.5138 3.86803 17.8284 4.17739 18.8907 4.93105C19.9531 5.68472 20.6794 6.8232 20.9151 8.10424C21.1508 9.38527 20.8773 10.7077 20.1528 11.7902M15.9898 20.0001L20.1868 15.7771C20.7059 15.2512 20.9969 14.542 20.9969 13.8031C20.9969 13.0642 20.7059 12.355 20.1868 11.8291C19.9317 11.5698 19.6277 11.3637 19.2923 11.2228C18.957 11.0819 18.597 11.009 18.2333 11.0084C17.8695 11.0077 17.5093 11.0793 17.1734 11.219C16.8375 11.3587 16.5328 11.5637 16.2768 11.8221L15.9968 12.1041L15.7178 11.8211C15.4627 11.5618 15.1587 11.3557 14.8233 11.2148C14.488 11.0739 14.128 11.001 13.7643 11.0004C13.4005 10.9997 13.0403 11.0713 12.7044 11.211C12.3686 11.3507 12.0638 11.5557 11.8078 11.8141C11.2878 12.3391 10.9955 13.0477 10.9941 13.7867C10.9928 14.5256 11.2826 15.2353 11.8008 15.7621L15.9828 20.0001H15.9898Z" stroke="currentColor" stroke-width="1.5" stroke-linecap="round" stroke-linejoin="round"/>
</svg>
