<svg width="24" height="24" viewBox="0 0 24 24" fill="none" xmlns="http://www.w3.org/2000/svg">
<path d="M14.1048 17.9149L11.9998 19.9999L4.49981 12.5719C4.00512 12.0905 3.61546 11.5119 3.35536 10.8726C3.09527 10.2332 2.97037 9.54688 2.98855 8.85687C3.00673 8.16685 3.16758 7.48807 3.46097 6.86327C3.75436 6.23847 4.17395 5.68119 4.6933 5.22651C5.21265 4.77184 5.82052 4.42962 6.47862 4.22141C7.13673 4.01321 7.83082 3.94352 8.51718 4.01673C9.20354 4.08995 9.86731 4.30449 10.4667 4.64684C11.0661 4.98919 11.5881 5.45193 11.9998 6.00593C12.743 5.01689 13.8265 4.33849 15.0408 4.10188C16.2551 3.86527 17.514 4.08726 18.5742 4.72492C19.6344 5.36258 20.4205 6.37064 20.7806 7.55423C21.1407 8.73781 21.0492 10.0129 20.5238 11.1329M19 22V22.01M19 19C19.4483 18.9986 19.8832 18.8468 20.235 18.569C20.5868 18.2911 20.8352 17.9033 20.9406 17.4675C21.0459 17.0318 21.0019 16.5733 20.8158 16.1655C20.6297 15.7576 20.3122 15.424 19.914 15.218C19.5162 15.0142 19.0611 14.951 18.6228 15.0387C18.1845 15.1264 17.7888 15.3598 17.5 15.701" stroke="currentColor" stroke-width="1.5" stroke-linecap="round" stroke-linejoin="round"/>
</svg>
