<svg width="24" height="24" viewBox="0 0 24 24" fill="none" xmlns="http://www.w3.org/2000/svg">
<path d="M11.9998 19.9999L4.49981 12.5719C4.00512 12.0905 3.61546 11.5119 3.35536 10.8726C3.09527 10.2332 2.97037 9.54688 2.98855 8.85687C3.00673 8.16685 3.16758 7.48807 3.46097 6.86327C3.75436 6.23847 4.17395 5.68119 4.6933 5.22651C5.21265 4.77184 5.82052 4.42962 6.47862 4.22141C7.13673 4.01321 7.83082 3.94352 8.51718 4.01673C9.20354 4.08995 9.86731 4.30449 10.4667 4.64684C11.0661 4.98919 11.5881 5.45193 11.9998 6.00593C12.7766 4.97143 13.9241 4.27826 15.2013 4.07209C16.4784 3.86592 17.7858 4.16278 18.8486 4.90031C19.9115 5.63783 20.6471 6.75861 20.9009 8.02714C21.1548 9.29568 20.907 10.6132 20.2098 11.7029M19.001 20.9999C18.4705 20.9999 17.9618 20.7892 17.5868 20.4142C17.2117 20.0391 17.001 19.5304 17.001 18.9999C17.001 18.4695 17.2117 17.9608 17.5868 17.5857C17.9618 17.2107 18.4705 16.9999 19.001 16.9999M19.001 20.9999C19.5314 20.9999 20.0401 20.7892 20.4152 20.4142C20.7903 20.0391 21.001 19.5304 21.001 18.9999C21.001 18.4695 20.7903 17.9608 20.4152 17.5857C20.0401 17.2107 19.5314 16.9999 19.001 16.9999M19.001 20.9999V22.4999M19.001 16.9999V15.4999M22.0319 17.2499L20.7329 17.9999M17.2702 19.9999L15.9702 20.7499M15.9702 17.2499L17.2702 17.9999M20.7329 19.9999L22.0329 20.7499" stroke="currentColor" stroke-width="1.5" stroke-linecap="round" stroke-linejoin="round"/>
</svg>
