<svg width="24" height="24" viewBox="0 0 24 24" fill="none" xmlns="http://www.w3.org/2000/svg">
<path d="M19.4998 12.5722L11.9998 20.0002L4.49981 12.5722C4.00512 12.0908 3.61546 11.5122 3.35536 10.8728C3.09527 10.2334 2.97037 9.54713 2.98855 8.85711C3.00673 8.16709 3.16758 7.48831 3.46097 6.86351C3.75436 6.23871 4.17395 5.68143 4.6933 5.22676C5.21265 4.77208 5.82052 4.42987 6.47862 4.22166C7.13673 4.01345 7.83082 3.94376 8.51718 4.01698C9.20354 4.0902 9.86731 4.30473 10.4667 4.64708C11.0661 4.98943 11.5881 5.45218 11.9998 6.00618C12.4133 5.4562 12.9359 4.9975 13.5349 4.65878C14.1339 4.32007 14.7963 4.10863 15.4807 4.0377C16.1652 3.96677 16.8569 4.03787 17.5126 4.24657C18.1683 4.45526 18.7738 4.79705 19.2914 5.25054C19.8089 5.70403 20.2272 6.25946 20.5202 6.88207C20.8132 7.50468 20.9746 8.18106 20.9941 8.86889C21.0137 9.55671 20.8911 10.2412 20.6339 10.8794C20.3768 11.5177 19.9907 12.096 19.4998 12.5782M11.9998 6.00012L8.70682 9.29312C8.51935 9.48065 8.41403 9.73496 8.41403 10.0001C8.41403 10.2653 8.51935 10.5196 8.70682 10.7071L9.24982 11.2501C9.93982 11.9401 11.0598 11.9401 11.7498 11.2501L12.7498 10.2501C13.3466 9.65339 14.1559 9.31815 14.9998 9.31815C15.8437 9.31815 16.6531 9.65339 17.2498 10.2501L19.4998 12.5001M12.4998 15.5001L14.4998 17.5001M14.9998 13.0001L16.9998 15.0001" stroke="currentColor" stroke-width="1.5" stroke-linecap="round" stroke-linejoin="round"/>
</svg>
