<svg width="24" height="24" viewBox="0 0 24 24" fill="none" xmlns="http://www.w3.org/2000/svg">
<path d="M15.0298 16.9999L11.9998 19.9999L4.49981 12.5719C4.00512 12.0905 3.61546 11.5119 3.35536 10.8726C3.09527 10.2332 2.97037 9.54688 2.98855 8.85687C3.00673 8.16685 3.16758 7.48807 3.46097 6.86327C3.75436 6.23847 4.17395 5.68119 4.6933 5.22651C5.21265 4.77184 5.82052 4.42962 6.47862 4.22141C7.13673 4.01321 7.83082 3.94352 8.51718 4.01673C9.20354 4.08995 9.86731 4.30449 10.4667 4.64684C11.0661 4.98919 11.5881 5.45193 11.9998 6.00593C12.3982 5.47939 12.8969 5.03695 13.4671 4.70416C14.0374 4.37138 14.6679 4.15483 15.3223 4.06702C15.9767 3.97921 16.642 4.02187 17.2798 4.19255C17.9176 4.36323 18.5153 4.65855 19.0384 5.06145C19.5614 5.46435 19.9995 5.96687 20.3274 6.53999C20.6552 7.1131 20.8663 7.74548 20.9484 8.4006C21.0306 9.05573 20.9821 9.72064 20.8059 10.3569C20.6297 10.9933 20.3292 11.5884 19.9218 12.1079M19 16V19M19 22V22.01" stroke="currentColor" stroke-width="1.5" stroke-linecap="round" stroke-linejoin="round"/>
</svg>
