<svg width="24" height="24" viewBox="0 0 24 24" fill="none" xmlns="http://www.w3.org/2000/svg">
<path d="M11.9998 19.9999L4.49981 12.5719C4.00512 12.0905 3.61546 11.5119 3.35536 10.8726C3.09527 10.2332 2.97037 9.54688 2.98855 8.85687C3.00673 8.16685 3.16758 7.48807 3.46097 6.86327C3.75436 6.23847 4.17395 5.68119 4.6933 5.22651C5.21265 4.77184 5.82052 4.42962 6.47862 4.22141C7.13673 4.01321 7.83082 3.94352 8.51718 4.01673C9.20354 4.08995 9.86731 4.30449 10.4667 4.64684C11.0661 4.98919 11.5881 5.45193 11.9998 6.00593C12.7607 4.99391 13.8771 4.30822 15.1238 4.08727C16.3705 3.86632 17.6546 4.12657 18.7169 4.81547C19.7792 5.50438 20.5406 6.57064 20.8473 7.79903C21.1541 9.02743 20.9835 10.3265 20.3698 11.4339M20.2002 20.2L22.0002 22M15 18C15 18.7956 15.3161 19.5587 15.8787 20.1213C16.4413 20.6839 17.2044 21 18 21C18.7956 21 19.5587 20.6839 20.1213 20.1213C20.6839 19.5587 21 18.7956 21 18C21 17.2044 20.6839 16.4413 20.1213 15.8787C19.5587 15.3161 18.7956 15 18 15C17.2044 15 16.4413 15.3161 15.8787 15.8787C15.3161 16.4413 15 17.2044 15 18Z" stroke="currentColor" stroke-width="1.5" stroke-linecap="round" stroke-linejoin="round"/>
</svg>
