<svg width="24" height="24" viewBox="0 0 24 24" fill="none" xmlns="http://www.w3.org/2000/svg">
<path d="M11.9998 20.0002L4.49981 12.5722C4.00512 12.0908 3.61546 11.5122 3.35536 10.8728C3.09527 10.2334 2.97037 9.54713 2.98855 8.85711C3.00673 8.16709 3.16758 7.48831 3.46097 6.86351C3.75436 6.23871 4.17395 5.68143 4.6933 5.22676C5.21265 4.77208 5.82052 4.42987 6.47862 4.22166C7.13673 4.01345 7.83082 3.94376 8.51718 4.01698C9.20354 4.0902 9.86731 4.30473 10.4667 4.64708C11.0661 4.98943 11.5881 5.45218 11.9998 6.00618C12.7968 4.94624 13.9822 4.24631 15.2952 4.06037C16.6083 3.87443 17.9414 4.2177 19.0013 5.01468C20.0612 5.81165 20.7612 6.99704 20.9471 8.31008C21.1331 9.62312 20.7898 10.9562 19.9928 12.0162M17 21.0001L21 17.0001M16 19.0001C16 19.7958 16.3161 20.5588 16.8787 21.1214C17.4413 21.6841 18.2044 22.0001 19 22.0001C19.7956 22.0001 20.5587 21.6841 21.1213 21.1214C21.6839 20.5588 22 19.7958 22 19.0001C22 18.2045 21.6839 17.4414 21.1213 16.8788C20.5587 16.3162 19.7956 16.0001 19 16.0001C18.2044 16.0001 17.4413 16.3162 16.8787 16.8788C16.3161 17.4414 16 18.2045 16 19.0001Z" stroke="currentColor" stroke-width="1.5" stroke-linecap="round" stroke-linejoin="round"/>
</svg>
