<svg width="24" height="24" viewBox="0 0 24 24" fill="none" xmlns="http://www.w3.org/2000/svg">
<path d="M14.017 18.0001L12 20.0001L4.50002 12.5721C3.98221 12.0683 3.57973 11.4582 3.3203 10.7839C3.06087 10.1096 2.95065 9.38715 2.99721 8.66619C3.04378 7.94522 3.24604 7.24291 3.59006 6.60761C3.93408 5.97231 4.41169 5.4191 4.99001 4.98608M8.00002 3.98608C8.77776 3.98818 9.5443 4.17168 10.2387 4.52199C10.9331 4.87231 11.5362 5.37979 12 6.00408C12.7823 4.96262 13.9401 4.26753 15.2271 4.06674C16.514 3.86594 17.8286 4.17529 18.8909 4.92896C19.9533 5.68263 20.6796 6.82111 20.9153 8.10215C21.151 9.38318 20.8775 10.7056 20.153 11.7881M11.8141 11.814C11.2941 12.339 11.0018 13.0477 11.0005 13.7866C10.9992 14.5255 11.289 15.2352 11.8071 15.762L15.9891 20L17.9991 17.979M19.9761 15.989L20.1871 15.777C20.7062 15.2512 20.9973 14.542 20.9973 13.803C20.9973 13.0641 20.7062 12.3549 20.1871 11.829C19.9321 11.5697 19.628 11.3636 19.2927 11.2227C18.9573 11.0818 18.5973 11.009 18.2336 11.0083C17.8699 11.0077 17.5096 11.0793 17.1738 11.2189C16.8379 11.3586 16.5331 11.5636 16.2771 11.822L15.9941 12M3 3L21 21" stroke="currentColor" stroke-width="1.5" stroke-linecap="round" stroke-linejoin="round"/>
</svg>
