<svg width="24" height="24" viewBox="0 0 24 24" fill="none" xmlns="http://www.w3.org/2000/svg">
<path d="M19.9999 9H11.1999C11.0477 9.00019 10.8976 9.03511 10.761 9.10209C10.6244 9.16906 10.5048 9.26634 10.4115 9.3865C10.3181 9.50666 10.2534 9.64654 10.2223 9.79548C10.1912 9.94443 10.1945 10.0985 10.2319 10.246C10.7389 12.246 11.8279 13.664 13.4999 14.5C15.4999 15.5 17.8329 16 20.4999 16M12.0001 4C13.8612 4.00018 15.6765 4.5773 17.1959 5.6519C18.7154 6.7265 19.8644 8.24573 20.4847 10.0004C21.105 11.7551 21.166 13.6589 20.6595 15.4497C20.1529 17.2405 19.1036 18.8302 17.6561 20H6.34412C4.89662 18.8302 3.84734 17.2405 3.34078 15.4497C2.83422 13.6589 2.89528 11.7551 3.51555 10.0004C4.13583 8.24573 5.28481 6.7265 6.8043 5.6519C8.32379 4.5773 10.139 4.00018 12.0001 4Z" stroke="currentColor" stroke-width="1.5" stroke-linecap="round" stroke-linejoin="round"/>
</svg>
