<svg width="24" height="24" viewBox="0 0 24 24" fill="none" xmlns="http://www.w3.org/2000/svg">
<path d="M5.64091 5.63107C3.95175 7.31772 3.00178 9.6063 3 11.9934C2.99822 14.3804 3.94477 16.6704 5.63141 18.3596C7.31806 20.0487 9.60664 20.9987 11.9937 21.0005C14.3808 21.0023 16.6707 20.0557 18.3599 18.3691M20.0399 16.0511C20.893 14.3609 21.1914 12.4448 20.8926 10.5753C20.5938 8.70573 19.7131 6.97804 18.3757 5.63798C17.0383 4.29791 15.3123 3.41374 13.4434 3.11124C11.5745 2.80874 9.65775 3.10332 7.96591 3.95307M12 17V17.01M12.0001 13.5001C11.9888 13.2997 12.0179 13.0991 12.0856 12.9101C12.1532 12.7212 12.2582 12.5477 12.3941 12.4001M14.5001 10.5001C14.6791 10.032 14.719 9.52213 14.615 9.03189C14.511 8.54165 14.2675 8.09191 13.9139 7.7368C13.5603 7.38169 13.1115 7.13635 12.6217 7.03031C12.1319 6.92427 11.6219 6.96204 11.1531 7.13908M3 3L21 21" stroke="currentColor" stroke-width="1.5" stroke-linecap="round" stroke-linejoin="round"/>
</svg>
