<svg width="24" height="24" viewBox="0 0 24 24" fill="none" xmlns="http://www.w3.org/2000/svg">
<path d="M12.0002 1.67004C12.9552 1.67004 13.8452 2.13704 14.3902 2.91704L14.4952 3.07704L22.6092 16.625C22.8558 17.0521 22.9899 17.5348 22.9991 18.0279C23.0083 18.5209 22.8922 19.0083 22.6617 19.4442C22.4311 19.8802 22.0938 20.2505 21.6811 20.5205C21.2684 20.7905 20.794 20.9514 20.3022 20.988L20.1072 20.996H3.88219C3.38989 20.9905 2.90702 20.8603 2.47866 20.6177C2.05029 20.375 1.69039 20.0277 1.43255 19.6083C1.17472 19.1889 1.02735 18.711 1.0042 18.2192C0.981052 17.7274 1.08288 17.2378 1.30019 16.796L1.39919 16.611L9.50919 3.07304C9.76885 2.64486 10.1345 2.29081 10.5708 2.04506C11.0071 1.79931 11.4994 1.67015 12.0002 1.67004ZM12.0002 15C11.7553 15.0001 11.5188 15.09 11.3358 15.2528C11.1528 15.4155 11.0358 15.6398 11.0072 15.883L11.0002 16L11.0072 16.127C11.0361 16.3701 11.1531 16.5941 11.3362 16.7566C11.5192 16.9192 11.7554 17.0089 12.0002 17.0089C12.2449 17.0089 12.4812 16.9192 12.6642 16.7566C12.8472 16.5941 12.9643 16.3701 12.9932 16.127L13.0002 16.01L12.9932 15.883C12.9645 15.6398 12.8476 15.4155 12.6646 15.2528C12.4815 15.09 12.2451 15.0001 12.0002 15ZM13.3682 8.32704C12.7696 8.02101 12.0851 7.92639 11.4259 8.05855C10.7667 8.19072 10.1716 8.5419 9.73719 9.05504C9.57157 9.24905 9.48635 9.49901 9.49897 9.75378C9.51158 10.0085 9.62108 10.2489 9.80505 10.4256C9.98903 10.6022 10.2336 10.702 10.4886 10.7043C10.7437 10.7066 10.99 10.6114 11.1772 10.438L11.3482 10.258C11.4957 10.1226 11.6812 10.0357 11.8796 10.0088C12.0781 9.98202 12.28 10.0166 12.4582 10.108C12.6503 10.2053 12.8059 10.3619 12.9018 10.5546C12.9978 10.7473 13.029 10.9658 12.9908 11.1777C12.9526 11.3896 12.847 11.5835 12.6898 11.7305C12.5326 11.8776 12.3321 11.97 12.1182 11.994L11.8862 12.006C11.6318 12.034 11.3979 12.1584 11.2325 12.3537C11.0671 12.5489 10.9829 12.8001 10.9971 13.0556C11.0113 13.3111 11.1229 13.5514 11.309 13.7271C11.495 13.9028 11.7413 14.0005 11.9972 14C12.6718 14.0021 13.3274 13.7767 13.8582 13.3602C14.3889 12.9437 14.7638 12.3605 14.9223 11.7048C15.0807 11.049 15.0136 10.359 14.7316 9.74613C14.4496 9.13326 13.9693 8.63332 13.3682 8.32704Z" fill="currentColor"/>
</svg>
