<svg width="24" height="24" viewBox="0 0 24 24" fill="none" xmlns="http://www.w3.org/2000/svg">
<path d="M12 2L12.642 2.005L13.258 2.022L13.557 2.035L14.136 2.069L14.689 2.115C19.376 2.57 21.339 4.448 21.855 9.021L21.885 9.311L21.931 9.864L21.972 10.591L21.978 10.741L21.995 11.358L22 12L21.995 12.642L21.978 13.258L21.965 13.557L21.931 14.136L21.885 14.689C21.43 19.376 19.552 21.339 14.979 21.855L14.689 21.885L14.136 21.931L13.409 21.972L13.259 21.978L12.642 21.995L12 22L11.358 21.995L10.742 21.978L10.443 21.965L9.86398 21.931L9.31098 21.885C4.62398 21.43 2.66098 19.552 2.14498 14.979L2.11498 14.689L2.06898 14.136L2.02798 13.409L2.02198 13.259L2.00498 12.642L2.00098 12.324V11.676L2.00498 11.358L2.02198 10.742L2.03498 10.443L2.06898 9.864L2.11498 9.311C2.56998 4.624 4.44798 2.661 9.02098 2.145L9.31098 2.115L9.86398 2.069L10.591 2.028L10.741 2.022L11.358 2.005C11.568 2.002 11.782 2 12 2ZM12 15C11.755 15 11.5186 15.09 11.3356 15.2527C11.1526 15.4155 11.0356 15.6397 11.007 15.883L11 16L11.007 16.127C11.0359 16.3701 11.1529 16.5941 11.3359 16.7566C11.519 16.9191 11.7552 17.0089 12 17.0089C12.2447 17.0089 12.481 16.9191 12.664 16.7566C12.847 16.5941 12.9641 16.3701 12.993 16.127L13 16.01L12.993 15.883C12.9643 15.6397 12.8474 15.4155 12.6643 15.2527C12.4813 15.09 12.2449 15 12 15ZM13.368 8.327C12.7694 8.02097 12.0849 7.92635 11.4257 8.05851C10.7665 8.19067 10.1714 8.54186 9.73698 9.055C9.57136 9.249 9.48614 9.49896 9.49875 9.75373C9.51137 10.0085 9.62087 10.2488 9.80484 10.4255C9.98882 10.6022 10.2334 10.7019 10.4884 10.7042C10.7435 10.7066 10.9898 10.6113 11.177 10.438L11.348 10.258C11.4955 10.1226 11.681 10.0356 11.8794 10.0088C12.0779 9.98197 12.2798 10.0166 12.458 10.108C12.6501 10.2052 12.8056 10.3618 12.9016 10.5545C12.9976 10.7473 13.0287 10.9658 12.9906 11.1777C12.9524 11.3895 12.8468 11.5834 12.6896 11.7305C12.5324 11.8776 12.3319 11.97 12.118 11.994L11.886 12.006C11.6316 12.034 11.3977 12.1584 11.2323 12.3536C11.0669 12.5489 10.9827 12.8001 10.9969 13.0556C11.0111 13.3111 11.1227 13.5514 11.3088 13.7271C11.4948 13.9027 11.7411 14.0004 11.997 14C12.6716 14.002 13.3272 13.7766 13.858 13.3601C14.3887 12.9437 14.7636 12.3605 14.922 11.7047C15.0805 11.049 15.0133 10.359 14.7314 9.74609C14.4494 9.13322 13.9691 8.63328 13.368 8.327Z" fill="currentColor"/>
</svg>
