<svg width="24" height="24" viewBox="0 0 24 24" fill="none" xmlns="http://www.w3.org/2000/svg">
<path d="M12 16V16.01M12 13C12.4498 13.0014 12.8868 12.8511 13.2407 12.5734C13.5945 12.2958 13.8444 11.907 13.95 11.4698C14.0557 11.0327 14.0109 10.5726 13.8229 10.1641C13.6349 9.75549 13.3147 9.42219 12.914 9.21801C12.5162 9.01422 12.0611 8.95103 11.6228 9.03873C11.1845 9.12642 10.7888 9.35984 10.5 9.70101M12 3C19.2 3 21 4.8 21 12C21 19.2 19.2 21 12 21C4.8 21 3 19.2 3 12C3 4.8 4.8 3 12 3Z" stroke="currentColor" stroke-width="1.5" stroke-linecap="round" stroke-linejoin="round"/>
</svg>
