<svg width="24" height="24" viewBox="0 0 24 24" fill="none" xmlns="http://www.w3.org/2000/svg">
<path d="M14.897 1C15.8797 0.999947 16.8279 1.36161 17.561 2.016L17.726 2.172L21.826 6.272C22.5225 6.96711 22.9383 7.89456 22.994 8.877L23 9.104V14.898C23.0001 15.8807 22.6384 16.8289 21.984 17.562L21.828 17.727L17.728 21.827C17.0334 22.5231 16.1067 22.9389 15.125 22.995L14.898 23.001H9.103C8.1202 23.0009 7.17186 22.6388 6.439 21.984L6.274 21.828L2.174 17.728C1.47772 17.0331 1.0619 16.1061 1.006 15.124L1 14.897V9.103C0.999947 8.12035 1.36161 7.17206 2.016 6.439L2.172 6.274L6.272 2.174C6.96711 1.4775 7.89456 1.06166 8.877 1.006L9.104 1H14.897ZM12 15C11.7551 15 11.5187 15.09 11.3356 15.2527C11.1526 15.4155 11.0357 15.6397 11.007 15.883L11 16L11.007 16.127C11.0359 16.3701 11.153 16.5941 11.336 16.7566C11.519 16.9191 11.7552 17.0089 12 17.0089C12.2448 17.0089 12.481 16.9191 12.664 16.7566C12.847 16.5941 12.9641 16.3701 12.993 16.127L13 16.01L12.993 15.883C12.9643 15.6397 12.8474 15.4155 12.6644 15.2527C12.4813 15.09 12.2449 15 12 15ZM13.368 8.327C12.7694 8.02097 12.0849 7.92635 11.4257 8.05851C10.7665 8.19067 10.1714 8.54186 9.737 9.055C9.57138 9.249 9.48616 9.49896 9.49878 9.75373C9.51139 10.0085 9.62089 10.2488 9.80487 10.4255C9.98884 10.6022 10.2334 10.7019 10.4885 10.7042C10.7435 10.7066 10.9898 10.6113 11.177 10.438L11.348 10.258C11.4955 10.1226 11.681 10.0356 11.8795 10.0088C12.0779 9.98197 12.2798 10.0166 12.458 10.108C12.6501 10.2052 12.8057 10.3618 12.9016 10.5545C12.9976 10.7473 13.0288 10.9658 12.9906 11.1777C12.9524 11.3895 12.8468 11.5834 12.6896 11.7305C12.5324 11.8776 12.3319 11.97 12.118 11.994L11.886 12.006C11.6317 12.034 11.3977 12.1584 11.2323 12.3536C11.0669 12.5489 10.9827 12.8001 10.9969 13.0556C11.0111 13.3111 11.1228 13.5514 11.3088 13.7271C11.4948 13.9027 11.7411 14.0004 11.997 14C12.6716 14.002 13.3272 13.7766 13.858 13.3601C14.3887 12.9437 14.7636 12.3605 14.9221 11.7047C15.0805 11.049 15.0134 10.359 14.7314 9.74609C14.4494 9.13322 13.9691 8.63328 13.368 8.327Z" fill="currentColor"/>
</svg>
