<svg width="24" height="24" viewBox="0 0 24 24" fill="none" xmlns="http://www.w3.org/2000/svg">
<path d="M12 16V16.01M12 13C12.4498 13.0014 12.8868 12.8511 13.2407 12.5734C13.5945 12.2958 13.8444 11.907 13.95 11.4698C14.0557 11.0327 14.0109 10.5726 13.8229 10.1641C13.6349 9.75549 13.3147 9.42219 12.914 9.21801C12.5162 9.01422 12.0611 8.95103 11.6228 9.03873C11.1845 9.12642 10.7888 9.35984 10.5 9.70101M3 5C3 4.46957 3.21071 3.96086 3.58579 3.58579C3.96086 3.21071 4.46957 3 5 3H19C19.5304 3 20.0391 3.21071 20.4142 3.58579C20.7893 3.96086 21 4.46957 21 5V19C21 19.5304 20.7893 20.0391 20.4142 20.4142C20.0391 20.7893 19.5304 21 19 21H5C4.46957 21 3.96086 20.7893 3.58579 20.4142C3.21071 20.0391 3 19.5304 3 19V5Z" stroke="currentColor" stroke-width="1.5" stroke-linecap="round" stroke-linejoin="round"/>
</svg>
