<svg width="24" height="24" viewBox="0 0 24 24" fill="none" xmlns="http://www.w3.org/2000/svg">
<path d="M3 9C3 9.39397 3.23279 9.78407 3.68508 10.1481C4.13738 10.512 4.80031 10.8427 5.63604 11.1213C6.47177 11.3999 7.46392 11.6209 8.55585 11.7716C9.64778 11.9224 10.8181 12 12 12C13.1819 12 14.3522 11.9224 15.4442 11.7716C16.5361 11.6209 17.5282 11.3999 18.364 11.1213C19.1997 10.8427 19.8626 10.512 20.3149 10.1481C20.7672 9.78407 21 9.39397 21 9M3 9C3 8.60603 3.23279 8.21593 3.68508 7.85195C4.13738 7.48797 4.80031 7.15726 5.63604 6.87868C6.47177 6.6001 7.46392 6.37913 8.55585 6.22836C9.64778 6.0776 10.8181 6 12 6C13.1819 6 14.3522 6.0776 15.4442 6.22836C16.5361 6.37913 17.5282 6.6001 18.364 6.87868C19.1997 7.15726 19.8626 7.48797 20.3149 7.85195C20.7672 8.21593 21 8.60603 21 9M3 9C3 11.3869 3.94821 13.6761 5.63604 15.364C7.32387 17.0518 9.61305 18 12 18M21 9C21.0013 10.1107 20.7965 11.212 20.396 12.248M16 19H22M19 16V22" stroke="currentColor" stroke-width="1.5" stroke-linecap="round" stroke-linejoin="round"/>
</svg>
