<svg width="24" height="24" viewBox="0 0 24 24" fill="none" xmlns="http://www.w3.org/2000/svg">
<path d="M10.425 1.41397C10.9174 1.14242 11.4706 1 12.033 1C12.5954 1 13.1486 1.14242 13.641 1.41397L20.416 5.40897C20.483 5.44897 20.543 5.49297 20.596 5.54197L20.604 5.54897L20.711 5.62497C21.0859 5.90606 21.395 6.26551 21.6167 6.67828C21.8385 7.09105 21.9676 7.54721 21.995 8.01497L22 8.21797V15.502C22 16.677 21.357 17.758 20.377 18.295L13.573 22.597C12.593 23.135 11.407 23.135 10.373 22.565L3.678 18.328C3.17072 18.0505 2.74733 17.6418 2.45213 17.1447C2.15693 16.6475 2.00078 16.0802 2 15.502V8.21697C1.99954 7.64429 2.1523 7.08192 2.44243 6.58817C2.73256 6.09442 3.1495 5.68728 3.65 5.40897L10.425 1.41397ZM13 6.99997H10L9.883 7.00697C9.63995 7.03588 9.41595 7.15292 9.25341 7.33593C9.09088 7.51894 9.00111 7.75521 9.00111 7.99997C9.00111 8.24473 9.09088 8.48099 9.25341 8.664C9.41595 8.84701 9.63995 8.96406 9.883 8.99297L10 8.99997H13V11H11L10.85 11.005C10.3738 11.0408 9.92617 11.2457 9.58797 11.5828C9.24977 11.9199 9.04334 12.3669 9.006 12.843L9 13V15L9.005 15.15C9.04079 15.6261 9.24576 16.0738 9.58286 16.412C9.91996 16.7502 10.3669 16.9566 10.843 16.994L11 17H14L14.117 16.993C14.3601 16.9641 14.5841 16.847 14.7466 16.664C14.9091 16.481 14.9989 16.2447 14.9989 16C14.9989 15.7552 14.9091 15.5189 14.7466 15.3359C14.5841 15.1529 14.3601 15.0359 14.117 15.007L14 15H11V13H13L13.15 12.995C13.6262 12.9592 14.0738 12.7542 14.412 12.4171C14.7502 12.08 14.9567 11.633 14.994 11.157L15 11V8.99997L14.995 8.84997C14.9592 8.3738 14.7542 7.92614 14.4171 7.58794C14.08 7.24974 13.6331 7.0433 13.157 7.00597L13 6.99997Z" fill="currentColor"/>
</svg>
