<svg width="24" height="24" viewBox="0 0 24 24" fill="none" xmlns="http://www.w3.org/2000/svg">
<path d="M9 12.0001H15M12 9.00012V15.0001M19.875 6.27008C20.575 6.66808 21.005 7.41308 21 8.21808V15.5021C21 16.3111 20.557 17.0571 19.842 17.4501L13.092 21.7201C12.7574 21.9038 12.3818 22.0001 12 22.0001C11.6182 22.0001 11.2426 21.9038 10.908 21.7201L4.158 17.4501C3.80817 17.2589 3.51612 16.9772 3.31241 16.6346C3.1087 16.2919 3.0008 15.9007 3 15.5021V8.21708C3 7.40808 3.443 6.66308 4.158 6.27008L10.908 2.29008C11.2525 2.10011 11.6396 2.00049 12.033 2.00049C12.4264 2.00049 12.8135 2.10011 13.158 2.29008L19.908 6.27008H19.875Z" stroke="currentColor" stroke-width="1.5" stroke-linecap="round" stroke-linejoin="round"/>
</svg>
