<svg width="24" height="24" viewBox="0 0 24 24" fill="none" xmlns="http://www.w3.org/2000/svg">
<path d="M7.87722 7.87972L3.31722 15.4097C3.07087 15.7918 2.9629 16.2467 3.0113 16.6987C3.05971 17.1507 3.26156 17.5725 3.58322 17.8937L6.11022 20.4167C6.48422 20.7897 6.99022 20.9997 7.51822 20.9997H16.4822C17.0102 20.9997 17.5162 20.7897 17.8902 20.4167L19.1542 19.1537M20.9462 16.9487C21.0086 16.6879 21.0176 16.4172 20.9726 16.1529C20.9275 15.8886 20.8295 15.6361 20.6842 15.4107L12.8382 2.45672C12.7481 2.31635 12.6241 2.20088 12.4776 2.1209C12.3312 2.04093 12.1671 1.99902 12.0002 1.99902M12.0002 1.99902C11.8334 1.99902 11.6692 2.04093 11.5228 2.1209C11.3764 2.20088 11.2524 2.31635 11.1622 2.45672L9.39022 5.38272M12.0002 1.99902L10.746 6.74176M12.0002 1.99902L14.153 10.1398M9.905 9.91876L7 20.8998M15.597 15.5968L17 20.8998M3 2.99976L21 20.9998" stroke="currentColor" stroke-width="1.5" stroke-linecap="round" stroke-linejoin="round"/>
</svg>
