<svg width="24" height="24" viewBox="0 0 24 24" fill="none" xmlns="http://www.w3.org/2000/svg">
<path d="M10.425 1.41397C10.9174 1.14242 11.4706 1 12.033 1C12.5954 1 13.1486 1.14242 13.641 1.41397L20.416 5.40897C20.483 5.44897 20.543 5.49297 20.596 5.54197L20.604 5.54897L20.711 5.62497C21.0859 5.90606 21.395 6.26551 21.6167 6.67828C21.8385 7.09105 21.9676 7.54721 21.995 8.01497L22 8.21797V15.502C22 16.677 21.357 17.758 20.377 18.295L13.573 22.597C12.593 23.135 11.407 23.135 10.373 22.565L3.678 18.328C3.17072 18.0505 2.74733 17.6418 2.45213 17.1447C2.15693 16.6475 2.00078 16.0802 2 15.502V8.21697C1.99954 7.64429 2.1523 7.08192 2.44243 6.58817C2.73256 6.09442 3.1495 5.68728 3.65 5.40897L10.425 1.41397ZM14 6.99997H10L9.883 7.00697C9.65978 7.03329 9.45194 7.13405 9.29301 7.29298C9.13408 7.45191 9.03332 7.65975 9.007 7.88297L9 7.99997L9.007 8.11697C9.03332 8.34019 9.13408 8.54803 9.29301 8.70696C9.45194 8.86589 9.65978 8.96665 9.883 8.99297L10 8.99997H12.718L11.03 15.757L11.008 15.872C10.9767 16.115 11.0356 16.3611 11.1737 16.5635C11.3118 16.7659 11.5194 16.9105 11.7571 16.97C11.9948 17.0295 12.2461 16.9996 12.4632 16.886C12.6804 16.7725 12.8482 16.5831 12.935 16.354L12.97 16.243L14.97 8.24297L14.991 8.13097C15.0085 7.99926 14.9995 7.8654 14.9647 7.73719C14.9298 7.60899 14.8698 7.48901 14.788 7.38428C14.7063 7.27954 14.6045 7.19214 14.4886 7.12719C14.3727 7.06223 14.245 7.02103 14.113 7.00597L14 6.99997Z" fill="currentColor"/>
</svg>
