<svg width="24" height="24" viewBox="0 0 24 24" fill="none" xmlns="http://www.w3.org/2000/svg">
<path d="M20.792 6.99609L17.017 9.63909C16.6806 9.87394 16.2802 9.99994 15.87 10.0001H14M9.99996 10.0001H8.12996C7.71996 10.0001 7.31996 9.87409 6.98396 9.63809L3.20996 6.99709M8 10V21M16 10V12M16 16V21M20.972 16.968C20.9908 16.8567 21.0002 16.7439 21 16.631V7.369C21 6.714 20.682 6.101 20.147 5.726L16.78 3.363C16.444 3.12715 16.0435 3.00041 15.633 3H8.367C7.98955 2.99982 7.61984 3.10699 7.301 3.309M4.956 4.952L3.853 5.726C3.58917 5.91131 3.3739 6.15748 3.22541 6.44366C3.07692 6.72984 2.99961 7.04759 3 7.37V16.631C3 17.286 3.318 17.9 3.853 18.275L7.22 20.638C7.55614 20.8735 7.95658 20.9999 8.367 21H15.632C16.042 21 16.443 20.874 16.779 20.637L19.039 19.05M3 3L21 21" stroke="currentColor" stroke-width="1.5" stroke-linecap="round" stroke-linejoin="round"/>
</svg>
