<svg width="24" height="24" viewBox="0 0 24 24" fill="none" xmlns="http://www.w3.org/2000/svg">
<path d="M10.425 1.41397C10.9174 1.14242 11.4706 1 12.033 1C12.5954 1 13.1486 1.14242 13.641 1.41397L20.416 5.40897C20.483 5.44897 20.543 5.49297 20.596 5.54197L20.604 5.54897L20.711 5.62497C21.0859 5.90606 21.395 6.26551 21.6167 6.67828C21.8385 7.09105 21.9676 7.54721 21.995 8.01497L22 8.21797V15.502C22 16.677 21.357 17.758 20.377 18.295L13.573 22.597C12.593 23.135 11.407 23.135 10.373 22.565L3.678 18.328C3.17072 18.0505 2.74733 17.6418 2.45213 17.1447C2.15693 16.6475 2.00078 16.0802 2 15.502V8.21697C1.99954 7.64429 2.1523 7.08192 2.44243 6.58817C2.73256 6.09442 3.1495 5.68728 3.65 5.40897L10.425 1.41397ZM13 6.99997H11L10.85 7.00497C10.3738 7.04075 9.92617 7.24573 9.58797 7.58283C9.24977 7.91993 9.04334 8.36692 9.006 8.84297L9 8.99997V11L9.005 11.15C9.04079 11.6261 9.24576 12.0738 9.58286 12.412C9.91996 12.7502 10.3669 12.9566 10.843 12.994L11 13H13V15H11L10.993 14.883C10.9629 14.6299 10.8373 14.3978 10.6418 14.2342C10.4464 14.0706 10.1958 13.9879 9.9414 14.0028C9.68695 14.0177 9.44782 14.1293 9.27285 14.3146C9.09788 14.4999 9.00028 14.7451 9 15C8.99984 15.5045 9.19041 15.9905 9.5335 16.3605C9.87659 16.7305 10.3468 16.9571 10.85 16.995L11 17H13L13.15 16.995C13.6262 16.9592 14.0738 16.7542 14.412 16.4171C14.7502 16.08 14.9567 15.633 14.994 15.157L15 15V8.99997L14.995 8.84997C14.9592 8.3738 14.7542 7.92614 14.4171 7.58794C14.08 7.24974 13.6331 7.0433 13.157 7.00597L13 6.99997ZM13 8.99997V11H11V8.99997H13Z" fill="currentColor"/>
</svg>
