<svg width="24" height="24" viewBox="0 0 24 24" fill="none" xmlns="http://www.w3.org/2000/svg">
<path d="M10.425 1.41397C10.9174 1.14242 11.4706 1 12.033 1C12.5954 1 13.1486 1.14242 13.641 1.41397L20.416 5.40897C20.483 5.44897 20.543 5.49297 20.596 5.54197L20.604 5.54897L20.711 5.62497C21.0859 5.90606 21.395 6.26551 21.6167 6.67828C21.8385 7.09105 21.9676 7.54721 21.995 8.01497L22 8.21797V15.502C22 16.677 21.357 17.758 20.377 18.295L13.573 22.597C12.593 23.135 11.407 23.135 10.373 22.565L3.678 18.328C3.17072 18.0505 2.74733 17.6418 2.45213 17.1447C2.15693 16.6475 2.00078 16.0802 2 15.502V8.21697C1.99954 7.64429 2.1523 7.08192 2.44243 6.58817C2.73256 6.09442 3.1495 5.68728 3.65 5.40897L10.425 1.41397ZM14 6.99997H10C9.75507 7 9.51866 7.08992 9.33563 7.25268C9.15259 7.41544 9.03566 7.63972 9.007 7.88297L9 7.99997V12C9.00003 12.2449 9.08996 12.4813 9.25272 12.6643C9.41548 12.8474 9.63975 12.9643 9.883 12.993L10 13H13V15H11L10.993 14.883C10.9629 14.6299 10.8373 14.3978 10.6418 14.2342C10.4464 14.0706 10.1958 13.9879 9.9414 14.0028C9.68695 14.0177 9.44782 14.1293 9.27285 14.3146C9.09788 14.4999 9.00028 14.7451 9 15C8.99984 15.5045 9.19041 15.9905 9.5335 16.3605C9.87659 16.7305 10.3468 16.9571 10.85 16.995L11 17H13C13.5046 17.0001 13.9906 16.8096 14.3605 16.4665C14.7305 16.1234 14.9572 15.6531 14.995 15.15L15 15V13C15.0002 12.4954 14.8096 12.0094 14.4665 11.6394C14.1234 11.2694 13.6532 11.0428 13.15 11.005L13 11H11V8.99997H14C14.2449 8.99994 14.4813 8.91001 14.6644 8.74725C14.8474 8.58449 14.9643 8.36022 14.993 8.11697L15 7.99997C15 7.75504 14.91 7.51863 14.7473 7.3356C14.5845 7.15256 14.3603 7.03563 14.117 7.00697L14 6.99997Z" fill="currentColor"/>
</svg>
