<svg width="24" height="24" viewBox="0 0 24 24" fill="none" xmlns="http://www.w3.org/2000/svg">
<path d="M18.6419 12.0397L12.8379 2.45672C12.7478 2.31635 12.6238 2.20088 12.4774 2.1209C12.331 2.04093 12.1668 1.99902 11.9999 1.99902M11.9999 1.99902C11.8331 1.99902 11.6689 2.04093 11.5225 2.1209C11.3761 2.20088 11.2521 2.31635 11.1619 2.45672L3.31595 15.4107C3.06998 15.7928 2.96233 16.2476 3.01091 16.6994C3.05949 17.1512 3.26138 17.5727 3.58295 17.8937L6.10995 20.4167C6.48395 20.7897 6.98995 20.9997 7.51795 20.9997H12.4999M11.9999 1.99902L7 20.8998M11.9999 1.99902L15.304 14.4888M16 18.9998H22M19 15.9998V21.9998" stroke="currentColor" stroke-width="1.5" stroke-linecap="round" stroke-linejoin="round"/>
</svg>
