<svg width="24" height="24" viewBox="0 0 24 24" fill="none" xmlns="http://www.w3.org/2000/svg">
<path d="M10.425 1.41397C10.9174 1.14242 11.4706 1 12.033 1C12.5954 1 13.1486 1.14242 13.641 1.41397L20.416 5.40897C20.483 5.44897 20.543 5.49297 20.596 5.54197L20.604 5.54897L20.711 5.62497C21.0859 5.90606 21.395 6.26551 21.6167 6.67828C21.8385 7.09105 21.9676 7.54721 21.995 8.01497L22 8.21797V15.502C22 16.677 21.357 17.758 20.377 18.295L13.573 22.597C12.593 23.135 11.407 23.135 10.373 22.565L3.678 18.328C3.17072 18.0505 2.74733 17.6418 2.45213 17.1447C2.15693 16.6475 2.00078 16.0802 2 15.502V8.21697C1.99954 7.64429 2.1523 7.08192 2.44243 6.58817C2.73256 6.09442 3.1495 5.68728 3.65 5.40897L10.425 1.41397ZM13 6.99997H11L10.85 7.00497C10.3738 7.04075 9.92617 7.24573 9.58797 7.58283C9.24977 7.91993 9.04334 8.36692 9.006 8.84297L9 8.99997V15L9.005 15.15C9.04079 15.6261 9.24576 16.0738 9.58286 16.412C9.91996 16.7502 10.3669 16.9566 10.843 16.994L11 17H13L13.15 16.995C13.6262 16.9592 14.0738 16.7542 14.412 16.4171C14.7502 16.08 14.9567 15.633 14.994 15.157L15 15V13L14.995 12.85C14.9592 12.3738 14.7542 11.9261 14.4171 11.5879C14.08 11.2497 13.6331 11.0433 13.157 11.006L13 11H11V8.99997H13L13.007 9.11697C13.0371 9.37006 13.1627 9.60211 13.3582 9.76571C13.5536 9.9293 13.8042 10.0121 14.0586 9.99714C14.313 9.9822 14.5522 9.87067 14.7272 9.68534C14.9021 9.5 14.9997 9.25485 15 8.99997C15.0002 8.49539 14.8096 8.0094 14.4665 7.63942C14.1234 7.26944 13.6532 7.04281 13.15 7.00497L13 6.99997ZM13 13V15H11V13H13Z" fill="currentColor"/>
</svg>
