<svg width="24" height="24" viewBox="0 0 24 24" fill="none" xmlns="http://www.w3.org/2000/svg">
<path d="M9.99951 7.99988H13.9995L11.9995 15.9999M19.0196 6.85783C19.3266 7.03504 19.581 7.29066 19.7567 7.59851C19.9324 7.90636 20.0231 8.25538 20.0196 8.60983V15.1648C20.0196 15.8928 19.6246 16.5648 18.9876 16.9178L12.9706 20.7618C12.6728 20.9279 12.3376 21.015 11.9966 21.015C11.6557 21.015 11.3204 20.9279 11.0226 20.7618L5.00661 16.9178C4.69366 16.7447 4.43286 16.4909 4.25135 16.1828C4.06984 15.8746 3.97428 15.5235 3.97461 15.1658V8.60983C3.97461 7.88183 4.36961 7.20983 5.00661 6.85683L11.0236 3.27483C11.3296 3.10514 11.6737 3.01611 12.0236 3.01611C12.3735 3.01611 12.7176 3.10514 13.0236 3.27483L19.0406 6.85783H19.0116H19.0196Z" stroke="currentColor" stroke-width="1.5" stroke-linecap="round" stroke-linejoin="round"/>
</svg>
