<svg width="24" height="24" viewBox="0 0 24 24" fill="none" xmlns="http://www.w3.org/2000/svg">
<path d="M10.425 1.41397C10.9174 1.14242 11.4706 1 12.033 1C12.5954 1 13.1486 1.14242 13.641 1.41397L20.416 5.40897C20.483 5.44897 20.543 5.49297 20.596 5.54197L20.604 5.54897L20.711 5.62497C21.0859 5.90606 21.395 6.26551 21.6167 6.67828C21.8385 7.09105 21.9676 7.54721 21.995 8.01497L22 8.21797V15.502C22 16.677 21.357 17.758 20.377 18.295L13.573 22.597C12.593 23.135 11.407 23.135 10.373 22.565L3.678 18.328C3.17072 18.0505 2.74733 17.6418 2.45213 17.1447C2.15693 16.6475 2.00078 16.0802 2 15.502V8.21697C1.99954 7.64429 2.1523 7.08192 2.44243 6.58817C2.73256 6.09442 3.1495 5.68728 3.65 5.40897L10.425 1.41397ZM14 6.99997C13.7551 7 13.5187 7.08992 13.3356 7.25268C13.1526 7.41544 13.0357 7.63972 13.007 7.88297L13 7.99997V11H11V7.99997L10.993 7.88297C10.9641 7.63992 10.847 7.41591 10.664 7.25338C10.481 7.09085 10.2448 7.00108 10 7.00108C9.75524 7.00108 9.51898 7.09085 9.33597 7.25338C9.15296 7.41591 9.03591 7.63992 9.007 7.88297L9 7.99997V11L9.005 11.15C9.04079 11.6261 9.24576 12.0738 9.58286 12.412C9.91996 12.7502 10.3669 12.9566 10.843 12.994L11 13H13V16L13.007 16.117C13.0359 16.36 13.153 16.584 13.336 16.7466C13.519 16.9091 13.7552 16.9989 14 16.9989C14.2448 16.9989 14.481 16.9091 14.664 16.7466C14.847 16.584 14.9641 16.36 14.993 16.117L15 16V7.99997L14.993 7.88297C14.9643 7.63972 14.8474 7.41544 14.6644 7.25268C14.4813 7.08992 14.2449 7 14 6.99997Z" fill="currentColor"/>
</svg>
