<svg width="24" height="24" viewBox="0 0 24 24" fill="none" xmlns="http://www.w3.org/2000/svg">
<path d="M10.425 1.41397C10.9174 1.14242 11.4706 1 12.033 1C12.5954 1 13.1486 1.14242 13.641 1.41397L20.416 5.40897C20.483 5.44897 20.543 5.49297 20.596 5.54197L20.604 5.54897L20.711 5.62497C21.0859 5.90606 21.395 6.26551 21.6167 6.67828C21.8385 7.09105 21.9676 7.54721 21.995 8.01497L22 8.21797V15.502C22 16.677 21.357 17.758 20.377 18.295L13.573 22.597C12.593 23.135 11.407 23.135 10.373 22.565L3.678 18.328C3.17072 18.0505 2.74733 17.6418 2.45213 17.1447C2.15693 16.6475 2.00078 16.0802 2 15.502V8.21697C1.99954 7.64429 2.1523 7.08192 2.44243 6.58817C2.73256 6.09442 3.1495 5.68728 3.65 5.40897L10.425 1.41397ZM11.377 7.21697L11.293 7.29297L9.293 9.29297L9.21 9.38697C9.07393 9.56234 9.00008 9.778 9.00008 9.99997C9.00008 10.2219 9.07393 10.4376 9.21 10.613L9.293 10.707L9.387 10.79C9.56237 10.926 9.77803 10.9999 10 10.9999C10.222 10.9999 10.4376 10.926 10.613 10.79L10.707 10.707L11 10.414V16L11.007 16.117C11.0359 16.36 11.153 16.584 11.336 16.7466C11.519 16.9091 11.7552 16.9989 12 16.9989C12.2448 16.9989 12.481 16.9091 12.664 16.7466C12.847 16.584 12.9641 16.36 12.993 16.117L13 16V7.99997L12.994 7.88597C12.911 7.10897 11.986 6.72697 11.377 7.21697Z" fill="currentColor"/>
</svg>
