<svg width="24" height="24" viewBox="0 0 24 24" fill="none" xmlns="http://www.w3.org/2000/svg">
<path d="M10.425 1.41397C10.9174 1.14242 11.4706 1 12.033 1C12.5954 1 13.1486 1.14242 13.641 1.41397L20.416 5.40897C20.483 5.44897 20.543 5.49297 20.596 5.54197L20.604 5.54897L20.711 5.62497C21.0859 5.90606 21.395 6.26551 21.6167 6.67828C21.8385 7.09105 21.9676 7.54721 21.995 8.01497L22 8.21797V15.502C22 16.677 21.357 17.758 20.377 18.295L13.573 22.597C12.593 23.135 11.407 23.135 10.373 22.565L3.678 18.328C3.17072 18.0505 2.74733 17.6418 2.45213 17.1447C2.15693 16.6475 2.00078 16.0802 2 15.502V8.21697C1.99954 7.64429 2.1523 7.08192 2.44243 6.58817C2.73256 6.09442 3.1495 5.68728 3.65 5.40897L10.425 1.41397ZM12 6.99997C11.2348 6.99993 10.4985 7.29229 9.94174 7.81725C9.38499 8.34221 9.04989 9.06008 9.005 9.82397L9 9.99997V14L9.005 14.176C9.04919 14.9404 9.38398 15.6589 9.9408 16.1845C10.4976 16.7101 11.2343 17.0028 12 17.0028C12.7657 17.0028 13.5024 16.7101 14.0592 16.1845C14.616 15.6589 14.9508 14.9404 14.995 14.176L15 14V9.99997L14.995 9.82397C14.9501 9.06008 14.615 8.34221 14.0583 7.81725C13.5015 7.29229 12.7652 6.99993 12 6.99997ZM12 8.99997C12.2449 9 12.4813 9.08993 12.6644 9.25268C12.8474 9.41544 12.9643 9.63972 12.993 9.88297L13 9.99997V14L12.993 14.117C12.9641 14.36 12.847 14.584 12.664 14.7466C12.481 14.9091 12.2448 14.9989 12 14.9989C11.7552 14.9989 11.519 14.9091 11.336 14.7466C11.153 14.584 11.0359 14.36 11.007 14.117L11 14V9.99997L11.007 9.88297C11.0357 9.63972 11.1526 9.41544 11.3356 9.25268C11.5187 9.08993 11.7551 9 12 8.99997Z" fill="currentColor"/>
</svg>
