<svg width="24" height="24" viewBox="0 0 24 24" fill="none" xmlns="http://www.w3.org/2000/svg">
<path d="M11.9999 1.99902C12.1668 1.99902 12.331 2.04093 12.4774 2.1209C12.6238 2.20088 12.7478 2.31635 12.8379 2.45672L20.6839 15.4107C20.9299 15.7928 21.0376 16.2476 20.989 16.6994C20.9404 17.1512 20.7385 17.5727 20.4169 17.8937L17.8899 20.4167C17.5159 20.7897 17.0099 20.9997 16.4819 20.9997H7.51795C6.98995 20.9997 6.48395 20.7897 6.10995 20.4167L3.58295 17.8937C3.26138 17.5727 3.05949 17.1512 3.01091 16.6994C2.96233 16.2476 3.06998 15.7928 3.31595 15.4107L11.1619 2.45672C11.2521 2.31635 11.3761 2.20088 11.5225 2.1209C11.6689 2.04093 11.8331 1.99902 11.9999 1.99902ZM11.9999 1.99902L7 20.8998M11.9999 1.99902L17 20.8998" stroke="currentColor" stroke-width="1.5" stroke-linecap="round" stroke-linejoin="round"/>
</svg>
