<svg width="24" height="24" viewBox="0 0 24 24" fill="none" xmlns="http://www.w3.org/2000/svg">
<path d="M20.792 6.99597L17.017 9.63897C16.6806 9.87382 16.2802 9.99982 15.87 9.99997H8.12996C7.71996 9.99997 7.31996 9.87397 6.98396 9.63797L3.20996 6.99697M8 10V21M16 10V13.5M21 12.5V7.369C21 6.714 20.682 6.101 20.147 5.726L16.78 3.363C16.444 3.12715 16.0435 3.00041 15.633 3H8.367C7.957 3 7.556 3.126 7.22 3.363L3.853 5.726C3.58917 5.91131 3.3739 6.15748 3.22541 6.44366C3.07692 6.72984 2.99961 7.04759 3 7.37V16.631C3 17.286 3.318 17.9 3.853 18.275L7.22 20.638C7.55614 20.8735 7.95658 20.9999 8.367 21H12.5M16 19H22M19 16V22" stroke="currentColor" stroke-width="1.5" stroke-linecap="round" stroke-linejoin="round"/>
</svg>
