<svg width="24" height="24" viewBox="0 0 24 24" fill="none" xmlns="http://www.w3.org/2000/svg">
<path d="M10 12.0001H12C12.5304 12.0001 13.0391 11.7894 13.4142 11.4143C13.7893 11.0393 14 10.5306 14 10.0001C14 9.46969 13.7893 8.96098 13.4142 8.58591C13.0391 8.21084 12.5304 8.00012 12 8.00012H10V16.0001M19.875 6.27008C20.2187 6.46554 20.5041 6.74905 20.7018 7.09143C20.8995 7.43382 21.0025 7.82271 21 8.21808V15.5021C21 16.3111 20.557 17.0571 19.842 17.4501L13.092 21.7201C12.7574 21.9038 12.3818 22.0001 12 22.0001C11.6182 22.0001 11.2426 21.9038 10.908 21.7201L4.158 17.4501C3.80817 17.2589 3.51612 16.9772 3.31241 16.6346C3.1087 16.2919 3.0008 15.9007 3 15.5021V8.21708C3 7.40808 3.443 6.66308 4.158 6.27008L10.908 2.29008C11.2525 2.10011 11.6396 2.00049 12.033 2.00049C12.4264 2.00049 12.8135 2.10011 13.158 2.29008L19.908 6.27008H19.875Z" stroke="currentColor" stroke-width="1.5" stroke-linecap="round" stroke-linejoin="round"/>
</svg>
