<svg width="24" height="24" viewBox="0 0 24 24" fill="none" xmlns="http://www.w3.org/2000/svg">
<path d="M12 16.5V21M12 16.5L16 14M12 16.5L8.00003 14M4.50003 7.5L8.00003 10M8.00003 10L12 7.5M8.00003 10V14M16 10L20 7.5M16 10V14M16 10L12 7.5M12 7.5V12M12 12L8.00003 14M12 12L16 14M19 6.84396C19.3065 7.02173 19.5605 7.27747 19.7361 7.58519C19.9118 7.89291 20.0028 8.24165 20 8.59596V15.151C20 15.879 19.606 16.55 18.97 16.904L12.97 20.748C12.673 20.9129 12.3388 20.9995 11.999 20.9995C11.6592 20.9995 11.3251 20.9129 11.028 20.748L5.02802 16.904C4.71612 16.7299 4.45632 16.4758 4.27544 16.1678C4.09455 15.8598 3.99913 15.5091 3.99902 15.152V8.59596C3.99902 7.86696 4.39302 7.19596 5.02802 6.84296L11.028 3.25996C11.3336 3.08918 11.6779 2.99951 12.028 2.99951C12.3781 2.99951 12.7224 3.08918 13.028 3.25996L19.028 6.84396H18.998H19Z" stroke="currentColor" stroke-width="1.5" stroke-linecap="round" stroke-linejoin="round"/>
</svg>
