<svg width="24" height="24" viewBox="0 0 24 24" fill="none" xmlns="http://www.w3.org/2000/svg">
<path d="M9 8.99988L3 14.9999V18.9999H7L13 12.9999M15 10.9999L17.503 8.49688C18.0334 7.96645 18.3314 7.24703 18.3314 6.49688C18.3314 5.74674 18.0334 5.02732 17.503 4.49688C17.2404 4.23424 16.9286 4.0259 16.5854 3.88376C16.2422 3.74162 15.8744 3.66846 15.503 3.66846C14.7529 3.66846 14.0334 3.96645 13.503 4.49688L11.006 6.99388M12.5 5.5L16.5 9.5M4.5 13.5L8.5 17.5M19 15H21V17M19 19H13L16 16M3 3L21 21" stroke="currentColor" stroke-width="1.5" stroke-linecap="round" stroke-linejoin="round"/>
</svg>
