<svg width="24" height="24" viewBox="0 0 24 24" fill="none" xmlns="http://www.w3.org/2000/svg">
<path d="M3.05005 11.0001C3.25533 8.96202 4.15162 7.05548 5.59005 5.59711M7.90405 3.90011C9.59844 3.03259 11.5243 2.72464 13.4047 3.02054C15.2851 3.31644 17.0233 4.20095 18.3694 5.54692C19.7155 6.89289 20.6001 8.631 20.8962 10.5114C21.1922 12.3918 20.8844 14.3176 20.017 16.0121M18.322 18.3241C17.2487 19.382 15.9269 20.1534 14.4778 20.5676C13.0288 20.9818 11.499 21.0254 10.0287 20.6946C8.55836 20.3637 7.19469 19.669 6.06273 18.674C4.93078 17.6791 4.0668 16.4158 3.55005 15.0001M3.05005 20.0001V15.0001H8.05005M3 3L21 21" stroke="currentColor" stroke-width="1.5" stroke-linecap="round" stroke-linejoin="round"/>
</svg>
