<svg width="24" height="24" viewBox="0 0 24 24" fill="none" xmlns="http://www.w3.org/2000/svg">
<path d="M20.136 11.136L12 3L3 12H5V19C5 19.5304 5.21071 20.0391 5.58579 20.4142C5.96086 20.7893 6.46957 21 7 21H14M9 21V15C9 14.4696 9.21071 13.9609 9.58579 13.5858C9.96086 13.2107 10.4696 13 11 13H13C13.467 13 13.896 13.16 14.236 13.428M19 22V22.01M19 19C19.4498 19.0014 19.8868 18.8511 20.2407 18.5734C20.5945 18.2958 20.8444 17.907 20.95 17.4698C21.0557 17.0327 21.0109 16.5726 20.8229 16.1641C20.6349 15.7555 20.3147 15.4222 19.914 15.218C19.5162 15.0142 19.0611 14.951 18.6228 15.0387C18.1845 15.1264 17.7888 15.3598 17.5 15.701" stroke="currentColor" stroke-width="1.5" stroke-linecap="round" stroke-linejoin="round"/>
</svg>
