<svg width="24" height="24" viewBox="0 0 24 24" fill="none" xmlns="http://www.w3.org/2000/svg">
<path d="M21 12L12 3L3 12H5V19C5 19.5304 5.21071 20.0391 5.58579 20.4142C5.96086 20.7893 6.46957 21 7 21H13M9 21V15C9 14.4696 9.21071 13.9609 9.58579 13.5858C9.96086 13.2107 10.4696 13 11 13H13C13.39 13 13.754 13.112 14.061 13.304M19 21.5L21.518 18.92C21.83 18.5958 22.0042 18.1634 22.0042 17.7135C22.0042 17.2636 21.83 16.8312 21.518 16.507C21.3662 16.349 21.184 16.2234 20.9825 16.1375C20.7809 16.0517 20.5641 16.0074 20.345 16.0074C20.1259 16.0074 19.9091 16.0517 19.7075 16.1375C19.506 16.2234 19.3238 16.349 19.172 16.507L19.004 16.679L18.836 16.507C18.6842 16.349 18.502 16.2234 18.3005 16.1375C18.0989 16.0517 17.8821 16.0074 17.663 16.0074C17.4439 16.0074 17.2271 16.0517 17.0255 16.1375C16.824 16.2234 16.6418 16.349 16.49 16.507C16.1784 16.8311 16.0043 17.2633 16.0043 17.713C16.0043 18.1626 16.1784 18.5948 16.49 18.919L19 21.509V21.5Z" stroke="currentColor" stroke-width="1.5" stroke-linecap="round" stroke-linejoin="round"/>
</svg>
