<svg width="24" height="24" viewBox="0 0 24 24" fill="none" xmlns="http://www.w3.org/2000/svg">
<path d="M20.085 11.085L12 3L3 12H5V19C5 19.5304 5.21071 20.0391 5.58579 20.4142C5.96086 20.7893 6.46957 21 7 21H11.5M9 21V15C9 14.4696 9.21071 13.9609 9.58579 13.5858C9.96086 13.2107 10.4696 13 11 13H13C13.3785 13 13.7492 13.1074 14.0691 13.3098C14.3889 13.5121 14.6448 13.801 14.807 14.143M21 16L16 19L21 21M20 21C20 21.2652 20.1054 21.5196 20.2929 21.7071C20.4804 21.8946 20.7348 22 21 22C21.2652 22 21.5196 21.8946 21.7071 21.7071C21.8946 21.5196 22 21.2652 22 21C22 20.7348 21.8946 20.4804 21.7071 20.2929C21.5196 20.1054 21.2652 20 21 20C20.7348 20 20.4804 20.1054 20.2929 20.2929C20.1054 20.4804 20 20.7348 20 21ZM20 16C20 16.2652 20.1054 16.5196 20.2929 16.7071C20.4804 16.8946 20.7348 17 21 17C21.2652 17 21.5196 16.8946 21.7071 16.7071C21.8946 16.5196 22 16.2652 22 16C22 15.7348 21.8946 15.4804 21.7071 15.2929C21.5196 15.1054 21.2652 15 21 15C20.7348 15 20.4804 15.1054 20.2929 15.2929C20.1054 15.4804 20 15.7348 20 16ZM15 19C15 19.2652 15.1054 19.5196 15.2929 19.7071C15.4804 19.8946 15.7348 20 16 20C16.2652 20 16.5196 19.8946 16.7071 19.7071C16.8946 19.5196 17 19.2652 17 19C17 18.7348 16.8946 18.4804 16.7071 18.2929C16.5196 18.1054 16.2652 18 16 18C15.7348 18 15.4804 18.1054 15.2929 18.2929C15.1054 18.4804 15 18.7348 15 19Z" stroke="currentColor" stroke-width="1.5" stroke-linecap="round" stroke-linejoin="round"/>
</svg>
