<svg width="24" height="24" viewBox="0 0 24 24" fill="none" xmlns="http://www.w3.org/2000/svg">
<path d="M9 21V15C9 14.4696 9.21071 13.9609 9.58579 13.5858C9.96086 13.2107 10.4696 13 11 13H13C13.645 13 14.218 13.305 14.584 13.78M20 11L12 3L3 12H5V19C5 19.5304 5.21071 20.0391 5.58579 20.4142C5.96086 20.7893 6.46957 21 7 21H11M18.42 15.61C18.615 15.415 18.8465 15.2603 19.1013 15.1547C19.3561 15.0492 19.6292 14.9949 19.905 14.9949C20.1808 14.9949 20.4539 15.0492 20.7087 15.1547C20.9635 15.2603 21.195 15.415 21.39 15.61C21.585 15.805 21.7397 16.0365 21.8452 16.2913C21.9508 16.5461 22.0051 16.8192 22.0051 17.095C22.0051 17.3708 21.9508 17.6439 21.8452 17.8987C21.7397 18.1535 21.585 18.385 21.39 18.58L18 22H15V19L18.42 15.61Z" stroke="currentColor" stroke-width="1.5" stroke-linecap="round" stroke-linejoin="round"/>
</svg>
