<svg width="24" height="24" viewBox="0 0 24 24" fill="none" xmlns="http://www.w3.org/2000/svg">
<path d="M18 9L12 3L3 12H5V19C5 19.5304 5.21071 20.0391 5.58579 20.4142C5.96086 20.7893 6.46957 21 7 21H10.5M9 21V15C9 14.4696 9.21071 13.9609 9.58579 13.5858C9.96086 13.2107 10.4696 13 11 13H13M16 17.5L15.415 16.922C15.1385 16.6793 14.783 16.5454 14.415 16.5454C14.047 16.5454 13.6916 16.6793 13.415 16.922C12.938 17.355 12.864 18.034 13.238 18.544L15 21C15.37 21.506 16.331 22 17 22H20C21.009 22 21.497 21.317 21.622 20.407C21.874 19.469 22 18.667 22 18C22 17 21.061 16.157 20 16H19V13.364C19 12.61 18.328 12 17.5 12C16.672 12 16 12.61 16 13.364V17.5Z" stroke="currentColor" stroke-width="1.5" stroke-linecap="round" stroke-linejoin="round"/>
</svg>
