<svg width="24" height="24" viewBox="0 0 24 24" fill="none" xmlns="http://www.w3.org/2000/svg">
<path d="M20 11L12 3L3 12H5V19C5 19.5304 5.21071 20.0391 5.58579 20.4142C5.96086 20.7893 6.46957 21 7 21H12M9 21V15C9 14.4696 9.21071 13.9609 9.58579 13.5858C9.96086 13.2107 10.4696 13 11 13H13C13.325 13 13.631 13.077 13.902 13.215M16 22C16 22 16 20 19 18M19 21C18.2044 21 17.4413 20.6839 16.8787 20.1213C16.3161 19.5587 16 18.7956 16 18C16 17.2044 16.3161 16.4413 16.8787 15.8787C17.4413 15.3161 18.2044 15 19 15H22V18C22 18.7956 21.6839 19.5587 21.1213 20.1213C20.5587 20.6839 19.7956 21 19 21Z" stroke="currentColor" stroke-width="1.5" stroke-linecap="round" stroke-linejoin="round"/>
</svg>
