<svg width="24" height="24" viewBox="0 0 24 24" fill="none" xmlns="http://www.w3.org/2000/svg">
<path d="M19 9L19.864 18.506C19.8812 18.6956 19.8588 18.8866 19.7981 19.067C19.7373 19.2474 19.6397 19.4132 19.5114 19.5537C19.383 19.6943 19.2268 19.8066 19.0527 19.8834C18.8786 19.9602 18.6903 19.9999 18.5 20H18.354C17.9543 20 17.5638 19.8803 17.2328 19.6562C16.9018 19.4322 16.6455 19.1141 16.497 18.743L15.503 16.257C15.3545 15.8859 15.0982 15.5678 14.7672 15.3438C14.4362 15.1197 14.0457 15 13.646 15H12.354C11.9543 15 11.5638 15.1197 11.2328 15.3438C10.9018 15.5678 10.6455 15.8859 10.497 16.257L9.503 18.743C9.35451 19.1141 9.09824 19.4322 8.76724 19.6562C8.43624 19.8803 8.0457 20 7.646 20H7.5C7.31034 20 7.12279 19.9602 6.94945 19.8832C6.77611 19.8063 6.62084 19.6938 6.49363 19.5531C6.36643 19.4125 6.27013 19.2467 6.21094 19.0665C6.15175 18.8863 6.13099 18.6957 6.15 18.507L7 10L4 12L2 10L5 4C8 4 11 6 11 9H19ZM19 9C19.7956 9 20.5587 9.31607 21.1213 9.87868C21.6839 10.4413 22 11.2044 22 12V14" stroke="currentColor" stroke-width="1.5" stroke-linecap="round" stroke-linejoin="round"/>
</svg>
