<svg width="24" height="24" viewBox="0 0 24 24" fill="none" xmlns="http://www.w3.org/2000/svg">
<path d="M17 2C17.5046 1.99984 17.9906 2.19041 18.3605 2.5335C18.7305 2.87659 18.9572 3.34684 18.995 3.85L19 4V6C19.0005 7.20793 18.6883 8.39542 18.0937 9.44687C17.4991 10.4983 16.6424 11.3779 15.607 12C16.6031 12.5982 17.4344 13.4351 18.0259 14.4352C18.6175 15.4353 18.9505 16.5669 18.995 17.728L19 18V20C19.0002 20.5046 18.8096 20.9906 18.4665 21.3605C18.1234 21.7305 17.6532 21.9572 17.15 21.995L17 22H7C6.49542 22.0002 6.00943 21.8096 5.63945 21.4665C5.26947 21.1234 5.04284 20.6532 5.005 20.15L5 20V18C4.99946 16.7921 5.31168 15.6046 5.90628 14.5531C6.50088 13.5017 7.35758 12.6221 8.393 12C7.39692 11.4018 6.56558 10.5649 5.97406 9.56479C5.38254 8.56473 5.04949 7.43305 5.005 6.272L5 6V4C4.99984 3.49542 5.19041 3.00943 5.5335 2.63945C5.87659 2.26947 6.34685 2.04284 6.85 2.005L7 2H17Z" fill="currentColor"/>
</svg>
