<svg width="24" height="24" viewBox="0 0 24 24" fill="none" xmlns="http://www.w3.org/2000/svg">
<path d="M3 19H20C20.2652 19 20.5196 18.8946 20.7071 18.7071C20.8946 18.5196 21 18.2652 21 18M9 15V19M15 15V19M5.90511 5.00001H9.32311C9.52293 5.00014 9.71814 5.06013 9.88354 5.17224C10.049 5.28435 10.177 5.44345 10.2511 5.62901L11.3941 8.48501C11.58 8.95001 11.8794 9.36107 12.2649 9.68072C12.6504 10.0004 13.1097 10.2184 13.6011 10.315L18.3181 11.241C18.792 11.3342 19.2188 11.589 19.5256 11.9621C19.8324 12.3351 20.0001 12.803 20.0001 13.286V14C20.0001 14.2652 19.8948 14.5196 19.7072 14.7071C19.5197 14.8947 19.2653 15 19.0001 15H5.10511C4.96493 15.0007 4.82618 14.9719 4.69784 14.9156C4.5695 14.8592 4.45445 14.7764 4.36016 14.6727C4.26586 14.569 4.19443 14.4466 4.15049 14.3135C4.10655 14.1804 4.09109 14.0395 4.10511 13.9L4.90511 5.90001C4.92999 5.65249 5.04623 5.42312 5.23114 5.25671C5.41604 5.09029 5.65634 4.99877 5.90511 5.00001Z" stroke="currentColor" stroke-width="1.5" stroke-linecap="round" stroke-linejoin="round"/>
</svg>
