<svg width="24" height="24" viewBox="0 0 24 24" fill="none" xmlns="http://www.w3.org/2000/svg">
<path d="M17.657 11C17.9766 10.0951 18.0745 9.12667 17.9424 8.17608C17.8103 7.22549 17.4522 6.32046 16.8979 5.53694C16.3437 4.75342 15.6096 4.11428 14.7573 3.67317C13.9049 3.23205 12.9592 3.00183 11.9995 3.00183C11.0398 3.00183 10.0941 3.23205 9.24174 3.67317C8.3894 4.11428 7.65531 4.75342 7.10109 5.53694C6.54687 6.32046 6.18869 7.22549 6.05661 8.17608C5.92452 9.12667 6.0224 10.0951 6.34201 11M17.657 11L12 22L6.34201 11M17.657 11H6.34201" stroke="currentColor" stroke-width="1.5" stroke-linecap="round" stroke-linejoin="round"/>
</svg>
