<svg width="24" height="24" viewBox="0 0 24 24" fill="none" xmlns="http://www.w3.org/2000/svg">
<path d="M4.00984 4.04095C3.52488 4.53215 3.19599 5.1558 3.06454 5.83344C2.93309 6.51108 3.00495 7.21246 3.27109 7.84937C3.53722 8.48628 3.98574 9.03027 4.56024 9.41292C5.13475 9.79558 5.80957 9.99982 6.49984 9.99995C7.47484 9.99995 8.36484 9.64295 8.99984 8.99995M9.95784 5.95595C9.84254 5.22625 9.4995 4.55168 8.97775 4.02868C8.456 3.50567 7.78226 3.161 7.05284 3.04395M14 3L21 10M14 10L21 3M18 14H21V17M14 14V21H21L3 3M2.5 21H10.5L6.5 14L2.5 21Z" stroke="currentColor" stroke-width="1.5" stroke-linecap="round" stroke-linejoin="round"/>
</svg>
