<svg width="24" height="24" viewBox="0 0 24 24" fill="none" xmlns="http://www.w3.org/2000/svg">
<path d="M8 4H18C18.7956 4 19.5587 4.31607 20.1213 4.87868C20.6839 5.44129 21 6.20435 21 7V17M19.563 19.561C19.108 19.84 18.573 20 18 20H6C5.20435 20 4.44129 19.6839 3.87868 19.1213C3.31607 18.5587 3 17.7956 3 17V7C3 5.917 3.573 4.969 4.433 4.441M8.17488 8.17798C7.88048 8.31141 7.62281 8.51419 7.42393 8.76898C7.22505 9.02377 7.09088 9.32297 7.03291 9.64095C6.97495 9.95893 6.99491 10.2862 7.0911 10.5948C7.18729 10.9034 7.35683 11.184 7.58521 11.4128C7.81359 11.6415 8.094 11.8115 8.40243 11.9081C8.71086 12.0048 9.03812 12.0252 9.35619 11.9677C9.67425 11.9102 9.97365 11.7765 10.2287 11.578C10.4838 11.3795 10.687 11.1222 10.8209 10.828M15 8H17M16 12H17M7 16H16M3 3L21 21" stroke="currentColor" stroke-width="1.5" stroke-linecap="round" stroke-linejoin="round"/>
</svg>
