<svg width="24" height="24" viewBox="0 0 24 24" fill="none" xmlns="http://www.w3.org/2000/svg">
<path d="M12.0001 12C11.4514 13.0652 10.7157 14.0231 9.82812 14.828C9.26876 15.3875 8.55603 15.7686 7.78007 15.9231C7.00412 16.0775 6.19979 15.9984 5.46881 15.6956C4.73784 15.3929 4.11305 14.8802 3.67347 14.2224C3.23389 13.5646 2.99927 12.7912 2.99927 12C2.99927 11.2088 3.23389 10.4354 3.67347 9.7776C4.11305 9.11977 4.73784 8.60708 5.46881 8.30437C6.19979 8.00165 7.00412 7.92251 7.78007 8.07695C8.55603 8.23139 9.26876 8.61247 9.82812 9.172C10.7157 9.97693 11.4514 10.9348 12.0001 12ZM12.0001 12C12.5488 10.9348 13.2845 9.97693 14.1721 9.172C14.7315 8.61247 15.4442 8.23139 16.2202 8.07695C16.9961 7.92251 17.8005 8.00165 18.5314 8.30437C19.2624 8.60708 19.8872 9.11977 20.3268 9.7776C20.7663 10.4354 21.001 11.2088 21.001 12C21.001 12.7912 20.7663 13.5646 20.3268 14.2224C19.8872 14.8802 19.2624 15.3929 18.5314 15.6956C17.8005 15.9984 16.9961 16.0775 16.2202 15.9231C15.4442 15.7686 14.7315 15.3875 14.1721 14.828C13.2845 14.0231 12.5488 13.0652 12.0001 12Z" stroke="currentColor" stroke-width="1.5" stroke-linecap="round" stroke-linejoin="round"/>
</svg>
