<svg width="24" height="24" viewBox="0 0 24 24" fill="none" xmlns="http://www.w3.org/2000/svg">
<path d="M8.16502 8.17401C7.56716 7.99181 6.93491 7.95226 6.319 8.05852C5.70309 8.16477 5.12064 8.41388 4.61838 8.78586C4.11612 9.15784 3.70801 9.64235 3.42679 10.2005C3.14557 10.7587 2.99907 11.375 2.99902 12C2.99899 12.7912 3.23361 13.5647 3.6732 14.2225C4.11278 14.8804 4.73759 15.3931 5.4686 15.6958C6.1996 15.9985 7.00396 16.0776 7.77994 15.9232C8.55593 15.7687 9.26867 15.3876 9.82802 14.828C10.7156 14.0231 11.4513 13.0652 12 12C12.5487 13.0652 13.2844 14.0231 14.172 14.828C14.6223 15.2783 15.1736 15.6147 15.78 15.809M13.677 9.65301C13.8364 9.48702 14.0015 9.32659 14.172 9.17201C14.5639 8.77955 15.0331 8.47288 15.5498 8.27145C16.0665 8.07002 16.6195 7.97824 17.1735 8.00195C17.7276 8.02565 18.2707 8.16431 18.7684 8.40913C19.266 8.65395 19.7073 8.99957 20.0642 9.42405C20.4211 9.84853 20.6858 10.3426 20.8416 10.8749C20.9973 11.4071 21.0407 11.966 20.969 12.5159C20.8972 13.0658 20.7119 13.5948 20.4247 14.0693C20.1376 14.5438 19.7549 14.9533 19.301 15.272M3 3L21 21" stroke="currentColor" stroke-width="1.5" stroke-linecap="round" stroke-linejoin="round"/>
</svg>
