<svg width="24" height="24" viewBox="0 0 24 24" fill="none" xmlns="http://www.w3.org/2000/svg">
<path d="M12.0002 1.67004C12.9552 1.67004 13.8452 2.13704 14.3902 2.91704L14.4952 3.07704L22.6092 16.625C22.8558 17.0521 22.9899 17.5348 22.9991 18.0279C23.0083 18.5209 22.8922 19.0083 22.6617 19.4442C22.4311 19.8802 22.0938 20.2505 21.6811 20.5205C21.2684 20.7905 20.794 20.9514 20.3022 20.988L20.1072 20.996H3.88219C3.38989 20.9905 2.90702 20.8603 2.47866 20.6177C2.05029 20.375 1.69039 20.0277 1.43255 19.6083C1.17472 19.1889 1.02735 18.711 1.0042 18.2192C0.981052 17.7274 1.08288 17.2378 1.30019 16.796L1.39919 16.611L9.50919 3.07304C9.76885 2.64486 10.1345 2.29081 10.5708 2.04506C11.0071 1.79931 11.4994 1.67015 12.0002 1.67004ZM12.0002 11H11.0002L10.8832 11.007C10.6401 11.036 10.4161 11.153 10.2536 11.336C10.0911 11.519 10.0013 11.7553 10.0013 12C10.0013 12.2448 10.0911 12.4811 10.2536 12.6641C10.4161 12.8471 10.6401 12.9641 10.8832 12.993L11.0002 13V16L11.0072 16.117C11.0335 16.3403 11.1343 16.5481 11.2932 16.707C11.4521 16.866 11.66 16.9667 11.8832 16.993L12.0002 17H13.0002L13.1172 16.993C13.3404 16.9667 13.5482 16.866 13.7072 16.707C13.8661 16.5481 13.9669 16.3403 13.9932 16.117L14.0002 16L13.9932 15.883C13.9693 15.679 13.8831 15.4873 13.7464 15.334C13.6097 15.1806 13.4291 15.0731 13.2292 15.026L13.1172 15.006L13.0002 15V12L12.9932 11.883C12.9669 11.6598 12.8661 11.452 12.7072 11.2931C12.5482 11.1341 12.3404 11.0334 12.1172 11.007L12.0002 11ZM12.0102 8.00004L11.8832 8.00704C11.6401 8.03595 11.4161 8.153 11.2536 8.33601C11.0911 8.51902 11.0013 8.75528 11.0013 9.00004C11.0013 9.24481 11.0911 9.48107 11.2536 9.66408C11.4161 9.84709 11.6401 9.96413 11.8832 9.99304L12.0002 10L12.1272 9.99304C12.3702 9.96413 12.5942 9.84709 12.7568 9.66408C12.9193 9.48107 13.0091 9.24481 13.0091 9.00004C13.0091 8.75528 12.9193 8.51902 12.7568 8.33601C12.5942 8.153 12.3702 8.03595 12.1272 8.00704L12.0102 8.00004Z" fill="currentColor"/>
</svg>
