<svg width="24" height="24" viewBox="0 0 24 24" fill="none" xmlns="http://www.w3.org/2000/svg">
<path d="M10.425 1.41399C10.8858 1.15986 11.4003 1.01857 11.9263 1.00171C12.4523 0.984849 12.9748 1.09289 13.451 1.31699L13.641 1.41399L20.416 5.40899L20.512 5.47199L20.604 5.54899L20.711 5.62399C21.0585 5.88459 21.3498 6.21274 21.5674 6.58873C21.7849 6.96472 21.9243 7.3808 21.977 7.81199L21.995 8.01399L22 8.21799V15.502C22 16.608 21.43 17.631 20.546 18.195L20.376 18.295L13.573 22.597C12.655 23.101 11.554 23.132 10.569 22.665L10.373 22.565L3.678 18.328C3.20148 18.0674 2.79847 17.6908 2.50636 17.233C2.21424 16.7751 2.04248 16.2509 2.007 15.709L2 15.502V8.21699C2 7.11099 2.57 6.08899 3.476 5.51199L10.425 1.41399ZM12 11H11L10.883 11.007C10.64 11.0359 10.4159 11.1529 10.2534 11.336C10.0909 11.519 10.0011 11.7552 10.0011 12C10.0011 12.2447 10.0909 12.481 10.2534 12.664C10.4159 12.847 10.64 12.9641 10.883 12.993L11 13V16L11.007 16.117C11.0333 16.3402 11.1341 16.548 11.293 16.707C11.4519 16.8659 11.6598 16.9667 11.883 16.993L12 17H13L13.117 16.993C13.3402 16.9667 13.5481 16.8659 13.707 16.707C13.8659 16.548 13.9667 16.3402 13.993 16.117L14 16L13.993 15.883C13.9691 15.679 13.8829 15.4873 13.7462 15.3339C13.6095 15.1806 13.4289 15.0731 13.229 15.026L13.117 15.006L13 15V12L12.993 11.883C12.9667 11.6598 12.8659 11.4519 12.707 11.293C12.5481 11.1341 12.3402 11.0333 12.117 11.007L12 11ZM12.01 7.99999L11.883 8.00699C11.64 8.0359 11.4159 8.15294 11.2534 8.33595C11.0909 8.51896 11.0011 8.75522 11.0011 8.99999C11.0011 9.24475 11.0909 9.48101 11.2534 9.66402C11.4159 9.84703 11.64 9.96408 11.883 9.99299L12 9.99999L12.127 9.99299C12.37 9.96408 12.5941 9.84703 12.7566 9.66402C12.9191 9.48101 13.0089 9.24475 13.0089 8.99999C13.0089 8.75522 12.9191 8.51896 12.7566 8.33595C12.5941 8.15294 12.37 8.0359 12.127 8.00699L12.01 7.99999Z" fill="currentColor"/>
</svg>
