<svg width="24" height="24" viewBox="0 0 24 24" fill="none" xmlns="http://www.w3.org/2000/svg">
<path d="M7.75684 16.243C8.314 16.8003 8.97548 17.2423 9.7035 17.5439C10.4315 17.8455 11.2118 18.0008 11.9998 18.0008C12.7879 18.0008 13.5682 17.8455 14.2962 17.5439C15.0242 17.2423 15.6857 16.8003 16.2428 16.243M18.3641 18.3641C19.1998 17.5283 19.8627 16.5362 20.315 15.4442C20.7673 14.3523 21.0001 13.182 21.0001 12.0001C21.0001 10.8182 20.7673 9.64782 20.315 8.55588C19.8627 7.46395 19.1998 6.47179 18.3641 5.63605C17.5283 4.80032 16.5362 4.13738 15.4442 3.68509C14.3523 3.23279 13.182 3 12.0001 3C10.8182 3 9.64782 3.23279 8.55588 3.68509C7.46395 4.13738 6.47179 4.80032 5.63606 5.63606C3.94822 7.32389 3 9.61309 3 12.0001C3 14.387 3.94822 16.6762 5.63606 18.3641C7.32389 20.0519 9.61309 21.0001 12.0001 21.0001C14.387 21.0001 16.6762 20.0519 18.3641 18.3641Z" stroke="currentColor" stroke-width="1.5" stroke-linecap="round" stroke-linejoin="round"/>
</svg>
