<svg width="24" height="24" viewBox="0 0 24 24" fill="none" xmlns="http://www.w3.org/2000/svg">
<path d="M12 2C17.523 2 22 6.477 22 12C22 17.523 17.523 22 12 22C6.477 22 2 17.523 2 12C2 6.477 6.477 2 12 2ZM12 5C11.7348 5 11.4804 5.10536 11.2929 5.29289C11.1054 5.48043 11 5.73478 11 6C11 6.26522 11.1054 6.51957 11.2929 6.70711C11.4804 6.89464 11.7348 7 12 7C13.3261 7 14.5979 7.52678 15.5355 8.46447C16.4732 9.40215 17 10.6739 17 12C17 12.2652 17.1054 12.5196 17.2929 12.7071C17.4804 12.8946 17.7348 13 18 13C18.2652 13 18.5196 12.8946 18.7071 12.7071C18.8946 12.5196 19 12.2652 19 12C19 10.1435 18.2625 8.36301 16.9497 7.05025C15.637 5.7375 13.8565 5 12 5Z" fill="currentColor"/>
</svg>
