<svg width="24" height="24" viewBox="0 0 24 24" fill="none" xmlns="http://www.w3.org/2000/svg">
<path d="M5.14424 4.71997C9.06424 1.02497 15.2372 1.09497 19.0712 4.92897C22.9762 8.83397 22.9762 15.166 19.0712 19.071C15.1662 22.976 8.83424 22.976 4.92924 19.071C1.02424 15.166 1.02424 8.83397 4.92924 4.92897L5.14424 4.71997ZM8.46424 15.536C8.37199 15.4405 8.26165 15.3643 8.13964 15.3119C8.01764 15.2595 7.88642 15.2319 7.75364 15.2307C7.62086 15.2296 7.48918 15.2549 7.36628 15.3051C7.24339 15.3554 7.13174 15.4297 7.03784 15.5236C6.94395 15.6175 6.8697 15.7291 6.81942 15.852C6.76914 15.9749 6.74383 16.1066 6.74499 16.2394C6.74614 16.3721 6.77373 16.5034 6.82614 16.6254C6.87855 16.7474 6.95473 16.8577 7.05024 16.95C7.70026 17.6001 8.47196 18.1157 9.32129 18.4676C10.1706 18.8194 11.0809 19.0005 12.0002 19.0005C12.9196 19.0005 13.8299 18.8194 14.6792 18.4676C15.5285 18.1157 16.3002 17.6001 16.9502 16.95C17.1324 16.7614 17.2332 16.5088 17.2309 16.2466C17.2286 15.9844 17.1235 15.7336 16.9381 15.5481C16.7526 15.3627 16.5018 15.2576 16.2396 15.2553C15.9774 15.253 15.7248 15.3538 15.5362 15.536C15.0719 16.0004 14.5207 16.3688 13.914 16.6202C13.3072 16.8715 12.657 17.0009 12.0002 17.0009C11.3435 17.0009 10.6932 16.8715 10.0865 16.6202C9.4798 16.3688 8.92855 16.0004 8.46424 15.536Z" fill="currentColor"/>
</svg>
