<svg width="24" height="24" viewBox="0 0 24 24" fill="none" xmlns="http://www.w3.org/2000/svg">
<path d="M4.92875 4.92899C8.83375 1.02399 15.1657 1.02399 19.0707 4.92899C22.9757 8.83399 22.9757 15.166 19.0707 19.071C15.1657 22.976 8.83375 22.976 4.92875 19.071C1.02375 15.166 1.02375 8.83399 4.92875 4.92899ZM16.9487 7.04999C16.7593 6.87234 16.5082 6.77536 16.2485 6.77958C15.9888 6.78379 15.7409 6.88888 15.5574 7.07259C15.3738 7.2563 15.2689 7.50423 15.2648 7.76392C15.2608 8.0236 15.358 8.27467 15.5358 8.46399C16.0002 8.9283 16.3686 9.47956 16.62 10.0863C16.8713 10.693 17.0007 11.3433 17.0007 12C17.0007 12.6567 16.8713 13.307 16.62 13.9137C16.3686 14.5204 16.0002 15.0717 15.5358 15.536C15.3536 15.7246 15.2528 15.9772 15.2551 16.2394C15.2574 16.5016 15.3625 16.7524 15.5479 16.9378C15.7333 17.1232 15.9842 17.2284 16.2463 17.2307C16.5085 17.2329 16.7611 17.1322 16.9498 16.95C17.5998 16.3 18.1155 15.5283 18.4673 14.6789C18.8192 13.8296 19.0003 12.9193 19.0003 12C19.0003 11.0807 18.8192 10.1704 18.4673 9.32104C18.1155 8.47172 17.5998 7.70001 16.9498 7.04999H16.9487Z" fill="currentColor"/>
</svg>
