<svg width="24" height="24" viewBox="0 0 24 24" fill="none" xmlns="http://www.w3.org/2000/svg">
<path d="M4.92875 4.92899C8.83375 1.02399 15.1657 1.02399 19.0707 4.92899C22.9757 8.83399 22.9757 15.166 19.0707 19.071C15.1657 22.976 8.83375 22.976 4.92875 19.071C1.02375 15.166 1.02375 8.83399 4.92875 4.92899ZM8.46375 7.04999C8.27622 6.86252 8.02191 6.75721 7.75675 6.75721C7.49159 6.75721 7.23728 6.86252 7.04975 7.04999C6.39966 7.70001 5.88398 8.47172 5.53216 9.32104C5.18033 10.1704 4.99925 11.0807 4.99925 12C4.99925 12.9193 5.18033 13.8296 5.53216 14.6789C5.88398 15.5283 6.39966 16.3 7.04975 16.95C7.142 17.0455 7.25234 17.1217 7.37435 17.1741C7.49635 17.2265 7.62757 17.2541 7.76035 17.2552C7.89313 17.2564 8.02481 17.2311 8.1477 17.1808C8.2706 17.1305 8.38225 17.0563 8.47614 16.9624C8.57004 16.8685 8.64429 16.7568 8.69457 16.6339C8.74485 16.5111 8.77015 16.3794 8.769 16.2466C8.76785 16.1138 8.74026 15.9826 8.68785 15.8606C8.63544 15.7386 8.55926 15.6282 8.46375 15.536C7.99932 15.0717 7.6309 14.5204 7.37955 13.9137C7.12819 13.307 6.99882 12.6567 6.99882 12C6.99882 11.3433 7.12819 10.693 7.37955 10.0863C7.6309 9.47956 7.99932 8.9283 8.46375 8.46399C8.65122 8.27647 8.75654 8.02216 8.75654 7.75699C8.75654 7.49183 8.65122 7.23752 8.46375 7.04999Z" fill="currentColor"/>
</svg>
