<svg width="24" height="24" viewBox="0 0 24 24" fill="none" xmlns="http://www.w3.org/2000/svg">
<path d="M4.92875 4.92899C8.83375 1.02399 15.1657 1.02399 19.0707 4.92899C22.9757 8.83399 22.9757 15.166 19.0707 19.071C15.1657 22.976 8.83375 22.976 4.92875 19.071C1.02375 15.166 1.02375 8.83399 4.92875 4.92899ZM16.9487 7.04999C15.636 5.73739 13.8556 4.99999 11.9993 4.99999C10.1429 4.99999 8.36248 5.73739 7.04975 7.04999C6.86759 7.2386 6.7668 7.4912 6.76908 7.7534C6.77135 8.01559 6.87652 8.2664 7.06193 8.45181C7.24734 8.63722 7.49815 8.74239 7.76035 8.74467C8.02255 8.74695 8.27515 8.64615 8.46375 8.46399C8.92806 7.99956 9.47931 7.63115 10.086 7.37979C10.6927 7.12843 11.343 6.99906 11.9998 6.99906C12.6565 6.99906 13.3068 7.12843 13.9135 7.37979C14.5202 7.63115 15.0714 7.99956 15.5358 8.46399C15.7244 8.64615 15.977 8.74695 16.2392 8.74467C16.5013 8.74239 16.7522 8.63722 16.9376 8.45181C17.123 8.2664 17.2281 8.01559 17.2304 7.7534C17.2327 7.4912 17.1319 7.2386 16.9498 7.04999H16.9487Z" fill="currentColor"/>
</svg>
