<svg width="24" height="24" viewBox="0 0 24 24" fill="none" xmlns="http://www.w3.org/2000/svg">
<path d="M9 6H16.459C17.1691 6.00005 17.8562 6.25202 18.3981 6.71107C18.9399 7.17013 19.3013 7.80651 19.418 8.507L20.805 16.836C20.8288 16.9791 20.8212 17.1257 20.7826 17.2656C20.7441 17.4054 20.6756 17.5352 20.5819 17.646C20.4882 17.7567 20.3715 17.8457 20.2399 17.9069C20.1084 17.968 19.9651 17.9998 19.82 18H3C3 16.1435 3.7375 14.363 5.05025 13.0503C6.36301 11.7375 8.14348 11 10 11H19.8M12 15H12.01" stroke="currentColor" stroke-width="1.5" stroke-linecap="round" stroke-linejoin="round"/>
</svg>
