<svg width="24" height="24" viewBox="0 0 24 24" fill="none" xmlns="http://www.w3.org/2000/svg">
<path d="M9 4H16.459C17.1691 4.00005 17.8562 4.25202 18.3981 4.71107C18.9399 5.17013 19.3013 5.80651 19.418 6.507L20.805 14.836C20.8484 15.0973 20.7863 15.3652 20.6324 15.5808C20.4785 15.7964 20.2453 15.9422 19.984 15.986M16 16H3C2.99977 14.3068 3.61324 12.671 4.72674 11.3955C5.84024 10.12 7.37831 9.29132 9.056 9.06299M13 9H19.8M12 19V21M8 19L7 21M16 19L17 21M3 3L21 21" stroke="currentColor" stroke-width="1.5" stroke-linecap="round" stroke-linejoin="round"/>
</svg>
