<svg width="24" height="24" viewBox="0 0 24 24" fill="none" xmlns="http://www.w3.org/2000/svg">
<path d="M4.70578 4.73002C4.51348 4.84199 4.36403 5.01491 4.28107 5.22139C4.19811 5.42788 4.1864 5.65613 4.24778 5.87002L5.99978 12M5.99978 12L4.24778 18.13C4.17938 18.3685 4.20209 18.6239 4.3115 18.8466C4.4209 19.0693 4.60919 19.2434 4.83978 19.335L11.1218 21.838C11.6872 22.054 12.3124 22.054 12.8778 21.838L19.1598 19.335C19.1998 19.319 19.2388 19.3 19.2758 19.28M5.99978 12L11.21 13.862C11.7207 14.0452 12.2793 14.0452 12.79 13.862L13.532 13.597M18.8018 14.806L17.9998 12M17.9998 12L19.7518 5.87002C19.8202 5.63151 19.7975 5.3761 19.6881 5.1534C19.5787 4.93071 19.3904 4.75664 19.1598 4.66502L12.8778 2.16202C12.3124 1.94599 11.6872 1.94599 11.1218 2.16202L7.57778 3.57402M17.9998 12C17.3038 12.249 16.8 12.43 16.488 12.54M4.5 5.5C5.161 5.714 5.661 5.88 6 6M12 8C12.29 7.997 12.603 7.94 12.878 7.83L19.5 5.5M12 22V12M3 3L21 21" stroke="currentColor" stroke-width="1.5" stroke-linecap="round" stroke-linejoin="round"/>
</svg>
