<svg width="24" height="24" viewBox="0 0 24 24" fill="none" xmlns="http://www.w3.org/2000/svg">
<path d="M6.00022 12L4.24822 5.86902C4.1801 5.63065 4.20295 5.37548 4.31234 5.15301C4.42173 4.93053 4.60986 4.75662 4.84022 4.66502L11.1222 2.16202C11.6876 1.94599 12.3128 1.94599 12.8782 2.16202L19.1602 4.66502C19.3908 4.75664 19.5791 4.93071 19.6885 5.1534C19.7979 5.3761 19.8206 5.63151 19.7522 5.87002L18.0002 12L12.79 13.862C12.2793 14.0452 11.7207 14.0452 11.21 13.862L6.00022 12ZM6.00022 12L4.24822 18.13C4.17982 18.3685 4.20253 18.6239 4.31194 18.8466C4.42135 19.0693 4.60964 19.2434 4.84022 19.335L11.1222 21.838C11.6876 22.054 12.3128 22.054 12.8782 21.838L13.0992 21.75M4.5 5.5L11.122 7.83C11.6853 8.05691 12.3147 8.05691 12.878 7.83L19.5 5.5M12 22V8M16 19H22M19 16V22" stroke="currentColor" stroke-width="1.5" stroke-linecap="round" stroke-linejoin="round"/>
</svg>
