<svg width="24" height="24" viewBox="0 0 24 24" fill="none" xmlns="http://www.w3.org/2000/svg">
<path d="M16 3L12 8M16 3H8M16 3C16.5304 3 17.0391 3.21071 17.4142 3.58579C17.7893 3.96086 18 4.46957 18 5V7.172C18.0001 7.70239 18.2109 8.21101 18.586 8.586L19.414 9.414C19.7891 9.78899 19.9999 10.2976 20 10.828V19C20 19.5304 19.7893 20.0391 19.4142 20.4142C19.0391 20.7893 18.5304 21 18 21H14C13.4696 21 12.9609 20.7893 12.5858 20.4142C12.2107 20.0391 12 19.5304 12 19M12 8L8 3M12 8V19M8 3C7.46957 3 6.96086 3.21071 6.58579 3.58579C6.21071 3.96086 6 4.46957 6 5V7.172C5.99989 7.70239 5.7891 8.21101 5.414 8.586L4.586 9.414C4.2109 9.78899 4.00011 10.2976 4 10.828V19C4 19.5304 4.21071 20.0391 4.58579 20.4142C4.96086 20.7893 5.46957 21 6 21H10C10.5304 21 11.0391 20.7893 11.4142 20.4142C11.7893 20.0391 12 19.5304 12 19M20 13H17C16.7348 13 16.4804 13.1054 16.2929 13.2929C16.1054 13.4804 16 13.7348 16 14V16C16 16.2652 16.1054 16.5196 16.2929 16.7071C16.4804 16.8946 16.7348 17 17 17H20M4 17H7C7.26522 17 7.51957 16.8946 7.70711 16.7071C7.89464 16.5196 8 16.2652 8 16V14C8 13.7348 7.89464 13.4804 7.70711 13.2929C7.51957 13.1054 7.26522 13 7 13H4" stroke="currentColor" stroke-width="1.5" stroke-linecap="round" stroke-linejoin="round"/>
</svg>
