<svg width="24" height="24" viewBox="0 0 24 24" fill="none" xmlns="http://www.w3.org/2000/svg">
<path d="M8.43275 6.00003H2.99975L2.88575 6.00603C2.71959 6.02517 2.56089 6.08568 2.42418 6.18202C2.28746 6.27836 2.17709 6.40745 2.10317 6.55748C2.02924 6.70751 1.99413 6.87369 2.00105 7.0408C2.00796 7.20791 2.05668 7.37062 2.14275 7.51403L4.83275 12L2.14275 16.486L2.08875 16.586C2.01944 16.7384 1.9895 16.9058 2.00167 17.0727C2.01384 17.2397 2.06772 17.4009 2.15839 17.5416C2.24905 17.6824 2.37359 17.7981 2.52059 17.8782C2.66759 17.9582 2.83235 18.0001 2.99975 18H8.43375L11.1427 22.514L11.2167 22.622C11.3173 22.7484 11.447 22.8486 11.5947 22.914C11.7425 22.9793 11.9038 23.0079 12.065 22.9973C12.2262 22.9867 12.3824 22.9372 12.5203 22.853C12.6582 22.7688 12.7736 22.6525 12.8567 22.514L15.5647 18H20.9997L21.1137 17.994C21.2799 17.9749 21.4386 17.9144 21.5753 17.818C21.712 17.7217 21.8224 17.5926 21.8963 17.4426C21.9702 17.2925 22.0054 17.1264 21.9984 16.9593C21.9915 16.7921 21.9428 16.6294 21.8567 16.486L19.1657 12L21.8567 7.51403L21.9107 7.41403C21.98 7.26164 22.01 7.0943 21.9978 6.92734C21.9857 6.76038 21.9318 6.59915 21.8411 6.45843C21.7504 6.3177 21.6259 6.20199 21.4789 6.1219C21.3319 6.04181 21.1671 5.99991 20.9997 6.00003H15.5657L12.8567 1.48603C12.7678 1.33817 12.6422 1.21584 12.492 1.13091C12.3419 1.04598 12.1723 1.00134 11.9997 1.00134C11.8272 1.00134 11.6576 1.04598 11.5075 1.13091C11.3573 1.21584 11.2317 1.33817 11.1427 1.48603L8.43275 6.00003Z" fill="currentColor"/>
</svg>
