<svg width="24" height="24" viewBox="0 0 24 24" fill="none" xmlns="http://www.w3.org/2000/svg">
<path d="M6.5 6.49988L17.5 17.4999M6.5 12.4999L11.5 17.4999M12.5 6.49988L17.5 11.4999M6.41388 6.41388C6.78882 6.03882 6.99945 5.5302 6.99945 4.99988C6.99945 4.46955 6.78882 3.96093 6.41388 3.58588L4.99988 2.17188L2.17188 4.99988L3.58588 6.41388C3.96093 6.78882 4.46955 6.99945 4.99988 6.99945C5.5302 6.99945 6.03882 6.78882 6.41388 6.41388ZM17.5861 17.5859C17.2111 17.961 17.0005 18.4696 17.0005 18.9999C17.0005 19.5303 17.2111 20.0389 17.5861 20.4139L19.0001 21.8279L21.8281 18.9999L20.4141 17.5859C20.039 17.211 19.5304 17.0004 19.0001 17.0004C18.4697 17.0004 17.9611 17.211 17.5861 17.5859ZM22 2.49988C12.017 5.10088 4.373 10.4519 2 21.9999C11.983 19.3989 19.627 14.0479 22 2.49988Z" stroke="currentColor" stroke-width="1.5" stroke-linecap="round" stroke-linejoin="round"/>
</svg>
