<svg width="24" height="24" viewBox="0 0 24 24" fill="none" xmlns="http://www.w3.org/2000/svg">
<path d="M10.17 6.15905L12.486 3.84305C12.7531 3.57585 13.0703 3.36389 13.4194 3.21928C13.7685 3.07467 14.1426 3.00024 14.5205 3.00024C14.8983 3.00024 15.2725 3.07467 15.6216 3.21928C15.9706 3.36389 16.2878 3.57585 16.555 3.84305L20.157 7.44505C20.4242 7.71221 20.6361 8.02939 20.7808 8.37847C20.9254 8.72755 20.9998 9.1017 20.9998 9.47955C20.9998 9.8574 20.9254 10.2316 20.7808 10.5806C20.6361 10.9297 20.4242 11.2469 20.157 11.5141L17.827 13.8441M14.931 14.948C14.3677 14.8395 13.85 14.5643 13.445 14.158L13.144 13.856L6.586 20.414C6.25372 20.7463 5.81507 20.9509 5.347 20.992L5.172 21H4C3.75507 21 3.51866 20.9101 3.33563 20.7473C3.15259 20.5846 3.03566 20.3603 3.007 20.117L3 20V18.828C3.00011 18.3585 3.16543 17.9039 3.467 17.544L3.586 17.414L4 17H6V15H8V13L10.144 10.856L9.843 10.555C9.4321 10.1457 9.15521 9.62121 9.049 9.05103M15 9H15.01M3 3L21 21" stroke="currentColor" stroke-width="1.5" stroke-linecap="round" stroke-linejoin="round"/>
</svg>
