<svg width="24" height="24" viewBox="0 0 24 24" fill="none" xmlns="http://www.w3.org/2000/svg">
<path d="M12 1C12.2449 1.00003 12.4813 1.08996 12.6644 1.25272C12.8474 1.41547 12.9643 1.63975 12.993 1.883L13 2V4C12.9997 4.25488 12.9021 4.50003 12.7272 4.68537C12.5522 4.8707 12.313 4.98223 12.0586 4.99717C11.8042 5.01211 11.5536 4.92933 11.3582 4.76574C11.1627 4.60214 11.0371 4.3701 11.007 4.117L11 4V2C11 1.73478 11.1054 1.48043 11.2929 1.29289C11.4804 1.10536 11.7348 1 12 1Z" fill="currentColor"/>
<path d="M11.9998 6C11.3708 6 10.7858 6.301 10.3938 6.807L7.48576 10.555C7.17277 10.9686 7.00249 11.4725 7.00051 11.9912C6.99852 12.5098 7.16495 13.0151 7.47476 13.431L10.3938 17.193C10.7838 17.698 11.3708 18 11.9998 18C12.6288 18 13.2138 17.699 13.6058 17.193L16.5138 13.445C16.8267 13.0314 16.997 12.5275 16.999 12.0088C17.001 11.4902 16.8346 10.9849 16.5248 10.569L13.6058 6.807C13.4179 6.55833 13.1753 6.35621 12.8968 6.21628C12.6184 6.07634 12.3114 6.00234 11.9998 6Z" fill="currentColor"/>
<path d="M12 19C12.2449 19 12.4813 19.09 12.6644 19.2527C12.8474 19.4155 12.9643 19.6397 12.993 19.883L13 20V22C12.9997 22.2549 12.9021 22.5 12.7272 22.6854C12.5522 22.8707 12.313 22.9822 12.0586 22.9972C11.8042 23.0121 11.5536 22.9293 11.3582 22.7657C11.1627 22.6021 11.0371 22.3701 11.007 22.117L11 22V20C11 19.7348 11.1054 19.4804 11.2929 19.2929C11.4804 19.1054 11.7348 19 12 19Z" fill="currentColor"/>
</svg>
