<svg width="24" height="24" viewBox="0 0 24 24" fill="none" xmlns="http://www.w3.org/2000/svg">
<path d="M16.9998 5L21.5858 10.836C21.8534 11.1649 21.9996 11.576 21.9996 12C21.9996 12.424 21.8534 12.8351 21.5858 13.164L16.9998 19M12.9998 5L17.5858 10.836C17.8534 11.1649 17.9996 11.576 17.9996 12C17.9996 12.424 17.8534 12.8351 17.5858 13.164L12.9998 19M9.22481 18.412C9.07652 18.5942 8.88982 18.7413 8.67806 18.843C8.4663 18.9446 8.2347 18.9982 7.99981 19C7.53181 19 7.08581 18.786 6.77481 18.412L2.41381 13.164C2.14614 12.8351 2 12.424 2 12C2 11.576 2.14614 11.1649 2.41381 10.836L6.77481 5.588C6.9231 5.40583 7.1098 5.25867 7.32156 5.15703C7.53333 5.05538 7.76492 5.00176 7.99981 5C8.46781 5 8.91381 5.214 9.22481 5.588L13.5858 10.836C13.8535 11.1649 13.9996 11.576 13.9996 12C13.9996 12.424 13.8535 12.8351 13.5858 13.164L9.22481 18.412Z" stroke="currentColor" stroke-width="1.5" stroke-linecap="round" stroke-linejoin="round"/>
</svg>
