<svg width="24" height="24" viewBox="0 0 24 24" fill="none" xmlns="http://www.w3.org/2000/svg">
<path d="M11.9999 4C11.6166 4.00216 11.2385 4.08908 10.8927 4.25453C10.547 4.41998 10.2421 4.65987 9.9999 4.957L5.6449 10.197C5.2297 10.7043 5.00226 11.3392 5.00098 11.9948C4.99971 12.6503 5.22467 13.2861 5.6379 13.795L10.0059 19.051C10.5049 19.651 11.2309 20 11.9999 20C12.3832 19.9978 12.7613 19.9109 13.1071 19.7455C13.4528 19.58 13.7577 19.3401 13.9999 19.043L18.3549 13.803C18.7701 13.2957 18.9975 12.6608 18.9988 12.0052C19.0001 11.3497 18.7751 10.7139 18.3619 10.205L13.9939 4.949C13.7519 4.65379 13.4477 4.41567 13.103 4.25162C12.7583 4.08757 12.3816 4.00165 11.9999 4Z" fill="currentColor"/>
</svg>
