<svg width="24" height="24" viewBox="0 0 24 24" fill="none" xmlns="http://www.w3.org/2000/svg">
<path d="M11.9998 6C11.3708 6 10.7858 6.301 10.3938 6.807L7.48576 10.555C7.17277 10.9686 7.00249 11.4725 7.00051 11.9912C6.99852 12.5098 7.16495 13.0151 7.47476 13.431L10.3938 17.193C10.7838 17.698 11.3708 18 11.9998 18C12.6288 18 13.2138 17.699 13.6058 17.193L16.5138 13.445C16.8267 13.0314 16.997 12.5275 16.999 12.0088C17.001 11.4902 16.8346 10.9849 16.5248 10.569L13.6058 6.807C13.4179 6.55833 13.1753 6.35621 12.8968 6.21628C12.6184 6.07634 12.3114 6.00234 11.9998 6Z" fill="currentColor"/>
<path d="M4.99987 11C5.25475 11.0003 5.4999 11.0979 5.68524 11.2728C5.87057 11.4478 5.9821 11.687 5.99704 11.9414C6.01198 12.1958 5.92919 12.4464 5.7656 12.6418C5.60201 12.8373 5.36996 12.9629 5.11687 12.993L4.99987 13H2.99987C2.74499 12.9997 2.49984 12.9021 2.3145 12.7272C2.12916 12.5522 2.01763 12.313 2.0027 12.0586C1.98776 11.8042 2.07054 11.5536 2.23413 11.3582C2.39772 11.1627 2.62977 11.0371 2.88287 11.007L2.99987 11H4.99987Z" fill="currentColor"/>
<path d="M20.9999 11C21.2547 11.0003 21.4999 11.0979 21.6852 11.2728C21.8706 11.4478 21.9821 11.687 21.997 11.9414C22.012 12.1958 21.9292 12.4464 21.7656 12.6418C21.602 12.8373 21.37 12.9629 21.1169 12.993L20.9999 13H18.9999C18.745 12.9997 18.4998 12.9021 18.3145 12.7272C18.1292 12.5522 18.0176 12.313 18.0027 12.0586C17.9878 11.8042 18.0705 11.5536 18.2341 11.3582C18.3977 11.1627 18.6298 11.0371 18.8829 11.007L18.9999 11H20.9999Z" fill="currentColor"/>
</svg>
