<svg width="24" height="24" viewBox="0 0 24 24" fill="none" xmlns="http://www.w3.org/2000/svg">
<path d="M13.2248 18.412C13.0765 18.5942 12.8898 18.7413 12.6781 18.843C12.4663 18.9446 12.2347 18.9982 11.9998 19C11.5318 19 11.0858 18.786 10.7748 18.412L6.41381 13.164C6.14614 12.8351 6 12.424 6 12C6 11.576 6.14614 11.1649 6.41381 10.836L10.7748 5.588C10.9231 5.40583 11.1098 5.25867 11.3216 5.15703C11.5333 5.05538 11.7649 5.00176 11.9998 5C12.4678 5 12.9138 5.214 13.2248 5.588L17.5858 10.836C17.8535 11.1649 17.9996 11.576 17.9996 12C17.9996 12.424 17.8535 12.8351 17.5858 13.164L13.2248 18.412Z" stroke="currentColor" stroke-width="1.5" stroke-linecap="round" stroke-linejoin="round"/>
</svg>
