<svg width="24" height="24" viewBox="0 0 24 24" fill="none" xmlns="http://www.w3.org/2000/svg">
<path d="M7.9999 4C7.61659 4.00216 7.2385 4.08908 6.89273 4.25453C6.54696 4.41998 6.24207 4.65987 5.9999 4.957L1.6449 10.197C1.2297 10.7043 1.00226 11.3392 1.00098 11.9948C0.999707 12.6503 1.22467 13.2861 1.6379 13.795L6.0059 19.051C6.5049 19.651 7.2299 20 7.9999 20C8.38321 19.9978 8.7613 19.9109 9.10707 19.7455C9.45284 19.58 9.75773 19.3401 9.9999 19.043L14.3549 13.803C14.7701 13.2957 14.9975 12.6608 14.9988 12.0052C15.0001 11.3497 14.7751 10.7139 14.3619 10.205L9.9939 4.949C9.75188 4.65379 9.44766 4.41567 9.10298 4.25162C8.75829 4.08757 8.38163 4.00165 7.9999 4Z" fill="currentColor"/>
<path d="M16.3818 4.21395C16.5732 4.06353 16.8128 3.98807 17.0558 4.00169C17.2988 4.01531 17.5285 4.11709 17.7018 4.28795L17.7858 4.38195L22.3618 10.2049C23.1698 11.1979 23.2098 12.6009 22.4918 13.6239L22.3718 13.7819L17.7858 19.6179C17.6287 19.8179 17.4013 19.9505 17.1498 19.9888C16.8984 20.027 16.6419 19.968 16.4324 19.8237C16.2229 19.6795 16.0763 19.4609 16.0223 19.2124C15.9683 18.9638 16.0111 18.7041 16.1418 18.4859L16.2138 18.3819L20.8098 12.5319C20.9202 12.3954 20.9853 12.2278 20.9961 12.0525C21.0068 11.8773 20.9627 11.703 20.8698 11.5539L20.7998 11.4539L16.2138 5.61795C16.05 5.40947 15.9756 5.14445 16.0071 4.88116C16.0386 4.61787 16.1734 4.37787 16.3818 4.21395Z" fill="currentColor"/>
<path d="M12.3818 4.21395C12.5732 4.06353 12.8128 3.98807 13.0558 4.00169C13.2988 4.01531 13.5285 4.11709 13.7018 4.28795L13.7858 4.38195L18.3618 10.2049C19.1698 11.1979 19.2098 12.6009 18.4918 13.6239L18.3718 13.7819L13.7858 19.6179C13.6287 19.8179 13.4013 19.9505 13.1498 19.9888C12.8984 20.027 12.6419 19.968 12.4324 19.8237C12.2229 19.6795 12.0763 19.4609 12.0223 19.2124C11.9683 18.9638 12.0111 18.7041 12.1418 18.4859L12.2138 18.3819L16.8098 12.5319C16.9202 12.3954 16.9853 12.2278 16.9961 12.0525C17.0068 11.8773 16.9627 11.703 16.8698 11.5539L16.7998 11.4539L12.2138 5.61795C12.05 5.40947 11.9756 5.14445 12.0071 4.88116C12.0386 4.61787 12.1734 4.37787 12.3818 4.21395Z" fill="currentColor"/>
</svg>
