<svg width="24" height="24" viewBox="0 0 24 24" fill="none" xmlns="http://www.w3.org/2000/svg">
<path d="M12 20V22M12 2V4M3 12H5M19 12H21M12.816 16.58C12.609 16.847 12.312 17 12 17C11.688 17 11.39 16.847 11.184 16.58L8.27601 12.832C8.09651 12.5918 7.99951 12.2999 7.99951 12C7.99951 11.7001 8.09651 11.4082 8.27601 11.168L11.184 7.42C11.391 7.153 11.688 7 12 7C12.312 7 12.61 7.153 12.816 7.42L15.724 11.168C15.9035 11.4082 16.0005 11.7001 16.0005 12C16.0005 12.2999 15.9035 12.5918 15.724 12.832L12.816 16.58Z" stroke="currentColor" stroke-width="1.5" stroke-linecap="round" stroke-linejoin="round"/>
</svg>
