<svg width="24" height="24" viewBox="0 0 24 24" fill="none" xmlns="http://www.w3.org/2000/svg">
<path d="M5 21H14M10 21L3 13L11.5 7.5M11.742 7.57397L10.586 6.41797C10.2108 6.04295 10 5.53427 9.99994 5.00382C9.99985 4.47338 10.2105 3.96462 10.5855 3.58947C10.9605 3.21432 11.4692 3.00351 11.9996 3.00342C12.5301 3.00332 13.0388 3.21395 13.414 3.58897L14.558 4.73297M15.5 12L15.708 12.274C16.1812 12.7425 16.8201 13.0053 17.486 13.0053C18.1519 13.0053 18.7908 12.7425 19.264 12.274C20.203 11.341 20.244 9.854 19.386 8.874L19.02 8.505M13 14C10.852 11.852 10.852 8.14798 13 5.99998C15.088 3.91198 18.842 4.02798 21 5.99998L13 14Z" stroke="currentColor" stroke-width="1.5" stroke-linecap="round" stroke-linejoin="round"/>
</svg>
