<svg width="24" height="24" viewBox="0 0 24 24" fill="none" xmlns="http://www.w3.org/2000/svg">
<path d="M4.028 13.252C3.371 12.28 3 11.174 3 10C3 6.134 7.03 3 12 3C16.97 3 21 6.134 21 10C21 13.866 16.97 17 12 17C10.087 17 8.314 16.536 6.856 15.745M5 17C4.46957 17 3.96086 16.7893 3.58579 16.4142C3.21071 16.0391 3 15.5304 3 15C3 14.4696 3.21071 13.9609 3.58579 13.5858C3.96086 13.2107 4.46957 13 5 13C5.53043 13 6.03914 13.2107 6.41421 13.5858C6.78929 13.9609 7 14.4696 7 15C7 15.5304 6.78929 16.0391 6.41421 16.4142C6.03914 16.7893 5.53043 17 5 17ZM5 17C5 18.42 5.316 19.805 6 21" stroke="currentColor" stroke-width="1.5" stroke-linecap="round" stroke-linejoin="round"/>
</svg>
