<svg width="24" height="24" viewBox="0 0 24 24" fill="none" xmlns="http://www.w3.org/2000/svg">
<path d="M18 3C18.7652 2.99996 19.5015 3.29233 20.0583 3.81728C20.615 4.34224 20.9501 5.06011 20.995 5.824L21 6V18C21 18.7652 20.7077 19.5015 20.1827 20.0583C19.6578 20.615 18.9399 20.9501 18.176 20.995L18 21H6C5.23479 21 4.49849 20.7077 3.94174 20.1827C3.38499 19.6578 3.04989 18.9399 3.005 18.176L3 18V6C2.99996 5.23479 3.29233 4.49849 3.81728 3.94174C4.34224 3.38499 5.06011 3.04989 5.824 3.005L6 3H18ZM18 5H9V19H18C18.2449 19 18.4813 18.91 18.6644 18.7473C18.8474 18.5845 18.9643 18.3603 18.993 18.117L19 18V6C19 5.75507 18.91 5.51866 18.7473 5.33563C18.5845 5.15259 18.3603 5.03566 18.117 5.007L18 5ZM15.707 9.293C15.8792 9.46519 15.9826 9.69429 15.9979 9.93732C16.0132 10.1803 15.9393 10.4206 15.79 10.613L15.707 10.707L14.415 12L15.707 13.293C15.8792 13.4652 15.9826 13.6943 15.9979 13.9373C16.0132 14.1803 15.9393 14.4206 15.79 14.613L15.707 14.707C15.5348 14.8792 15.3057 14.9826 15.0627 14.9979C14.8197 15.0132 14.5794 14.9393 14.387 14.79L14.293 14.707L12.293 12.707C12.1208 12.5348 12.0174 12.3057 12.0021 12.0627C11.9868 11.8197 12.0607 11.5794 12.21 11.387L12.293 11.293L14.293 9.293C14.4805 9.10553 14.7348 9.00021 15 9.00021C15.2652 9.00021 15.5195 9.10553 15.707 9.293Z" fill="currentColor"/>
</svg>
