<svg width="24" height="24" viewBox="0 0 24 24" fill="none" xmlns="http://www.w3.org/2000/svg">
<path d="M18 3C18.7652 2.99996 19.5015 3.29233 20.0583 3.81728C20.615 4.34224 20.9501 5.06011 20.995 5.824L21 6V18C21 18.7652 20.7077 19.5015 20.1827 20.0583C19.6578 20.615 18.9399 20.9501 18.176 20.995L18 21H6C5.23479 21 4.49849 20.7077 3.94174 20.1827C3.38499 19.6578 3.04989 18.9399 3.005 18.176L3 18V6C2.99996 5.23479 3.29233 4.49849 3.81728 3.94174C4.34224 3.38499 5.06011 3.04989 5.824 3.005L6 3H18ZM15 5H6C5.75507 5.00003 5.51866 5.08996 5.33563 5.25272C5.15259 5.41547 5.03566 5.63975 5.007 5.883L5 6V18C5.00003 18.2449 5.08996 18.4813 5.25272 18.6644C5.41547 18.8474 5.63975 18.9643 5.883 18.993L6 19H15V5ZM11.707 9.293C11.8792 9.46519 11.9826 9.69429 11.9979 9.93732C12.0132 10.1803 11.9393 10.4206 11.79 10.613L11.707 10.707L10.415 12L11.707 13.293C11.8792 13.4652 11.9826 13.6943 11.9979 13.9373C12.0132 14.1803 11.9393 14.4206 11.79 14.613L11.707 14.707C11.5348 14.8792 11.3057 14.9826 11.0627 14.9979C10.8197 15.0132 10.5794 14.9393 10.387 14.79L10.293 14.707L8.293 12.707C8.12082 12.5348 8.01739 12.3057 8.00211 12.0627C7.98683 11.8197 8.06075 11.5794 8.21 11.387L8.293 11.293L10.293 9.293C10.4805 9.10553 10.7348 9.00021 11 9.00021C11.2652 9.00021 11.5195 9.10553 11.707 9.293Z" fill="currentColor"/>
</svg>
