<svg width="24" height="24" viewBox="0 0 24 24" fill="none" xmlns="http://www.w3.org/2000/svg">
<path d="M18 3C18.7652 2.99996 19.5015 3.29233 20.0583 3.81728C20.615 4.34224 20.9501 5.06011 20.995 5.824L21 6V18C21 18.7652 20.7077 19.5015 20.1827 20.0583C19.6578 20.615 18.9399 20.9501 18.176 20.995L18 21H6C5.23479 21 4.49849 20.7077 3.94174 20.1827C3.38499 19.6578 3.04989 18.9399 3.005 18.176L3 18V6C2.99996 5.23479 3.29233 4.49849 3.81728 3.94174C4.34224 3.38499 5.06011 3.04989 5.824 3.005L6 3H18ZM18 5H6C5.75507 5.00003 5.51866 5.08996 5.33563 5.25272C5.15259 5.41547 5.03566 5.63975 5.007 5.883L5 6V15H19V6C19 5.75507 18.91 5.51866 18.7473 5.33563C18.5845 5.15259 18.3603 5.03566 18.117 5.007L18 5ZM10.613 8.21L10.707 8.293L12 9.585L13.293 8.293C13.4652 8.12082 13.6943 8.01739 13.9373 8.00211C14.1803 7.98683 14.4206 8.06075 14.613 8.21L14.707 8.293C14.8792 8.46519 14.9826 8.69429 14.9979 8.93732C15.0132 9.18035 14.9393 9.4206 14.79 9.613L14.707 9.707L12.707 11.707C12.5348 11.8792 12.3057 11.9826 12.0627 11.9979C11.8197 12.0132 11.5794 11.9393 11.387 11.79L11.293 11.707L9.293 9.707C9.11365 9.52704 9.00953 9.28557 9.00177 9.03162C8.99402 8.77767 9.08321 8.53029 9.25125 8.33972C9.41928 8.14916 9.65355 8.02969 9.90647 8.0056C10.1594 7.98151 10.412 8.05459 10.613 8.21Z" fill="currentColor"/>
</svg>
