<svg width="24" height="24" viewBox="0 0 24 24" fill="none" xmlns="http://www.w3.org/2000/svg">
<path d="M4 12H9M15 12H20M9 8C9 7.46957 9.21071 6.96086 9.58579 6.58579C9.96086 6.21071 10.4696 6 11 6H13C13.5304 6 14.0391 6.21071 14.4142 6.58579C14.7893 6.96086 15 7.46957 15 8V16C15 16.5304 14.7893 17.0391 14.4142 17.4142C14.0391 17.7893 13.5304 18 13 18H11C10.4696 18 9.96086 17.7893 9.58579 17.4142C9.21071 17.0391 9 16.5304 9 16V8Z" stroke="currentColor" stroke-width="1.5" stroke-linecap="round" stroke-linejoin="round"/>
</svg>
