<svg width="24" height="24" viewBox="0 0 24 24" fill="none" xmlns="http://www.w3.org/2000/svg">
<path d="M4 4H20M4 20H20M6 11C6 10.4696 6.21071 9.96086 6.58579 9.58579C6.96086 9.21071 7.46957 9 8 9H16C16.5304 9 17.0391 9.21071 17.4142 9.58579C17.7893 9.96086 18 10.4696 18 11V13C18 13.5304 17.7893 14.0391 17.4142 14.4142C17.0391 14.7893 16.5304 15 16 15H8C7.46957 15 6.96086 14.7893 6.58579 14.4142C6.21071 14.0391 6 13.5304 6 13V11Z" stroke="currentColor" stroke-width="1.5" stroke-linecap="round" stroke-linejoin="round"/>
</svg>
