<svg width="24" height="24" viewBox="0 0 24 24" fill="none" xmlns="http://www.w3.org/2000/svg">
<path d="M18 3C18.7652 2.99996 19.5015 3.29233 20.0583 3.81728C20.615 4.34224 20.9501 5.06011 20.995 5.824L21 6V18C21 18.7652 20.7077 19.5015 20.1827 20.0583C19.6578 20.615 18.9399 20.9501 18.176 20.995L18 21H6C5.23479 21 4.49849 20.7077 3.94174 20.1827C3.38499 19.6578 3.04989 18.9399 3.005 18.176L3 18V6C2.99996 5.23479 3.29233 4.49849 3.81728 3.94174C4.34224 3.38499 5.06011 3.04989 5.824 3.005L6 3H18ZM18 5H9V19H18C18.2449 19 18.4813 18.91 18.6644 18.7473C18.8474 18.5845 18.9643 18.3603 18.993 18.117L19 18V6C19 5.75507 18.91 5.51866 18.7473 5.33563C18.5845 5.15259 18.3603 5.03566 18.117 5.007L18 5ZM13.613 9.21L13.707 9.293L15.707 11.293C15.8792 11.4652 15.9826 11.6943 15.9979 11.9373C16.0132 12.1803 15.9393 12.4206 15.79 12.613L15.707 12.707L13.707 14.707C13.527 14.8863 13.2856 14.9905 13.0316 14.9982C12.7777 15.006 12.5303 14.9168 12.3397 14.7488C12.1492 14.5807 12.0297 14.3464 12.0056 14.0935C11.9815 13.8406 12.0546 13.588 12.21 13.387L12.293 13.293L13.585 12L12.293 10.707C12.1208 10.5348 12.0174 10.3057 12.0021 10.0627C11.9868 9.81965 12.0607 9.5794 12.21 9.387L12.293 9.293C12.4652 9.12082 12.6943 9.01739 12.9373 9.00211C13.1803 8.98683 13.4206 9.06075 13.613 9.21Z" fill="currentColor"/>
</svg>
