<svg width="24" height="24" viewBox="0 0 24 24" fill="none" xmlns="http://www.w3.org/2000/svg">
<path d="M18 3C18.7652 2.99996 19.5015 3.29233 20.0583 3.81728C20.615 4.34224 20.9501 5.06011 20.995 5.824L21 6V18C21 18.7652 20.7077 19.5015 20.1827 20.0583C19.6578 20.615 18.9399 20.9501 18.176 20.995L18 21H6C5.23479 21 4.49849 20.7077 3.94174 20.1827C3.38499 19.6578 3.04989 18.9399 3.005 18.176L3 18V6C2.99996 5.23479 3.29233 4.49849 3.81728 3.94174C4.34224 3.38499 5.06011 3.04989 5.824 3.005L6 3H18ZM18 5H6C5.75507 5.00003 5.51866 5.08996 5.33563 5.25272C5.15259 5.41547 5.03566 5.63975 5.007 5.883L5 6V15H19V6C19 5.75507 18.91 5.51866 18.7473 5.33563C18.5845 5.15259 18.3603 5.03566 18.117 5.007L18 5ZM12.613 8.21L12.707 8.293L14.707 10.293C14.8863 10.473 14.9905 10.7144 14.9982 10.9684C15.006 11.2223 14.9168 11.4697 14.7488 11.6603C14.5807 11.8508 14.3464 11.9703 14.0935 11.9944C13.8406 12.0185 13.588 11.9454 13.387 11.79L13.293 11.707L12 10.415L10.707 11.707C10.5348 11.8792 10.3057 11.9826 10.0627 11.9979C9.81965 12.0132 9.5794 11.9393 9.387 11.79L9.293 11.707C9.12082 11.5348 9.01739 11.3057 9.00211 11.0627C8.98683 10.8197 9.06075 10.5794 9.21 10.387L9.293 10.293L11.293 8.293C11.4652 8.12082 11.6943 8.01739 11.9373 8.00211C12.1803 7.98683 12.4206 8.06075 12.613 8.21Z" fill="currentColor"/>
</svg>
