<svg width="24" height="24" viewBox="0 0 24 24" fill="none" xmlns="http://www.w3.org/2000/svg">
<path d="M18 3C18.7652 2.99996 19.5015 3.29233 20.0583 3.81728C20.615 4.34224 20.9501 5.06011 20.995 5.824L21 6V18C21 18.7652 20.7077 19.5015 20.1827 20.0583C19.6578 20.615 18.9399 20.9501 18.176 20.995L18 21H6C5.23479 21 4.49849 20.7077 3.94174 20.1827C3.38499 19.6578 3.04989 18.9399 3.005 18.176L3 18V6C2.99996 5.23479 3.29233 4.49849 3.81728 3.94174C4.34224 3.38499 5.06011 3.04989 5.824 3.005L6 3H18ZM19 9H5V18C5.00003 18.2449 5.08996 18.4813 5.25272 18.6644C5.41547 18.8474 5.63975 18.9643 5.883 18.993L6 19H18C18.2449 19 18.4813 18.91 18.6644 18.7473C18.8474 18.5845 18.9643 18.3603 18.993 18.117L19 18V9ZM12.613 12.21L12.707 12.293L14.707 14.293C14.8863 14.473 14.9905 14.7144 14.9982 14.9684C15.006 15.2223 14.9168 15.4697 14.7488 15.6603C14.5807 15.8508 14.3464 15.9703 14.0935 15.9944C13.8406 16.0185 13.588 15.9454 13.387 15.79L13.293 15.707L12 14.415L10.707 15.707C10.5348 15.8792 10.3057 15.9826 10.0627 15.9979C9.81965 16.0132 9.5794 15.9393 9.387 15.79L9.293 15.707C9.12082 15.5348 9.01739 15.3057 9.00211 15.0627C8.98683 14.8197 9.06075 14.5794 9.21 14.387L9.293 14.293L11.293 12.293C11.4652 12.1208 11.6943 12.0174 11.9373 12.0021C12.1803 11.9868 12.4206 12.0607 12.613 12.21Z" fill="currentColor"/>
</svg>
