<svg width="24" height="24" viewBox="0 0 24 24" fill="none" xmlns="http://www.w3.org/2000/svg">
<path d="M18 3C18.7652 2.99996 19.5015 3.29233 20.0583 3.81728C20.615 4.34224 20.9501 5.06011 20.995 5.824L21 6V18C21 18.7652 20.7077 19.5015 20.1827 20.0583C19.6578 20.615 18.9399 20.9501 18.176 20.995L18 21H6C5.23479 21 4.49849 20.7077 3.94174 20.1827C3.38499 19.6578 3.04989 18.9399 3.005 18.176L3 18V6C2.99996 5.23479 3.29233 4.49849 3.81728 3.94174C4.34224 3.38499 5.06011 3.04989 5.824 3.005L6 3H18ZM15 5H6C5.75507 5.00003 5.51866 5.08996 5.33563 5.25272C5.15259 5.41547 5.03566 5.63975 5.007 5.883L5 6V18C5.00003 18.2449 5.08996 18.4813 5.25272 18.6644C5.41547 18.8474 5.63975 18.9643 5.883 18.993L6 19H15V5ZM9.613 9.21L9.707 9.293L11.707 11.293C11.8792 11.4652 11.9826 11.6943 11.9979 11.9373C12.0132 12.1803 11.9393 12.4206 11.79 12.613L11.707 12.707L9.707 14.707C9.52704 14.8863 9.28557 14.9905 9.03162 14.9982C8.77767 15.006 8.53029 14.9168 8.33972 14.7488C8.14916 14.5807 8.02969 14.3464 8.0056 14.0935C7.98151 13.8406 8.05459 13.588 8.21 13.387L8.293 13.293L9.585 12L8.293 10.707C8.12082 10.5348 8.01739 10.3057 8.00211 10.0627C7.98683 9.81965 8.06075 9.5794 8.21 9.387L8.293 9.293C8.46519 9.12082 8.69429 9.01739 8.93732 9.00211C9.18035 8.98683 9.4206 9.06075 9.613 9.21Z" fill="currentColor"/>
</svg>
