<svg width="24" height="24" viewBox="0 0 24 24" fill="none" xmlns="http://www.w3.org/2000/svg">
<path d="M18 4C18.4213 4.00004 18.8319 4.13313 19.1731 4.3803C19.5143 4.62746 19.7687 4.97607 19.9001 5.37639C20.0315 5.77671 20.033 6.20829 19.9046 6.60957C19.7762 7.01085 19.5244 7.36132 19.185 7.611C20.735 10.551 20.058 14.528 17.293 17.293C14.528 20.058 10.55 20.735 7.61098 19.185C7.44032 19.4172 7.22149 19.6098 6.96947 19.7495C6.71746 19.8893 6.43822 19.973 6.15088 19.9948C5.86353 20.0166 5.57486 19.9761 5.30463 19.876C5.03441 19.7758 4.78901 19.6185 4.58524 19.4147C4.38147 19.211 4.22414 18.9656 4.12402 18.6953C4.02391 18.4251 3.98337 18.1365 4.00519 17.8491C4.02701 17.5618 4.11067 17.2825 4.25044 17.0305C4.3902 16.7785 4.58278 16.5597 4.81498 16.389C3.26498 13.449 3.94198 9.472 6.70698 6.707C9.47198 3.942 13.45 3.265 16.389 4.815C16.5748 4.56235 16.8174 4.35695 17.0973 4.21537C17.3771 4.0738 17.6864 4.00002 18 4Z" stroke="currentColor" stroke-width="1.5" stroke-linecap="round" stroke-linejoin="round"/>
</svg>
