<svg width="24" height="24" viewBox="0 0 24 24" fill="none" xmlns="http://www.w3.org/2000/svg">
<path d="M4.012 7.26001C3.70534 7.43483 3.45027 7.68751 3.27258 7.99251C3.09488 8.29751 3.00085 8.64402 3 8.99701V18.997C3 20.097 3.9 20.997 5 20.997H15C15.75 20.997 16.158 20.612 16.5 19.997M17 7H17.01M7 13L10.644 9.35602C10.7564 9.24354 10.8898 9.15431 11.0367 9.09344C11.1836 9.03256 11.341 9.00122 11.5 9.00122C11.659 9.00122 11.8164 9.03256 11.9633 9.09344C12.1102 9.15431 12.2436 9.24354 12.356 9.35602L16 13M15 12L16.644 10.356C16.7564 10.2435 16.8898 10.1543 17.0367 10.0934C17.1836 10.0326 17.341 10.0012 17.5 10.0012C17.659 10.0012 17.8164 10.0326 17.9633 10.0934C18.1102 10.1543 18.2436 10.2435 18.356 10.356L21 13M7 5.667C7 4.95967 7.28099 4.28131 7.78115 3.78115C8.28131 3.28099 8.95967 3 9.667 3H18.333C18.6832 3 19.03 3.06898 19.3536 3.20301C19.6772 3.33704 19.9712 3.53349 20.2189 3.78115C20.4665 4.0288 20.663 4.32281 20.797 4.64638C20.931 4.96996 21 5.31676 21 5.667V14.333C21 14.6832 20.931 15.03 20.797 15.3536C20.663 15.6772 20.4665 15.9712 20.2189 16.2189C19.9712 16.4665 19.6772 16.663 19.3536 16.797C19.03 16.931 18.6832 17 18.333 17H9.667C8.95967 17 8.28131 16.719 7.78115 16.2189C7.28099 15.7187 7 15.0403 7 14.333V5.667Z" stroke="currentColor" stroke-width="1.5" stroke-linecap="round" stroke-linejoin="round"/>
</svg>
