<svg width="24" height="24" viewBox="0 0 24 24" fill="none" xmlns="http://www.w3.org/2000/svg">
<path fill-rule="evenodd" clip-rule="evenodd" d="M19.2439 3.77402C19.0014 3.72579 18.7501 3.75054 18.5216 3.84515C18.2932 3.93976 18.098 4.09998 17.9607 4.30554C17.8233 4.5111 17.75 4.75277 17.75 5V6.25H19C19.2472 6.25 19.4889 6.17669 19.6945 6.03934C19.9 5.90199 20.0602 5.70676 20.1549 5.47836C20.2495 5.24995 20.2742 4.99861 20.226 4.75614C20.1777 4.51366 20.0587 4.29093 19.8839 4.11612C19.7091 3.9413 19.4863 3.82225 19.2439 3.77402ZM17.75 7.75H19C19.5439 7.75 20.0756 7.58872 20.5278 7.28654C20.9801 6.98437 21.3325 6.55488 21.5407 6.05238C21.7488 5.54988 21.8033 4.99695 21.6972 4.4635C21.5911 3.93005 21.3291 3.44005 20.9445 3.05546C20.5599 2.67086 20.0699 2.40895 19.5365 2.30284C19.003 2.19673 18.4501 2.25119 17.9476 2.45933C17.4451 2.66747 17.0156 3.01995 16.7135 3.47218C16.4113 3.92442 16.25 4.4561 16.25 5V19C16.25 19.3315 16.1183 19.6495 15.8839 19.8839C15.6495 20.1183 15.3315 20.25 15 20.25C14.6685 20.25 14.3505 20.1183 14.1161 19.8839C13.8817 19.6495 13.75 19.3315 13.75 19V17C13.75 16.5858 13.4142 16.25 13 16.25H5.75V6C5.75 5.40326 5.98705 4.83097 6.40901 4.40901C6.83097 3.98705 7.40326 3.75 8 3.75H15.7087C16.1229 3.75 16.4587 3.41421 16.4587 3C16.4587 2.58579 16.1229 2.25 15.7087 2.25H8C7.00544 2.25 6.05161 2.64509 5.34835 3.34835C4.64509 4.05161 4.25 5.00544 4.25 6V16.25H3C2.58579 16.25 2.25 16.5858 2.25 17V18C2.25 18.9946 2.64509 19.9484 3.34835 20.6517C4.05161 21.3549 5.00544 21.75 6 21.75H15C15.7293 21.75 16.4288 21.4603 16.9445 20.9445C17.4603 20.4288 17.75 19.7293 17.75 19V7.75ZM12.5505 20.25C12.3548 19.8665 12.25 19.4386 12.25 19V17.75H3.75V18C3.75 18.5967 3.98705 19.169 4.40901 19.591C4.83097 20.0129 5.40326 20.25 6 20.25H12.5505ZM8.25 7C8.25 6.58579 8.58579 6.25 9 6.25H13C13.4142 6.25 13.75 6.58579 13.75 7C13.75 7.41421 13.4142 7.75 13 7.75H9C8.58579 7.75 8.25 7.41421 8.25 7ZM8.25 11C8.25 10.5858 8.58579 10.25 9 10.25H13C13.4142 10.25 13.75 10.5858 13.75 11C13.75 11.4142 13.4142 11.75 13 11.75H9C8.58579 11.75 8.25 11.4142 8.25 11Z" fill="currentColor"/>
</svg>
