<svg width="24" height="24" viewBox="0 0 24 24" fill="none" xmlns="http://www.w3.org/2000/svg">
<path d="M9.17093 9.172C8.43371 9.92409 8.02284 10.9366 8.02749 11.9897C8.03214 13.0429 8.45194 14.0517 9.19578 14.7972C9.93961 15.5428 10.9475 15.9649 12.0006 15.972C13.0537 15.979 14.0671 15.5705 14.8209 14.835M15.9999 12C15.9999 10.9391 15.5785 9.92172 14.8284 9.17157C14.0782 8.42143 13.0608 8 11.9999 8M5.63993 5.63202C4.79319 6.46541 4.11984 7.45819 3.65871 8.55311C3.19758 9.64803 2.9578 10.8234 2.95319 12.0115C2.94859 13.1995 3.17926 14.3767 3.63189 15.4752C4.08452 16.5737 4.75016 17.5716 5.59041 18.4116C6.43067 19.2515 7.4289 19.9167 8.52754 20.3689C9.62618 20.8211 10.8035 21.0513 11.9915 21.0463C13.1796 21.0412 14.3549 20.8009 15.4496 20.3394C16.5444 19.8778 17.5369 19.2041 18.3699 18.357M20.0369 16.056C20.8915 14.3655 21.1908 12.4485 20.8924 10.5779C20.594 8.70736 19.7129 6.97864 18.3748 5.63795C17.0367 4.29727 15.3096 3.41296 13.4396 3.11097C11.5697 2.80898 9.65206 3.1047 7.95993 3.95602M14.9999 15L18.3499 18.35M8.99992 15L5.64992 18.35M5.64992 5.65002L8.99992 9.00002M18.3499 5.65002L14.9999 9.00002M2.99992 3L20.9999 21" stroke="currentColor" stroke-width="1.5" stroke-linecap="round" stroke-linejoin="round"/>
</svg>
