<svg width="24" height="24" viewBox="0 0 24 24" fill="none" xmlns="http://www.w3.org/2000/svg">
<path d="M10 3V19C10 19.5304 10.2107 20.0391 10.5858 20.4142C10.9609 20.7893 11.4696 21 12 21H17C17.5304 21 18.0391 20.7893 18.4142 20.4142C18.7893 20.0391 19 19.5304 19 19V12H7C6.46957 12 5.96086 11.7893 5.58579 11.4142C5.21071 11.0391 5 10.5304 5 10V5C5 4.46957 5.21071 3.96086 5.58579 3.58579C5.96086 3.21071 6.46957 3 7 3H10Z" stroke="currentColor" stroke-width="1.5" stroke-linecap="round" stroke-linejoin="round"/>
<path d="M16 4L17.465 5.638C17.7264 5.91903 17.9014 6.26935 17.9692 6.64715C18.0369 7.02495 17.9946 7.41426 17.8471 7.76862C17.6996 8.12298 17.4533 8.42742 17.1375 8.64561C16.8217 8.86379 16.4498 8.98651 16.0662 8.99911C15.6826 9.0117 15.3035 8.91365 14.9741 8.71665C14.6447 8.51964 14.3789 8.23202 14.2085 7.88809C14.0381 7.54417 13.9703 7.15848 14.0131 6.77705C14.0559 6.39563 14.2076 6.03458 14.45 5.737L16 4Z" stroke="currentColor" stroke-width="1.5" stroke-linecap="round" stroke-linejoin="round"/>
</svg>
