<svg width="24" height="24" viewBox="0 0 24 24" fill="none" xmlns="http://www.w3.org/2000/svg">
<path d="M9 14.9999L15 8.99988M11 5.99982L11.463 5.46382C12.4008 4.52614 13.6727 3.99942 14.9989 3.99951C16.325 3.99961 17.5968 4.52651 18.5345 5.46432C19.4722 6.40212 19.9989 7.67401 19.9988 9.00017C19.9987 10.3263 19.4718 11.5981 18.534 12.5358L18 12.9998M12.6031 18.5339C11.6541 19.4716 10.3738 19.9974 9.03964 19.9974C7.70551 19.9974 6.42515 19.4716 5.47614 18.5339C5.0085 18.0715 4.63724 17.5209 4.38385 16.914C4.13047 16.3071 4 15.656 4 14.9984C4 14.3407 4.13047 13.6896 4.38385 13.0827C4.63724 12.4759 5.0085 11.9253 5.47614 11.4629L6.00014 10.9999M16 18.9999H22" stroke="currentColor" stroke-width="1.5" stroke-linecap="round" stroke-linejoin="round"/>
</svg>
