<svg width="24" height="24" viewBox="0 0 24 24" fill="none" xmlns="http://www.w3.org/2000/svg">
<path d="M9 15L15 9M11 5.99996L11.463 5.46396C11.9273 4.99952 12.4786 4.63111 13.0853 4.37975C13.692 4.1284 14.3423 3.99902 14.999 3.99902C15.6557 3.99902 16.306 4.1284 16.9127 4.37975C17.5194 4.63111 18.0707 4.99952 18.535 5.46396C19.0002 5.92786 19.3693 6.47902 19.6211 7.08583C19.8729 7.69264 20.0024 8.34318 20.0023 9.00016C20.0022 9.65714 19.8725 10.3076 19.6205 10.9144C19.3686 11.5211 18.9993 12.0722 18.534 12.536M12.6031 18.534C11.6541 19.4717 10.3738 19.9976 9.03964 19.9976C7.70551 19.9976 6.42515 19.4717 5.47614 18.534C5.0085 18.0716 4.63724 17.521 4.38385 16.9141C4.13047 16.3073 4 15.6561 4 14.9985C4 14.3408 4.13047 13.6897 4.38385 13.0829C4.63724 12.476 5.0085 11.9254 5.47614 11.463L6.00014 11M16 19H22M19 16V22" stroke="currentColor" stroke-width="1.5" stroke-linecap="round" stroke-linejoin="round"/>
</svg>
