<svg width="24" height="24" viewBox="0 0 24 24" fill="none" xmlns="http://www.w3.org/2000/svg">
<path d="M11 6H20M11 12H20M11 18H20M4 10V5.5C4 5.10218 4.15804 4.72064 4.43934 4.43934C4.72064 4.15804 5.10218 4 5.5 4C5.89782 4 6.27936 4.15804 6.56066 4.43934C6.84196 4.72064 7 5.10218 7 5.5V10M4 8H7M5.5 17C5.89782 17 6.27936 17.158 6.56066 17.4393C6.84196 17.7206 7 18.1022 7 18.5C7 18.8978 6.84196 19.2794 6.56066 19.5607C6.27936 19.842 5.89782 20 5.5 20H4V14H5.5C5.89782 14 6.27936 14.158 6.56066 14.4393C6.84196 14.7206 7 15.1022 7 15.5C7 15.8978 6.84196 16.2794 6.56066 16.5607C6.27936 16.842 5.89782 17 5.5 17ZM5.5 17H4" stroke="currentColor" stroke-width="1.5" stroke-linecap="round" stroke-linejoin="round"/>
</svg>
