<svg width="24" height="24" viewBox="0 0 24 24" fill="none" xmlns="http://www.w3.org/2000/svg">
<path d="M19.7432 12.5098C19.7244 12.3194 19.6779 12.1324 19.6045 11.9551C19.5066 11.7187 19.3625 11.5041 19.1816 11.3232C19.0008 11.1424 18.7861 10.9983 18.5498 10.9004C18.3725 10.827 18.1854 10.7804 17.9951 10.7617L17.8047 10.7529C17.5488 10.7529 17.295 10.8025 17.0586 10.9004C16.8223 10.9983 16.6076 11.1424 16.4268 11.3232L16.4248 11.3252L12.2529 15.46V18.2529H15.0439L19.1797 14.0811L19.1816 14.0781L19.3105 13.9365C19.4318 13.7887 19.5311 13.6236 19.6045 13.4463C19.7023 13.2101 19.7529 12.9568 19.7529 12.7012L19.7432 12.5098ZM7.5 16.25C7.91421 16.25 8.25 16.5858 8.25 17C8.25 17.4142 7.91421 17.75 7.5 17.75H3.5C3.08579 17.75 2.75 17.4142 2.75 17C2.75 16.5858 3.08579 16.25 3.5 16.25H7.5ZM7.5 10.25C7.91421 10.25 8.25 10.5858 8.25 11C8.25 11.4142 7.91421 11.75 7.5 11.75H3.5C3.08579 11.75 2.75 11.4142 2.75 11C2.75 10.5858 3.08579 10.25 3.5 10.25H7.5ZM19.5 4.25C19.9142 4.25 20.25 4.58579 20.25 5C20.25 5.41421 19.9142 5.75 19.5 5.75H3.5C3.08579 5.75 2.75 5.41421 2.75 5C2.75 4.58579 3.08579 4.25 3.5 4.25H19.5ZM21.248 12.8701C21.2286 13.2651 21.1419 13.6544 20.9902 14.0205C20.8174 14.4378 20.5632 14.8161 20.2441 15.1357L20.2451 15.1367L15.8896 19.5303C15.7488 19.6724 15.5565 19.7529 15.3564 19.7529H11.5029C11.0888 19.7529 10.7531 19.417 10.7529 19.0029V15.1484C10.7529 14.9484 10.8325 14.7561 10.9746 14.6152L15.3682 10.2598C15.6878 9.94075 16.0672 9.68751 16.4844 9.51465C16.9027 9.34136 17.3519 9.25293 17.8047 9.25293L17.9736 9.25684C18.3686 9.27625 18.7579 9.363 19.124 9.51465C19.5423 9.68791 19.922 9.94256 20.2422 10.2627C20.5623 10.5828 20.8169 10.9626 20.9902 11.3809C21.1635 11.7992 21.2529 12.2483 21.2529 12.7012L21.248 12.8701Z" fill="currentColor"/>
</svg>
