<svg width="24" height="24" viewBox="0 0 24 24" fill="none" xmlns="http://www.w3.org/2000/svg">
<path d="M18.5 18.5L21 21M4 6H20M4 12H8M4 18H8M11 15C11 16.0609 11.4214 17.0783 12.1716 17.8284C12.9217 18.5786 13.9391 19 15 19C16.0609 19 17.0783 18.5786 17.8284 17.8284C18.5786 17.0783 19 16.0609 19 15C19 13.9391 18.5786 12.9217 17.8284 12.1716C17.0783 11.4214 16.0609 11 15 11C13.9391 11 12.9217 11.4214 12.1716 12.1716C11.4214 12.9217 11 13.9391 11 15Z" stroke="currentColor" stroke-width="1.5" stroke-linecap="round" stroke-linejoin="round"/>
</svg>
