<svg width="24" height="24" viewBox="0 0 24 24" fill="none" xmlns="http://www.w3.org/2000/svg">
<path fill-rule="evenodd" clip-rule="evenodd" d="M6 4.75C5.66848 4.75 5.35054 4.8817 5.11612 5.11612C4.8817 5.35054 4.75 5.66848 4.75 6V8C4.75 8.41421 4.41421 8.75 4 8.75C3.58579 8.75 3.25 8.41421 3.25 8V6C3.25 5.27065 3.53973 4.57118 4.05546 4.05546C4.57118 3.53973 5.27065 3.25 6 3.25H8C8.41421 3.25 8.75 3.58579 8.75 4C8.75 4.41421 8.41421 4.75 8 4.75H6ZM15.25 4C15.25 3.58579 15.5858 3.25 16 3.25H18C18.7293 3.25 19.4288 3.53973 19.9445 4.05546C20.4603 4.57118 20.75 5.27065 20.75 6V8C20.75 8.41421 20.4142 8.75 20 8.75C19.5858 8.75 19.25 8.41421 19.25 8V6C19.25 5.66848 19.1183 5.35054 18.8839 5.11612C18.6495 4.8817 18.3315 4.75 18 4.75H16C15.5858 4.75 15.25 4.41421 15.25 4ZM12 7.81348C11.4345 7.81348 10.8788 7.96101 10.3879 8.24151C9.89686 8.52201 9.48754 8.92577 9.20035 9.41288C8.91316 9.89999 8.75804 10.4536 8.7503 11.019C8.74274 11.5719 8.87638 12.1174 9.13829 12.604L12 16.6921L14.8617 12.604C15.1236 12.1174 15.2573 11.5719 15.2497 11.019C15.242 10.4536 15.0868 9.89999 14.7996 9.41288C14.5125 8.92577 14.1031 8.52201 13.6121 8.24151C13.1212 7.96101 12.5655 7.81348 12 7.81348ZM9.64378 6.93907C10.3614 6.52911 11.1735 6.31348 12 6.31348C12.8265 6.31348 13.6386 6.52911 14.3562 6.93907C15.0738 7.34903 15.6721 7.93913 16.0918 8.65106C16.5115 9.363 16.7383 10.1721 16.7496 10.9985C16.7609 11.8249 16.5564 12.6399 16.1562 13.3631C16.1435 13.3861 16.1295 13.4085 16.1144 13.4301L12.6144 18.4301C12.4741 18.6306 12.2447 18.75 12 18.75C11.7553 18.75 11.5259 18.6306 11.3856 18.4301L7.88558 13.4301C7.87047 13.4085 7.85651 13.3861 7.84375 13.3631C7.44364 12.6399 7.23914 11.8249 7.25044 10.9985C7.26175 10.1721 7.48847 9.363 7.90821 8.65106C8.32795 7.93913 8.92617 7.34903 9.64378 6.93907ZM12 10.25C12.4142 10.25 12.75 10.5858 12.75 11V11.01C12.75 11.4242 12.4142 11.76 12 11.76C11.5858 11.76 11.25 11.4242 11.25 11.01V11C11.25 10.5858 11.5858 10.25 12 10.25ZM4 15.25C4.41421 15.25 4.75 15.5858 4.75 16V18C4.75 18.3315 4.8817 18.6495 5.11612 18.8839C5.35054 19.1183 5.66848 19.25 6 19.25H8C8.41421 19.25 8.75 19.5858 8.75 20C8.75 20.4142 8.41421 20.75 8 20.75H6C5.27065 20.75 4.57118 20.4603 4.05546 19.9445C3.53973 19.4288 3.25 18.7293 3.25 18V16C3.25 15.5858 3.58579 15.25 4 15.25ZM20 15.25C20.4142 15.25 20.75 15.5858 20.75 16V18C20.75 18.7293 20.4603 19.4288 19.9445 19.9445C19.4288 20.4603 18.7293 20.75 18 20.75H16C15.5858 20.75 15.25 20.4142 15.25 20C15.25 19.5858 15.5858 19.25 16 19.25H18C18.3315 19.25 18.6495 19.1183 18.8839 18.8839C19.1183 18.6495 19.25 18.3315 19.25 18V16C19.25 15.5858 19.5858 15.25 20 15.25Z" fill="currentColor"/>
</svg>
