<svg width="24" height="24" viewBox="0 0 24 24" fill="none" xmlns="http://www.w3.org/2000/svg">
<path d="M11.2961 11.29C11.1085 11.4775 11.003 11.7319 11.0029 11.9972C11.0029 12.1285 11.0287 12.2586 11.0789 12.38C11.1292 12.5013 11.2028 12.6116 11.2956 12.7045C11.3885 12.7974 11.4987 12.8712 11.62 12.9215C11.7414 12.9718 11.8714 12.9977 12.0028 12.9977C12.268 12.9978 12.5225 12.8925 12.7101 12.705M8.47288 8.45594C8.00562 8.91984 7.63458 9.47145 7.38107 10.0791C7.12756 10.6868 6.99657 11.3385 6.99561 11.997C6.99465 12.6554 7.12375 13.3075 7.37549 13.9159C7.62724 14.5243 7.99666 15.077 8.46257 15.5423C8.92848 16.0075 9.48169 16.3762 10.0904 16.627C10.6992 16.8779 11.3515 17.0061 12.0099 17.0042C12.6684 17.0023 13.3199 16.8704 13.9272 16.616C14.5346 16.3617 15.0856 15.9899 15.5489 15.5219M16.9139 12.9309C17.0651 12.1336 17.02 11.3115 16.7824 10.5355C16.5448 9.75958 16.122 9.05309 15.5503 8.4771C14.9786 7.90111 14.2754 7.47292 13.5012 7.2295C12.7271 6.98608 11.9053 6.93475 11.1069 7.07994M15.8999 20.11V20.12M19.04 17.61V17.62M20.77 14V14.01M20.77 10V10.01M19.04 6.39001V6.40001M15.8999 3.89001V3.90001M12 3V3.01M8.1001 3.89001V3.90001M4.95996 6.39001V6.40001M3.22998 10V10.01M3.22998 14V14.01M4.95996 17.61V17.62M8.1001 20.11V20.12M12 21V21.01M3 3L21 21" stroke="currentColor" stroke-width="1.5" stroke-linecap="round" stroke-linejoin="round"/>
</svg>
