<svg width="24" height="24" viewBox="0 0 24 24" fill="none" xmlns="http://www.w3.org/2000/svg">
<path d="M15.9004 20.11V20.12M19.0405 17.61V17.62M20.7705 14V14.01M20.7705 10V10.01M19.0405 6.39001V6.40001M15.9004 3.89001V3.90001M12.0005 3V3.01M8.10059 3.89001V3.90001M4.96045 6.39001V6.40001M3.23047 10V10.01M3.23047 14V14.01M4.96045 17.61V17.62M8.10059 20.11V20.12M12.0005 21V21.01M11.0005 12C11.0005 12.2652 11.1058 12.5196 11.2934 12.7071C11.4809 12.8946 11.7353 13 12.0005 13C12.2657 13 12.5201 12.8946 12.7076 12.7071C12.8951 12.5196 13.0005 12.2652 13.0005 12C13.0005 11.7348 12.8951 11.4804 12.7076 11.2929C12.5201 11.1054 12.2657 11 12.0005 11C11.7353 11 11.4809 11.1054 11.2934 11.2929C11.1058 11.4804 11.0005 11.7348 11.0005 12ZM7.00049 12C7.00049 13.3261 7.52727 14.5979 8.46495 15.5355C9.40264 16.4732 10.6744 17 12.0005 17C13.3266 17 14.5983 16.4732 15.536 15.5355C16.4737 14.5979 17.0005 13.3261 17.0005 12C17.0005 10.6739 16.4737 9.40215 15.536 8.46447C14.5983 7.52678 13.3266 7 12.0005 7C10.6744 7 9.40264 7.52678 8.46495 8.46447C7.52727 9.40215 7.00049 10.6739 7.00049 12Z" stroke="currentColor" stroke-width="1.5" stroke-linecap="round" stroke-linejoin="round"/>
</svg>
