<svg width="24" height="24" viewBox="0 0 24 24" fill="none" xmlns="http://www.w3.org/2000/svg">
<path d="M12 16C11.2044 16 10.4413 15.6839 9.87868 15.1213C9.31607 14.5587 9 13.7956 9 13C9 12.2044 9.31607 11.4413 9.87868 10.8787C10.4413 10.3161 11.2044 10 12 10M12 16C12.7956 16 13.5587 15.6839 14.1213 15.1213C14.6839 14.5587 15 13.7956 15 13C15 12.2044 14.6839 11.4413 14.1213 10.8787C13.5587 10.3161 12.7956 10 12 10M12 16V19M12 10V3M12 19C12.2652 19 12.5196 19.1054 12.7071 19.2929C12.8946 19.4804 13 19.7348 13 20C13 20.2652 12.8946 20.5196 12.7071 20.7071C12.5196 20.8946 12.2652 21 12 21C11.7348 21 11.4804 20.8946 11.2929 20.7071C11.1054 20.5196 11 20.2652 11 20C11 19.7348 11.1054 19.4804 11.2929 19.2929C11.4804 19.1054 11.7348 19 12 19ZM12 3L9 6M12 3L15 6M14.894 12.2271L21.004 10.0031M21.004 10.0031L17.1592 8.20996M21.004 10.0031L19.2112 13.848M9.10088 12.2141L3.02588 10.0031M3.02588 10.0031L6.87088 8.20996M3.02588 10.0031L4.81888 13.848" stroke="currentColor" stroke-width="1.5" stroke-linecap="round" stroke-linejoin="round"/>
</svg>
