<svg width="24" height="24" viewBox="0 0 24 24" fill="none" xmlns="http://www.w3.org/2000/svg">
<path d="M11.0001 16L10.0001 14L3.00007 10.5C2.90433 10.4561 2.8232 10.3857 2.76632 10.2971C2.70944 10.2084 2.6792 10.1053 2.6792 10C2.6792 9.89468 2.70944 9.79158 2.76632 9.70295C2.8232 9.61431 2.90433 9.54387 3.00007 9.5L21.0001 3L18.0841 11.076M20.2002 20.2002L22.0002 22.0002M15 18C15 18.7956 15.3161 19.5587 15.8787 20.1213C16.4413 20.6839 17.2044 21 18 21C18.7956 21 19.5587 20.6839 20.1213 20.1213C20.6839 19.5587 21 18.7956 21 18C21 17.2044 20.6839 16.4413 20.1213 15.8787C19.5587 15.3161 18.7956 15 18 15C17.2044 15 16.4413 15.3161 15.8787 15.8787C15.3161 16.4413 15 17.2044 15 18Z" stroke="currentColor" stroke-width="1.5" stroke-linecap="round" stroke-linejoin="round"/>
</svg>
