<svg width="24" height="24" viewBox="0 0 24 24" fill="none" xmlns="http://www.w3.org/2000/svg">
<path d="M12.0001 18L10.0001 14L3.00007 10.5C2.90433 10.4561 2.8232 10.3857 2.76632 10.2971C2.70944 10.2084 2.6792 10.1053 2.6792 10C2.6792 9.89468 2.70944 9.79158 2.76632 9.70295C2.8232 9.61431 2.90433 9.54387 3.00007 9.5L21.0001 3L17.8601 11.697M19.001 21C18.4705 21 17.9618 20.7893 17.5868 20.4142C17.2117 20.0391 17.001 19.5304 17.001 19C17.001 18.4696 17.2117 17.9609 17.5868 17.5858C17.9618 17.2107 18.4705 17 19.001 17M19.001 21C19.5314 21 20.0401 20.7893 20.4152 20.4142C20.7903 20.0391 21.001 19.5304 21.001 19C21.001 18.4696 20.7903 17.9609 20.4152 17.5858C20.0401 17.2107 19.5314 17 19.001 17M19.001 21V22.5M19.001 17V15.5M22.0319 17.25L20.7329 18M17.2702 20L15.9702 20.75M15.9702 17.25L17.2702 18M20.7329 20L22.0329 20.75" stroke="currentColor" stroke-width="1.5" stroke-linecap="round" stroke-linejoin="round"/>
</svg>
