<svg width="24" height="24" viewBox="0 0 24 24" fill="none" xmlns="http://www.w3.org/2000/svg">
<path fill-rule="evenodd" clip-rule="evenodd" d="M21.5304 2.46969C21.736 2.67531 21.8043 2.98125 21.7055 3.25475L15.2055 21.2548C15.1984 21.2743 15.1906 21.2936 15.1819 21.3125C15.0782 21.5388 14.9117 21.7305 14.7022 21.865C14.4927 21.9994 14.249 22.0709 14.0001 22.0709C13.7511 22.0709 13.5074 21.9994 13.2979 21.865C13.0928 21.7333 12.9289 21.5467 12.8248 21.3265L9.44105 14.559L2.67364 11.1753C2.45342 11.0712 2.26678 10.9073 2.13511 10.7021C2.00067 10.4926 1.9292 10.2489 1.9292 10C1.9292 9.75109 2.00067 9.5074 2.13511 9.2979C2.26956 9.0884 2.46132 8.92191 2.68762 8.8182C2.70652 8.80954 2.72578 8.80167 2.74534 8.79461L20.7453 2.29461C21.0188 2.19584 21.3248 2.26407 21.5304 2.46969ZM3.73857 10.0307L10.3355 13.3292C10.4806 13.4018 10.5983 13.5195 10.6709 13.6646L13.9693 20.2615L19.752 4.24813L3.73857 10.0307Z" fill="currentColor"/>
</svg>
