<svg width="24" height="24" viewBox="0 0 24 24" fill="none" xmlns="http://www.w3.org/2000/svg">
<path d="M13.0801 20.162L10.0001 14L3.00007 10.5C2.90433 10.4561 2.8232 10.3857 2.76632 10.2971C2.70944 10.2084 2.6792 10.1053 2.6792 10C2.6792 9.89468 2.70944 9.79158 2.76632 9.70295C2.8232 9.61431 2.90433 9.54387 3.00007 9.5L21.0001 3L18.4501 10.063M21 15H18.5C18.1022 15 17.7206 15.158 17.4393 15.4393C17.158 15.7206 17 16.1022 17 16.5C17 16.8978 17.158 17.2794 17.4393 17.5607C17.7206 17.842 18.1022 18 18.5 18H19.5C19.8978 18 20.2794 18.158 20.5607 18.4393C20.842 18.7206 21 19.1022 21 19.5C21 19.8978 20.842 20.2794 20.5607 20.5607C20.2794 20.842 19.8978 21 19.5 21H17M19 21V22M19 14V15" stroke="currentColor" stroke-width="1.5" stroke-linecap="round" stroke-linejoin="round"/>
</svg>
