<svg width="24" height="24" viewBox="0 0 24 24" fill="none" xmlns="http://www.w3.org/2000/svg">
<path fill-rule="evenodd" clip-rule="evenodd" d="M21.5304 2.46969C21.736 2.67531 21.8042 2.98125 21.7055 3.25475L17.9815 13.5677C17.8408 13.9573 17.4109 14.1591 17.0213 14.0184C16.6318 13.8778 16.43 13.4479 16.5707 13.0583L19.752 4.24808L10.9748 7.41744C10.5852 7.55812 10.1553 7.35633 10.0147 6.96674C9.87397 6.57715 10.0758 6.14728 10.4654 6.0066L20.7453 2.2946C21.0189 2.19584 21.3248 2.26408 21.5304 2.46969ZM2.46967 2.46969C2.76256 2.1768 3.23744 2.1768 3.53033 2.46969L21.5303 20.4697C21.8232 20.7626 21.8232 21.2375 21.5303 21.5304C21.2374 21.8232 20.7626 21.8232 20.4697 21.5304L16.5292 17.5899L15.2055 21.2548C15.1984 21.2743 15.1905 21.2936 15.1819 21.3125C15.0782 21.5388 14.9117 21.7305 14.7022 21.865C14.4927 21.9994 14.249 22.0709 14.0001 22.0709C13.7511 22.0709 13.5074 21.9994 13.2979 21.865C13.0928 21.7333 12.9289 21.5467 12.8248 21.3265L9.44105 14.559L2.67364 11.1753C2.45342 11.0712 2.26678 10.9073 2.13511 10.7021C2.00067 10.4926 1.9292 10.2489 1.9292 10C1.9292 9.75109 2.00067 9.5074 2.13511 9.2979C2.26956 9.0884 2.46132 8.92191 2.68762 8.8182C2.70654 8.80954 2.72581 8.80166 2.74538 8.79459L6.41059 7.47128L2.46967 3.53035C2.17678 3.23746 2.17678 2.76258 2.46967 2.46969ZM7.58232 8.643L3.7386 10.0308L10.3355 13.3292C10.4806 13.4018 10.5983 13.5195 10.6709 13.6646L13.9694 20.2616L15.3576 16.4182L7.58232 8.643Z" fill="currentColor"/>
</svg>
