<svg width="24" height="24" viewBox="0 0 24 24" fill="none" xmlns="http://www.w3.org/2000/svg">
<path fill-rule="evenodd" clip-rule="evenodd" d="M21.5304 2.46969C21.736 2.6753 21.8042 2.98124 21.7055 3.25474L18.2185 12.9117C18.0778 13.3013 17.6479 13.5031 17.2584 13.3624C16.8688 13.2218 16.667 12.7919 16.8076 12.4023L19.752 4.24811L3.73857 10.0307L10.3355 13.3292C10.4806 13.4018 10.5983 13.5195 10.6709 13.6646L13.5669 19.4566C13.7521 19.8271 13.602 20.2776 13.2315 20.4628C12.861 20.6481 12.4105 20.4979 12.2253 20.1274L9.44105 14.559L2.67364 11.1753C2.45342 11.0712 2.26678 10.9073 2.13511 10.7021C2.00067 10.4926 1.9292 10.2489 1.9292 10C1.9292 9.75109 2.00067 9.5074 2.13511 9.2979C2.26956 9.0884 2.46132 8.92191 2.68762 8.8182C2.70652 8.80954 2.72578 8.80167 2.74534 8.79461L20.7453 2.29461C21.0188 2.19584 21.3248 2.26407 21.5304 2.46969ZM15.9697 15.9697C16.2626 15.6768 16.7374 15.6768 17.0303 15.9697L19 17.9394L20.9697 15.9697C21.2626 15.6768 21.7374 15.6768 22.0303 15.9697C22.3232 16.2626 22.3232 16.7375 22.0303 17.0304L20.0607 19L22.0303 20.9697C22.3232 21.2626 22.3232 21.7375 22.0303 22.0304C21.7374 22.3232 21.2626 22.3232 20.9697 22.0304L19 20.0607L17.0303 22.0304C16.7374 22.3232 16.2626 22.3232 15.9697 22.0304C15.6768 21.7375 15.6768 21.2626 15.9697 20.9697L17.9393 19L15.9697 17.0304C15.6768 16.7375 15.6768 16.2626 15.9697 15.9697Z" fill="currentColor"/>
</svg>
