<svg width="24" height="24" viewBox="0 0 24 24" fill="none" xmlns="http://www.w3.org/2000/svg">
<path d="M4 8.00001V6.00001C4 5.44601 4.225 4.94501 4.588 4.58301M4 16V18C4 18.5304 4.21071 19.0391 4.58579 19.4142C4.96086 19.7893 5.46957 20 6 20H8M16 4H18C18.5304 4 19.0391 4.21071 19.4142 4.58579C19.7893 4.96086 20 5.46957 20 6V8M16 20H18C18.55 20 19.05 19.778 19.41 19.418M15 11C15.2652 11 15.5196 11.1054 15.7071 11.2929C15.8946 11.4804 16 11.7348 16 12M15.71 15.704C15.6171 15.7978 15.5065 15.8722 15.3846 15.923C15.2627 15.9738 15.132 16 15 16H9C8.73478 16 8.48043 15.8946 8.29289 15.7071C8.10536 15.5196 8 15.2652 8 15V12C8 11.7348 8.10536 11.4804 8.29289 11.2929C8.48043 11.1054 8.73478 11 9 11H11M10 11V9.99996M11.182 7.17395C11.4866 7.03742 11.8206 6.97931 12.1534 7.00492C12.4863 7.03053 12.8074 7.13905 13.0876 7.32059C13.3677 7.50212 13.598 7.7509 13.7574 8.04423C13.9167 8.33756 14.0002 8.66612 14 8.99996V9.99996M3 3L21 21" stroke="currentColor" stroke-width="1.5" stroke-linecap="round" stroke-linejoin="round"/>
</svg>
