<svg width="24" height="24" viewBox="0 0 24 24" fill="none" xmlns="http://www.w3.org/2000/svg">
<path d="M12 2C11.782 2 11.568 2.002 11.358 2.005L10.742 2.022L10.443 2.035L9.864 2.069L9.311 2.115C4.526 2.579 2.579 4.526 2.115 9.311L2.069 9.864L2.035 10.443C2.03 10.541 2.025 10.641 2.022 10.742L2.005 11.358L2.001 11.676L2 12C2 12.218 2.002 12.432 2.005 12.642L2.022 13.258L2.035 13.557L2.069 14.136L2.115 14.689C2.579 19.474 4.526 21.421 9.311 21.885L9.864 21.931L10.443 21.965C10.541 21.97 10.641 21.975 10.742 21.978L11.358 21.995L12 22L12.642 21.995L13.258 21.978L13.557 21.965L14.136 21.931L14.689 21.885C19.474 21.421 21.421 19.474 21.885 14.689L21.931 14.136L21.965 13.557C21.97 13.459 21.975 13.359 21.978 13.258L21.995 12.642L22 12L21.995 11.358L21.978 10.742L21.965 10.443L21.931 9.864L21.885 9.311C21.421 4.526 19.474 2.579 14.689 2.115L14.136 2.069L13.557 2.035C13.4574 2.03014 13.3577 2.0258 13.258 2.022L12.642 2.005L12.324 2.001L12 2ZM12 6C12.7652 5.99996 13.5015 6.29233 14.0583 6.81728C14.615 7.34224 14.9501 8.06011 14.995 8.824L15 9V10C15.5046 9.99984 15.9906 10.1904 16.3605 10.5335C16.7305 10.8766 16.9572 11.3468 16.995 11.85L17 12V15C17.0002 15.5046 16.8096 15.9906 16.4665 16.3605C16.1234 16.7305 15.6532 16.9572 15.15 16.995L15 17H9C8.49542 17.0002 8.00943 16.8096 7.63945 16.4665C7.26947 16.1234 7.04284 15.6532 7.005 15.15L7 15V12C6.99984 11.4954 7.19041 11.0094 7.5335 10.6395C7.87659 10.2695 8.34685 10.0428 8.85 10.005L9 10V9C9 8.20435 9.31607 7.44129 9.87868 6.87868C10.4413 6.31607 11.2044 6 12 6ZM15 12H9V15H15V12ZM12 8C11.7551 8.00003 11.5187 8.08996 11.3356 8.25272C11.1526 8.41547 11.0357 8.63975 11.007 8.883L11 9V10H13V9C13 8.73478 12.8946 8.48043 12.7071 8.29289C12.5196 8.10536 12.2652 8 12 8Z" fill="currentColor"/>
</svg>
