<svg width="24" height="24" viewBox="0 0 24 24" fill="none" xmlns="http://www.w3.org/2000/svg">
<path d="M7.46203 7.493C6.97606 8.75786 6.86764 10.1366 7.14993 11.4619C7.43223 12.7871 8.09309 14.002 9.05234 14.959C10.0116 15.916 11.228 16.5741 12.5539 16.8533C13.8798 17.1325 15.2583 17.0209 16.522 16.532M18.938 14.962C20.2528 13.6513 20.9931 11.872 20.996 10.0155C20.9989 8.15894 20.2642 6.37731 18.9535 5.0625C17.6428 3.74769 15.8635 3.0074 14.007 3.00449C12.1505 3.00159 10.3688 3.7363 9.05403 5.047M21 10C21 9.07174 20.6313 8.1815 19.9749 7.52513C19.3185 6.86875 18.4283 6.5 17.5 6.5C16.5717 6.5 15.6815 6.86875 15.0251 7.52513C14.3687 8.1815 14 9.07174 14 10C14.9283 10 15.8185 10.3687 16.4749 11.0251C17.1313 11.6815 17.5 12.5717 17.5 13.5M12.71 12.715C12.1967 13.133 11.5754 13.3968 10.9182 13.4759C10.261 13.555 9.59486 13.4461 8.99706 13.1619C8.39925 12.8776 7.89431 12.4297 7.54083 11.87C7.18734 11.3104 6.99981 10.6619 7 10M14 17C14.838 17 15.607 16.706 16.209 16.215M14 3C13.0717 3 12.1815 3.36875 11.5251 4.02513C10.8687 4.6815 10.5 5.57174 10.5 6.5M3 21L9 15M3 3L21 21" stroke="currentColor" stroke-width="1.5" stroke-linecap="round" stroke-linejoin="round"/>
</svg>
