<svg width="24" height="24" viewBox="0 0 24 24" fill="none" xmlns="http://www.w3.org/2000/svg">
<path d="M6.58304 6.608C5.37704 7.666 4.51304 9.234 3.65004 12.057C3.23004 13.427 3.01404 15.019 3.00204 16.832C2.99004 18.507 4.26304 19.886 5.87904 19.993L6.08204 20C7.69304 20 9.00004 18.665 9.00004 17.02V9M15 11V7.257C15 6.563 15.552 6 16.233 6C16.437 6 16.638 6.052 16.817 6.15L16.947 6.233C18.407 7.292 19.379 8.88 20.352 12.057C20.772 13.427 20.988 15.019 21 16.832C21 16.895 21 16.957 21 17.019M19.545 19.529C19.128 19.794 18.645 19.959 18.126 19.993L17.924 20C16.311 20 15.004 18.665 15.004 17.02V15M9 12C9.39664 12.0005 9.78941 11.922 10.1554 11.7692C10.5215 11.6164 10.8534 11.3923 11.132 11.11M12 4V8M3 3L21 21" stroke="currentColor" stroke-width="1.5" stroke-linecap="round" stroke-linejoin="round"/>
</svg>
