<svg width="24" height="24" viewBox="0 0 24 24" fill="none" xmlns="http://www.w3.org/2000/svg">
<path d="M9 12C9.79565 12 10.5587 11.6839 11.1213 11.1213C11.6839 10.5587 12 9.79565 12 9M12 9C12 9.79565 12.3161 10.5587 12.8787 11.1213C13.4413 11.6839 14.2044 12 15 12M12 9V4M6.08104 20C7.69304 20 9.00004 18.665 9.00004 17.02V7.257C9.00004 6.563 8.44804 6 7.76804 6C7.56304 6 7.36304 6.052 7.18404 6.15L7.05404 6.233C5.59404 7.292 4.62204 8.88 3.65004 12.057C3.23004 13.427 3.01404 15.019 3.00204 16.832C2.99004 18.507 4.26304 19.886 5.87904 19.993L6.08104 20ZM17.92 20C16.307 20 15 18.665 15 17.02V7.257C15 6.563 15.552 6 16.233 6C16.437 6 16.638 6.052 16.817 6.15L16.947 6.233C18.407 7.292 19.379 8.88 20.352 12.057C20.772 13.427 20.988 15.019 21 16.832C21.012 18.507 19.739 19.886 18.122 19.993L17.92 20Z" stroke="currentColor" stroke-width="1.5" stroke-linecap="round" stroke-linejoin="round"/>
</svg>
