<svg width="24" height="24" viewBox="0 0 24 24" fill="none" xmlns="http://www.w3.org/2000/svg">
<path d="M17.47 17.467C16.906 18.7182 15.9302 19.7382 14.7052 20.357C13.4802 20.9757 12.0801 21.1559 10.7384 20.8673C9.39663 20.5787 8.19439 19.8389 7.33212 18.7712C6.46985 17.7034 5.99968 16.3724 6 15C7.5913 15 9.11742 15.6321 10.2426 16.7574C11.3679 17.8826 12 19.4087 12 21M15.53 15.53C14.4776 16.0054 13.5848 16.7744 12.9586 17.7446C12.3325 18.7149 11.9996 19.8453 12 21M12 21V11M10.866 10.87C9.9589 10.6582 9.12886 10.1976 8.46921 9.53985C7.80957 8.88215 7.34648 8.05348 7.132 7.147M7 3L10 5L12 3L14 5L17 3V6C17.0001 6.898 16.7583 7.77944 16.3001 8.55174C15.8419 9.32404 15.1842 9.95868 14.396 10.389M3 3L21 21" stroke="currentColor" stroke-width="1.5" stroke-linecap="round" stroke-linejoin="round"/>
</svg>
