<svg width="24" height="24" viewBox="0 0 24 24" fill="none" xmlns="http://www.w3.org/2000/svg">
<path d="M12 21C10.4087 21 8.88258 20.3679 7.75736 19.2426C6.63214 18.1174 6 16.5913 6 15C7.5913 15 9.11742 15.6321 10.2426 16.7574C11.3679 17.8826 12 19.4087 12 21ZM12 21C13.5913 21 15.1174 20.3679 16.2426 19.2426C17.3679 18.1174 18 16.5913 18 15C16.4087 15 14.8826 15.6321 13.7574 16.7574C12.6321 17.8826 12 19.4087 12 21ZM12 21V11M12 11C10.6739 11 9.40215 10.4732 8.46447 9.53553C7.52678 8.59785 7 7.32608 7 6V3L10 5L12 3L14 5L17 3V6C17 7.32608 16.4732 8.59785 15.5355 9.53553C14.5979 10.4732 13.3261 11 12 11Z" stroke="currentColor" stroke-width="1.5" stroke-linecap="round" stroke-linejoin="round"/>
</svg>
