<svg width="24" height="24" viewBox="0 0 24 24" fill="none" xmlns="http://www.w3.org/2000/svg">
<path d="M13.5 19H5C4.46957 19 3.96086 18.7893 3.58579 18.4142C3.21071 18.0391 3 17.5304 3 17V7M3 7C3 6.46957 3.21071 5.96086 3.58579 5.58579C3.96086 5.21071 4.46957 5 5 5H19C19.5304 5 20.0391 5.21071 20.4142 5.58579C20.7893 5.96086 21 6.46957 21 7M3 7L12 13L21 7M21 7V10.5M21 15H18.5C18.1022 15 17.7206 15.158 17.4393 15.4393C17.158 15.7206 17 16.1022 17 16.5C17 16.8978 17.158 17.2794 17.4393 17.5607C17.7206 17.842 18.1022 18 18.5 18H19.5C19.8978 18 20.2794 18.158 20.5607 18.4393C20.842 18.7206 21 19.1022 21 19.5C21 19.8978 20.842 20.2794 20.5607 20.5607C20.2794 20.842 19.8978 21 19.5 21H17M19 21V22M19 14V15" stroke="currentColor" stroke-width="1.5" stroke-linecap="round" stroke-linejoin="round"/>
</svg>
