<svg width="24" height="24" viewBox="0 0 24 24" fill="none" xmlns="http://www.w3.org/2000/svg">
<path d="M14.872 14.287L21.394 20.807C21.1325 21.154 20.7988 21.4399 20.4158 21.6451C20.0328 21.8502 19.6097 21.9696 19.176 21.995L19 22H5C4.53597 22.0005 4.07817 21.8931 3.66271 21.6865C3.24725 21.4798 2.8855 21.1794 2.606 20.809L9.127 14.287L11.445 15.832L11.561 15.898C11.6977 15.9648 11.8478 15.9995 12 15.9995C12.1522 15.9995 12.3023 15.9648 12.439 15.898L12.555 15.832L14.872 14.287Z" fill="currentColor"/>
<path d="M2 9.53496L7.429 13.155L2 18.585V9.53496Z" fill="currentColor"/>
<path d="M22 9.53496V18.585L16.57 13.155L22 9.53496Z" fill="currentColor"/>
<path d="M12.44 2.10196L12.555 2.16796L20.999 7.79696L12 13.797L3 7.79696L11.445 2.16696C11.5906 2.07021 11.7589 2.01329 11.9333 2.00189C12.1077 1.99048 12.2831 2.02499 12.44 2.10196Z" fill="currentColor"/>
</svg>
