<svg width="24" height="24" viewBox="0 0 24 24" fill="none" xmlns="http://www.w3.org/2000/svg">
<path d="M3 7H6M3 11H5M9.79999 7.5L12.782 10.78C13.047 11.0715 13.3668 11.308 13.7232 11.476C14.0796 11.6439 14.4656 11.74 14.8591 11.7588C15.2527 11.7775 15.6461 11.7186 16.0168 11.5853C16.3876 11.452 16.7285 11.247 17.02 10.982L20.3 8M9.02002 8.801L8.42002 14.801C8.39222 15.079 8.42298 15.3598 8.51033 15.6252C8.59768 15.8906 8.73968 16.1348 8.92717 16.342C9.11466 16.5492 9.34348 16.7148 9.59888 16.8281C9.85428 16.9414 10.1306 17 10.41 17H18.39C18.886 17 19.3643 16.8157 19.732 16.4829C20.0997 16.1501 20.3307 15.6925 20.38 15.199L20.98 9.199C21.0078 8.92097 20.9771 8.64019 20.8897 8.37478C20.8024 8.10936 20.6604 7.86519 20.4729 7.65801C20.2854 7.45083 20.0566 7.28524 19.8012 7.17191C19.5458 7.05857 19.2694 7.00001 18.99 7H11.01C10.5141 7.00002 10.0358 7.18432 9.66805 7.51712C9.30032 7.84993 9.06937 8.30749 9.02002 8.801Z" stroke="currentColor" stroke-width="1.5" stroke-linecap="round" stroke-linejoin="round"/>
</svg>
