<svg width="24" height="24" viewBox="0 0 24 24" fill="none" xmlns="http://www.w3.org/2000/svg">
<path fill-rule="evenodd" clip-rule="evenodd" d="M14.3457 4.14131C13.1101 3.7192 11.7836 3.63856 10.506 3.90792C9.22846 4.17727 8.04736 4.78663 7.08743 5.67163C6.12751 6.55663 5.42439 7.68443 5.05232 8.93592C4.68025 10.1874 4.65305 11.5162 4.97359 12.7818C5.2941 14.0474 5.95039 15.2029 6.87316 16.1265C6.87324 16.1265 6.87332 16.1266 6.87341 16.1267L11.1171 20.3694C11.3137 20.5659 11.5702 20.6913 11.8461 20.7257C12.1219 20.7601 12.4014 20.7016 12.6402 20.5594C12.9962 20.3475 13.4564 20.4643 13.6683 20.8202C13.8802 21.1761 13.7635 21.6364 13.4075 21.8483C12.8821 22.1611 12.2673 22.2899 11.6604 22.2142C11.0535 22.1385 10.4892 21.8626 10.0567 21.4303L10.0566 21.4302L5.81262 17.1872L5.81238 17.187C4.69853 16.0724 3.90635 14.6776 3.51949 13.1501C3.13264 11.6226 3.16547 10.0189 3.61451 8.50847C4.06356 6.99804 4.91215 5.6369 6.07069 4.5688C7.22922 3.5007 8.65468 2.76527 10.1966 2.44018C11.7384 2.1151 13.3395 2.21242 14.8306 2.72187C16.3217 3.23131 17.6476 4.13398 18.6683 5.33455C19.6889 6.53511 20.3664 7.98901 20.6292 9.54271C20.892 11.0964 20.7303 12.6922 20.1613 14.1617C20.0117 14.5479 19.5773 14.7398 19.1911 14.5902C18.8048 14.4407 18.6129 14.0063 18.7625 13.62C19.234 12.4025 19.3679 11.0802 19.1502 9.79287C18.9324 8.50552 18.3711 7.30086 17.5254 6.3061C16.6798 5.31135 15.5812 4.56342 14.3457 4.14131ZM9.34835 8.34823C10.0516 7.64497 11.0054 7.24988 12 7.24988C12.9946 7.24988 13.9484 7.64497 14.6517 8.34823C15.3549 9.05149 15.75 10.0053 15.75 10.9999C15.75 11.9944 15.3549 12.9483 14.6517 13.6515C13.9484 14.3548 12.9946 14.7499 12 14.7499C11.0054 14.7499 10.0516 14.3548 9.34835 13.6515C8.64509 12.9483 8.25 11.9944 8.25 10.9999C8.25 10.0053 8.64509 9.05149 9.34835 8.34823ZM12 8.74988C11.4033 8.74988 10.831 8.98693 10.409 9.40889C9.98705 9.83084 9.75 10.4031 9.75 10.9999C9.75 11.5966 9.98705 12.1689 10.409 12.5909C10.831 13.0128 11.4033 13.2499 12 13.2499C12.5967 13.2499 13.169 13.0128 13.591 12.5909C14.0129 12.1689 14.25 11.5966 14.25 10.9999C14.25 10.4031 14.0129 9.83084 13.591 9.40889C13.169 8.98693 12.5967 8.74988 12 8.74988ZM16.4697 16.4695C16.7626 16.1767 17.2374 16.1767 17.5303 16.4695L19.5 18.4392L21.4697 16.4695C21.7626 16.1767 22.2374 16.1767 22.5303 16.4695C22.8232 16.7624 22.8232 17.2373 22.5303 17.5302L20.5607 19.4999L22.5303 21.4695C22.8232 21.7624 22.8232 22.2373 22.5303 22.5302C22.2374 22.8231 21.7626 22.8231 21.4697 22.5302L19.5 20.5605L17.5303 22.5302C17.2374 22.8231 16.7626 22.8231 16.4697 22.5302C16.1768 22.2373 16.1768 21.7624 16.4697 21.4695L18.4393 19.4999L16.4697 17.5302C16.1768 17.2373 16.1768 16.7624 16.4697 16.4695Z" fill="currentColor"/>
</svg>
