<svg width="24" height="24" viewBox="0 0 24 24" fill="none" xmlns="http://www.w3.org/2000/svg">
<path fill-rule="evenodd" clip-rule="evenodd" d="M2.46967 2.46967C2.76256 2.17678 3.23744 2.17678 3.53033 2.46967L21.5303 20.4697C21.8232 20.7626 21.8232 21.2374 21.5303 21.5303C21.2374 21.8232 20.7626 21.8232 20.4697 21.5303L18.1852 19.2459L15.3354 20.6708C15.1243 20.7764 14.8757 20.7764 14.6646 20.6708L9 17.8385L3.33541 20.6708C3.10292 20.7871 2.82681 20.7746 2.6057 20.638C2.38459 20.5013 2.25 20.2599 2.25 20V7C2.25 6.71596 2.41046 6.45629 2.66449 6.32923L4.40033 5.46099L2.46967 3.53033C2.17678 3.23744 2.17678 2.76256 2.46967 2.46967ZM5.5183 6.57896L3.75 7.46345V18.7865L8.25 16.5365V9.31066L5.5183 6.57896ZM9.75 10.8107V16.5365L14.25 18.7865V15.3107L9.75 10.8107ZM15.75 16.8107V18.7865L17.0672 18.1279L15.75 16.8107ZM21.3943 3.36201C21.6154 3.49867 21.75 3.74007 21.75 4V17C21.75 17.4142 21.4142 17.75 21 17.75C20.5858 17.75 20.25 17.4142 20.25 17V5.21353L15.75 7.46353V11C15.75 11.4142 15.4142 11.75 15 11.75C14.5858 11.75 14.25 11.4142 14.25 11V7.46353L9.72303 5.20004C9.63549 5.51714 9.34494 5.75 9 5.75C8.61531 5.75 8.29827 5.46038 8.25503 5.08729C8.00407 5.06523 7.77011 4.91726 7.64918 4.67541C7.46394 4.30493 7.61411 3.85442 7.98459 3.66918L8.66459 3.32918C8.87574 3.22361 9.12426 3.22361 9.33541 3.32918L15 6.16147L20.6646 3.32918C20.8971 3.21293 21.1732 3.22536 21.3943 3.36201Z" fill="currentColor"/>
</svg>
