<svg width="24" height="24" viewBox="0 0 24 24" fill="none" xmlns="http://www.w3.org/2000/svg">
<path fill-rule="evenodd" clip-rule="evenodd" d="M13.2889 3.86593C12.0767 3.64699 10.8288 3.7405 9.6628 4.13763C8.49681 4.53476 7.45123 5.22241 6.62471 6.13571C5.79819 7.049 5.21799 8.15782 4.93885 9.35754C4.65972 10.5573 4.69086 11.8083 5.02932 12.9927C5.36778 14.177 6.00238 15.2555 6.87326 16.1266C6.87329 16.1266 6.87332 16.1266 6.87336 16.1267L11.1171 20.3693C11.3514 20.6035 11.6692 20.735 12.0005 20.735C12.3318 20.735 12.6495 20.6035 12.8839 20.3693C13.177 20.0766 13.6518 20.0768 13.9446 20.3699C14.2373 20.6629 14.2371 21.1378 13.9441 21.4305C13.4284 21.9457 12.7294 22.235 12.0005 22.235C11.2716 22.235 10.5726 21.9457 10.0569 21.4305L10.0567 21.4303L5.81272 17.1873L5.81262 17.1872C4.7615 16.136 3.99556 14.8342 3.58706 13.4048C3.17857 11.9755 3.14099 10.4656 3.47788 9.01762C3.81476 7.56968 4.51501 6.23145 5.51253 5.1292C6.51005 4.02695 7.77196 3.19702 9.17919 2.71773C10.5864 2.23843 12.0926 2.12558 13.5555 2.38982C15.0184 2.65405 16.3899 3.28667 17.5406 4.22796C18.6912 5.16926 19.5831 6.3882 20.132 7.76976C20.6809 9.15133 20.8687 10.65 20.6778 12.1243C20.6246 12.5351 20.2485 12.8249 19.8377 12.7717C19.4269 12.7185 19.137 12.3424 19.1902 11.9316C19.3484 10.7101 19.1928 9.46833 18.738 8.3236C18.2832 7.17887 17.5442 6.1689 16.5908 5.38897C15.6374 4.60904 14.501 4.08487 13.2889 3.86593ZM9.34835 8.34835C10.0516 7.64509 11.0054 7.25 12 7.25C12.9946 7.25 13.9484 7.64509 14.6517 8.34835C15.3549 9.05161 15.75 10.0054 15.75 11C15.75 11.9946 15.3549 12.9484 14.6517 13.6517C13.9484 14.3549 12.9946 14.75 12 14.75C11.0054 14.75 10.0516 14.3549 9.34835 13.6517C8.64509 12.9484 8.25 11.9946 8.25 11C8.25 10.0054 8.64509 9.05161 9.34835 8.34835ZM12 8.75C11.4033 8.75 10.831 8.98705 10.409 9.40901C9.98705 9.83097 9.75 10.4033 9.75 11C9.75 11.5967 9.98705 12.169 10.409 12.591C10.831 13.0129 11.4033 13.25 12 13.25C12.5967 13.25 13.169 13.0129 13.591 12.591C14.0129 12.169 14.25 11.5967 14.25 11C14.25 10.4033 14.0129 9.83097 13.591 9.40901C13.169 8.98705 12.5967 8.75 12 8.75ZM19.416 15.376C19.7607 15.6057 19.8538 16.0714 19.624 16.416L18.4014 18.25H21C21.2766 18.25 21.5307 18.4022 21.6613 18.6461C21.7918 18.89 21.7775 19.1859 21.624 19.416L19.624 22.416C19.3943 22.7607 18.9286 22.8538 18.584 22.624C18.2393 22.3943 18.1462 21.9286 18.376 21.584L19.5986 19.75H17C16.7234 19.75 16.4693 19.5978 16.3387 19.3539C16.2082 19.11 16.2225 18.8141 16.376 18.584L18.376 15.584C18.6057 15.2393 19.0714 15.1462 19.416 15.376Z" fill="currentColor"/>
</svg>
