<svg width="24" height="24" viewBox="0 0 24 24" fill="none" xmlns="http://www.w3.org/2000/svg">
<path fill-rule="evenodd" clip-rule="evenodd" d="M13.2741 3.86307C12.0624 3.64678 10.8157 3.74251 9.65127 4.14124C8.48686 4.53997 7.44313 5.22857 6.6184 6.14217C5.79368 7.05577 5.21512 8.16428 4.93722 9.36329C4.65932 10.5623 4.69125 11.8123 5.02998 12.9956C5.3687 14.1788 6.00306 15.2563 6.8733 16.1266M6.8733 16.1266L11.1173 20.3696C11.1173 20.3696 11.1173 20.3696 11.1173 20.3696C11.2681 20.5203 11.455 20.63 11.6602 20.6881C11.8654 20.7461 12.082 20.7507 12.2894 20.7014C12.6924 20.6055 13.0968 20.8544 13.1927 21.2574C13.2885 21.6604 13.0396 22.0647 12.6366 22.1606C12.18 22.2693 11.7032 22.2592 11.2516 22.1314C10.8001 22.0035 10.3887 21.7622 10.0568 21.4304L5.81277 17.1874C4.76243 16.137 3.99672 14.8364 3.5879 13.4084C3.17909 11.9803 3.14056 10.4717 3.47595 9.02461C3.81135 7.57753 4.50961 6.23967 5.50497 5.13705C6.50033 4.03443 7.76 3.20336 9.16532 2.72214C10.5706 2.24091 12.0753 2.12538 13.5377 2.38641C15 2.64745 16.3718 3.27647 17.5238 4.2142C18.6758 5.15194 19.5701 6.36752 20.1225 7.74643C20.6749 9.12533 20.8671 10.6222 20.6811 12.0959C20.6293 12.5069 20.2541 12.798 19.8431 12.7461C19.4322 12.6942 19.1411 12.319 19.1929 11.9081C19.3471 10.687 19.1878 9.44674 18.7301 8.30422C18.2724 7.1617 17.5314 6.15451 16.5768 5.37752C15.6223 4.60054 14.4857 4.07936 13.2741 3.86307M9.34835 8.34835C10.0516 7.64509 11.0054 7.25 12 7.25C12.9946 7.25 13.9484 7.64509 14.6517 8.34835C15.3549 9.05161 15.75 10.0054 15.75 11C15.75 11.9946 15.3549 12.9484 14.6517 13.6517C13.9484 14.3549 12.9946 14.75 12 14.75C11.0054 14.75 10.0516 14.3549 9.34835 13.6517C8.64509 12.9484 8.25 11.9946 8.25 11C8.25 10.0054 8.64509 9.05161 9.34835 8.34835ZM12 8.75C11.4033 8.75 10.831 8.98705 10.409 9.40901C9.98705 9.83097 9.75 10.4033 9.75 11C9.75 11.5967 9.98705 12.169 10.409 12.591C10.831 13.0129 11.4033 13.25 12 13.25C12.5967 13.25 13.169 13.0129 13.591 12.591C14.0129 12.169 14.25 11.5967 14.25 11C14.25 10.4033 14.0129 9.83097 13.591 9.40901C13.169 8.98705 12.5967 8.75 12 8.75ZM16.3483 16.3483C17.0516 15.6451 18.0054 15.25 19 15.25C19.9946 15.25 20.9484 15.6451 21.6517 16.3483C22.3549 17.0516 22.75 18.0054 22.75 19C22.75 19.9946 22.3549 20.9484 21.6517 21.6517C20.9484 22.3549 19.9946 22.75 19 22.75C18.0054 22.75 17.0516 22.3549 16.3483 21.6517C15.6451 20.9484 15.25 19.9946 15.25 19C15.25 18.0054 15.6451 17.0516 16.3483 16.3483ZM19 16.75C18.4033 16.75 17.831 16.9871 17.409 17.409C16.9871 17.831 16.75 18.4033 16.75 19C16.75 19.3388 16.8264 19.6697 16.9697 19.9697L19.9697 16.9697C19.6697 16.8264 19.3388 16.75 19 16.75ZM21.0303 18.0303L18.0303 21.0303C18.3303 21.1736 18.6612 21.25 19 21.25C19.5967 21.25 20.169 21.0129 20.591 20.591C21.0129 20.169 21.25 19.5967 21.25 19C21.25 18.6612 21.1736 18.3303 21.0303 18.0303Z" fill="currentColor"/>
</svg>
