<svg width="24" height="24" viewBox="0 0 24 24" fill="none" xmlns="http://www.w3.org/2000/svg">
<path fill-rule="evenodd" clip-rule="evenodd" d="M12.7496 3.78932C11.5612 3.66582 10.3606 3.83797 9.25472 4.29046C8.14884 4.74294 7.17194 5.46175 6.41092 6.38292C5.6499 7.30409 5.12836 8.39908 4.89267 9.57047C4.65699 10.7419 4.71449 11.9534 5.06004 13.0972C5.40558 14.2409 6.02844 15.2816 6.87322 16.1265C6.87325 16.1265 6.87329 16.1266 6.87332 16.1266L11.1172 20.3695L11.1176 20.3699C11.3145 20.567 11.5721 20.6922 11.8487 20.7252C12.26 20.7742 12.5537 21.1474 12.5047 21.5587C12.4556 21.97 12.0825 22.2637 11.6712 22.2146C11.06 22.1418 10.4912 21.8654 10.0563 21.4299L5.81268 17.1873L5.81258 17.1872C4.79295 16.1674 4.04118 14.9114 3.62413 13.531C3.20709 12.1505 3.1377 10.6884 3.42214 9.27461C3.70658 7.86086 4.33604 6.53932 5.25451 5.42756C6.17298 4.3158 7.352 3.44828 8.68668 2.90217C10.0214 2.35606 11.4703 2.1483 12.9047 2.29736C14.339 2.44642 15.7143 2.94768 16.9082 3.75656C18.1021 4.56543 19.0775 5.65684 19.7477 6.9337C20.418 8.21057 20.7623 9.63329 20.7499 11.0753C20.7464 11.4895 20.4077 11.8224 19.9935 11.8189C19.5793 11.8153 19.2464 11.4767 19.25 11.0625C19.2602 9.86767 18.9749 8.68884 18.4196 7.63087C17.8643 6.5729 17.056 5.66859 16.0668 4.99837C15.0776 4.32816 13.9381 3.91283 12.7496 3.78932ZM11.7275 7.26101C12.4146 7.21095 13.1023 7.35115 13.715 7.66622C14.3276 7.9813 14.8417 8.45906 15.2007 9.04709C15.5597 9.63512 15.7497 10.3107 15.75 10.9996C15.7502 11.4138 15.4145 11.7498 15.0003 11.7499C14.5861 11.7501 14.2502 11.4144 14.25 11.0002C14.2498 10.5869 14.1358 10.1815 13.9204 9.8287C13.705 9.47588 13.3966 9.18922 13.029 9.00017C12.6614 8.81113 12.2488 8.72701 11.8365 8.75705C11.4242 8.78709 11.0282 8.93012 10.6919 9.17045C10.3555 9.41078 10.0919 9.73912 9.92994 10.1194C9.76796 10.4997 9.71388 10.9173 9.77363 11.3264C9.83339 11.7354 10.0047 12.12 10.2687 12.4381C10.5327 12.7562 10.8792 12.9954 11.2703 13.1295C11.6621 13.2638 11.8708 13.6904 11.7365 14.0822C11.6021 14.474 11.1756 14.6827 10.7838 14.5484C10.132 14.3249 9.55449 13.9263 9.11447 13.3961C8.67445 12.866 8.38898 12.2249 8.28939 11.5432C8.1898 10.8615 8.27993 10.1655 8.5499 9.53165C8.81986 8.8978 9.25923 8.35057 9.81978 7.95002C10.3803 7.54946 11.0404 7.31108 11.7275 7.26101ZM14.129 15.0945C14.6887 14.5517 15.4381 14.2488 16.2178 14.2502C16.865 14.2515 17.4906 14.4624 18.0035 14.8458C18.5181 14.4636 19.1453 14.2545 19.7933 14.2558C20.5731 14.2573 21.3216 14.5632 21.8792 15.1083C22.1556 15.3783 22.3752 15.701 22.5249 16.0573C22.6746 16.4136 22.7514 16.7962 22.7507 17.1826C22.7501 17.5691 22.6721 17.9515 22.5212 18.3073C22.3706 18.6623 22.1506 18.9837 21.874 19.2525C21.8735 19.2531 21.873 19.2536 21.8724 19.2541L18.5251 22.5354C18.2333 22.8216 17.7661 22.8213 17.4745 22.5349L14.1209 19.2402C14.1207 19.24 14.1204 19.2398 14.1202 19.2395C13.8442 18.9696 13.625 18.6471 13.4755 18.2911C13.3259 17.9348 13.2493 17.5521 13.25 17.1656C13.2508 16.7792 13.3289 16.3968 13.4799 16.0411C13.6309 15.6854 13.8516 15.3635 14.129 15.0945M16.2149 15.7502C15.8261 15.7495 15.4524 15.9006 15.1733 16.1712L15.1732 16.1713C15.0397 16.3008 14.9334 16.4558 14.8607 16.6271C14.788 16.7984 14.7504 16.9825 14.75 17.1686C14.7496 17.3546 14.7866 17.5389 14.8586 17.7105C14.9306 17.882 15.0363 18.0374 15.1693 18.1675L15.1707 18.1689L18.0007 20.949L20.8251 18.1803L20.8278 18.1776C20.9614 18.048 21.0676 17.893 21.1402 17.7217C21.2129 17.5504 21.2504 17.3663 21.2507 17.1802C21.251 16.9941 21.2141 16.8099 21.142 16.6383C21.0699 16.4668 20.9642 16.3114 20.8311 16.1814L20.8307 16.1811C20.5526 15.9091 20.1794 15.7565 19.7904 15.7558C19.4021 15.755 19.0289 15.9057 18.7499 16.1756C18.7494 16.1761 18.7489 16.1766 18.7484 16.1771L18.5277 16.394C18.2354 16.681 17.767 16.6804 17.4754 16.3928L17.2549 16.1752C17.2545 16.1749 17.2542 16.1745 17.2538 16.1742C16.9759 15.9031 16.6032 15.751 16.2149 15.7502Z" fill="currentColor"/>
</svg>
