<svg width="24" height="24" viewBox="0 0 24 24" fill="none" xmlns="http://www.w3.org/2000/svg">
<path fill-rule="evenodd" clip-rule="evenodd" d="M13.9412 4.01583C12.7107 3.67413 11.4119 3.66349 10.176 3.98497C8.94018 4.30645 7.81115 4.94865 6.90319 5.8466C5.99523 6.74455 5.34055 7.86639 5.00539 9.09861C4.67023 10.3308 4.66647 11.6297 4.99451 12.8639C5.32255 14.098 5.97073 15.2236 6.87349 16.1268L11.1173 20.3696C11.331 20.5835 11.6157 20.7123 11.9175 20.7315C12.3309 20.7577 12.6448 21.1141 12.6185 21.5275C12.5923 21.9409 12.2359 22.2547 11.8226 22.2285C11.1563 22.1862 10.5284 21.9023 10.0565 21.4301L5.81277 17.1874C4.72323 16.0973 3.94075 14.7387 3.54485 13.2492C3.14894 11.7597 3.15347 10.1921 3.55798 8.70492C3.96248 7.21775 4.75261 5.86381 5.84843 4.78008C6.94424 3.69635 8.30686 2.92128 9.79841 2.53328C11.29 2.14529 12.8575 2.15813 14.3425 2.57053C15.8275 2.98292 17.1773 3.78023 18.2552 4.88178C19.3331 5.98333 20.1009 7.35004 20.481 8.84364C20.861 10.3372 20.8399 11.9047 20.4196 13.3875C20.3067 13.786 19.892 14.0175 19.4935 13.9046C19.095 13.7916 18.8635 13.377 18.9765 12.9785C19.3247 11.7499 19.3422 10.4511 19.0273 9.21355C18.7124 7.976 18.0762 6.84358 17.1831 5.93087C16.2899 5.01815 15.1716 4.35753 13.9412 4.01583ZM9.34835 8.34835C10.0516 7.64509 11.0054 7.25 12 7.25C12.9946 7.25 13.9484 7.64509 14.6517 8.34835C15.3549 9.05161 15.75 10.0054 15.75 11C15.75 11.9946 15.3549 12.9484 14.6517 13.6517C13.9484 14.3549 12.9946 14.75 12 14.75C11.0054 14.75 10.0516 14.3549 9.34835 13.6517C8.64509 12.9484 8.25 11.9946 8.25 11C8.25 10.0054 8.64509 9.05161 9.34835 8.34835ZM12 8.75C11.4033 8.75 10.831 8.98705 10.409 9.40901C9.98705 9.83097 9.75 10.4033 9.75 11C9.75 11.5967 9.98705 12.169 10.409 12.591C10.831 13.0129 11.4033 13.25 12 13.25C12.5967 13.25 13.169 13.0129 13.591 12.591C14.0129 12.169 14.25 11.5967 14.25 11C14.25 10.4033 14.0129 9.83097 13.591 9.40901C13.169 8.98705 12.5967 8.75 12 8.75ZM21.5303 16.4697C21.8232 16.7626 21.8232 17.2374 21.5303 17.5303L17.5303 21.5303C17.2374 21.8232 16.7626 21.8232 16.4697 21.5303L14.4697 19.5303C14.1768 19.2374 14.1768 18.7626 14.4697 18.4697C14.7626 18.1768 15.2374 18.1768 15.5303 18.4697L17 19.9393L20.4697 16.4697C20.7626 16.1768 21.2374 16.1768 21.5303 16.4697Z" fill="currentColor"/>
</svg>
