<svg width="24" height="24" viewBox="0 0 24 24" fill="none" xmlns="http://www.w3.org/2000/svg">
<path fill-rule="evenodd" clip-rule="evenodd" d="M12.9712 3.81511C11.3978 3.60208 9.79802 3.9112 8.41727 4.69505C8.05706 4.89955 7.59927 4.77331 7.39478 4.41309C7.19028 4.05288 7.31652 3.59509 7.67673 3.3906C9.34303 2.44464 11.2737 2.07158 13.1724 2.32867C15.0712 2.58576 16.8332 3.45879 18.1879 4.81379C19.5427 6.16878 20.4154 7.93089 20.6721 9.82969C20.9288 11.7285 20.5554 13.6591 19.6092 15.3252C19.4046 15.6854 18.9468 15.8115 18.5866 15.607C18.2264 15.4024 18.1003 14.9446 18.3048 14.5844C19.0889 13.2038 19.3984 11.6041 19.1856 10.0307C18.9729 8.45727 18.2497 6.99714 17.1271 5.87435C16.0046 4.75155 14.5446 4.02814 12.9712 3.81511ZM2.46967 2.46955C2.76256 2.17666 3.23744 2.17666 3.53033 2.46955L6.34896 5.28818C6.38347 5.31712 6.41472 5.34852 6.44267 5.38189L9.8941 8.83332C9.95097 8.87616 10.0002 8.9259 10.0414 8.98063L21.5303 20.4695C21.8232 20.7624 21.8232 21.2373 21.5303 21.5302C21.2374 21.8231 20.7626 21.8231 20.4697 21.5302L17.157 18.2175L13.9443 21.4302C13.4287 21.9453 12.7294 22.2349 12.0005 22.2349C11.2716 22.2349 10.5726 21.9455 10.0569 21.4304L5.81274 17.1872C4.26601 15.6405 3.35462 13.5706 3.25826 11.3854C3.1721 9.43161 3.74299 7.51235 4.86873 5.92926L2.46967 3.53021C2.17678 3.23732 2.17678 2.76244 2.46967 2.46955ZM5.94759 7.00813C5.1101 8.27787 4.68917 9.78575 4.7568 11.3193C4.83665 13.1299 5.59173 14.8449 6.87327 16.1264C6.87325 16.1264 6.87329 16.1265 6.87327 16.1264L11.1171 20.3692C11.3515 20.6034 11.6692 20.7349 12.0005 20.7349C12.3318 20.7349 12.6496 20.6034 12.8839 20.3692L16.0963 17.1569L13.4135 14.474C12.8251 14.7136 12.1823 14.8011 11.5452 14.7234C10.7103 14.6216 9.93386 14.2421 9.34063 13.6459C8.74741 13.0496 8.37186 12.2713 8.27432 11.4358C8.20065 10.8048 8.28884 10.1689 8.52601 9.58655L5.94759 7.00813ZM9.75655 10.8171C9.74447 10.9644 9.74687 11.1134 9.76421 11.2619C9.82273 11.7632 10.0481 12.2302 10.404 12.5879C10.7599 12.9457 11.2258 13.1734 11.7267 13.2345C11.879 13.253 12.0318 13.2559 12.1829 13.2435L9.75655 10.8171ZM11.2501 7.99988C11.2501 7.58567 11.5859 7.24988 12.0001 7.24988C12.9947 7.24988 13.9485 7.64497 14.6517 8.34823C15.355 9.05149 15.7501 10.0053 15.7501 10.9999C15.7501 11.4141 15.4143 11.7499 15.0001 11.7499C14.5859 11.7499 14.2501 11.4141 14.2501 10.9999C14.2501 10.4031 14.013 9.83084 13.5911 9.40889C13.1691 8.98693 12.5968 8.74988 12.0001 8.74988C11.5859 8.74988 11.2501 8.41409 11.2501 7.99988Z" fill="currentColor"/>
</svg>
