<svg width="24" height="24" viewBox="0 0 24 24" fill="none" xmlns="http://www.w3.org/2000/svg">
<path fill-rule="evenodd" clip-rule="evenodd" d="M12.7519 3.78956C11.5633 3.66567 10.3625 3.8375 9.2564 4.28977C8.15027 4.74203 7.17309 5.46071 6.4118 6.38186C5.65051 7.303 5.12872 8.39805 4.89286 9.56956C4.657 10.7411 4.71438 11.9527 5.0599 13.0967C5.4054 14.2406 6.0283 15.2814 6.87318 16.1265C6.87315 16.1264 6.87322 16.1265 6.87318 16.1265L11.117 20.3693C11.3514 20.6034 11.6691 20.7349 12.0004 20.7349C12.3317 20.7349 12.6495 20.6034 12.8839 20.3693L14.4666 18.7865C14.7595 18.4936 15.2344 18.4936 15.5272 18.7865C15.8201 19.0794 15.8201 19.5543 15.5272 19.8472L13.9442 21.4302C13.4286 21.9453 12.7293 22.2349 12.0004 22.2349C11.2716 22.2349 10.5725 21.9456 10.0569 21.4305L5.81265 17.1873C4.7929 16.1673 4.04097 14.9111 3.62396 13.5304C3.20696 12.1497 3.13771 10.6874 3.42236 9.2735C3.70702 7.85961 4.33677 6.53801 5.25557 5.42628C6.17437 4.31455 7.35372 3.44718 8.68871 2.90134C10.0237 2.3555 11.4729 2.14812 12.9074 2.29764C14.3419 2.44717 15.7172 2.94897 16.9109 3.75839C18.1046 4.56781 19.0797 5.65976 19.7495 6.93707C20.4193 8.21438 20.7629 9.63745 20.7499 11.0797C20.7461 11.4939 20.4073 11.8266 19.9931 11.8228C19.5789 11.8191 19.2462 11.4803 19.2499 11.0661C19.2608 9.87112 18.976 8.692 18.4211 7.63366C17.8661 6.57531 17.0581 5.67056 16.0691 4.99989C15.08 4.32923 13.9405 3.91345 12.7519 3.78956ZM9.34835 8.34823C10.0516 7.64497 11.0054 7.24988 12 7.24988C12.9946 7.24988 13.9484 7.64497 14.6517 8.34823C15.3549 9.05149 15.75 10.0053 15.75 10.9999C15.75 11.9944 15.3549 12.9483 14.6517 13.6515C13.9484 14.3548 12.9946 14.7499 12 14.7499C11.0054 14.7499 10.0516 14.3548 9.34835 13.6515C8.64509 12.9483 8.25 11.9944 8.25 10.9999C8.25 10.0053 8.64509 9.05149 9.34835 8.34823ZM12 8.74988C11.4033 8.74988 10.831 8.98693 10.409 9.40889C9.98705 9.83084 9.75 10.4031 9.75 10.9999C9.75 11.5966 9.98705 12.1689 10.409 12.5909C10.831 13.0128 11.4033 13.2499 12 13.2499C12.5967 13.2499 13.169 13.0128 13.591 12.5909C14.0129 12.1689 14.25 11.5966 14.25 10.9999C14.25 10.4031 14.0129 9.83084 13.591 9.40889C13.169 8.98693 12.5967 8.74988 12 8.74988ZM18.4757 14.3032C19.08 14.1823 19.7074 14.2694 20.2559 14.5504L20.2586 14.5518C20.8059 14.8349 21.2423 15.2934 21.4981 15.854C21.7539 16.4145 21.8143 17.0447 21.6696 17.6436C21.5248 18.2425 21.1834 18.7756 20.6998 19.1574C20.2162 19.5393 19.6185 19.7479 19.0024 19.7499C18.5882 19.7512 18.2513 19.4165 18.25 19.0023C18.2487 18.5881 18.5834 18.2512 18.9976 18.2499C19.278 18.249 19.5501 18.154 19.7702 17.9802C19.9902 17.8064 20.1457 17.5638 20.2115 17.2912C20.2774 17.0186 20.2499 16.7318 20.1335 16.4767C20.0173 16.222 19.8191 16.0136 19.5707 15.8847C19.3239 15.7587 19.0417 15.7197 18.77 15.774C18.4977 15.8285 18.2519 15.9735 18.0725 16.1854C17.8048 16.5016 17.3316 16.541 17.0154 16.2733C16.6993 16.0057 16.6599 15.5325 16.9275 15.2163C17.3257 14.7459 17.8713 14.4241 18.4757 14.3032ZM19 21.2499C19.4142 21.2499 19.75 21.5857 19.75 21.9999V22.0099C19.75 22.4241 19.4142 22.7599 19 22.7599C18.5858 22.7599 18.25 22.4241 18.25 22.0099V21.9999C18.25 21.5857 18.5858 21.2499 19 21.2499Z" fill="currentColor"/>
</svg>
