<svg width="24" height="24" viewBox="0 0 24 24" fill="none" xmlns="http://www.w3.org/2000/svg">
<path fill-rule="evenodd" clip-rule="evenodd" d="M13.2901 3.86576C12.0779 3.6465 10.8297 3.73975 9.66352 4.13673C8.4973 4.53371 7.45147 5.22131 6.62474 6.13464C5.79801 7.04797 5.21765 8.1569 4.93843 9.35677C4.65921 10.5566 4.69034 11.8079 5.02889 12.9924C5.36743 14.1768 6.00221 15.2555 6.87331 16.1266C6.87329 16.1266 6.87333 16.1266 6.87331 16.1266L11.1173 20.3696C11.294 20.5462 11.5195 20.6659 11.7648 20.7132C12.0101 20.7604 12.264 20.733 12.4936 20.6346C12.8743 20.4715 13.3152 20.6478 13.4784 21.0285C13.6416 21.4093 13.4652 21.8502 13.0845 22.0134C12.5793 22.2299 12.0209 22.29 11.4812 22.1861C10.9416 22.0822 10.4454 21.819 10.0568 21.4304C10.0568 21.4304 10.0568 21.4304 10.0568 21.4304L5.81278 17.1874C4.76141 16.1361 3.99523 14.8342 3.58664 13.4046C3.17805 11.975 3.14048 10.4649 3.47747 9.01679C3.81446 7.56867 4.5149 6.23031 5.51267 5.12801C6.51045 4.02572 7.77265 3.19585 9.18016 2.71674C10.5877 2.23763 12.094 2.12508 13.5571 2.38971C15.0202 2.65434 16.3917 3.28742 17.5422 4.2292C18.6927 5.17098 19.5843 6.39039 20.1327 7.77235C20.6811 9.15432 20.8684 10.6532 20.6768 12.1277C20.6234 12.5384 20.2471 12.8281 19.8364 12.7747C19.4256 12.7214 19.1359 12.3451 19.1893 11.9343C19.3481 10.7127 19.1929 9.47072 18.7385 8.32566C18.2841 7.18061 17.5453 6.17024 16.5921 5.3899C15.6388 4.60957 14.5024 4.08502 13.2901 3.86576ZM9.34835 8.34835C10.0516 7.64509 11.0054 7.25 12 7.25C12.9946 7.25 13.9484 7.64509 14.6517 8.34835C15.3549 9.05161 15.75 10.0054 15.75 11C15.75 11.9946 15.3549 12.9484 14.6517 13.6517C13.9484 14.3549 12.9946 14.75 12 14.75C11.0054 14.75 10.0516 14.3549 9.34835 13.6517C8.64509 12.9484 8.25 11.9946 8.25 11C8.25 10.0054 8.64509 9.05161 9.34835 8.34835ZM12 8.75C11.4033 8.75 10.831 8.98705 10.409 9.40901C9.98705 9.83097 9.75 10.4033 9.75 11C9.75 11.5967 9.98705 12.169 10.409 12.591C10.831 13.0129 11.4033 13.25 12 13.25C12.5967 13.25 13.169 13.0129 13.591 12.591C14.0129 12.169 14.25 11.5967 14.25 11C14.25 10.4033 14.0129 9.83097 13.591 9.40901C13.169 8.98705 12.5967 8.75 12 8.75ZM18.4697 15.4697C18.7626 15.1768 19.2374 15.1768 19.5303 15.4697L22.5303 18.4697C22.8232 18.7626 22.8232 19.2374 22.5303 19.5303C22.2374 19.8232 21.7626 19.8232 21.4697 19.5303L19.75 17.8107V22C19.75 22.4142 19.4142 22.75 19 22.75C18.5858 22.75 18.25 22.4142 18.25 22V17.8107L16.5303 19.5303C16.2374 19.8232 15.7626 19.8232 15.4697 19.5303C15.1768 19.2374 15.1768 18.7626 15.4697 18.4697L18.4697 15.4697Z" fill="currentColor"/>
</svg>
