<svg width="24" height="24" viewBox="0 0 24 24" fill="none" xmlns="http://www.w3.org/2000/svg">
<path opacity="0.2" d="M12.7829 21.3261C12.4161 21.482 12.0111 21.5247 11.6198 21.4488C11.2285 21.3729 10.8688 21.1819 10.5869 20.9001L6.34292 16.6571C5.41159 15.7257 4.72465 14.5788 4.34307 13.3181C3.96149 12.0575 3.89708 10.7221 4.15556 9.43055C4.41404 8.13902 4.98741 6.93129 5.82477 5.91458C6.66213 4.89787 7.73757 4.10364 8.95561 3.6024C10.1737 3.10117 11.4966 2.90843 12.807 3.0413C14.1175 3.17417 15.3748 3.62855 16.4674 4.36408C17.5601 5.09961 18.4542 6.09355 19.0704 7.25765C19.6867 8.42174 20.0059 9.71999 19.9999 11.0371M19 18.0001V18.0101M9 11.0001C9 11.7958 9.31607 12.5588 9.87868 13.1214C10.4413 13.6841 11.2044 14.0001 12 14.0001C12.7956 14.0001 13.5587 13.6841 14.1213 13.1214C14.6839 12.5588 15 11.7958 15 11.0001C15 10.2045 14.6839 9.44141 14.1213 8.8788C13.5587 8.31619 12.7956 8.00012 12 8.00012C11.2044 8.00012 10.4413 8.31619 9.87868 8.8788C9.31607 9.44141 9 10.2045 9 11.0001ZM21.121 20.1212C21.5407 19.7016 21.8265 19.1671 21.9423 18.5851C22.0581 18.0031 21.9988 17.3999 21.7717 16.8517C21.5447 16.3034 21.1602 15.8349 20.6668 15.5052C20.1734 15.1755 19.5934 14.9995 19 14.9995C18.4066 14.9995 17.8266 15.1755 17.3332 15.5052C16.8398 15.8349 16.4553 16.3034 16.2283 16.8517C16.0012 17.3999 15.9419 18.0031 16.0577 18.5851C16.1735 19.1671 16.4594 19.7016 16.879 20.1212C17.297 20.5402 18.004 21.1662 19 22.0002C20.051 21.1102 20.759 20.4842 21.121 20.1212Z" stroke="currentColor" stroke-width="1.5" stroke-linecap="round" stroke-linejoin="round"/>
</svg>
