<svg width="24" height="24" viewBox="0 0 24 24" fill="none" xmlns="http://www.w3.org/2000/svg">
<path fill-rule="evenodd" clip-rule="evenodd" d="M13.2915 3.8662C12.0792 3.64674 10.831 3.73983 9.66467 4.13667C8.49834 4.53351 7.45239 5.22102 6.62552 6.1343C5.79865 7.04758 5.21815 8.15651 4.93882 9.35641C4.65948 10.5563 4.69052 11.8076 5.02901 12.9922C5.36749 14.1767 6.00223 15.2555 6.87333 16.1266C6.87335 16.1266 6.87337 16.1267 6.8734 16.1267L11.1171 20.3694C11.2895 20.5417 11.5085 20.6598 11.7471 20.7092C11.9858 20.7586 12.2336 20.7372 12.4603 20.6476C12.8455 20.4952 13.2812 20.684 13.4335 21.0692C13.5858 21.4544 13.397 21.8901 13.0118 22.0425C12.5133 22.2396 11.968 22.2867 11.443 22.178C10.918 22.0693 10.4362 21.8095 10.057 21.4306L10.0568 21.4304L5.81279 17.1874L5.81272 17.1873C4.76135 16.1359 3.99525 14.834 3.58674 13.4043C3.17822 11.9746 3.14075 10.4645 3.47788 9.0163C3.81501 7.56815 4.51562 6.22979 5.51356 5.12755C6.5115 4.02531 7.77386 3.19556 9.18149 2.71662C10.5891 2.23767 12.0956 2.12533 13.5587 2.39019C15.0218 2.65506 16.3933 3.2884 17.5436 4.23042C18.694 5.17245 19.5854 6.39209 20.1336 7.77423C20.6818 9.15636 20.8687 10.6554 20.6768 12.1298C20.6233 12.5406 20.247 12.8302 19.8362 12.7767C19.4255 12.7233 19.1359 12.3469 19.1893 11.9362C19.3484 10.7145 19.1935 9.47246 18.7393 8.32726C18.285 7.18206 17.5465 6.1715 16.5933 5.39096C15.6401 4.61043 14.5038 4.08566 13.2915 3.8662ZM9.34835 8.34835C10.0516 7.64509 11.0054 7.25 12 7.25C12.9946 7.25 13.9484 7.64509 14.6517 8.34835C15.3549 9.05161 15.75 10.0054 15.75 11C15.75 11.9946 15.3549 12.9484 14.6517 13.6517C13.9484 14.3549 12.9946 14.75 12 14.75C11.0054 14.75 10.0516 14.3549 9.34835 13.6517C8.64509 12.9484 8.25 11.9946 8.25 11C8.25 10.0054 8.64509 9.05161 9.34835 8.34835ZM12 8.75C11.4033 8.75 10.831 8.98705 10.409 9.40901C9.98705 9.83097 9.75 10.4033 9.75 11C9.75 11.5967 9.98705 12.169 10.409 12.591C10.831 13.0129 11.4033 13.25 12 13.25C12.5967 13.25 13.169 13.0129 13.591 12.591C14.0129 12.169 14.25 11.5967 14.25 11C14.25 10.4033 14.0129 9.83097 13.591 9.40901C13.169 8.98705 12.5967 8.75 12 8.75ZM19 15.25C19.4142 15.25 19.75 15.5858 19.75 16V20.1893L21.4697 18.4697C21.7626 18.1768 22.2374 18.1768 22.5303 18.4697C22.8232 18.7626 22.8232 19.2374 22.5303 19.5303L19.5303 22.5303C19.2374 22.8232 18.7626 22.8232 18.4697 22.5303L15.4697 19.5303C15.1768 19.2374 15.1768 18.7626 15.4697 18.4697C15.7626 18.1768 16.2374 18.1768 16.5303 18.4697L18.25 20.1893V16C18.25 15.5858 18.5858 15.25 19 15.25Z" fill="currentColor"/>
</svg>
