<svg width="24" height="24" viewBox="0 0 24 24" fill="none" xmlns="http://www.w3.org/2000/svg">
<path fill-rule="evenodd" clip-rule="evenodd" d="M5.36089 3.04964C6.14206 2.52764 7.06048 2.24902 8 2.24902C8.93952 2.24902 9.85795 2.52764 10.6391 3.04964C11.4203 3.57164 12.0291 4.31358 12.3886 5.18161C12.748 6.04964 12.842 7.00478 12.6586 7.92623C12.4752 8.84768 12.0227 9.69405 11.3583 10.3583L8.53043 13.1871C8.38977 13.3278 8.19896 13.4069 8 13.4069C7.80104 13.4069 7.61024 13.3278 7.46958 13.1871L4.64175 10.3583C3.97731 9.69405 3.52477 8.84768 3.34138 7.92623C3.15798 7.00478 3.25196 6.04964 3.61144 5.18161C3.97091 4.31358 4.57973 3.57164 5.36089 3.04964ZM8 3.74902C7.35717 3.74902 6.72878 3.93966 6.1943 4.29682C5.65982 4.65397 5.24326 5.16161 4.9973 5.75553C4.75134 6.34945 4.68704 7.00296 4.81252 7.63343C4.938 8.26389 5.24763 8.84299 5.70225 9.29747L8 11.596L10.2976 9.29764C10.7522 8.84316 11.062 8.26389 11.1875 7.63343C11.313 7.00296 11.2487 6.34945 11.0027 5.75553C10.7567 5.16161 10.3402 4.65397 9.80571 4.29682C9.27123 3.93966 8.64283 3.74902 8 3.74902ZM8 6.24988C8.41421 6.24988 8.75 6.58566 8.75 6.99988V7.00988C8.75 7.42409 8.41421 7.75988 8 7.75988C7.58579 7.75988 7.25 7.42409 7.25 7.00988V6.99988C7.25 6.58566 7.58579 6.24988 8 6.24988ZM13.3609 11.0496C14.1421 10.5276 15.0605 10.249 16 10.249C16.9395 10.249 17.8579 10.5276 18.6391 11.0496C19.4203 11.5716 20.0291 12.3136 20.3886 13.1816C20.748 14.0496 20.842 15.0048 20.6586 15.9262C20.4752 16.8476 20.0228 17.6939 19.3584 18.3581C19.3584 18.3582 19.3585 18.3581 19.3584 18.3581L16.5304 21.1871C16.3898 21.3278 16.199 21.4069 16 21.4069C15.801 21.4069 15.6102 21.3278 15.4696 21.1871L12.6418 18.3583C12.6417 18.3582 12.6418 18.3583 12.6418 18.3583C11.9774 17.6941 11.5248 16.8476 11.3414 15.9262C11.158 15.0048 11.252 14.0496 11.6114 13.1816C11.9709 12.3136 12.5797 11.5716 13.3609 11.0496ZM16 11.749C15.3572 11.749 14.7288 11.9397 14.1943 12.2968C13.6598 12.654 13.2433 13.1616 12.9973 13.7555C12.7513 14.3494 12.687 15.003 12.8125 15.6334C12.938 16.2639 13.2476 16.843 13.7023 17.2975L16 19.596L18.2976 17.2976C18.7522 16.8432 19.062 16.2639 19.1875 15.6334C19.313 15.003 19.2487 14.3494 19.0027 13.7555C18.7567 13.1616 18.3402 12.654 17.8057 12.2968C17.2712 11.9397 16.6428 11.749 16 11.749ZM16 14.2499C16.4142 14.2499 16.75 14.5857 16.75 14.9999V15.0099C16.75 15.4241 16.4142 15.7599 16 15.7599C15.5858 15.7599 15.25 15.4241 15.25 15.0099V14.9999C15.25 14.5857 15.5858 14.2499 16 14.2499Z" fill="currentColor"/>
</svg>
