<svg width="24" height="24" viewBox="0 0 24 24" fill="none" xmlns="http://www.w3.org/2000/svg">
<path fill-rule="evenodd" clip-rule="evenodd" d="M14.9965 4.39914C13.7641 3.84016 12.3998 3.63726 11.0581 3.81338C9.7164 3.9895 8.45075 4.53763 7.40438 5.39573C6.35801 6.25383 5.57269 7.38766 5.13727 8.66892C4.70185 9.95019 4.63371 11.3277 4.94057 12.6457C5.2474 13.9636 5.91692 15.1693 6.87338 16.1264C6.87331 16.1264 6.87346 16.1265 6.87338 16.1264L11.1174 20.3694C11.2915 20.5435 11.5132 20.6624 11.7546 20.711C11.996 20.7596 12.2464 20.7358 12.4743 20.6426C12.8577 20.4859 13.2956 20.6696 13.4523 21.053C13.6091 21.4364 13.4253 21.8743 13.0419 22.0311C12.5405 22.236 11.9897 22.2884 11.4586 22.1815C10.9276 22.0746 10.4399 21.8132 10.0568 21.4302C10.0568 21.4302 10.0569 21.4302 10.0568 21.4302L5.81285 17.1872C4.65835 16.032 3.84999 14.5765 3.47964 12.9859C3.1093 11.3952 3.19153 9.73263 3.71704 8.18627C4.24255 6.63992 5.19035 5.27151 6.45321 4.23587C7.71607 3.20023 9.24357 2.5387 10.8629 2.32614C12.4822 2.11358 14.1287 2.35846 15.6161 3.03309C17.1034 3.70771 18.3723 4.78515 19.2791 6.14349C20.1859 7.50182 20.6944 9.08684 20.7471 10.7192C20.7999 12.3516 20.3947 13.9661 19.5775 15.3801C19.3702 15.7387 18.9114 15.8614 18.5528 15.6542C18.1942 15.4469 18.0715 14.9882 18.2788 14.6295C18.9559 13.4579 19.2916 12.1202 19.2479 10.7676C19.2042 9.4151 18.7829 8.1018 18.0315 6.97633C17.2802 5.85085 16.2288 4.95811 14.9965 4.39914ZM9.34835 8.34823C10.0516 7.64497 11.0054 7.24988 12 7.24988C12.9946 7.24988 13.9484 7.64497 14.6517 8.34823C15.3549 9.05149 15.75 10.0053 15.75 10.9999C15.75 11.9944 15.3549 12.9483 14.6517 13.6515C13.9484 14.3548 12.9946 14.7499 12 14.7499C11.0054 14.7499 10.0516 14.3548 9.34835 13.6515C8.64509 12.9483 8.25 11.9944 8.25 10.9999C8.25 10.0053 8.64509 9.05149 9.34835 8.34823ZM12 8.74988C11.4033 8.74988 10.831 8.98693 10.409 9.40889C9.98705 9.83084 9.75 10.4031 9.75 10.9999C9.75 11.5966 9.98705 12.1689 10.409 12.5909C10.831 13.0128 11.4033 13.2499 12 13.2499C12.5967 13.2499 13.169 13.0128 13.591 12.5909C14.0129 12.1689 14.25 11.5966 14.25 10.9999C14.25 10.4031 14.0129 9.83084 13.591 9.40889C13.169 8.98693 12.5967 8.74988 12 8.74988ZM15.25 18.9999C15.25 18.5857 15.5858 18.2499 16 18.2499H22C22.4142 18.2499 22.75 18.5857 22.75 18.9999C22.75 19.4141 22.4142 19.7499 22 19.7499H16C15.5858 19.7499 15.25 19.4141 15.25 18.9999Z" fill="currentColor"/>
</svg>
