<svg width="24" height="24" viewBox="0 0 24 24" fill="none" xmlns="http://www.w3.org/2000/svg">
<path fill-rule="evenodd" clip-rule="evenodd" d="M13.8778 3.99819C12.6486 3.6687 11.3543 3.66857 10.125 3.99782C8.89574 4.32707 7.77478 4.97409 6.8748 5.87386C5.97483 6.77362 5.32754 7.89443 4.99801 9.12364C4.66848 10.3528 4.6683 11.6471 4.99751 12.8764C5.32669 14.1057 5.97363 15.2266 6.87329 16.1266C6.87324 16.1265 6.87334 16.1266 6.87329 16.1266L11.1181 20.3704C11.3287 20.5816 11.6082 20.7099 11.9056 20.732C12.3187 20.7627 12.6286 21.1225 12.598 21.5355C12.5673 21.9486 12.2075 22.2586 11.7945 22.2279C11.1379 22.1791 10.5208 21.8957 10.0559 21.4295L5.81275 17.1874C4.72686 16.1011 3.94588 14.7481 3.54856 13.2645C3.15125 11.7808 3.15146 10.2188 3.54917 8.73523C3.94688 7.2517 4.72809 5.899 5.81427 4.81307C6.90045 3.72715 8.25333 2.94626 9.73695 2.54889C11.2206 2.15152 12.7826 2.15168 14.2662 2.54934C15.7497 2.947 17.1025 3.72815 18.1884 4.81429C19.2744 5.90043 20.0553 7.25329 20.4527 8.7369C20.8502 10.2205 20.8501 11.7826 20.4525 13.2661C20.3452 13.6662 19.934 13.9036 19.5339 13.7964C19.1338 13.6892 18.8964 13.2779 19.0036 12.8778C19.333 11.6486 19.3331 10.3543 19.0038 9.12502C18.6745 7.89575 18.0275 6.77481 17.1277 5.87487C16.2279 4.97492 15.107 4.32768 13.8778 3.99819ZM9.34835 8.34835C10.0516 7.64509 11.0054 7.25 12 7.25C12.9946 7.25 13.9484 7.64509 14.6517 8.34835C15.3549 9.05161 15.75 10.0054 15.75 11C15.75 11.9946 15.3549 12.9484 14.6517 13.6517C13.9484 14.3549 12.9946 14.75 12 14.75C11.0054 14.75 10.0516 14.3549 9.34835 13.6517C8.64509 12.9484 8.25 11.9946 8.25 11C8.25 10.0054 8.64509 9.05161 9.34835 8.34835ZM12 8.75C11.4033 8.75 10.831 8.98705 10.409 9.40901C9.98705 9.83097 9.75 10.4033 9.75 11C9.75 11.5967 9.98705 12.169 10.409 12.591C10.831 13.0129 11.4033 13.25 12 13.25C12.5967 13.25 13.169 13.0129 13.591 12.591C14.0129 12.169 14.25 11.5967 14.25 11C14.25 10.4033 14.0129 9.83097 13.591 9.40901C13.169 8.98705 12.5967 8.75 12 8.75ZM17.5303 16.4697C17.8232 16.7626 17.8232 17.2374 17.5303 17.5303L16.0607 19L17.5303 20.4697C17.8232 20.7626 17.8232 21.2374 17.5303 21.5303C17.2374 21.8232 16.7626 21.8232 16.4697 21.5303L14.4697 19.5303C14.1768 19.2374 14.1768 18.7626 14.4697 18.4697L16.4697 16.4697C16.7626 16.1768 17.2374 16.1768 17.5303 16.4697ZM19.4697 16.4697C19.7626 16.1768 20.2374 16.1768 20.5303 16.4697L22.5303 18.4697C22.8232 18.7626 22.8232 19.2374 22.5303 19.5303L20.5303 21.5303C20.2374 21.8232 19.7626 21.8232 19.4697 21.5303C19.1768 21.2374 19.1768 20.7626 19.4697 20.4697L20.9393 19L19.4697 17.5303C19.1768 17.2374 19.1768 16.7626 19.4697 16.4697Z" fill="currentColor"/>
</svg>
