<svg width="24" height="24" viewBox="0 0 24 24" fill="none" xmlns="http://www.w3.org/2000/svg">
<path fill-rule="evenodd" clip-rule="evenodd" d="M13.2969 3.86774C12.0845 3.64748 10.836 3.73987 9.66927 4.13617C8.50252 4.53247 7.45604 5.2196 6.62862 6.13268C5.80121 7.04577 5.22016 8.15468 4.94036 9.3547C4.66056 10.5547 4.69123 11.8063 5.02948 12.9911C5.36771 14.1759 6.00231 15.255 6.87338 16.1264C6.87332 16.1264 6.87343 16.1265 6.87338 16.1264L11.1174 20.3694C11.2944 20.5465 11.5207 20.6664 11.7666 20.7134C12.0125 20.7604 12.2669 20.7325 12.4968 20.6333C12.8771 20.4691 13.3185 20.6443 13.4827 21.0245C13.6469 21.4048 13.4717 21.8462 13.0914 22.0104C12.5856 22.2287 12.026 22.2902 11.4849 22.1867C10.9438 22.0833 10.4463 21.8197 10.0568 21.4301L5.81284 17.1872C4.76146 16.1354 3.99533 14.8329 3.5871 13.4029C3.17887 11.9729 3.14185 10.4624 3.47955 9.01409C3.81724 7.56579 4.51849 6.22745 5.5171 5.12545C6.5157 4.02345 7.7787 3.19415 9.18684 2.71586C10.595 2.23757 12.1018 2.12607 13.565 2.39189C15.0282 2.65771 16.3995 3.29208 17.5494 4.23509C18.6994 5.17811 19.59 6.39865 20.1371 7.78147C20.6843 9.1643 20.87 10.6638 20.6767 12.1383C20.6229 12.549 20.2463 12.8383 19.8356 12.7845C19.4249 12.7306 19.1356 12.354 19.1895 11.9433C19.3496 10.7216 19.1958 9.47916 18.7424 8.33339C18.289 7.18762 17.5511 6.17631 16.5983 5.39496C15.6455 4.6136 14.5092 4.08799 13.2969 3.86774ZM9.34835 8.34823C10.0516 7.64497 11.0054 7.24988 12 7.24988C12.9946 7.24988 13.9484 7.64497 14.6517 8.34823C15.3549 9.05149 15.75 10.0053 15.75 10.9999C15.75 11.9944 15.3549 12.9483 14.6517 13.6515C13.9484 14.3548 12.9946 14.7499 12 14.7499C11.0054 14.7499 10.0516 14.3548 9.34835 13.6515C8.64509 12.9483 8.25 11.9944 8.25 10.9999C8.25 10.0053 8.64509 9.05149 9.34835 8.34823ZM12 8.74988C11.4033 8.74988 10.831 8.98693 10.409 9.40889C9.98705 9.83084 9.75 10.4031 9.75 10.9999C9.75 11.5966 9.98705 12.1689 10.409 12.5909C10.831 13.0128 11.4033 13.2499 12 13.2499C12.5967 13.2499 13.169 13.0128 13.591 12.5909C14.0129 12.1689 14.25 11.5966 14.25 10.9999C14.25 10.4031 14.0129 9.83084 13.591 9.40889C13.169 8.98693 12.5967 8.74988 12 8.74988ZM19 15.2499C19.4142 15.2499 19.75 15.5857 19.75 15.9999V18.2499H22C22.4142 18.2499 22.75 18.5857 22.75 18.9999C22.75 19.4141 22.4142 19.7499 22 19.7499H19.75V21.9999C19.75 22.4141 19.4142 22.7499 19 22.7499C18.5858 22.7499 18.25 22.4141 18.25 21.9999V19.7499H16C15.5858 19.7499 15.25 19.4141 15.25 18.9999C15.25 18.5857 15.5858 18.2499 16 18.2499H18.25V15.9999C18.25 15.5857 18.5858 15.2499 19 15.2499Z" fill="currentColor"/>
</svg>
