<svg width="24" height="24" viewBox="0 0 24 24" fill="none" xmlns="http://www.w3.org/2000/svg">
<path fill-rule="evenodd" clip-rule="evenodd" d="M13.9753 4.02506C12.7443 3.67659 11.4429 3.66011 10.2033 3.97731C8.96382 4.29451 7.83032 4.93408 6.91795 5.83108C6.00558 6.72808 5.34684 7.85054 5.00862 9.08449C4.67041 10.3184 4.66476 11.6199 4.99227 12.8568C5.31975 14.0935 5.96868 15.2216 6.87316 16.1265C6.87311 16.1264 6.87321 16.1265 6.87316 16.1265L11.117 20.3692C11.3513 20.6034 11.6691 20.7349 12.0004 20.7349C12.3317 20.7349 12.6494 20.6034 12.8838 20.3692C13.1769 20.0765 13.6517 20.0767 13.9445 20.3698C14.2372 20.6628 14.237 21.1377 13.944 21.4304C13.4283 21.9456 12.7293 22.2349 12.0004 22.2349C11.2715 22.2349 10.5725 21.9456 10.0568 21.4304L5.81263 17.1872C4.72092 16.0951 3.93751 14.7334 3.54224 13.2407C3.14698 11.748 3.15379 10.1772 3.56198 8.68798C3.97017 7.19873 4.76521 5.84403 5.86634 4.76144C6.96748 3.67886 8.3355 2.90696 9.83147 2.52414C11.3274 2.14131 12.8981 2.16119 14.3839 2.58177C15.8697 3.00234 17.2177 3.80862 18.2911 4.91873C19.3645 6.02884 20.125 7.40323 20.4953 8.90234C20.8657 10.4014 20.8327 11.9719 20.3998 13.4541C20.2837 13.8517 19.8672 14.0799 19.4696 13.9638C19.072 13.8476 18.8438 13.4312 18.96 13.0336C19.3187 11.8054 19.346 10.5042 19.0391 9.26211C18.7322 8.01999 18.1021 6.88121 17.2128 5.9614C16.3234 5.0416 15.2064 4.37353 13.9753 4.02506ZM9.34835 8.34823C10.0516 7.64497 11.0054 7.24988 12 7.24988C12.9946 7.24988 13.9484 7.64497 14.6517 8.34823C15.3549 9.05149 15.75 10.0053 15.75 10.9999C15.75 11.9944 15.3549 12.9483 14.6517 13.6515C13.9484 14.3548 12.9946 14.7499 12 14.7499C11.0054 14.7499 10.0516 14.3548 9.34835 13.6515C8.64509 12.9483 8.25 11.9944 8.25 10.9999C8.25 10.0053 8.64509 9.05149 9.34835 8.34823ZM12 8.74988C11.4033 8.74988 10.831 8.98693 10.409 9.40889C9.98705 9.83084 9.75 10.4031 9.75 10.9999C9.75 11.5966 9.98705 12.1689 10.409 12.5909C10.831 13.0128 11.4033 13.2499 12 13.2499C12.5967 13.2499 13.169 13.0128 13.591 12.5909C14.0129 12.1689 14.25 11.5966 14.25 10.9999C14.25 10.4031 14.0129 9.83084 13.591 9.40889C13.169 8.98693 12.5967 8.74988 12 8.74988ZM17 16.2499C17.4142 16.2499 17.75 16.5857 17.75 16.9999V21.9999C17.75 22.4141 17.4142 22.7499 17 22.7499C16.5858 22.7499 16.25 22.4141 16.25 21.9999V16.9999C16.25 16.5857 16.5858 16.2499 17 16.2499ZM21 16.2499C21.4142 16.2499 21.75 16.5857 21.75 16.9999V21.9999C21.75 22.4141 21.4142 22.7499 21 22.7499C20.5858 22.7499 20.25 22.4141 20.25 21.9999V16.9999C20.25 16.5857 20.5858 16.2499 21 16.2499Z" fill="currentColor"/>
</svg>
