<svg width="24" height="24" viewBox="0 0 24 24" fill="none" xmlns="http://www.w3.org/2000/svg">
<path fill-rule="evenodd" clip-rule="evenodd" d="M21.3943 3.36201C21.6154 3.49867 21.75 3.74007 21.75 4V11.5C21.75 11.9142 21.4142 12.25 21 12.25C20.5858 12.25 20.25 11.9142 20.25 11.5V5.21353L15.75 7.46353V12.5C15.75 12.9142 15.4142 13.25 15 13.25C14.5858 13.25 14.25 12.9142 14.25 12.5V7.46353L9.75 5.21353V16.5365L12.3354 17.8292C12.7059 18.0144 12.8561 18.4649 12.6708 18.8354C12.4856 19.2059 12.0351 19.3561 11.6646 19.1708L9 17.8385L3.33541 20.6708C3.10292 20.7871 2.82681 20.7746 2.6057 20.638C2.38459 20.5013 2.25 20.2599 2.25 20V7C2.25 6.71592 2.4105 6.45622 2.66459 6.32918L8.66459 3.32918C8.87574 3.22361 9.12426 3.22361 9.33541 3.32918L15 6.16148L20.6646 3.32918C20.8971 3.21293 21.1732 3.22536 21.3943 3.36201ZM8.25 16.5365V5.21353L3.75 7.46353V18.7865L8.25 16.5365Z" fill="currentColor"/>
<path fill-rule="evenodd" clip-rule="evenodd" d="M16.9165 14.8816C17.5332 14.4695 18.2583 14.2495 19 14.2495C19.7417 14.2495 20.4668 14.4695 21.0835 14.8816C21.7002 15.2937 22.1809 15.8794 22.4647 16.5647C22.7485 17.25 22.8227 18.0041 22.6779 18.7315C22.5331 19.4588 22.176 20.1268 21.6517 20.6512C21.2639 21.0399 20.5325 21.6852 19.4847 22.5725C19.2062 22.8084 18.7983 22.8095 18.5185 22.5752C17.5208 21.7398 16.7916 21.0954 16.348 20.6509C15.8239 20.1266 15.4669 19.4586 15.3221 18.7315C15.1774 18.0041 15.2515 17.25 15.5353 16.5647C15.8191 15.8794 16.2998 15.2937 16.9165 14.8816ZM19 15.7495C18.555 15.7495 18.1199 15.8815 17.7499 16.1288C17.3799 16.376 17.0915 16.7275 16.9212 17.1386C16.7509 17.5498 16.7064 18.0022 16.7933 18.4387C16.8802 18.8752 17.0945 19.2761 17.4093 19.5907L17.41 19.5915C17.7352 19.9175 18.2612 20.3907 18.9978 21.0171C19.7815 20.3462 20.308 19.8743 20.5899 19.5916L20.5908 19.5907C20.9055 19.2761 21.1198 18.8752 21.2067 18.4387C21.2936 18.0022 21.2491 17.5498 21.0788 17.1386C20.9085 16.7275 20.6201 16.376 20.2501 16.1288C19.8801 15.8815 19.445 15.7495 19 15.7495ZM19 17.2501C19.4142 17.2501 19.75 17.5859 19.75 18.0001V18.0101C19.75 18.4243 19.4142 18.7601 19 18.7601C18.5858 18.7601 18.25 18.4243 18.25 18.0101V18.0001C18.25 17.5859 18.5858 17.2501 19 17.2501Z" fill="currentColor"/>
</svg>
