<svg width="24" height="24" viewBox="0 0 24 24" fill="none" xmlns="http://www.w3.org/2000/svg">
<path fill-rule="evenodd" clip-rule="evenodd" d="M21.3943 3.36201C21.6154 3.49867 21.75 3.74007 21.75 4V11.5C21.75 11.9142 21.4142 12.25 21 12.25C20.5858 12.25 20.25 11.9142 20.25 11.5V5.21353L15.75 7.46353V12C15.75 12.4142 15.4142 12.75 15 12.75C14.5858 12.75 14.25 12.4142 14.25 12V7.46353L9.75 5.21353V16.5365L11.3354 17.3292C11.7059 17.5144 11.8561 17.9649 11.6708 18.3354C11.4856 18.7059 11.0351 18.8561 10.6646 18.6708L9 17.8385L3.33541 20.6708C3.10292 20.7871 2.82681 20.7746 2.6057 20.638C2.38459 20.5013 2.25 20.2599 2.25 20V7C2.25 6.71592 2.4105 6.45622 2.66459 6.32918L8.66459 3.32918C8.87574 3.22361 9.12426 3.22361 9.33541 3.32918L15 6.16148L20.6646 3.32918C20.8971 3.21293 21.1732 3.22536 21.3943 3.36201ZM8.25 16.5365V5.21353L3.75 7.46353V18.7865L8.25 16.5365ZM15.3483 15.3484C16.0516 14.6451 17.0054 14.25 18 14.25C18.9946 14.25 19.9484 14.6451 20.6517 15.3484C21.3549 16.0516 21.75 17.0054 21.75 18C21.75 18.7407 21.5308 19.4589 21.1284 20.0678L22.5303 21.4697C22.8232 21.7626 22.8232 22.2374 22.5303 22.5303C22.2374 22.8232 21.7626 22.8232 21.4697 22.5303L20.0678 21.1284C19.4589 21.5308 18.7407 21.75 18 21.75C17.0054 21.75 16.0516 21.3549 15.3483 20.6517C14.6451 19.9484 14.25 18.9946 14.25 18C14.25 17.0054 14.6451 16.0516 15.3483 15.3484ZM18 15.75C17.4033 15.75 16.831 15.9871 16.409 16.409C15.9871 16.831 15.75 17.4033 15.75 18C15.75 18.5967 15.9871 19.169 16.409 19.591C16.831 20.0129 17.4033 20.25 18 20.25C18.5967 20.25 19.169 20.0129 19.591 19.591C20.0129 19.169 20.25 18.5967 20.25 18C20.25 17.4033 20.0129 16.831 19.591 16.409C19.169 15.9871 18.5967 15.75 18 15.75Z" fill="currentColor"/>
</svg>
