<svg width="24" height="24" viewBox="0 0 24 24" fill="none" xmlns="http://www.w3.org/2000/svg">
<path fill-rule="evenodd" clip-rule="evenodd" d="M13.8409 3.98875C12.6125 3.66651 11.321 3.67258 10.0957 4.00635C8.87044 4.34012 7.75431 4.98989 6.85907 5.89061C5.96383 6.79134 5.32089 7.91141 4.9946 9.13873C4.66832 10.366 4.67013 11.6575 4.99987 12.8839C5.32959 14.1102 5.97561 15.2284 6.87329 16.1266C6.87323 16.1265 6.87335 16.1266 6.87329 16.1266L11.1173 20.3696C11.2346 20.4869 11.3744 20.58 11.528 20.6427C11.6816 20.7054 11.8462 20.7368 12.0121 20.735C12.4263 20.7306 12.7656 21.0628 12.77 21.477C12.7744 21.8912 12.4421 22.2305 12.028 22.2349C11.6623 22.2388 11.2996 22.1696 10.961 22.0314C10.6225 21.8932 10.315 21.6888 10.0565 21.4301L5.81275 17.1874C4.72924 16.1033 3.94928 14.7535 3.55132 13.2734C3.15336 11.7933 3.15116 10.2346 3.54496 8.75333C3.93875 7.27209 4.71471 5.92028 5.79518 4.8332C6.87564 3.74612 8.22269 2.96191 9.7015 2.55908C11.1803 2.15625 12.739 2.14893 14.2215 2.53785C15.704 2.92677 17.0584 3.69828 18.149 4.77516C19.2397 5.85204 20.0283 7.19651 20.436 8.67398C20.8437 10.1515 20.8561 11.7101 20.4721 13.1939C20.3683 13.5949 19.9591 13.8358 19.5581 13.732C19.1571 13.6283 18.9162 13.2191 19.0199 12.8181C19.3382 11.5886 19.3278 10.2972 18.99 9.07298C18.6522 7.84878 17.9988 6.7348 17.0951 5.84253C16.1915 4.95025 15.0693 4.311 13.8409 3.98875ZM9.34835 8.34835C10.0516 7.64509 11.0054 7.25 12 7.25C12.9946 7.25 13.9484 7.64509 14.6517 8.34835C15.3549 9.05161 15.75 10.0054 15.75 11C15.75 11.9946 15.3549 12.9484 14.6517 13.6517C13.9484 14.3549 12.9946 14.75 12 14.75C11.0054 14.75 10.0516 14.3549 9.34835 13.6517C8.64509 12.9484 8.25 11.9946 8.25 11C8.25 10.0054 8.64509 9.05161 9.34835 8.34835ZM12 8.75C11.4033 8.75 10.831 8.98705 10.409 9.40901C9.98705 9.83097 9.75 10.4033 9.75 11C9.75 11.5967 9.98705 12.169 10.409 12.591C10.831 13.0129 11.4033 13.25 12 13.25C12.5967 13.25 13.169 13.0129 13.591 12.591C14.0129 12.169 14.25 11.5967 14.25 11C14.25 10.4033 14.0129 9.83097 13.591 9.40901C13.169 8.98705 12.5967 8.75 12 8.75ZM15.75 17C15.75 16.5858 16.0858 16.25 16.5 16.25H21C21.4142 16.25 21.75 16.5858 21.75 17V21.5C21.75 21.9142 21.4142 22.25 21 22.25C20.5858 22.25 20.25 21.9142 20.25 21.5V18.8107L16.5303 22.5303C16.2374 22.8232 15.7626 22.8232 15.4697 22.5303C15.1768 22.2374 15.1768 21.7626 15.4697 21.4697L19.1893 17.75H16.5C16.0858 17.75 15.75 17.4142 15.75 17Z" fill="currentColor"/>
</svg>
