<svg width="24" height="24" viewBox="0 0 24 24" fill="none" xmlns="http://www.w3.org/2000/svg">
<path fill-rule="evenodd" clip-rule="evenodd" d="M13.2836 3.86502C12.0716 3.647 10.8241 3.74128 9.65864 4.13896C8.49319 4.53665 7.44825 5.22464 6.62235 6.13804C5.79645 7.05145 5.21682 8.16017 4.93812 9.35965C4.65942 10.5591 4.69083 11.8098 5.0294 12.9938C5.36796 14.1777 6.00249 15.2559 6.87316 16.1267C6.87319 16.1267 6.87321 16.1268 6.87324 16.1268L11.117 20.3695C11.3513 20.6036 11.6691 20.7352 12.0004 20.7352C12.3317 20.7352 12.6494 20.6036 12.8838 20.3695L14.4747 18.7796C14.7677 18.4868 15.2426 18.4869 15.5354 18.7799C15.8282 19.0729 15.828 19.5478 15.5351 19.8406L13.9441 21.4306L13.944 21.4307C13.4283 21.9458 12.7293 22.2352 12.0004 22.2352C11.2715 22.2352 10.5725 21.9458 10.0568 21.4307L10.0566 21.4305L5.81262 17.1875L5.81253 17.1874C4.76168 16.1364 3.99582 14.8351 3.58721 13.4062C3.17859 11.9773 3.14068 10.4678 3.47704 9.02016C3.81341 7.57252 4.51296 6.2344 5.50974 5.13202C6.50651 4.02963 7.76765 3.1993 9.17422 2.71934C10.5808 2.23937 12.0864 2.12559 13.5492 2.38872C15.0119 2.65185 16.3835 3.28322 17.5346 4.22329C18.6857 5.16336 19.5785 6.38114 20.1286 7.7618C20.6787 9.14245 20.868 10.6405 20.6788 12.1146C20.626 12.5254 20.2502 12.8157 19.8394 12.763C19.4286 12.7102 19.1383 12.3344 19.191 11.9236C19.3478 10.7022 19.1909 9.46097 18.7351 8.317C18.2793 7.17303 17.5396 6.16401 16.5858 5.3851C15.632 4.60618 14.4956 4.08305 13.2836 3.86502ZM9.34835 8.34847C10.0516 7.64521 11.0054 7.25012 12 7.25012C12.9946 7.25012 13.9484 7.64521 14.6517 8.34847C15.3549 9.05173 15.75 10.0056 15.75 11.0001C15.75 11.9947 15.3549 12.9485 14.6517 13.6518C13.9484 14.355 12.9946 14.7501 12 14.7501C11.0054 14.7501 10.0516 14.355 9.34835 13.6518C8.64509 12.9485 8.25 11.9947 8.25 11.0001C8.25 10.0056 8.64509 9.05173 9.34835 8.34847ZM12 8.75012C11.4033 8.75012 10.831 8.98717 10.409 9.40913C9.98705 9.83109 9.75 10.4034 9.75 11.0001C9.75 11.5969 9.98705 12.1692 10.409 12.5911C10.831 13.0131 11.4033 13.2501 12 13.2501C12.5967 13.2501 13.169 13.0131 13.591 12.5911C14.0129 12.1692 14.25 11.5969 14.25 11.0001C14.25 10.4034 14.0129 9.83109 13.591 9.40913C13.169 8.98717 12.5967 8.75012 12 8.75012ZM19 15.2501C19.4142 15.2501 19.75 15.5859 19.75 16.0001V19.0001C19.75 19.4143 19.4142 19.7501 19 19.7501C18.5858 19.7501 18.25 19.4143 18.25 19.0001V16.0001C18.25 15.5859 18.5858 15.2501 19 15.2501ZM19 21.2501C19.4142 21.2501 19.75 21.5859 19.75 22.0001V22.0101C19.75 22.4243 19.4142 22.7601 19 22.7601C18.5858 22.7601 18.25 22.4243 18.25 22.0101V22.0001C18.25 21.5859 18.5858 21.2501 19 21.2501Z" fill="currentColor"/>
</svg>
