<svg width="24" height="24" viewBox="0 0 24 24" fill="none" xmlns="http://www.w3.org/2000/svg">
<path fill-rule="evenodd" clip-rule="evenodd" d="M12.2026 3.75379C11.0454 3.72155 9.8972 3.96692 8.85421 4.46937C7.81122 4.97182 6.90372 5.71673 6.20763 6.64179C5.51154 7.56686 5.04711 8.64517 4.85318 9.78651C4.65925 10.9279 4.74146 12.0991 5.09295 13.2021C5.44441 14.3051 6.0549 15.3079 6.87333 16.1266C6.87329 16.1266 6.87338 16.1267 6.87333 16.1266L11.1172 20.3695C11.3135 20.5656 11.5694 20.6909 11.8448 20.7255C12.1201 20.7601 12.3991 20.7022 12.6378 20.5607C12.9942 20.3496 13.4542 20.4674 13.6653 20.8238C13.8765 21.1801 13.7587 21.6402 13.4023 21.8513C12.8771 22.1624 12.2633 22.29 11.6576 22.2138C11.0519 22.1376 10.4888 21.862 10.0569 21.4305L5.8128 17.1874C4.82495 16.1993 4.08796 14.9888 3.66375 13.6575C3.23954 12.3262 3.14032 10.9127 3.37437 9.53525C3.60842 8.15776 4.16895 6.85635 5.00906 5.73989C5.84917 4.62344 6.94443 3.7244 8.20321 3.118C9.46199 2.5116 10.8477 2.21546 12.2444 2.25437C13.6411 2.29328 15.0081 2.66609 16.2312 3.34163C17.4543 4.01717 18.4978 4.97578 19.2744 6.13727C20.0511 7.29876 20.5383 8.62936 20.6953 10.0177C20.7419 10.4293 20.4459 10.8007 20.0343 10.8473C19.6228 10.8938 19.2514 10.5979 19.2048 10.1863C19.0747 9.03592 18.671 7.93343 18.0275 6.97105C17.384 6.00867 16.5194 5.21439 15.506 4.65466C14.4926 4.09493 13.3599 3.78602 12.2026 3.75379ZM9.34835 8.34835C10.0516 7.64509 11.0054 7.25 12 7.25C12.9946 7.25 13.9484 7.64509 14.6517 8.34835C15.3549 9.05161 15.75 10.0054 15.75 11C15.75 11.9946 15.3549 12.9484 14.6517 13.6517C13.9484 14.3549 12.9946 14.75 12 14.75C11.0054 14.75 10.0516 14.3549 9.34835 13.6517C8.64509 12.9484 8.25 11.9946 8.25 11C8.25 10.0054 8.64509 9.05161 9.34835 8.34835ZM12 8.75C11.4033 8.75 10.831 8.98705 10.409 9.40901C9.98705 9.83097 9.75 10.4033 9.75 11C9.75 11.5967 9.98705 12.169 10.409 12.591C10.831 13.0129 11.4033 13.25 12 13.25C12.5967 13.25 13.169 13.0129 13.591 12.591C14.0129 12.169 14.25 11.5967 14.25 11C14.25 10.4033 14.0129 9.83097 13.591 9.40901C13.169 8.98705 12.5967 8.75 12 8.75ZM19 13.25C19.4142 13.25 19.75 13.5858 19.75 14V14.25H21C21.4142 14.25 21.75 14.5858 21.75 15C21.75 15.4142 21.4142 15.75 21 15.75H18.5C18.3011 15.75 18.1103 15.829 17.9697 15.9697C17.829 16.1103 17.75 16.3011 17.75 16.5C17.75 16.6989 17.829 16.8897 17.9697 17.0303C18.1103 17.171 18.3011 17.25 18.5 17.25H19.5C20.0967 17.25 20.669 17.4871 21.091 17.909C21.5129 18.331 21.75 18.9033 21.75 19.5C21.75 20.0967 21.5129 20.669 21.091 21.091C20.7284 21.4536 20.2548 21.6797 19.75 21.7361V22C19.75 22.4142 19.4142 22.75 19 22.75C18.5858 22.75 18.25 22.4142 18.25 22V21.75H17C16.5858 21.75 16.25 21.4142 16.25 21C16.25 20.5858 16.5858 20.25 17 20.25H19.5C19.6989 20.25 19.8897 20.171 20.0303 20.0303C20.171 19.8897 20.25 19.6989 20.25 19.5C20.25 19.3011 20.171 19.1103 20.0303 18.9697C19.8897 18.829 19.6989 18.75 19.5 18.75H18.5C17.9033 18.75 17.331 18.5129 16.909 18.091C16.4871 17.669 16.25 17.0967 16.25 16.5C16.25 15.9033 16.4871 15.331 16.909 14.909C17.2716 14.5464 17.7452 14.3203 18.25 14.2639V14C18.25 13.5858 18.5858 13.25 19 13.25Z" fill="currentColor"/>
</svg>
