<svg width="24" height="24" viewBox="0 0 24 24" fill="none" xmlns="http://www.w3.org/2000/svg">
<g opacity="0.2">
<path fill-rule="evenodd" clip-rule="evenodd" d="M12.4724 3.76588C11.2989 3.68929 10.1243 3.89933 9.05002 4.3779C7.97574 4.85647 7.03401 5.58919 6.30606 6.51287C5.5781 7.43655 5.08577 8.52345 4.87155 9.67983C4.65732 10.8362 4.72761 12.0273 5.07637 13.1505C5.42512 14.2736 6.04185 15.295 6.87335 16.1266C6.87338 16.1267 6.87341 16.1267 6.87344 16.1267L11.1174 20.3696L11.1175 20.3698C11.2045 20.4568 11.3039 20.5305 11.4125 20.5885C11.7778 20.7837 11.9158 21.2381 11.7206 21.6034C11.5254 21.9688 11.0711 22.1067 10.7057 21.9116C10.4669 21.784 10.2482 21.6218 10.0567 21.4303L5.81282 17.1874L5.81272 17.1873C4.80913 16.1836 4.06477 14.9509 3.64385 13.5953C3.22293 12.2398 3.13809 10.8022 3.39664 9.40659C3.65519 8.01096 4.24938 6.69918 5.12795 5.5844C6.00652 4.46961 7.14309 3.58529 8.43963 3.00771C9.73618 2.43013 11.1538 2.17662 12.5701 2.26907C13.9865 2.36151 15.3591 2.79712 16.5696 3.53833C17.78 4.27955 18.792 5.3041 19.5182 6.52362C20.2444 7.74315 20.6631 9.12104 20.738 10.5384C20.7599 10.9521 20.4423 11.3051 20.0287 11.327C19.6151 11.3489 19.262 11.0313 19.2401 10.6176C19.178 9.44323 18.8312 8.30155 18.2294 7.29109C17.6277 6.28062 16.7892 5.43171 15.7863 4.81756C14.7833 4.20342 13.646 3.84248 12.4724 3.76588ZM11.6959 7.26309C12.3862 7.20692 13.0786 7.34303 13.6963 7.65632C14.314 7.96962 14.8329 8.44787 15.1954 9.03804C15.5579 9.62821 15.7498 10.3072 15.75 10.9998C15.7501 11.4141 15.4144 11.7499 15.0002 11.75C14.586 11.7501 14.2501 11.4144 14.25 11.0002C14.2499 10.5846 14.1347 10.1772 13.9172 9.82312C13.6997 9.46902 13.3884 9.18207 13.0178 8.99409C12.6472 8.80611 12.2317 8.72444 11.8175 8.75815C11.4033 8.79185 11.0066 8.9396 10.6712 9.18502C10.3359 9.43045 10.075 9.76395 9.91762 10.1486C9.76023 10.5332 9.71243 10.9538 9.77951 11.364C9.8466 11.7741 10.026 12.1576 10.2977 12.472C10.5694 12.7864 10.9229 13.0194 11.319 13.1452C11.7138 13.2706 11.9322 13.6922 11.8068 14.087C11.6815 14.4818 11.2598 14.7002 10.865 14.5748C10.2049 14.3652 9.61571 13.9769 9.16281 13.4528C8.70992 12.9288 8.411 12.2896 8.29919 11.6061C8.18738 10.9226 8.26705 10.2214 8.52937 9.58043C8.7917 8.93943 9.22642 8.38359 9.78534 7.97455C10.3443 7.56551 11.0056 7.31926 11.6959 7.26309Z" fill="currentColor"/>
<path d="M17.8 20.817L15.628 21.955C15.5635 21.9885 15.491 22.0035 15.4186 21.9982C15.3461 21.9929 15.2765 21.9676 15.2176 21.9251C15.1587 21.8826 15.1127 21.8245 15.0849 21.7574C15.0571 21.6903 15.0485 21.6167 15.06 21.545L15.475 19.134L13.718 17.427C13.6656 17.3763 13.6284 17.3119 13.6108 17.2411C13.5933 17.1703 13.5959 17.096 13.6186 17.0266C13.6412 16.9573 13.6829 16.8957 13.7388 16.8489C13.7948 16.8021 13.8627 16.772 13.935 16.762L16.363 16.41L17.449 14.217C17.4815 14.1517 17.5315 14.0967 17.5935 14.0583C17.6556 14.0199 17.727 13.9995 17.8 13.9995C17.8729 13.9995 17.9444 14.0199 18.0064 14.0583C18.0685 14.0967 18.1185 14.1517 18.151 14.217L19.237 16.41L21.665 16.762C21.737 16.7723 21.8047 16.8027 21.8604 16.8495C21.9162 16.8963 21.9576 16.9578 21.9802 17.027C22.0028 17.0962 22.0056 17.1703 21.9882 17.241C21.9708 17.3117 21.9341 17.3761 21.882 17.427L20.125 19.134L20.539 21.544C20.5514 21.6158 20.5434 21.6898 20.516 21.7573C20.4885 21.8249 20.4426 21.8834 20.3836 21.9262C20.3245 21.969 20.2547 21.9944 20.1819 21.9995C20.1092 22.0046 20.0364 21.9891 19.972 21.955L17.8 20.817Z" stroke="currentColor" stroke-width="1.5" stroke-linecap="round" stroke-linejoin="round"/>
</g>
</svg>
