<svg width="24" height="24" viewBox="0 0 24 24" fill="none" xmlns="http://www.w3.org/2000/svg">
<path fill-rule="evenodd" clip-rule="evenodd" d="M13.0521 3.82699C11.8494 3.6506 10.6217 3.77942 9.48181 4.20163C8.34194 4.62383 7.32653 5.32586 6.52894 6.24314C5.73136 7.16043 5.17721 8.26353 4.91746 9.45099C4.65771 10.6385 4.7007 11.8722 5.04247 13.0387C5.38423 14.2052 6.01378 15.267 6.87323 16.1265C6.8732 16.1265 6.87326 16.1266 6.87323 16.1265L11.1172 20.3695C11.2333 20.4858 11.3717 20.5783 11.5235 20.6409C11.6753 20.7036 11.8381 20.7355 12.0023 20.7349C12.4165 20.7335 12.7535 21.0681 12.755 21.4823C12.7564 21.8965 12.4218 22.2334 12.0076 22.2349C11.6453 22.2362 11.2863 22.1657 10.9514 22.0275C10.6165 21.8894 10.3123 21.6862 10.0563 21.4299L5.8127 17.1873C4.77538 16.1499 4.01546 14.8683 3.60298 13.4604C3.1905 12.0526 3.13862 10.5636 3.45211 9.13046C3.7656 7.69731 4.4344 6.36598 5.397 5.25891C6.3596 4.15184 7.5851 3.30457 8.9608 2.79502C10.3365 2.28546 11.8182 2.12998 13.2698 2.34287C14.7213 2.55575 16.0959 3.13018 17.2674 4.01332C18.4388 4.89645 19.3694 6.05995 19.9736 7.39681C20.5777 8.73367 20.8361 10.201 20.7248 11.6638C20.6934 12.0768 20.3331 12.3862 19.9201 12.3548C19.5071 12.3233 19.1977 11.9631 19.2291 11.55C19.3213 10.338 19.1073 9.12223 18.6067 8.01454C18.1061 6.90686 17.335 5.94282 16.3644 5.21108C15.3938 4.47933 14.2548 4.00338 13.0521 3.82699ZM9.34835 8.34823C10.0516 7.64497 11.0054 7.24988 12 7.24988C12.9946 7.24988 13.9484 7.64497 14.6517 8.34823C15.3549 9.05149 15.75 10.0053 15.75 10.9999C15.75 11.9944 15.3549 12.9483 14.6517 13.6515C13.9484 14.3548 12.9946 14.7499 12 14.7499C11.0054 14.7499 10.0516 14.3548 9.34835 13.6515C8.64509 12.9483 8.25 11.9944 8.25 10.9999C8.25 10.0053 8.64509 9.05149 9.34835 8.34823ZM12 8.74988C11.4033 8.74988 10.831 8.98693 10.409 9.40889C9.98705 9.83084 9.75 10.4031 9.75 10.9999C9.75 11.5966 9.98705 12.1689 10.409 12.5909C10.831 13.0128 11.4033 13.2499 12 13.2499C12.5967 13.2499 13.169 13.0128 13.591 12.5909C14.0129 12.1689 14.25 11.5966 14.25 10.9999C14.25 10.4031 14.0129 9.83084 13.591 9.40889C13.169 8.98693 12.5967 8.74988 12 8.74988ZM19.001 14.7499C19.4152 14.7499 19.751 15.0857 19.751 15.4999V16.3541C20.186 16.4774 20.5876 16.7072 20.9172 17.0274L21.6569 16.6004C22.0156 16.3933 22.4743 16.5162 22.6814 16.8749C22.8885 17.2336 22.7656 17.6923 22.4069 17.8994L21.6673 18.3265C21.7224 18.5448 21.751 18.7709 21.751 18.9999C21.751 19.2288 21.7224 19.4548 21.6673 19.6731L22.4077 20.1002C22.7665 20.3072 22.8895 20.7659 22.6826 21.1247C22.4756 21.4835 22.0169 21.6065 21.6581 21.3995L20.9174 20.9722C20.5878 21.2925 20.1861 21.5223 19.751 21.6456V22.4999C19.751 22.9141 19.4152 23.2499 19.001 23.2499C18.5868 23.2499 18.251 22.9141 18.251 22.4999V21.6456C17.816 21.5223 17.4145 21.2926 17.0849 20.9725L16.3448 21.3995C15.986 21.6065 15.5273 21.4835 15.3203 21.1247C15.1133 20.7659 15.2364 20.3072 15.5952 20.1002L16.3348 19.6736C16.2796 19.4551 16.251 19.229 16.251 18.9999C16.251 18.7708 16.2796 18.5446 16.3348 18.3262L15.5952 17.8995C15.2364 17.6925 15.1133 17.2339 15.3203 16.8751C15.5273 16.5163 15.986 16.3932 16.3448 16.6002L17.0849 17.0273C17.4145 16.7071 17.816 16.4774 18.251 16.3541V15.4999C18.251 15.0857 18.5868 14.7499 19.001 14.7499ZM17.9042 18.4002C17.9095 18.3918 17.9146 18.3833 17.9196 18.3747C17.9244 18.3663 17.9291 18.3578 17.9336 18.3493C17.9849 18.2652 18.0463 18.1868 18.1171 18.116C18.3515 17.8816 18.6695 17.7499 19.001 17.7499C19.3325 17.7499 19.6504 17.8816 19.8849 18.116C19.9604 18.1915 20.0252 18.2757 20.0785 18.3662C20.0801 18.3691 20.0817 18.372 20.0834 18.3749C20.0851 18.3778 20.0867 18.3807 20.0884 18.3835C20.1941 18.5698 20.251 18.7819 20.251 18.9999C20.251 19.2178 20.194 19.4299 20.0884 19.6163C20.0867 19.6192 20.085 19.6221 20.0833 19.6251C20.0817 19.6279 20.0801 19.6307 20.0785 19.6335C20.0252 19.724 19.9604 19.8082 19.8849 19.8838C19.6504 20.1182 19.3325 20.2499 19.001 20.2499C18.6695 20.2499 18.3515 20.1182 18.1171 19.8838C18.0463 19.813 17.9849 19.7345 17.9336 19.6504C17.9291 19.6419 17.9244 19.6335 17.9196 19.6251C17.9146 19.6164 17.9095 19.608 17.9042 19.5996C17.8046 19.4173 17.751 19.2114 17.751 18.9999C17.751 18.7884 17.8046 18.5824 17.9042 18.4002Z" fill="currentColor"/>
</svg>
