<svg width="24" height="24" viewBox="0 0 24 24" fill="none" xmlns="http://www.w3.org/2000/svg">
<path fill-rule="evenodd" clip-rule="evenodd" d="M8.26884 2.99217C9.45176 2.50219 10.7196 2.25 12 2.25C13.2804 2.25 14.5482 2.50219 15.7312 2.99217C16.9141 3.48216 17.9889 4.20034 18.8943 5.10571C19.7997 6.01108 20.5178 7.08591 21.0078 8.26884C21.4978 9.45176 21.75 10.7196 21.75 12C21.75 13.2804 21.4978 14.5482 21.0078 15.7312C20.5178 16.9141 19.7997 17.9889 18.8943 18.8943C17.9889 19.7997 16.9141 20.5178 15.7312 21.0078C14.5482 21.4978 13.2804 21.75 12 21.75C10.7196 21.75 9.45176 21.4978 8.26884 21.0078C7.08591 20.5178 6.01108 19.7997 5.10571 18.8943C4.20034 17.9889 3.48216 16.9141 2.99217 15.7312C2.50219 14.5482 2.25 13.2804 2.25 12C2.25 10.7196 2.50219 9.45176 2.99217 8.26884C3.48216 7.08591 4.20034 6.01108 5.10571 5.10571C6.01108 4.20034 7.08591 3.48216 8.26884 2.99217ZM12 3.75C10.9166 3.75 9.8438 3.96339 8.84286 4.37799C7.84193 4.7926 6.93245 5.40029 6.16637 6.16637C5.40029 6.93245 4.79259 7.84193 4.37799 8.84286C3.96339 9.8438 3.75 10.9166 3.75 12C3.75 13.0834 3.96339 14.1562 4.37799 15.1571C4.79259 16.1581 5.40029 17.0675 6.16637 17.8336C6.93245 18.5997 7.84193 19.2074 8.84286 19.622C9.8438 20.0366 10.9166 20.25 12 20.25C13.0834 20.25 14.1562 20.0366 15.1571 19.622C16.1581 19.2074 17.0675 18.5997 17.8336 17.8336C18.5997 17.0675 19.2074 16.1581 19.622 15.1571C20.0366 14.1562 20.25 13.0834 20.25 12C20.25 10.9166 20.0366 9.8438 19.622 8.84286C19.2074 7.84193 18.5997 6.93245 17.8336 6.16637C17.0675 5.40029 16.1581 4.7926 15.1571 4.37799C14.1562 3.96339 13.0834 3.75 12 3.75ZM11 9.75C10.9337 9.75 10.8701 9.77634 10.8232 9.82322C10.7763 9.87011 10.75 9.9337 10.75 10V11C10.75 11.0663 10.7763 11.1299 10.8232 11.1768C10.8701 11.2237 10.9337 11.25 11 11.25H13C13.4641 11.25 13.9092 11.4344 14.2374 11.7626C14.5656 12.0908 14.75 12.5359 14.75 13V14C14.75 14.4641 14.5656 14.9092 14.2374 15.2374C13.9092 15.5656 13.4641 15.75 13 15.75H10.75C9.92179 15.75 9.25 15.0782 9.25 14.25C9.25 13.8358 9.58579 13.5 10 13.5C10.4142 13.5 10.75 13.8358 10.75 14.25H13C13.0663 14.25 13.1299 14.2237 13.1768 14.1768C13.2237 14.1299 13.25 14.0663 13.25 14V13C13.25 12.9337 13.2237 12.8701 13.1768 12.8232C13.1299 12.7763 13.0663 12.75 13 12.75H11C10.5359 12.75 10.0908 12.5656 9.76256 12.2374C9.43437 11.9092 9.25 11.4641 9.25 11V10C9.25 9.53587 9.43437 9.09075 9.76256 8.76256C10.0908 8.43437 10.5359 8.25 11 8.25H13.25C13.6478 8.25 14.0294 8.40804 14.3107 8.68934C14.592 8.97064 14.75 9.35217 14.75 9.75C14.75 10.1642 14.4142 10.5 14 10.5C13.5858 10.5 13.25 10.1642 13.25 9.75H11Z" fill="currentColor"/>
</svg>
