<svg width="24" height="24" viewBox="0 0 24 24" fill="none" xmlns="http://www.w3.org/2000/svg">
<path fill-rule="evenodd" clip-rule="evenodd" d="M12 3.75024C10.5661 3.75024 9.16441 4.17544 7.97216 4.97206C6.77991 5.76869 5.85066 6.90096 5.30191 8.2257C4.75317 9.55045 4.60957 11.0082 4.88928 12.4145C5.16899 13.8208 5.85942 15.1126 6.87327 16.1266C6.87325 16.1265 6.8733 16.1266 6.87327 16.1266L11.1171 20.3694C11.3515 20.6035 11.6692 20.735 12.0005 20.735C12.3318 20.735 12.6496 20.6035 12.8839 20.3694L17.1267 16.1266C18.1406 15.1127 18.831 13.8209 19.1107 12.4145C19.3904 11.0082 19.2468 9.55045 18.6981 8.2257C18.1493 6.90096 17.2201 5.76869 16.0278 4.97206C14.8356 4.17544 13.4339 3.75024 12 3.75024ZM7.13881 3.72485C8.57773 2.76341 10.2694 2.25024 12 2.25024C13.7306 2.25024 15.4223 2.76341 16.8612 3.72485C18.3001 4.6863 19.4216 6.05283 20.0839 7.65166C20.7462 9.25049 20.9195 11.0098 20.5819 12.7071C20.2443 14.4044 19.411 15.9635 18.1873 17.1873L13.9443 21.4303C13.4287 21.9454 12.7294 22.235 12.0005 22.235C11.2716 22.235 10.5726 21.9457 10.0569 21.4305L5.81274 17.1873C4.58907 15.9636 3.75568 14.4044 3.4181 12.7071C3.08052 11.0098 3.25382 9.25049 3.9161 7.65166C4.57838 6.05283 5.69989 4.6863 7.13881 3.72485ZM9.34835 8.3483C10.0516 7.64504 11.0054 7.24995 12 7.24995C12.9946 7.24995 13.9484 7.64504 14.6517 8.3483C15.3549 9.05156 15.75 10.0054 15.75 11C15.75 11.9945 15.3549 12.9483 14.6517 13.6516C13.9484 14.3549 12.9946 14.75 12 14.75C11.0054 14.75 10.0516 14.3549 9.34835 13.6516C8.64509 12.9483 8.25 11.9945 8.25 11C8.25 10.0054 8.64509 9.05156 9.34835 8.3483ZM12 8.74995C11.4033 8.74995 10.831 8.98701 10.409 9.40896C9.98706 9.83092 9.75 10.4032 9.75 11C9.75 11.5967 9.98706 12.169 10.409 12.5909C10.831 13.0129 11.4033 13.25 12 13.25C12.5967 13.25 13.169 13.0129 13.591 12.5909C14.013 12.169 14.25 11.5967 14.25 11C14.25 10.4032 14.013 9.83092 13.591 9.40896C13.169 8.98701 12.5967 8.74995 12 8.74995Z" fill="currentColor"/>
</svg>
