<svg width="24" height="24" viewBox="0 0 24 24" fill="none" xmlns="http://www.w3.org/2000/svg">
<path fill-rule="evenodd" clip-rule="evenodd" d="M12.8826 3.80396C11.6876 3.65734 10.4748 3.81066 9.35387 4.25005C8.23292 4.68945 7.23904 5.4011 6.46196 6.32076C5.68488 7.24042 5.14908 8.33912 4.90291 9.51769C4.65674 10.6963 4.70797 11.9176 5.05196 13.0714C5.39594 14.2252 6.02185 15.2751 6.87317 16.1265C6.87315 16.1264 6.8732 16.1265 6.87317 16.1265L11.1172 20.3695C11.3495 20.6021 11.6648 20.7337 11.9935 20.7349C12.4077 20.7363 12.7423 21.0733 12.7409 21.4875C12.7395 21.9017 12.4025 22.2363 11.9883 22.2349C11.2632 22.2323 10.5686 21.9429 10.0562 21.4298L5.81264 17.1873C4.78514 16.1598 4.02965 14.8925 3.61448 13.4999C3.19932 12.1074 3.1375 10.6334 3.4346 9.211C3.73169 7.78859 4.37836 6.46257 5.31621 5.35264C6.25406 4.24271 7.45357 3.38382 8.80645 2.85351C10.1593 2.3232 11.623 2.13817 13.0653 2.31512C14.5076 2.49207 15.8831 3.02543 17.0676 3.86704C18.2522 4.70866 19.2085 5.83204 19.8502 7.13576C20.492 8.43948 20.7989 9.8825 20.7434 11.3345C20.7275 11.7484 20.3791 12.0711 19.9652 12.0553C19.5513 12.0395 19.2286 11.6911 19.2445 11.2772C19.2905 10.0741 19.0362 8.87843 18.5044 7.7982C17.9727 6.71797 17.1803 5.78717 16.1989 5.08984C15.2174 4.3925 14.0776 3.95057 12.8826 3.80396ZM11.8221 7.25413C12.6009 7.21703 13.3719 7.42361 14.0278 7.84512C14.6837 8.26663 15.192 8.88211 15.4818 9.60593C15.7716 10.3297 15.8286 11.1259 15.6449 11.8836C15.5472 12.2862 15.1418 12.5334 14.7392 12.4358C14.3367 12.3381 14.0895 11.9327 14.1871 11.5301C14.2974 11.0755 14.2632 10.5978 14.0893 10.1635C13.9154 9.72922 13.6104 9.35993 13.2169 9.10702C12.8233 8.85412 12.3607 8.73017 11.8934 8.75243C11.4262 8.77469 10.9774 8.94204 10.6097 9.23121C10.242 9.52038 9.9735 9.91698 9.84167 10.3658C9.70984 10.8147 9.7212 11.2935 9.87416 11.7356C10.0271 12.1777 10.3141 12.5611 10.6951 12.8325C11.0761 13.1039 11.5323 13.2498 12.0001 13.2499C12.4143 13.2499 12.7501 13.5858 12.75 14C12.7499 14.4142 12.4141 14.7499 11.9999 14.7499C11.2202 14.7497 10.4599 14.5066 9.82487 14.0542C9.18981 13.6019 8.71155 12.9629 8.45661 12.226C8.20167 11.4892 8.18275 10.6912 8.40246 9.94314C8.62218 9.19505 9.0696 8.53405 9.6825 8.0521C10.2954 7.57015 11.0433 7.29122 11.8221 7.25413ZM15.3483 15.3482C16.0516 14.645 17.0054 14.2499 18 14.2499C18.9946 14.2499 19.9484 14.645 20.6517 15.3482C21.3549 16.0515 21.75 17.0053 21.75 17.9999C21.75 18.7406 21.5308 19.4588 21.1284 20.0676L22.5303 21.4695C22.8232 21.7624 22.8232 22.2373 22.5303 22.5302C22.2374 22.8231 21.7625 22.8231 21.4696 22.5302L20.0678 21.1283C19.4589 21.5307 18.7407 21.7499 18 21.7499C17.0054 21.7499 16.0516 21.3548 15.3483 20.6515C14.6451 19.9483 14.25 18.9944 14.25 17.9999C14.25 17.0053 14.6451 16.0515 15.3483 15.3482ZM18 15.7499C17.4033 15.7499 16.831 15.9869 16.409 16.4089C15.9871 16.8308 15.75 17.4031 15.75 17.9999C15.75 18.5966 15.9871 19.1689 16.409 19.5909C16.831 20.0128 17.4033 20.2499 18 20.2499C18.5967 20.2499 19.169 20.0128 19.591 19.5909C20.0129 19.1689 20.25 18.5966 20.25 17.9999C20.25 17.4031 20.0129 16.8308 19.591 16.4089C19.169 15.9869 18.5967 15.7499 18 15.7499Z" fill="currentColor"/>
</svg>
