<svg width="24" height="24" viewBox="0 0 24 24" fill="none" xmlns="http://www.w3.org/2000/svg">
<path d="M4 5.99998C4 5.44398 4.227 4.94098 4.593 4.57898M9 4H10.5M13.5 4H15M18 4C18.5304 4 19.0391 4.21071 19.4142 4.58579C19.7893 4.96086 20 5.46957 20 6M20 9V10.5M20 13.5V15M19.402 19.426C19.0284 19.7944 18.5247 20.0007 18 20M15 20H13.5M10.5 20H9M6 20C5.46957 20 4.96086 19.7893 4.58579 19.4142C4.21071 19.0391 4 18.5304 4 18M4 15V13.5M4 10.5V9M3 3L21 21" stroke="currentColor" stroke-width="1.5" stroke-linecap="round" stroke-linejoin="round"/>
</svg>
