<svg width="24" height="24" viewBox="0 0 24 24" fill="none" xmlns="http://www.w3.org/2000/svg">
<path d="M13 9C13.058 9 13.133 9 13.192 9H19.808C20.0861 8.99995 20.3611 9.05789 20.6156 9.17014C20.87 9.28238 21.0983 9.44646 21.2857 9.65189C21.4732 9.85733 21.6157 10.0996 21.7043 10.3632C21.7928 10.6269 21.8254 10.9061 21.7999 11.183L21.246 17.224M19.9599 19.942C19.222 20.6232 18.2542 21.001 17.25 21H15.75C14.7523 20.9999 13.7907 20.6271 13.0539 19.9546C12.317 19.2821 11.858 18.3585 11.767 17.365L11.2 11.183M18 13H18.01M15 16.5C15.657 16.938 16.313 17.088 16.97 16.951M8.63205 15.982C8.50507 15.994 8.3776 16 8.25005 16H6.75005C5.75243 15.9999 4.79084 15.6271 4.05396 14.9546C3.31707 14.2821 2.85809 13.3585 2.76705 12.365L2.20005 6.183C2.17459 5.9061 2.20715 5.62692 2.29565 5.36331C2.38415 5.0997 2.52665 4.85744 2.71405 4.652C3.04615 4.28155 3.50496 4.04894 4.00005 4M8.00005 4H10.8081C11.3385 4 11.8472 4.21071 12.2223 4.58579C12.5973 4.96086 12.8081 5.46957 12.8081 6M6 8H6.01M6 11.9999C6.764 11.4899 7.528 11.3699 8.291 11.6399M3 3L21 21" stroke="currentColor" stroke-width="1.5" stroke-linecap="round" stroke-linejoin="round"/>
</svg>
