<svg width="24" height="24" viewBox="0 0 24 24" fill="none" xmlns="http://www.w3.org/2000/svg">
<path d="M19.42 19.41C19.2339 19.5972 19.0127 19.7457 18.769 19.8469C18.5253 19.9482 18.2639 20.0002 18 20H6C5.46957 20 4.96086 19.7893 4.58579 19.4142C4.21071 19.0391 4 18.5304 4 18V6C4 5.446 4.225 4.945 4.588 4.583M8 4H18C18.5304 4 19.0391 4.21071 19.4142 4.58579C19.7893 4.96086 20 5.46957 20 6V16M9.88495 9.87196C9.60283 10.1499 9.37851 10.4809 9.22495 10.8459C9.07139 11.2109 8.99163 11.6028 8.99025 11.9988C8.98888 12.3948 9.06592 12.7872 9.21694 13.1533C9.36797 13.5193 9.58997 13.8519 9.87016 14.1318C10.1504 14.4116 10.4832 14.6332 10.8494 14.7838C11.2157 14.9344 11.6082 15.011 12.0042 15.0092C12.4002 15.0073 12.7919 14.9271 13.1568 14.7731C13.5216 14.6191 13.8524 14.3944 14.13 14.112M14.712 10.716C14.4129 10.0863 13.9047 9.57983 13.274 9.28296M3 3L21 21" stroke="currentColor" stroke-width="1.5" stroke-linecap="round" stroke-linejoin="round"/>
</svg>
