<svg width="24" height="24" viewBox="0 0 24 24" fill="none" xmlns="http://www.w3.org/2000/svg">
<path d="M3 21L17 12M16 12C16 12.2652 16.1054 12.5196 16.2929 12.7071C16.4804 12.8946 16.7348 13 17 13C17.2652 13 17.5196 12.8946 17.7071 12.7071C17.8946 12.5196 18 12.2652 18 12C18 11.7348 17.8946 11.4804 17.7071 11.2929C17.5196 11.1054 17.2652 11 17 11C16.7348 11 16.4804 11.1054 16.2929 11.2929C16.1054 11.4804 16 11.7348 16 12ZM17 3L20.62 10.29C20.968 11.0299 21.0813 11.8586 20.9448 12.6647C20.8082 13.4709 20.4283 14.216 19.856 14.8C19.1969 15.4715 18.3222 15.8892 17.3856 15.9795C16.449 16.0699 15.5106 15.8272 14.7352 15.2942C13.9599 14.7611 13.3972 13.9718 13.1463 13.065C12.8953 12.1581 12.972 11.1919 13.363 10.336L17 3Z" stroke="currentColor" stroke-width="1.5" stroke-linecap="round" stroke-linejoin="round"/>
</svg>
