<svg width="24" height="24" viewBox="0 0 24 24" fill="none" xmlns="http://www.w3.org/2000/svg">
<path d="M13.6198 8.38204L15.5858 6.41504C15.3532 6.18251 15.1815 5.89621 15.086 5.5815C14.9904 5.26679 14.974 4.93338 15.0381 4.61079C15.1022 4.28821 15.2449 3.98641 15.4535 3.73214C15.6621 3.47786 15.9302 3.27895 16.234 3.15302C16.5378 3.02709 16.868 2.97804 17.1953 3.0102C17.5226 3.04236 17.837 3.15474 18.1105 3.33739C18.384 3.52004 18.6082 3.76733 18.7633 4.05734C18.9185 4.34736 18.9997 4.67115 18.9998 5.00004C19.3287 4.9998 19.6527 5.08072 19.9429 5.23562C20.2331 5.39053 20.4807 5.61463 20.6636 5.88807C20.8465 6.16151 20.9591 6.47585 20.9915 6.80323C21.0238 7.13061 20.975 7.46092 20.8492 7.76488C20.7233 8.06885 20.5245 8.33709 20.2702 8.54584C20.016 8.75458 19.7141 8.89738 19.3915 8.96158C19.0688 9.02578 18.7353 9.0094 18.4205 8.91389C18.1057 8.81838 17.8193 8.64669 17.5868 8.41404L15.7668 10.235M12.9738 21.425C11.8038 22.596 8.63677 21.33 5.90377 18.596C3.16977 15.863 1.90377 12.697 3.07577 11.525M12.9738 21.425C14.1458 20.253 12.8798 17.087 10.1458 14.354C7.41277 11.62 4.24577 10.354 3.07577 11.525M12.9738 21.425C16.8788 17.519 17.8297 12.137 15.0957 9.40403C12.3627 6.67003 6.98077 7.62003 3.07577 11.525M7.49976 16L8.49976 17" stroke="currentColor" stroke-width="1.5" stroke-linecap="round" stroke-linejoin="round"/>
</svg>
