<svg width="24" height="24" viewBox="0 0 24 24" fill="none" xmlns="http://www.w3.org/2000/svg">
<path d="M13.6198 8.38201L15.5858 6.41501C15.3532 6.18248 15.1815 5.89618 15.086 5.58147C14.9904 5.26676 14.974 4.93335 15.0381 4.61076C15.1022 4.28818 15.2449 3.98638 15.4535 3.73211C15.6621 3.47783 15.9302 3.27892 16.234 3.15299C16.5378 3.02706 16.868 2.978 17.1953 3.01016C17.5226 3.04232 17.837 3.15471 18.1105 3.33736C18.384 3.52001 18.6082 3.7673 18.7633 4.05731C18.9185 4.34733 18.9997 4.67112 18.9998 5.00001C19.3287 4.99977 19.6527 5.08069 19.9429 5.23559C20.2331 5.3905 20.4807 5.6146 20.6636 5.88804C20.8465 6.16148 20.9591 6.47582 20.9915 6.8032C21.0238 7.13058 20.975 7.46089 20.8492 7.76485C20.7233 8.06882 20.5245 8.33706 20.2702 8.54581C20.016 8.75455 19.7141 8.89735 19.3915 8.96155C19.0688 9.02575 18.7353 9.00937 18.4205 8.91386C18.1057 8.81835 17.8193 8.64666 17.5868 8.41401L15.7668 10.235M12.9738 21.425C11.8038 22.596 8.63677 21.33 5.90377 18.596C3.16977 15.863 1.90377 12.697 3.07577 11.525M12.9738 21.425C14.1458 20.253 12.8798 17.087 10.1458 14.354C7.41277 11.62 4.24577 10.354 3.07577 11.525M12.9738 21.425C14.5558 19.843 15.6537 18.018 16.2167 16.225M3.07577 11.525C4.65777 9.943 6.48174 8.847 8.27374 8.284M7.49976 16L8.49976 17M16.5997 12.6C16.4397 11.362 15.9467 10.255 15.0957 9.40499C14.2457 8.55499 13.1407 8.06099 11.9037 7.90199M2.99976 3L20.9998 21" stroke="currentColor" stroke-width="1.5" stroke-linecap="round" stroke-linejoin="round"/>
</svg>
