<svg width="24" height="24" viewBox="0 0 24 24" fill="none" xmlns="http://www.w3.org/2000/svg">
<path d="M11 2L10.85 2.005C10.3468 2.04284 9.87658 2.26947 9.53349 2.63945C9.1904 3.00943 8.99983 3.49542 8.99999 4V6.803L6.57199 5.402C6.11263 5.1368 5.56674 5.06493 5.05439 5.2022C4.54205 5.33948 4.10522 5.67465 3.83999 6.134L2.83999 7.866L2.76699 8.004C2.55004 8.45832 2.51242 8.97776 2.66164 9.4586C2.81086 9.93944 3.13595 10.3463 3.57199 10.598L5.99899 12L3.57199 13.402C3.11265 13.6672 2.77747 14.1041 2.64019 14.6164C2.50292 15.1287 2.57479 15.6746 2.83999 16.134L3.83999 17.866L3.92299 17.998C4.20795 18.4131 4.63898 18.7054 5.13002 18.8166C5.62106 18.9279 6.13599 18.8498 6.57199 18.598L8.99999 17.196V20C8.99999 20.5304 9.21071 21.0391 9.58578 21.4142C9.96085 21.7893 10.4696 22 11 22H13L13.15 21.995C13.6531 21.9572 14.1234 21.7305 14.4665 21.3605C14.8096 20.9906 15.0002 20.5046 15 20V17.196L17.428 18.599C17.8873 18.8642 18.4332 18.9361 18.9456 18.7988C19.4579 18.6615 19.8948 18.3263 20.16 17.867L21.16 16.135L21.233 15.997C21.4499 15.5427 21.4876 15.0232 21.3383 14.5424C21.1891 14.0616 20.864 13.6547 20.428 13.403L18 12L20.428 10.598C20.8873 10.3328 21.2225 9.89594 21.3598 9.3836C21.4971 8.87125 21.4252 8.32536 21.16 7.866L20.16 6.134L20.077 6.002C19.792 5.58692 19.361 5.29459 18.87 5.18337C18.3789 5.07215 17.864 5.15022 17.428 5.402L15 6.802V4C15 3.46957 14.7893 2.96086 14.4142 2.58579C14.0391 2.21071 13.5304 2 13 2H11Z" fill="currentColor"/>
</svg>
