<svg width="24" height="24" viewBox="0 0 24 24" fill="none" xmlns="http://www.w3.org/2000/svg">
<path fill-rule="evenodd" clip-rule="evenodd" d="M11 3.75C10.9337 3.75 10.8701 3.77634 10.8232 3.82322C10.7763 3.87011 10.75 3.9337 10.75 4V10C10.75 10.0663 10.7763 10.1299 10.8232 10.1768C10.8701 10.2237 10.9337 10.25 11 10.25H18C18.1989 10.25 18.3897 10.329 18.5303 10.4697L20.25 12.1893V4C20.25 3.93369 20.2237 3.87011 20.1768 3.82322C20.1299 3.77634 20.0663 3.75 20 3.75H11ZM9.76256 2.76256C10.0908 2.43437 10.5359 2.25 11 2.25H20C20.4641 2.25 20.9092 2.43437 21.2374 2.76256C21.5656 3.09075 21.75 3.53587 21.75 4V14C21.75 14.3033 21.5673 14.5768 21.287 14.6929C21.0068 14.809 20.6842 14.7448 20.4697 14.5303L17.6893 11.75H11C10.5359 11.75 10.0908 11.5656 9.76256 11.2374C9.43437 10.9092 9.25 10.4641 9.25 10V4C9.25 3.53587 9.43437 3.09075 9.76256 2.76256ZM4 10.75C3.9337 10.75 3.87011 10.7763 3.82322 10.8232C3.77634 10.8701 3.75 10.9337 3.75 11V19.1893L5.46967 17.4697C5.61032 17.329 5.80109 17.25 6 17.25H13C13.0663 17.25 13.1299 17.2237 13.1768 17.1768C13.2237 17.1299 13.25 17.0663 13.25 17V15C13.25 14.5858 13.5858 14.25 14 14.25C14.4142 14.25 14.75 14.5858 14.75 15V17C14.75 17.4641 14.5656 17.9092 14.2374 18.2374C13.9092 18.5656 13.4641 18.75 13 18.75H6.31066L3.53033 21.5303C3.31583 21.7448 2.99324 21.809 2.71299 21.6929C2.43273 21.5768 2.25 21.3033 2.25 21V11C2.25 10.5359 2.43437 10.0908 2.76256 9.76256C3.09075 9.43437 3.53587 9.25 4 9.25H6C6.41421 9.25 6.75 9.58579 6.75 10C6.75 10.4142 6.41421 10.75 6 10.75H4Z" fill="currentColor"/>
</svg>
