<svg width="24" height="24" viewBox="0 0 24 24" fill="none" xmlns="http://www.w3.org/2000/svg">
<path d="M5.821 4.91008C9.719 2.14508 15.29 2.37108 18.894 5.44608C22.561 8.57308 23.062 13.6841 20.046 17.3431C17.204 20.7901 12.081 21.9261 7.815 20.1481L7.583 20.0471L3.208 20.9781L3.133 20.9911L3.023 21.0001L2.91 20.9961L2.866 20.9911L2.756 20.9711L2.651 20.9371L2.551 20.8931L2.475 20.8511L2.367 20.7741L2.286 20.7001L2.213 20.6171L2.16 20.5421L2.095 20.4271L2.053 20.3211L2.022 20.2081L2.009 20.1331L2 20.0231L2.004 19.9101L2.009 19.8661L2.029 19.7561L2.051 19.6841L3.201 16.2331L3.179 16.1971C0.969 12.4501 1.97 7.80508 5.59 5.07908L5.82 4.91108L5.821 4.91008Z" fill="currentColor"/>
</svg>
