<svg width="24" height="24" viewBox="0 0 24 24" fill="none" xmlns="http://www.w3.org/2000/svg">
<path d="M9.75008 5.761L13.0001 3L12.0001 8L21.0001 3L16.0001 12H21.0001L18.5331 14.536M16.5501 16.576L14.1091 19.086C13.492 19.7043 12.7567 20.192 11.9469 20.5197C11.1372 20.8475 10.2697 21.0087 9.39629 20.9937C8.52287 20.9787 7.66143 20.7877 6.86345 20.4323C6.06547 20.0769 5.34731 19.5643 4.75189 18.9251C4.15647 18.2859 3.696 17.5332 3.39799 16.7121C3.09998 15.8909 2.97055 15.0181 3.01742 14.1458C3.0643 13.2735 3.28652 12.4196 3.67081 11.6352C4.05511 10.8507 4.59358 10.1517 5.25408 9.58L7.57608 7.608M3 3L21 21M7 14.5C7 15.163 7.26339 15.7989 7.73223 16.2678C8.20107 16.7366 8.83696 17 9.5 17C10.163 17 10.7989 16.7366 11.2678 16.2678C11.7366 15.7989 12 15.163 12 14.5C12 13.837 11.7366 13.2011 11.2678 12.7322C10.7989 12.2634 10.163 12 9.5 12C8.83696 12 8.20107 12.2634 7.73223 12.7322C7.26339 13.2011 7 13.837 7 14.5Z" stroke="currentColor" stroke-width="1.5" stroke-linecap="round" stroke-linejoin="round"/>
</svg>
