<svg width="24" height="24" viewBox="0 0 24 24" fill="none" xmlns="http://www.w3.org/2000/svg">
<path d="M20.9998 3L15.9998 12H20.9998L14.1088 19.086C13.4918 19.7043 12.7564 20.192 11.9467 20.5197C11.137 20.8475 10.2695 21.0087 9.39605 20.9937C8.52262 20.9787 7.66119 20.7877 6.8632 20.4323C6.06522 20.0769 5.34707 19.5643 4.75165 18.9251C4.15623 18.2859 3.69575 17.5332 3.39775 16.7121C3.09974 15.8909 2.9703 15.0181 3.01718 14.1458C3.06405 13.2735 3.28628 12.4196 3.67057 11.6352C4.05486 10.8507 4.59334 10.1517 5.25383 9.58L12.9998 3L11.9998 8L20.9998 3Z" stroke="currentColor" stroke-width="1.5" stroke-linecap="round" stroke-linejoin="round"/>
<path d="M6.99988 14.5C6.99988 15.163 7.26327 15.7989 7.73211 16.2678C8.20095 16.7366 8.83684 17 9.49988 17C10.1629 17 10.7988 16.7366 11.2676 16.2678C11.7365 15.7989 11.9999 15.163 11.9999 14.5C11.9999 13.837 11.7365 13.2011 11.2676 12.7322C10.7988 12.2634 10.1629 12 9.49988 12C8.83684 12 8.20095 12.2634 7.73211 12.7322C7.26327 13.2011 6.99988 13.837 6.99988 14.5Z" stroke="currentColor" stroke-width="1.5" stroke-linecap="round" stroke-linejoin="round"/>
</svg>
