<svg width="24" height="24" viewBox="0 0 24 24" fill="none" xmlns="http://www.w3.org/2000/svg">
<path d="M14.1528 8.18808L13.4328 4.95208C13.3097 4.3985 13.0014 3.90345 12.559 3.54865C12.1166 3.19385 11.5664 3.00049 10.9993 3.00049C10.4322 3.00049 9.88204 3.19385 9.43962 3.54865C8.99721 3.90345 8.68898 4.3985 8.56582 4.95208L5.54082 18.5661C5.47583 18.8584 5.47733 19.1616 5.5452 19.4533C5.61306 19.745 5.74557 20.0177 5.93293 20.2513C6.12029 20.485 6.35773 20.6735 6.62771 20.8031C6.8977 20.9327 7.19334 21 7.49282 21.0001H14.5068C14.8063 21 15.1019 20.9327 15.3719 20.8031C15.6419 20.6735 15.8794 20.485 16.0667 20.2513C16.2541 20.0177 16.3866 19.745 16.4544 19.4533C16.5223 19.1616 16.5238 18.8584 16.4588 18.5661L15.9348 16.2091M10.9998 18.0001L19.9998 5.00008M19 5.00012C19 5.26534 19.1054 5.51969 19.2929 5.70723C19.4804 5.89477 19.7348 6.00012 20 6.00012C20.2652 6.00012 20.5196 5.89477 20.7071 5.70723C20.8946 5.51969 21 5.26534 21 5.00012C21 4.73491 20.8946 4.48055 20.7071 4.29302C20.5196 4.10548 20.2652 4.00012 20 4.00012C19.7348 4.00012 19.4804 4.10548 19.2929 4.29302C19.1054 4.48055 19 4.73491 19 5.00012Z" stroke="currentColor" stroke-width="1.5" stroke-linecap="round" stroke-linejoin="round"/>
</svg>
