<svg width="24" height="24" viewBox="0 0 24 24" fill="none" xmlns="http://www.w3.org/2000/svg">
<path d="M4.97006 20C2.57506 18.053 0.207059 14.755 3.96506 12C3.44506 8 7.40706 4.5 9.48906 4.5C9.83606 3.5 10.9881 3 12.0291 3C13.0691 3 14.1641 3.5 14.5111 4.5C16.5931 4.5 20.5551 8 20.0351 12C23.7931 14.755 21.4251 18.053 19.0301 20M8 17.085C11.5 19.797 14.5 19.797 17 16M13 18.5001C13.815 16.1631 14.881 17.0281 15 17.9501M8 11C8 11.5304 8.10536 12.0391 8.29289 12.4142C8.48043 12.7893 8.73478 13 9 13C9.26522 13 9.51957 12.7893 9.70711 12.4142C9.89464 12.0391 10 11.5304 10 11C10 10.4696 9.89464 9.96086 9.70711 9.58579C9.51957 9.21071 9.26522 9 9 9C8.73478 9 8.48043 9.21071 8.29289 9.58579C8.10536 9.96086 8 10.4696 8 11ZM14 11C14 11.5304 14.1054 12.0391 14.2929 12.4142C14.4804 12.7893 14.7348 13 15 13C15.2652 13 15.5196 12.7893 15.7071 12.4142C15.8946 12.0391 16 11.5304 16 11C16 10.4696 15.8946 9.96086 15.7071 9.58579C15.5196 9.21071 15.2652 9 15 9C14.7348 9 14.4804 9.21071 14.2929 9.58579C14.1054 9.96086 14 10.4696 14 11Z" stroke="currentColor" stroke-width="1.5" stroke-linecap="round" stroke-linejoin="round"/>
</svg>
