<svg width="24" height="24" viewBox="0 0 24 24" fill="none" xmlns="http://www.w3.org/2000/svg">
<path d="M12.432 17.949C13.295 19.493 15.021 19.925 16.562 19.061C18.102 18.196 18.534 16.467 17.61 14.923C17.425 14.614 17.301 14.367 17.116 14.183C17.363 14.243 17.671 14.243 18.041 14.243C19.767 14.243 21 13.009 21 11.28C21 9.54999 19.767 8.31499 17.98 8.31499C17.61 8.31499 17.363 8.31499 17.055 8.37699C17.24 8.19199 17.363 7.94499 17.548 7.63699C18.411 6.09199 17.979 4.36299 16.5 3.49899C14.959 2.63399 13.295 3.06599 12.37 4.60999C12.185 4.91899 12.062 5.16599 11.938 5.41299C11.815 5.16599 11.692 4.91899 11.507 4.60999C10.705 3.00499 8.979 2.57199 7.5 3.43699C5.959 4.30199 5.527 6.03099 6.452 7.57399C6.637 7.88399 6.76 8.12999 6.945 8.31499C6.699 8.25399 6.39 8.25399 6.021 8.25399C4.233 8.25399 3 9.48899 3 11.218C3 12.947 4.233 14.182 6.02 14.182M4.07324 21C8.35924 18.244 9.97324 15.746 12.0002 12" stroke="currentColor" stroke-width="1.5" stroke-linecap="round" stroke-linejoin="round"/>
</svg>
