<svg width="24" height="24" viewBox="0 0 24 24" fill="none" xmlns="http://www.w3.org/2000/svg">
<path d="M5.49977 3C6.07178 2.99994 6.63509 3.14008 7.1404 3.40815C7.64571 3.67622 8.07762 4.06405 8.39832 4.5377C8.71902 5.01136 8.91875 5.55639 8.98002 6.12512C9.04129 6.69384 8.96223 7.26891 8.74977 7.8C7.79049 8.30349 6.96082 9.02226 6.32577 9.9C5.84478 10.0175 5.34434 10.0316 4.85749 9.94143C4.37064 9.85123 3.90848 9.65875 3.50152 9.37673C3.09456 9.0947 2.75207 8.72954 2.49667 8.30536C2.24127 7.88118 2.07878 7.40764 2.01993 6.91602C1.96108 6.42439 2.0072 5.92588 2.15526 5.4534C2.30332 4.98093 2.54994 4.54524 2.87883 4.17512C3.20772 3.80501 3.6114 3.50888 4.0632 3.30632C4.515 3.10375 5.00464 2.99935 5.49977 3Z" stroke="currentColor" stroke-width="1.5" stroke-linecap="round" stroke-linejoin="round"/>
<path d="M18.4997 3C18.9942 3.0005 19.4829 3.10576 19.9337 3.30883C20.3845 3.5119 20.7871 3.80818 21.1151 4.17815C21.4431 4.54812 21.689 4.98339 21.8366 5.45528C21.9842 5.92717 22.0301 6.42497 21.9714 6.91589C21.9126 7.40682 21.7505 7.87973 21.4958 8.30346C21.241 8.7272 20.8993 9.09215 20.4933 9.37428C20.0873 9.6564 19.6261 9.8493 19.1401 9.94026C18.6541 10.0312 18.1543 10.0182 17.6737 9.902C17.0391 9.02307 16.2094 8.30322 15.2497 7.799C15.0375 7.26796 14.9586 6.693 15.02 6.12441C15.0813 5.55582 15.2811 5.01094 15.6018 4.53742C15.9225 4.0639 16.3543 3.67617 16.8595 3.40816C17.3647 3.14014 17.9279 3 18.4997 3Z" stroke="currentColor" stroke-width="1.5" stroke-linecap="round" stroke-linejoin="round"/>
<path d="M4.99976 14C4.99976 14.9193 5.18082 15.8295 5.5326 16.6788C5.88438 17.5281 6.4 18.2997 7.05001 18.9497C7.70002 19.5998 8.47169 20.1154 9.32097 20.4672C10.1703 20.8189 11.0805 21 11.9998 21C12.919 21 13.8293 20.8189 14.6785 20.4672C15.5278 20.1154 16.2995 19.5998 16.9495 18.9497C17.5995 18.2997 18.1151 17.5281 18.4669 16.6788C18.8187 15.8295 18.9998 14.9193 18.9998 14C18.9998 13.0807 18.8187 12.1705 18.4669 11.3212C18.1151 10.4719 17.5995 9.70026 16.9495 9.05025C16.2995 8.40024 15.5278 7.88463 14.6785 7.53284C13.8293 7.18106 12.919 7 11.9998 7C11.0805 7 10.1703 7.18106 9.32097 7.53284C8.47169 7.88463 7.70002 8.40024 7.05001 9.05025C6.4 9.70026 5.88438 10.4719 5.5326 11.3212C5.18082 12.1705 4.99976 13.0807 4.99976 14Z" stroke="currentColor" stroke-width="1.5" stroke-linecap="round" stroke-linejoin="round"/>
</svg>
