<svg width="24" height="24" viewBox="0 0 24 24" fill="none" xmlns="http://www.w3.org/2000/svg">
<path d="M18.5009 2C19.6176 2.00064 20.6941 2.41643 21.5213 3.16656C22.3485 3.91669 22.8672 4.94757 22.9767 6.05885C23.0862 7.17013 22.7785 8.28241 22.1136 9.17952C21.4487 10.0766 20.474 10.6945 19.3789 10.913C19.8318 11.9943 20.0415 13.162 19.9932 14.3334C19.9448 15.5048 19.6396 16.6512 19.0992 17.6915C18.5587 18.7319 17.7962 19.6407 16.8656 20.3537C15.935 21.0668 14.859 21.5666 13.7139 21.8177C12.5688 22.0689 11.3824 22.0653 10.2388 21.8072C9.09521 21.5491 8.02232 21.0428 7.09605 20.3242C6.16978 19.6055 5.41278 18.6921 4.87862 17.6485C4.34446 16.6049 4.0462 15.4566 4.00494 14.285L3.99994 14L4.00494 13.715C4.03912 12.7512 4.24748 11.8016 4.61994 10.912C3.94793 10.7786 3.31525 10.4935 2.77013 10.0785C2.22502 9.66347 1.78187 9.12946 1.47447 8.51716C1.16707 7.90487 1.00354 7.23047 0.996342 6.54539C0.989145 5.8603 1.13847 5.18261 1.43294 4.564C1.7651 3.86853 2.27012 3.26991 2.89971 2.82537C3.52931 2.38084 4.26242 2.10527 5.02894 2.025L5.25394 2.007L5.53494 2L5.77894 2.009C6.87994 2.07724 7.91752 2.5475 8.69457 3.33046C9.47163 4.11342 9.93404 5.15452 9.99394 6.256C11.3099 5.91509 12.691 5.91509 14.0069 6.256C14.0694 5.10652 14.5699 4.02468 15.4057 3.23302C16.2414 2.44136 17.3498 2.0001 18.5009 2Z" fill="currentColor"/>
</svg>
