<svg width="24" height="24" viewBox="0 0 24 24" fill="none" xmlns="http://www.w3.org/2000/svg">
<path d="M15.0001 12.9001C16.0532 13.1144 17.1473 12.9837 18.1203 12.5273C19.0933 12.071 19.8933 11.3134 20.4019 10.3666C20.9105 9.41991 21.1005 8.33453 20.9437 7.27134C20.787 6.20816 20.2919 5.22377 19.5318 4.46405C18.7717 3.70434 17.7871 3.20975 16.7238 3.05357C15.6606 2.8974 14.5753 3.08796 13.6288 3.59701C12.6823 4.10605 11.9251 4.9065 11.4693 5.87971C11.0134 6.85292 10.8833 7.9471 11.0981 9.00007M15.0001 12.9001L11.0981 9.0011L3.58509 17.5851C3.20981 17.96 2.99882 18.4686 2.99854 18.999C2.9984 19.2617 3.04999 19.5218 3.15037 19.7645C3.25076 20.0072 3.39796 20.2278 3.58359 20.4136C3.76921 20.5994 3.98962 20.7469 4.23222 20.8475C4.47482 20.9481 4.73488 21 4.99753 21.0001C5.52797 21.0004 6.03681 20.79 6.41209 20.4151L15.0001 12.9001Z" stroke="currentColor" stroke-width="1.5" stroke-linecap="round" stroke-linejoin="round"/>
</svg>
