<svg width="24" height="24" viewBox="0 0 24 24" fill="none" xmlns="http://www.w3.org/2000/svg">
<path d="M16.9081 12.917C17.8043 12.7513 18.6383 12.3437 19.3197 11.7384C20.0011 11.133 20.5041 10.353 20.7743 9.48245C21.0444 8.61194 21.0715 7.68414 20.8526 6.79936C20.6336 5.91457 20.177 5.10647 19.5321 4.4624C18.8871 3.81834 18.0784 3.36283 17.1933 3.14511C16.3082 2.92739 15.3805 2.95574 14.5103 3.22711C13.6402 3.49848 12.8608 4.00254 12.2564 4.68479C11.652 5.36704 11.2455 6.20152 11.0811 7.09803M10.116 10.125L3.58704 17.585C3.21176 17.9599 3.00077 18.4685 3.00049 18.9989C3.00035 19.2616 3.05194 19.5217 3.15233 19.7644C3.25271 20.0071 3.39992 20.2277 3.58554 20.4135C3.77116 20.5993 3.99157 20.7468 4.23417 20.8474C4.47678 20.948 4.73683 20.9999 4.99948 21.0001C5.52993 21.0003 6.03876 20.7899 6.41404 20.415L13.875 13.886M3 3L21 21" stroke="currentColor" stroke-width="1.5" stroke-linecap="round" stroke-linejoin="round"/>
</svg>
