<svg width="24" height="24" viewBox="0 0 24 24" fill="none" xmlns="http://www.w3.org/2000/svg">
<path d="M18 18H4C3.73478 18 3.48043 17.8946 3.29289 17.7071C3.10536 17.5196 3 17.2652 3 17V7C3 6.73478 3.10536 6.48043 3.29289 6.29289C3.48043 6.10536 3.73478 6 4 6H6M10 6H20C20.2652 6 20.5196 6.10536 20.7071 6.29289C20.8946 6.48043 21 6.73478 21 7V17M15 6V11M15 15V18M18 12H18.01M18 9H18.01M6.5 10.5C7.5 9.83301 8 9.83301 9 10.5C9.636 10.765 10.272 11.165 10.907 10.928M6.5 13.5C7.5 12.833 8 12.833 9 13.5C9.833 13.847 10.667 14.426 11.5 13.5M3 3L21 21" stroke="currentColor" stroke-width="1.5" stroke-linecap="round" stroke-linejoin="round"/>
</svg>
