<svg width="24" height="24" viewBox="0 0 24 24" fill="none" xmlns="http://www.w3.org/2000/svg">
<path d="M17 10C17 8.67392 16.4732 7.40215 15.5355 6.46447C14.5979 5.52678 13.3261 5 12 5M17 10H7M17 10C17.2652 10 17.5196 10.1054 17.7071 10.2929C17.8946 10.4804 18 10.7348 18 11V12C18 12.2652 17.8946 12.5196 17.7071 12.7071C17.5196 12.8946 17.2652 13 17 13M12 5C10.6739 5 9.40215 5.52678 8.46447 6.46447C7.52678 7.40215 7 8.67392 7 10M12 5V3M7 10C6.73478 10 6.48043 10.1054 6.29289 10.2929C6.10536 10.4804 6 10.7348 6 11V12C6 12.2652 6.10536 12.5196 6.29289 12.7071C6.48043 12.8946 6.73478 13 7 13M17 13H7M17 13L15.19 20.243C15.1358 20.4592 15.011 20.6512 14.8352 20.7883C14.6595 20.9255 14.4429 21 14.22 21H9.78C9.55707 21 9.34054 20.9255 9.16479 20.7883C8.98905 20.6512 8.86417 20.4592 8.81 20.243L7 13" stroke="currentColor" stroke-width="1.5" stroke-linecap="round" stroke-linejoin="round"/>
</svg>
