<svg width="24" height="24" viewBox="0 0 24 24" fill="none" xmlns="http://www.w3.org/2000/svg">
<path d="M17 3.33989C18.5083 4.21075 19.7629 5.46042 20.6398 6.96519C21.5167 8.46997 21.9854 10.1777 21.9994 11.9192C22.0135 13.6608 21.5725 15.3758 20.72 16.8946C19.8676 18.4133 18.6332 19.6831 17.1392 20.5782C15.6452 21.4733 13.9434 21.9627 12.2021 21.998C10.4608 22.0332 8.74055 21.6131 7.21155 20.7791C5.68256 19.9452 4.39787 18.7264 3.48467 17.2434C2.57146 15.7604 2.06141 14.0646 2.005 12.3239L2 11.9999L2.005 11.6759C2.061 9.94888 2.56355 8.26585 3.46364 6.79089C4.36373 5.31592 5.63065 4.09934 7.14089 3.25977C8.65113 2.42021 10.3531 1.98629 12.081 2.00033C13.8089 2.01437 15.5036 2.47589 17 3.33989ZM15.57 13.5019C13.2509 13.3407 10.9404 13.9183 8.97 15.1519C8.7451 15.2925 8.58524 15.5166 8.52561 15.775C8.46597 16.0335 8.51144 16.305 8.652 16.5299C8.79257 16.7548 9.01671 16.9146 9.27514 16.9743C9.53357 17.0339 9.8051 16.9885 10.03 16.8479C11.6421 15.8386 13.5326 15.366 15.43 15.4979C15.6947 15.5165 15.9559 15.4291 16.1562 15.2551C16.3565 15.081 16.4794 14.8346 16.498 14.5699C16.5166 14.3052 16.4292 14.044 16.2552 13.8437C16.0812 13.6434 15.8347 13.5205 15.57 13.5019ZM9.01 8.99989L8.883 9.00689C8.63995 9.0358 8.41594 9.15285 8.25341 9.33586C8.09088 9.51887 8.00111 9.75513 8.00111 9.99989C8.00111 10.2447 8.09088 10.4809 8.25341 10.6639C8.41594 10.8469 8.63995 10.964 8.883 10.9929L9 10.9999L9.127 10.9929C9.37005 10.964 9.59406 10.8469 9.75659 10.6639C9.91912 10.4809 10.0089 10.2447 10.0089 9.99989C10.0089 9.75513 9.91912 9.51887 9.75659 9.33586C9.59406 9.15285 9.37005 9.0358 9.127 9.00689L9.01 8.99989ZM15.01 8.99989L14.883 9.00689C14.64 9.0358 14.4159 9.15285 14.2534 9.33586C14.0909 9.51887 14.0011 9.75513 14.0011 9.99989C14.0011 10.2447 14.0909 10.4809 14.2534 10.6639C14.4159 10.8469 14.64 10.964 14.883 10.9929L15 10.9999L15.127 10.9929C15.37 10.964 15.5941 10.8469 15.7566 10.6639C15.9191 10.4809 16.0089 10.2447 16.0089 9.99989C16.0089 9.75513 15.9191 9.51887 15.7566 9.33586C15.5941 9.15285 15.37 9.0358 15.127 9.00689L15.01 8.99989Z" fill="currentColor"/>
</svg>
