<svg width="24" height="24" viewBox="0 0 24 24" fill="none" xmlns="http://www.w3.org/2000/svg">
<path d="M14.986 3.50995C13.5623 3.00916 12.0356 2.87441 10.5462 3.11812C9.05678 3.36183 7.65259 3.97616 6.46278 4.90461C5.27297 5.83305 4.33573 7.0458 3.7373 8.43127C3.13887 9.81675 2.89845 11.3305 3.03816 12.8332C3.17788 14.3359 3.69324 15.7793 4.53683 17.0307C5.38043 18.2822 6.52518 19.3013 7.86576 19.9945C9.20634 20.6877 10.6997 21.0326 12.2085 20.9976C13.7173 20.9625 15.193 20.5486 16.5 19.794C18.989 18.357 20.681 15.816 21 13M10 10H10.01M14 8H14.01M12 15C13 13.667 14 13 15 13M20 9V9.01M20 6.00001C20.4483 5.99858 20.8832 5.8468 21.235 5.56896C21.5868 5.29112 21.8352 4.90329 21.9406 4.46754C22.0459 4.03179 22.0019 3.5733 21.8158 3.16546C21.6297 2.75762 21.3122 2.42401 20.914 2.21801C20.5162 2.01422 20.0611 1.95103 19.6228 2.03873C19.1845 2.12642 18.7888 2.35984 18.5 2.70101" stroke="currentColor" stroke-width="1.5" stroke-linecap="round" stroke-linejoin="round"/>
</svg>
