<svg width="24" height="24" viewBox="0 0 24 24" fill="none" xmlns="http://www.w3.org/2000/svg">
<path d="M20.9553 11.1041C20.7858 9.41072 20.1397 7.80014 19.092 6.45913C18.0442 5.11813 16.6377 4.10167 15.0357 3.52766C13.4336 2.95365 11.7016 2.84563 10.0407 3.21611C8.37969 3.5866 6.8578 4.42041 5.65153 5.62083C4.44526 6.82125 3.60406 8.33907 3.2255 9.99822C2.84694 11.6574 2.94654 13.3898 3.51275 14.9947C4.07896 16.5995 5.08857 18.0109 6.42447 19.0652C7.76036 20.1195 9.36778 20.7734 11.0603 20.951M9.00024 10H9.01024M15.0002 10H15.0102M9.50024 15C10.1582 15.672 11.0602 16 12.0002 16C12.1262 16 12.2512 15.994 12.3762 15.982M18.4202 15.61C18.6153 15.415 18.8468 15.2603 19.1016 15.1547C19.3564 15.0492 19.6295 14.9949 19.9052 14.9949C20.181 14.9949 20.4541 15.0492 20.7089 15.1547C20.9637 15.2603 21.1952 15.415 21.3902 15.61C21.5853 15.805 21.7399 16.0365 21.8455 16.2913C21.951 16.5461 22.0054 16.8192 22.0054 17.095C22.0054 17.3708 21.951 17.6439 21.8455 17.8987C21.7399 18.1535 21.5853 18.385 21.3902 18.58L18.0002 22H15.0002V19L18.4202 15.61Z" stroke="currentColor" stroke-width="1.5" stroke-linecap="round" stroke-linejoin="round"/>
</svg>
