<svg width="24" height="24" viewBox="0 0 24 24" fill="none" xmlns="http://www.w3.org/2000/svg">
<path d="M20.9828 12.556C21.0957 10.7323 20.6509 8.91739 19.7074 7.35263C18.764 5.78787 17.3666 4.54733 15.701 3.79595C14.0355 3.04457 12.1807 2.81793 10.3832 3.14617C8.58576 3.47441 6.93078 4.34198 5.63831 5.63354C4.34583 6.92509 3.47709 8.57945 3.14757 10.3767C2.81805 12.1739 3.04337 14.0289 3.79356 15.6949C4.54376 17.361 5.7833 18.7593 7.34739 19.7039C8.91148 20.6484 10.726 21.0946 12.5498 20.983M8.99982 10H9.00982M14.9998 10H15.0098M9.49982 15C10.1578 15.64 11.0598 16 11.9998 16C12.1938 16 12.3858 15.985 12.5738 15.955M21.4998 21.5L16.4998 16.5M16.4998 21.5L21.4998 16.5" stroke="currentColor" stroke-width="1.5" stroke-linecap="round" stroke-linejoin="round"/>
</svg>
