<svg width="24" height="24" viewBox="0 0 24 24" fill="none" xmlns="http://www.w3.org/2000/svg">
<path d="M16.9999 4.5C18.007 5.17149 18.8682 6.03921 19.5321 7.05125C20.1961 8.06329 20.649 9.19885 20.8639 10.39C21.2381 10.632 21.5409 10.9696 21.7408 11.3679C21.9407 11.7661 22.0305 12.2106 22.001 12.6553C21.9714 13.0999 21.8235 13.5286 21.5726 13.8969C21.3217 14.2652 20.9769 14.5597 20.5739 14.75C19.991 16.5642 18.8472 18.1466 17.3073 19.2692C15.7675 20.3918 13.911 20.9967 12.0054 20.9967C10.0998 20.9967 8.24339 20.3918 6.70354 19.2692C5.16369 18.1466 4.0199 16.5642 3.43693 14.75C3.03396 14.5597 2.68918 14.2652 2.43828 13.8969C2.18738 13.5286 2.03948 13.0999 2.00991 12.6553C1.98033 12.2106 2.07015 11.7661 2.27006 11.3679C2.46997 10.9696 2.77271 10.632 3.14693 10.39C3.35757 9.22247 3.79697 8.1081 4.43985 7.11099C5.08273 6.11389 5.91641 5.25374 6.89293 4.58M9.49994 16C9.82582 16.3326 10.2148 16.5968 10.6441 16.7772C11.0733 16.9576 11.5343 17.0505 11.9999 17.0505C12.4656 17.0505 12.9265 16.9576 13.3558 16.7772C13.7851 16.5968 14.1741 16.3326 14.4999 16M8.49994 2C9.99994 3 10.9999 5.5 10.9999 7M12.4999 2C13.9999 4 14.4999 5.5 14.4999 7M8.99994 12H9.00994M14.9999 12H15.0099" stroke="currentColor" stroke-width="1.5" stroke-linecap="round" stroke-linejoin="round"/>
</svg>
