<svg width="24" height="24" viewBox="0 0 24 24" fill="none" xmlns="http://www.w3.org/2000/svg">
<path d="M17 3.33989C18.5083 4.21075 19.7629 5.46042 20.6398 6.96519C21.5167 8.46997 21.9854 10.1777 21.9994 11.9192C22.0135 13.6608 21.5725 15.3758 20.72 16.8946C19.8676 18.4133 18.6332 19.6831 17.1392 20.5782C15.6452 21.4733 13.9434 21.9627 12.2021 21.998C10.4608 22.0332 8.74055 21.6131 7.21155 20.7791C5.68256 19.9452 4.39787 18.7264 3.48467 17.2434C2.57146 15.7604 2.06141 14.0646 2.005 12.3239L2 11.9999L2.005 11.6759C2.061 9.94888 2.56355 8.26585 3.46364 6.79089C4.36373 5.31592 5.63065 4.09934 7.14089 3.25977C8.65113 2.42021 10.3531 1.98629 12.081 2.00033C13.8089 2.01437 15.5036 2.47589 17 3.33989ZM15 12.9999H9C8.73478 12.9999 8.48043 13.1052 8.29289 13.2928C8.10536 13.4803 8 13.7347 8 13.9999V14.0499C8.00002 15.0698 8.3921 16.0508 9.09512 16.7897C9.79815 17.5287 10.7583 17.9691 11.777 18.0199L12.004 18.0249C13.0259 18.0175 14.0067 17.6218 14.7476 16.918C15.4886 16.2142 15.9341 15.255 15.994 14.2349L16 14.0289C16.0039 13.8952 15.9809 13.762 15.9324 13.6373C15.8839 13.5126 15.8108 13.3989 15.7176 13.303C15.6243 13.207 15.5128 13.1307 15.3895 13.0787C15.2662 13.0266 15.1338 12.9998 15 12.9999ZM9.01 7.99989L8.883 8.00689C8.6299 8.037 8.39785 8.16261 8.23426 8.35806C8.07067 8.55351 7.98789 8.80406 8.00283 9.0585C8.01776 9.31294 8.1293 9.55208 8.31463 9.72704C8.49997 9.90201 8.74512 9.99961 9 9.99989L9.127 9.99289C9.3801 9.96279 9.61214 9.83718 9.77573 9.64173C9.93933 9.44627 10.0221 9.19573 10.0072 8.94129C9.99223 8.68685 9.8807 8.44771 9.69537 8.27274C9.51003 8.09777 9.26488 8.00018 9.01 7.99989ZM15.01 7.99989L14.883 8.00689C14.6299 8.037 14.3979 8.16261 14.2343 8.35806C14.0707 8.55351 13.9879 8.80406 14.0028 9.0585C14.0178 9.31294 14.1293 9.55208 14.3146 9.72704C14.5 9.90201 14.7451 9.99961 15 9.99989L15.127 9.99289C15.3801 9.96279 15.6121 9.83718 15.7757 9.64173C15.9393 9.44627 16.0221 9.19573 16.0072 8.94129C15.9922 8.68685 15.8807 8.44771 15.6954 8.27274C15.51 8.09777 15.2649 8.00018 15.01 7.99989Z" fill="currentColor"/>
</svg>
