<svg width="24" height="24" viewBox="0 0 24 24" fill="none" xmlns="http://www.w3.org/2000/svg">
<path d="M17 3.33989C18.5083 4.21075 19.7629 5.46042 20.6398 6.96519C21.5167 8.46997 21.9854 10.1777 21.9994 11.9192C22.0135 13.6608 21.5725 15.3758 20.72 16.8946C19.8676 18.4133 18.6332 19.6831 17.1392 20.5782C15.6452 21.4733 13.9434 21.9627 12.2021 21.998C10.4608 22.0332 8.74055 21.6131 7.21155 20.7791C5.68256 19.9452 4.39787 18.7264 3.48467 17.2434C2.57146 15.7604 2.06141 14.0646 2.005 12.3239L2 11.9999L2.005 11.6759C2.061 9.94888 2.56355 8.26585 3.46364 6.79089C4.36373 5.31592 5.63065 4.09934 7.14089 3.25977C8.65113 2.42021 10.3531 1.98629 12.081 2.00033C13.8089 2.01437 15.5036 2.47589 17 3.33989ZM15 13.9999H9L8.883 14.0069C8.63995 14.0358 8.41594 14.1528 8.25341 14.3359C8.09088 14.5189 8.00111 14.7551 8.00111 14.9999C8.00111 15.2447 8.09088 15.4809 8.25341 15.6639C8.41594 15.8469 8.63995 15.964 8.883 15.9929L9 15.9999H15L15.117 15.9929C15.36 15.964 15.5841 15.8469 15.7466 15.6639C15.9091 15.4809 15.9989 15.2447 15.9989 14.9999C15.9989 14.7551 15.9091 14.5189 15.7466 14.3359C15.5841 14.1528 15.36 14.0358 15.117 14.0069L15 13.9999ZM9.01 8.99989L8.883 9.00689C8.63995 9.0358 8.41594 9.15285 8.25341 9.33586C8.09088 9.51887 8.00111 9.75513 8.00111 9.99989C8.00111 10.2447 8.09088 10.4809 8.25341 10.6639C8.41594 10.8469 8.63995 10.964 8.883 10.9929L9 10.9999L9.127 10.9929C9.37005 10.964 9.59406 10.8469 9.75659 10.6639C9.91912 10.4809 10.0089 10.2447 10.0089 9.99989C10.0089 9.75513 9.91912 9.51887 9.75659 9.33586C9.59406 9.15285 9.37005 9.0358 9.127 9.00689L9.01 8.99989ZM15.01 8.99989L14.883 9.00689C14.64 9.0358 14.4159 9.15285 14.2534 9.33586C14.0909 9.51887 14.0011 9.75513 14.0011 9.99989C14.0011 10.2447 14.0909 10.4809 14.2534 10.6639C14.4159 10.8469 14.64 10.964 14.883 10.9929L15 10.9999L15.127 10.9929C15.37 10.964 15.5941 10.8469 15.7566 10.6639C15.9191 10.4809 16.0089 10.2447 16.0089 9.99989C16.0089 9.75513 15.9191 9.51887 15.7566 9.33586C15.5941 9.15285 15.37 9.0358 15.127 9.00689L15.01 8.99989Z" fill="currentColor"/>
</svg>
