<svg width="24" height="24" viewBox="0 0 24 24" fill="none" xmlns="http://www.w3.org/2000/svg">
<path d="M21 12.0001C20.9999 10.1925 20.4555 8.42675 19.4377 6.9329C18.4199 5.43904 16.9758 4.28629 15.2936 3.62478C13.6113 2.96327 11.7688 2.82367 10.0061 3.22414C8.24338 3.62461 6.6421 4.54661 5.4108 5.87004C4.17951 7.19348 3.37526 8.85703 3.10282 10.644C2.83037 12.431 3.10235 14.2586 3.88333 15.8889C4.6643 17.5191 5.91809 18.8764 7.48139 19.7839C9.04469 20.6915 10.8451 21.1073 12.648 20.9771M9 10.0001H9.01M15 10.0001H15.01M9.5 15.0001C10.158 15.6721 11.06 16.0001 12 16.0001C12.102 16.0001 12.203 15.9961 12.304 15.9881M19 18.0001V18.0101M21.121 20.1212C21.5407 19.7016 21.8265 19.1671 21.9423 18.5851C22.0581 18.0031 21.9988 17.3999 21.7717 16.8517C21.5447 16.3034 21.1602 15.8349 20.6668 15.5052C20.1734 15.1755 19.5934 14.9995 19 14.9995C18.4066 14.9995 17.8266 15.1755 17.3332 15.5052C16.8398 15.8349 16.4553 16.3034 16.2283 16.8517C16.0012 17.3999 15.9419 18.0031 16.0577 18.5851C16.1735 19.1671 16.4594 19.7016 16.879 20.1212C17.297 20.5402 18.004 21.1662 19 22.0002C20.051 21.1102 20.759 20.4842 21.121 20.1212Z" stroke="currentColor" stroke-width="1.5" stroke-linecap="round" stroke-linejoin="round"/>
</svg>
