<svg width="24" height="24" viewBox="0 0 24 24" fill="none" xmlns="http://www.w3.org/2000/svg">
<path d="M17 3.34C18.5083 4.21086 19.7629 5.46053 20.6398 6.9653C21.5167 8.47007 21.9854 10.1778 21.9994 11.9193C22.0135 13.6609 21.5725 15.376 20.72 16.8947C19.8676 18.4134 18.6332 19.6832 17.1392 20.5783C15.6452 21.4734 13.9434 21.9628 12.2021 21.9981C10.4608 22.0333 8.74055 21.6132 7.21155 20.7792C5.68256 19.9453 4.39787 18.7265 3.48467 17.2435C2.57146 15.7605 2.06141 14.0647 2.005 12.324L2 12L2.005 11.676C2.07232 9.5952 2.78739 7.58729 4.05048 5.93233C5.31356 4.27738 7.06168 3.0579 9.051 2.444C8.96924 2.87752 8.98409 3.32373 9.09451 3.75085C9.20492 4.17796 9.40818 4.57548 9.68979 4.91505C9.97141 5.25463 10.3244 5.52793 10.7238 5.71546C11.1231 5.90299 11.5588 6.00014 12 6C12.2652 6 12.5196 5.89464 12.7071 5.70711C12.8946 5.51957 13 5.26522 13 5C13 4.73478 12.8946 4.48043 12.7071 4.29289C12.5196 4.10536 12.2652 4 12 4L11.883 3.993C11.6299 3.9629 11.3979 3.83729 11.2343 3.64183C11.0707 3.44638 10.9879 3.19584 11.0028 2.94139C11.0178 2.68695 11.1293 2.44782 11.3146 2.27285C11.5 2.09788 11.7451 2.00028 12 2C13.726 2 15.453 2.447 17 3.34ZM15.2 14.286C15.0106 14.1004 14.7553 13.9976 14.4901 14.0002C14.2249 14.0028 13.9717 14.1107 13.786 14.3C13.5532 14.5377 13.2753 14.7265 12.9687 14.8554C12.662 14.9843 12.3327 15.0507 12 15.0507C11.6673 15.0507 11.338 14.9843 11.0313 14.8554C10.7247 14.7265 10.4468 14.5377 10.214 14.3C10.0274 14.115 9.7755 14.0109 9.51276 14.0102C9.25002 14.0095 8.99755 14.1122 8.80993 14.2961C8.62231 14.4801 8.51462 14.7305 8.51014 14.9932C8.50567 15.2559 8.60476 15.5098 8.786 15.7C9.20498 16.1275 9.70505 16.4672 10.2569 16.6991C10.8088 16.9309 11.4014 17.0504 12 17.0504C12.5986 17.0504 13.1912 16.9309 13.7431 16.6991C14.295 16.4672 14.795 16.1275 15.214 15.7C15.3996 15.5106 15.5024 15.2553 15.4998 14.9901C15.4972 14.7249 15.3893 14.4717 15.2 14.286ZM9.01 9L8.883 9.007C8.6299 9.0371 8.39785 9.16271 8.23426 9.35817C8.07067 9.55362 7.98789 9.80416 8.00283 10.0586C8.01776 10.313 8.1293 10.5522 8.31463 10.7272C8.49997 10.9021 8.74512 10.9997 9 11L9.127 10.993C9.3801 10.9629 9.61214 10.8373 9.77573 10.6418C9.93933 10.4464 10.0221 10.1958 10.0072 9.94139C9.99223 9.68695 9.8807 9.44782 9.69537 9.27285C9.51003 9.09788 9.26488 9.00028 9.01 9ZM15.01 9L14.883 9.007C14.6299 9.0371 14.3979 9.16271 14.2343 9.35817C14.0707 9.55362 13.9879 9.80416 14.0028 10.0586C14.0178 10.313 14.1293 10.5522 14.3146 10.7272C14.5 10.9021 14.7451 10.9997 15 11L15.127 10.993C15.3801 10.9629 15.6121 10.8373 15.7757 10.6418C15.9393 10.4464 16.0221 10.1958 16.0072 9.94139C15.9922 9.68695 15.8807 9.44782 15.6954 9.27285C15.51 9.09788 15.2649 9.00028 15.01 9Z" fill="currentColor"/>
</svg>
