<svg width="24" height="24" viewBox="0 0 24 24" fill="none" xmlns="http://www.w3.org/2000/svg">
<path d="M20.984 12.5359C21.0927 10.7141 20.6449 8.90222 19.7001 7.34074C18.7552 5.77925 17.358 4.54193 15.6937 3.79289C14.0294 3.04386 12.1767 2.81852 10.3814 3.14676C8.58603 3.475 6.93292 4.34131 5.64132 5.63078C4.34971 6.92024 3.48066 8.57192 3.14945 10.3667C2.81824 12.1615 3.04051 14.0146 3.78679 15.6801C4.53307 17.3456 5.76808 18.7449 7.32799 19.6924C8.88791 20.6398 10.699 21.0906 12.521 20.9849M19.0001 21.9999V15.9999M19.0001 15.9999L22.0001 18.9999M19.0001 15.9999L16.0001 18.9999M9.00006 9.99988H9.01006M15.0001 9.99988H15.0101M9.50006 14.9999C10.1581 15.6399 11.0601 15.9999 12.0001 15.9999C12.9401 15.9999 13.8421 15.6399 14.5001 14.9999" stroke="currentColor" stroke-width="1.5" stroke-linecap="round" stroke-linejoin="round"/>
</svg>
