<svg width="24" height="24" viewBox="0 0 24 24" fill="none" xmlns="http://www.w3.org/2000/svg">
<path d="M17 3.33989C18.5083 4.21075 19.7629 5.46042 20.6398 6.96519C21.5167 8.46997 21.9854 10.1777 21.9994 11.9192C22.0135 13.6608 21.5725 15.3758 20.72 16.8946C19.8676 18.4133 18.6332 19.6831 17.1392 20.5782C15.6452 21.4733 13.9434 21.9627 12.2021 21.998C10.4608 22.0332 8.74055 21.6131 7.21155 20.7791C5.68256 19.9452 4.39787 18.7264 3.48467 17.2434C2.57146 15.7604 2.06141 14.0646 2.005 12.3239L2 11.9999L2.005 11.6759C2.061 9.94888 2.56355 8.26585 3.46364 6.79089C4.36373 5.31592 5.63065 4.09934 7.14089 3.25977C8.65113 2.42021 10.3531 1.98629 12.081 2.00033C13.8089 2.01437 15.5036 2.47589 17 3.33989ZM12 13.1999C11.4014 13.1998 10.8088 13.3192 10.257 13.551C9.70509 13.7828 9.20501 14.1224 8.786 14.5499C8.69188 14.6432 8.61725 14.7543 8.56643 14.8767C8.51562 14.9991 8.48964 15.1303 8.49 15.2628C8.49037 15.3954 8.51707 15.5265 8.56856 15.6486C8.62005 15.7707 8.6953 15.8814 8.78993 15.9742C8.88456 16.0669 8.99669 16.14 9.1198 16.189C9.24291 16.2381 9.37454 16.2622 9.50704 16.2599C9.63955 16.2577 9.77028 16.2291 9.89165 16.1759C10.013 16.1227 10.1226 16.0458 10.214 15.9499C10.4468 15.7122 10.7247 15.5234 11.0313 15.3945C11.338 15.2656 11.6673 15.1992 12 15.1992C12.3327 15.1992 12.662 15.2656 12.9687 15.3945C13.2753 15.5234 13.5532 15.7122 13.786 15.9499C13.9726 16.1349 14.2245 16.239 14.4872 16.2397C14.75 16.2404 15.0025 16.1377 15.1901 15.9538C15.3777 15.7698 15.4854 15.5194 15.4899 15.2567C15.4943 14.994 15.3952 14.7401 15.214 14.5499C14.795 14.1224 14.2949 13.7828 13.743 13.551C13.1912 13.3192 12.5986 13.1998 12 13.1999ZM9.01 8.99989L8.883 9.00689C8.63995 9.0358 8.41594 9.15285 8.25341 9.33586C8.09088 9.51887 8.00111 9.75513 8.00111 9.99989C8.00111 10.2447 8.09088 10.4809 8.25341 10.6639C8.41594 10.8469 8.63995 10.964 8.883 10.9929L9 10.9999L9.127 10.9929C9.37005 10.964 9.59406 10.8469 9.75659 10.6639C9.91912 10.4809 10.0089 10.2447 10.0089 9.99989C10.0089 9.75513 9.91912 9.51887 9.75659 9.33586C9.59406 9.15285 9.37005 9.0358 9.127 9.00689L9.01 8.99989ZM15.01 8.99989L14.883 9.00689C14.64 9.0358 14.4159 9.15285 14.2534 9.33586C14.0909 9.51887 14.0011 9.75513 14.0011 9.99989C14.0011 10.2447 14.0909 10.4809 14.2534 10.6639C14.4159 10.8469 14.64 10.964 14.883 10.9929L15 10.9999L15.127 10.9929C15.37 10.964 15.5941 10.8469 15.7566 10.6639C15.9191 10.4809 16.0089 10.2447 16.0089 9.99989C16.0089 9.75513 15.9191 9.51887 15.7566 9.33586C15.5941 9.15285 15.37 9.0358 15.127 9.00689L15.01 8.99989Z" fill="currentColor"/>
</svg>
