<svg width="24" height="24" viewBox="0 0 24 24" fill="none" xmlns="http://www.w3.org/2000/svg">
<path d="M21 12.0001C20.9999 10.1779 20.4467 8.39865 19.4136 6.89766C18.3804 5.39666 16.916 4.24463 15.2139 3.59391C13.5119 2.9432 11.6524 2.82446 9.88144 3.2534C8.11045 3.68233 6.51138 4.63874 5.2957 5.99614C4.08002 7.35353 3.30501 9.04797 3.07316 10.8554C2.84131 12.6627 3.16354 14.4979 3.99724 16.1182C4.83094 17.7385 6.13683 19.0676 7.74221 19.9296C9.34759 20.7917 11.1768 21.1461 12.988 20.9461M9 10.0001H9.01M15 10.0001H15.01M9.5 15.0001C9.86608 15.3519 10.3026 15.6221 10.7808 15.7927C11.259 15.9634 11.7679 16.0306 12.274 15.9901M18.994 21.5001L21.512 18.9201C21.8245 18.5965 21.9995 18.1643 22.0002 17.7144C22.001 17.2645 21.8274 16.8318 21.516 16.5071C21.3645 16.3489 21.1826 16.2228 20.9812 16.1366C20.7799 16.0503 20.5631 16.0056 20.3441 16.0051C20.125 16.0046 19.9081 16.0484 19.7063 16.1338C19.5046 16.2192 19.3221 16.3445 19.17 16.5021L19.002 16.6741L18.834 16.5021C18.6824 16.3439 18.5005 16.218 18.2991 16.1318C18.0977 16.0456 17.8809 16.001 17.6618 16.0006C17.4428 16.0002 17.2259 16.0441 17.0242 16.1296C16.8224 16.2151 16.6401 16.3404 16.488 16.4981C16.1758 16.8218 16.001 17.2537 16.0002 17.7033C15.9995 18.153 16.1729 18.5855 16.484 18.9101L18.994 21.5001Z" stroke="currentColor" stroke-width="1.5" stroke-linecap="round" stroke-linejoin="round"/>
</svg>
