<svg width="24" height="24" viewBox="0 0 24 24" fill="none" xmlns="http://www.w3.org/2000/svg">
<path d="M17 3.33989C18.5083 4.21075 19.7629 5.46042 20.6398 6.96519C21.5167 8.46997 21.9854 10.1777 21.9994 11.9192C22.0135 13.6608 21.5725 15.3758 20.72 16.8946C19.8676 18.4133 18.6332 19.6831 17.1392 20.5782C15.6452 21.4733 13.9434 21.9627 12.2021 21.998C10.4608 22.0332 8.74055 21.6131 7.21155 20.7791C5.68256 19.9452 4.39787 18.7264 3.48467 17.2434C2.57146 15.7604 2.06141 14.0646 2.005 12.3239L2 11.9999L2.005 11.6759C2.061 9.94888 2.56355 8.26585 3.46364 6.79089C4.36373 5.31592 5.63065 4.09934 7.14089 3.25977C8.65113 2.42021 10.3531 1.98629 12.081 2.00033C13.8089 2.01437 15.5036 2.47589 17 3.33989ZM15.2 14.2859C15.0106 14.1003 14.7553 13.9975 14.4901 14.0001C14.2249 14.0027 13.9717 14.1106 13.786 14.2999C13.5532 14.5375 13.2753 14.7264 12.9687 14.8553C12.662 14.9842 12.3327 15.0505 12 15.0505C11.6673 15.0505 11.338 14.9842 11.0313 14.8553C10.7247 14.7264 10.4468 14.5375 10.214 14.2999C10.0274 14.1149 9.7755 14.0108 9.51276 14.0101C9.25002 14.0094 8.99755 14.1121 8.80993 14.296C8.62231 14.48 8.51462 14.7303 8.51014 14.993C8.50567 15.2558 8.60476 15.5097 8.786 15.6999C9.20498 16.1274 9.70505 16.4671 10.2569 16.699C10.8088 16.9308 11.4014 17.0503 12 17.0503C12.5986 17.0503 13.1912 16.9308 13.7431 16.699C14.295 16.4671 14.795 16.1274 15.214 15.6999C15.3996 15.5105 15.5024 15.2552 15.4998 14.99C15.4972 14.7248 15.3893 14.4716 15.2 14.2859ZM9.01 8.99989L8.883 9.00689C8.6299 9.037 8.39785 9.16261 8.23426 9.35806C8.07067 9.55351 7.98789 9.80406 8.00283 10.0585C8.01776 10.3129 8.1293 10.5521 8.31463 10.727C8.49997 10.902 8.74512 10.9996 9 10.9999L9.127 10.9929C9.3801 10.9628 9.61214 10.8372 9.77573 10.6417C9.93933 10.4463 10.0221 10.1957 10.0072 9.94129C9.99223 9.68685 9.8807 9.44771 9.69537 9.27274C9.51003 9.09777 9.26488 9.00018 9.01 8.99989ZM15.01 8.99989L14.883 9.00689C14.6299 9.037 14.3979 9.16261 14.2343 9.35806C14.0707 9.55351 13.9879 9.80406 14.0028 10.0585C14.0178 10.3129 14.1293 10.5521 14.3146 10.727C14.5 10.902 14.7451 10.9996 15 10.9999L15.127 10.9929C15.3801 10.9628 15.6121 10.8372 15.7757 10.6417C15.9393 10.4463 16.0221 10.1957 16.0072 9.94129C15.9922 9.68685 15.8807 9.44771 15.6954 9.27274C15.51 9.09777 15.2649 9.00018 15.01 8.99989Z" fill="currentColor"/>
</svg>
