<svg width="24" height="24" viewBox="0 0 24 24" fill="none" xmlns="http://www.w3.org/2000/svg">
<path d="M20.8702 10.4799C20.5734 8.74768 19.7759 7.1403 18.5762 5.85607C17.3764 4.57185 15.8269 3.66697 14.1189 3.25311C12.4109 2.83925 10.6191 2.93451 8.96461 3.52714C7.31011 4.11977 5.86531 5.18383 4.80851 6.58803C3.75171 7.99222 3.12915 9.6751 3.01765 11.429C2.90615 13.1829 3.31059 14.9311 4.18106 16.4578C5.05153 17.9845 6.34995 19.2229 7.91608 20.0203C9.48222 20.8177 11.2475 21.1391 12.9942 20.9449M9.00018 9.99988H9.01018M15.0002 9.99988H15.0102M9.50018 14.9999C10.1582 15.6399 11.0602 15.9999 12.0002 15.9999C12.3572 15.9999 12.7092 15.9479 13.0432 15.8489M21.0002 14.9999H18.5002C18.1024 14.9999 17.7208 15.1579 17.4395 15.4392C17.1582 15.7205 17.0002 16.1021 17.0002 16.4999C17.0002 16.8977 17.1582 17.2792 17.4395 17.5605C17.7208 17.8418 18.1024 17.9999 18.5002 17.9999H19.5002C19.898 17.9999 20.2795 18.1579 20.5608 18.4392C20.8421 18.7205 21.0002 19.1021 21.0002 19.4999C21.0002 19.8977 20.8421 20.2792 20.5608 20.5605C20.2795 20.8418 19.898 20.9999 19.5002 20.9999H17.0002M19.0002 20.9999V21.9999M19.0002 13.9999V14.9999" stroke="currentColor" stroke-width="1.5" stroke-linecap="round" stroke-linejoin="round"/>
</svg>
