<svg width="24" height="24" viewBox="0 0 24 24" fill="none" xmlns="http://www.w3.org/2000/svg">
<path d="M21 12C21 10.2192 20.4717 8.4785 19.482 6.99809C18.4924 5.51768 17.0857 4.36414 15.4402 3.68346C13.7947 3.00277 11.9842 2.82554 10.2379 3.17418C8.49164 3.52283 6.88802 4.38169 5.63003 5.64206C4.37204 6.90244 3.51621 8.50767 3.17087 10.2546C2.82552 12.0016 3.00618 13.8117 3.68998 15.4559C4.37377 17.1002 5.52997 18.5046 7.01225 19.4915C8.49453 20.4784 10.2363 21.0034 12.017 21M18.001 20C17.4706 20 16.9619 19.7893 16.5868 19.4142C16.2117 19.0391 16.001 18.5304 16.001 18C16.001 17.4696 16.2117 16.9609 16.5868 16.5858C16.9619 16.2107 17.4706 16 18.001 16M18.001 20C18.5314 20 19.0401 19.7893 19.4152 19.4142C19.7903 19.0391 20.001 18.5304 20.001 18C20.001 17.4696 19.7903 16.9609 19.4152 16.5858C19.0401 16.2107 18.5314 16 18.001 16M18.001 20V21.5M18.001 16V14.5M21.032 16.25L19.733 17M16.27 19L14.97 19.75M14.97 16.25L16.27 17M19.733 19L21.033 19.75M9 10H9.01M15 10H15.01M9.5 15C10.158 15.64 11.06 16 12 16" stroke="currentColor" stroke-width="1.5" stroke-linecap="round" stroke-linejoin="round"/>
</svg>
