<svg width="24" height="24" viewBox="0 0 24 24" fill="none" xmlns="http://www.w3.org/2000/svg">
<path d="M20.9422 13.018C21.1485 11.2062 20.7995 9.37448 19.9416 7.76543C19.0836 6.15637 17.7571 4.8459 16.1377 4.00755C14.5183 3.1692 12.6825 2.84253 10.8733 3.07081C9.06418 3.29908 7.36703 4.07153 6.00667 5.28585C4.6463 6.50017 3.68688 8.09908 3.25549 9.87082C2.82409 11.6426 2.94106 13.5036 3.5909 15.2073C4.24075 16.9111 5.39281 18.3773 6.89452 19.4118C8.39623 20.4462 10.1767 21.0001 12.0002 21M9.00024 10H9.01024M15.0002 10H15.0102M9.50024 15C10.1582 15.672 11.0602 16 12.0002 16C12.2132 16 12.4242 15.983 12.6302 15.95M16.0002 22L21.0002 17M21.0002 17V21.5M21.0002 17H16.5002" stroke="currentColor" stroke-width="1.5" stroke-linecap="round" stroke-linejoin="round"/>
</svg>
