<svg width="24" height="24" viewBox="0 0 24 24" fill="none" xmlns="http://www.w3.org/2000/svg">
<path d="M20.4801 15.014C21.1277 13.1921 21.1715 11.2101 20.6048 9.36148C20.0381 7.51283 18.8911 5.89584 17.3336 4.74996C15.7762 3.60408 13.8911 2.99025 11.9576 2.99937C10.024 3.00848 8.14483 3.64006 6.59826 4.80057C5.05169 5.96108 3.91999 7.58882 3.37074 9.44273C2.82149 11.2966 2.88391 13.2781 3.54874 15.0938C4.21358 16.9095 5.44548 18.4628 7.06202 19.5236C8.67856 20.5845 10.5938 21.0966 12.5241 20.984M9.00006 10H9.01006M15.0001 10H15.0101M16.0001 19H22.0001M9.50006 15C10.1581 15.64 11.0601 16 12.0001 16C12.9401 16 13.8421 15.64 14.5001 15" stroke="currentColor" stroke-width="1.5" stroke-linecap="round" stroke-linejoin="round"/>
</svg>
