<svg width="24" height="24" viewBox="0 0 24 24" fill="none" xmlns="http://www.w3.org/2000/svg">
<path d="M18.9998 11.0002H20.9998M19.9998 10.0002V12.0002M11.9998 3.00019C12.1318 3.00019 12.2628 3.00019 12.3928 3.00019C11.1081 4.19389 10.2824 5.80003 10.0591 7.53941C9.83577 9.27879 10.229 11.0414 11.1705 12.5209C12.112 14.0004 13.5422 15.1032 15.2124 15.6377C16.8826 16.1721 18.6873 16.1043 20.3128 15.4462C19.6875 16.9507 18.6656 18.2572 17.356 19.2264C16.0464 20.1957 14.4982 20.7912 12.8767 20.9496C11.2552 21.1079 9.62104 20.8231 8.14867 20.1256C6.6763 19.428 5.42089 18.3439 4.51637 16.9888C3.61185 15.6337 3.09213 14.0585 3.01267 12.4312C2.9332 10.8038 3.29696 9.18548 4.06515 7.7487C4.83334 6.31192 5.97714 5.11061 7.37454 4.27292C8.77195 3.43523 10.3705 2.99258 11.9998 2.99219V3.00019ZM16.9998 4.00024C16.9998 4.53068 17.2105 5.03939 17.5855 5.41446C17.9606 5.78953 18.4693 6.00024 18.9998 6.00024C18.4693 6.00024 17.9606 6.21096 17.5855 6.58603C17.2105 6.9611 16.9998 7.46981 16.9998 8.00024C16.9998 7.46981 16.789 6.9611 16.414 6.58603C16.0389 6.21096 15.5302 6.00024 14.9998 6.00024C15.5302 6.00024 16.0389 5.78953 16.414 5.41446C16.789 5.03939 16.9998 4.53068 16.9998 4.00024Z" stroke="currentColor" stroke-width="1.5" stroke-linecap="round" stroke-linejoin="round"/>
</svg>
