<svg width="24" height="24" viewBox="0 0 24 24" fill="none" xmlns="http://www.w3.org/2000/svg">
<path d="M7.96192 3.94919C9.21461 3.31894 10.5976 2.99117 11.9999 2.99219V3.00019H12.3929C11.4223 3.90022 10.708 5.04175 10.3229 6.30819M10.1819 10.1482C10.3679 10.9712 10.6959 11.7742 11.1709 12.5212C12.2163 14.1656 13.8614 15.3379 15.7569 15.7892M19.6499 15.6792C19.8729 15.6122 20.0939 15.5352 20.3129 15.4462C20.2288 15.6484 20.1374 15.8476 20.0389 16.0432M18.3439 18.3802C16.6533 20.0656 14.3624 21.0105 11.9751 21.0068C9.58789 21.0031 7.29987 20.0513 5.61442 18.3607C3.92897 16.6701 2.98415 14.3791 2.9878 11.9919C2.99146 9.60466 3.9433 7.31664 5.63392 5.63119M2.99988 3.00024L20.9999 21.0002" stroke="currentColor" stroke-width="1.5" stroke-linecap="round" stroke-linejoin="round"/>
</svg>
