<svg width="24" height="24" viewBox="0 0 24 24" fill="none" xmlns="http://www.w3.org/2000/svg">
<path d="M6 10H16.5L12.5 14H7.5L11.5 10M13 6H15L18.5 13M2 16C2 16.7956 2.31607 17.5587 2.87868 18.1213C3.44129 18.6839 4.20435 19 5 19C5.79565 19 6.55871 18.6839 7.12132 18.1213C7.68393 17.5587 8 16.7956 8 16C8 15.2044 7.68393 14.4413 7.12132 13.8787C6.55871 13.3161 5.79565 13 5 13C4.20435 13 3.44129 13.3161 2.87868 13.8787C2.31607 14.4413 2 15.2044 2 16ZM16 16C16 16.7956 16.3161 17.5587 16.8787 18.1213C17.4413 18.6839 18.2044 19 19 19C19.7956 19 20.5587 18.6839 21.1213 18.1213C21.6839 17.5587 22 16.7956 22 16C22 15.2044 21.6839 14.4413 21.1213 13.8787C20.5587 13.3161 19.7956 13 19 13C18.2044 13 17.4413 13.3161 16.8787 13.8787C16.3161 14.4413 16 15.2044 16 16Z" stroke="currentColor" stroke-width="1.5" stroke-linecap="round" stroke-linejoin="round"/>
</svg>
