<svg width="24" height="24" viewBox="0 0 24 24" fill="none" xmlns="http://www.w3.org/2000/svg">
<path d="M15 9C15.5267 8.99984 16.0443 9.13838 16.5005 9.40169C16.9567 9.66501 17.3356 10.0438 17.599 10.5C18.532 11.833 19.732 12.056 20.725 12.056H21.016L21.786 12.012H21.999C21.036 13.938 18.836 14.937 15.399 15.012H14.834C14.0383 14.9901 13.284 14.6531 12.7368 14.075C12.1897 13.4969 11.8946 12.7251 11.9165 11.9295C11.9384 11.1339 12.2754 10.3795 12.8535 9.83234C13.4316 9.28521 14.2033 8.99012 14.999 9.012L15 9Z" stroke="currentColor" stroke-width="1.5" stroke-linecap="round" stroke-linejoin="round"/>
<path d="M8.99998 9C8.47321 8.99984 7.95569 9.13838 7.49945 9.40169C7.04322 9.66501 6.66436 10.0438 6.40098 10.5C5.46798 11.833 4.26798 12.056 3.27498 12.056H2.98398L2.21398 12.012H2.00098C2.96398 13.938 5.16398 14.937 8.60098 15.012H9.16598C9.96163 14.9901 10.716 14.6531 11.2631 14.075C11.8103 13.4969 12.1054 12.7251 12.0835 11.9295C12.0616 11.1339 11.7245 10.3795 11.1465 9.83234C10.5684 9.28521 9.79663 8.99012 9.00098 9.012L8.99998 9Z" stroke="currentColor" stroke-width="1.5" stroke-linecap="round" stroke-linejoin="round"/>
</svg>
