<svg width="24" height="24" viewBox="0 0 24 24" fill="none" xmlns="http://www.w3.org/2000/svg">
<path d="M9 17C9 17.7956 8.68393 18.5587 8.12132 19.1213C7.55871 19.6839 6.79565 20 6 20C5.20435 20 4.44129 19.6839 3.87868 19.1213C3.31607 18.5587 3 17.7956 3 17C3 16.2044 3.31607 15.4413 3.87868 14.8787C4.44129 14.3161 5.20435 14 6 14C6.79565 14 7.55871 14.3161 8.12132 14.8787C8.68393 15.4413 9 16.2044 9 17ZM9 17V4H19V10M9 8H19M21 15H18.5C18.1022 15 17.7206 15.158 17.4393 15.4393C17.158 15.7206 17 16.1022 17 16.5C17 16.8978 17.158 17.2794 17.4393 17.5607C17.7206 17.842 18.1022 18 18.5 18H19.5C19.8978 18 20.2794 18.158 20.5607 18.4393C20.842 18.7206 21 19.1022 21 19.5C21 19.8978 20.842 20.2794 20.5607 20.5607C20.2794 20.842 19.8978 21 19.5 21H17M19 21V22M19 14V15" stroke="currentColor" stroke-width="1.5" stroke-linecap="round" stroke-linejoin="round"/>
</svg>
