<svg width="24" height="24" viewBox="0 0 24 24" fill="none" xmlns="http://www.w3.org/2000/svg">
<path d="M9 17C9 17.7956 8.68393 18.5587 8.12132 19.1213C7.55871 19.6839 6.79565 20 6 20C5.20435 20 4.44129 19.6839 3.87868 19.1213C3.31607 18.5587 3 17.7956 3 17C3 16.2044 3.31607 15.4413 3.87868 14.8787C4.44129 14.3161 5.20435 14 6 14C6.79565 14 7.55871 14.3161 8.12132 14.8787C8.68393 15.4413 9 16.2044 9 17ZM9 17V4H19V11M9 8H19M18.0001 22.0001L21.3501 18.7161C21.5556 18.5168 21.719 18.2783 21.8307 18.0147C21.9425 17.7512 22.0003 17.4679 22.0007 17.1817C22.0012 16.8954 21.9443 16.612 21.8334 16.3481C21.7225 16.0841 21.5599 15.8451 21.3551 15.6451C20.9373 15.2364 20.3763 15.0071 19.7918 15.006C19.2074 15.0049 18.6455 15.2321 18.2261 15.6391L18.0021 15.8591L17.7791 15.6391C17.3613 15.2307 16.8006 15.0016 16.2163 15.0005C15.6321 14.9994 15.0705 15.2264 14.6511 15.6331C14.4456 15.8324 14.2821 16.0708 14.1703 16.3343C14.0585 16.5978 14.0006 16.8811 14 17.1673C13.9994 17.4536 14.0562 17.7371 14.167 18.001C14.2778 18.265 14.4404 18.504 14.6451 18.7041L18.0001 22.0001Z" stroke="currentColor" stroke-width="1.5" stroke-linecap="round" stroke-linejoin="round"/>
</svg>
