<svg width="24" height="24" viewBox="0 0 24 24" fill="none" xmlns="http://www.w3.org/2000/svg">
<path d="M9 17C9 17.7956 8.68393 18.5587 8.12132 19.1213C7.55871 19.6839 6.79565 20 6 20C5.20435 20 4.44129 19.6839 3.87868 19.1213C3.31607 18.5587 3 17.7956 3 17C3 16.2044 3.31607 15.4413 3.87868 14.8787C4.44129 14.3161 5.20435 14 6 14C6.79565 14 7.55871 14.3161 8.12132 14.8787C8.68393 15.4413 9 16.2044 9 17ZM9 17V4H19V11M9 8H19M19 18V18.01M21.121 20.1212C21.5407 19.7016 21.8265 19.1671 21.9423 18.5851C22.0581 18.0031 21.9988 17.3999 21.7717 16.8517C21.5447 16.3034 21.1602 15.8349 20.6668 15.5052C20.1734 15.1755 19.5934 14.9995 19 14.9995C18.4066 14.9995 17.8266 15.1755 17.3332 15.5052C16.8398 15.8349 16.4553 16.3034 16.2283 16.8517C16.0012 17.3999 15.9419 18.0031 16.0577 18.5851C16.1735 19.1671 16.4594 19.7016 16.879 20.1212C17.297 20.5402 18.004 21.1662 19 22.0002C20.051 21.1102 20.759 20.4842 21.121 20.1212Z" stroke="currentColor" stroke-width="1.5" stroke-linecap="round" stroke-linejoin="round"/>
</svg>
