<svg width="24" height="24" viewBox="0 0 24 24" fill="none" xmlns="http://www.w3.org/2000/svg">
<path d="M11.0922 2.58109C11.1674 2.41755 11.2854 2.27735 11.4337 2.17529C11.582 2.07323 11.7551 2.01308 11.9347 2.0012C12.1143 1.98932 12.2938 2.02615 12.4542 2.1078C12.6147 2.18944 12.7501 2.31288 12.8462 2.46509L12.9082 2.58109L20.9132 19.9461C21.1112 20.5121 20.9632 21.1421 20.5352 21.5611C20.3468 21.7473 20.1133 21.8814 19.8576 21.9503C19.6018 22.0191 19.3326 22.0205 19.0762 21.9541L11.9992 19.5561L5.10019 21.8941C4.84889 21.9926 4.57605 22.0232 4.30918 21.9826C4.04232 21.942 3.79087 21.8318 3.58019 21.6631L3.46819 21.5631C3.07019 21.1771 2.91219 20.6091 3.07519 20.0071L3.12219 19.8571L11.0922 2.58109Z" fill="currentColor"/>
</svg>
