<svg width="24" height="24" viewBox="0 0 24 24" fill="none" xmlns="http://www.w3.org/2000/svg">
<path d="M12 3V5M16.5401 19.977C16.6001 20.0003 16.6655 20.0062 16.7287 19.9938C16.7919 19.9814 16.8503 19.9513 16.8971 19.907C16.9434 19.8631 16.9761 19.8066 16.991 19.7445C17.0059 19.6823 17.0024 19.6172 16.9811 19.557L12.0001 9L7.01806 19.557C6.99667 19.6172 6.99322 19.6823 7.00814 19.7445C7.02305 19.8066 7.05567 19.8631 7.10206 19.907C7.14882 19.9513 7.2072 19.9814 7.27041 19.9938C7.33361 20.0062 7.39903 20.0003 7.45906 19.977L12.0001 18.5L16.5401 19.977Z" stroke="currentColor" stroke-width="1.5" stroke-linecap="round" stroke-linejoin="round"/>
</svg>
