<svg width="24" height="24" viewBox="0 0 24 24" fill="none" xmlns="http://www.w3.org/2000/svg">
<path d="M16.371 12.476L12 3L4.02997 20.275C3.95997 20.475 4.01297 20.699 4.16497 20.847C4.31497 20.995 4.53897 21.04 4.73497 20.963L12 18.5M17 21L21 17M16 19C16 19.7956 16.3161 20.5587 16.8787 21.1213C17.4413 21.6839 18.2044 22 19 22C19.7956 22 20.5587 21.6839 21.1213 21.1213C21.6839 20.5587 22 19.7956 22 19C22 18.2044 21.6839 17.4413 21.1213 16.8787C20.5587 16.3161 19.7956 16 19 16C18.2044 16 17.4413 16.3161 16.8787 16.8787C16.3161 17.4413 16 18.2044 16 19Z" stroke="currentColor" stroke-width="1.5" stroke-linecap="round" stroke-linejoin="round"/>
</svg>
