<svg width="24" height="24" viewBox="0 0 24 24" fill="none" xmlns="http://www.w3.org/2000/svg">
<path d="M16.28 12.28C15.33 10.216 13.903 7.123 12 3C11.3 4.515 10.777 5.652 10.427 6.41M9.15697 9.16C8.27497 11.073 6.56697 14.778 4.02997 20.275C3.95997 20.475 4.01297 20.699 4.16497 20.847C4.31497 20.995 4.53897 21.04 4.73497 20.963L12 18.5L19.265 20.963C19.461 21.04 19.685 20.995 19.835 20.847C19.9093 20.7742 19.9614 20.6818 19.9851 20.5805C20.0088 20.4792 20.0032 20.3732 19.969 20.275L19.709 19.712M3 3L21 21" stroke="currentColor" stroke-width="1.5" stroke-linecap="round" stroke-linejoin="round"/>
</svg>
