<svg width="24" height="24" viewBox="0 0 24 24" fill="none" xmlns="http://www.w3.org/2000/svg">
<path fill-rule="evenodd" clip-rule="evenodd" d="M5.97198 3.25C7.7622 3.25 9.47955 3.96069 10.7454 5.22656C11.9552 6.43634 12.6581 8.05873 12.7181 9.7627L12.721 9.75879L12.722 20C12.722 20.4142 12.3862 20.75 11.972 20.75C11.5578 20.75 11.222 20.4142 11.222 20V12.75H8.97198C7.18177 12.75 5.46442 12.0393 4.19855 10.7734C2.93268 9.50757 2.22198 7.79021 2.22198 6V4C2.22198 3.58579 2.55777 3.25 2.97198 3.25H5.97198ZM3.72198 6C3.72198 7.39239 4.2755 8.72735 5.26007 9.71191C6.24464 10.6965 7.5796 11.25 8.97198 11.25H11.222V10C11.222 8.60761 10.6685 7.27265 9.6839 6.28809C8.69933 5.30352 7.36437 4.75 5.97198 4.75H3.72198V6Z" fill="black"/>
<path d="M12.8802 14.2753C13.2941 14.2901 13.6176 14.6378 13.6028 15.0517C13.588 15.4656 13.2404 15.7891 12.8265 15.7744C12.6445 15.7679 12.4828 15.7588 12.348 15.7519V14.25C12.4886 14.2578 12.6699 14.2679 12.8802 14.2753Z" fill="black"/>
<path d="M17.055 13.9433C17.4569 13.8438 17.8634 14.0884 17.9632 14.4902C18.0627 14.8922 17.8174 15.2998 17.4153 15.3994C17.1358 15.4685 16.8222 15.5248 16.5228 15.5849C16.2209 15.6454 15.8975 15.6888 15.5726 15.7197C15.1605 15.7586 14.7944 15.456 14.7552 15.0439C14.7161 14.6318 15.0189 14.266 15.431 14.2265C15.7203 14.199 15.9901 14.1619 16.2278 14.1142C16.5713 14.0453 16.8189 14.0017 17.055 13.9433Z" fill="black"/>
<path d="M19.7015 11.3388C19.8926 10.9719 20.345 10.8291 20.7122 11.0195C21.0797 11.2106 21.2227 11.6638 21.0316 12.0312C20.875 12.3321 20.6853 12.6299 20.4573 12.915C20.268 13.185 20.0907 13.4265 19.9202 13.6406C19.6622 13.9644 19.1895 14.0176 18.8655 13.7597C18.542 13.5017 18.4888 13.0299 18.7464 12.706C18.8974 12.5163 19.0612 12.2948 19.2415 12.0371C19.2513 12.0231 19.2621 12.0093 19.2728 11.996C19.4407 11.7885 19.5828 11.5668 19.7015 11.3388Z" fill="black"/>
<path d="M12.3851 9.17671C12.7337 8.95316 13.1976 9.05467 13.4212 9.40327C13.6445 9.75194 13.5432 10.2159 13.1946 10.4394C12.7962 10.6949 12.5331 10.883 12.4573 10.9472C12.4191 10.9797 12.3835 11.0129 12.348 11.0439V9.20113C12.3604 9.19314 12.3726 9.18474 12.3851 9.17671Z" fill="black"/>
<path d="M20.7552 7.29292C20.8366 7.29476 20.9015 7.29661 20.9456 7.29781C20.9673 7.29839 20.9848 7.29846 20.9964 7.29878C21.0016 7.29893 21.0061 7.29873 21.0091 7.29878L21.013 7.29976C21.3785 7.3111 21.6836 7.58404 21.7337 7.94624L21.7347 7.9482V7.95015C21.7347 7.95015 21.7354 7.95397 21.7357 7.95601C21.7363 7.96088 21.7367 7.96789 21.7376 7.97554C21.7395 7.99092 21.7417 8.01197 21.7444 8.03804C21.7499 8.09049 21.757 8.16422 21.763 8.25581C21.7749 8.43921 21.7836 8.6974 21.7737 9.00581C21.7604 9.41974 21.4143 9.74462 21.0003 9.7314C20.5867 9.71775 20.2616 9.37162 20.2747 8.95796C20.2767 8.89743 20.2754 8.83929 20.2757 8.78413C20.2078 8.78313 20.1353 8.78206 20.0599 8.7812C19.6461 8.77616 19.3141 8.43631 19.3187 8.02242C19.3236 7.60859 19.6636 7.27678 20.0775 7.2812C20.3579 7.28438 20.5917 7.28924 20.7552 7.29292Z" fill="black"/>
<path d="M17.1995 7.32515C17.6131 7.30521 17.9655 7.62445 17.9857 8.03804C18.0055 8.45142 17.6861 8.80285 17.2728 8.8232C16.9598 8.83845 16.6589 8.85892 16.3851 8.88472C16.223 8.90008 15.9693 8.96716 15.6341 9.09956C15.249 9.25141 14.8137 9.06262 14.6614 8.67769C14.5095 8.29263 14.6984 7.8573 15.0833 7.70503C15.4658 7.55395 15.8735 7.42559 16.2444 7.39058C16.5465 7.36212 16.8707 7.34118 17.1995 7.32515Z" fill="black"/>
</svg>
