<svg width="24" height="24" viewBox="0 0 24 24" fill="none" xmlns="http://www.w3.org/2000/svg">
<path d="M17.4998 6.5L16.4998 7.5M2.99985 21C2.33285 20.333 6.26185 14.764 14.7848 4.291C15.0886 3.91792 15.4661 3.61149 15.8936 3.39082C16.3211 3.17016 16.7896 3.04 17.2697 3.00849C17.7497 2.97698 18.2312 3.04479 18.6839 3.20768C19.1366 3.37057 19.5508 3.62504 19.9008 3.95521C20.2507 4.28538 20.5288 4.68415 20.7178 5.12662C20.9067 5.56909 21.0023 6.04576 20.9988 6.52687C20.9952 7.00797 20.8925 7.48318 20.6971 7.92281C20.5016 8.36243 20.2176 8.75705 19.8628 9.082C9.28785 17.694 3.66685 21.667 2.99985 21Z" stroke="currentColor" stroke-width="1.5" stroke-linecap="round" stroke-linejoin="round"/>
</svg>
