<svg width="24" height="24" viewBox="0 0 24 24" fill="none" xmlns="http://www.w3.org/2000/svg">
<path d="M6 9C6 10.5913 6.63214 12.1174 7.75736 13.2426C8.88258 14.3679 10.4087 15 12 15M6 9C6 7.4087 6.63214 5.88258 7.75736 4.75736C8.88258 3.63214 10.4087 3 12 3M6 9H18M12 15C13.5913 15 15.1174 14.3679 16.2426 13.2426C17.3679 12.1174 18 10.5913 18 9M12 15C13.333 14.667 14 12.667 14 9C14 5.333 13.333 3.333 12 3M12 15C10.667 14.667 10 12.667 10 9C10 5.333 10.667 3.333 12 3M12 15V18M18 9C18 7.4087 17.3679 5.88258 16.2426 4.75736C15.1174 3.63214 13.5913 3 12 3M3 20H10M10 20C10 20.5304 10.2107 21.0391 10.5858 21.4142C10.9609 21.7893 11.4696 22 12 22C12.5304 22 13.0391 21.7893 13.4142 21.4142C13.7893 21.0391 14 20.5304 14 20M10 20C10 19.4696 10.2107 18.9609 10.5858 18.5858C10.9609 18.2107 11.4696 18 12 18M14 20H21M14 20C14 19.4696 13.7893 18.9609 13.4142 18.5858C13.0391 18.2107 12.5304 18 12 18" stroke="currentColor" stroke-width="1.5" stroke-linecap="round" stroke-linejoin="round"/>
</svg>
