<svg width="24" height="24" viewBox="0 0 24 24" fill="none" xmlns="http://www.w3.org/2000/svg">
<path d="M6.52798 6.53601C6.02706 7.64712 5.87639 8.88444 6.09605 10.0833C6.3157 11.2822 6.89525 12.3857 7.75757 13.247C8.61989 14.1084 9.72408 14.6867 10.9232 14.905C12.1223 15.1233 13.3594 14.9712 14.47 14.469M16.717 12.709C17.6256 11.5551 18.0794 10.108 17.9924 8.64187C17.9054 7.17575 17.2837 5.79246 16.2451 4.75405C15.2064 3.71565 13.823 3.09428 12.3568 3.00765C10.8907 2.92102 9.44369 3.37515 8.28998 4.28401M13.983 9.968C13.994 9.66 14 9.337 14 9C14 5.333 13.333 3.333 12 3C11.064 3.234 10.4559 4.29 10.1779 6.167M13.433 13.441C13.1 14.325 12.623 14.844 12 15M12 15C10.794 14.7 10.1339 13.034 10.0179 10.005M12 15V18M6 9H9M13 9H18M3 20H10M10 20C10 20.5304 10.2107 21.0391 10.5858 21.4142C10.9609 21.7893 11.4696 22 12 22C12.5304 22 13.0391 21.7893 13.4142 21.4142C13.7893 21.0391 14 20.5304 14 20M10 20C10 19.4696 10.2107 18.9609 10.5858 18.5858C10.9609 18.2107 11.4696 18 12 18M14 20H21M14 20C14 19.4696 13.7893 18.9609 13.4142 18.5858C13.0391 18.2107 12.5304 18 12 18M3 3L21 21" stroke="currentColor" stroke-width="1.5" stroke-linecap="round" stroke-linejoin="round"/>
</svg>
