<svg width="24" height="24" viewBox="0 0 24 24" fill="none" xmlns="http://www.w3.org/2000/svg">
<path fill-rule="evenodd" clip-rule="evenodd" d="M3.76256 3.76256C4.09075 3.43438 4.53587 3.25 5 3.25H15C15.4641 3.25 15.9092 3.43438 16.2374 3.76256C16.5656 4.09075 16.75 4.53587 16.75 5V5.25H19C19.4641 5.25 19.9092 5.43437 20.2374 5.76256C20.5656 6.09075 20.75 6.53587 20.75 7V18C20.75 18.7293 20.4603 19.4288 19.9445 19.9445C19.4288 20.4603 18.7293 20.75 18 20.75H7C6.00544 20.75 5.05161 20.3549 4.34835 19.6516C3.64509 18.9484 3.25 17.9946 3.25 17V5C3.25 4.53587 3.43438 4.09075 3.76256 3.76256ZM15.5505 19.25H7C6.40326 19.25 5.83097 19.0129 5.40901 18.591C4.98705 18.169 4.75 17.5967 4.75 17V5C4.75 4.9337 4.77634 4.87011 4.82322 4.82322C4.87011 4.77634 4.9337 4.75 5 4.75H15C15.0663 4.75 15.1299 4.77634 15.1768 4.82322C15.2237 4.87011 15.25 4.9337 15.25 5V18C15.25 18.4386 15.3548 18.8665 15.5505 19.25ZM16.75 6.75V18C16.75 18.3315 16.8817 18.6495 17.1161 18.8839C17.3505 19.1183 17.6685 19.25 18 19.25C18.3315 19.25 18.6495 19.1183 18.8839 18.8839C19.1183 18.6495 19.25 18.3315 19.25 18V7C19.25 6.93369 19.2237 6.87011 19.1768 6.82322C19.1299 6.77634 19.0663 6.75 19 6.75H16.75ZM7.25 8C7.25 7.58579 7.58579 7.25 8 7.25H12C12.4142 7.25 12.75 7.58579 12.75 8C12.75 8.41421 12.4142 8.75 12 8.75H8C7.58579 8.75 7.25 8.41421 7.25 8ZM7.25 12C7.25 11.5858 7.58579 11.25 8 11.25H12C12.4142 11.25 12.75 11.5858 12.75 12C12.75 12.4142 12.4142 12.75 12 12.75H8C7.58579 12.75 7.25 12.4142 7.25 12ZM7.25 16C7.25 15.5858 7.58579 15.25 8 15.25H12C12.4142 15.25 12.75 15.5858 12.75 16C12.75 16.4142 12.4142 16.75 12 16.75H8C7.58579 16.75 7.25 16.4142 7.25 16Z" fill="currentColor"/>
</svg>
