<svg width="24" height="24" viewBox="0 0 24 24" fill="none" xmlns="http://www.w3.org/2000/svg">
<path d="M6.154 6.18701C5.80904 6.34804 5.51721 6.60419 5.31279 6.92534C5.10837 7.24649 4.99986 7.61932 5 8.00001V17C5 17.5304 5.21071 18.0392 5.58579 18.4142C5.96086 18.7893 6.46957 19 7 19H16C16.38 19 16.7522 18.8918 17.0729 18.6879C17.3937 18.4841 17.6497 18.1931 17.811 17.849M3 3L21 21M14 7C14 7.79565 14.3161 8.55871 14.8787 9.12132C15.4413 9.68393 16.2044 10 17 10C17.7956 10 18.5587 9.68393 19.1213 9.12132C19.6839 8.55871 20 7.79565 20 7C20 6.20435 19.6839 5.44129 19.1213 4.87868C18.5587 4.31607 17.7956 4 17 4C16.2044 4 15.4413 4.31607 14.8787 4.87868C14.3161 5.44129 14 6.20435 14 7Z" stroke="currentColor" stroke-width="1.5" stroke-linecap="round" stroke-linejoin="round"/>
</svg>
