<svg width="24" height="24" viewBox="0 0 24 24" fill="none" xmlns="http://www.w3.org/2000/svg">
<path d="M7 10L9 8V16M13 8H15.5C15.8978 8 16.2794 8.15804 16.5607 8.43934C16.842 8.72064 17 9.10218 17 9.5V10.5C17 10.8978 16.842 11.2794 16.5607 11.5607C16.2794 11.842 15.8978 12 15.5 12M15.5 12H14M15.5 12C15.8978 12 16.2794 12.158 16.5607 12.4393C16.842 12.7206 17 13.1022 17 13.5V14.5C17 14.8978 16.842 15.2794 16.5607 15.5607C16.2794 15.842 15.8978 16 15.5 16H13" stroke="currentColor" stroke-width="1.5" stroke-linecap="round" stroke-linejoin="round"/>
</svg>
