<svg width="24" height="24" viewBox="0 0 24 24" fill="none" xmlns="http://www.w3.org/2000/svg">
<path d="M19 6.84015C19.3068 7.01809 19.561 7.27414 19.7366 7.58225C19.9123 7.89035 20.0032 8.2395 20 8.59415V15.1492C20 15.8772 19.606 16.5492 18.97 16.9022L12.97 20.7462C12.6733 20.9112 12.3395 20.9978 12 20.9978C11.6605 20.9978 11.3267 20.9112 11.03 20.7462L5.03 16.9022C4.71785 16.7283 4.45779 16.4743 4.27671 16.1662C4.09563 15.8582 4.0001 15.5074 4 15.1502V8.59315C4 7.86515 4.394 7.19415 5.03 6.84015L11.03 3.25815C11.3356 3.08728 11.6799 2.99756 12.03 2.99756C12.3801 2.99756 12.7244 3.08728 13.03 3.25815L19.03 6.84015H19Z" stroke="currentColor" stroke-width="1.5" stroke-linecap="round" stroke-linejoin="round"/>
<path d="M9 12.0001C9 12.7958 9.31607 13.5588 9.87868 14.1214C10.4413 14.6841 11.2044 15.0001 12 15.0001C12.7956 15.0001 13.5587 14.6841 14.1213 14.1214C14.6839 13.5588 15 12.7958 15 12.0001C15 11.2045 14.6839 10.4414 14.1213 9.8788C13.5587 9.31619 12.7956 9.00012 12 9.00012C11.2044 9.00012 10.4413 9.31619 9.87868 9.8788C9.31607 10.4414 9 11.2045 9 12.0001Z" stroke="currentColor" stroke-width="1.5" stroke-linecap="round" stroke-linejoin="round"/>
</svg>
