<svg width="24" height="24" viewBox="0 0 24 24" fill="none" xmlns="http://www.w3.org/2000/svg">
<path d="M9 12.0001H15M12.8021 2.1651L18.3771 4.5541C18.8571 4.7601 19.2401 5.1431 19.4471 5.6241L21.8351 11.1981C22.0551 11.7101 22.0551 12.2901 21.8351 12.8021L19.4461 18.3771C19.2401 18.8571 18.8571 19.2401 18.3761 19.4471L12.8021 21.8351C12.2901 22.0551 11.7101 22.0551 11.1981 21.8351L5.6231 19.4461C5.14222 19.2401 4.75906 18.857 4.5531 18.3761L2.1651 12.8021C2.05649 12.5487 2.00049 12.2758 2.00049 12.0001C2.00049 11.7244 2.05649 11.4515 2.1651 11.1981L4.5541 5.6231C4.7601 5.1431 5.1431 4.7601 5.6241 4.5531L11.1981 2.1651C11.4515 2.05649 11.7244 2.00049 12.0001 2.00049C12.2758 2.00049 12.5487 2.05649 12.8021 2.1651Z" stroke="currentColor" stroke-width="1.5" stroke-linecap="round" stroke-linejoin="round"/>
</svg>
