<svg width="24" height="24" viewBox="0 0 24 24" fill="none" xmlns="http://www.w3.org/2000/svg">
<path d="M15.3002 2H8.70024C8.13824 2 7.68424 2.201 7.29324 2.593L2.59324 7.293C2.40217 7.47353 2.25077 7.69186 2.14868 7.9341C2.04659 8.17633 1.99604 8.43716 2.00024 8.7V15.3C2.00024 15.862 2.20124 16.316 2.59324 16.707L7.29324 21.407C7.68424 21.799 8.13824 22 8.70024 22H15.3002C15.8622 22 16.3162 21.799 16.7072 21.407L21.4072 16.707C21.7992 16.316 22.0002 15.862 22.0002 15.3V8.7C22.0002 8.138 21.7992 7.684 21.4072 7.293L16.7072 2.593C16.5267 2.40193 16.3084 2.25053 16.0661 2.14844C15.8239 2.04634 15.5631 1.99579 15.3002 2Z" fill="currentColor"/>
</svg>
