<svg width="24" height="24" viewBox="0 0 24 24" fill="none" xmlns="http://www.w3.org/2000/svg">
<path d="M6.771 6.76997L2.296 11.297C2.2023 11.3886 2.12784 11.498 2.07701 11.6189C2.02618 11.7397 2 11.8694 2 12.0005M2 12.0005C2 12.1315 2.02618 12.2613 2.07701 12.3821C2.12784 12.5029 2.2023 12.6123 2.296 12.704L11.141 21.653C11.3714 21.8761 11.6795 22.0007 12.0002 22.0005C12.3209 22.0004 12.6289 21.8753 12.859 21.652L17.219 17.24M2 12.0005C2.004 12.0865 2.103 12.178 2.296 12.246L11.141 14.878C11.6 15.041 12.4 15.041 12.859 14.878L14.403 14.418M19.221 15.215L21.704 12.703C21.7977 12.6113 21.8722 12.5019 21.923 12.3811C21.9738 12.2603 22 12.1305 22 11.9995C22 11.8684 21.9738 11.7387 21.923 11.6179C21.8722 11.497 21.7977 11.3876 21.704 11.296L12.859 2.34797C12.6289 2.12451 12.3208 1.99951 12 1.99951C11.6792 1.99951 11.3711 2.12451 11.141 2.34797L8.766 4.75097M17.497 13.498L21.704 12.246C21.899 12.176 21.998 12.09 22 12.003M12 2.12012V8.00012M12 12.0001V21.8801M3 3L21 21" stroke="currentColor" stroke-width="1.5" stroke-linecap="round" stroke-linejoin="round"/>
</svg>
