<svg width="24" height="24" viewBox="0 0 24 24" fill="none" xmlns="http://www.w3.org/2000/svg">
<path d="M2 12.0005C2 11.8694 2.02618 11.7397 2.07701 11.6189C2.12784 11.498 2.2023 11.3886 2.296 11.297L11.141 2.34797C11.3711 2.12451 11.6792 1.99951 12 1.99951C12.3208 1.99951 12.6289 2.12451 12.859 2.34797L21.704 11.296C21.7977 11.3876 21.8722 11.497 21.923 11.6179C21.9738 11.7387 22 11.8684 22 11.9995C22 12.1305 21.9738 12.2603 21.923 12.3811C21.8722 12.5019 21.7977 12.6113 21.704 12.703L12.859 21.652C12.6289 21.8753 12.3209 22.0004 12.0002 22.0005C11.6795 22.0007 11.3714 21.8761 11.141 21.653L2.296 12.704C2.2023 12.6123 2.12784 12.5029 2.07701 12.3821C2.02618 12.2613 2 12.1315 2 12.0005ZM2 12.0005C2.004 12.0865 2.103 12.178 2.296 12.246L11.141 14.878C11.6 15.041 12.4 15.041 12.859 14.878L21.704 12.246C21.899 12.176 21.998 12.09 22 12.003M12 2.12V21.88" stroke="currentColor" stroke-width="1.5" stroke-linecap="round" stroke-linejoin="round"/>
</svg>
