<svg width="24" height="24" viewBox="0 0 24 24" fill="none" xmlns="http://www.w3.org/2000/svg">
<path d="M19.0271 19.0016C18.8415 19.1906 18.6207 19.3415 18.3771 19.4456L12.8021 21.8356C12.5486 21.944 12.2758 21.9999 12.0001 21.9999C11.7244 21.9999 11.4516 21.944 11.1981 21.8356L5.6231 19.4456C5.14222 19.2397 4.75906 18.8565 4.5531 18.3756L2.1651 12.8016C2.05649 12.5482 2.00049 12.2754 2.00049 11.9996C2.00049 11.7239 2.05649 11.4511 2.1651 11.1976L4.5541 5.62264C4.6571 5.38264 4.8041 5.16564 4.9871 4.98364M7.6761 3.67364L11.1981 2.16364C11.4515 2.05503 11.7244 1.99902 12.0001 1.99902C12.2758 1.99902 12.5487 2.05503 12.8021 2.16364L18.3771 4.55364C18.8571 4.75964 19.2401 5.14264 19.4471 5.62364L21.8351 11.1976C22.0551 11.7096 22.0551 12.2896 21.8351 12.8016L20.3261 16.3236M3 2.99976L21 20.9998" stroke="currentColor" stroke-width="1.5" stroke-linecap="round" stroke-linejoin="round"/>
</svg>
