<svg width="24" height="24" viewBox="0 0 24 24" fill="none" xmlns="http://www.w3.org/2000/svg">
<path d="M9 9C9 9.79565 8.68393 10.5587 8.12132 11.1213C7.55871 11.6839 6.79565 12 6 12C5.20435 12 4.44129 11.6839 3.87868 11.1213C3.31607 10.5587 3 9.79565 3 9C3 8.20435 3.31607 7.44129 3.87868 6.87868C4.44129 6.31607 5.20435 6 6 6C6.79565 6 7.55871 6.31607 8.12132 6.87868C8.68393 7.44129 9 8.20435 9 9ZM9 9C9 9.79565 9.31607 10.5587 9.87868 11.1213C10.4413 11.6839 11.2044 12 12 12C12.7956 12 13.5587 11.6839 14.1213 11.1213C14.6839 10.5587 15 9.79565 15 9M9 9C9 8.20435 9.31607 7.44129 9.87868 6.87868C10.4413 6.31607 11.2044 6 12 6C12.7956 6 13.5587 6.31607 14.1213 6.87868C14.6839 7.44129 15 8.20435 15 9M15 9C15 9.79565 15.3161 10.5587 15.8787 11.1213C16.4413 11.6839 17.2044 12 18 12C18.7956 12 19.5587 11.6839 20.1213 11.1213C20.6839 10.5587 21 9.79565 21 9C21 8.20435 20.6839 7.44129 20.1213 6.87868C19.5587 6.31607 18.7956 6 18 6C17.2044 6 16.4413 6.31607 15.8787 6.87868C15.3161 7.44129 15 8.20435 15 9ZM12 15C12 15.7956 11.6839 16.5587 11.1213 17.1213C10.5587 17.6839 9.79565 18 9 18C8.20435 18 7.44129 17.6839 6.87868 17.1213C6.31607 16.5587 6 15.7956 6 15C6 14.2044 6.31607 13.4413 6.87868 12.8787C7.44129 12.3161 8.20435 12 9 12C9.79565 12 10.5587 12.3161 11.1213 12.8787C11.6839 13.4413 12 14.2044 12 15ZM12 15C12 15.7956 12.3161 16.5587 12.8787 17.1213C13.4413 17.6839 14.2044 18 15 18C15.7956 18 16.5587 17.6839 17.1213 17.1213C17.6839 16.5587 18 15.7956 18 15C18 14.2044 17.6839 13.4413 17.1213 12.8787C16.5587 12.3161 15.7956 12 15 12C14.2044 12 13.4413 12.3161 12.8787 12.8787C12.3161 13.4413 12 14.2044 12 15Z" stroke="currentColor" stroke-width="1.5" stroke-linecap="round" stroke-linejoin="round"/>
</svg>
