<svg width="24" height="24" viewBox="0 0 24 24" fill="none" xmlns="http://www.w3.org/2000/svg">
<path d="M6 6C5.40666 6 4.82664 6.17595 4.33329 6.50559C3.83994 6.83524 3.45543 7.30377 3.22836 7.85195C3.0013 8.40013 2.94189 9.00333 3.05765 9.58527C3.1734 10.1672 3.45912 10.7018 3.87868 11.1213C4.29824 11.5409 4.83279 11.8266 5.41473 11.9424C5.99667 12.0581 6.59987 11.9987 7.14805 11.7716C7.69623 11.5446 8.16477 11.1601 8.49441 10.6667C8.82405 10.1734 9 9.59334 9 9C9 9.79565 9.31607 10.5588 9.87868 11.1214C10.4413 11.684 11.2044 12.0001 12 12.0001M14.566 10.5551C14.9154 9.97973 15.0611 9.30359 14.9797 8.63539C14.8983 7.9672 14.5946 7.34578 14.1174 6.87108C13.6401 6.39638 13.0171 6.09597 12.3485 6.01816C11.6799 5.94035 11.0045 6.08967 10.431 6.4421M12.8781 12.88C12.5992 13.1583 12.3779 13.4889 12.2268 13.8527C12.0757 14.2166 11.9977 14.6067 11.9973 15.0007C11.9966 15.7964 12.3119 16.5598 12.8741 17.123C13.4362 17.6862 14.199 18.003 14.9947 18.0037C15.3887 18.0041 15.779 17.9269 16.1431 17.7764C16.5073 17.626 16.8382 17.4053 17.1171 17.127M17.7031 13.696C17.4025 13.0747 16.8977 12.5756 16.2731 12.282M3 3L21 21M15 9C15 9.79565 15.3161 10.5587 15.8787 11.1213C16.4413 11.6839 17.2044 12 18 12C18.7956 12 19.5587 11.6839 20.1213 11.1213C20.6839 10.5587 21 9.79565 21 9C21 8.20435 20.6839 7.44129 20.1213 6.87868C19.5587 6.31607 18.7956 6 18 6C17.2044 6 16.4413 6.31607 15.8787 6.87868C15.3161 7.44129 15 8.20435 15 9ZM6 15C6 15.7956 6.31607 16.5587 6.87868 17.1213C7.44129 17.6839 8.20435 18 9 18C9.79565 18 10.5587 17.6839 11.1213 17.1213C11.6839 16.5587 12 15.7956 12 15C12 14.2044 11.6839 13.4413 11.1213 12.8787C10.5587 12.3161 9.79565 12 9 12C8.20435 12 7.44129 12.3161 6.87868 12.8787C6.31607 13.4413 6 14.2044 6 15Z" stroke="currentColor" stroke-width="1.5" stroke-linecap="round" stroke-linejoin="round"/>
</svg>
