<svg width="24" height="24" viewBox="0 0 24 24" fill="none" xmlns="http://www.w3.org/2000/svg">
<path d="M3.38721 7C4.03021 5.816 5.40621 5 7.00021 5C9.21021 5 11.0002 6.567 11.0002 8.5C11.0002 10.433 9.21021 12 7.00021 12C9.21021 12 11 14.015 11 16.5C11 18.985 9.21003 21 7.00003 21C4.79003 21 3.00003 18.985 3.00003 16.5C2.99778 15.8054 3.14191 15.1182 3.42303 14.483M14.0709 17.01C14.3979 19.287 15.8099 21 17.4999 21C19.4329 21 20.9999 18.761 20.9999 16C20.9999 13.239 19.4329 11 17.4999 11C16.5399 11 15.6319 11.606 14.9999 12.5C14.2829 13.549 13.2399 14.2 12.0639 14.2C11.1439 14.2 10.2979 13.794 9.62988 13.113M17 3L19 5M12 3C13.667 6.667 16.667 8.333 21 8" stroke="currentColor" stroke-width="1.5" stroke-linecap="round" stroke-linejoin="round"/>
</svg>
