<svg width="24" height="24" viewBox="0 0 24 24" fill="none" xmlns="http://www.w3.org/2000/svg">
<path d="M11.5002 8.50012C12.0524 8.50012 12.5002 8.05241 12.5002 7.50012C12.5002 6.94784 12.0524 6.50012 11.5002 6.50012C10.9479 6.50012 10.5002 6.94784 10.5002 7.50012C10.5002 8.05241 10.9479 8.50012 11.5002 8.50012Z" fill="currentColor"/>
<path d="M5.63616 5.6361C6.5316 4.74051 7.60597 4.04398 8.78904 3.59205C9.97211 3.14012 11.2372 2.94296 12.5017 3.01347C13.7662 3.08398 15.0016 3.42056 16.1271 4.00121C17.2526 4.58186 18.2428 5.39351 19.0332 6.3831L13.4142 12.0001L19.0332 17.6171C18.2688 18.5725 17.3178 19.362 16.238 19.9374C15.1583 20.5128 13.9725 20.862 12.7533 20.9637C11.534 21.0654 10.3068 20.9174 9.14667 20.5287C7.98654 20.1401 6.91782 19.519 6.00583 18.7034C5.09383 17.8878 4.35771 16.8948 3.84244 15.7851C3.32717 14.6754 3.04357 13.4723 3.00897 12.2493C2.97437 11.0263 3.1895 9.80909 3.64121 8.67203C4.09292 7.53497 4.77173 6.50196 5.63616 5.6361Z" stroke="currentColor" stroke-width="1.5" stroke-linecap="round" stroke-linejoin="round"/>
<path d="M11.5002 8.50012C12.0524 8.50012 12.5002 8.05241 12.5002 7.50012C12.5002 6.94784 12.0524 6.50012 11.5002 6.50012C10.9479 6.50012 10.5002 6.94784 10.5002 7.50012C10.5002 8.05241 10.9479 8.50012 11.5002 8.50012Z" stroke="currentColor" stroke-width="1.5" stroke-linecap="round" stroke-linejoin="round"/>
</svg>
