<svg width="24" height="24" viewBox="0 0 24 24" fill="none" xmlns="http://www.w3.org/2000/svg">
<path d="M7.00017 3H17.5302C18.2232 3 18.7102 3.691 18.4652 4.338C17.3672 7.236 16.8922 10.133 17.0402 13.03M17.8682 17.877C18.0402 18.469 18.2382 19.062 18.4632 19.655C18.5186 19.8058 18.5369 19.9677 18.5165 20.127C18.4961 20.2864 18.4376 20.4384 18.346 20.5704C18.2543 20.7023 18.1323 20.8103 17.9901 20.8851C17.8479 20.9598 17.6898 20.9993 17.5292 21H6.52917C5.83717 21 5.32117 20.308 5.56717 19.66C7.26417 15.174 7.47017 10.687 6.18617 6.2M3 3L21 21" stroke="currentColor" stroke-width="1.5" stroke-linecap="round" stroke-linejoin="round"/>
</svg>
