<svg width="24" height="24" viewBox="0 0 24 24" fill="none" xmlns="http://www.w3.org/2000/svg">
<path d="M10.95 6.95198C13.851 7.10198 16.753 6.62898 19.655 5.53198C19.8058 5.47656 19.9677 5.45828 20.127 5.47868C20.2864 5.49909 20.4385 5.55758 20.5704 5.6492C20.7024 5.74083 20.8103 5.8629 20.8851 6.00507C20.9598 6.14725 20.9993 6.30534 21 6.46598V17M17.788 17.806C13.305 16.525 8.82201 16.732 4.33901 18.428C4.1885 18.4839 4.02668 18.5026 3.8674 18.4822C3.70812 18.4619 3.55614 18.4033 3.42449 18.3114C3.29284 18.2194 3.18545 18.097 3.11152 17.9544C3.03759 17.8119 2.99932 17.6535 3.00001 17.493V6.46598C3.00099 6.3061 3.04029 6.14879 3.11462 6.00724C3.18895 5.86568 3.29613 5.74401 3.42719 5.65243C3.55824 5.56085 3.70934 5.50203 3.86782 5.48089C4.0263 5.45976 4.18754 5.47694 4.33801 5.53098C4.92601 5.75198 5.51401 5.94898 6.10201 6.12098M3 3L21 21" stroke="currentColor" stroke-width="1.5" stroke-linecap="round" stroke-linejoin="round"/>
</svg>
