<svg width="24" height="24" viewBox="0 0 24 24" fill="none" xmlns="http://www.w3.org/2000/svg">
<path d="M18.4625 4.338C16.5305 9.444 16.5305 14.549 18.4625 19.655C18.5179 19.8058 18.5362 19.9677 18.5158 20.127C18.4954 20.2864 18.4369 20.4384 18.3452 20.5704C18.2536 20.7023 18.1315 20.8103 17.9894 20.8851C17.8472 20.9598 17.6891 20.9993 17.5285 21H6.52846C5.83646 21 5.32046 20.308 5.56646 19.66C7.49846 14.553 7.49846 9.446 5.56646 4.339C5.32046 3.691 5.80946 3 6.50146 3H17.5295C18.2225 3 18.7095 3.691 18.4645 4.338H18.4625Z" stroke="currentColor" stroke-width="1.5" stroke-linecap="round" stroke-linejoin="round"/>
</svg>
