<svg width="24" height="24" viewBox="0 0 24 24" fill="none" xmlns="http://www.w3.org/2000/svg">
<path fill-rule="evenodd" clip-rule="evenodd" d="M8 3.75C7.66848 3.75 7.35054 3.8817 7.11612 4.11612C6.8817 4.35054 6.75 4.66848 6.75 5V7.82295L8.1428 10.6085C8.54205 11.4069 8.74994 12.2873 8.75 13.1799V19C8.75 19.4386 8.64521 19.8665 8.44949 20.25H18C18.3315 20.25 18.6495 20.1183 18.8839 19.8839C19.1183 19.6495 19.25 19.3315 19.25 19V13.1801C19.25 13.18 19.25 13.1801 19.25 13.1801C19.2499 12.5203 19.0963 11.8695 18.8012 11.2795L17.8572 9.39145C17.4579 8.59307 17.2501 7.7127 17.25 6.82005V5C17.25 4.66848 17.1183 4.35054 16.8839 4.11612C16.6495 3.8817 16.3315 3.75 16 3.75H8ZM6 21.75C5.27065 21.75 4.57118 21.4603 4.05546 20.9445C3.53973 20.4288 3.25 19.7293 3.25 19V13.18C3.25006 12.2874 3.45794 11.407 3.85718 10.6086C3.85717 10.6086 3.85719 10.6086 3.85718 10.6086L5.25 7.82295V5C5.25 4.27065 5.53973 3.57118 6.05546 3.05546C6.57118 2.53973 7.27065 2.25 8 2.25H16C16.7293 2.25 17.4288 2.53973 17.9445 3.05546C18.4603 3.57118 18.75 4.27065 18.75 5V6.81995C18.75 6.81993 18.75 6.81997 18.75 6.81995C18.7501 7.47971 18.9037 8.13046 19.1988 8.72055L20.1428 10.6085C20.1428 10.6085 20.1428 10.6086 20.1428 10.6085C20.542 11.4069 20.7499 12.2873 20.75 13.1799V19C20.75 19.7293 20.4603 20.4288 19.9445 20.9445C19.4288 21.4603 18.7293 21.75 18 21.75H6ZM6 9.67705L5.19882 11.2794C4.90373 11.8695 4.75005 12.5202 4.75 13.18C4.75 13.18 4.75 13.18 4.75 13.18V19C4.75 19.3315 4.8817 19.6495 5.11612 19.8839C5.35054 20.1183 5.66848 20.25 6 20.25C6.33152 20.25 6.64946 20.1183 6.88388 19.8839C7.1183 19.6495 7.25 19.3315 7.25 19V13.1801C7.25 13.18 7.25 13.1801 7.25 13.1801C7.24995 12.5203 7.09629 11.8695 6.8012 11.2795L6 9.67705ZM10.25 7C10.25 6.58579 10.5858 6.25 11 6.25H13C13.4142 6.25 13.75 6.58579 13.75 7C13.75 7.41421 13.4142 7.75 13 7.75H11C10.5858 7.75 10.25 7.41421 10.25 7ZM12.0555 13.0555C12.5712 12.5397 13.2707 12.25 14 12.25C14.7293 12.25 15.4288 12.5397 15.9445 13.0555C16.4603 13.5712 16.75 14.2707 16.75 15C16.75 15.7293 16.4603 16.4288 15.9445 16.9445C15.4288 17.4603 14.7293 17.75 14 17.75C13.2707 17.75 12.5712 17.4603 12.0555 16.9445C11.5397 16.4288 11.25 15.7293 11.25 15C11.25 14.2707 11.5397 13.5712 12.0555 13.0555ZM14 13.75C13.6685 13.75 13.3505 13.8817 13.1161 14.1161C12.8817 14.3505 12.75 14.6685 12.75 15C12.75 15.3315 12.8817 15.6495 13.1161 15.8839C13.3505 16.1183 13.6685 16.25 14 16.25C14.3315 16.25 14.6495 16.1183 14.8839 15.8839C15.1183 15.6495 15.25 15.3315 15.25 15C15.25 14.6685 15.1183 14.3505 14.8839 14.1161C14.6495 13.8817 14.3315 13.75 14 13.75Z" fill="currentColor"/>
</svg>
