<svg width="24" height="24" viewBox="0 0 24 24" fill="none" xmlns="http://www.w3.org/2000/svg">
<path d="M22 12C22 9.34784 20.9464 6.8043 19.0711 4.92893C17.1957 3.05357 14.6522 2 12 2C9.34784 2 6.8043 3.05357 4.92893 4.92893C3.05357 6.8043 2 9.34784 2 12M22 12C22 10.34 20.54 9 18.75 9C16.95 9 15.5 10.34 15.5 12M22 12L12 22M2 12C2 10.34 3.45 9 5.25 9C7.04 9 8.5 10.34 8.5 12M2 12L12 22M15.5 12C15.5 10.34 13.93 9 12 9C10.07 9 8.5 10.34 8.5 12M15.5 12L12 22M8.5 12L12 22" stroke="currentColor" stroke-width="1.5" stroke-linecap="round" stroke-linejoin="round"/>
</svg>
