<svg width="24" height="24" viewBox="0 0 24 24" fill="none" xmlns="http://www.w3.org/2000/svg">
<path d="M7.20601 3.222C8.63001 2.443 10.263 2 12 2C17.523 2 22 6.477 22 12C22 10.34 20.54 9 18.75 9C17.12 9 15.777 10.099 15.538 11.54M4.92601 4.932C3.99694 5.85944 3.2602 6.96125 2.75808 8.17417C2.25596 9.3871 1.99834 10.6873 2.00001 12M2.00001 12C2.00001 10.34 3.45 9 5.25 9C7.04 9 8.5 10.34 8.5 12M2.00001 12L12 22M15.441 11.45C15.211 10.383 14.321 9.515 13.151 9.166M9.706 9.734C8.967 10.284 8.5 11.094 8.5 12M8.5 12L12 22M12 22L14.582 14.6239M12 22L16.992 17.0079M19.006 14.9939L22.006 11.9939M3 3L21 21" stroke="currentColor" stroke-width="1.5" stroke-linecap="round" stroke-linejoin="round"/>
</svg>
