<svg width="24" height="24" viewBox="0 0 24 24" fill="none" xmlns="http://www.w3.org/2000/svg">
<path d="M17 8C17.788 9 18 10 18 11V12M9 11C9 9.422 10.343 8 12 8C13.657 8 15 9.422 15 11V13M12 11V13M6.00002 12V10.603C5.99402 8.60404 7.13602 6.75404 8.99302 5.75304C9.91705 5.25949 10.9483 5.00087 11.9959 5C13.0435 4.99913 14.0752 5.25603 15 5.74804M12 17V21M10 20L14 18M10 18L14 20M5 17V21M3 20L7 18M3 18L7 20M19 17V21M17 20L21 18M17 18L21 20" stroke="currentColor" stroke-width="1.5" stroke-linecap="round" stroke-linejoin="round"/>
</svg>
