<svg width="24" height="24" viewBox="0 0 24 24" fill="none" xmlns="http://www.w3.org/2000/svg">
<path d="M12.0002 10C10.6802 10 10.0172 10.421 9.06916 11.924L8.82516 12.322L8.43016 13.01C8.38292 13.0945 8.33592 13.1792 8.28916 13.264C8.04916 13.698 7.71816 14.017 7.15016 14.406L6.60016 14.771C5.66016 15.398 5.16816 15.889 4.89316 16.726C4.76916 17.064 4.69716 17.579 4.70016 18.006C4.70016 19.693 5.89816 21 7.50016 21L7.74216 20.994C7.86116 20.988 7.97616 20.977 8.09616 20.96L8.34416 20.917L8.47616 20.889L8.76716 20.816L8.92916 20.771L9.49916 20.601L10.2622 20.358L10.7172 20.222C11.2472 20.072 11.6572 20 12.0002 20C12.3442 20 12.7532 20.073 13.2832 20.222L13.7382 20.358L14.5022 20.6L15.0712 20.771L15.3832 20.855C15.4802 20.879 15.5702 20.9 15.6562 20.917L15.9042 20.96C16.0242 20.977 16.1392 20.988 16.2582 20.994L16.5002 21C18.1022 21 19.3002 19.693 19.3002 18C19.3002 17.573 19.2272 17.061 19.0932 16.694C18.8572 15.97 18.4162 15.471 17.6132 14.864L17.3562 14.674L16.8282 14.294C16.1862 13.824 15.8252 13.468 15.5752 13.016L15.3052 12.531L15.0532 12.099C14.0422 10.403 13.4352 10 12.0002 10Z" fill="currentColor"/>
<path d="M19.7802 7H19.7502C18.5312 7.02 17.4002 8.066 16.8422 9.504C16.1522 11.279 16.4942 13.224 17.9172 13.837C18.1732 13.946 18.4442 14 18.7182 14C19.9492 14 21.0982 12.947 21.6612 11.496C22.3472 9.722 22.0012 7.776 20.5852 7.164C20.331 7.05571 20.0565 6.99992 19.7802 7Z" fill="currentColor"/>
<path d="M9.02516 3C8.91316 3 8.84016 3.002 8.75516 3.015L8.66216 3.031C7.13016 3.237 6.26516 5.02 6.55416 6.886C6.82616 8.611 8.01616 10 9.47416 10L9.66116 9.995C9.68927 9.99261 9.71728 9.98927 9.74516 9.985L9.83716 9.969C11.3702 9.763 12.2342 7.98 11.9452 6.114C11.6752 4.387 10.4852 3 9.02516 3Z" fill="currentColor"/>
<path d="M14.9722 3.00001C13.5132 3.00001 12.3252 4.38801 12.0562 6.11301C11.7662 7.98001 12.6302 9.76301 14.2302 9.98001C14.3332 9.99301 14.4302 10 14.5262 10C15.9162 10 17.0692 8.73501 17.4032 7.11701L17.4442 6.88701C17.7342 5.02001 16.8702 3.23701 15.2702 3.02001C15.1714 3.00645 15.0718 2.99977 14.9722 3.00001Z" fill="currentColor"/>
<path d="M4.21718 7C3.94318 7 3.67318 7.054 3.42018 7.161C1.99418 7.776 1.65317 9.723 2.34217 11.496C2.90517 12.947 4.05218 14 5.28317 14C5.55717 14 5.82717 13.946 6.08017 13.839C7.50618 13.224 7.84718 11.277 7.15817 9.504C6.59517 8.053 5.44817 7 4.21718 7Z" fill="currentColor"/>
</svg>
