<svg width="24" height="24" viewBox="0 0 24 24" fill="none" xmlns="http://www.w3.org/2000/svg">
<path d="M11.168 11.1541C10.458 11.4641 9.984 12.2611 9.168 13.7471C8.226 15.4501 6.322 15.5921 5.847 17.0381C5.75 17.3031 5.702 17.7151 5.704 18.0001C5.704 19.1761 6.491 20.0001 7.504 20.0001C8.763 20.0001 10.504 19.0001 12.004 19.0001C13.504 19.0001 15.245 20.0001 16.504 20.0001C17.431 20.0001 18.168 19.3111 18.287 18.2921M11 6.992C11.0111 6.7496 10.9977 6.50671 10.96 6.267C10.757 4.97 9.913 4 9.028 4C8.7529 4.00159 8.48617 4.09483 8.27 4.265M3 3L21 21M20.188 8.082C20.0595 8.0277 19.9215 7.99981 19.782 8H19.767C19.032 8.012 18.207 8.75 17.774 9.866C17.255 11.201 17.494 12.566 18.312 12.918C18.441 12.973 18.579 13 18.718 13C19.457 13 20.293 12.258 20.729 11.134C21.245 9.799 21.001 8.434 20.188 8.082ZM16.456 6.733C16.67 5.357 16.081 4.139 15.136 4.011C15.0823 4.00357 15.0282 3.99989 14.974 4C14.089 4 13.246 4.97 13.044 6.267C12.83 7.643 13.419 8.861 14.364 8.989C14.418 8.996 14.472 9 14.526 9C15.411 9 16.256 8.026 16.456 6.733ZM5.69 12.918C6.506 12.566 6.744 11.199 6.226 9.866C5.79 8.742 4.955 8 4.217 8C4.077 8 3.94 8.027 3.81 8.082C2.994 8.434 2.756 9.801 3.274 11.134C3.71 12.258 4.545 13 5.283 13C5.423 13 5.56 12.973 5.69 12.918Z" stroke="currentColor" stroke-width="1.5" stroke-linecap="round" stroke-linejoin="round"/>
</svg>
