<svg width="24" height="24" viewBox="0 0 24 24" fill="none" xmlns="http://www.w3.org/2000/svg">
<path d="M14.6998 13.5C13.5998 11.5 13.2588 11 11.9998 11C10.7408 11 10.2638 11.755 9.16381 13.747C8.22181 15.45 6.31781 15.592 5.84281 17.038C5.74581 17.303 5.69781 17.715 5.69981 18C5.69981 19.176 6.48681 20 7.49981 20C8.75881 20 10.4998 19 11.9998 19C13.4998 19 15.2408 20 16.4998 20C17.5128 20 18.2998 19.177 18.2998 18C18.2998 17.715 18.2508 17.303 18.1538 17.038C17.6788 15.587 15.6418 15.203 14.6998 13.5Z" stroke="currentColor" stroke-width="1.5" stroke-linecap="round" stroke-linejoin="round"/>
<path d="M20.1878 8.082C20.0593 8.0277 19.9213 7.99981 19.7818 8H19.7668C19.0318 8.012 18.2068 8.75 17.7738 9.866C17.2548 11.201 17.4938 12.566 18.3118 12.918C18.4408 12.973 18.5788 13 18.7178 13C19.4568 13 20.2928 12.258 20.7288 11.134C21.2448 9.799 21.0008 8.434 20.1878 8.082Z" stroke="currentColor" stroke-width="1.5" stroke-linecap="round" stroke-linejoin="round"/>
<path d="M9.47381 9C9.52881 9 9.58281 9 9.63681 8.989C10.5808 8.861 11.1698 7.643 10.9568 6.267C10.7538 4.97 9.90981 4 9.02481 4C8.96981 4 8.91581 4 8.86181 4.011C7.91781 4.139 7.32881 5.357 7.54181 6.733C7.74581 8.026 8.58981 9 9.47481 9H9.47381Z" stroke="currentColor" stroke-width="1.5" stroke-linecap="round" stroke-linejoin="round"/>
<path d="M16.4558 6.733C16.6698 5.357 16.0808 4.139 15.1358 4.011C15.0821 4.00357 15.028 3.99989 14.9738 4C14.0888 4 13.2458 4.97 13.0438 6.267C12.8298 7.643 13.4188 8.861 14.3638 8.989C14.4178 8.996 14.4718 9 14.5258 9C15.4108 9 16.2558 8.026 16.4558 6.733Z" stroke="currentColor" stroke-width="1.5" stroke-linecap="round" stroke-linejoin="round"/>
<path d="M5.68982 12.918C6.50582 12.566 6.74382 11.199 6.22582 9.866C5.78982 8.742 4.95482 8 4.21682 8C4.07682 8 3.93982 8.027 3.80982 8.082C2.99382 8.434 2.75582 9.801 3.27382 11.134C3.70982 12.258 4.54482 13 5.28282 13C5.42282 13 5.55982 12.973 5.68982 12.918Z" stroke="currentColor" stroke-width="1.5" stroke-linecap="round" stroke-linejoin="round"/>
</svg>
