<svg width="24" height="24" viewBox="0 0 24 24" fill="none" xmlns="http://www.w3.org/2000/svg">
<path fill-rule="evenodd" clip-rule="evenodd" d="M15.1306 4.19402C15.5647 4.01419 16.0301 3.92163 16.5 3.92163C16.9699 3.92163 17.4353 4.01419 17.8694 4.19402C18.3036 4.37386 18.698 4.63744 19.0303 4.96973C19.3626 5.30202 19.6262 5.6965 19.806 6.13065C19.9859 6.56481 20.0784 7.03013 20.0784 7.50006C20.0784 7.96998 19.9859 8.43531 19.806 8.86946C19.6262 9.30362 19.3626 9.6981 19.0303 10.0304L8.53033 20.5304C8.38968 20.671 8.19891 20.7501 8 20.7501H4C3.58579 20.7501 3.25 20.4143 3.25 20.0001V16.0001C3.25 15.8011 3.32902 15.6104 3.46967 15.4697L13.9697 4.96973C14.302 4.63744 14.6964 4.37386 15.1306 4.19402ZM13.5 7.56072L4.75 16.3107V19.2501H7.68934L16.4393 10.5001L13.5 7.56072ZM17.5 9.4394L14.5607 6.50006L15.0303 6.03039C15.2233 5.83739 15.4525 5.68429 15.7046 5.57984C15.9568 5.47539 16.2271 5.42163 16.5 5.42163C16.7729 5.42163 17.0432 5.47539 17.2954 5.57984C17.5475 5.68429 17.7767 5.83739 17.9697 6.03039C18.1627 6.22339 18.3158 6.45251 18.4202 6.70468C18.5247 6.95684 18.5784 7.22711 18.5784 7.50006C18.5784 7.773 18.5247 8.04327 18.4202 8.29544C18.3158 8.5476 18.1627 8.77673 17.9697 8.96973L17.5 9.4394Z" fill="currentColor"/>
</svg>
