<svg width="24" height="24" viewBox="0 0 24 24" fill="none" xmlns="http://www.w3.org/2000/svg">
<path d="M13.5 6.5L17.5 10.5M19 22V22.01M19 18.9998C19.4483 18.9983 19.8832 18.8466 20.235 18.5687C20.5868 18.2909 20.8352 17.903 20.9406 17.4673C21.0459 17.0315 21.0019 16.5731 20.8158 16.1652C20.6297 15.7574 20.3122 15.4238 19.914 15.2178C19.5162 15.014 19.0611 14.9508 18.6228 15.0385C18.1845 15.1262 17.7888 15.3596 17.5 15.7008M8 19.9998H4V15.9998L14.5 5.49981C14.7626 5.23717 15.0744 5.02883 15.4176 4.88669C15.7608 4.74455 16.1286 4.67139 16.5 4.67139C16.8714 4.67139 17.2392 4.74455 17.5824 4.88669C17.9256 5.02883 18.2374 5.23717 18.5 5.49981C18.7626 5.76246 18.971 6.07426 19.1131 6.41742C19.2553 6.76058 19.3284 7.12838 19.3284 7.49981C19.3284 7.87125 19.2553 8.23905 19.1131 8.58221C18.971 8.92537 18.7626 9.23717 18.5 9.49981L8 19.9998Z" stroke="currentColor" stroke-width="1.5" stroke-linecap="round" stroke-linejoin="round"/>
</svg>
