<svg width="24" height="24" viewBox="0 0 24 24" fill="none" xmlns="http://www.w3.org/2000/svg">
<path d="M17 11.0001L18.5 9.50006C18.7626 9.23741 18.971 8.92561 19.1131 8.58245C19.2553 8.23929 19.3284 7.87149 19.3284 7.50006C19.3284 7.12862 19.2553 6.76083 19.1131 6.41767C18.971 6.07451 18.7626 5.7627 18.5 5.50006C18.2374 5.23741 17.9256 5.02907 17.5824 4.88693C17.2392 4.74479 16.8714 4.67163 16.5 4.67163C16.1286 4.67163 15.7608 4.74479 15.4176 4.88693C15.0744 5.02907 14.7626 5.23741 14.5 5.50006L4 16.0001V20.0001H8L11 17.0001M13.5 6.50006L17.5 10.5001M20.2002 20.2001L22.0002 22.0001M15 18.0001C15 18.7957 15.3161 19.5588 15.8787 20.1214C16.4413 20.684 17.2044 21.0001 18 21.0001C18.7956 21.0001 19.5587 20.684 20.1213 20.1214C20.6839 19.5588 21 18.7957 21 18.0001C21 17.2044 20.6839 16.4413 20.1213 15.8787C19.5587 15.3161 18.7956 15.0001 18 15.0001C17.2044 15.0001 16.4413 15.3161 15.8787 15.8787C15.3161 16.4413 15 17.2044 15 18.0001Z" stroke="currentColor" stroke-width="1.5" stroke-linecap="round" stroke-linejoin="round"/>
</svg>
