<svg width="24" height="24" viewBox="0 0 24 24" fill="none" xmlns="http://www.w3.org/2000/svg">
<path d="M13.5 6.5L17.5 10.5M17 21L21 17M4 19.9998H8L18.5 9.49981C18.7626 9.23717 18.971 8.92537 19.1131 8.58221C19.2553 8.23905 19.3284 7.87125 19.3284 7.49981C19.3284 7.12838 19.2553 6.76058 19.1131 6.41742C18.971 6.07426 18.7626 5.76246 18.5 5.49981C18.2374 5.23717 17.9256 5.02883 17.5824 4.88669C17.2392 4.74455 16.8714 4.67139 16.5 4.67139C16.1286 4.67139 15.7608 4.74455 15.4176 4.88669C15.0744 5.02883 14.7626 5.23717 14.5 5.49981L4 15.9998V19.9998ZM16 19C16 19.7956 16.3161 20.5587 16.8787 21.1213C17.4413 21.6839 18.2044 22 19 22C19.7956 22 20.5587 21.6839 21.1213 21.1213C21.6839 20.5587 22 19.7956 22 19C22 18.2044 21.6839 17.4413 21.1213 16.8787C20.5587 16.3161 19.7956 16 19 16C18.2044 16 17.4413 16.3161 16.8787 16.8787C16.3161 17.4413 16 18.2044 16 19Z" stroke="currentColor" stroke-width="1.5" stroke-linecap="round" stroke-linejoin="round"/>
</svg>
