<svg width="24" height="24" viewBox="0 0 24 24" fill="none" xmlns="http://www.w3.org/2000/svg">
<path fill-rule="evenodd" clip-rule="evenodd" d="M15.1306 4.19396C15.5647 4.01413 16.0301 3.92157 16.5 3.92157C16.9699 3.92157 17.4353 4.01413 17.8694 4.19396C18.3036 4.37379 18.698 4.63738 19.0303 4.96967C19.3626 5.30195 19.6262 5.69644 19.806 6.13059C19.9859 6.56475 20.0784 7.03007 20.0784 7.5C20.0784 7.96992 19.9859 8.43524 19.806 8.8694C19.6262 9.30356 19.3626 9.69804 19.0303 10.0303L8.53033 20.5303C8.38968 20.671 8.19891 20.75 8 20.75H4C3.58579 20.75 3.25 20.4142 3.25 20V16C3.25 15.8011 3.32902 15.6103 3.46967 15.4697L13.9697 4.96967C14.302 4.63738 14.6964 4.37379 15.1306 4.19396ZM13.5 7.56066L4.75 16.3107V19.25H7.68934L16.4393 10.5L13.5 7.56066ZM17.5 9.43934L14.5607 6.5L15.0303 6.03033C15.2233 5.83733 15.4525 5.68423 15.7046 5.57978C15.9568 5.47533 16.2271 5.42157 16.5 5.42157C16.7729 5.42157 17.0432 5.47533 17.2954 5.57978C17.5475 5.68423 17.7767 5.83733 17.9697 6.03033C18.1627 6.22333 18.3158 6.45245 18.4202 6.70462C18.5247 6.95678 18.5784 7.22705 18.5784 7.5C18.5784 7.77294 18.5247 8.04321 18.4202 8.29538C18.3158 8.54754 18.1627 8.77667 17.9697 8.96967L17.5 9.43934ZM19 15.25C19.4142 15.25 19.75 15.5858 19.75 16V18.25H22C22.4142 18.25 22.75 18.5858 22.75 19C22.75 19.4142 22.4142 19.75 22 19.75H19.75V22C19.75 22.4142 19.4142 22.75 19 22.75C18.5858 22.75 18.25 22.4142 18.25 22V19.75H16C15.5858 19.75 15.25 19.4142 15.25 19C15.25 18.5858 15.5858 18.25 16 18.25H18.25V16C18.25 15.5858 18.5858 15.25 19 15.25Z" fill="currentColor"/>
</svg>
