<svg width="24" height="24" viewBox="0 0 24 24" fill="none" xmlns="http://www.w3.org/2000/svg">
<path d="M13.5 6.5L17.5 10.5M19 18V18.01M4 20.0001H8L18.5 9.50006C18.7626 9.23741 18.971 8.92561 19.1131 8.58245C19.2553 8.23929 19.3284 7.87149 19.3284 7.50006C19.3284 7.12862 19.2553 6.76083 19.1131 6.41767C18.971 6.07451 18.7626 5.7627 18.5 5.50006C18.2374 5.23741 17.9256 5.02907 17.5824 4.88693C17.2392 4.74479 16.8714 4.67163 16.5 4.67163C16.1286 4.67163 15.7608 4.74479 15.4176 4.88693C15.0744 5.02907 14.7626 5.23741 14.5 5.50006L4 16.0001V20.0001ZM21.121 20.1209C21.5407 19.7014 21.8265 19.1668 21.9423 18.5849C22.0581 18.0029 21.9988 17.3997 21.7717 16.8514C21.5447 16.3032 21.1602 15.8346 20.6668 15.5049C20.1734 15.1752 19.5934 14.9993 19 14.9993C18.4066 14.9993 17.8266 15.1752 17.3332 15.5049C16.8398 15.8346 16.4553 16.3032 16.2283 16.8514C16.0012 17.3997 15.9419 18.0029 16.0577 18.5849C16.1735 19.1668 16.4594 19.7014 16.879 20.1209C17.297 20.5399 18.004 21.1659 19 21.9999C20.051 21.1099 20.759 20.4839 21.121 20.1209Z" stroke="currentColor" stroke-width="1.5" stroke-linecap="round" stroke-linejoin="round"/>
</svg>
