<svg width="24" height="24" viewBox="0 0 24 24" fill="none" xmlns="http://www.w3.org/2000/svg">
<path d="M13.5 6.5L17.5 10.5M19.001 21C18.4705 21 17.9618 20.7893 17.5868 20.4142C17.2117 20.0391 17.001 19.5304 17.001 19C17.001 18.4696 17.2117 17.9609 17.5868 17.5858C17.9618 17.2107 18.4705 17 19.001 17M19.001 21C19.5314 21 20.0401 20.7893 20.4152 20.4142C20.7903 20.0391 21.001 19.5304 21.001 19C21.001 18.4696 20.7903 17.9609 20.4152 17.5858C20.0401 17.2107 19.5314 17 19.001 17M19.001 21V22.5M19.001 17V15.5M22.0319 17.25L20.7329 18M17.2702 20L15.9702 20.75M15.9702 17.25L17.2702 18M20.7329 20L22.0329 20.75M4 20.0001H8L18.5 9.50006C18.7626 9.23741 18.971 8.92561 19.1131 8.58245C19.2553 8.23929 19.3284 7.87149 19.3284 7.50006C19.3284 7.12862 19.2553 6.76083 19.1131 6.41767C18.971 6.07451 18.7626 5.7627 18.5 5.50006C18.2374 5.23741 17.9256 5.02907 17.5824 4.88693C17.2392 4.74479 16.8714 4.67163 16.5 4.67163C16.1286 4.67163 15.7608 4.74479 15.4176 4.88693C15.0744 5.02907 14.7626 5.23741 14.5 5.50006L4 16.0001V20.0001Z" stroke="currentColor" stroke-width="1.5" stroke-linecap="round" stroke-linejoin="round"/>
</svg>
