<svg width="24" height="24" viewBox="0 0 24 24" fill="none" xmlns="http://www.w3.org/2000/svg">
<path d="M17 10.9998L18.5 9.49981C18.7626 9.23717 18.971 8.92537 19.1131 8.58221C19.2553 8.23905 19.3284 7.87125 19.3284 7.49981C19.3284 7.12838 19.2553 6.76058 19.1131 6.41742C18.971 6.07426 18.7626 5.76246 18.5 5.49981C18.2374 5.23717 17.9256 5.02883 17.5824 4.88669C17.2392 4.74455 16.8714 4.67139 16.5 4.67139C16.1286 4.67139 15.7608 4.74455 15.4176 4.88669C15.0744 5.02883 14.7626 5.23717 14.5 5.49981L4 15.9998V19.9998H8L10 17.9998M13.5 6.5L17.5 10.5M18.0001 22.0001L21.3501 18.7161C21.5556 18.5168 21.719 18.2783 21.8307 18.0147C21.9425 17.7512 22.0003 17.4679 22.0007 17.1817C22.0012 16.8954 21.9443 16.612 21.8334 16.3481C21.7225 16.0841 21.5599 15.8451 21.3551 15.6451C20.9373 15.2364 20.3763 15.0071 19.7918 15.006C19.2074 15.0049 18.6455 15.2321 18.2261 15.6391L18.0021 15.8591L17.7791 15.6391C17.3613 15.2307 16.8006 15.0016 16.2163 15.0005C15.6321 14.9994 15.0705 15.2264 14.6511 15.6331C14.4456 15.8324 14.2821 16.0708 14.1703 16.3343C14.0585 16.5978 14.0006 16.8811 14 17.1673C13.9994 17.4536 14.0562 17.7371 14.167 18.001C14.2778 18.265 14.4404 18.504 14.6451 18.7041L18.0001 22.0001Z" stroke="currentColor" stroke-width="1.5" stroke-linecap="round" stroke-linejoin="round"/>
</svg>
