<svg width="24" height="24" viewBox="0 0 24 24" fill="none" xmlns="http://www.w3.org/2000/svg">
<path d="M13.5 6.5L17.5 10.5M21 15H18.5C18.1022 15 17.7206 15.158 17.4393 15.4393C17.158 15.7206 17 16.1022 17 16.5C17 16.8978 17.158 17.2794 17.4393 17.5607C17.7206 17.842 18.1022 18 18.5 18H19.5C19.8978 18 20.2794 18.158 20.5607 18.4393C20.842 18.7206 21 19.1022 21 19.5C21 19.8978 20.842 20.2794 20.5607 20.5607C20.2794 20.842 19.8978 21 19.5 21H17M19 21V22M19 14V15M4 19.9998H8L18.5 9.49981C18.7626 9.23717 18.971 8.92537 19.1131 8.58221C19.2553 8.23905 19.3284 7.87125 19.3284 7.49981C19.3284 7.12838 19.2553 6.76058 19.1131 6.41742C18.971 6.07426 18.7626 5.76246 18.5 5.49981C18.2374 5.23717 17.9256 5.02883 17.5824 4.88669C17.2392 4.74455 16.8714 4.67139 16.5 4.67139C16.1286 4.67139 15.7608 4.74455 15.4176 4.88669C15.0744 5.02883 14.7626 5.23717 14.5 5.49981L4 15.9998V19.9998Z" stroke="currentColor" stroke-width="1.5" stroke-linecap="round" stroke-linejoin="round"/>
</svg>
