<svg width="24" height="24" viewBox="0 0 24 24" fill="none" xmlns="http://www.w3.org/2000/svg">
<path d="M9.99987 2C10.2448 2.00003 10.4812 2.08996 10.6642 2.25272C10.8473 2.41547 10.9642 2.63975 10.9929 2.883L10.9999 3V3.35L19.4059 7.086C20.1579 7.421 20.1959 8.451 19.5189 8.856L19.4059 8.914L10.9999 12.649V20H11.9999C12.2547 20.0003 12.4999 20.0979 12.6852 20.2728C12.8706 20.4478 12.9821 20.687 12.997 20.9414C13.012 21.1958 12.9292 21.4464 12.7656 21.6418C12.602 21.8373 12.37 21.9629 12.1169 21.993L11.9999 22H7.99987C7.74499 21.9997 7.49984 21.9021 7.3145 21.7272C7.12916 21.5522 7.01763 21.313 7.0027 21.0586C6.98776 20.8042 7.07054 20.5536 7.23413 20.3582C7.39772 20.1627 7.62977 20.0371 7.88287 20.007L7.99987 20H8.99987V3C8.99987 2.73478 9.10523 2.48043 9.29276 2.29289C9.4803 2.10536 9.73465 2 9.99987 2Z" fill="currentColor"/>
</svg>
