<svg width="24" height="24" viewBox="0 0 24 24" fill="none" xmlns="http://www.w3.org/2000/svg">
<path d="M12.4999 21.0051H7.04186C6.62415 21.005 6.21719 20.8727 5.87928 20.6271C5.54138 20.3816 5.28989 20.0353 5.16086 19.6381L2.09686 10.2081C1.96771 9.81068 1.96771 9.3826 2.09688 8.98522C2.22605 8.58783 2.47774 8.24156 2.81586 7.99607L10.8369 2.16807C11.1749 1.92237 11.582 1.79004 11.9999 1.79004C12.4177 1.79004 12.8249 1.92237 13.1629 2.16807L21.1839 7.99607C21.8779 8.50007 22.1679 9.39307 21.9029 10.2081L21.1229 12.6091M16 19.0001H22M19 16.0001V22.0001" stroke="currentColor" stroke-width="1.5" stroke-linecap="round" stroke-linejoin="round"/>
</svg>
