<svg width="24" height="24" viewBox="0 0 24 24" fill="none" xmlns="http://www.w3.org/2000/svg">
<path d="M12 12.0001H11M11 12.0001C10.7348 12.0001 10.4804 11.8948 10.2929 11.7072C10.1054 11.5197 10 11.2653 10 11.0001V9.00012C10 8.73491 10.1054 8.48055 10.2929 8.29302C10.4804 8.10548 10.7348 8.00012 11 8.00012H13C13.2652 8.00012 13.5196 8.10548 13.7071 8.29302C13.8946 8.48055 14 8.73491 14 9.00012V11.0001C14 11.2653 13.8946 11.5197 13.7071 11.7072C13.5196 11.8948 13.2652 12.0001 13 12.0001M11 12.0001H13M11 12.0001C10.7348 12.0001 10.4804 12.1055 10.2929 12.293C10.1054 12.4806 10 12.7349 10 13.0001V15.0001C10 15.2653 10.1054 15.5197 10.2929 15.7072C10.4804 15.8948 10.7348 16.0001 11 16.0001H13C13.2652 16.0001 13.5196 15.8948 13.7071 15.7072C13.8946 15.5197 14 15.2653 14 15.0001V13.0001C14 12.7349 13.8946 12.4806 13.7071 12.293C13.5196 12.1055 13.2652 12.0001 13 12.0001M13.1629 2.16807L21.1839 7.99607C21.8779 8.50007 22.1679 9.39307 21.9029 10.2081L18.8389 19.6381C18.7098 20.0353 18.4583 20.3816 18.1204 20.6271C17.7825 20.8727 17.3756 21.005 16.9579 21.0051H7.04186C6.62415 21.005 6.21719 20.8727 5.87928 20.6271C5.54138 20.3816 5.28989 20.0353 5.16086 19.6381L2.09686 10.2081C1.96771 9.81068 1.96771 9.3826 2.09688 8.98522C2.22605 8.58783 2.47774 8.24156 2.81586 7.99607L10.8369 2.16807C11.1749 1.92237 11.582 1.79004 11.9999 1.79004C12.4177 1.79004 12.8249 1.92237 13.1629 2.16807Z" stroke="currentColor" stroke-width="1.5" stroke-linecap="round" stroke-linejoin="round"/>
</svg>
