<svg width="24" height="24" viewBox="0 0 24 24" fill="none" xmlns="http://www.w3.org/2000/svg">
<path d="M10 8.00012H12.5C12.8978 8.00012 13.2794 8.15816 13.5607 8.43946C13.842 8.72077 14 9.1023 14 9.50012V10.5001C14 10.8979 13.842 11.2795 13.5607 11.5608C13.2794 11.8421 12.8978 12.0001 12.5 12.0001M12.5 12.0001H11M12.5 12.0001C12.8978 12.0001 13.2794 12.1582 13.5607 12.4395C13.842 12.7208 14 13.1023 14 13.5001V14.5001C14 14.8979 13.842 15.2795 13.5607 15.5608C13.2794 15.8421 12.8978 16.0001 12.5 16.0001H10M13.1629 2.16807L21.1839 7.99607C21.8779 8.50007 22.1679 9.39307 21.9029 10.2081L18.8389 19.6381C18.7098 20.0353 18.4583 20.3816 18.1204 20.6271C17.7825 20.8727 17.3756 21.005 16.9579 21.0051H7.04186C6.62415 21.005 6.21719 20.8727 5.87928 20.6271C5.54138 20.3816 5.28989 20.0353 5.16086 19.6381L2.09686 10.2081C1.96771 9.81068 1.96771 9.3826 2.09688 8.98522C2.22605 8.58783 2.47774 8.24156 2.81586 7.99607L10.8369 2.16807C11.1749 1.92237 11.582 1.79004 11.9999 1.79004C12.4177 1.79004 12.8249 1.92237 13.1629 2.16807Z" stroke="currentColor" stroke-width="1.5" stroke-linecap="round" stroke-linejoin="round"/>
</svg>
