<svg width="24" height="24" viewBox="0 0 24 24" fill="none" xmlns="http://www.w3.org/2000/svg">
<path d="M12.0001 21.0001C14.387 21.0001 16.6762 20.0519 18.3641 18.3641C19.1998 17.5283 19.8627 16.5362 20.315 15.4442C20.7673 14.3523 21.0001 13.182 21.0001 12.0001C21.0001 10.8182 20.7673 9.64782 20.315 8.55588C19.8627 7.46395 19.1998 6.47179 18.3641 5.63605C17.5283 4.80032 16.5362 4.13738 15.4442 3.68509C14.3523 3.23279 13.182 3 12.0001 3C10.8182 3 9.64782 3.23279 8.55588 3.68509C7.46395 4.13738 6.47179 4.80032 5.63606 5.63606C3.94822 7.32389 3 9.61309 3 12.0001C3 14.387 3.94822 16.6762 5.63606 18.3641C7.32389 20.0519 9.61309 21.0001 12.0001 21.0001ZM12.0001 21.0001L14.0001 15H20.5001L15.2361 11L17.2801 4.71997L12.0001 8.49997L6.72005 4.71997L8.77605 11L3.50005 15H10.0001L12.0001 21.0001Z" stroke="currentColor" stroke-width="1.5" stroke-linecap="round" stroke-linejoin="round"/>
</svg>
