<svg width="24" height="24" viewBox="0 0 24 24" fill="none" xmlns="http://www.w3.org/2000/svg">
<path d="M10.2052 2.59999L3.24515 7.83799C2.74378 8.21522 2.3733 8.74016 2.18585 9.33894C1.99839 9.93772 2.00339 10.5802 2.20015 11.176L5.09615 19.941C5.29416 20.5404 5.6762 21.0621 6.1879 21.4318C6.6996 21.8014 7.31488 22.0003 7.94615 22H16.0662C16.6932 21.9999 17.3044 21.8034 17.814 21.4381C18.3236 21.0727 18.7059 20.5568 18.9072 19.963L21.8801 11.199C22.0838 10.5984 22.0919 9.9487 21.9032 9.34323C21.7146 8.73775 21.3389 8.20763 20.8302 7.82899L13.7972 2.59199L13.7062 2.53099L13.6882 2.52099L13.5822 2.45099C13.0696 2.13343 12.4732 1.9777 11.8708 2.0041C11.2684 2.0305 10.688 2.23881 10.2052 2.59999Z" fill="currentColor"/>
</svg>
