<svg width="24" height="24" viewBox="0 0 24 24" fill="none" xmlns="http://www.w3.org/2000/svg">
<path d="M13.1629 2.16807L21.1839 7.99607C21.8779 8.50007 22.1679 9.39307 21.9029 10.2081L18.8389 19.6381C18.7098 20.0353 18.4583 20.3816 18.1204 20.6271C17.7825 20.8727 17.3756 21.005 16.9579 21.0051H7.04186C6.62415 21.005 6.21719 20.8727 5.87928 20.6271C5.54138 20.3816 5.28989 20.0353 5.16086 19.6381L2.09686 10.2081C1.96771 9.81068 1.96771 9.3826 2.09688 8.98522C2.22605 8.58783 2.47774 8.24156 2.81586 7.99607L10.8369 2.16807C11.1749 1.92237 11.582 1.79004 11.9999 1.79004C12.4177 1.79004 12.8249 1.92237 13.1629 2.16807Z" stroke="currentColor" stroke-width="1.5" stroke-linecap="round" stroke-linejoin="round"/>
<path d="M10 10.0001V14.0001C10 14.5306 10.2107 15.0393 10.5858 15.4143C10.9609 15.7894 11.4696 16.0001 12 16.0001C12.5304 16.0001 13.0391 15.7894 13.4142 15.4143C13.7893 15.0393 14 14.5306 14 14.0001V10.0001C14 9.46969 13.7893 8.96098 13.4142 8.58591C13.0391 8.21084 12.5304 8.00012 12 8.00012C11.4696 8.00012 10.9609 8.21084 10.5858 8.58591C10.2107 8.96098 10 9.46969 10 10.0001Z" stroke="currentColor" stroke-width="1.5" stroke-linecap="round" stroke-linejoin="round"/>
</svg>
