<svg width="24" height="24" viewBox="0 0 24 24" fill="none" xmlns="http://www.w3.org/2000/svg">
<path d="M12.59 12.59C11.82 14.008 10.055 15 8 15C5.239 15 3 13.21 3 11C3.00013 12.5805 3.46843 14.1256 4.34581 15.4402C5.22318 16.7549 6.47031 17.7802 7.92981 18.3867C9.38931 18.9933 10.9958 19.154 12.5465 18.8484C14.0972 18.5429 15.5227 17.7849 16.643 16.67M18.283 14.313C18.7568 13.2729 19.0013 12.143 19 11C19.0004 10.3483 18.7885 9.71417 18.3964 9.19358C18.0043 8.67299 17.4534 8.29424 16.8269 8.1146C16.2004 7.93496 15.5325 7.96421 14.9241 8.19793C14.3158 8.43165 13.8001 8.85712 13.455 9.41M16 8C16 6 18 4 20 4M3 3L21 21" stroke="currentColor" stroke-width="1.5" stroke-linecap="round" stroke-linejoin="round"/>
</svg>
