<svg width="24" height="24" viewBox="0 0 24 24" fill="none" xmlns="http://www.w3.org/2000/svg">
<path d="M6.141 4.16282L18.141 5.87682C18.3794 5.91077 18.5975 6.0296 18.7553 6.21147C18.9131 6.39334 19 6.62604 19 6.86682V17.1328C19 17.3736 18.9131 17.6063 18.7553 17.7882C18.5975 17.97 18.3794 18.0889 18.141 18.1228L6.141 19.8368C5.9992 19.857 5.85471 19.8465 5.71731 19.806C5.57992 19.7655 5.45283 19.696 5.34464 19.6021C5.23645 19.5083 5.14969 19.3922 5.09023 19.2619C5.03077 19.1316 5 18.9901 5 18.8468V5.15282C5 5.00959 5.03077 4.86802 5.09023 4.73771C5.14969 4.6074 5.23645 4.49138 5.34464 4.39751C5.45283 4.30364 5.57992 4.23411 5.71731 4.19362C5.85471 4.15313 5.9992 4.14263 6.141 4.16282Z" stroke="currentColor" stroke-width="1.5" stroke-linecap="round" stroke-linejoin="round"/>
</svg>
