<svg width="24" height="24" viewBox="0 0 24 24" fill="none" xmlns="http://www.w3.org/2000/svg">
<path d="M15 8H15.01M11.5 21H6C5.20435 21 4.44129 20.6839 3.87868 20.1213C3.31607 19.5587 3 18.7956 3 18V6C3 5.20435 3.31607 4.44129 3.87868 3.87868C4.44129 3.31607 5.20435 3 6 3H18C18.7956 3 19.5587 3.31607 20.1213 3.87868C20.6839 4.44129 21 5.20435 21 6V11M3 16L8 11C8.928 10.107 10.072 10.107 11 11L12.5 12.5M18 22L21.35 18.716C21.5554 18.5166 21.7188 18.2782 21.8306 18.0146C21.9423 17.7511 22.0001 17.4678 22.0006 17.1815C22.0011 16.8953 21.9442 16.6118 21.8333 16.3479C21.7224 16.084 21.5598 15.845 21.355 15.645C20.9371 15.2363 20.3762 15.007 19.7917 15.0059C19.2072 15.0048 18.6454 15.2319 18.226 15.639L18.002 15.859L17.779 15.639C17.3612 15.2306 16.8005 15.0015 16.2162 15.0004C15.632 14.9992 15.0704 15.2262 14.651 15.633C14.4455 15.8323 14.282 16.0707 14.1702 16.3342C14.0583 16.5977 14.0004 16.881 13.9999 17.1672C13.9993 17.4535 14.0561 17.7369 14.1669 18.0009C14.2777 18.2648 14.4403 18.5039 14.645 18.704L18 22Z" stroke="currentColor" stroke-width="1.5" stroke-linecap="round" stroke-linejoin="round"/>
</svg>
