<svg width="24" height="24" viewBox="0 0 24 24" fill="none" xmlns="http://www.w3.org/2000/svg">
<path d="M15 8H15.01M10 21H6C5.20435 21 4.44129 20.6839 3.87868 20.1213C3.31607 19.5587 3 18.7956 3 18V6C3 5.20435 3.31607 4.44129 3.87868 3.87868C4.44129 3.31607 5.20435 3 6 3H18C18.7956 3 19.5587 3.31607 20.1213 3.87868C20.6839 4.44129 21 5.20435 21 6V11M3 16L8 11C8.928 10.107 10.072 10.107 11 11L12 12M14 21V17C14 16.4696 14.2107 15.9609 14.5858 15.5858C14.9609 15.2107 15.4696 15 16 15C16.5304 15 17.0391 15.2107 17.4142 15.5858C17.7893 15.9609 18 16.4696 18 17V21M14 19H18M21 15V21" stroke="currentColor" stroke-width="1.5" stroke-linecap="round" stroke-linejoin="round"/>
</svg>
