<svg width="24" height="24" viewBox="0 0 24 24" fill="none" xmlns="http://www.w3.org/2000/svg">
<path d="M15 8H15.01M6 13L8.644 10.356C8.75637 10.2435 8.88981 10.1543 9.03669 10.0934C9.18357 10.0326 9.34101 10.0012 9.5 10.0012C9.65899 10.0012 9.81643 10.0326 9.96331 10.0934C10.1102 10.1543 10.2436 10.2435 10.356 10.356L14 14M13 13L14.644 11.356C14.7564 11.2435 14.8898 11.1543 15.0367 11.0934C15.1836 11.0326 15.341 11.0012 15.5 11.0012C15.659 11.0012 15.8164 11.0326 15.9633 11.0934C16.1102 11.1543 16.2436 11.2435 16.356 11.356L18 13M4 8V6C4 5.46957 4.21071 4.96086 4.58579 4.58579C4.96086 4.21071 5.46957 4 6 4H8M4 16V18C4 18.5304 4.21071 19.0391 4.58579 19.4142C4.96086 19.7893 5.46957 20 6 20H8M16 4H18C18.5304 4 19.0391 4.21071 19.4142 4.58579C19.7893 4.96086 20 5.46957 20 6V8M16 20H18C18.5304 20 19.0391 19.7893 19.4142 19.4142C19.7893 19.0391 20 18.5304 20 18V16" stroke="currentColor" stroke-width="1.5" stroke-linecap="round" stroke-linejoin="round"/>
</svg>
