<svg width="24" height="24" viewBox="0 0 24 24" fill="none" xmlns="http://www.w3.org/2000/svg">
<path d="M15 8H15.01M7 3H18C18.7956 3 19.5587 3.31607 20.1213 3.87868C20.6839 4.44129 21 5.20435 21 6V17M20.144 20.099C19.8649 20.3847 19.5314 20.6117 19.1632 20.7664C18.7949 20.9212 18.3994 21.0006 18 21H6C5.20435 21 4.44129 20.6839 3.87868 20.1213C3.31607 19.5587 3 18.7956 3 18V6C3 5.155 3.349 4.392 3.91 3.847M3 16L8 11C8.928 10.107 10.072 10.107 11 11L16 16M16.33 12.3381C16.904 12.2841 17.485 12.5041 18 13.0001L21 16.0001M3 3L21 21" stroke="currentColor" stroke-width="1.5" stroke-linecap="round" stroke-linejoin="round"/>
</svg>
