<svg width="24" height="24" viewBox="0 0 24 24" fill="none" xmlns="http://www.w3.org/2000/svg">
<path d="M15 11V11.01M10.0002 6H11.4992L15.9992 3V6.803C17.2368 7.51912 18.179 8.65245 18.6572 10H19.9982C20.2634 10 20.5177 10.1054 20.7053 10.2929C20.8928 10.4804 20.9982 10.7348 20.9982 11V13C20.9982 13.2652 20.8928 13.5196 20.7053 13.7071C20.5177 13.8946 20.2634 14 19.9982 14H18.6562C18.5992 14.16 18.5362 14.318 18.4662 14.472M16.9992 17V18.5C16.9992 18.8978 16.8411 19.2794 16.5598 19.5607C16.2785 19.842 15.897 20 15.4992 20C15.1013 20 14.7198 19.842 14.4385 19.5607C14.1572 19.2794 13.9992 18.8978 13.9992 18.5V17.917C13.6687 17.9724 13.3342 18.0001 12.9992 18H8.99916C8.6641 18.0001 8.32962 17.9724 7.99916 17.917V18.5C7.99916 18.8978 7.84113 19.2794 7.55982 19.5607C7.27852 19.842 6.89699 20 6.49916 20C6.10134 20 5.71981 19.842 5.4385 19.5607C5.1572 19.2794 4.99916 18.8978 4.99916 18.5V16.473C4.25634 15.8089 3.69059 14.9703 3.35298 14.0329C3.01537 13.0955 2.91653 12.0887 3.06538 11.1035C3.21423 10.1183 3.60609 9.1857 4.20558 8.38985C4.80507 7.594 5.59331 6.95997 6.49916 6.545M3 3L21 21" stroke="currentColor" stroke-width="1.5" stroke-linecap="round" stroke-linejoin="round"/>
</svg>
