<svg width="24" height="24" viewBox="0 0 24 24" fill="none" xmlns="http://www.w3.org/2000/svg">
<path d="M10.495 6.50501L12.495 4.50501C13.4264 3.59219 14.6805 3.08384 15.9846 3.09043C17.2888 3.09701 18.5376 3.618 19.4598 4.54018C20.382 5.46236 20.903 6.71122 20.9095 8.01536C20.9161 9.31951 20.4078 10.5736 19.495 11.505L17.495 13.505M15.495 15.505L11.495 19.505C10.5635 20.4178 9.30947 20.9262 8.00532 20.9196C6.70118 20.913 5.45232 20.392 4.53014 19.4698C3.60796 18.5477 3.08697 17.2988 3.08039 15.9947C3.0738 14.6905 3.58215 13.4365 4.49497 12.505L8.49497 8.50501M8.5 8.5L15.5 15.5M3 3L21 21" stroke="currentColor" stroke-width="1.5" stroke-linecap="round" stroke-linejoin="round"/>
</svg>
