<svg width="24" height="24" viewBox="0 0 24 24" fill="none" xmlns="http://www.w3.org/2000/svg">
<path d="M12.7181 20.7129C11.091 21.173 9.3572 21.0802 7.78843 20.4492C6.21966 19.8182 4.90455 18.6845 4.04917 17.2259C3.19379 15.7673 2.84647 14.0662 3.06162 12.389C3.27678 10.7118 4.04227 9.15338 5.23813 7.95792L5.95813 7.23792C7.13101 6.06502 8.65363 5.30553 10.2961 5.07408C11.9386 4.84264 13.6118 5.1518 15.0631 5.95492L17.4501 3.60992C17.8303 3.23319 18.341 3.01749 18.8761 3.00767C19.4112 2.99786 19.9295 3.19469 20.3232 3.55723C20.7169 3.91976 20.9557 4.42011 20.99 4.95421C21.0242 5.48831 20.8513 6.01506 20.5071 6.42492L20.3911 6.55092L18.0451 8.93791C18.8205 10.3394 19.1361 11.9489 18.9473 13.5394C18.7586 15.1299 18.075 16.6209 16.9931 17.8019M9.2998 5.29993L18.6998 14.6999M11 17.9999C11 18.3938 11.0776 18.784 11.2284 19.1479C11.3791 19.5119 11.6001 19.8426 11.8787 20.1212C12.1573 20.3998 12.488 20.6208 12.8519 20.7715C13.2159 20.9223 13.606 20.9999 14 20.9999C14.394 20.9999 14.7841 20.9223 15.1481 20.7715C15.512 20.6208 15.8427 20.3998 16.1213 20.1212C16.3999 19.8426 16.6209 19.5119 16.7716 19.1479C16.9224 18.784 17 18.3938 17 17.9999C17 17.6059 16.9224 17.2158 16.7716 16.8518C16.6209 16.4879 16.3999 16.1571 16.1213 15.8786C15.8427 15.6 15.512 15.379 15.1481 15.2282C14.7841 15.0775 14.394 14.9999 14 14.9999C13.606 14.9999 13.2159 15.0775 12.8519 15.2282C12.488 15.379 12.1573 15.6 11.8787 15.8786C11.6001 16.1571 11.3791 16.4879 11.2284 16.8518C11.0776 17.2158 11 17.6059 11 17.9999Z" stroke="currentColor" stroke-width="1.5" stroke-linecap="round" stroke-linejoin="round"/>
</svg>
