<svg width="24" height="24" viewBox="0 0 24 24" fill="none" xmlns="http://www.w3.org/2000/svg">
<path d="M12 19C6.477 19 2 14.523 2 9C3.31322 9 4.61358 9.25866 5.82683 9.7612C7.04009 10.2638 8.14248 11.0003 9.07107 11.9289C9.99965 12.8575 10.7362 13.9599 11.2388 15.1732C11.7413 16.3864 12 17.6868 12 19ZM12 19C13.9219 19.0032 15.8037 18.45 17.418 17.407M12 19C12 17.012 12.58 15.16 13.58 13.603M19.555 15.552C21.1351 13.7353 22.0036 11.4077 22 9C19.5969 8.99628 17.2734 9.86146 15.458 11.436M15 11.013C14.9998 9.70198 14.7339 8.4046 14.2183 7.19924C13.7026 5.99388 12.948 4.90555 12 4C11.3116 4.65699 10.7237 5.41175 10.2551 6.24M9.01012 11.5C8.97134 10.7236 9.02606 9.94534 9.17312 9.182M3 3L21 21" stroke="currentColor" stroke-width="1.5" stroke-linecap="round" stroke-linejoin="round"/>
</svg>
