<svg width="24" height="24" viewBox="0 0 24 24" fill="none" xmlns="http://www.w3.org/2000/svg">
<path d="M18.8161 13.5801C20.7721 15.4051 21.9731 17.0291 22.0001 18.0251M18.5721 18.6181C16.4741 17.9841 13.6281 16.5881 10.6531 14.6421C5.18306 11.0631 1.34906 6.97806 2.09306 5.51906C2.41306 4.89106 3.68406 4.91906 5.38706 5.40606M7.04192 7.05899C5.75195 8.37731 5.03443 10.1515 5.04529 11.9959C5.05615 13.8403 5.79452 15.6059 7.09992 16.9089C8.40532 18.2119 10.1723 18.9471 12.0167 18.9546C13.8611 18.9621 15.634 18.2414 16.9499 16.949M18.5309 14.524C19.0207 13.2587 19.1322 11.8783 18.8518 10.5508C18.5715 9.22329 17.9114 8.00586 16.9518 7.04663C15.9923 6.08739 14.7746 5.42769 13.447 5.14778C12.1194 4.86787 10.7391 4.97981 9.47392 5.46999M3 3L21 21" stroke="currentColor" stroke-width="1.5" stroke-linecap="round" stroke-linejoin="round"/>
</svg>
