<svg width="24" height="24" viewBox="0 0 24 24" fill="none" xmlns="http://www.w3.org/2000/svg">
<path d="M3 21.0002H21M15.1569 11.8103L19.9869 13.1053C20.2442 13.17 20.4861 13.2852 20.6984 13.4443C20.9107 13.6033 21.0892 13.803 21.2236 14.0318C21.358 14.2605 21.4455 14.5137 21.4811 14.7765C21.5167 15.0394 21.4997 15.3068 21.431 15.563C21.3623 15.8192 21.2433 16.0592 21.0809 16.269C20.9185 16.4788 20.716 16.6542 20.4852 16.785C20.2544 16.9158 19.9999 16.9993 19.7365 17.0308C19.4731 17.0623 19.2061 17.041 18.9509 16.9683L4.46194 13.0863L3.11694 6.5143L6.01494 7.2903L7.42894 9.7403L10.3269 10.5163L10.2069 3.2373L13.1049 4.0143L15.1569 11.8103Z" stroke="currentColor" stroke-width="1.5" stroke-linecap="round" stroke-linejoin="round"/>
</svg>
