<svg width="24" height="24" viewBox="0 0 24 24" fill="none" xmlns="http://www.w3.org/2000/svg">
<path d="M17 17V19C17 19.5304 16.7893 20.0391 16.4142 20.4142C16.0391 20.7893 15.5304 21 15 21H9C8.46957 21 7.96086 20.7893 7.58579 20.4142C7.21071 20.0391 7 19.5304 7 19V15H15M11.9 7.908C11.6799 6.71708 11.1046 5.62065 10.2496 4.76285C9.39469 3.90506 8.30018 3.32607 7.11 3.102M11 11H9C7.4087 11 5.88258 10.3679 4.75736 9.24264C3.63214 8.11742 3 6.5913 3 5V3L21 21M12.531 8.528C13.0066 7.47615 13.7755 6.58383 14.7456 5.95806C15.7157 5.33229 16.8456 4.99964 18 5H21V6C21.0002 7.42451 20.4935 8.80261 19.5707 9.88777C18.6479 10.9729 17.369 11.6944 15.963 11.923M12 15V12" stroke="currentColor" stroke-width="1.5" stroke-linecap="round" stroke-linejoin="round"/>
</svg>
