<svg width="24" height="24" viewBox="0 0 24 24" fill="none" xmlns="http://www.w3.org/2000/svg">
<path d="M3 21.0002H21M14.6389 10.2583L19.4689 8.96425C19.7244 8.89047 19.992 8.86837 20.2561 8.89925C20.5202 8.93013 20.7755 9.01336 21.0071 9.14408C21.2386 9.27481 21.4418 9.45039 21.6047 9.66056C21.7676 9.87073 21.8869 10.1113 21.9557 10.3681C22.0245 10.625 22.0415 10.893 22.0055 11.1564C21.9695 11.4199 21.8813 11.6735 21.7461 11.9025C21.6109 12.1315 21.4315 12.3312 21.2182 12.49C21.0049 12.6488 20.7621 12.7634 20.5039 12.8272L6.01494 16.7102L1.56494 11.6902L4.46194 10.9142L6.91194 12.3282L9.80894 11.5522L6.06594 5.30825L8.96394 4.53125L14.6389 10.2583Z" stroke="currentColor" stroke-width="1.5" stroke-linecap="round" stroke-linejoin="round"/>
</svg>
