<svg width="24" height="24" viewBox="0 0 24 24" fill="none" xmlns="http://www.w3.org/2000/svg">
<path d="M12 19C9.34784 19 6.8043 17.9464 4.92893 16.0711C3.05357 14.1957 2 11.6522 2 9C3.31322 9 4.61358 9.25866 5.82683 9.7612C7.04009 10.2638 8.14248 11.0003 9.07107 11.9289C9.99965 12.8575 10.7362 13.9599 11.2388 15.1732C11.7413 16.3864 12 17.6868 12 19ZM12 19C14.6522 19 17.1957 17.9464 19.0711 16.0711C20.9464 14.1957 22 11.6522 22 9C19.3478 9 16.8043 10.0536 14.9289 11.9289C13.0536 13.8043 12 16.3478 12 19ZM14.99 11.5C15.0595 10.1085 14.8284 8.71832 14.3124 7.42412C13.7965 6.12992 13.0078 4.96205 12 4C10.9922 4.96205 10.2035 6.12992 9.68756 7.42412C9.17161 8.71832 8.94051 10.1085 9.01 11.5" stroke="currentColor" stroke-width="1.5" stroke-linecap="round" stroke-linejoin="round"/>
</svg>
