<svg width="24" height="24" viewBox="0 0 24 24" fill="none" xmlns="http://www.w3.org/2000/svg">
<path d="M9.5 5C9.63261 5 9.75979 4.94732 9.85355 4.85355C9.94732 4.75979 10 4.63261 10 4.5C10 4.36739 9.94732 4.24021 9.85355 4.14645C9.75979 4.05268 9.63261 4 9.5 4C9.36739 4 9.24021 4.05268 9.14645 4.14645C9.05268 4.24021 9 4.36739 9 4.5C9 4.63261 9.05268 4.75979 9.14645 4.85355C9.24021 4.94732 9.36739 5 9.5 5Z" fill="currentColor"/>
<path d="M13 21L16.5 19L12 15L14 10.5M14 10.5L9 10L7 6M14 10.5L18 13L20.5 16M4 20L9 19L10.5 17M15 7C15 7.26522 15.1054 7.51957 15.2929 7.70711C15.4804 7.89464 15.7348 8 16 8C16.2652 8 16.5196 7.89464 16.7071 7.70711C16.8946 7.51957 17 7.26522 17 7C17 6.73478 16.8946 6.48043 16.7071 6.29289C16.5196 6.10536 16.2652 6 16 6C15.7348 6 15.4804 6.10536 15.2929 6.29289C15.1054 6.48043 15 6.73478 15 7ZM9.5 5C9.63261 5 9.75979 4.94732 9.85355 4.85355C9.94732 4.75979 10 4.63261 10 4.5C10 4.36739 9.94732 4.24021 9.85355 4.14645C9.75979 4.05268 9.63261 4 9.5 4C9.36739 4 9.24021 4.05268 9.14645 4.14645C9.05268 4.24021 9 4.36739 9 4.5C9 4.63261 9.05268 4.75979 9.14645 4.85355C9.24021 4.94732 9.36739 5 9.5 5Z" stroke="currentColor" stroke-width="1.5" stroke-linecap="round" stroke-linejoin="round"/>
</svg>
