<svg width="24" height="24" viewBox="0 0 24 24" fill="none" xmlns="http://www.w3.org/2000/svg">
<path d="M20.341 4.2469L12.341 11.2469C12.2336 11.3408 12.1475 11.4565 12.0885 11.5864C12.0295 11.7163 11.999 11.8573 11.999 11.9999C11.999 12.1425 12.0295 12.2835 12.0885 12.4134C12.1475 12.5433 12.2336 12.659 12.341 12.7529L20.341 19.7529C20.988 20.3179 22 19.8589 22 18.9999V4.9999C22 4.1399 20.988 3.6819 20.341 4.2469Z" fill="currentColor"/>
<path d="M9.341 4.2469L1.341 11.2469C1.23359 11.3408 1.14751 11.4565 1.08852 11.5864C1.02954 11.7163 0.999023 11.8573 0.999023 11.9999C0.999023 12.1425 1.02954 12.2835 1.08852 12.4134C1.14751 12.5433 1.23359 12.659 1.341 12.7529L9.341 19.7529C9.988 20.3179 11 19.8589 11 18.9999V4.9999C11 4.1399 9.988 3.6819 9.341 4.2469Z" fill="currentColor"/>
</svg>
