<svg width="24" height="24" viewBox="0 0 24 24" fill="none" xmlns="http://www.w3.org/2000/svg">
<path d="M17 17C17 17.394 16.9224 17.7841 16.7716 18.1481C16.6209 18.512 16.3999 18.8427 16.1213 19.1213C15.8427 19.3999 15.512 19.6209 15.1481 19.7716C14.7841 19.9224 14.394 20 14 20C13.606 20 13.2159 19.9224 12.8519 19.7716C12.488 19.6209 12.1573 19.3999 11.8787 19.1213C11.6001 18.8427 11.3791 18.512 11.2284 18.1481C11.0776 17.7841 11 17.394 11 17C11 16.606 11.0776 16.2159 11.2284 15.8519C11.3791 15.488 11.6001 15.1573 11.8787 14.8787C12.1573 14.6001 12.488 14.3791 12.8519 14.2284C13.2159 14.0776 13.606 14 14 14C14.394 14 14.7841 14.0776 15.1481 14.2284C15.512 14.3791 15.8427 14.6001 16.1213 14.8787C16.3999 15.1573 16.6209 15.488 16.7716 15.8519C16.9224 16.2159 17 16.606 17 17ZM17 17V4H21M13 5H3M3 9H13M9 13H3" stroke="currentColor" stroke-width="1.5" stroke-linecap="round" stroke-linejoin="round"/>
</svg>
