<svg width="24" height="24" viewBox="0 0 24 24" fill="none" xmlns="http://www.w3.org/2000/svg">
<path d="M3 5.00005V19.0001C2.99995 19.176 3.04632 19.3489 3.13444 19.5012C3.22256 19.6535 3.3493 19.7798 3.50188 19.8675C3.65445 19.9551 3.82744 20.0009 4.00339 20.0003C4.17935 19.9997 4.35203 19.9527 4.504 19.8641L16.504 12.8641C16.6551 12.776 16.7804 12.6499 16.8675 12.4983C16.9547 12.3467 17.0005 12.1749 17.0005 12.0001C17.0005 11.8252 16.9547 11.6534 16.8675 11.5018C16.7804 11.3502 16.6551 11.2241 16.504 11.1361L4.504 4.13605C4.35203 4.04737 4.17935 4.00036 4.00339 3.99976C3.82744 3.99916 3.65445 4.045 3.50188 4.13265C3.3493 4.2203 3.22256 4.34665 3.13444 4.49895C3.04632 4.65125 2.99995 4.8241 3 5.00005Z" fill="currentColor"/>
<path d="M20 4.00006C20.2449 4.00009 20.4813 4.09002 20.6644 4.25278C20.8474 4.41554 20.9643 4.63981 20.993 4.88306L21 5.00006V19.0001C20.9997 19.2549 20.9021 19.5001 20.7272 19.6854C20.5522 19.8708 20.313 19.9823 20.0586 19.9972C19.8042 20.0122 19.5536 19.9294 19.3582 19.7658C19.1627 19.6022 19.0371 19.3702 19.007 19.1171L19 19.0001V5.00006C19 4.73484 19.1054 4.48049 19.2929 4.29295C19.4804 4.10542 19.7348 4.00006 20 4.00006Z" fill="currentColor"/>
</svg>
