<svg width="24" height="24" viewBox="0 0 24 24" fill="none" xmlns="http://www.w3.org/2000/svg">
<path d="M19.496 4.13605L7.49599 11.1361C7.34492 11.2241 7.21957 11.3502 7.13245 11.5018C7.04533 11.6534 6.99948 11.8252 6.99948 12.0001C6.99948 12.1749 7.04533 12.3467 7.13245 12.4983C7.21957 12.6499 7.34492 12.776 7.49599 12.8641L19.496 19.8641C19.648 19.9527 19.8206 19.9997 19.9966 20.0003C20.1725 20.0009 20.3455 19.9551 20.4981 19.8675C20.6507 19.7798 20.7774 19.6535 20.8655 19.5012C20.9537 19.3489 21 19.176 21 19.0001V5.00005C21 4.8241 20.9537 4.65125 20.8655 4.49895C20.7774 4.34665 20.6507 4.2203 20.4981 4.13265C20.3455 4.045 20.1725 3.99916 19.9966 3.99976C19.8206 4.00036 19.648 4.04737 19.496 4.13605Z" fill="currentColor"/>
<path d="M4 4.00006C4.24493 4.00009 4.48134 4.09002 4.66437 4.25278C4.84741 4.41554 4.96434 4.63981 4.993 4.88306L5 5.00006V19.0001C4.99972 19.2549 4.90212 19.5001 4.72715 19.6854C4.55218 19.8708 4.31305 19.9823 4.05861 19.9972C3.80416 20.0122 3.55362 19.9294 3.35817 19.7658C3.16271 19.6022 3.0371 19.3702 3.007 19.1171L3 19.0001V5.00006C3 4.73484 3.10536 4.48049 3.29289 4.29295C3.48043 4.10542 3.73478 4.00006 4 4.00006Z" fill="currentColor"/>
</svg>
