<svg width="24" height="24" viewBox="0 0 24 24" fill="none" xmlns="http://www.w3.org/2000/svg">
<path d="M11.247 3.341L4.24696 11.341C3.68196 11.988 4.14096 13 4.99996 13H19C19.86 13 20.318 11.988 19.753 11.341L12.753 3.341C12.6591 3.23359 12.5433 3.14751 12.4135 3.08852C12.2836 3.02954 12.1426 2.99902 12 2.99902C11.8573 2.99902 11.7163 3.02954 11.5864 3.08852C11.4566 3.14751 11.3408 3.23359 11.247 3.341Z" fill="currentColor"/>
<path d="M17.9999 15H5.99994C5.46951 15 4.9608 15.2107 4.58573 15.5858C4.21065 15.9609 3.99994 16.4696 3.99994 17V19C3.99994 19.5304 4.21065 20.0391 4.58573 20.4142C4.9608 20.7893 5.46951 21 5.99994 21H17.9999C18.5304 21 19.0391 20.7893 19.4142 20.4142C19.7892 20.0391 19.9999 19.5304 19.9999 19V17C19.9999 16.4696 19.7892 15.9609 19.4142 15.5858C19.0391 15.2107 18.5304 15 17.9999 15Z" fill="currentColor"/>
</svg>
