<svg width="24" height="24" viewBox="0 0 24 24" fill="none" xmlns="http://www.w3.org/2000/svg">
<path d="M4 20L7.5 16.5M15 4L11.5 7.5M20 9L16.5 12.5M9.78484 6L17.9998 14.215L15.9458 16.269C15.4104 16.8259 14.7692 17.2704 14.0599 17.5765C13.3505 17.8827 12.5873 18.0442 11.8147 18.0518C11.0422 18.0594 10.2759 17.9128 9.56071 17.6207C8.84551 17.3285 8.19575 16.8967 7.64946 16.3504C7.10317 15.8041 6.67132 15.1543 6.37918 14.4391C6.08703 13.7239 5.94046 12.9576 5.94803 12.1851C5.95561 11.4126 6.11719 10.6493 6.4233 9.93997C6.72942 9.23063 7.17394 8.58947 7.73084 8.054L9.78484 6Z" stroke="currentColor" stroke-width="1.5" stroke-linecap="round" stroke-linejoin="round"/>
</svg>
