<svg width="24" height="24" viewBox="0 0 24 24" fill="none" xmlns="http://www.w3.org/2000/svg">
<path d="M12 8H19L18.379 10.485C18.2708 10.9177 18.0212 11.3018 17.6697 11.5763C17.3182 11.8508 16.885 11.9999 16.439 12H16M12 12H7.561C7.11501 11.9999 6.68184 11.8508 6.33033 11.5763C5.97882 11.3018 5.72915 10.9177 5.621 10.485L5 8H8M7 8V7M7.864 3.894C8.14271 3.61046 8.47518 3.38534 8.84194 3.23184C9.20871 3.07833 9.60241 2.99952 10 3M8 12L9 21M15.599 15.613L15 21M7 21H17M3 3L21 21" stroke="currentColor" stroke-width="1.5" stroke-linecap="round" stroke-linejoin="round"/>
</svg>
