<svg width="24" height="24" viewBox="0 0 24 24" fill="none" xmlns="http://www.w3.org/2000/svg">
<path d="M3.03912 4.277L6.94312 17.84C7.12812 18.677 7.86312 19.356 8.77412 19.482L8.94412 19.498C9.33405 19.5214 9.72318 19.4405 10.0715 19.2637C10.4198 19.0869 10.7148 18.8206 10.9261 18.492L10.9711 18.414L12.3711 16.342L16.4211 20.392C16.6131 20.5841 16.841 20.7364 17.0918 20.8404C17.3427 20.9443 17.6116 20.9978 17.8831 20.9978C18.1547 20.9978 18.4235 20.9443 18.6744 20.8404C18.9253 20.7364 19.1532 20.5841 19.3451 20.392L20.3921 19.345C20.7801 18.957 20.9981 18.432 20.9981 17.884L20.9901 17.702C20.9473 17.2183 20.7356 16.7652 20.3921 16.422L16.3451 12.374L18.4481 10.962C19.1741 10.577 19.6281 9.684 19.5011 8.773C19.4395 8.32875 19.2435 7.91395 18.9395 7.58419C18.6355 7.25443 18.2379 7.02548 17.8001 6.928L4.27612 3.038C4.10428 2.98873 3.92236 2.98642 3.74932 3.03132C3.57628 3.07622 3.41845 3.16669 3.29224 3.2933C3.16603 3.41992 3.07608 3.57805 3.03174 3.75123C2.9874 3.92442 2.99029 4.10632 3.04012 4.278L3.03912 4.277Z" fill="currentColor"/>
</svg>
