<svg width="24" height="24" viewBox="0 0 24 24" fill="none" xmlns="http://www.w3.org/2000/svg">
<path d="M16.571 11.018L17.891 10.132C18.1065 10.0159 18.2814 9.8367 18.3921 9.61839C18.5029 9.40008 18.5442 9.15312 18.5106 8.91064C18.477 8.66816 18.37 8.44177 18.204 8.26184C18.038 8.08191 17.821 7.95704 17.582 7.904L4 4L7.904 17.563C7.95718 17.8019 8.08215 18.0189 8.26214 18.1847C8.44214 18.3506 8.66855 18.4574 8.91101 18.491C9.15347 18.5245 9.40037 18.4831 9.61862 18.3722C9.83686 18.2614 10.016 18.0865 10.132 17.871M18.0001 22.0001L21.3501 18.7161C21.5556 18.5168 21.719 18.2783 21.8307 18.0147C21.9425 17.7512 22.0003 17.4679 22.0007 17.1817C22.0012 16.8954 21.9443 16.612 21.8334 16.3481C21.7225 16.0841 21.5599 15.8451 21.3551 15.6451C20.9373 15.2364 20.3763 15.0071 19.7918 15.006C19.2074 15.0049 18.6455 15.2321 18.2261 15.6391L18.0021 15.8591L17.7791 15.6391C17.3613 15.2307 16.8006 15.0016 16.2163 15.0005C15.6321 14.9994 15.0705 15.2264 14.6511 15.6331C14.4456 15.8324 14.2821 16.0708 14.1703 16.3343C14.0585 16.5978 14.0006 16.8811 14 17.1673C13.9994 17.4536 14.0562 17.7371 14.167 18.001C14.2778 18.265 14.4404 18.504 14.6451 18.7041L18.0001 22.0001Z" stroke="currentColor" stroke-width="1.5" stroke-linecap="round" stroke-linejoin="round"/>
</svg>
