<svg width="24" height="24" viewBox="0 0 24 24" fill="none" xmlns="http://www.w3.org/2000/svg">
<path d="M14.778 12.222L17.891 10.132C18.1065 10.0159 18.2814 9.8367 18.3921 9.61839C18.5029 9.40008 18.5442 9.15312 18.5106 8.91064C18.477 8.66816 18.37 8.44177 18.204 8.26184C18.038 8.08191 17.821 7.95704 17.582 7.904L4 4L7.904 17.563C7.95718 17.8019 8.08215 18.0189 8.26214 18.1847C8.44214 18.3506 8.66855 18.4574 8.91101 18.491C9.15347 18.5245 9.40037 18.4831 9.61862 18.3722C9.83686 18.2614 10.016 18.0865 10.132 17.871L12.222 14.778M20.2 20.2L22 22M15 18C15 18.7956 15.3161 19.5587 15.8787 20.1213C16.4413 20.6839 17.2044 21 18 21C18.7956 21 19.5587 20.6839 20.1213 20.1213C20.6839 19.5587 21 18.7956 21 18C21 17.2044 20.6839 16.4413 20.1213 15.8787C19.5587 15.3161 18.7956 15 18 15C17.2044 15 16.4413 15.3161 15.8787 15.8787C15.3161 16.4413 15 17.2044 15 18Z" stroke="currentColor" stroke-width="1.5" stroke-linecap="round" stroke-linejoin="round"/>
</svg>
