<svg width="24" height="24" viewBox="0 0 24 24" fill="none" xmlns="http://www.w3.org/2000/svg">
<path d="M15.062 12.506L14.778 12.222L17.891 10.132C18.1065 10.0159 18.2814 9.8367 18.3921 9.61839C18.5029 9.40008 18.5442 9.15312 18.5106 8.91064C18.477 8.66816 18.37 8.44177 18.204 8.26184C18.038 8.08191 17.821 7.95704 17.582 7.904L4 4L7.904 17.563C7.95718 17.8019 8.08215 18.0189 8.26214 18.1847C8.44214 18.3506 8.66855 18.4574 8.91101 18.491C9.15347 18.5245 9.40037 18.4831 9.61862 18.3722C9.83686 18.2614 10.016 18.0865 10.132 17.871L12.222 14.778L13.5 16.056M19 22V22.01M19 19C19.4483 18.9986 19.8832 18.8468 20.235 18.569C20.5868 18.2911 20.8352 17.9033 20.9406 17.4675C21.0459 17.0318 21.0019 16.5733 20.8158 16.1655C20.6297 15.7576 20.3122 15.424 19.914 15.218C19.5162 15.0142 19.0611 14.951 18.6228 15.0387C18.1845 15.1264 17.7888 15.3598 17.5 15.701" stroke="currentColor" stroke-width="1.5" stroke-linecap="round" stroke-linejoin="round"/>
</svg>
