<svg width="24" height="24" viewBox="0 0 24 24" fill="none" xmlns="http://www.w3.org/2000/svg">
<path d="M14.778 12.222L17.891 10.132C18.1065 10.0159 18.2814 9.8367 18.3921 9.61839C18.5029 9.40008 18.5442 9.15312 18.5106 8.91064C18.477 8.66816 18.37 8.44177 18.204 8.26184C18.038 8.08191 17.821 7.95704 17.582 7.904L4 4L7.904 17.563C7.95718 17.8019 8.08215 18.0189 8.26214 18.1847C8.44214 18.3506 8.66855 18.4574 8.91101 18.491C9.15347 18.5245 9.40037 18.4831 9.61862 18.3722C9.83686 18.2614 10.016 18.0865 10.132 17.871L12.222 14.778L13.009 15.565M21 15H18.5C18.1022 15 17.7206 15.158 17.4393 15.4393C17.158 15.7206 17 16.1022 17 16.5C17 16.8978 17.158 17.2794 17.4393 17.5607C17.7206 17.842 18.1022 18 18.5 18H19.5C19.8978 18 20.2794 18.158 20.5607 18.4393C20.842 18.7206 21 19.1022 21 19.5C21 19.8978 20.842 20.2794 20.5607 20.5607C20.2794 20.842 19.8978 21 19.5 21H17M19 21V22M19 14V15" stroke="currentColor" stroke-width="1.5" stroke-linecap="round" stroke-linejoin="round"/>
</svg>
