<svg width="24" height="24" viewBox="0 0 24 24" fill="none" xmlns="http://www.w3.org/2000/svg">
<path d="M20.0399 16.0479C20.8921 14.3571 21.1894 12.4405 20.8894 10.571C20.5894 8.7015 19.7074 6.97422 18.3689 5.63496C17.0304 4.29571 15.3036 3.41271 13.4343 3.11161C11.5649 2.8105 9.64824 3.10664 7.95693 3.95788M5.63693 5.63588C3.95028 7.32491 3.00369 9.61478 3.00537 12.0017C3.00706 14.3887 3.9569 16.6772 5.64593 18.3639C7.33496 20.0505 9.62483 20.9971 12.0118 20.9954C14.3988 20.9937 16.6873 20.0439 18.3739 18.3549M9.88392 9.87382C9.32086 10.4361 9.00423 11.199 9.00366 11.9947C9.0031 12.7904 9.31866 13.5538 9.88092 14.1168C10.4432 14.6799 11.2061 14.9965 12.0018 14.9971C12.7975 14.9976 13.5609 14.6821 14.1239 14.1198M14.6939 10.6788C14.394 10.0698 13.8971 9.58002 13.2839 9.28882M3 11.9999H9M16 11.9999H21M3 2.99988L21 20.9999" stroke="currentColor" stroke-width="1.5" stroke-linecap="round" stroke-linejoin="round"/>
</svg>
