<svg width="24" height="24" viewBox="0 0 24 24" fill="none" xmlns="http://www.w3.org/2000/svg">
<path d="M3 12C3 13.1819 3.23279 14.3522 3.68508 15.4442C4.13738 16.5361 4.80031 17.5282 5.63604 18.364M3 12C3 10.8181 3.23279 9.64778 3.68508 8.55585C4.13738 7.46392 4.80031 6.47177 5.63604 5.63604M3 12H7M5.63604 18.364C6.47177 19.1997 7.46392 19.8626 8.55585 20.3149C9.64778 20.7672 10.8181 21 12 21M5.63604 18.364L8.46447 15.5355M12 21C13.1819 21 14.3522 20.7672 15.4442 20.3149C16.5361 19.8626 17.5282 19.1997 18.364 18.364M12 21V17M18.364 18.364C19.1997 17.5282 19.8626 16.5361 20.3149 15.4442C20.7672 14.3522 21 13.1819 21 12M18.364 18.364L15.5355 15.5355M21 12C21 10.8181 20.7672 9.64778 20.3149 8.55585C19.8626 7.46392 19.1997 6.47177 18.364 5.63604M21 12H17M18.364 5.63604C17.5282 4.80031 16.5361 4.13738 15.4442 3.68508C14.3522 3.23279 13.1819 3 12 3M18.364 5.63604L15.5355 8.46447M12 3C10.8181 3 9.64778 3.23279 8.55585 3.68508C7.46392 4.13738 6.47177 4.80031 5.63604 5.63604M12 3V7M5.63604 5.63604L8.46447 8.46447M7 12C7 13.3261 7.52678 14.5979 8.46447 15.5355M7 12C7 10.6739 7.52678 9.40215 8.46447 8.46447M8.46447 15.5355C9.40215 16.4732 10.6739 17 12 17M12 17C13.3261 17 14.5979 16.4732 15.5355 15.5355M15.5355 15.5355C16.4732 14.5979 17 13.3261 17 12M17 12C17 10.6739 16.4732 9.40215 15.5355 8.46447M15.5355 8.46447C14.5979 7.52678 13.3261 7 12 7M12 7C10.6739 7 9.40215 7.52678 8.46447 8.46447" stroke="currentColor" stroke-width="1.5" stroke-linecap="round" stroke-linejoin="round"/>
</svg>
