<svg width="24" height="24" viewBox="0 0 24 24" fill="none" xmlns="http://www.w3.org/2000/svg">
<path d="M9.199 9.623L9.307 9.721L13.293 13.707L13.387 13.79C13.5794 13.9391 13.8196 14.013 14.0626 13.9976C14.3056 13.9823 14.5346 13.8789 14.7067 13.7067C14.8789 13.5346 14.9823 13.3056 14.9976 13.0626C15.013 12.8196 14.9391 12.5794 14.79 12.387L14.707 12.293L14.415 12L15.707 10.707L15.813 10.612C16.27 10.232 16.731 10.232 17.199 10.623L17.307 10.721L21.809 15.224C21.5605 15.9955 21.0837 16.6734 20.4416 17.168C19.7995 17.6626 19.0224 17.9506 18.213 17.994L18 18H6C5.15317 17.9999 4.32818 17.7313 3.64372 17.2326C2.95927 16.734 2.45064 16.0311 2.191 15.225L7.707 9.707L7.813 9.612C8.27 9.232 8.731 9.232 9.199 9.623ZM18 2C19.0262 2 20.0132 2.39444 20.7568 3.10172C21.5004 3.80901 21.9437 4.77504 21.995 5.8L22 6V12.585L18.707 9.293L18.557 9.156C17.301 8.061 15.707 8.059 14.461 9.139L14.307 9.279L13 10.585L10.707 8.293L10.557 8.156C9.301 7.061 7.707 7.059 6.461 8.139L6.307 8.279L2 12.585V6C2 4.97376 2.39444 3.98677 3.10172 3.24319C3.80901 2.4996 4.77504 2.05631 5.8 2.005L6 2H18ZM15.01 5L14.883 5.007C14.64 5.03591 14.4159 5.15296 14.2534 5.33596C14.0909 5.51897 14.0011 5.75524 14.0011 6C14.0011 6.24476 14.0909 6.48103 14.2534 6.66404C14.4159 6.84704 14.64 6.96409 14.883 6.993L15 7L15.127 6.993C15.37 6.96409 15.5941 6.84704 15.7566 6.66404C15.9191 6.48103 16.0089 6.24476 16.0089 6C16.0089 5.75524 15.9191 5.51897 15.7566 5.33596C15.5941 5.15296 15.37 5.03591 15.127 5.007L15.01 5Z" fill="currentColor"/>
<path d="M8.01 20C8.26488 20.0003 8.51003 20.0979 8.69537 20.2728C8.8807 20.4478 8.99223 20.687 9.00717 20.9414C9.02211 21.1958 8.93933 21.4464 8.77573 21.6418C8.61214 21.8373 8.3801 21.9629 8.127 21.993L8 22C7.74512 21.9997 7.49997 21.9021 7.31463 21.7272C7.1293 21.5522 7.01777 21.313 7.00283 21.0586C6.98789 20.8042 7.07067 20.5536 7.23426 20.3582C7.39786 20.1627 7.6299 20.0371 7.883 20.007L8.01 20Z" fill="currentColor"/>
<path d="M12.01 20C12.2649 20.0003 12.51 20.0979 12.6954 20.2728C12.8807 20.4478 12.9922 20.687 13.0072 20.9414C13.0221 21.1958 12.9393 21.4464 12.7757 21.6418C12.6121 21.8373 12.3801 21.9629 12.127 21.993L12 22C11.7451 21.9997 11.5 21.9021 11.3146 21.7272C11.1293 21.5522 11.0178 21.313 11.0028 21.0586C10.9879 20.8042 11.0707 20.5536 11.2343 20.3582C11.3979 20.1627 11.6299 20.0371 11.883 20.007L12.01 20Z" fill="currentColor"/>
<path d="M16.01 20C16.2649 20.0003 16.51 20.0979 16.6954 20.2728C16.8807 20.4478 16.9922 20.687 17.0072 20.9414C17.0221 21.1958 16.9393 21.4464 16.7757 21.6418C16.6121 21.8373 16.3801 21.9629 16.127 21.993L16 22C15.7451 21.9997 15.5 21.9021 15.3146 21.7272C15.1293 21.5522 15.0178 21.313 15.0028 21.0586C14.9879 20.8042 15.0707 20.5536 15.2343 20.3582C15.3979 20.1627 15.6299 20.0371 15.883 20.007L16.01 20Z" fill="currentColor"/>
</svg>
