<svg width="24" height="24" viewBox="0 0 24 24" fill="none" xmlns="http://www.w3.org/2000/svg">
<path d="M10.0002 12.0001H10.0102M14.0002 12.0001H14.0102M10.0002 16.0001C10.587 16.4088 11.285 16.6278 12.0002 16.6278C12.7153 16.6278 13.4133 16.4088 14.0002 16.0001M11.0002 4.00012C13.0002 4.00012 14.5002 5.50012 14.5002 8.00012H14.6642C15.0487 8.02537 15.4222 8.13919 15.7555 8.33268C16.0888 8.52618 16.3729 8.79411 16.5855 9.11554C16.7981 9.43697 16.9335 9.80321 16.9811 10.1856C17.0288 10.5681 16.9874 10.9563 16.8602 11.3201C17.4129 11.6012 17.865 12.0466 18.1542 12.5951C18.4434 13.1436 18.5555 13.7683 18.4752 14.3831C19.0392 14.7017 19.4849 15.1942 19.7458 15.7871C20.0067 16.38 20.0686 17.0414 19.9225 17.6724C19.7763 18.3034 19.4298 18.8702 18.9347 19.288C18.4397 19.7057 17.8228 19.9521 17.1762 19.9901H7.00015C6.33716 19.9902 5.69283 19.7706 5.16784 19.3657C4.64285 18.9608 4.26678 18.3933 4.09838 17.7521C3.92999 17.1108 3.97876 16.4319 4.23707 15.8213C4.49538 15.2107 4.94868 14.7028 5.52615 14.3771C5.446 13.7624 5.55824 13.138 5.84744 12.5897C6.13664 12.0414 6.58859 11.5961 7.14115 11.3151C7.01393 10.9514 6.9725 10.5632 7.0201 10.1809C7.06769 9.79851 7.20302 9.43233 7.41553 9.11091C7.62803 8.7895 7.91195 8.52155 8.24511 8.328C8.57828 8.13444 8.95168 8.02052 9.33615 7.99512H9.50015C11.0002 7.99512 12.0002 5.99512 11.0002 3.99512V4.00012Z" stroke="currentColor" stroke-width="1.5" stroke-linecap="round" stroke-linejoin="round"/>
</svg>
