<svg width="24" height="24" viewBox="0 0 24 24" fill="none" xmlns="http://www.w3.org/2000/svg">
<path d="M2 19.9998C2.22717 20.3163 2.52797 20.5727 2.87642 20.7469C3.22488 20.9212 3.6105 21.008 4 20.9998C4.3895 21.008 4.77512 20.9212 5.12358 20.7469C5.47203 20.5727 5.77283 20.3163 6 19.9998C6.22717 19.6833 6.52797 19.4269 6.87642 19.2526C7.22488 19.0784 7.6105 18.9916 8 18.9998C8.3895 18.9916 8.77512 19.0784 9.12358 19.2526C9.47203 19.4269 9.77283 19.6833 10 19.9998C10.2272 20.3163 10.528 20.5727 10.8764 20.7469C11.2249 20.9212 11.6105 21.008 12 20.9998C12.3895 21.008 12.7751 20.9212 13.1236 20.7469C13.472 20.5727 13.7728 20.3163 14 19.9998C14.2272 19.6833 14.528 19.4269 14.8764 19.2526C15.2249 19.0784 15.6105 18.9916 16 18.9998C16.3895 18.9916 16.7751 19.0784 17.1236 19.2526C17.472 19.4269 17.7728 19.6833 18 19.9998C18.2272 20.3163 18.528 20.5727 18.8764 20.7469C19.2249 20.9212 19.6105 21.008 20 20.9998C20.303 20.9998 20.6 20.9548 20.876 20.8538M2 15.9998C2.22717 16.3163 2.52797 16.5727 2.87642 16.7469C3.22488 16.9212 3.6105 17.008 4 16.9998C4.3895 17.008 4.77512 16.9212 5.12358 16.7469C5.47203 16.5727 5.77283 16.3163 6 15.9998C6.22717 15.6833 6.52797 15.4269 6.87642 15.2526C7.22488 15.0784 7.6105 14.9916 8 14.9998C8.3895 14.9916 8.77512 15.0784 9.12358 15.2526C9.47203 15.4269 9.77283 15.6833 10 15.9998C10.2272 16.3163 10.528 16.5727 10.8764 16.7469C11.2249 16.9212 11.6105 17.008 12 16.9998C12.3895 17.008 12.7751 16.9212 13.1236 16.7469C13.472 16.5727 13.7728 16.3163 14 15.9998C14.2819 15.6072 14.6757 15.3088 15.13 15.1438M20.857 16.8608C21.3167 16.6967 21.7154 16.3963 22 15.9998M15 10.9998V4.49976C15 4.10193 15.158 3.7204 15.4393 3.4391C15.7206 3.15779 16.1022 2.99976 16.5 2.99976C16.8978 2.99976 17.2794 3.15779 17.5607 3.4391C17.842 3.7204 18 4.10193 18 4.49976M8.99996 11.9998V8.99979M7.06396 3.06379C7.28819 2.99567 7.52525 2.98104 7.75615 3.02106C7.98705 3.06109 8.20536 3.15465 8.39358 3.29426C8.5818 3.43387 8.73469 3.61563 8.83999 3.82498C8.9453 4.03433 9.00008 4.26544 8.99996 4.49979V4.99979L15 4.99976M9 9.99976H10M14 9.99976H15M3 2.99976L21 20.9998" stroke="currentColor" stroke-width="1.5" stroke-linecap="round" stroke-linejoin="round"/>
</svg>
