<svg width="24" height="24" viewBox="0 0 24 24" fill="none" xmlns="http://www.w3.org/2000/svg">
<path d="M2 20C2.22717 20.3165 2.52797 20.573 2.87642 20.7472C3.22488 20.9214 3.6105 21.0082 4 21C4.3895 21.0082 4.77512 20.9214 5.12358 20.7472C5.47203 20.573 5.77283 20.3165 6 20C6.22717 19.6835 6.52797 19.4271 6.87642 19.2529C7.22488 19.0787 7.6105 18.9919 8 19C8.3895 18.9919 8.77512 19.0787 9.12358 19.2529C9.47203 19.4271 9.77283 19.6835 10 20C10.2272 20.3165 10.528 20.573 10.8764 20.7472C11.2249 20.9214 11.6105 21.0082 12 21C12.3895 21.0082 12.7751 20.9214 13.1236 20.7472C13.472 20.573 13.7728 20.3165 14 20C14.2272 19.6835 14.528 19.4271 14.8764 19.2529C15.2249 19.0787 15.6105 18.9919 16 19C16.3895 18.9919 16.7751 19.0787 17.1236 19.2529C17.472 19.4271 17.7728 19.6835 18 20C18.2272 20.3165 18.528 20.573 18.8764 20.7472C19.2249 20.9214 19.6105 21.0082 20 21C20.3895 21.0082 20.7751 20.9214 21.1236 20.7472C21.472 20.573 21.7728 20.3165 22 20M2 16C2.22717 16.3165 2.52797 16.573 2.87642 16.7472C3.22488 16.9214 3.6105 17.0082 4 17C4.3895 17.0082 4.77512 16.9214 5.12358 16.7472C5.47203 16.573 5.77283 16.3165 6 16C6.22717 15.6835 6.52797 15.4271 6.87642 15.2529C7.22488 15.0787 7.6105 14.9919 8 15C8.3895 14.9919 8.77512 15.0787 9.12358 15.2529C9.47203 15.4271 9.77283 15.6835 10 16C10.2272 16.3165 10.528 16.573 10.8764 16.7472C11.2249 16.9214 11.6105 17.0082 12 17C12.3895 17.0082 12.7751 16.9214 13.1236 16.7472C13.472 16.573 13.7728 16.3165 14 16C14.2272 15.6835 14.528 15.4271 14.8764 15.2529C15.2249 15.0787 15.6105 14.9919 16 15C16.3895 14.9919 16.7751 15.0787 17.1236 15.2529C17.472 15.4271 17.7728 15.6835 18 16C18.2272 16.3165 18.528 16.573 18.8764 16.7472C19.2249 16.9214 19.6105 17.0082 20 17C20.3895 17.0082 20.7751 16.9214 21.1236 16.7472C21.472 16.573 21.7728 16.3165 22 16M15 12V4.5C15 4.10218 15.158 3.72064 15.4393 3.43934C15.7206 3.15804 16.1022 3 16.5 3C16.8978 3 17.2794 3.15804 17.5607 3.43934C17.842 3.72064 18 4.10218 18 4.5M9 12V4.5C9 4.10218 8.84196 3.72064 8.56066 3.43934C8.27936 3.15804 7.89782 3 7.5 3C7.10218 3 6.72064 3.15804 6.43934 3.43934C6.15804 3.72064 6 4.10218 6 4.5M15 5H9M9 10H15" stroke="currentColor" stroke-width="1.5" stroke-linecap="round" stroke-linejoin="round"/>
</svg>
