<svg width="24" height="24" viewBox="0 0 24 24" fill="none" xmlns="http://www.w3.org/2000/svg">
<path fill-rule="evenodd" clip-rule="evenodd" d="M7.05546 3.05546C7.57118 2.53973 8.27065 2.25 9 2.25H15C15.7293 2.25 16.4288 2.53973 16.9445 3.05546C17.4603 3.57118 17.75 4.27065 17.75 5V8.25H19C19.7293 8.25 20.4288 8.53973 20.9445 9.05546C21.4603 9.57118 21.75 10.2707 21.75 11V15C21.75 15.7293 21.4603 16.4288 20.9445 16.9445C20.4288 17.4603 19.7293 17.75 19 17.75H17.75V19C17.75 19.7293 17.4603 20.4288 16.9445 20.9445C16.4288 21.4603 15.7293 21.75 15 21.75H9C8.27065 21.75 7.57118 21.4603 7.05546 20.9445C6.53973 20.4288 6.25 19.7293 6.25 19V17.75H5C4.27065 17.75 3.57118 17.4603 3.05546 16.9445C2.53973 16.4288 2.25 15.7293 2.25 15V11C2.25 10.2707 2.53973 9.57118 3.05546 9.05546C3.57118 8.53973 4.27065 8.25 5 8.25H6.25V5C6.25 4.27065 6.53973 3.57118 7.05546 3.05546ZM5 9.75C4.66848 9.75 4.35054 9.8817 4.11612 10.1161C3.8817 10.3505 3.75 10.6685 3.75 11V15C3.75 15.3315 3.8817 15.6495 4.11612 15.8839C4.35054 16.1183 4.66848 16.25 5 16.25H6.25V15C6.25 14.2707 6.53973 13.5712 7.05546 13.0555C7.57118 12.5397 8.27065 12.25 9 12.25H15C15.7293 12.25 16.4288 12.5397 16.9445 13.0555C17.4603 13.5712 17.75 14.2707 17.75 15V16.25H19C19.3315 16.25 19.6495 16.1183 19.8839 15.8839C20.1183 15.6495 20.25 15.3315 20.25 15V11C20.25 10.6685 20.1183 10.3505 19.8839 10.1161C19.6495 9.8817 19.3315 9.75 19 9.75H5ZM16.25 8.25H7.75V5C7.75 4.66848 7.8817 4.35054 8.11612 4.11612C8.35054 3.8817 8.66848 3.75 9 3.75H15C15.3315 3.75 15.6495 3.8817 15.8839 4.11612C16.1183 4.35054 16.25 4.66848 16.25 5V8.25ZM16.25 15C16.25 14.6685 16.1183 14.3505 15.8839 14.1161C15.6495 13.8817 15.3315 13.75 15 13.75H9C8.66848 13.75 8.35054 13.8817 8.11612 14.1161C7.8817 14.3505 7.75 14.6685 7.75 15V19C7.75 19.3315 7.8817 19.6495 8.11612 19.8839C8.35054 20.1183 8.66848 20.25 9 20.25H15C15.3315 20.25 15.6495 20.1183 15.8839 19.8839C16.1183 19.6495 16.25 19.3315 16.25 19V15Z" fill="currentColor"/>
</svg>
