<svg width="24" height="24" viewBox="0 0 24 24" fill="none" xmlns="http://www.w3.org/2000/svg">
<path d="M12 12V22M17.957 17.952L13.02 21.655C12.7257 21.8757 12.3678 21.995 12 21.995C11.6322 21.995 11.2743 21.8757 10.98 21.655L5 17.17C4.68951 16.9371 4.4375 16.6352 4.26393 16.288C4.09036 15.9409 4 15.5581 4 15.17V4M7 3H19C19.2652 3 19.5196 3.10536 19.7071 3.29289C19.8946 3.48043 20 3.73478 20 4V15.17C20 15.42 19.963 15.665 19.891 15.899M12.688 8.70005C12.8153 8.64361 12.9352 8.57174 13.045 8.48605L19.7 3.30005M3 3L21 21" stroke="currentColor" stroke-width="1.5" stroke-linecap="round" stroke-linejoin="round"/>
</svg>
