<svg width="24" height="24" viewBox="0 0 24 24" fill="none" xmlns="http://www.w3.org/2000/svg">
<path d="M12 9V22M4.2998 3.30005L10.9548 8.48605C11.2534 8.71878 11.6212 8.84516 11.9998 8.84516C12.3784 8.84516 12.7462 8.71878 13.0448 8.48605L19.6998 3.30005M19 17.17L13.02 21.655C12.7257 21.8757 12.3678 21.995 12 21.995C11.6322 21.995 11.2743 21.8757 10.98 21.655L5 17.17C4.68951 16.9371 4.4375 16.6352 4.26393 16.288C4.09036 15.9409 4 15.5581 4 15.17V4C4 3.73478 4.10536 3.48043 4.29289 3.29289C4.48043 3.10536 4.73478 3 5 3H19C19.2652 3 19.5196 3.10536 19.7071 3.29289C19.8946 3.48043 20 3.73478 20 4V15.17C20 15.5581 19.9096 15.9409 19.7361 16.288C19.5625 16.6352 19.3105 16.9371 19 17.17Z" stroke="currentColor" stroke-width="1.5" stroke-linecap="round" stroke-linejoin="round"/>
</svg>
