<svg width="24" height="24" viewBox="0 0 24 24" fill="none" xmlns="http://www.w3.org/2000/svg">
<path d="M12 15.9998V16.0098M12 12.9998C12.4498 13.0011 12.8868 12.8508 13.2407 12.5732C13.5945 12.2956 13.8444 11.9068 13.95 11.4696C14.0557 11.0324 14.0109 10.5724 13.8229 10.1638C13.6349 9.75524 13.3147 9.42195 12.914 9.21776C12.5162 9.01397 12.0611 8.95079 11.6228 9.03848C11.1845 9.12618 10.7888 9.3596 10.5 9.70076M10 20.7769C9.12963 20.5794 8.2937 20.2528 7.52002 19.8079M14 3.22266C15.9882 3.67673 17.7632 4.79235 19.0347 6.38686C20.3061 7.98138 20.9984 9.96031 20.9984 11.9997C20.9984 14.039 20.3061 16.0179 19.0347 17.6125C17.7632 19.207 15.9882 20.3226 14 20.7767M4.57905 17.0927C4.03356 16.3002 3.61925 15.425 3.35205 14.5007M3.12402 10.4998C3.28402 9.54978 3.59202 8.64978 4.02402 7.82478L4.19302 7.51978M6.90698 4.57866C7.84264 3.93456 8.8923 3.47437 9.99998 3.22266" stroke="currentColor" stroke-width="1.5" stroke-linecap="round" stroke-linejoin="round"/>
</svg>
