<svg width="24" height="24" viewBox="0 0 24 24" fill="none" xmlns="http://www.w3.org/2000/svg">
<path d="M14.1671 10.5C14.8891 8.962 15.3231 7.457 15.4701 5.986C15.6901 4.356 14.7081 3 12.0001 3C9.29215 3 8.31015 4.357 8.53015 5.986C8.67715 7.457 9.11115 8.962 9.83315 10.5M13.1692 16.751C14.1392 18.146 15.2262 19.274 16.4262 20.137C17.7262 21.137 19.3932 20.97 20.7472 18.625C22.1012 16.28 21.4172 14.751 19.8972 14.127C18.5492 13.519 17.0292 13.142 15.3352 12.999M8.66416 13C6.97116 13.143 5.45116 13.52 4.10416 14.128C2.58216 14.751 1.89816 16.281 3.25216 18.626C4.60616 20.971 6.27216 21.143 7.57316 20.138C8.77316 19.275 9.86016 18.147 10.8312 16.752M9.00015 13C9.00015 13.7956 9.31622 14.5587 9.87883 15.1213C10.4414 15.6839 11.2045 16 12.0002 16C12.7958 16 13.5589 15.6839 14.1215 15.1213C14.6841 14.5587 15.0002 13.7956 15.0002 13C15.0002 12.2044 14.6841 11.4413 14.1215 10.8787C13.5589 10.3161 12.7958 10 12.0002 10C11.2045 10 10.4414 10.3161 9.87883 10.8787C9.31622 11.4413 9.00015 12.2044 9.00015 13Z" stroke="currentColor" stroke-width="1.5" stroke-linecap="round" stroke-linejoin="round"/>
</svg>
