<svg width="24" height="24" viewBox="0 0 24 24" fill="none" xmlns="http://www.w3.org/2000/svg">
<path d="M10.4481 10.432C10.06 10.667 9.7302 10.987 9.4836 11.3679C9.237 11.7488 9.08001 12.1807 9.02446 12.631C8.96891 13.0814 9.01624 13.5384 9.16288 13.9678C9.30953 14.3973 9.55167 14.7878 9.87108 15.1101C10.1905 15.4324 10.5788 15.678 11.0069 15.8285C11.435 15.979 11.8916 16.0304 12.3425 15.9789C12.7933 15.9274 13.2265 15.7743 13.6096 15.5311C13.9927 15.2879 14.3157 14.961 14.5541 14.575M14.2722 10.272C14.9322 8.813 15.3302 7.384 15.4702 5.986C15.6902 4.356 14.7082 3 12.0002 3C10.0602 3 9.00016 3.696 8.64516 4.69M9.34216 9.343C9.48716 9.727 9.65116 10.113 9.83316 10.5M13.1692 16.751C14.1392 18.146 15.2262 19.274 16.4262 20.137C17.4462 20.926 18.6912 20.99 19.8342 19.849M21.3132 17.356C21.8052 15.722 21.1232 14.63 19.8972 14.127C19.0772 13.757 18.1942 13.473 17.2472 13.275M8.66416 13C6.97116 13.143 5.45116 13.52 4.10416 14.128C2.58216 14.751 1.89816 16.281 3.25216 18.626C4.60616 20.971 6.27216 21.143 7.57316 20.138C8.77316 19.275 9.86016 18.147 10.8312 16.752M3.00015 3L21.0002 21" stroke="currentColor" stroke-width="1.5" stroke-linecap="round" stroke-linejoin="round"/>
</svg>
