<svg width="24" height="24" viewBox="0 0 24 24" fill="none" xmlns="http://www.w3.org/2000/svg">
<path d="M8.99989 15L10.4999 16L11.9999 15L13.4999 16L14.9999 15M9.99989 11H10.0099M13.9999 11H14.0099M11.9999 5.99995C11.1249 5.99995 10.3009 6.31495 9.5849 6.86895C8.5749 6.14795 8.0849 5.83795 6.9999 6.08195C4.3909 6.66995 3.3729 10.245 4.2759 14.065C5.1799 17.885 7.0269 20.5059 9.6359 19.9179C9.90458 19.8573 10.1646 19.7633 10.4099 19.638C10.9099 19.873 11.4439 20 11.9999 20C12.55 19.9984 13.093 19.8751 13.5899 19.639C13.8355 19.7634 14.0954 19.8571 14.3639 19.9179C16.9729 20.5049 18.8199 17.885 19.7229 14.065C20.6269 10.244 19.6089 6.66995 16.9999 6.08195C15.9149 5.83795 15.4249 6.14795 14.4149 6.86995C13.6989 6.31495 12.8759 5.99995 11.9999 5.99995ZM11.9999 5.99995C11.9999 4.77395 12.6929 3.654 13.7889 3.106L13.9999 3" stroke="currentColor" stroke-width="1.5" stroke-linecap="round" stroke-linejoin="round"/>
</svg>
