<svg width="24" height="24" viewBox="0 0 24 24" fill="none" xmlns="http://www.w3.org/2000/svg">
<path d="M12 4V6.5C12 6.63261 11.9473 6.75979 11.8536 6.85355C11.7598 6.94732 11.6326 7 11.5 7C11.1022 7 10.7206 7.15804 10.4393 7.43934C10.158 7.72064 10 8.10218 10 8.5C10 8.89782 10.158 9.27936 10.4393 9.56066C10.7206 9.84196 11.1022 10 11.5 10C11.6326 10 11.7598 10.0527 11.8536 10.1464C11.9473 10.2402 12 10.3674 12 10.5V12M12 12V13.5C12 13.6326 12.0527 13.7598 12.1464 13.8536C12.2402 13.9473 12.3674 14 12.5 14C12.8978 14 13.2794 14.158 13.5607 14.4393C13.842 14.7206 14 15.1022 14 15.5C14 15.8978 13.842 16.2794 13.5607 16.5607C13.2794 16.842 12.8978 17 12.5 17C12.3674 17 12.2402 17.0527 12.1464 17.1464C12.0527 17.2402 12 17.3674 12 17.5V20M12 12H13.5C13.6326 12 13.7598 11.9473 13.8536 11.8536C13.9473 11.7598 14 11.6326 14 11.5C14 11.1022 14.158 10.7206 14.4393 10.4393C14.7206 10.158 15.1022 10 15.5 10C15.8978 10 16.2794 10.158 16.5607 10.4393C16.842 10.7206 17 11.1022 17 11.5C17 11.6326 17.0527 11.7598 17.1464 11.8536C17.2402 11.9473 17.3674 12 17.5 12H20M12 12H10.5C10.3674 12 10.2402 12.0527 10.1464 12.1464C10.0527 12.2402 10 12.3674 10 12.5C10 12.8978 9.84196 13.2794 9.56066 13.5607C9.27936 13.842 8.89782 14 8.5 14C8.10218 14 7.72064 13.842 7.43934 13.5607C7.15804 13.2794 7 12.8978 7 12.5C7 12.3674 6.94732 12.2402 6.85355 12.1464C6.75979 12.0527 6.63261 12 6.5 12H4M4 6C4 5.46957 4.21071 4.96086 4.58579 4.58579C4.96086 4.21071 5.46957 4 6 4H18C18.5304 4 19.0391 4.21071 19.4142 4.58579C19.7893 4.96086 20 5.46957 20 6V18C20 18.5304 19.7893 19.0391 19.4142 19.4142C19.0391 19.7893 18.5304 20 18 20H6C5.46957 20 4.96086 19.7893 4.58579 19.4142C4.21071 19.0391 4 18.5304 4 18V6Z" stroke="currentColor" stroke-width="1.5" stroke-linecap="round" stroke-linejoin="round"/>
</svg>
