<svg width="24" height="24" viewBox="0 0 24 24" fill="none" xmlns="http://www.w3.org/2000/svg">
<path d="M11.9993 21.9999C11.6887 21.9999 11.3824 21.9274 11.1048 21.788L3.01276 17.734C2.886 17.6702 2.77421 17.5802 2.68474 17.47C2.59527 17.3598 2.53016 17.2319 2.4937 17.0947C2.45723 16.9575 2.45023 16.8142 2.47317 16.6741C2.4961 16.534 2.54845 16.4004 2.62676 16.282L11.1668 2.44603C11.2579 2.30886 11.3816 2.19636 11.5268 2.11854C11.6719 2.04072 11.8341 2 11.9988 2C12.1635 2 12.3256 2.04072 12.4708 2.11854C12.6159 2.19636 12.7396 2.30886 12.8308 2.44603L21.3708 16.282C21.7038 16.783 21.5238 17.464 20.9858 17.734L12.8938 21.788C12.6162 21.9274 12.3099 21.9999 11.9993 21.9999ZM11.9993 21.9999L11.9998 2.00003" stroke="currentColor" stroke-width="1.5" stroke-linecap="round" stroke-linejoin="round"/>
</svg>
