<svg width="24" height="24" viewBox="0 0 24 24" fill="none" xmlns="http://www.w3.org/2000/svg">
<path d="M21.3838 17.373C21.487 17.2093 21.5407 17.0192 21.5384 16.8256C21.5361 16.632 21.4779 16.4433 21.3708 16.282L12.8308 2.44603C12.7396 2.30886 12.6159 2.19636 12.4708 2.11854C12.3256 2.04072 12.1635 2 11.9988 2C11.8341 2 11.6719 2.04072 11.5268 2.11854C11.3816 2.19636 11.2579 2.30886 11.1668 2.44603L9.36676 5.36303M7.83576 7.84303L2.62676 16.282C2.54845 16.4004 2.4961 16.534 2.47317 16.6741C2.45023 16.8142 2.45723 16.9575 2.4937 17.0947C2.53016 17.2319 2.59527 17.3598 2.68474 17.47C2.77421 17.5802 2.886 17.6702 3.01276 17.734L11.1048 21.788C11.3824 21.9274 11.6887 21.9999 11.9993 21.9999M11.9993 21.9999C12.3099 21.9999 12.6162 21.9274 12.8938 21.788L18.7968 18.83M11.9993 21.9999L12 12M12 2V8M3 3L21 21" stroke="currentColor" stroke-width="1.5" stroke-linecap="round" stroke-linejoin="round"/>
</svg>
