<svg width="24" height="24" viewBox="0 0 24 24" fill="none" xmlns="http://www.w3.org/2000/svg">
<path d="M18.7188 11.985L12.8298 2.44603C12.7386 2.30886 12.615 2.19636 12.4698 2.11854C12.3246 2.04072 12.1625 2 11.9978 2C11.8331 2 11.6709 2.04072 11.5258 2.11854C11.3806 2.19636 11.257 2.30886 11.1658 2.44603L2.62579 16.282C2.54747 16.4004 2.49513 16.534 2.47219 16.6741C2.44926 16.8142 2.45625 16.9575 2.49272 17.0947C2.52919 17.2319 2.5943 17.3598 2.68376 17.47C2.77323 17.5802 2.88503 17.6702 3.01179 17.734L11.1038 21.788C11.3814 21.9274 11.6877 21.9999 11.9983 21.9999C12.3089 21.9999 12.6152 21.9274 12.8928 21.788L13.0418 21.714M12 2V22M16 19H22M19 16V22" stroke="currentColor" stroke-width="1.5" stroke-linecap="round" stroke-linejoin="round"/>
</svg>
