<svg width="24" height="24" viewBox="0 0 24 24" fill="none" xmlns="http://www.w3.org/2000/svg">
<path d="M8 4H9C9.26522 4 9.51957 4.10536 9.70711 4.29289C9.89464 4.48043 10 4.73478 10 5V6M9.703 9.711C9.51584 9.89611 9.26324 9.99995 9 10H5C4.73478 10 4.48043 9.89464 4.29289 9.70711C4.10536 9.51957 4 9.26522 4 9V5C4 4.725 4.11 4.476 4.29 4.295M7 17V17.01M7 7V7.01M17 7V7.01M20 14V14.01M14 14V17M14 20H17M3 3L21 21M14 5C14 4.73478 14.1054 4.48043 14.2929 4.29289C14.4804 4.10536 14.7348 4 15 4H19C19.2652 4 19.5196 4.10536 19.7071 4.29289C19.8946 4.48043 20 4.73478 20 5V9C20 9.26522 19.8946 9.51957 19.7071 9.70711C19.5196 9.89464 19.2652 10 19 10H15C14.7348 10 14.4804 9.89464 14.2929 9.70711C14.1054 9.51957 14 9.26522 14 9V5ZM4 15C4 14.7348 4.10536 14.4804 4.29289 14.2929C4.48043 14.1054 4.73478 14 5 14H9C9.26522 14 9.51957 14.1054 9.70711 14.2929C9.89464 14.4804 10 14.7348 10 15V19C10 19.2652 9.89464 19.5196 9.70711 19.7071C9.51957 19.8946 9.26522 20 9 20H5C4.73478 20 4.48043 19.8946 4.29289 19.7071C4.10536 19.5196 4 19.2652 4 19V15Z" stroke="currentColor" stroke-width="1.5" stroke-linecap="round" stroke-linejoin="round"/>
</svg>
