<svg width="24" height="24" viewBox="0 0 24 24" fill="none" xmlns="http://www.w3.org/2000/svg">
<path d="M16 9C15.5702 8.42691 15.0222 7.95287 14.3933 7.60998C13.7643 7.2671 13.069 7.06336 12.3544 7.01258C11.6399 6.9618 10.9228 7.06515 10.2516 7.31565C9.58049 7.56614 8.97101 7.95792 8.46447 8.46447C7.95792 8.97101 7.56614 9.58049 7.31565 10.2516C7.06515 10.9228 6.9618 11.6399 7.01258 12.3544C7.06336 13.069 7.2671 13.7643 7.60998 14.3933C7.95287 15.0222 8.42691 15.5702 9 16M20.486 8.99998C19.9777 7.56761 19.1149 6.28729 17.9782 5.27843C16.8414 4.26956 15.4677 3.56501 13.9851 3.23048C12.5025 2.89595 10.9593 2.94233 9.49947 3.36531C8.03964 3.78829 6.7107 4.57408 5.63659 5.64941C4.56248 6.72473 3.77819 8.05456 3.35687 9.51487C2.93554 10.9752 2.8909 12.5184 3.22711 14.0006C3.56332 15.4829 4.26942 16.8558 5.27958 17.9914C6.28973 19.127 7.57102 19.9883 9.00397 20.495M21 12H13C13 11.8022 12.9414 11.6089 12.8315 11.4444C12.7216 11.28 12.5654 11.1518 12.3827 11.0761C12.2 11.0004 11.9989 10.9806 11.8049 11.0192C11.6109 11.0578 11.4327 11.153 11.2929 11.2929C11.153 11.4327 11.0578 11.6109 11.0192 11.8049C10.9806 11.9989 11.0004 12.2 11.0761 12.3827C11.1518 12.5654 11.28 12.7216 11.4444 12.8315C11.6089 12.9414 11.8022 13 12 13V21C14.3869 21 16.6761 20.0518 18.364 18.364C20.0518 16.6761 21 14.3869 21 12Z" stroke="currentColor" stroke-width="1.5" stroke-linecap="round" stroke-linejoin="round"/>
</svg>
