<svg width="24" height="24" viewBox="0 0 24 24" fill="none" xmlns="http://www.w3.org/2000/svg">
<path d="M11.291 11.295C11.1518 11.4351 11.0571 11.6133 11.019 11.8071C10.9809 12.0009 11.0011 12.2016 11.0769 12.384C11.1527 12.5664 11.2809 12.7222 11.4452 12.8318C11.6095 12.9415 11.8025 13 12 13V21C14.488 21 16.74 19.99 18.37 18.358M20.045 16.039C20.675 14.786 21.0021 13.4026 21 12H16M15.9999 8.99999C15.4246 8.23479 14.6416 7.65086 13.7441 7.31759C12.8466 6.98433 11.8723 6.91574 10.9369 7.11999M8.47093 8.46699C7.96417 8.97315 7.57208 9.58228 7.32119 10.2531C7.0703 10.924 6.96646 11.6409 7.01672 12.3554C7.06697 13.0699 7.27014 13.7652 7.61247 14.3944C7.95481 15.0235 8.42831 15.5717 9.00093 16.002M20.486 9.00006C20.0592 7.79689 19.3813 6.69828 18.4974 5.77719C17.6134 4.8561 16.5436 4.13361 15.359 3.65769C14.1744 3.18177 12.9021 2.96331 11.6266 3.01682C10.3511 3.07033 9.10157 3.39459 7.961 3.96806M5.644 5.64306C4.56824 6.71777 3.78233 8.04754 3.35962 9.50821C2.93691 10.9689 2.89119 12.5129 3.22672 13.996C3.56225 15.4791 4.2681 16.8531 5.27837 17.9896C6.28864 19.126 7.5704 19.988 9.00399 20.4951M3 3L21 21" stroke="currentColor" stroke-width="1.5" stroke-linecap="round" stroke-linejoin="round"/>
</svg>
