<svg width="24" height="24" viewBox="0 0 24 24" fill="none" xmlns="http://www.w3.org/2000/svg">
<path d="M13.5 14.5998L16.5 19.7898C17.8676 19.0002 19.0033 17.8647 19.7932 16.4974C20.583 15.13 20.9993 13.5789 21 11.9998H15C15.0003 12.5267 14.8619 13.0444 14.5986 13.5008C14.3352 13.9573 13.9563 14.3363 13.5 14.5998Z" stroke="currentColor" stroke-width="1.5" stroke-linecap="round" stroke-linejoin="round"/>
<path d="M13.5 9.39968L16.5 4.20968C15.1318 3.41976 13.5798 3.00391 12 3.00391C10.4202 3.00391 8.86817 3.41976 7.5 4.20968L10.5 9.39968C10.9561 9.13637 11.4734 8.99775 12 8.99775C12.5266 8.99775 13.0439 9.13637 13.5 9.39968Z" stroke="currentColor" stroke-width="1.5" stroke-linecap="round" stroke-linejoin="round"/>
<path d="M10.5 14.5998L7.5 19.7898C6.13245 19.0002 4.99671 17.8647 4.20683 16.4974C3.41695 15.13 3.00074 13.5789 3 11.9998H9C8.99966 12.5267 9.13812 13.0444 9.40144 13.5008C9.66476 13.9573 10.0437 14.3363 10.5 14.5998Z" stroke="currentColor" stroke-width="1.5" stroke-linecap="round" stroke-linejoin="round"/>
</svg>
