<svg width="24" height="24" viewBox="0 0 24 24" fill="none" xmlns="http://www.w3.org/2000/svg">
<path d="M21 10.9999C21.2652 10.9999 21.5196 11.1053 21.7071 11.2928C21.8947 11.4803 22 11.7347 22 11.9999C21.9993 13.7546 21.5368 15.4781 20.6592 16.9975C19.7816 18.5169 18.5196 19.7786 17 20.6559C16.7878 20.7785 16.538 20.819 16.298 20.7696C16.058 20.7202 15.8445 20.5843 15.698 20.3879L15.634 20.2899L12.634 15.0999C12.5389 14.9356 12.4927 14.7476 12.501 14.5579L12.511 14.4479L12.534 14.3419L12.568 14.2359L12.614 14.1359L12.67 14.0419L12.737 13.9529C12.7859 13.8951 12.8413 13.8431 12.902 13.7979L13 13.7339C13.2802 13.5721 13.5169 13.3446 13.6898 13.0712C13.8628 12.7977 13.9668 12.4864 13.993 12.1639L14 12.0009C13.9998 11.7558 14.0896 11.5192 14.2524 11.3359C14.4152 11.1527 14.6396 11.0356 14.883 11.0069L15 10.9999H21Z" fill="currentColor"/>
<path d="M7 3.3439C8.5202 2.46621 10.2446 2.00415 12 2.00415C13.7554 2.00415 15.4798 2.46621 17 3.3439C17.2122 3.46649 17.372 3.66273 17.4491 3.89538C17.5261 4.12802 17.5151 4.38087 17.418 4.6059L17.366 4.7099L14.366 9.8999L14.302 9.9979C14.2568 10.0586 14.2048 10.114 14.147 10.1629L14.058 10.2299C13.997 10.271 13.9316 10.3052 13.863 10.3319L13.758 10.3659L13.651 10.3879C13.4657 10.4161 13.2762 10.3919 13.104 10.3179L13 10.2659C12.7221 10.1054 12.4096 10.0142 12.089 9.99996C11.7684 9.98569 11.4491 10.0488 11.158 10.1839L11 10.2659C10.7878 10.3885 10.538 10.429 10.298 10.3795C10.058 10.3301 9.84449 10.1943 9.698 9.9979L9.634 9.8999L6.634 4.7099C6.5014 4.48022 6.46547 4.20727 6.5341 3.9511C6.60274 3.69492 6.77033 3.47651 7 3.3439Z" fill="currentColor"/>
<path d="M9 10.9999C9.24509 11 9.48162 11.09 9.66467 11.253C9.84773 11.416 9.96457 11.6405 9.993 11.8839L10 12.0009C9.99984 12.3243 10.0781 12.6429 10.228 12.9294C10.378 13.2159 10.5952 13.4617 10.861 13.6459L11.098 13.7979C11.1587 13.8431 11.2141 13.8951 11.263 13.9529L11.33 14.0419L11.386 14.1369L11.431 14.2359C11.445 14.2719 11.457 14.3059 11.466 14.3419L11.488 14.4489L11.499 14.5589C11.5056 14.7087 11.4783 14.8581 11.419 14.9959L11.366 15.0999L8.366 20.2899C8.23339 20.5196 8.01497 20.6872 7.7588 20.7558C7.50263 20.8244 7.22968 20.7885 7 20.6559C5.48043 19.7786 4.21846 18.5169 3.34081 16.9975C2.46316 15.4781 2.00075 13.7546 2 11.9999C2.00003 11.755 2.08996 11.5186 2.25272 11.3355C2.41547 11.1525 2.63975 11.0356 2.883 11.0069L3 10.9999H9Z" fill="currentColor"/>
</svg>
