<svg width="24" height="24" viewBox="0 0 24 24" fill="none" xmlns="http://www.w3.org/2000/svg">
<path d="M15 7.8C14.477 7.298 13.828 7 13.125 7C11.398 7 10 8.791 10 11C10 13.209 11.398 15 13.125 15C13.828 15 14.477 14.702 14.999 14.2M9 11H13M5 21V5C5 4.46957 5.21071 3.96086 5.58579 3.58579C5.96086 3.21071 6.46957 3 7 3H17C17.5304 3 18.0391 3.21071 18.4142 3.58579C18.7893 3.96086 19 4.46957 19 5V21L16 19L14 21L12 19L10 21L8 19L5 21Z" stroke="currentColor" stroke-width="1.5" stroke-linecap="round" stroke-linejoin="round"/>
</svg>
