<svg width="24" height="24" viewBox="0 0 24 24" fill="none" xmlns="http://www.w3.org/2000/svg">
<path d="M7.03824 4.5C6.0525 5.15156 5.2047 5.99086 4.54324 6.97M3.18624 10.209C2.95615 11.367 2.95615 12.559 3.18624 13.717M4.50024 16.962C5.15181 17.9478 5.99111 18.7956 6.97024 19.457M10.2092 20.814C11.3647 21.043 12.5538 21.043 13.7092 20.814M16.9622 19.5C17.948 18.8485 18.7958 18.0092 19.4572 17.03M20.8142 13.791C21.0443 12.6329 21.0443 11.441 20.8142 10.283M19.5002 7.03797C18.8487 6.05222 18.0094 5.20443 17.0302 4.54297M13.7912 3.18602C12.6345 2.94932 11.4426 2.94252 10.2832 3.16602M12.0002 8L10.0002 12H14.0002L12.0002 16M12.0002 21C14.3872 21 16.6764 20.0518 18.3642 18.364C20.052 16.6761 21.0002 14.3869 21.0002 12C21.0002 9.61305 20.052 7.32387 18.3642 5.63604C16.6764 3.94821 14.3872 3 12.0002 3" stroke="currentColor" stroke-width="1.5" stroke-linecap="round" stroke-linejoin="round"/>
</svg>
