<svg width="24" height="24" viewBox="0 0 24 24" fill="none" xmlns="http://www.w3.org/2000/svg">
<path d="M7 15C6.60603 15 6.21593 14.9224 5.85195 14.7716C5.48797 14.6209 5.15726 14.3999 4.87868 14.1213C4.6001 13.8427 4.37913 13.512 4.22836 13.1481C4.0776 12.7841 4 12.394 4 12C4 11.606 4.0776 11.2159 4.22836 10.8519C4.37913 10.488 4.6001 10.1573 4.87868 9.87868C5.15726 9.6001 5.48797 9.37913 5.85195 9.22836C6.21593 9.0776 6.60603 9 7 9C7.39397 9 7.78407 9.0776 8.14805 9.22836C8.51203 9.37913 8.84274 9.6001 9.12132 9.87868C9.3999 10.1573 9.62087 10.488 9.77164 10.8519C9.9224 11.2159 10 11.606 10 12C10 12.394 9.9224 12.7841 9.77164 13.1481C9.62087 13.512 9.3999 13.8427 9.12132 14.1213C8.84274 14.3999 8.51203 14.6209 8.14805 14.7716C7.78407 14.9224 7.39397 15 7 15ZM7 15H15M18.569 14.557C18.9541 14.3202 19.2808 13.9995 19.5245 13.6188C19.7683 13.238 19.9228 12.8071 19.9766 12.3583C20.0304 11.9094 19.9821 11.4542 19.8352 11.0266C19.6884 10.5991 19.4468 10.2102 19.1285 9.88916C18.8102 9.56811 18.4235 9.32313 17.9972 9.17255C17.571 9.02196 17.1162 8.96966 16.6669 9.01954C16.2176 9.06943 15.7853 9.22022 15.4025 9.46065C15.0196 9.70107 14.6961 10.0249 14.456 10.408M3 3L21 21" stroke="currentColor" stroke-width="1.5" stroke-linecap="round" stroke-linejoin="round"/>
</svg>
