<svg width="24" height="24" viewBox="0 0 24 24" fill="none" xmlns="http://www.w3.org/2000/svg">
<path d="M7 15C6.60603 15 6.21593 14.9224 5.85195 14.7716C5.48797 14.6209 5.15726 14.3999 4.87868 14.1213C4.6001 13.8427 4.37913 13.512 4.22836 13.1481C4.0776 12.7841 4 12.394 4 12C4 11.606 4.0776 11.2159 4.22836 10.8519C4.37913 10.488 4.6001 10.1573 4.87868 9.87868C5.15726 9.6001 5.48797 9.37913 5.85195 9.22836C6.21593 9.0776 6.60603 9 7 9C7.39397 9 7.78407 9.0776 8.14805 9.22836C8.51203 9.37913 8.84274 9.6001 9.12132 9.87868C9.3999 10.1573 9.62087 10.488 9.77164 10.8519C9.9224 11.2159 10 11.606 10 12C10 12.394 9.9224 12.7841 9.77164 13.1481C9.62087 13.512 9.3999 13.8427 9.12132 14.1213C8.84274 14.3999 8.51203 14.6209 8.14805 14.7716C7.78407 14.9224 7.39397 15 7 15ZM7 15H17M17 15C16.2044 15 15.4413 14.6839 14.8787 14.1213C14.3161 13.5587 14 12.7956 14 12C14 11.2044 14.3161 10.4413 14.8787 9.87868C15.4413 9.31607 16.2044 9 17 9C17.7956 9 18.5587 9.31607 19.1213 9.87868C19.6839 10.4413 20 11.2044 20 12C20 12.7956 19.6839 13.5587 19.1213 14.1213C18.5587 14.6839 17.7956 15 17 15Z" stroke="currentColor" stroke-width="1.5" stroke-linecap="round" stroke-linejoin="round"/>
</svg>
