<svg width="24" height="24" viewBox="0 0 24 24" fill="none" xmlns="http://www.w3.org/2000/svg">
<path d="M9 20.9995C8.64925 20.9995 8.30456 20.908 8 20.734L4 18.726C3.381 18.372 3 17.718 3 17.009V11.991C3 11.283 3.381 10.628 4 10.273L14 5.26501C14.3046 5.09102 14.6492 4.99951 15 4.99951C15.3508 4.99951 15.6954 5.09102 16 5.26501L20 7.27301C20.3032 7.44571 20.5554 7.69547 20.731 7.99699C20.9066 8.29851 20.9994 8.64108 21 8.99001V14.008C21 14.716 20.619 15.371 20 15.726L10 20.734C9.69544 20.908 9.35075 20.9995 9 20.9995ZM9 20.9995V13.5M9 13.5L20.5 8M9 13.5L3.5 11" stroke="currentColor" stroke-width="1.5" stroke-linecap="round" stroke-linejoin="round"/>
</svg>
