<svg width="24" height="24" viewBox="0 0 24 24" fill="none" xmlns="http://www.w3.org/2000/svg">
<path d="M21 12.5V8.99099C20.9994 8.64206 20.9066 8.29949 20.731 7.99797C20.5554 7.69645 20.3032 7.44669 20 7.27399L16 5.26599C15.6954 5.092 15.3508 5.00049 15 5.00049C14.6492 5.00049 14.3046 5.092 14 5.26599L4 10.273C3.381 10.628 3 11.283 3 11.991V17.009C3 17.718 3.381 18.372 4 18.726L8 20.734C8.30456 20.908 8.64925 20.9995 9 20.9995M9 20.9995C9.35075 20.9995 9.69544 20.908 10 20.734L12.062 19.702M9 20.9995V13.5M9 13.5L20.5 8M9 13.5L3.5 11M16 19H22M19 16V22" stroke="currentColor" stroke-width="1.5" stroke-linecap="round" stroke-linejoin="round"/>
</svg>
