<svg width="24" height="24" viewBox="0 0 24 24" fill="none" xmlns="http://www.w3.org/2000/svg">
<path d="M8.18 8.18001L4 10.273C3.381 10.628 3 11.283 3 11.991V17.009C3 17.718 3.381 18.372 4 18.726L8 20.734C8.30456 20.908 8.64925 20.9995 9 20.9995M9 20.9995C9.35075 20.9995 9.69544 20.908 10 20.734L17.146 17.156M9 20.9995V13.5M19.816 15.819L20 15.726C20.619 15.371 21 14.716 21 14.008V8.99001C20.9994 8.64108 20.9066 8.29851 20.731 7.99699C20.5554 7.69547 20.3032 7.44571 20 7.27301L16 5.26501C15.6954 5.09102 15.3508 4.99951 15 4.99951C14.6492 4.99951 14.3046 5.09102 14 5.26501L10.854 6.84001M9 13.5L12.048 12.042M9 13.5L3.5 11M14.758 10.746L20.5 8M3 3L21 21" stroke="currentColor" stroke-width="1.5" stroke-linecap="round" stroke-linejoin="round"/>
</svg>
