<svg width="24" height="24" viewBox="0 0 24 24" fill="none" xmlns="http://www.w3.org/2000/svg">
<path d="M12 16.9998L10 18.9998M10 18.9998L12 20.9998M10 18.9998H19C19.3186 18.9833 19.6287 18.8909 19.9043 18.7303C20.1799 18.5696 20.4131 18.3453 20.5843 18.0762C20.7556 17.807 20.86 17.5008 20.8888 17.1831C20.9177 16.8653 20.8701 16.5453 20.75 16.2498L20.2 15.2498M8.53578 10.9998L7.80378 8.26782M7.80378 8.26782L5.07178 8.99982M7.80378 8.26782L3.30399 16.0618C3.15903 16.3459 3.0841 16.6605 3.08547 16.9794C3.08683 17.2983 3.16444 17.6123 3.31182 17.8951C3.4592 18.178 3.67208 18.4214 3.9327 18.6053C4.19331 18.7891 4.49411 18.9079 4.80999 18.9518L5.95099 18.9758M15.4639 10.9998L18.1959 11.7318M18.1959 11.7318L18.9279 8.99976M18.1959 11.7318L13.6961 3.93782C13.5225 3.67026 13.2875 3.44809 13.0105 3.28986C12.7336 3.13162 12.4229 3.04191 12.1042 3.02821C11.7856 3.01451 11.4683 3.07722 11.1788 3.2111C10.8893 3.34497 10.636 3.54614 10.4401 3.79782L9.84912 4.77382" stroke="currentColor" stroke-width="1.5" stroke-linecap="round" stroke-linejoin="round"/>
</svg>
