<svg width="24" height="24" viewBox="0 0 24 24" fill="none" xmlns="http://www.w3.org/2000/svg">
<path d="M20 11C19.8277 9.76084 19.3708 8.57838 18.6649 7.54539C17.959 6.5124 17.0235 5.65696 15.9316 5.04615C14.8397 4.43535 13.6212 4.08578 12.3715 4.02487C11.1219 3.96395 9.87512 4.19334 8.729 4.69504M6.319 6.31904C5.53794 7.08079 4.91918 7.99278 4.5 9.00004M4 5.00004V9.00004H8M4 13C4.20611 14.4832 4.81932 15.8801 5.77152 17.0358C6.72371 18.1915 7.97762 19.0606 9.39397 19.5466C10.8103 20.0326 12.3337 20.1164 13.7948 19.7889C15.2559 19.4613 16.5977 18.7351 17.671 17.691M20 16V15H19M3 3L21 21" stroke="currentColor" stroke-width="1.5" stroke-linecap="round" stroke-linejoin="round"/>
</svg>
