<svg width="24" height="24" viewBox="0 0 24 24" fill="none" xmlns="http://www.w3.org/2000/svg">
<path d="M17 7.87499L20 6.18799M17 7.87499V11.25M17 7.87499L14 6.18799M17 7.87499L20 9.563M17 7.87499V4.5M17 7.87499L14 9.563M6.5 15C7.16304 15 7.79893 15.2634 8.26777 15.7322C8.73661 16.2011 9 16.837 9 17.5C9 18.163 8.73661 18.7989 8.26777 19.2678C7.79893 19.7366 7.16304 20 6.5 20C5.83696 20 5.20107 19.7366 4.73223 19.2678C4.26339 18.7989 4 18.163 4 17.5C4 16.837 4.26339 16.2011 4.73223 15.7322C5.20107 15.2634 5.83696 15 6.5 15Z" stroke="currentColor" stroke-width="1.5" stroke-linecap="round" stroke-linejoin="round"/>
</svg>
