<svg width="24" height="24" viewBox="0 0 24 24" fill="none" xmlns="http://www.w3.org/2000/svg">
<path d="M8 2H4C3.46957 2 2.96086 2.21071 2.58579 2.58579C2.21071 2.96086 2 3.46957 2 4V8C2 8.53043 2.21071 9.03914 2.58579 9.41421C2.96086 9.78929 3.46957 10 4 10H8C8.53043 10 9.03914 9.78929 9.41421 9.41421C9.78929 9.03914 10 8.53043 10 8V4C10 3.46957 9.78929 2.96086 9.41421 2.58579C9.03914 2.21071 8.53043 2 8 2Z" fill="currentColor"/>
<path d="M20 14H16C15.4696 14 14.9609 14.2107 14.5858 14.5858C14.2107 14.9609 14 15.4696 14 16V20C14 20.5304 14.2107 21.0391 14.5858 21.4142C14.9609 21.7893 15.4696 22 16 22H20C20.5304 22 21.0391 21.7893 21.4142 21.4142C21.7893 21.0391 22 20.5304 22 20V16C22 15.4696 21.7893 14.9609 21.4142 14.5858C21.0391 14.2107 20.5304 14 20 14Z" fill="currentColor"/>
<path d="M16.707 2.293C16.8792 2.46519 16.9826 2.69429 16.9979 2.93732C17.0131 3.18034 16.9392 3.4206 16.79 3.613L16.707 3.707L15.414 5H19C19.7652 4.99996 20.5015 5.29233 21.0582 5.81728C21.615 6.34224 21.9501 7.06011 21.995 7.824L22 8V11C21.9997 11.2549 21.9021 11.5 21.7271 11.6854C21.5522 11.8707 21.313 11.9822 21.0586 11.9972C20.8041 12.0121 20.5536 11.9293 20.3581 11.7657C20.1627 11.6021 20.0371 11.3701 20.007 11.117L20 11V8C19.9999 7.75507 19.91 7.51866 19.7473 7.33563C19.5845 7.15259 19.3602 7.03566 19.117 7.007L19 7H15.415L16.707 8.293C16.8863 8.47296 16.9905 8.71443 16.9982 8.96838C17.006 9.22233 16.9168 9.46971 16.7487 9.66028C16.5807 9.85084 16.3464 9.97031 16.0935 9.9944C15.8406 10.0185 15.588 9.94541 15.387 9.79L15.293 9.707L12.293 6.707C12.1788 6.59544 12.0936 6.45769 12.0448 6.30572C11.9961 6.15375 11.9851 5.99216 12.013 5.835L12.049 5.689L12.089 5.585C12.147 5.459 12.229 5.345 12.334 5.251L15.293 2.293C15.4805 2.10553 15.7348 2.00021 16 2.00021C16.2651 2.00021 16.5195 2.10553 16.707 2.293Z" fill="currentColor"/>
<path d="M3 12C3.24493 12 3.48134 12.09 3.66437 12.2527C3.84741 12.4155 3.96434 12.6397 3.993 12.883L4 13V16C4.00003 16.2449 4.08996 16.4813 4.25272 16.6644C4.41547 16.8474 4.63975 16.9643 4.883 16.993L5 17H8.585L7.293 15.707C7.12082 15.5348 7.01739 15.3057 7.00211 15.0627C6.98683 14.8197 7.06075 14.5794 7.21 14.387L7.293 14.293C7.46519 14.1208 7.69429 14.0174 7.93732 14.0021C8.18035 13.9868 8.4206 14.0607 8.613 14.21L8.707 14.293L11.707 17.293C11.8212 17.4046 11.9063 17.5423 11.9551 17.6943C12.0039 17.8462 12.0149 18.0078 11.987 18.165L11.951 18.311L11.911 18.415C11.853 18.5419 11.7697 18.6556 11.666 18.749L8.707 21.707C8.52704 21.8863 8.28557 21.9905 8.03162 21.9982C7.77767 22.006 7.53029 21.9168 7.33972 21.7488C7.14916 21.5807 7.02969 21.3464 7.0056 21.0935C6.98151 20.8406 7.05459 20.588 7.21 20.387L7.293 20.293L8.584 19H5C4.23479 19 3.49849 18.7077 2.94174 18.1827C2.38499 17.6578 2.04989 16.9399 2.005 16.176L2 16V13C2 12.7348 2.10536 12.4804 2.29289 12.2929C2.48043 12.1054 2.73478 12 3 12Z" fill="currentColor"/>
</svg>
