<svg width="24" height="24" viewBox="0 0 24 24" fill="none" xmlns="http://www.w3.org/2000/svg">
<path d="M19.007 16.466C19.9109 15.655 20.5474 14.5889 20.8325 13.4084C21.1176 12.228 21.0377 10.9888 20.6035 9.8547C20.1693 8.7206 19.4012 7.74495 18.4007 7.05669C17.4002 6.36843 16.2144 5.99997 15 6H4M4 6L7 9M4 6L7 3M9 14H7C6.73478 14 6.48043 14.1054 6.29289 14.2929C6.10536 14.4804 6 14.7348 6 15V19C6 19.2652 6.10536 19.5196 6.29289 19.7071C6.48043 19.8946 6.73478 20 7 20H8C8.26522 20 8.51957 19.8946 8.70711 19.7071C8.89464 19.5196 9 19.2652 9 19V18C9 17.7348 8.89464 17.4804 8.70711 17.2929C8.51957 17.1054 8.26522 17 8 17H6M12 15.5V18.5C12 18.8978 12.158 19.2794 12.4393 19.5607C12.7206 19.842 13.1022 20 13.5 20C13.8978 20 14.2794 19.842 14.5607 19.5607C14.842 19.2794 15 18.8978 15 18.5V15.5C15 15.1022 14.842 14.7206 14.5607 14.4393C14.2794 14.158 13.8978 14 13.5 14C13.1022 14 12.7206 14.158 12.4393 14.4393C12.158 14.7206 12 15.1022 12 15.5Z" stroke="currentColor" stroke-width="1.5" stroke-linecap="round" stroke-linejoin="round"/>
</svg>
