<svg width="24" height="24" viewBox="0 0 24 24" fill="none" xmlns="http://www.w3.org/2000/svg">
<path d="M5.00706 16.478C4.09962 15.6688 3.45945 14.6029 3.17135 13.4217C2.88326 12.2404 2.96084 10.9995 3.39381 9.86338C3.82678 8.72722 4.59472 7.74941 5.59588 7.05949C6.59704 6.36957 7.78419 6.00009 9.00006 6H20.0001M20.0001 6L17 9M20.0001 6L17 3M12 14H10C9.73478 14 9.48043 14.1054 9.29289 14.2929C9.10536 14.4804 9 14.7348 9 15V19C9 19.2652 9.10536 19.5196 9.29289 19.7071C9.48043 19.8946 9.73478 20 10 20H11C11.2652 20 11.5196 19.8946 11.7071 19.7071C11.8946 19.5196 12 19.2652 12 19V18C12 17.7348 11.8946 17.4804 11.7071 17.2929C11.5196 17.1054 11.2652 17 11 17H9M15 15.5V18.5C15 18.8978 15.158 19.2794 15.4393 19.5607C15.7206 19.842 16.1022 20 16.5 20C16.8978 20 17.2794 19.842 17.5607 19.5607C17.842 19.2794 18 18.8978 18 18.5V15.5C18 15.1022 17.842 14.7206 17.5607 14.4393C17.2794 14.158 16.8978 14 16.5 14C16.1022 14 15.7206 14.158 15.4393 14.4393C15.158 14.7206 15 15.1022 15 15.5Z" stroke="currentColor" stroke-width="1.5" stroke-linecap="round" stroke-linejoin="round"/>
</svg>
