<svg width="24" height="24" viewBox="0 0 24 24" fill="none" xmlns="http://www.w3.org/2000/svg">
<path d="M19.007 16.466C19.9109 15.655 20.5474 14.5889 20.8325 13.4084C21.1176 12.228 21.0377 10.9888 20.6035 9.8547C20.1693 8.7206 19.4012 7.74495 18.4007 7.05669C17.4002 6.36843 16.2144 5.99997 15 6H4M4 6L7 9M4 6L7 3M6 20H7.5C7.89782 20 8.27936 19.842 8.56066 19.5607C8.84196 19.2794 9 18.8978 9 18.5C9 18.1022 8.84196 17.7206 8.56066 17.4393C8.27936 17.158 7.89782 17 7.5 17H6V14H9M12 15.5V18.5C12 18.8978 12.158 19.2794 12.4393 19.5607C12.7206 19.842 13.1022 20 13.5 20C13.8978 20 14.2794 19.842 14.5607 19.5607C14.842 19.2794 15 18.8978 15 18.5V15.5C15 15.1022 14.842 14.7206 14.5607 14.4393C14.2794 14.158 13.8978 14 13.5 14C13.1022 14 12.7206 14.158 12.4393 14.4393C12.158 14.7206 12 15.1022 12 15.5Z" stroke="currentColor" stroke-width="1.5" stroke-linecap="round" stroke-linejoin="round"/>
</svg>
