<svg width="24" height="24" viewBox="0 0 24 24" fill="none" xmlns="http://www.w3.org/2000/svg">
<path d="M17 9L20 6M20 6L17 3M20 6H9C7.4087 6 5.88258 6.63214 4.75736 7.75736C3.63214 8.88258 3 10.4087 3 12C3 13.5913 3.63214 15.1174 4.75736 16.2426C5.88258 17.3679 7.4087 18 9 18M16 20H18C18.2652 20 18.5196 19.8946 18.7071 19.7071C18.8946 19.5196 19 19.2652 19 19V18C19 17.7348 18.8946 17.4804 18.7071 17.2929C18.5196 17.1054 18.2652 17 18 17H16V14H19M13 14V20" stroke="currentColor" stroke-width="1.5" stroke-linecap="round" stroke-linejoin="round"/>
</svg>
