<svg width="24" height="24" viewBox="0 0 24 24" fill="none" xmlns="http://www.w3.org/2000/svg">
<path d="M7 9L4 6M4 6L7 3M4 6H15C16.5026 6.00383 17.9491 6.5711 19.0536 7.58974C20.1582 8.60838 20.8406 10.0043 20.9658 11.5016C21.0911 12.999 20.6502 14.4888 19.7302 15.6769C18.8102 16.8649 17.4781 17.6646 15.997 17.918M6 14V20M9 15.5V18.5C9 18.8978 9.15804 19.2794 9.43934 19.5607C9.72064 19.842 10.1022 20 10.5 20C10.8978 20 11.2794 19.842 11.5607 19.5607C11.842 19.2794 12 18.8978 12 18.5V15.5C12 15.1022 11.842 14.7206 11.5607 14.4393C11.2794 14.158 10.8978 14 10.5 14C10.1022 14 9.72064 14.158 9.43934 14.4393C9.15804 14.7206 9 15.1022 9 15.5Z" stroke="currentColor" stroke-width="1.5" stroke-linecap="round" stroke-linejoin="round"/>
</svg>
