<svg width="24" height="24" viewBox="0 0 24 24" fill="none" xmlns="http://www.w3.org/2000/svg">
<path d="M7 14C7.39397 14 7.78407 14.0776 8.14805 14.2284C8.51203 14.3791 8.84274 14.6001 9.12132 14.8787C9.3999 15.1573 9.62087 15.488 9.77164 15.8519C9.9224 16.2159 10 16.606 10 17C10 17.394 9.9224 17.7841 9.77164 18.1481C9.62087 18.512 9.3999 18.8427 9.12132 19.1213C8.84274 19.3999 8.51203 19.6209 8.14805 19.7716C7.78407 19.9224 7.39397 20 7 20C6.60603 20 6.21593 19.9224 5.85195 19.7716C5.48797 19.6209 5.15726 19.3999 4.87868 19.1213C4.6001 18.8427 4.37913 18.512 4.22836 18.1481C4.0776 17.7841 4 17.394 4 17C4 16.606 4.0776 16.2159 4.22836 15.8519C4.37913 15.488 4.6001 15.1573 4.87868 14.8787C5.15726 14.6001 5.48797 14.3791 5.85195 14.2284C6.21593 14.0776 6.60603 14 7 14ZM7 14V4M17 14C17.7956 14 18.5587 14.3161 19.1213 14.8787C19.6839 15.4413 20 16.2044 20 17C20 17.7956 19.6839 18.5587 19.1213 19.1213C18.5587 19.6839 17.7956 20 17 20C16.2044 20 15.4413 19.6839 14.8787 19.1213C14.3161 18.5587 14 17.7956 14 17C14 16.2044 14.3161 15.4413 14.8787 14.8787C15.4413 14.3161 16.2044 14 17 14ZM17 14V4M3 4H21" stroke="currentColor" stroke-width="1.5" stroke-linecap="round" stroke-linejoin="round"/>
</svg>
