<svg width="24" height="24" viewBox="0 0 24 24" fill="none" xmlns="http://www.w3.org/2000/svg">
<path d="M3 21C4.16482 21 5.30011 20.6334 6.24504 19.9523C7.18998 19.2712 7.89666 18.3101 8.265 17.205L9 15C9.46435 13.6047 10.2725 12.3488 11.35 11.348M13.753 9.759C14.8771 9.25788 16.0942 8.99926 17.325 9H21M20 9V16M20 20V21M8 21V18M12 21V12M16 9.5V12M16 16V21M9.446 5.415L10 5L12 7.5L11.715 7.713M9.447 9.415L8 10.5L6.2 10L6 8L7.139 7.146M3 3L21 21M15 3H20V6H15V3Z" stroke="currentColor" stroke-width="1.5" stroke-linecap="round" stroke-linejoin="round"/>
</svg>
