<svg width="24" height="24" viewBox="0 0 24 24" fill="none" xmlns="http://www.w3.org/2000/svg">
<path d="M12.0099 2.01099C12.7877 2.01103 13.5389 2.29436 14.1229 2.80799L14.2769 2.95299L14.9749 3.65099C15.1665 3.8413 15.4166 3.96144 15.6849 3.99199L15.8199 3.99999H16.8199C17.6371 3.99994 18.4234 4.31256 19.0175 4.87373C19.6116 5.4349 19.9684 6.20209 20.0149 7.01799L20.0199 7.19999V8.19999C20.0199 8.46999 20.1119 8.73299 20.2779 8.94299L20.3679 9.04299L21.0649 9.74099C21.6426 10.3154 21.9795 11.0886 22.0068 11.9029C22.0341 12.7171 21.7498 13.5111 21.2119 14.123L21.0669 14.277L20.3689 14.975C20.1786 15.1665 20.0585 15.4167 20.0279 15.685L20.0199 15.82V16.82C20.02 17.6372 19.7074 18.4235 19.1462 19.0176C18.585 19.6116 17.8178 19.9685 17.0019 20.015L16.8199 20.02H15.8199C15.5503 20.0201 15.2886 20.111 15.0769 20.278L14.9769 20.368L14.2789 21.065C13.7045 21.6427 12.9313 21.9796 12.1171 22.0069C11.3028 22.0342 10.5088 21.7499 9.89692 21.212L9.74292 21.067L9.04492 20.369C8.85336 20.1787 8.60322 20.0585 8.33492 20.028L8.19992 20.02H7.19992C6.38271 20.02 5.59644 19.7074 5.00236 19.1462C4.40827 18.5851 4.0514 17.8179 4.00492 17.002L3.99992 16.82V15.82C3.99983 15.5504 3.90895 15.2886 3.74192 15.077L3.65192 14.977L2.95492 14.279C2.37721 13.7045 2.04035 12.9314 2.01303 12.1171C1.98572 11.3029 2.27 10.5089 2.80792 9.89699L2.95292 9.74299L3.65092 9.04499C3.84124 8.85343 3.96138 8.60328 3.99192 8.33499L3.99992 8.19999V7.19999L4.00492 7.01799C4.04958 6.23343 4.38135 5.49274 4.93701 4.93707C5.49267 4.38141 6.23337 4.04964 7.01792 4.00499L7.19992 3.99999H8.19992C8.46954 3.9999 8.73127 3.90901 8.94292 3.74199L9.04292 3.65199L9.74092 2.95499C10.0383 2.65588 10.3918 2.41849 10.7812 2.25649C11.1706 2.09448 11.5882 2.01105 12.0099 2.01099Z" fill="currentColor"/>
</svg>
