<svg width="24" height="24" viewBox="0 0 24 24" fill="none" xmlns="http://www.w3.org/2000/svg">
<path d="M19.95 10.9999C19.6971 9.07068 18.7498 7.29972 17.2853 6.01856C15.8209 4.73741 13.9397 4.03389 11.9939 4.03971C10.0482 4.04553 8.17123 4.76028 6.71446 6.05017C5.25769 7.34006 4.32096 9.11666 4.07962 11.0474C3.83828 12.9781 4.30887 14.9306 5.4033 16.5394C6.49774 18.1482 8.14098 19.303 10.0254 19.7876C11.9099 20.2722 13.9064 20.0534 15.6411 19.1721C17.3759 18.2909 18.73 16.8076 19.45 14.9999M19.95 19.9999V14.9999H14.95M11 12C11 12.2652 11.1054 12.5196 11.2929 12.7071C11.4804 12.8946 11.7348 13 12 13C12.2652 13 12.5196 12.8946 12.7071 12.7071C12.8946 12.5196 13 12.2652 13 12C13 11.7348 12.8946 11.4804 12.7071 11.2929C12.5196 11.1054 12.2652 11 12 11C11.7348 11 11.4804 11.1054 11.2929 11.2929C11.1054 11.4804 11 11.7348 11 12Z" stroke="currentColor" stroke-width="1.5" stroke-linecap="round" stroke-linejoin="round"/>
</svg>
