<svg width="24" height="24" viewBox="0 0 24 24" fill="none" xmlns="http://www.w3.org/2000/svg">
<path d="M10.09 4.01002L10.586 3.51502C10.9611 3.14007 11.4697 2.92944 12 2.92944C12.5304 2.92944 13.039 3.14007 13.414 3.51502L20.485 10.585C20.671 10.7708 20.8185 10.9913 20.9192 11.2341C21.0198 11.4769 21.0716 11.7372 21.0716 12C21.0716 12.2628 21.0198 12.5231 20.9192 12.7659C20.8185 13.0087 20.671 13.2293 20.485 13.415L13.415 20.485C13.2293 20.671 13.0087 20.8185 12.7659 20.9191C12.5231 21.0198 12.2629 21.0716 12 21.0716C11.7372 21.0716 11.477 21.0198 11.2342 20.9191C10.9914 20.8185 10.7708 20.671 10.585 20.485L3.51504 13.415C3.32909 13.2293 3.18157 13.0087 3.08092 12.7659C2.98027 12.5231 2.92847 12.2628 2.92847 12C2.92847 11.7372 2.98027 11.4769 3.08092 11.2341C3.18157 10.9913 3.32909 10.7708 3.51504 10.585L7.05004 7.05002M7.05004 7.05002H3.06204M7.05004 7.05002L7.05005 11.038" stroke="currentColor" stroke-width="1.5" stroke-linecap="round" stroke-linejoin="round"/>
</svg>
