<svg width="24" height="24" viewBox="0 0 24 24" fill="none" xmlns="http://www.w3.org/2000/svg">
<path d="M17 13H19C19.5304 13 20.0391 13.2107 20.4142 13.5858C20.7893 13.9609 21 14.4696 21 15V17M20.412 20.417C20.05 20.777 19.551 21 19 21H5C4.46957 21 3.96086 20.7893 3.58579 20.4142C3.21071 20.0391 3 19.5304 3 19V15C3 14.4696 3.21071 13.9609 3.58579 13.5858C3.96086 13.2107 4.46957 13 5 13H13M17 17V17.01M13 17V17.01M12.2261 8.20001C12.6395 7.80209 13.1336 7.49777 13.675 7.30769C14.2164 7.11762 14.7924 7.04625 15.3638 7.09842C15.9352 7.15059 16.4887 7.32508 16.9867 7.61005C17.4847 7.89503 17.9156 8.28381 18.2501 8.75001M9.44482 5.407C10.2712 4.60958 11.2596 3.99941 12.3428 3.61798C13.426 3.23655 14.5786 3.0928 15.7223 3.1965C16.866 3.3002 17.974 3.64891 18.9709 4.21894C19.9678 4.78897 20.8303 5.56695 21.4998 6.5M3 3L21 21" stroke="currentColor" stroke-width="1.5" stroke-linecap="round" stroke-linejoin="round"/>
</svg>
