<svg width="24" height="24" viewBox="0 0 24 24" fill="none" xmlns="http://www.w3.org/2000/svg">
<path d="M12 19H16.5C17.21 19 17.872 18.788 18.424 18.424M19.969 15.965C20.0353 15.4705 19.9951 14.9676 19.8511 14.4899C19.7071 14.0122 19.4627 13.5709 19.1342 13.1954C18.8056 12.8199 18.4007 12.519 17.9463 12.3128C17.492 12.1067 16.9989 12 16.5 12H16.001M12.001 12H8.49999C7.80816 11.9999 7.1319 11.7947 6.55662 11.4104C5.98134 11.0261 5.53284 10.48 5.26779 9.84092C5.00274 9.20189 4.93301 8.49863 5.06743 7.81999C5.20184 7.14135 5.53436 6.51776 6.02299 6.028M8.49999 5H12M3 3L21 21M4 19C4 19.5304 4.21071 20.0391 4.58579 20.4142C4.96086 20.7893 5.46957 21 6 21C6.53043 21 7.03914 20.7893 7.41421 20.4142C7.78929 20.0391 8 19.5304 8 19C8 18.4696 7.78929 17.9609 7.41421 17.5858C7.03914 17.2107 6.53043 17 6 17C5.46957 17 4.96086 17.2107 4.58579 17.5858C4.21071 17.9609 4 18.4696 4 19ZM16 5C16 5.53043 16.2107 6.03914 16.5858 6.41421C16.9609 6.78929 17.4696 7 18 7C18.5304 7 19.0391 6.78929 19.4142 6.41421C19.7893 6.03914 20 5.53043 20 5C20 4.46957 19.7893 3.96086 19.4142 3.58579C19.0391 3.21071 18.5304 3 18 3C17.4696 3 16.9609 3.21071 16.5858 3.58579C16.2107 3.96086 16 4.46957 16 5Z" stroke="currentColor" stroke-width="1.5" stroke-linecap="round" stroke-linejoin="round"/>
</svg>
