<svg width="24" height="24" viewBox="0 0 24 24" fill="none" xmlns="http://www.w3.org/2000/svg">
<path d="M8.273 8.27299C9.078 10.614 11.13 13.8 6.789 13.8C4.421 13.8 3 13.8 3 17.85H17.85M5 21H19M3 3L21 21M8.71191 4.722C9.07943 4.19005 9.57073 3.75538 10.1435 3.45541C10.7163 3.15543 11.3533 2.99915 11.9999 3C13.0608 3 14.0782 3.42143 14.8283 4.17158C15.5785 4.92172 15.9999 5.93914 15.9999 7C15.9999 7.992 15.1939 9.464 14.7769 10.785M20.9749 16.981C20.7929 14.098 19.6429 13.828 17.8029 13.803" stroke="currentColor" stroke-width="1.5" stroke-linecap="round" stroke-linejoin="round"/>
</svg>
