<svg width="24" height="24" viewBox="0 0 24 24" fill="none" xmlns="http://www.w3.org/2000/svg">
<path d="M5 17C5 17.5304 5.21071 18.0391 5.58579 18.4142C5.96086 18.7893 6.46957 19 7 19C7.53043 19 8.03914 18.7893 8.41421 18.4142C8.78929 18.0391 9 17.5304 9 17M5 17C5 16.4696 5.21071 15.9609 5.58579 15.5858C5.96086 15.2107 6.46957 15 7 15C7.53043 15 8.03914 15.2107 8.41421 15.5858C8.78929 15.9609 9 16.4696 9 17M5 17H4C3.73478 17 3.48043 16.8946 3.29289 16.7071C3.10536 16.5196 3 16.2652 3 16V10C3 9.20435 3.31607 8.44129 3.87868 7.87868C4.44129 7.31607 5.20435 7 6 7H17.146C17.7031 7.00002 18.2491 7.15513 18.723 7.44797C19.1968 7.7408 19.5798 8.15979 19.829 8.658L20.789 10.578C20.9277 10.8556 21 11.1617 21 11.472V16C21 16.2652 20.8946 16.5196 20.7071 16.7071C20.5196 16.8946 20.2652 17 20 17H19M9 17H15M15 17C15 17.5304 15.2107 18.0391 15.5858 18.4142C15.9609 18.7893 16.4696 19 17 19C17.5304 19 18.0391 18.7893 18.4142 18.4142C18.7893 18.0391 19 17.5304 19 17M15 17C15 16.4696 15.2107 15.9609 15.5858 15.5858C15.9609 15.2107 16.4696 15 17 15C17.5304 15 18.0391 15.2107 18.4142 15.5858C18.7893 15.9609 19 16.4696 19 17M3 12H21M15 12V7M6 5.5C6 5.10218 6.15804 4.72064 6.43934 4.43934C6.72064 4.15804 7.10218 4 7.5 4H14.5C14.8978 4 15.2794 4.15804 15.5607 4.43934C15.842 4.72064 16 5.10218 16 5.5C16 5.89782 15.842 6.27936 15.5607 6.56066C15.2794 6.84196 14.8978 7 14.5 7H7.5C7.10218 7 6.72064 6.84196 6.43934 6.56066C6.15804 6.27936 6 5.89782 6 5.5Z" stroke="currentColor" stroke-width="1.5" stroke-linecap="round" stroke-linejoin="round"/>
</svg>
