<svg width="24" height="24" viewBox="0 0 24 24" fill="none" xmlns="http://www.w3.org/2000/svg">
<path d="M7 5C7 5.53043 6.78929 6.03914 6.41421 6.41421C6.03914 6.78929 5.53043 7 5 7C4.46957 7 3.96086 6.78929 3.58579 6.41421C3.21071 6.03914 3 5.53043 3 5C3 4.46957 3.21071 3.96086 3.58579 3.58579C3.96086 3.21071 4.46957 3 5 3C5.53043 3 6.03914 3.21071 6.41421 3.58579C6.78929 3.96086 7 4.46957 7 5ZM7 5H16.5C17.4283 5 18.3185 5.36875 18.9749 6.02513C19.6313 6.6815 20 7.57174 20 8.5C20 9.42826 19.6313 10.3185 18.9749 10.9749C18.3185 11.6313 17.4283 12 16.5 12H7.5C6.57174 12 5.6815 12.3687 5.02513 13.0251C4.36875 13.6815 4 14.5717 4 15.5C4 16.4283 4.36875 17.3185 5.02513 17.9749C5.6815 18.6313 6.57174 19 7.5 19H21M21 19L18 16M21 19L18 22" stroke="currentColor" stroke-width="1.5" stroke-linecap="round" stroke-linejoin="round"/>
</svg>
