<svg width="24" height="24" viewBox="0 0 24 24" fill="none" xmlns="http://www.w3.org/2000/svg">
<path d="M5 17C5.53043 17 6.03914 17.2107 6.41421 17.5858C6.78929 17.9609 7 18.4696 7 19C7 19.5304 6.78929 20.0391 6.41421 20.4142C6.03914 20.7893 5.53043 21 5 21C4.46957 21 3.96086 20.7893 3.58579 20.4142C3.21071 20.0391 3 19.5304 3 19C3 18.4696 3.21071 17.9609 3.58579 17.5858C3.96086 17.2107 4.46957 17 5 17ZM5 17V7.5C5 6.57174 5.36875 5.6815 6.02513 5.02513C6.6815 4.36875 7.57174 4 8.5 4C9.42826 4 10.3185 4.36875 10.9749 5.02513C11.6313 5.6815 12 6.57174 12 7.5V16.5C12 17.4283 12.3687 18.3185 13.0251 18.9749C13.6815 19.6313 14.5717 20 15.5 20C16.4283 20 17.3185 19.6313 17.9749 18.9749C18.6313 18.3185 19 17.4283 19 16.5V3M19 3L16 6M19 3L22 6" stroke="currentColor" stroke-width="1.5" stroke-linecap="round" stroke-linejoin="round"/>
</svg>
