<svg width="24" height="24" viewBox="0 0 24 24" fill="none" xmlns="http://www.w3.org/2000/svg">
<path d="M18.5 11C18.851 9.983 18.926 8.764 19 7.286V6H16.744C13.914 6 12.128 6.804 11.104 8.076M5.255 11.008C5.11454 10.3469 5.02925 9.67524 5 9V8H6.755C7.735 8 8.556 8.124 9.234 8.35M8 8L9 4L13 6.5M13 11V10.5C13 9.83696 12.7366 9.20107 12.2678 8.73223C11.7989 8.26339 11.163 8 10.5 8C9.83696 8 9.20107 8.26339 8.73223 8.73223C8.26339 9.20107 8 9.83696 8 10.5V11M4 11H20C20.2652 11 20.5196 11.1054 20.7071 11.2929C20.8946 11.4804 21 11.7348 21 12V12.5C21 14 18.483 18.073 17 19V20C17 20.2652 16.8946 20.5196 16.7071 20.7071C16.5196 20.8946 16.2652 21 16 21H8C7.73478 21 7.48043 20.8946 7.29289 20.7071C7.10536 20.5196 7 20.2652 7 20V19C5.313 17.946 3 14 3 12.5V12C3 11.7348 3.10536 11.4804 3.29289 11.2929C3.48043 11.1054 3.73478 11 4 11Z" stroke="currentColor" stroke-width="1.5" stroke-linecap="round" stroke-linejoin="round"/>
</svg>
