<svg width="24" height="24" viewBox="0 0 24 24" fill="none" xmlns="http://www.w3.org/2000/svg">
<path d="M12.0001 13V13.01M10.0001 16V16.01M14.0001 16V16.01M7.50006 8H16.5001M7.50006 8L7.78006 5.752C7.84054 5.26803 8.07578 4.82285 8.44153 4.50019C8.80728 4.17754 9.27833 3.99965 9.76606 4H14.2341C14.7216 3.99989 15.1924 4.17789 15.558 4.50052C15.9235 4.82316 16.1586 5.26821 16.2191 5.752L16.5001 8M7.50006 8L5.88809 17.671C5.8403 17.9575 5.85551 18.2511 5.93265 18.5311C6.0098 18.8112 6.14704 19.0711 6.33481 19.2928C6.52259 19.5144 6.7564 19.6925 7.01998 19.8146C7.28356 19.9368 7.57058 20 7.86109 20H16.1391C16.4296 20 16.7166 19.9368 16.9802 19.8146C17.2438 19.6925 17.4776 19.5144 17.6654 19.2928C17.8531 19.0711 17.9904 18.8112 18.0675 18.5311C18.1447 18.2511 18.1599 17.9575 18.1121 17.671L16.5001 8" stroke="currentColor" stroke-width="1.5" stroke-linecap="round" stroke-linejoin="round"/>
</svg>
