<svg width="24" height="24" viewBox="0 0 24 24" fill="none" xmlns="http://www.w3.org/2000/svg">
<path d="M19.953 8.017L21 15M21 15V17C21 17.7956 20.6839 18.5587 20.1213 19.1213C19.5587 19.6839 18.7956 20 18 20H6C5.20435 20 4.44129 19.6839 3.87868 19.1213C3.31607 18.5587 3 17.7956 3 17V15M21 15H3M3 15L4.245 6.703C4.31611 6.22948 4.55474 5.79719 4.91752 5.48468C5.28031 5.17218 5.74317 5.0002 6.222 5H10M13 3L18.5 4.5M15.75 3.75L13.75 10.75M7 10.5C8.667 9.83301 10.333 9.83301 12 10.5C13.667 11.167 15.333 11.167 17 10.5" stroke="currentColor" stroke-width="1.5" stroke-linecap="round" stroke-linejoin="round"/>
</svg>
