<svg width="24" height="24" viewBox="0 0 24 24" fill="none" xmlns="http://www.w3.org/2000/svg">
<path d="M6 10L3 13L6 16L9 13M10 6L13 3L16 6L13 9M12 12L13.5 13.5M14.5 17C15.163 17 15.7989 16.7366 16.2678 16.2678C16.7366 15.7989 17 15.163 17 14.5M15 21C16.5913 21 18.1174 20.3679 19.2426 19.2426C20.3679 18.1174 21 16.5913 21 15M3.70709 6.29297L6.29309 3.70697C6.48062 3.5195 6.73493 3.41418 7.00009 3.41418C7.26526 3.41418 7.51957 3.5195 7.70709 3.70697L13.2931 9.29297C13.4806 9.4805 13.5859 9.73481 13.5859 9.99997C13.5859 10.2651 13.4806 10.5194 13.2931 10.707L10.7071 13.293C10.5196 13.4804 10.2653 13.5858 10.0001 13.5858C9.73493 13.5858 9.48062 13.4804 9.29309 13.293L3.70709 7.70697C3.51962 7.51944 3.41431 7.26514 3.41431 6.99997C3.41431 6.73481 3.51962 6.4805 3.70709 6.29297Z" stroke="currentColor" stroke-width="1.5" stroke-linecap="round" stroke-linejoin="round"/>
</svg>
