<svg width="24" height="24" viewBox="0 0 24 24" fill="none" xmlns="http://www.w3.org/2000/svg">
<path d="M7.70709 3.70703L13.2931 9.29303M5.00009 5.00003L3.70709 6.29303C3.51962 6.48056 3.41431 6.73487 3.41431 7.00003C3.41431 7.2652 3.51962 7.5195 3.70709 7.70703L9.29309 13.293C9.48062 13.4805 9.73493 13.5858 10.0001 13.5858C10.2653 13.5858 10.5196 13.4805 10.7071 13.293L12.0001 12L13.5 13.5M6 10L3 13L6 16L9 13M10 6L13 3L16 6L13 9M14.5 17C15.19 17 15.816 16.72 16.269 16.267M15 21C16.654 21 18.151 20.33 19.237 19.248M20.744 16.741C20.9144 16.1764 21.0007 15.5898 21 15M3 3L21 21" stroke="currentColor" stroke-width="1.5" stroke-linecap="round" stroke-linejoin="round"/>
</svg>
