<svg width="24" height="24" viewBox="0 0 24 24" fill="none" xmlns="http://www.w3.org/2000/svg">
<path d="M5.19501 5.519L3.95201 3.53C3.8574 3.37863 3.80503 3.20469 3.80035 3.02625C3.79566 2.8478 3.83883 2.67136 3.92536 2.51523C4.01189 2.3591 4.13864 2.22898 4.29245 2.13838C4.44625 2.04778 4.6215 2 4.80001 2H6.19201C6.37051 2 6.54576 2.04778 6.69957 2.13838C6.85337 2.22898 6.98012 2.3591 7.06665 2.51523C7.15318 2.67136 7.19635 2.8478 7.19166 3.02625C7.18698 3.20469 7.13461 3.37863 7.04001 3.53L5.79501 5.52M18.482 18.225L20.471 16.982C20.6224 16.8874 20.7963 16.835 20.9747 16.8303C21.1532 16.8257 21.3296 16.8688 21.4858 16.9554C21.6419 17.0419 21.772 17.1686 21.8626 17.3224C21.9532 17.4762 22.001 17.6515 22.001 17.83V19.222C22.001 19.4005 21.9532 19.5758 21.8626 19.7296C21.772 19.8834 21.6419 20.0101 21.4858 20.0966C21.3296 20.1832 21.1532 20.2263 20.9747 20.2217C20.7963 20.217 20.6224 20.1646 20.471 20.07L18.48 18.825M5.5 5.5C4.83696 5.5 4.20107 5.76339 3.73223 6.23223C3.26339 6.70107 3 7.33696 3 8C3 15.18 8.82 21 16 21C16.663 21 17.2989 20.7366 17.7678 20.2678C18.2366 19.7989 18.5 19.163 18.5 18.5C18.5 17.837 18.2366 17.2011 17.7678 16.7322C17.2989 16.2634 16.663 16 16 16C13.8783 16 11.8434 15.1571 10.3431 13.6569C8.84285 12.1566 8 10.1217 8 8C8 7.33696 7.73661 6.70107 7.26777 6.23223C6.79893 5.76339 6.16304 5.5 5.5 5.5Z" stroke="currentColor" stroke-width="1.5" stroke-linecap="round" stroke-linejoin="round"/>
</svg>
