<svg width="24" height="24" viewBox="0 0 24 24" fill="none" xmlns="http://www.w3.org/2000/svg">
<path d="M7 3H17C18.0609 3 19.0783 3.42143 19.8284 4.17157C20.5786 4.92172 21 5.93913 21 7V17M19.827 19.83C19.456 20.2016 19.0153 20.4962 18.5302 20.697C18.0451 20.8977 17.525 21.0007 17 21H7C5.93913 21 4.92172 20.5786 4.17157 19.8284C3.42143 19.0783 3 18.0609 3 17V7C3 5.896 3.447 4.897 4.17 4.173M11.062 7.062C11.372 7.021 11.684 7 12 7C13.956 7 15.724 7.802 17 9.095C16.3272 9.72354 15.6605 10.3586 15 11M11.277 11.288C10.7858 11.41 10.3334 11.6542 9.962 11.998L7.006 9.095C7.35218 8.74139 7.735 8.42561 8.148 8.153M3 3L21 21" stroke="currentColor" stroke-width="1.5" stroke-linecap="round" stroke-linejoin="round"/>
</svg>
