<svg width="24" height="24" viewBox="0 0 24 24" fill="none" xmlns="http://www.w3.org/2000/svg">
<path d="M7 20H17M9.452 5.425L12 5L18 6M18 6L21 12C21.0002 12.6434 20.7935 13.2697 20.4105 13.7867C20.0275 14.3036 19.4885 14.6838 18.873 14.871M18 6L15.323 11.355M12 3V8M12 12V20M3 3L21 21M9 12L6 6L3 12C3 12.7956 3.31607 13.5587 3.87868 14.1213C4.44129 14.6839 5.20435 15 6 15C6.79565 15 7.55871 14.6839 8.12132 14.1213C8.68393 13.5587 9 12.7956 9 12Z" stroke="currentColor" stroke-width="1.5" stroke-linecap="round" stroke-linejoin="round"/>
</svg>
