<svg width="24" height="24" viewBox="0 0 24 24" fill="none" xmlns="http://www.w3.org/2000/svg">
<path d="M4.00024 17C4.00024 17.7956 4.31631 18.5587 4.87892 19.1213C5.44153 19.6839 6.20459 20 7.00024 20M14.8052 6.37005L17.5882 3.58605C17.7739 3.4003 17.9944 3.25293 18.237 3.15238C18.4797 3.05183 18.7397 3.00005 19.0024 3C19.265 2.99995 19.5251 3.05164 19.7678 3.15211C20.0105 3.25258 20.231 3.39986 20.4167 3.58555C20.6025 3.77124 20.7499 3.9917 20.8504 4.23434C20.951 4.47698 21.0027 4.73705 21.0028 4.9997C21.0028 5.26235 20.9512 5.52244 20.8507 5.76511C20.7502 6.00779 20.6029 6.2283 20.4172 6.41405L17.6332 9.20005M16.5052 7.49497C17.4315 8.42111 17.9663 9.66786 17.9991 10.9773C18.0318 12.2867 17.56 13.5587 16.6812 14.53L16.5052 14.714L14.6382 16.581C14.0406 17.178 13.6806 17.972 13.6252 18.815L13.6172 19.045V19.979C13.6172 20.306 13.4872 20.619 13.2572 20.85C13.1729 20.9349 13.0613 20.9874 12.9421 20.9984C12.8229 21.0094 12.7037 20.9781 12.6052 20.91L12.5352 20.85L3.15024 11.466C3.10277 11.4186 3.06511 11.3623 3.03941 11.3004C3.01372 11.2384 3.00049 11.172 3.00049 11.105C3.00049 11.0379 3.01372 10.9715 3.03941 10.9096C3.06511 10.8476 3.10277 10.7913 3.15024 10.744C3.34824 10.546 3.60624 10.422 3.88224 10.391L4.02124 10.383H4.95424C5.80224 10.383 6.61724 10.074 7.25124 9.51897L7.41924 9.36197L9.28624 7.49497L9.44624 7.34197C10.4159 6.45308 11.6913 5.97282 13.0065 6.00132C14.3216 6.02983 15.575 6.5649 16.5052 7.49497Z" stroke="currentColor" stroke-width="1.5" stroke-linecap="round" stroke-linejoin="round"/>
</svg>
