<svg width="24" height="24" viewBox="0 0 24 24" fill="none" xmlns="http://www.w3.org/2000/svg">
<path d="M4.43184 4.44202C4.04636 4.67868 3.71938 4.99946 3.47537 5.38035C3.23137 5.76123 3.07665 6.19236 3.0228 6.64149C2.96895 7.09061 3.01736 7.5461 3.16441 7.97387C3.31145 8.40165 3.55333 8.79063 3.87194 9.11172C4.19055 9.43281 4.57765 9.67769 5.00427 9.82805C5.43089 9.97841 5.88599 10.0303 6.33552 9.97998C6.78505 9.92961 7.21737 9.77824 7.60013 9.53719C7.9829 9.29614 8.30619 8.97166 8.54584 8.58802M8.6001 15.4L12.0001 12M14.0001 10L19.0001 5M3 3L21 21M3 17C3 17.7956 3.31607 18.5587 3.87868 19.1213C4.44129 19.6839 5.20435 20 6 20C6.79565 20 7.55871 19.6839 8.12132 19.1213C8.68393 18.5587 9 17.7956 9 17C9 16.2044 8.68393 15.4413 8.12132 14.8787C7.55871 14.3161 6.79565 14 6 14C5.20435 14 4.44129 14.3161 3.87868 14.8787C3.31607 15.4413 3 16.2044 3 17Z" stroke="currentColor" stroke-width="1.5" stroke-linecap="round" stroke-linejoin="round"/>
</svg>
