<svg width="24" height="24" viewBox="0 0 24 24" fill="none" xmlns="http://www.w3.org/2000/svg">
<path d="M8 17C8 17.5304 7.78929 18.0391 7.41421 18.4142C7.03914 18.7893 6.53043 19 6 19C5.46957 19 4.96086 18.7893 4.58579 18.4142C4.21071 18.0391 4 17.5304 4 17C4 16.4696 4.21071 15.9609 4.58579 15.5858C4.96086 15.2107 5.46957 15 6 15C6.53043 15 7.03914 15.2107 7.41421 15.5858C7.78929 15.9609 8 16.4696 8 17ZM8 17H13C13.1965 15.7445 13.7866 14.5838 14.6852 13.6852C15.5838 12.7866 16.7445 12.1965 18 12V7C18 6.46957 17.7893 5.96086 17.4142 5.58579C17.0391 5.21071 16.5304 5 16 5H15M10 4L8 8H11L9 12M16 17C16 17.5304 16.2107 18.0391 16.5858 18.4142C16.9609 18.7893 17.4696 19 18 19C18.5304 19 19.0391 18.7893 19.4142 18.4142C19.7893 18.0391 20 17.5304 20 17C20 16.4696 19.7893 15.9609 19.4142 15.5858C19.0391 15.2107 18.5304 15 18 15C17.4696 15 16.9609 15.2107 16.5858 15.5858C16.2107 15.9609 16 16.4696 16 17Z" stroke="currentColor" stroke-width="1.5" stroke-linecap="round" stroke-linejoin="round"/>
</svg>
