<svg width="24" height="24" viewBox="0 0 24 24" fill="none" xmlns="http://www.w3.org/2000/svg">
<path d="M3 15C5 18 7 19 10 19C11.95 19 14.324 17.732 15.746 15.744M16.927 12.932C16.9757 12.6237 17.0001 12.3121 17 12C17 8 14 5 11 5C10.358 5 9.761 5.069 9.22 5.201M6.728 6.716C6.258 7.333 6 8.102 6 9C6 11.5 8 14 12 14C12.597 14 13.203 13.945 13.808 13.844M16.91 12.923C19.145 11.97 21.062 10.5 22 9M3 3L21 21" stroke="currentColor" stroke-width="1.5" stroke-linecap="round" stroke-linejoin="round"/>
</svg>
