<svg width="24" height="24" viewBox="0 0 24 24" fill="none" xmlns="http://www.w3.org/2000/svg">
<path d="M11.0001 7H16.0001C16.2653 7 16.5196 7.10536 16.7072 7.29289C16.8947 7.48043 17.0001 7.73478 17.0001 8V12.5C17.0001 12.654 16.9861 12.804 16.9601 12.95M14.9601 14.957C14.8101 14.985 14.6551 15 14.4971 15H13.9971C13.4666 15 12.9579 14.7893 12.5829 14.4142C12.2078 14.0391 11.9971 13.5304 11.9971 13C11.9971 12.4696 11.7864 11.9609 11.4113 11.5858C11.0362 11.2107 10.5275 11 9.99707 11C9.46664 11 8.95793 11.2107 8.58286 11.5858C8.20778 11.9609 7.99707 12.4696 7.99707 13C7.99707 13.5304 7.78636 14.0391 7.41128 14.4142C7.03621 14.7893 6.5275 15 5.99707 15H5.49707C4.83403 15 4.19814 14.7366 3.7293 14.2678C3.26046 13.7989 2.99707 13.163 2.99707 12.5V8C2.99707 7.73478 3.10243 7.48043 3.28996 7.29289C3.4775 7.10536 3.73185 7 3.99707 7H6.99707M10 17C10 17.5304 10.2107 18.0391 10.5858 18.4142C10.9609 18.7893 11.4696 19 12 19H15.5C16.4713 19.0017 17.4256 18.7449 18.265 18.256M20.265 16.256C20.735 15.446 21.004 14.504 21.004 13.5V4M3 3L21 21" stroke="currentColor" stroke-width="1.5" stroke-linecap="round" stroke-linejoin="round"/>
</svg>
