<svg width="24" height="24" viewBox="0 0 24 24" fill="none" xmlns="http://www.w3.org/2000/svg">
<path d="M5.03901 5.06205C4.38963 5.71275 3.87476 6.48499 3.52382 7.33467C3.17288 8.18434 2.99273 9.09483 2.99366 10.0141C2.99553 11.8707 3.73487 13.6506 5.04901 14.9621C6.36316 16.2735 8.14447 17.0093 10.0011 17.0074C11.8577 17.0055 13.6375 16.2662 14.949 14.9521M16.533 12.5181C17.0209 11.2546 17.1318 9.87669 16.8523 8.55144C16.5727 7.22619 15.9147 6.01051 14.958 5.05179C14.0012 4.09307 12.7869 3.43249 11.4623 3.15014C10.1376 2.86778 8.75951 2.97579 7.49501 3.46105M3 3L21 21" stroke="currentColor" stroke-width="1.5" stroke-linecap="round" stroke-linejoin="round"/>
</svg>
