<svg width="24" height="24" viewBox="0 0 24 24" fill="none" xmlns="http://www.w3.org/2000/svg">
<path d="M9.172 19C9.35534 19.5186 9.6777 19.9767 10.1039 20.3244C10.53 20.6722 11.0436 20.896 11.5884 20.9716C12.1332 21.0471 12.6883 20.9714 13.193 20.7528C13.6976 20.5342 14.1325 20.181 14.45 19.7319C14.7676 19.2828 14.9555 18.755 14.9933 18.2063C15.0311 17.6576 14.9174 17.109 14.6645 16.6206C14.4116 16.1322 14.0293 15.7227 13.5594 15.4369C13.0895 15.1511 12.55 14.9999 12 15M12 15C11.2043 15 10.4413 14.6839 9.87868 14.1213C9.31607 13.5587 9 12.7956 9 12C9 11.2044 9.31607 10.4413 9.87868 9.87868C10.4413 9.31607 11.2044 9 12 9M12 15C12.7956 15 13.5587 14.6839 14.1213 14.1213C14.6839 13.5587 15 12.7956 15 12C15 11.2044 14.6839 10.4413 14.1213 9.87868C13.5587 9.31607 12.7957 9 12 9M14.83 5C14.6467 4.48152 14.3244 4.02341 13.8983 3.67571C13.4723 3.32802 12.9588 3.10413 12.4141 3.0285C11.8694 2.95288 11.3144 3.02843 10.8097 3.24691C10.3051 3.46539 9.87017 3.81838 9.55255 4.26731C9.23493 4.71624 9.04682 5.24384 9.00878 5.79245C8.97073 6.34106 9.08421 6.88958 9.33682 7.37806C9.58943 7.86653 9.97145 8.27618 10.4411 8.56222C10.9108 8.84827 11.4501 8.99971 12 9" stroke="currentColor" stroke-width="1.5" stroke-linecap="round" stroke-linejoin="round"/>
</svg>
