<svg width="24" height="24" viewBox="0 0 24 24" fill="none" xmlns="http://www.w3.org/2000/svg">
<path fill-rule="evenodd" clip-rule="evenodd" d="M2.25 4C2.25 3.58579 2.58579 3.25 3 3.25H6C7.79021 3.25 9.5071 3.96116 10.773 5.22703C11.9828 6.43681 12.6859 8.05853 12.7458 9.7625C12.8959 9.57643 13.0564 9.39763 13.227 9.22703C14.4929 7.96116 16.2098 7.25 18 7.25H21C21.4142 7.25 21.75 7.58579 21.75 8V9C21.75 10.7902 21.0388 12.5071 19.773 13.773C18.5071 15.0388 16.7902 15.75 15 15.75H12.75V20C12.75 20.4142 12.4142 20.75 12 20.75C11.5858 20.75 11.25 20.4142 11.25 20V12.75H9C7.20979 12.75 5.4929 12.0388 4.22703 10.773C2.96116 9.5071 2.25 7.79021 2.25 6V4ZM12.75 14.25V14C12.75 12.6076 13.3031 11.2723 14.2877 10.2877C15.2723 9.30312 16.6076 8.75 18 8.75H20.25V9C20.25 10.3924 19.6969 11.7277 18.7123 12.7123C17.7277 13.6969 16.3924 14.25 15 14.25H12.75ZM11.25 11.25H9C7.60761 11.25 6.27226 10.6969 5.28769 9.71231C4.30312 8.72774 3.75 7.39239 3.75 6V4.75H6C7.39239 4.75 8.72774 5.30312 9.71231 6.28769C10.6969 7.27226 11.25 8.60761 11.25 10V11.25Z" fill="currentColor"/>
</svg>
