<svg width="24" height="25" viewBox="0 0 24 25" fill="none" xmlns="http://www.w3.org/2000/svg">
<path d="M19 15.7502C19.4142 15.7502 19.75 16.086 19.75 16.5002V18.7502H22C22.4142 18.7502 22.75 19.086 22.75 19.5002C22.7498 19.9142 22.4141 20.2502 22 20.2502H19.75V22.5002C19.7498 22.9142 19.4141 23.2502 19 23.2502C18.5859 23.2502 18.2502 22.9142 18.25 22.5002V20.2502H16C15.5859 20.2502 15.2502 19.9142 15.25 19.5002C15.25 19.086 15.5858 18.7502 16 18.7502H18.25V16.5002C18.25 16.086 18.5858 15.7502 19 15.7502Z" fill="currentColor"/>
<path fill-rule="evenodd" clip-rule="evenodd" d="M3.6123 3.7639C6.87315 3.64 9.1387 4.39301 10.6152 5.66819C12.1118 6.96085 12.6884 8.6964 12.7441 10.2893C12.7469 10.2858 12.7501 10.282 12.7529 10.2785C13.2092 9.7152 13.7228 9.17848 14.4141 8.74534C15.8074 7.87235 17.7565 7.52219 21.0635 7.80101C21.4516 7.83399 21.7499 8.15854 21.75 8.54808C21.75 10.2769 21.5418 11.7003 20.8467 12.8811C20.6365 13.2376 20.1761 13.3566 19.8193 13.1467C19.4625 12.9366 19.3439 12.4763 19.5537 12.1194C19.9717 11.4092 20.1799 10.5077 20.2334 9.24534C17.5103 9.08549 16.1176 9.44887 15.2109 10.0168C14.715 10.3276 14.3218 10.7255 13.9189 11.2229C13.7157 11.4738 13.5154 11.7421 13.2959 12.0373C13.1263 12.2654 12.9446 12.5071 12.75 12.7571V14.7502H15.5C15.9142 14.7502 16.25 15.086 16.25 15.5002C16.2498 15.9143 15.9141 16.2502 15.5 16.2502H12.75V20.5481C12.7498 20.9621 12.4141 21.2981 12 21.2981C11.5859 21.2981 11.2502 20.9621 11.25 20.5481V13.2834C7.39676 13.392 5.05645 12.5333 3.72656 10.8674C2.35256 9.14573 2.25001 6.76325 2.25 4.54808L2.26367 4.40452C2.32713 4.078 2.60292 3.82469 2.94629 3.80003L3.6123 3.7639ZM3.75684 5.25999C3.79197 7.21725 4.00372 8.81074 4.89844 9.93187C5.79906 11.0601 7.5648 11.8929 11.25 11.7815V10.5481C11.25 9.20977 10.8062 7.81479 9.63477 6.80296C8.54364 5.86074 6.71754 5.16188 3.75684 5.25999Z" fill="currentColor"/>
</svg>
