<svg width="24" height="25" viewBox="0 0 24 25" fill="none" xmlns="http://www.w3.org/2000/svg">
<path fill-rule="evenodd" clip-rule="evenodd" d="M3.6123 3.7639C6.87315 3.64 9.1387 4.39301 10.6152 5.66819C12.1118 6.96085 12.6884 8.6964 12.7441 10.2893C12.7469 10.2858 12.7501 10.282 12.7529 10.2785C13.2092 9.7152 13.7228 9.17848 14.4141 8.74534C15.8074 7.87235 17.7565 7.52219 21.0635 7.80101C21.2632 7.81798 21.4378 7.9134 21.5615 8.05394C21.6972 8.1965 21.7778 8.39157 21.7686 8.60374L21.7275 9.55198L21.7236 9.60081C21.7019 9.79702 21.6958 9.88078 21.6943 9.91233C21.6938 9.92348 21.6943 9.92747 21.6943 9.93284C21.6943 9.94041 21.6951 9.99452 21.6865 10.0588C21.6797 10.1099 21.6682 10.1565 21.6641 10.1741C21.6591 10.195 21.6499 10.2347 21.6406 10.2737C21.6195 10.362 21.5832 10.5156 21.5225 10.7893L21.502 10.8635C21.3825 11.2241 21.0068 11.4433 20.6279 11.3596C20.2236 11.2699 19.968 10.8684 20.0576 10.4641L20.1816 9.92405C20.1885 9.89517 20.1927 9.87554 20.1963 9.86058C20.1965 9.85509 20.196 9.84906 20.1963 9.843C20.1997 9.76944 20.2095 9.6599 20.2295 9.47483L20.2344 9.343C20.234 9.31213 20.2319 9.27963 20.2334 9.24534C17.5103 9.08549 16.1176 9.44887 15.2109 10.0168C14.715 10.3276 14.3218 10.7255 13.9189 11.2229C13.7157 11.4738 13.5154 11.7421 13.2959 12.0373C13.1263 12.2654 12.9446 12.5071 12.75 12.7571V14.7502H13.7051C14.1191 14.7504 14.4551 15.0861 14.4551 15.5002C14.4549 15.9141 14.119 16.25 13.7051 16.2502H12.75V20.5481C12.7498 20.9621 12.4141 21.2981 12 21.2981C11.5859 21.2981 11.2502 20.9621 11.25 20.5481V13.2834C7.39677 13.392 5.05646 12.5333 3.72656 10.8674C2.35256 9.14573 2.25001 6.76325 2.25 4.54808L2.26367 4.40452C2.32713 4.078 2.60292 3.82469 2.94629 3.80003L3.6123 3.7639ZM3.75684 5.25999C3.79197 7.21724 4.00372 8.81074 4.89844 9.93187C5.79907 11.0601 7.56481 11.8929 11.25 11.7815V10.5481C11.25 9.20978 10.8062 7.81479 9.63477 6.80296C8.54364 5.86074 6.71754 5.16188 3.75684 5.25999Z" fill="currentColor"/>
<path d="M19 13.25C19.4142 13.25 19.75 13.5858 19.75 14V14.25H21C21.4142 14.25 21.75 14.5858 21.75 15C21.75 15.4142 21.4142 15.75 21 15.75H18.5C18.3011 15.75 18.1103 15.829 17.9697 15.9697C17.829 16.1103 17.75 16.3011 17.75 16.5C17.75 16.6989 17.829 16.8897 17.9697 17.0303C18.1103 17.171 18.3011 17.25 18.5 17.25H19.5C20.0967 17.25 20.669 17.487 21.091 17.909C21.5129 18.331 21.75 18.9032 21.75 19.5C21.75 20.0967 21.5129 20.669 21.091 21.091C20.7284 21.4536 20.2548 21.6796 19.75 21.7361V22C19.75 22.4142 19.4142 22.75 19 22.75C18.5858 22.75 18.25 22.4142 18.25 22V21.75H17C16.5858 21.75 16.25 21.4142 16.25 21C16.25 20.5858 16.5858 20.25 17 20.25H19.5C19.6989 20.25 19.8897 20.171 20.0303 20.0303C20.171 19.8897 20.25 19.6989 20.25 19.5C20.25 19.3011 20.171 19.1103 20.0303 18.9697C19.8897 18.829 19.6989 18.75 19.5 18.75H18.5C17.9033 18.75 17.331 18.5129 16.909 18.091C16.4871 17.669 16.25 17.0967 16.25 16.5C16.25 15.9033 16.4871 15.331 16.909 14.909C17.2716 14.5464 17.7452 14.3203 18.25 14.2639V14C18.25 13.5858 18.5858 13.25 19 13.25Z" fill="currentColor"/>
</svg>
