<svg width="24" height="24" viewBox="0 0 24 24" fill="none" xmlns="http://www.w3.org/2000/svg">
<path d="M12 12H6M6 12C5.20435 12 4.44129 11.6839 3.87868 11.1213C3.31607 10.5587 3 9.79565 3 9V7C3 5.917 3.574 4.967 4.435 4.44M6 12C5.20435 12 4.44129 12.3161 3.87868 12.8787C3.31607 13.4413 3 14.2044 3 15V17C3 17.7956 3.31607 18.5587 3.87868 19.1213C4.44129 19.6839 5.20435 20 6 20H18C18.5471 20.0009 19.084 19.8515 19.552 19.568M8 4H18C18.7956 4 19.5587 4.31607 20.1213 4.87868C20.6839 5.44129 21 6.20435 21 7V9C21 9.79565 20.6839 10.5587 20.1213 11.1213C19.5587 11.6839 18.7956 12 18 12M18 12H16M18 12C18.7956 12 19.5587 12.3161 20.1213 12.8787C20.6839 13.4413 21 14.2044 21 15V17M7 8V8.01M7 16V16.01M3 3L21 21" stroke="currentColor" stroke-width="1.5" stroke-linecap="round" stroke-linejoin="round"/>
</svg>
