<svg width="24" height="24" viewBox="0 0 24 24" fill="none" xmlns="http://www.w3.org/2000/svg">
<path d="M11.231 20.828C11.003 20.7183 10.803 20.5583 10.6461 20.3599C10.4891 20.1615 10.3793 19.9301 10.325 19.683C10.2611 19.4192 10.1358 19.1742 9.95929 18.968C9.7828 18.7618 9.56011 18.6001 9.30935 18.4963C9.05859 18.3924 8.78683 18.3491 8.51621 18.3701C8.24559 18.3911 7.98375 18.4757 7.752 18.617C6.209 19.557 4.442 17.791 5.382 16.247C5.5231 16.0153 5.60755 15.7537 5.62848 15.4832C5.64942 15.2128 5.60624 14.9412 5.50247 14.6906C5.3987 14.44 5.23726 14.2174 5.03127 14.0409C4.82529 13.8645 4.58056 13.7391 4.317 13.675C2.561 13.249 2.561 10.751 4.317 10.325C4.5808 10.2611 4.82578 10.1358 5.032 9.95929C5.23822 9.7828 5.39985 9.56011 5.50375 9.30935C5.60764 9.05859 5.65085 8.78683 5.62987 8.51621C5.60889 8.24559 5.5243 7.98375 5.383 7.752C4.443 6.209 6.209 4.442 7.753 5.382C8.753 5.99 10.049 5.452 10.325 4.317C10.751 2.561 13.249 2.561 13.675 4.317C13.7389 4.5808 13.8642 4.82578 14.0407 5.032C14.2172 5.23822 14.4399 5.39985 14.6907 5.50375C14.9414 5.60764 15.2132 5.65085 15.4838 5.62987C15.7544 5.60889 16.0162 5.5243 16.248 5.383C17.791 4.443 19.558 6.209 18.618 7.753C18.4769 7.98466 18.3924 8.24634 18.3715 8.51677C18.3506 8.78721 18.3938 9.05877 18.4975 9.30938C18.6013 9.55999 18.7627 9.78258 18.9687 9.95905C19.1747 10.1355 19.4194 10.2609 19.683 10.325C20.192 10.448 20.553 10.746 20.767 11.117M14.8818 11.1649C14.7443 10.6899 14.4916 10.2561 14.1461 9.90232C13.8006 9.5485 13.3729 9.28556 12.9013 9.13688C12.4296 8.9882 11.9285 8.95839 11.4425 9.0501C10.9566 9.14181 10.5008 9.3522 10.1158 9.66255C9.73072 9.97291 9.42834 10.3736 9.23553 10.829C9.04272 11.2844 8.96544 11.7804 9.01057 12.2729C9.0557 12.7654 9.22184 13.2391 9.49422 13.6519C9.76659 14.0647 10.1368 14.4037 10.5718 14.6389M18.0001 22.0001L21.3501 18.7161C21.5556 18.5168 21.719 18.2783 21.8307 18.0147C21.9425 17.7512 22.0003 17.4679 22.0007 17.1817C22.0012 16.8954 21.9443 16.612 21.8334 16.3481C21.7225 16.0841 21.5599 15.8451 21.3551 15.6451C20.9373 15.2364 20.3763 15.0071 19.7918 15.006C19.2074 15.0049 18.6455 15.2321 18.2261 15.6391L18.0021 15.8591L17.7791 15.6391C17.3613 15.2307 16.8006 15.0016 16.2163 15.0005C15.6321 14.9994 15.0705 15.2264 14.6511 15.6331C14.4456 15.8324 14.2821 16.0708 14.1703 16.3343C14.0585 16.5978 14.0006 16.8811 14 17.1673C13.9994 17.4536 14.0562 17.7371 14.167 18.001C14.2778 18.265 14.4404 18.504 14.6451 18.7041L18.0001 22.0001Z" stroke="currentColor" stroke-width="1.5" stroke-linecap="round" stroke-linejoin="round"/>
</svg>
