<svg width="24" height="24" viewBox="0 0 24 24" fill="none" xmlns="http://www.w3.org/2000/svg">
<path d="M19.875 6.27008C20.2187 6.46554 20.5041 6.74905 20.7018 7.09143C20.8995 7.43382 21.0025 7.82271 21 8.21808V15.5021C21 16.3111 20.557 17.0571 19.842 17.4501L13.092 21.7201C12.7574 21.9038 12.3818 22.0001 12 22.0001C11.6182 22.0001 11.2426 21.9038 10.908 21.7201L4.158 17.4501C3.80817 17.2589 3.51612 16.9772 3.31241 16.6346C3.1087 16.2919 3.0008 15.9007 3 15.5021V8.21708C3 7.40808 3.443 6.66308 4.158 6.27008L10.908 2.29008C11.2525 2.10011 11.6396 2.00049 12.033 2.00049C12.4264 2.00049 12.8135 2.10011 13.158 2.29008L19.908 6.27008H19.875Z" stroke="currentColor" stroke-width="1.5" stroke-linecap="round" stroke-linejoin="round"/>
<path d="M9 12C9 12.7956 9.31607 13.5587 9.87868 14.1213C10.4413 14.6839 11.2044 15 12 15C12.7956 15 13.5587 14.6839 14.1213 14.1213C14.6839 13.5587 15 12.7956 15 12C15 11.2044 14.6839 10.4413 14.1213 9.87868C13.5587 9.31607 12.7956 9 12 9C11.2044 9 10.4413 9.31607 9.87868 9.87868C9.31607 10.4413 9 11.2044 9 12Z" stroke="currentColor" stroke-width="1.5" stroke-linecap="round" stroke-linejoin="round"/>
</svg>
