<svg width="24" height="24" viewBox="0 0 24 24" fill="none" xmlns="http://www.w3.org/2000/svg">
<path fill-rule="evenodd" clip-rule="evenodd" d="M12.9461 4.49382C12.7055 3.50206 11.2945 3.50206 11.0539 4.49382L11.0538 4.49421C10.6578 6.12252 8.79686 6.89441 7.36336 6.02285L7.36299 6.02262C6.49035 5.49135 5.49253 6.49022 6.0235 7.3618C6.22619 7.69432 6.34752 8.06998 6.37762 8.45824C6.40773 8.84659 6.34572 9.23656 6.19663 9.59641C6.04755 9.95627 5.8156 10.2758 5.51966 10.5291C5.22378 10.7823 4.8723 10.9621 4.49382 11.0539C3.50206 11.2945 3.50206 12.7055 4.49382 12.9461L4.49422 12.9462C4.87244 13.0382 5.22363 13.2181 5.51923 13.4714C5.81483 13.7246 6.0465 14.0441 6.19542 14.4037C6.34433 14.7633 6.40629 15.153 6.37625 15.5411C6.34621 15.9292 6.22502 16.3047 6.02253 16.6371C5.49145 17.5098 6.49026 18.5074 7.3618 17.9765C7.69431 17.7738 8.06998 17.6525 8.45824 17.6224C8.84659 17.5923 9.23656 17.6543 9.59641 17.8034C9.95627 17.9525 10.2758 18.1844 10.5291 18.4803C10.7824 18.7763 10.9622 19.1278 11.0539 19.5064L11.0576 19.5226C11.092 19.6793 11.1669 19.8243 11.2749 19.9429C11.383 20.0616 11.5203 20.1497 11.6731 20.1985C12.0677 20.3245 12.2855 20.7466 12.1595 21.1411C12.0335 21.5357 11.6114 21.7535 11.2169 21.6275C10.8134 21.4986 10.451 21.266 10.1658 20.9529C9.88301 20.6422 9.68613 20.2633 9.59457 19.8534C9.55801 19.7067 9.48781 19.5706 9.38948 19.4557C9.28977 19.3392 9.16396 19.2478 9.02228 19.1891C8.88061 19.1304 8.72708 19.106 8.57419 19.1179C8.4213 19.1297 8.27337 19.1775 8.14244 19.2574L8.1422 19.2575C5.92778 20.6065 3.39265 18.0724 4.74138 15.857L4.74147 15.8569C4.82118 15.726 4.86889 15.5781 4.88072 15.4253C4.89255 15.2726 4.86816 15.1191 4.80953 14.9776C4.7509 14.836 4.65969 14.7102 4.54332 14.6105C4.42705 14.5109 4.28893 14.4401 4.14018 14.4039C1.61994 13.7925 1.61994 10.2075 4.14018 9.59614L4.14039 9.59609C4.28943 9.55998 4.42783 9.48919 4.54434 9.38948C4.66085 9.28977 4.75216 9.16396 4.81086 9.02228C4.86955 8.88061 4.89397 8.72708 4.88211 8.57419C4.87026 8.4213 4.82247 8.27337 4.74264 8.14244L4.7425 8.1422C3.39354 5.92791 5.92736 3.39294 8.14263 4.74115C8.70903 5.08552 9.4399 4.7816 9.59614 4.14018M12.9461 4.49382C13.0379 4.8723 13.2177 5.22378 13.4709 5.51966C13.7242 5.8156 14.0437 6.04755 14.4036 6.19663C14.7634 6.34572 15.1534 6.40773 15.5418 6.37762C15.93 6.34752 16.3057 6.22619 16.6382 6.0235C17.5097 5.49256 18.5085 6.49025 17.9775 7.36285C17.775 7.69528 17.6538 8.07081 17.6238 8.45889C17.5937 8.84698 17.6557 9.23668 17.8046 9.59631C17.9535 9.95594 18.1852 10.2754 18.4808 10.5286C18.7764 10.7819 19.1276 10.9618 19.5058 11.0538L19.5061 11.0538C20.2195 11.227 20.4566 12.0416 20.0698 12.5829C19.829 12.92 19.9069 13.3884 20.2439 13.6292C20.581 13.87 21.0494 13.7921 21.2902 13.4551C22.1954 12.1884 21.7665 10.059 19.8599 9.59617C19.7111 9.55993 19.573 9.48913 19.4567 9.38949C19.3403 9.28979 19.2491 9.16404 19.1905 9.02245C19.1318 8.88086 19.1075 8.72744 19.1193 8.57465C19.1311 8.42187 19.1788 8.27403 19.2585 8.14315L19.2586 8.14301C20.6074 5.92764 18.0722 3.39347 15.8578 4.7425L15.8576 4.74264C15.7266 4.82247 15.5787 4.87026 15.4258 4.88211C15.2729 4.89397 15.1194 4.86955 14.9777 4.81086C14.836 4.75216 14.7102 4.66085 14.6105 4.54434C14.5108 4.42783 14.44 4.28943 14.4039 4.14039L14.4039 4.14018C13.7925 1.62007 10.2079 1.61994 9.59624 4.13979M9.34835 9.34835C10.0516 8.64509 11.0054 8.25 12 8.25C12.9946 8.25 13.9484 8.64509 14.6517 9.34835C15.3549 10.0516 15.75 11.0054 15.75 12C15.75 12.9946 15.3549 13.9484 14.6517 14.6517C13.9484 15.3549 12.9946 15.75 12 15.75C11.0054 15.75 10.0516 15.3549 9.34835 14.6517C8.64509 13.9484 8.25 12.9946 8.25 12C8.25 11.0054 8.64509 10.0516 9.34835 9.34835ZM12 9.75C11.4033 9.75 10.831 9.98705 10.409 10.409C9.98705 10.831 9.75 11.4033 9.75 12C9.75 12.5967 9.98705 13.169 10.409 13.591C10.831 14.0129 11.4033 14.25 12 14.25C12.5967 14.25 13.169 14.0129 13.591 13.591C14.0129 13.169 14.25 12.5967 14.25 12C14.25 11.4033 14.0129 10.831 13.591 10.409C13.169 9.98705 12.5967 9.75 12 9.75ZM21.5303 16.4697C21.8232 16.7626 21.8232 17.2374 21.5303 17.5303L17.5303 21.5303C17.2374 21.8232 16.7626 21.8232 16.4697 21.5303L14.4697 19.5303C14.1768 19.2374 14.1768 18.7626 14.4697 18.4697C14.7626 18.1768 15.2374 18.1768 15.5303 18.4697L17 19.9393L20.4697 16.4697C20.7626 16.1768 21.2374 16.1768 21.5303 16.4697Z" fill="currentColor"/>
</svg>
