<svg width="24" height="24" viewBox="0 0 24 24" fill="none" xmlns="http://www.w3.org/2000/svg">
<path d="M10.325 19.683C10.2613 19.4191 10.1361 19.174 9.95963 18.9676C9.78317 18.7613 9.56045 18.5995 9.30962 18.4956C9.05878 18.3917 8.78694 18.3485 8.51626 18.3696C8.24557 18.3907 7.9837 18.4755 7.752 18.617C6.209 19.557 4.442 17.791 5.382 16.247C5.5231 16.0153 5.60755 15.7537 5.62848 15.4832C5.64942 15.2128 5.60624 14.9412 5.50247 14.6906C5.3987 14.44 5.23726 14.2174 5.03127 14.0409C4.82529 13.8645 4.58056 13.7391 4.317 13.675C2.561 13.249 2.561 10.751 4.317 10.325C4.5808 10.2611 4.82578 10.1358 5.032 9.95929C5.23822 9.7828 5.39985 9.56011 5.50375 9.30935C5.60764 9.05859 5.65085 8.78683 5.62987 8.51621C5.60889 8.24559 5.5243 7.98375 5.383 7.752C4.443 6.209 6.209 4.442 7.753 5.382C8.753 5.99 10.049 5.452 10.325 4.317C10.751 2.561 13.249 2.561 13.675 4.317C13.7389 4.5808 13.8642 4.82578 14.0407 5.032C14.2172 5.23822 14.4399 5.39985 14.6907 5.50375C14.9414 5.60764 15.2132 5.65085 15.4838 5.62987C15.7544 5.60889 16.0162 5.5243 16.248 5.383C17.791 4.443 19.558 6.209 18.618 7.753C18.4769 7.98466 18.3924 8.24634 18.3715 8.51677C18.3506 8.78721 18.3938 9.05877 18.4975 9.30938C18.6013 9.55999 18.7627 9.78258 18.9687 9.95905C19.1747 10.1355 19.4194 10.2609 19.683 10.325C19.916 10.3765 20.1353 10.4772 20.3261 10.6206C20.5169 10.7639 20.6747 10.9465 20.789 11.156M14.8899 11.195C14.7589 10.7238 14.5147 10.2917 14.1786 9.93637C13.8424 9.58106 13.4245 9.3133 12.9612 9.15639C12.4979 8.99949 12.0033 8.95821 11.5205 9.03613C11.0376 9.11406 10.5811 9.30883 10.1907 9.6035C9.80025 9.89816 9.48779 10.2838 9.28047 10.7268C9.07315 11.1698 8.97726 11.6568 9.00114 12.1453C9.02502 12.6339 9.16796 13.1092 9.4175 13.5299C9.66704 13.9505 10.0156 14.3039 10.4329 14.559M17.8 20.817L15.628 21.955C15.5635 21.9885 15.491 22.0035 15.4186 21.9982C15.3461 21.9929 15.2765 21.9676 15.2176 21.9251C15.1587 21.8826 15.1127 21.8245 15.0849 21.7574C15.0571 21.6903 15.0485 21.6167 15.06 21.545L15.475 19.134L13.718 17.427C13.6656 17.3763 13.6284 17.3119 13.6108 17.2411C13.5933 17.1703 13.5959 17.096 13.6186 17.0266C13.6412 16.9573 13.6829 16.8957 13.7388 16.8489C13.7948 16.8021 13.8627 16.772 13.935 16.762L16.363 16.41L17.449 14.217C17.4815 14.1517 17.5315 14.0967 17.5935 14.0583C17.6556 14.0199 17.727 13.9995 17.8 13.9995C17.8729 13.9995 17.9444 14.0199 18.0064 14.0583C18.0685 14.0967 18.1185 14.1517 18.151 14.217L19.237 16.41L21.665 16.762C21.737 16.7723 21.8047 16.8027 21.8604 16.8495C21.9162 16.8963 21.9576 16.9578 21.9802 17.027C22.0028 17.0962 22.0056 17.1703 21.9882 17.241C21.9708 17.3117 21.9341 17.3761 21.882 17.427L20.125 19.134L20.539 21.544C20.5514 21.6158 20.5434 21.6898 20.516 21.7573C20.4885 21.8249 20.4426 21.8834 20.3836 21.9262C20.3245 21.969 20.2547 21.9944 20.1819 21.9995C20.1092 22.0046 20.0364 21.9891 19.972 21.955L17.8 20.817Z" stroke="currentColor" stroke-width="1.5" stroke-linecap="round" stroke-linejoin="round"/>
</svg>
