<svg width="24" height="24" viewBox="0 0 24 24" fill="none" xmlns="http://www.w3.org/2000/svg">
<path d="M9.451 5.437C9.869 5.219 10.201 4.828 10.325 4.317C10.751 2.561 13.249 2.561 13.675 4.317C13.7389 4.5808 13.8642 4.82578 14.0407 5.032C14.2172 5.23822 14.4399 5.39985 14.6907 5.50375C14.9414 5.60764 15.2132 5.65085 15.4838 5.62987C15.7544 5.60889 16.0162 5.5243 16.248 5.383C17.791 4.443 19.558 6.209 18.618 7.753C18.4769 7.98466 18.3924 8.24634 18.3715 8.51677C18.3506 8.78721 18.3938 9.05877 18.4975 9.30938C18.6013 9.55999 18.7627 9.78258 18.9687 9.95905C19.1747 10.1355 19.4194 10.2609 19.683 10.325C21.439 10.751 21.439 13.249 19.683 13.675C19.197 13.793 18.789 14.115 18.56 14.553M18.372 18.356C17.855 18.879 17.023 19.09 16.247 18.618C16.0153 18.4769 15.7537 18.3924 15.4832 18.3715C15.2128 18.3506 14.9412 18.3938 14.6906 18.4975C14.44 18.6013 14.2174 18.7627 14.0409 18.9687C13.8645 19.1747 13.7391 19.4194 13.675 19.683C13.249 21.439 10.751 21.439 10.325 19.683C10.2611 19.4192 10.1358 19.1742 9.95929 18.968C9.7828 18.7618 9.56011 18.6001 9.30935 18.4963C9.05859 18.3924 8.78683 18.3491 8.51621 18.3701C8.24559 18.3911 7.98375 18.4757 7.752 18.617C6.209 19.557 4.442 17.791 5.382 16.247C5.5231 16.0153 5.60755 15.7537 5.62848 15.4832C5.64942 15.2128 5.60624 14.9412 5.50247 14.6906C5.3987 14.44 5.23726 14.2174 5.03127 14.0409C4.82529 13.8645 4.58056 13.7391 4.317 13.675C2.561 13.249 2.561 10.751 4.317 10.325C4.5808 10.2611 4.82578 10.1358 5.032 9.95929C5.23822 9.7828 5.39985 9.56011 5.50375 9.30935C5.60764 9.05859 5.65085 8.78683 5.62987 8.51621C5.60889 8.24559 5.5243 7.98375 5.383 7.752C4.911 6.978 5.121 6.148 5.642 5.631M9.88899 9.86904C9.60927 10.1465 9.38695 10.4764 9.23471 10.8398C9.08248 11.2032 9.00331 11.593 9.00173 11.987C9.00015 12.381 9.0762 12.7715 9.22551 13.1361C9.37483 13.5007 9.5945 13.8323 9.87199 14.112C10.1495 14.3918 10.4793 14.6141 10.8427 14.7663C11.2061 14.9185 11.596 14.9977 11.99 14.9993C12.384 15.0009 12.7744 14.9248 13.139 14.7755C13.5036 14.6262 13.8353 14.4065 14.115 14.129M14.707 10.705C14.4094 10.0852 13.9086 9.58592 13.288 9.29004M3 3L21 21" stroke="currentColor" stroke-width="1.5" stroke-linecap="round" stroke-linejoin="round"/>
</svg>
