<svg width="24" height="24" viewBox="0 0 24 24" fill="none" xmlns="http://www.w3.org/2000/svg">
<path d="M12.578 20.905C11.698 21.204 10.595 20.796 10.325 19.683C10.2611 19.4192 10.1358 19.1742 9.95929 18.968C9.7828 18.7618 9.56011 18.6001 9.30935 18.4963C9.05859 18.3924 8.78683 18.3491 8.51621 18.3701C8.24559 18.3911 7.98375 18.4757 7.752 18.617C6.209 19.557 4.442 17.791 5.382 16.247C5.5231 16.0153 5.60755 15.7537 5.62848 15.4832C5.64942 15.2128 5.60624 14.9412 5.50247 14.6906C5.3987 14.44 5.23726 14.2174 5.03127 14.0409C4.82529 13.8645 4.58056 13.7391 4.317 13.675C2.561 13.249 2.561 10.751 4.317 10.325C4.5808 10.2611 4.82578 10.1358 5.032 9.95929C5.23822 9.7828 5.39985 9.56011 5.50375 9.30935C5.60764 9.05859 5.65085 8.78683 5.62987 8.51621C5.60889 8.24559 5.5243 7.98375 5.383 7.752C4.443 6.209 6.209 4.442 7.753 5.382C8.753 5.99 10.049 5.452 10.325 4.317C10.751 2.561 13.249 2.561 13.675 4.317C13.7389 4.5808 13.8642 4.82578 14.0407 5.032C14.2172 5.23822 14.4399 5.39985 14.6907 5.50375C14.9414 5.60764 15.2132 5.65085 15.4838 5.62987C15.7544 5.60889 16.0162 5.5243 16.248 5.383C17.791 4.443 19.558 6.209 18.618 7.753C18.4769 7.98466 18.3924 8.24634 18.3715 8.51677C18.3506 8.78721 18.3938 9.05877 18.4975 9.30938C18.6013 9.55999 18.7627 9.78258 18.9687 9.95905C19.1747 10.1355 19.4194 10.2609 19.683 10.325C20.257 10.465 20.643 10.825 20.843 11.262M14.9901 12.256C15.044 11.6257 14.8973 10.9944 14.5709 10.4525C14.2446 9.91062 13.7552 9.48574 13.1729 9.23862C12.5906 8.9915 11.945 8.93478 11.3285 9.07658C10.712 9.21839 10.1561 9.55144 9.74026 10.0281C9.32441 10.5049 9.0699 11.1008 9.0131 11.7309C8.9563 12.3609 9.10011 12.9928 9.42399 13.5362C9.74787 14.0796 10.2352 14.5067 10.8164 14.7565C11.3976 15.0063 12.0429 15.0659 12.6601 14.927M19 18V18.01M21.121 20.1209C21.5407 19.7014 21.8265 19.1668 21.9423 18.5849C22.0581 18.0029 21.9988 17.3997 21.7717 16.8514C21.5447 16.3032 21.1602 15.8346 20.6668 15.5049C20.1734 15.1752 19.5934 14.9993 19 14.9993C18.4066 14.9993 17.8266 15.1752 17.3332 15.5049C16.8398 15.8346 16.4553 16.3032 16.2283 16.8514C16.0012 17.3997 15.9419 18.0029 16.0577 18.5849C16.1735 19.1668 16.4594 19.7014 16.879 20.1209C17.297 20.5399 18.004 21.1659 19 21.9999C20.051 21.1099 20.759 20.4839 21.121 20.1209Z" stroke="currentColor" stroke-width="1.5" stroke-linecap="round" stroke-linejoin="round"/>
</svg>
