<svg width="24" height="24" viewBox="0 0 24 24" fill="none" xmlns="http://www.w3.org/2000/svg">
<path d="M14.6473 4.08101C14.6741 4.19174 14.7267 4.29457 14.8007 4.38115C14.8748 4.46773 14.9682 4.53561 15.0735 4.57926C15.1787 4.62292 15.2928 4.64112 15.4064 4.63239C15.52 4.62365 15.6299 4.58823 15.7273 4.52901C18.1663 3.04401 20.9573 5.83401 19.4722 8.27301C19.413 8.37027 19.3776 8.48014 19.3688 8.59368C19.36 8.70722 19.3781 8.82123 19.4216 8.92646C19.4652 9.03168 19.533 9.12515 19.6194 9.19926C19.7059 9.27338 19.8086 9.32605 19.9193 9.35301C22.6943 10.026 22.6943 13.973 19.9193 14.647C19.8085 14.6738 19.7057 14.7264 19.6191 14.8005C19.5325 14.8745 19.4646 14.968 19.421 15.0732C19.3773 15.1785 19.3591 15.2925 19.3679 15.4061C19.3766 15.5197 19.412 15.6297 19.4713 15.727C20.9563 18.166 18.1663 20.957 15.7273 19.472C15.63 19.4128 15.5201 19.3773 15.4066 19.3685C15.293 19.3597 15.179 19.3778 15.0738 19.4214C14.9686 19.465 14.8751 19.5327 14.801 19.6192C14.7269 19.7056 14.6742 19.8084 14.6473 19.919C13.9742 22.694 10.0273 22.694 9.35325 19.919C9.32642 19.8083 9.27384 19.7054 9.19977 19.6189C9.12571 19.5323 9.03226 19.4644 8.92702 19.4207C8.82178 19.3771 8.70772 19.3589 8.59412 19.3676C8.48052 19.3764 8.37058 19.4118 8.27325 19.471C5.83425 20.956 3.04325 18.166 4.52825 15.727C4.58748 15.6297 4.62294 15.5199 4.63173 15.4063C4.64052 15.2928 4.62241 15.1788 4.57886 15.0736C4.5353 14.9683 4.46755 14.8749 4.38108 14.8007C4.29462 14.7266 4.1919 14.674 4.08125 14.647C1.30625 13.974 1.30625 10.027 4.08125 9.35301C4.19198 9.32618 4.29482 9.27359 4.3814 9.19953C4.46798 9.12546 4.53585 9.03201 4.57951 8.92677C4.62316 8.82153 4.64136 8.70747 4.63263 8.59387C4.6239 8.48027 4.58848 8.37034 4.52925 8.27301C3.04425 5.83401 5.83425 3.04301 8.27325 4.52801C8.37042 4.58769 8.48033 4.6235 8.59401 4.63252C8.70768 4.64154 8.82187 4.62351 8.92723 4.5799C9.03259 4.53629 9.12613 4.46835 9.20018 4.38163C9.27423 4.29492 9.32668 4.1919 9.35325 4.08101C10.0262 1.30601 13.9733 1.30601 14.6473 4.08101ZM12.0002 9.00001C11.2046 9.00001 10.4415 9.31608 9.87893 9.87869C9.31632 10.4413 9.00025 11.2044 9.00025 12C9.00025 12.7957 9.31632 13.5587 9.87893 14.1213C10.4415 14.6839 11.2046 15 12.0002 15C12.7959 15 13.559 14.6839 14.1216 14.1213C14.6842 13.5587 15.0002 12.7957 15.0002 12C15.0002 11.2044 14.6842 10.4413 14.1216 9.87869C13.559 9.31608 12.7959 9.00001 12.0002 9.00001Z" fill="currentColor"/>
</svg>
