<svg width="24" height="24" viewBox="0 0 24 24" fill="none" xmlns="http://www.w3.org/2000/svg">
<path d="M5.63398 5.63803C3.96893 7.33056 3.04012 9.61247 3.04988 11.9867C3.05964 14.3609 4.00718 16.6351 5.68609 18.3139C7.36501 19.9927 9.63928 20.9401 12.0135 20.9496C14.3877 20.9592 16.6696 20.0302 18.362 18.365M20.042 16.045C20.8941 14.354 21.1912 12.4372 20.8909 10.5675C20.5906 8.69787 19.7082 6.97056 18.3693 5.63145C17.0304 4.29233 15.3032 3.40965 13.4336 3.10902C11.564 2.8084 9.64718 3.10514 7.95598 3.95703M16 12H18M13 15H15M13 18H14M13 9H17M13 6H14M3 3L21 21" stroke="currentColor" stroke-width="1.5" stroke-linecap="round" stroke-linejoin="round"/>
</svg>
