<svg width="24" height="24" viewBox="0 0 24 24" fill="none" xmlns="http://www.w3.org/2000/svg">
<path d="M3.5756 3.59705C3.39123 3.78411 3.2455 4.00567 3.14675 4.24905C3.048 4.49244 2.99815 4.75289 3.00005 5.01554C3.0039 5.54599 3.2183 6.05318 3.5961 6.42555C3.9739 6.79791 4.48415 7.00494 5.0146 7.0011C5.54505 6.99725 6.05224 6.78285 6.4246 6.40505M17.0005 5C17.0005 5.53043 17.2112 6.03914 17.5863 6.41421C17.9613 6.78929 18.4701 7 19.0005 7M17.0005 5C17.0005 4.46957 17.2112 3.96086 17.5863 3.58579C17.9613 3.21071 18.4701 3 19.0005 3C19.5309 3 20.0396 3.21071 20.4147 3.58579C20.7898 3.96086 21.0005 4.46957 21.0005 5C21.0005 5.53043 20.7898 6.03914 20.4147 6.41421C20.0396 6.78929 19.5309 7 19.0005 7M17.0005 5H9.00049M19.0005 7V15M7.00049 19C7.00049 19.5304 6.78977 20.0391 6.4147 20.4142C6.03963 20.7893 5.53092 21 5.00049 21C4.47006 21 3.96135 20.7893 3.58627 20.4142C3.2112 20.0391 3.00049 19.5304 3.00049 19C3.00049 18.4696 3.2112 17.9609 3.58627 17.5858C3.96135 17.2107 4.47006 17 5.00049 17M7.00049 19C7.00049 18.4696 6.78977 17.9609 6.4147 17.5858C6.03963 17.2107 5.53092 17 5.00049 17M7.00049 19H17.0005M5.00049 17V7M17.5746 17.598C17.21 17.975 17.0081 18.48 17.0123 19.0044C17.0165 19.5288 17.2264 20.0306 17.597 20.4017C17.9676 20.7728 18.469 20.9835 18.9934 20.9884C19.5178 20.9933 20.0232 20.7921 20.4006 20.428M3.00049 3L21.0005 21" stroke="currentColor" stroke-width="1.5" stroke-linecap="round" stroke-linejoin="round"/>
</svg>
