<svg width="24" height="24" viewBox="0 0 24 24" fill="none" xmlns="http://www.w3.org/2000/svg">
<path d="M15.861 15.896C15.3071 16.4628 15 17.2256 15.0066 18.018C15.0133 18.8104 15.3332 19.568 15.8965 20.1254C16.4598 20.6827 17.2207 20.9946 18.0132 20.9928C18.8056 20.9911 19.5652 20.6759 20.126 20.116M20.704 16.699C20.391 16.0512 19.8564 15.5369 19.197 15.249M8.70001 10.7L10.036 10.012M12.66 8.66005L15.3 7.30005M8.70001 13.3L15.3 16.7M3 3L21 21M3 12C3 12.7956 3.31607 13.5587 3.87868 14.1213C4.44129 14.6839 5.20435 15 6 15C6.79565 15 7.55871 14.6839 8.12132 14.1213C8.68393 13.5587 9 12.7956 9 12C9 11.2044 8.68393 10.4413 8.12132 9.87868C7.55871 9.31607 6.79565 9 6 9C5.20435 9 4.44129 9.31607 3.87868 9.87868C3.31607 10.4413 3 11.2044 3 12ZM15 6C15 6.79565 15.3161 7.55871 15.8787 8.12132C16.4413 8.68393 17.2044 9 18 9C18.7956 9 19.5587 8.68393 20.1213 8.12132C20.6839 7.55871 21 6.79565 21 6C21 5.20435 20.6839 4.44129 20.1213 3.87868C19.5587 3.31607 18.7956 3 18 3C17.2044 3 16.4413 3.31607 15.8787 3.87868C15.3161 4.44129 15 5.20435 15 6Z" stroke="currentColor" stroke-width="1.5" stroke-linecap="round" stroke-linejoin="round"/>
</svg>
