<svg width="24" height="24" viewBox="0 0 24 24" fill="none" xmlns="http://www.w3.org/2000/svg">
<path d="M17 17.5L12 13M12 13V7M12 13L7 17.5M12 7L17 11M12 7L7 11M15.103 21.58L21.865 7.07802C22.0889 6.5973 22.1127 6.04735 21.9311 5.5491C21.7496 5.05085 21.3777 4.64508 20.897 4.42102M8.89719 21.58L2.13519 7.07704C1.91133 6.59632 1.88755 6.04638 2.06907 5.54812C2.25059 5.04987 2.62256 4.6441 3.10319 4.42004M11 3C11 3.26522 11.1054 3.51957 11.2929 3.70711C11.4804 3.89464 11.7348 4 12 4C12.2652 4 12.5196 3.89464 12.7071 3.70711C12.8946 3.51957 13 3.26522 13 3C13 2.73478 12.8946 2.48043 12.7071 2.29289C12.5196 2.10536 12.2652 2 12 2C11.7348 2 11.4804 2.10536 11.2929 2.29289C11.1054 2.48043 11 2.73478 11 3Z" stroke="currentColor" stroke-width="1.5" stroke-linecap="round" stroke-linejoin="round"/>
</svg>
