<svg width="24" height="24" viewBox="0 0 24 24" fill="none" xmlns="http://www.w3.org/2000/svg">
<path d="M12.0001 21C10.4433 20.5962 8.98356 19.8836 7.70762 18.9045C6.43169 17.9254 5.36559 16.6998 4.57267 15.3005C3.77976 13.9013 3.27621 12.3569 3.09195 10.7592C2.9077 9.16147 3.04649 7.54302 3.50008 6C6.61561 6.14257 9.66425 5.06658 12.0001 3C14.3359 5.06658 17.3846 6.14257 20.5001 6C21.0681 7.933 21.1351 9.957 20.7231 11.89M19.001 21C18.4705 21 17.9618 20.7893 17.5868 20.4142C17.2117 20.0391 17.001 19.5304 17.001 19C17.001 18.4696 17.2117 17.9609 17.5868 17.5858C17.9618 17.2107 18.4705 17 19.001 17M19.001 21C19.5314 21 20.0401 20.7893 20.4152 20.4142C20.7903 20.0391 21.001 19.5304 21.001 19C21.001 18.4696 20.7903 17.9609 20.4152 17.5858C20.0401 17.2107 19.5314 17 19.001 17M19.001 21V22.5M19.001 17V15.5M22.0319 17.25L20.7329 18M17.27 20L15.97 20.75M15.97 17.25L17.27 18M20.7329 20L22.0329 20.75" stroke="currentColor" stroke-width="1.5" stroke-linecap="round" stroke-linejoin="round"/>
</svg>
