<svg width="24" height="24" viewBox="0 0 24 24" fill="none" xmlns="http://www.w3.org/2000/svg">
<path d="M12.0001 3C14.3359 5.06658 17.3846 6.14257 20.5001 6C20.9537 7.54302 21.0925 9.16147 20.9082 10.7592C20.7239 12.3569 20.2204 13.9013 19.4275 15.3005C18.6346 16.6998 17.5685 17.9254 16.2925 18.9045C15.0166 19.8836 13.5569 20.5962 12.0001 21M12.0001 3C9.66425 5.06658 6.61561 6.14257 3.50008 6C3.04649 7.54302 2.9077 9.16147 3.09195 10.7592C3.27621 12.3569 3.77976 13.9013 4.57267 15.3005C5.36559 16.6998 6.43169 17.9254 7.70762 18.9045C8.98356 19.8836 10.4433 20.5962 12.0001 21M12.0001 3V21M12 11H20.9M12 8H20.9M12 5H15.1M12 17H18.2M12 14H20" stroke="currentColor" stroke-width="1.5" stroke-linecap="round" stroke-linejoin="round"/>
</svg>
