<svg width="24" height="24" viewBox="0 0 24 24" fill="none" xmlns="http://www.w3.org/2000/svg">
<path d="M12.4421 20.876C12.2955 20.9199 12.1481 20.9612 12.0001 21C10.4433 20.5962 8.98356 19.8836 7.70762 18.9045C6.43169 17.9254 5.36559 16.6998 4.57267 15.3005C3.77976 13.9013 3.27621 12.3569 3.09195 10.7592C2.9077 9.16147 3.04649 7.54302 3.50008 6C6.61561 6.14257 9.66425 5.06658 12.0001 3C14.3359 5.06658 17.3846 6.14257 20.5001 6C21.1068 8.06318 21.1479 10.2515 20.6191 12.336M19 22V16M19 16L22 19M19 16L16 19" stroke="currentColor" stroke-width="1.5" stroke-linecap="round" stroke-linejoin="round"/>
</svg>
