<svg width="24" height="24" viewBox="0 0 24 24" fill="none" xmlns="http://www.w3.org/2000/svg">
<path d="M11.9998 21C10.443 20.5962 8.98331 19.8836 7.70738 18.9045C6.43144 17.9254 5.36534 16.6998 4.57243 15.3005C3.77952 13.9013 3.27597 12.3569 3.09171 10.7592C2.90745 9.16147 3.04624 7.54302 3.49983 6C6.61536 6.14257 9.664 5.06658 11.9998 3C14.3357 5.06658 17.3843 6.14257 20.4998 6C21.0388 7.832 21.1268 9.747 20.7828 11.588M20.2002 20.2L22.0002 22M15 18C15 18.7956 15.3161 19.5587 15.8787 20.1213C16.4413 20.6839 17.2044 21 18 21C18.7956 21 19.5587 20.6839 20.1213 20.1213C20.6839 19.5587 21 18.7956 21 18C21 17.2044 20.6839 16.4413 20.1213 15.8787C19.5587 15.3161 18.7956 15 18 15C17.2044 15 16.4413 15.3161 15.8787 15.8787C15.3161 16.4413 15 17.2044 15 18Z" stroke="currentColor" stroke-width="1.5" stroke-linecap="round" stroke-linejoin="round"/>
</svg>
