<svg width="24" height="24" viewBox="0 0 24 24" fill="none" xmlns="http://www.w3.org/2000/svg">
<path d="M13.0181 20.687C12.6851 20.806 12.3451 20.91 12.0001 21C10.4433 20.5962 8.98356 19.8836 7.70762 18.9045C6.43169 17.9254 5.36559 16.6998 4.57267 15.3005C3.77976 13.9013 3.27621 12.3569 3.09195 10.7592C2.9077 9.16147 3.04649 7.54302 3.50008 6C6.61561 6.14257 9.66425 5.06658 12.0001 3C14.3359 5.06658 17.3846 6.14257 20.5001 6C20.9331 7.472 21.0751 8.998 20.9361 10.495M21 15H18.5C18.1022 15 17.7206 15.158 17.4393 15.4393C17.158 15.7206 17 16.1022 17 16.5C17 16.8978 17.158 17.2794 17.4393 17.5607C17.7206 17.842 18.1022 18 18.5 18H19.5C19.8978 18 20.2794 18.158 20.5607 18.4393C20.842 18.7206 21 19.1022 21 19.5C21 19.8978 20.842 20.2794 20.5607 20.5607C20.2794 20.842 19.8978 21 19.5 21H17M19 21V22M19 14V15" stroke="currentColor" stroke-width="1.5" stroke-linecap="round" stroke-linejoin="round"/>
</svg>
