<svg width="24" height="24" viewBox="0 0 24 24" fill="none" xmlns="http://www.w3.org/2000/svg">
<path d="M12.5968 20.829C12.3993 20.8911 12.2003 20.9482 11.9998 21C10.443 20.5962 8.98331 19.8836 7.70738 18.9045C6.43144 17.9254 5.36534 16.6998 4.57243 15.3005C3.77952 13.9013 3.27597 12.3569 3.09171 10.7592C2.90745 9.16147 3.04624 7.54302 3.49983 6C6.61536 6.14257 9.664 5.06658 11.9998 3C14.3357 5.06658 17.3843 6.14257 20.4998 6C21.0058 7.72 21.1138 9.512 20.8418 11.248M19 18V18.01M21.121 20.1209C21.5406 19.7014 21.8265 19.1668 21.9423 18.5849C22.0581 18.0029 21.9988 17.3997 21.7717 16.8514C21.5447 16.3032 21.1602 15.8346 20.6668 15.5049C20.1734 15.1752 19.5934 14.9993 19 14.9993C18.4066 14.9993 17.8266 15.1752 17.3332 15.5049C16.8398 15.8346 16.4553 16.3032 16.2283 16.8514C16.0012 17.3997 15.9419 18.0029 16.0577 18.5849C16.1735 19.1668 16.4594 19.7014 16.879 20.1209C17.297 20.5399 18.004 21.1659 19 21.9999C20.051 21.1099 20.759 20.4839 21.121 20.1209Z" stroke="currentColor" stroke-width="1.5" stroke-linecap="round" stroke-linejoin="round"/>
</svg>
