<svg width="24" height="24" viewBox="0 0 24 24" fill="none" xmlns="http://www.w3.org/2000/svg">
<path d="M17.67 17.667C16.1272 19.2844 14.1635 20.4387 12 21C10.4432 20.5962 8.98344 19.8836 7.7075 18.9045C6.43157 17.9254 5.36547 16.6998 4.57255 15.3005C3.77964 13.9013 3.27609 12.3569 3.09183 10.7592C2.90757 9.16147 3.04636 7.54302 3.49996 6C4.29396 6.036 5.08296 5.994 5.85696 5.876M8.98496 4.95C10.0821 4.45493 11.0985 3.79757 12 3C14.3358 5.06658 17.3844 6.14257 20.5 6C20.9576 7.55707 21.0947 9.19081 20.9029 10.8024C20.7111 12.4139 20.1943 13.9699 19.384 15.376M3 3L21 21" stroke="currentColor" stroke-width="1.5" stroke-linecap="round" stroke-linejoin="round"/>
</svg>
