<svg width="24" height="24" viewBox="0 0 24 24" fill="none" xmlns="http://www.w3.org/2000/svg">
<path d="M11.0128 12.0001V21.7541C8.82443 21.0462 6.86303 19.7703 5.32881 18.0567C3.79459 16.3431 2.74247 14.2532 2.27982 12.0001H11.0138H11.0128ZM20.2968 15.7941C18.6969 18.6172 16.0991 20.7399 13.0138 21.7451L13.0128 12.0001H21.7208C21.448 13.3316 20.9675 14.6119 20.2968 15.7941ZM11.0138 2.52612L11.0128 10.0001H2.02682C1.95882 8.56812 2.12782 7.12012 2.54082 5.71812C2.60393 5.50338 2.73726 5.31601 2.91947 5.18602C3.10167 5.05603 3.32223 4.99092 3.54582 5.00112C6.13403 5.11958 8.68099 4.32065 10.7378 2.74512L11.0138 2.52612ZM13.0128 10.0001V2.54712L12.9228 2.47412C14.9401 4.14969 17.4897 5.04942 20.1118 5.01112L20.4538 5.00112C20.6774 4.99092 20.898 5.05603 21.0802 5.18602C21.2624 5.31601 21.3957 5.50338 21.4588 5.71812C21.8718 7.12112 22.0408 8.56812 21.9728 10.0001H13.0128Z" fill="currentColor"/>
</svg>
