<svg width="24" height="24" viewBox="0 0 24 24" fill="none" xmlns="http://www.w3.org/2000/svg">
<path d="M11.9979 2L12.1159 2.007L12.1749 2.015L12.2359 2.028L12.3469 2.062C12.4236 2.09026 12.4964 2.12788 12.5639 2.174L12.6679 2.256L12.9229 2.474C14.9402 4.14956 17.4898 5.0493 20.1119 5.011L20.4539 5.001C20.6775 4.9908 20.898 5.05591 21.0802 5.1859C21.2625 5.31589 21.3958 5.50326 21.4589 5.718C21.9503 7.38958 22.1007 9.14288 21.9011 10.8737C21.7015 12.6046 21.156 14.2776 20.297 15.7935C19.4381 17.3093 18.2832 18.6371 16.901 19.6978C15.5187 20.7585 13.9374 21.5305 12.2509 21.968C12.0863 22.0107 11.9135 22.0107 11.7489 21.968C10.0623 21.5306 8.48087 20.7587 7.09853 19.698C5.71619 18.6374 4.56118 17.3096 3.70212 15.7938C2.84306 14.2779 2.29749 12.6048 2.09784 10.8739C1.89818 9.14301 2.04851 7.38964 2.53989 5.718C2.603 5.50326 2.73633 5.31589 2.91854 5.1859C3.10075 5.05591 3.3213 4.9908 3.54489 5.001C6.28236 5.12613 8.96796 4.22499 11.0759 2.474L11.3389 2.249L11.4349 2.174C11.5023 2.12788 11.5752 2.09026 11.6519 2.062L11.7639 2.028C11.8031 2.01853 11.8428 2.01152 11.8829 2.007L11.9979 2ZM11.9999 9C11.4953 8.99984 11.0093 9.19041 10.6393 9.5335C10.2694 9.87659 10.0427 10.3468 10.0049 10.85L9.99989 11L10.0049 11.15C10.0296 11.4746 10.1331 11.7883 10.3065 12.0638C10.4799 12.3393 10.7179 12.5684 10.9999 12.731V14.5L11.0069 14.617C11.037 14.8701 11.1626 15.1021 11.3581 15.2657C11.5535 15.4293 11.8041 15.5121 12.0585 15.4972C12.3129 15.4822 12.5521 15.3707 12.727 15.1854C12.902 15 12.9996 14.7549 12.9999 14.5L13.0009 12.732C13.3822 12.5118 13.6802 12.1719 13.8487 11.7651C14.0171 11.3582 14.0466 10.9072 13.9325 10.4819C13.8185 10.0566 13.5672 9.6808 13.2178 9.41286C12.8683 9.14492 12.4402 8.9998 11.9999 9Z" fill="currentColor"/>
</svg>
