<svg width="24" height="24" viewBox="0 0 24 24" fill="none" xmlns="http://www.w3.org/2000/svg">
<path d="M14.883 3.007L14.978 3L15.09 3.004L15.203 3.021L15.316 3.051L21.316 5.051C21.4964 5.11113 21.6558 5.22143 21.7757 5.36896C21.8956 5.5165 21.971 5.69516 21.993 5.884L22 6V11C22 11.2449 21.91 11.4813 21.7473 11.6644C21.5845 11.8474 21.3603 11.9643 21.117 11.993L21 12H19V19C19.0002 19.5046 18.8096 19.9906 18.4665 20.3605C18.1234 20.7305 17.6532 20.9572 17.15 20.995L17 21H7C6.49542 21.0002 6.00943 20.8096 5.63945 20.4665C5.26947 20.1234 5.04284 19.6532 5.005 19.15L5 19V12H3C2.75507 12 2.51866 11.91 2.33563 11.7473C2.15259 11.5845 2.03566 11.3602 2.007 11.117L2 11V6C1.99994 5.80984 2.05409 5.62361 2.15611 5.46315C2.25813 5.30268 2.40379 5.17462 2.576 5.094L2.684 5.051L8.684 3.051C8.83433 3.00093 8.99441 2.9873 9.15105 3.01123C9.30768 3.03516 9.45639 3.09597 9.58491 3.18865C9.71343 3.28133 9.81808 3.40323 9.89025 3.54429C9.96242 3.68535 10 3.84154 10 4C9.99768 4.51898 10.1972 5.01854 10.5564 5.39315C10.9156 5.76776 11.4063 5.98807 11.9249 6.00754C12.4436 6.02701 12.9494 5.84412 13.3357 5.4975C13.722 5.15089 13.9584 4.66769 13.995 4.15L14.004 3.91L14.021 3.797L14.058 3.663L14.102 3.56L14.152 3.468L14.22 3.375L14.289 3.295C14.345 3.241 14.402 3.195 14.464 3.155L14.56 3.102L14.663 3.058L14.771 3.026L14.883 3.007Z" fill="currentColor"/>
</svg>
