<svg width="24" height="24" viewBox="0 0 24 24" fill="none" xmlns="http://www.w3.org/2000/svg">
<path d="M13.846 9.868L17.926 10.84C18.8012 11.0483 19.5806 11.5455 20.1384 12.2513C20.6961 12.9571 20.9997 13.8304 21 14.73V17M18 18H4C3.73478 18 3.48043 17.8946 3.29289 17.7071C3.10536 17.5196 3 17.2652 3 17V7C3 6.73478 3.10536 6.48043 3.29289 6.29289C3.48043 6.10536 3.73478 6 4 6H6M8 18V17C8 15.9391 7.57857 14.9217 6.82843 14.1716C6.07828 13.4214 5.06087 13 4 13H3M10 12L10.663 10.673M3 3L21 21" stroke="currentColor" stroke-width="1.5" stroke-linecap="round" stroke-linejoin="round"/>
</svg>
