<svg width="24" height="24" viewBox="0 0 24 24" fill="none" xmlns="http://www.w3.org/2000/svg">
<path d="M6 2C6.24493 2.00003 6.48134 2.08996 6.66437 2.25272C6.84741 2.41547 6.96434 2.63975 6.993 2.883L7 3V4.068L20.071 5.003C20.3279 5.0212 20.5679 5.13782 20.741 5.32858C20.914 5.51934 21.0068 5.76952 21 6.027L20.99 6.141L19.99 13.141C19.9589 13.3602 19.8559 13.5629 19.6972 13.7173C19.5384 13.8716 19.333 13.969 19.113 13.994L19 14H7V16H17C17.5858 16 18.1588 16.1716 18.6483 16.4935C19.1378 16.8154 19.5223 17.2736 19.7544 17.8115C19.9865 18.3494 20.056 18.9435 19.9543 19.5205C19.8527 20.0974 19.5844 20.632 19.1824 21.0582C18.7805 21.4844 18.2626 21.7836 17.6926 21.9189C17.1226 22.0542 16.5254 22.0196 15.9748 21.8195C15.4243 21.6193 14.9443 21.2623 14.5943 20.7926C14.2442 20.3228 14.0394 19.7608 14.005 19.176L14 19L14.005 18.824C14.022 18.536 14.079 18.26 14.171 18H8.829C8.97173 18.4048 9.02591 18.8356 8.9879 19.2632C8.94988 19.6907 8.82055 20.1052 8.60863 20.4785C8.39672 20.8518 8.10716 21.1753 7.75952 21.4271C7.41187 21.6789 7.01424 21.8532 6.59347 21.9381C6.1727 22.0231 5.7386 22.0168 5.32048 21.9196C4.90237 21.8224 4.50998 21.6366 4.16981 21.3748C3.82965 21.113 3.54964 20.7812 3.34869 20.4019C3.14775 20.0225 3.03054 19.6045 3.005 19.176L3 19L3.005 18.824C3.0396 18.2344 3.24734 17.6682 3.6022 17.1961C3.95706 16.724 4.44328 16.3671 5 16.17V4H4C3.75507 3.99997 3.51866 3.91004 3.33563 3.74728C3.15259 3.58453 3.03566 3.36025 3.007 3.117L3 3C3.00003 2.75507 3.08996 2.51866 3.25272 2.33563C3.41547 2.15259 3.63975 2.03566 3.883 2.007L4 2H6ZM6 18C5.73478 18 5.48043 18.1054 5.29289 18.2929C5.10536 18.4804 5 18.7348 5 19C5 19.2652 5.10536 19.5196 5.29289 19.7071C5.48043 19.8946 5.73478 20 6 20C6.26522 20 6.51957 19.8946 6.70711 19.7071C6.89464 19.5196 7 19.2652 7 19C7 18.7348 6.89464 18.4804 6.70711 18.2929C6.51957 18.1054 6.26522 18 6 18ZM17 18C16.7348 18 16.4804 18.1054 16.2929 18.2929C16.1054 18.4804 16 18.7348 16 19C16 19.2652 16.1054 19.5196 16.2929 19.7071C16.4804 19.8946 16.7348 20 17 20C17.2652 20 17.5196 19.8946 17.7071 19.7071C17.8946 19.5196 18 19.2652 18 19C18 18.7348 17.8946 18.4804 17.7071 18.2929C17.5196 18.1054 17.2652 18 17 18Z" fill="currentColor"/>
</svg>
