<svg width="24" height="24" viewBox="0 0 24 24" fill="none" xmlns="http://www.w3.org/2000/svg">
<path d="M6 17C6.53043 17 7.03914 17.2107 7.41421 17.5858C7.78929 17.9609 8 18.4696 8 19C8 19.5304 7.78929 20.0391 7.41421 20.4142C7.03914 20.7893 6.53043 21 6 21C5.46957 21 4.96086 20.7893 4.58579 20.4142C4.21071 20.0391 4 19.5304 4 19C4 18.4696 4.21071 17.9609 4.58579 17.5858C4.96086 17.2107 5.46957 17 6 17ZM6 17H12M6 17V3H4M6 5L20 6L19.143 11.998M15.5 13H6M17 21L21 17M16 19C16 19.7956 16.3161 20.5587 16.8787 21.1213C17.4413 21.6839 18.2044 22 19 22C19.7956 22 20.5587 21.6839 21.1213 21.1213C21.6839 20.5587 22 19.7956 22 19C22 18.2044 21.6839 17.4413 21.1213 16.8787C20.5587 16.3161 19.7956 16 19 16C18.2044 16 17.4413 16.3161 16.8787 16.8787C16.3161 17.4413 16 18.2044 16 19Z" stroke="currentColor" stroke-width="1.5" stroke-linecap="round" stroke-linejoin="round"/>
</svg>
