<svg width="24" height="24" viewBox="0 0 24 24" fill="none" xmlns="http://www.w3.org/2000/svg">
<path d="M6 17C6.53043 17 7.03914 17.2107 7.41421 17.5858C7.78929 17.9609 8 18.4696 8 19C8 19.5304 7.78929 20.0391 7.41421 20.4142C7.03914 20.7893 6.53043 21 6 21C5.46957 21 4.96086 20.7893 4.58579 20.4142C4.21071 20.0391 4 19.5304 4 19C4 18.4696 4.21071 17.9609 4.58579 17.5858C4.96086 17.2107 5.46957 17 6 17ZM6 17H12M6 17V3H4M6 5L20 6L19.284 11.011M14 13H6M19 18V18.01M21.121 20.121C21.5407 19.7015 21.8265 19.167 21.9423 18.585C22.0581 18.003 21.9988 17.3998 21.7717 16.8515C21.5447 16.3033 21.1602 15.8347 20.6668 15.505C20.1734 15.1754 19.5934 14.9994 19 14.9994C18.4066 14.9994 17.8266 15.1754 17.3332 15.505C16.8398 15.8347 16.4553 16.3033 16.2283 16.8515C16.0012 17.3998 15.9419 18.003 16.0577 18.585C16.1735 19.167 16.4594 19.7015 16.879 20.121C17.297 20.54 18.004 21.166 19 22C20.051 21.11 20.759 20.484 21.121 20.121Z" stroke="currentColor" stroke-width="1.5" stroke-linecap="round" stroke-linejoin="round"/>
</svg>
