<svg width="24" height="24" viewBox="0 0 24 24" fill="none" xmlns="http://www.w3.org/2000/svg">
<path d="M11.4998 21H8.57381C7.8572 21 7.16429 20.7434 6.62043 20.2768C6.07658 19.8102 5.71773 19.1643 5.60881 18.456L4.35381 10.304C4.30997 10.019 4.32829 9.72786 4.40751 9.45059C4.48673 9.17331 4.62497 8.91645 4.81275 8.6976C5.00054 8.47876 5.23342 8.30311 5.49545 8.1827C5.75747 8.06229 6.04244 7.99997 6.33081 8H17.6698C17.9582 7.99997 18.2431 8.06229 18.5052 8.1827C18.7672 8.30311 19.0001 8.47876 19.1879 8.6976C19.3756 8.91645 19.5139 9.17331 19.5931 9.45059C19.6723 9.72786 19.6906 10.019 19.6468 10.304L19.5298 11.065M9 11V6C9 5.20435 9.31607 4.44129 9.87868 3.87868C10.4413 3.31607 11.2044 3 12 3C12.7956 3 13.5587 3.31607 14.1213 3.87868C14.6839 4.44129 15 5.20435 15 6V11M20.2002 20.2L22.0002 22M15 18C15 18.7956 15.3161 19.5587 15.8787 20.1213C16.4413 20.6839 17.2044 21 18 21C18.7956 21 19.5587 20.6839 20.1213 20.1213C20.6839 19.5587 21 18.7956 21 18C21 17.2044 20.6839 16.4413 20.1213 15.8787C19.5587 15.3161 18.7956 15 18 15C17.2044 15 16.4413 15.3161 15.8787 15.8787C15.3161 16.4413 15 17.2044 15 18Z" stroke="currentColor" stroke-width="1.5" stroke-linecap="round" stroke-linejoin="round"/>
</svg>
