<svg width="24" height="24" viewBox="0 0 24 24" fill="none" xmlns="http://www.w3.org/2000/svg">
<path d="M10.9998 21H8.57381C7.8572 21 7.16429 20.7434 6.62043 20.2768C6.07658 19.8102 5.71773 19.1643 5.60881 18.456L4.35381 10.304C4.30997 10.019 4.32829 9.72786 4.40751 9.45059C4.48673 9.17331 4.62497 8.91645 4.81275 8.6976C5.00054 8.47876 5.23342 8.30311 5.49545 8.1827C5.75747 8.06229 6.04244 7.99997 6.33081 8H17.6698C17.9582 7.99997 18.2431 8.06229 18.5052 8.1827C18.7672 8.30311 19.0001 8.47876 19.1879 8.6976C19.3756 8.91645 19.5139 9.17331 19.5931 9.45059C19.6723 9.72786 19.6906 10.019 19.6468 10.304L19.5378 11.011M9 11V6C9 5.20435 9.31607 4.44129 9.87868 3.87868C10.4413 3.31607 11.2044 3 12 3C12.7956 3 13.5587 3.31607 14.1213 3.87868C14.6839 4.44129 15 5.20435 15 6V11M18.42 15.61C18.615 15.415 18.8465 15.2603 19.1013 15.1547C19.3561 15.0492 19.6292 14.9949 19.905 14.9949C20.1808 14.9949 20.4539 15.0492 20.7087 15.1547C20.9635 15.2603 21.195 15.415 21.39 15.61C21.585 15.805 21.7397 16.0365 21.8452 16.2913C21.9508 16.5461 22.0051 16.8192 22.0051 17.095C22.0051 17.3708 21.9508 17.6439 21.8452 17.8987C21.7397 18.1535 21.585 18.385 21.39 18.58L18 22H15V19L18.42 15.61Z" stroke="currentColor" stroke-width="1.5" stroke-linecap="round" stroke-linejoin="round"/>
</svg>
