<svg width="24" height="24" viewBox="0 0 24 24" fill="none" xmlns="http://www.w3.org/2000/svg">
<path d="M5 3H9M7 3V15M14 21V18C14 17.2044 14.3161 16.4413 14.8787 15.8787C15.4413 15.3161 16.2044 15 17 15C17.7956 15 18.5587 15.3161 19.1213 15.8787C19.6839 16.4413 20 17.2044 20 18V21M17 21V3M4 15H10V18C10 18.7956 9.68393 19.5587 9.12132 20.1213C8.55871 20.6839 7.79565 21 7 21C6.20435 21 5.44129 20.6839 4.87868 20.1213C4.31607 19.5587 4 18.7956 4 18V15Z" stroke="currentColor" stroke-width="1.5" stroke-linecap="round" stroke-linejoin="round"/>
</svg>
