<svg width="24" height="24" viewBox="0 0 24 24" fill="none" xmlns="http://www.w3.org/2000/svg">
<path d="M14.0002 2C14.2451 2.00003 14.4815 2.08996 14.6646 2.25272C14.8476 2.41547 14.9645 2.63975 14.9932 2.883L15.0002 3V5H18.0002C18.2451 5.00003 18.4815 5.08996 18.6646 5.25272C18.8476 5.41547 18.9645 5.63975 18.9932 5.883L19.0002 6V11C19.0002 11.2449 18.9102 11.4813 18.7475 11.6644C18.5847 11.8474 18.3604 11.9643 18.1172 11.993L18.0002 12H15.0002V20H16.0002C16.2551 20.0003 16.5002 20.0979 16.6856 20.2728C16.8709 20.4478 16.9824 20.687 16.9974 20.9414C17.0123 21.1958 16.9295 21.4464 16.7659 21.6418C16.6023 21.8373 16.3703 21.9629 16.1172 21.993L16.0002 22H12.0002C11.7453 21.9997 11.5002 21.9021 11.3148 21.7272C11.1295 21.5522 11.018 21.313 11.003 21.0586C10.9881 20.8042 11.0709 20.5536 11.2345 20.3582C11.398 20.1627 11.6301 20.0371 11.8832 20.007L12.0002 20H13.0002V12H8.00019C7.74134 12 7.49257 11.8996 7.30619 11.72L7.21919 11.625L5.21919 9.125C5.0907 8.96442 5.01485 8.76813 5.00196 8.56288C4.98908 8.35762 5.03979 8.15339 5.14719 7.978L5.21919 7.875L7.21919 5.375C7.38085 5.17291 7.61456 5.04136 7.87119 5.008L8.00019 5H13.0002V3C13.0002 2.73478 13.1056 2.48043 13.2931 2.29289C13.4806 2.10536 13.735 2 14.0002 2Z" fill="currentColor"/>
</svg>
