<svg width="24" height="24" viewBox="0 0 24 24" fill="none" xmlns="http://www.w3.org/2000/svg">
<path d="M17 8H15C14.4696 8 13.9609 8.21071 13.5858 8.58579C13.2107 8.96086 13 9.46957 13 10V14C13 14.5304 13.2107 15.0391 13.5858 15.4142C13.9609 15.7893 14.4696 16 15 16H17V12H16M6 8H8.5C8.89782 8 9.27936 8.15804 9.56066 8.43934C9.84196 8.72064 10 9.10218 10 9.5V10.5C10 10.8978 9.84196 11.2794 9.56066 11.5607C9.27936 11.842 8.89782 12 8.5 12M8.5 12H7M8.5 12C8.89782 12 9.27936 12.158 9.56066 12.4393C9.84196 12.7206 10 13.1022 10 13.5V14.5C10 14.8978 9.84196 15.2794 9.56066 15.5607C9.27936 15.842 8.89782 16 8.5 16H6" stroke="currentColor" stroke-width="1.5" stroke-linecap="round" stroke-linejoin="round"/>
</svg>
