<svg width="24" height="24" viewBox="0 0 24 24" fill="none" xmlns="http://www.w3.org/2000/svg">
<path d="M17.5 21C17.6326 21 17.7598 20.9473 17.8536 20.8536C17.9473 20.7598 18 20.6326 18 20.5C18 20.3674 17.9473 20.2402 17.8536 20.1464C17.7598 20.0527 17.6326 20 17.5 20C17.3674 20 17.2402 20.0527 17.1464 20.1464C17.0527 20.2402 17 20.3674 17 20.5C17 20.6326 17.0527 20.7598 17.1464 20.8536C17.2402 20.9473 17.3674 21 17.5 21Z" fill="currentColor"/>
<path d="M6.5 21C6.63261 21 6.75979 20.9473 6.85355 20.8536C6.94732 20.7598 7 20.6326 7 20.5C7 20.3674 6.94732 20.2402 6.85355 20.1464C6.75979 20.0527 6.63261 20 6.5 20C6.36739 20 6.24021 20.0527 6.14645 20.1464C6.05268 20.2402 6 20.3674 6 20.5C6 20.6326 6.05268 20.7598 6.14645 20.8536C6.24021 20.9473 6.36739 21 6.5 21Z" fill="currentColor"/>
<path d="M5.5 15H9L9.75 13.5M14 19V14L11.5 11L14 7M8 8L11 7H15L16 10H19M3 18C3 18.552 3.895 19 5 19H19C20.105 19 21 18.552 21 18M16 4C16 4.26522 16.1054 4.51957 16.2929 4.70711C16.4804 4.89464 16.7348 5 17 5C17.2652 5 17.5196 4.89464 17.7071 4.70711C17.8946 4.51957 18 4.26522 18 4C18 3.73478 17.8946 3.48043 17.7071 3.29289C17.5196 3.10536 17.2652 3 17 3C16.7348 3 16.4804 3.10536 16.2929 3.29289C16.1054 3.48043 16 3.73478 16 4ZM17.5 21C17.6326 21 17.7598 20.9473 17.8536 20.8536C17.9473 20.7598 18 20.6326 18 20.5C18 20.3674 17.9473 20.2402 17.8536 20.1464C17.7598 20.0527 17.6326 20 17.5 20C17.3674 20 17.2402 20.0527 17.1464 20.1464C17.0527 20.2402 17 20.3674 17 20.5C17 20.6326 17.0527 20.7598 17.1464 20.8536C17.2402 20.9473 17.3674 21 17.5 21ZM6.5 21C6.63261 21 6.75979 20.9473 6.85355 20.8536C6.94732 20.7598 7 20.6326 7 20.5C7 20.3674 6.94732 20.2402 6.85355 20.1464C6.75979 20.0527 6.63261 20 6.5 20C6.36739 20 6.24021 20.0527 6.14645 20.1464C6.05268 20.2402 6 20.3674 6 20.5C6 20.6326 6.05268 20.7598 6.14645 20.8536C6.24021 20.9473 6.36739 21 6.5 21Z" stroke="currentColor" stroke-width="1.5" stroke-linecap="round" stroke-linejoin="round"/>
</svg>
