<svg width="24" height="24" viewBox="0 0 24 24" fill="none" xmlns="http://www.w3.org/2000/svg">
<path d="M4 5.20515V18.7952C3.99999 18.9421 4.03235 19.0872 4.09478 19.2202C4.15722 19.3532 4.24819 19.4708 4.36122 19.5646C4.47426 19.6585 4.60659 19.7263 4.74879 19.7632C4.891 19.8001 5.03959 19.8052 5.184 19.7782L19.184 17.1532C19.4133 17.1102 19.6204 16.9885 19.7694 16.8089C19.9185 16.6294 20 16.4035 20 16.1702V7.83015C20 7.59684 19.9185 7.37087 19.7694 7.19136C19.6204 7.01184 19.4133 6.89008 19.184 6.84715L5.184 4.22215C5.03959 4.19512 4.891 4.20024 4.74879 4.23714C4.60659 4.27405 4.47426 4.34184 4.36122 4.43569C4.24819 4.52953 4.15722 4.64714 4.09478 4.78013C4.03235 4.91312 3.99999 5.05823 4 5.20515Z" stroke="currentColor" stroke-width="1.5" stroke-linecap="round" stroke-linejoin="round"/>
</svg>
