<svg width="24" height="24" viewBox="0 0 24 24" fill="none" xmlns="http://www.w3.org/2000/svg">
<path d="M4.32624 19H19.6742C19.8291 19.0001 19.9818 18.9642 20.1205 18.8952C20.2591 18.8262 20.3798 18.7259 20.4731 18.6023C20.5663 18.4787 20.6296 18.3351 20.6579 18.1829C20.6863 18.0306 20.6788 17.8739 20.6362 17.725L17.2072 5.725C17.1475 5.51619 17.0214 5.3325 16.8481 5.2017C16.6747 5.0709 16.4634 5.0001 16.2462 5H7.75424C7.53706 5.0001 7.32581 5.0709 7.15243 5.2017C6.97905 5.3325 6.85297 5.51619 6.79324 5.725L3.36424 17.725C3.32166 17.8739 3.31423 18.0306 3.34254 18.1829C3.37086 18.3351 3.43415 18.4787 3.52741 18.6023C3.62068 18.7259 3.74138 18.8262 3.88001 18.8952C4.01863 18.9642 4.17139 19.0001 4.32624 19Z" stroke="currentColor" stroke-width="1.5" stroke-linecap="round" stroke-linejoin="round"/>
</svg>
