<svg width="24" height="24" viewBox="0 0 24 24" fill="none" xmlns="http://www.w3.org/2000/svg">
<path d="M15 6H15.01M3 13L7 8.99995C7.45606 8.56111 7.97339 8.33008 8.5 8.33008C9.02661 8.33008 9.54394 8.56111 10 8.99995L14 13M13 12L15 9.99995C15.4561 9.56111 15.9734 9.33008 16.5 9.33008C17.0266 9.33008 17.5439 9.56111 18 9.99995L21 13M8 21H8.01M12 21H12.01M16 21H16.01M3 6C3 5.20435 3.31607 4.44129 3.87868 3.87868C4.44129 3.31607 5.20435 3 6 3H18C18.7956 3 19.5587 3.31607 20.1213 3.87868C20.6839 4.44129 21 5.20435 21 6V14C21 14.7956 20.6839 15.5587 20.1213 16.1213C19.5587 16.6839 18.7956 17 18 17H6C5.20435 17 4.44129 16.6839 3.87868 16.1213C3.31607 15.5587 3 14.7956 3 14V6Z" stroke="currentColor" stroke-width="1.5" stroke-linecap="round" stroke-linejoin="round"/>
</svg>
