<svg width="24" height="24" viewBox="0 0 24 24" fill="none" xmlns="http://www.w3.org/2000/svg">
<path d="M7.09701 7.12501L5.06001 8.71001C4.73945 8.9593 4.4801 9.27854 4.30176 9.64336C4.12342 10.0082 4.03081 10.4089 4.03101 10.815V18.015C4.03101 18.5454 4.24172 19.0542 4.61679 19.4292C4.99187 19.8043 5.50057 20.015 6.03101 20.015H18.031C18.59 20.015 19.095 19.786 19.458 19.417M20.03 16V10.815C20.03 9.99201 19.65 9.21501 19 8.71001L13.667 4.56201C13.199 4.19792 12.623 4.00024 12.03 4.00024C11.4371 4.00024 10.861 4.19792 10.393 4.56201L9.36401 5.36201M15.332 15.345C13.119 16.321 9.997 16.205 8 15M3 3L21 21" stroke="currentColor" stroke-width="1.5" stroke-linecap="round" stroke-linejoin="round"/>
</svg>
