<svg width="24" height="24" viewBox="0 0 24 24" fill="none" xmlns="http://www.w3.org/2000/svg">
<path d="M10 4L12 5L14 4M12 2V8M13.196 9.186L15 10.22M17.928 6.26807L18.062 8.50007L19.928 9.73207M20.66 7L15.031 10.25L15 11M19.928 14.2681L18.913 14.9381M14.212 14.2261L12.041 15.4881M14 20L12 19L10 20M12 22V15.5L9 13.78M6.07202 17.7321L5.93802 15.5001L4.07202 14.2681M3.33997 17L8.96897 13.75L8.95897 10.292M4.07202 9.73207L5.93802 8.50007L6.07202 6.26807M3.33997 7L8.96897 10.25L9.77097 9.784M3 3L21 21" stroke="currentColor" stroke-width="1.5" stroke-linecap="round" stroke-linejoin="round"/>
</svg>
