<svg width="24" height="24" viewBox="0 0 24 24" fill="none" xmlns="http://www.w3.org/2000/svg">
<path d="M9.99982 4L11.9998 5L13.9998 4M11.9998 2V8.5L14.9998 10.22M17.9278 6.26807L18.0618 8.50007L19.9278 9.73207M20.6598 7L15.0308 10.25L15.0408 13.708M19.9278 14.2681L18.0618 15.5001L17.9278 17.7321M20.6598 17L15.0308 13.75L12.0408 15.488M13.9998 20L11.9998 19L9.99982 20M11.9998 22V15.5L8.99982 13.78M6.07184 17.7321L5.93784 15.5001L4.07184 14.2681M3.33984 17L8.96884 13.75L8.95884 10.292M4.07184 9.73207L5.93784 8.50007L6.07184 6.26807M3.33984 7L8.96884 10.25L11.9588 8.512" stroke="currentColor" stroke-width="1.5" stroke-linecap="round" stroke-linejoin="round"/>
</svg>
