<svg width="24" height="24" viewBox="0 0 24 24" fill="none" xmlns="http://www.w3.org/2000/svg">
<path d="M12 7C11.4696 7 10.9609 6.78929 10.5858 6.41421C10.2107 6.03914 10 5.53043 10 5C10 4.46957 10.2107 3.96086 10.5858 3.58579C10.9609 3.21071 11.4696 3 12 3C12.5304 3 13.0391 3.21071 13.4142 3.58579C13.7893 3.96086 14 4.46957 14 5C14 5.53043 13.7893 6.03914 13.4142 6.41421C13.0391 6.78929 12.5304 7 12 7ZM12 7V8M17.57 17.6021C17.1951 17.9773 16.9846 18.4862 16.9849 19.0166C16.9852 19.5471 17.1962 20.0557 17.5715 20.4306C17.9468 20.8054 18.4556 21.0159 18.986 21.0156C19.5165 21.0153 20.0251 20.8043 20.4 20.4291M11.113 11.1331C10.6177 11.2865 10.1707 11.5657 9.81544 11.9433C9.46021 12.321 9.20893 12.7843 9.08611 13.2881C8.96329 13.7918 8.97313 14.3188 9.11465 14.8176C9.25618 15.3164 9.52457 15.77 9.89364 16.1342C10.2627 16.4983 10.7199 16.7606 11.2205 16.8955C11.7212 17.0303 12.2482 17.0331 12.7503 16.9036C13.2523 16.774 13.7122 16.5166 14.0851 16.1563C14.458 15.7961 14.7312 15.3453 14.878 14.8481M6.70001 17.8L9.50001 15.8M17.3 17.8L14.5 15.8M3 3L21 21M3 19C3 19.5304 3.21071 20.0391 3.58579 20.4142C3.96086 20.7893 4.46957 21 5 21C5.53043 21 6.03914 20.7893 6.41421 20.4142C6.78929 20.0391 7 19.5304 7 19C7 18.4696 6.78929 17.9609 6.41421 17.5858C6.03914 17.2107 5.53043 17 5 17C4.46957 17 3.96086 17.2107 3.58579 17.5858C3.21071 17.9609 3 18.4696 3 19Z" stroke="currentColor" stroke-width="1.5" stroke-linecap="round" stroke-linejoin="round"/>
</svg>
