<svg width="24" height="25" viewBox="0 0 24 25" fill="none" xmlns="http://www.w3.org/2000/svg">
<path d="M20.25 6.25323H18C16.6076 6.25323 15.2727 6.80675 14.2881 7.79132C13.3035 8.77589 12.75 10.1108 12.75 11.5032V11.7532H15C16.3924 11.7532 17.7273 11.1997 18.7119 10.2151C19.6965 9.23058 20.25 7.89562 20.25 6.50323V6.25323ZM12.1387 16.2581C11.4611 16.2601 11.0694 16.4405 10.79 16.6761C10.4818 16.9361 10.2461 17.3149 9.9707 17.8441C9.84158 18.0922 9.5844 18.2474 9.30469 18.2474C8.83176 18.2474 8.53336 18.4166 8.34668 18.6243C8.14829 18.8453 8.03418 19.1598 8.03418 19.4974C8.03401 19.9033 7.71044 20.235 7.30469 20.2464C6.88077 20.2582 6.51614 20.4563 6.2832 20.7464H17.9219C17.8426 20.274 17.6862 19.7723 17.4238 19.347C17.0399 18.7247 16.4275 18.2475 15.3691 18.2474C15.0627 18.2474 14.7869 18.0612 14.6729 17.7767C14.3387 16.9431 13.5103 16.2543 12.1387 16.2581ZM21.75 6.50323C21.75 8.29345 21.0393 10.0108 19.7734 11.2767C18.5076 12.5425 16.7902 13.2532 15 13.2532H12.75V14.7933C14.187 14.9598 15.2626 15.7231 15.8496 16.7737C17.2175 16.9139 18.138 17.6485 18.7002 18.5599C19.2997 19.5319 19.485 20.6805 19.4873 21.4944C19.4878 21.6936 19.4092 21.8847 19.2686 22.0257C19.1278 22.1668 18.9366 22.2464 18.7373 22.2464H5.2627C4.84866 22.2464 4.51295 21.9104 4.5127 21.4964C4.51205 20.1959 5.42969 19.1558 6.6084 18.8441C6.70868 18.4023 6.91234 17.9765 7.23145 17.6214C7.62922 17.1788 8.17693 16.8755 8.84082 16.7796C9.08797 16.3428 9.39349 15.8914 9.82227 15.5296C10.2152 15.1981 10.6837 14.9662 11.25 14.848V12.2532H9C7.20979 12.2532 5.49243 11.5425 4.22656 10.2767C3.03986 9.08997 2.34063 7.50646 2.25781 5.8382L2.25 5.50323V3.50323L2.25391 3.42609C2.29253 3.04812 2.61183 2.75323 3 2.75323H6L6.33496 2.76105C8.00323 2.84386 9.58674 3.5431 10.7734 4.7298C11.5846 5.54097 12.166 6.53824 12.4805 7.62042C12.7023 7.30515 12.9503 7.00604 13.2266 6.7298C14.4924 5.46393 16.2098 4.75323 18 4.75323H21L21.0771 4.75714C21.4551 4.79576 21.75 5.11507 21.75 5.50323V6.50323ZM3.75684 5.76398C3.82131 7.06142 4.36516 8.29222 5.28809 9.21515C6.27265 10.1997 7.60761 10.7532 9 10.7532H11.25V9.50323C11.25 8.11085 10.6965 6.77589 9.71191 5.79132C8.78898 4.86839 7.55819 4.32454 6.26074 4.26007L6 4.25323H3.75V5.50323L3.75684 5.76398Z" fill="currentColor"/>
</svg>
