<svg width="24" height="24" viewBox="0 0 24 24" fill="none" xmlns="http://www.w3.org/2000/svg">
<path d="M8.00024 2C8.00024 3.06087 8.42167 4.07828 9.17182 4.82843C9.92196 5.57857 10.9394 6 12.0002 6C13.0611 6 14.0785 5.57857 14.8287 4.82843C15.5788 4.07828 16.0002 3.06087 16.0002 2M4.00024 3H5.00024M19.0002 3H20.0002M12.0002 9V10M17.2003 7.19995L17.9073 7.90695M6.80025 7.19995L6.10025 7.89995M4.00024 17H20.0002M10.0002 13L9.00024 21M14.0002 13L15.0002 21M4.28025 21H19.7202C19.8723 21 20.0223 20.9653 20.1589 20.8987C20.2955 20.832 20.4151 20.735 20.5086 20.6152C20.6021 20.4954 20.6671 20.3558 20.6985 20.2071C20.73 20.0584 20.7272 19.9044 20.6902 19.757L19.1902 13.757C19.1361 13.5408 19.0112 13.3488 18.8355 13.2117C18.6597 13.0745 18.4432 13 18.2202 13H5.78025C5.55732 13 5.34078 13.0745 5.16504 13.2117C4.9893 13.3488 4.86442 13.5408 4.81025 13.757L3.31025 19.757C3.27331 19.9044 3.27047 20.0584 3.30195 20.2071C3.33343 20.3558 3.3984 20.4954 3.49191 20.6152C3.58543 20.735 3.70503 20.832 3.84163 20.8987C3.97824 20.9653 4.12824 21 4.28025 21Z" stroke="currentColor" stroke-width="1.5" stroke-linecap="round" stroke-linejoin="round"/>
</svg>
