<svg width="24" height="24" viewBox="0 0 24 24" fill="none" xmlns="http://www.w3.org/2000/svg">
<path d="M4.00024 10H20.0002M10.0002 6L9.00024 14M14.0002 6L15.0002 14M12.0002 14V18M7.00024 18H17.0002M4.28025 14H19.7202C19.8723 14 20.0223 13.9653 20.1589 13.8987C20.2955 13.832 20.4151 13.735 20.5086 13.6152C20.6021 13.4954 20.6671 13.3558 20.6985 13.2071C20.73 13.0584 20.7272 12.9044 20.6902 12.757L19.1902 6.757C19.1361 6.54075 19.0112 6.34881 18.8355 6.21166C18.6597 6.0745 18.4432 6.00001 18.2202 6H5.78025C5.55732 6.00001 5.34078 6.0745 5.16504 6.21166C4.9893 6.34881 4.86442 6.54075 4.81025 6.757L3.31025 12.757C3.27331 12.9044 3.27047 13.0584 3.30195 13.2071C3.33343 13.3558 3.3984 13.4954 3.49191 13.6152C3.58543 13.735 3.70503 13.832 3.84163 13.8987C3.97824 13.9653 4.12824 14 4.28025 14Z" stroke="currentColor" stroke-width="1.5" stroke-linecap="round" stroke-linejoin="round"/>
</svg>
