<svg width="24" height="24" viewBox="0 0 24 24" fill="none" xmlns="http://www.w3.org/2000/svg">
<path d="M8 6V18M12 12H4M20 7L17 12H21L18 17M4 6.28V17.72C4 17.872 4.03466 18.022 4.10134 18.1586C4.16801 18.2952 4.26495 18.4148 4.38479 18.5083C4.50462 18.6019 4.6442 18.6668 4.79291 18.6983C4.94162 18.7298 5.09555 18.7269 5.243 18.69L11.243 17.19C11.4592 17.1358 11.6512 17.011 11.7883 16.8352C11.9255 16.6595 12 16.4429 12 16.22V7.78C12 7.55707 11.9255 7.34054 11.7883 7.1648C11.6512 6.98905 11.4592 6.86417 11.243 6.81L5.243 5.31C5.09555 5.27307 4.94162 5.27023 4.79291 5.30171C4.6442 5.33319 4.50462 5.39815 4.38479 5.49167C4.26495 5.58518 4.16801 5.70479 4.10134 5.84139C4.03466 5.97799 4 6.128 4 6.28Z" stroke="currentColor" stroke-width="1.5" stroke-linecap="round" stroke-linejoin="round"/>
</svg>
