<svg width="24" height="24" viewBox="0 0 24 24" fill="none" xmlns="http://www.w3.org/2000/svg">
<path d="M14 15L17 18M17 18L20 15M17 18V6M5 5.5C5 5.36739 5.05268 5.24021 5.14645 5.14645C5.24021 5.05268 5.36739 5 5.5 5H9.5C9.63261 5 9.75979 5.05268 9.85355 5.14645C9.94732 5.24021 10 5.36739 10 5.5V9.5C10 9.63261 9.94732 9.75979 9.85355 9.85355C9.75979 9.94732 9.63261 10 9.5 10H5.5C5.36739 10 5.24021 9.94732 5.14645 9.85355C5.05268 9.75979 5 9.63261 5 9.5V5.5ZM5 14.5C5 14.3674 5.05268 14.2402 5.14645 14.1464C5.24021 14.0527 5.36739 14 5.5 14H9.5C9.63261 14 9.75979 14.0527 9.85355 14.1464C9.94732 14.2402 10 14.3674 10 14.5V18.5C10 18.6326 9.94732 18.7598 9.85355 18.8536C9.75979 18.9473 9.63261 19 9.5 19H5.5C5.36739 19 5.24021 18.9473 5.14645 18.8536C5.05268 18.7598 5 18.6326 5 18.5V14.5Z" stroke="currentColor" stroke-width="1.5" stroke-linecap="round" stroke-linejoin="round"/>
</svg>
