<svg width="24" height="24" viewBox="0 0 24 24" fill="none" xmlns="http://www.w3.org/2000/svg">
<path d="M4 15L7 18M7 18L10 15M7 18V6M19 16C19 16.5304 18.7893 17.0391 18.4142 17.4142C18.0391 17.7893 17.5304 18 17 18C16.4696 18 15.9609 17.7893 15.5858 17.4142C15.2107 17.0391 15 16.5304 15 16C15 15.4696 15.2107 14.9609 15.5858 14.5858C15.9609 14.2107 16.4696 14 17 14C17.5304 14 18.0391 14.2107 18.4142 14.5858C18.7893 14.9609 19 15.4696 19 16ZM19 16V19C19 19.5304 18.7893 20.0391 18.4142 20.4142C18.0391 20.7893 17.5304 21 17 21H15.5M17 3C17.5304 3 18.0391 3.21071 18.4142 3.58579C18.7893 3.96086 19 4.46957 19 5V8C19 8.53043 18.7893 9.03914 18.4142 9.41421C18.0391 9.78929 17.5304 10 17 10C16.4696 10 15.9609 9.78929 15.5858 9.41421C15.2107 9.03914 15 8.53043 15 8V5C15 4.46957 15.2107 3.96086 15.5858 3.58579C15.9609 3.21071 16.4696 3 17 3Z" stroke="currentColor" stroke-width="1.5" stroke-linecap="round" stroke-linejoin="round"/>
</svg>
