<svg width="24" height="24" viewBox="0 0 24 24" fill="none" xmlns="http://www.w3.org/2000/svg">
<path d="M11.327 2.26001C9.6824 3.75742 8.0414 5.25876 6.40399 6.76401C5.77799 7.36401 5.19199 7.97401 4.62999 8.60701C3.63633 9.73504 3.06243 11.1714 3.00522 12.6736C2.94801 14.1758 3.411 15.6517 4.31599 16.852L4.45599 17.029C5.46799 18.234 7.01699 18.784 8.51099 18.603L8.75699 18.566L8.05099 20.684C8.00092 20.8343 7.98729 20.9944 8.01123 21.1511C8.03516 21.3077 8.09597 21.4564 8.18865 21.5849C8.28133 21.7134 8.40322 21.8181 8.54429 21.8903C8.68535 21.9624 8.84154 22.0001 8.99999 22H15L15.118 21.993C15.2655 21.9754 15.4071 21.9252 15.5328 21.846C15.6584 21.7669 15.7648 21.6607 15.8443 21.5353C15.9238 21.4098 15.9743 21.2682 15.9923 21.1208C16.0102 20.9734 15.9951 20.8239 15.948 20.683L15.26 18.618L15.364 18.638C16.953 18.888 18.626 18.251 19.684 16.853C20.5891 15.6533 21.0524 14.1779 20.9957 12.6762C20.9391 11.1744 20.3659 9.73816 19.373 8.61001C18.8109 7.97682 18.2238 7.36633 17.613 6.78001L12.675 2.26201C12.4909 2.09379 12.2506 2.00043 12.0012 2.00024C11.7518 2.00006 11.5113 2.09206 11.327 2.26001Z" fill="currentColor"/>
</svg>
