<svg width="24" height="24" viewBox="0 0 24 24" fill="none" xmlns="http://www.w3.org/2000/svg">
<path d="M3 11.9998C3 13.6568 7.03 14.9998 12 14.9998C13.116 14.9998 14.185 14.9318 15.172 14.8078M20.896 12.4578C20.9632 12.3144 20.9987 12.1581 21 11.9998M20.9839 12.5457C21.0947 10.7227 20.6482 8.90912 19.7037 7.3459C18.7592 5.78268 17.3615 4.5438 15.6962 3.79382C14.0309 3.04384 12.1769 2.81825 10.3803 3.14704C8.58379 3.47582 6.92979 4.3434 5.63804 5.63454C4.34629 6.92568 3.47792 8.57927 3.14829 10.3757C2.81866 12.172 3.04336 14.0262 3.79255 15.6919C4.54174 17.3575 5.77996 18.7558 7.34273 19.701C8.9055 20.6462 10.7189 21.0936 12.5419 20.9837M16 18.9998H22M19 15.9998V21.9998" stroke="currentColor" stroke-width="1.5" stroke-linecap="round" stroke-linejoin="round"/>
</svg>
