<svg width="24" height="24" viewBox="0 0 24 24" fill="none" xmlns="http://www.w3.org/2000/svg">
<path d="M3 11.9998C3 13.6568 7.03 14.9998 12 14.9998C12.987 14.9998 13.936 14.9468 14.825 14.8498M18.182 14.1798C19.917 13.6328 21 12.8598 21 11.9998M20.0511 16.0268C20.8978 14.3365 21.1907 12.4224 20.8882 10.5562C20.5858 8.68999 19.7033 6.96642 18.366 5.63003C17.0288 4.29365 15.3046 3.41232 13.4382 3.11108C11.5718 2.80985 9.6579 3.10401 7.96811 3.95184M5.62811 5.64384C3.94186 7.33327 2.9958 9.62336 2.99805 12.0103C3.0003 14.3973 3.95068 16.6856 5.64011 18.3718C7.32953 20.0581 9.61963 21.0041 12.0066 21.0019C14.3936 20.9996 16.6819 20.0493 18.3681 18.3598M3 2.99976L21 20.9998" stroke="currentColor" stroke-width="1.5" stroke-linecap="round" stroke-linejoin="round"/>
</svg>
