<svg width="24" height="24" viewBox="0 0 24 24" fill="none" xmlns="http://www.w3.org/2000/svg">
<path d="M5 4V6L10 11M10 11H4L2.5 9.5M10 11L4 17V19M19 4V6L14 11M14 11H20L21.5 9.5M14 11L20 17V19M12 11C13.0609 11 14.0783 11.4214 14.8284 12.1716C15.5786 12.9217 16 13.9391 16 15C16 16.0609 15.5786 17.0783 14.8284 17.8284C14.0783 18.5786 13.0609 19 12 19C10.9391 19 9.92172 18.5786 9.17157 17.8284C8.42143 17.0783 8 16.0609 8 15C8 13.9391 8.42143 12.9217 9.17157 12.1716C9.92172 11.4214 10.9391 11 12 11ZM12 11C11.4696 11 10.9609 10.7893 10.5858 10.4142C10.2107 10.0391 10 9.53043 10 9C10 8.46957 10.2107 7.96086 10.5858 7.58579C10.9609 7.21071 11.4696 7 12 7C12.5304 7 13.0391 7.21071 13.4142 7.58579C13.7893 7.96086 14 8.46957 14 9C14 9.53043 13.7893 10.0391 13.4142 10.4142C13.0391 10.7893 12.5304 11 12 11Z" stroke="currentColor" stroke-width="1.5" stroke-linecap="round" stroke-linejoin="round"/>
</svg>
