<svg width="24" height="24" viewBox="0 0 24 24" fill="none" xmlns="http://www.w3.org/2000/svg">
<path d="M9.99999 12.057C10.1374 12.3534 10.3489 12.6093 10.614 12.8C11.296 13.259 12.123 13.174 12.778 12.78M13.881 9.86005C13.7513 9.41283 13.5284 8.99813 13.227 8.64325C12.9255 8.28836 12.5524 8.00133 12.132 7.80105C11.9681 7.72337 11.7987 7.65819 11.625 7.60605M8.23999 8.24005C7.65576 8.66252 7.19154 9.22978 6.89299 9.88605C5.79799 12.318 7.18299 15.134 9.60299 16.132C11.558 16.938 13.7 16.482 15.253 15.248M16.998 12.98L17.041 12.877C18.401 9.53405 16.484 5.74305 13.145 4.46705C11.552 3.85705 9.87499 3.86805 8.35499 4.35405M5.77599 5.76205C4.76229 6.59111 3.98086 7.66885 3.50799 8.89005C1.87799 13.143 4.33099 17.914 8.58999 19.466C11.801 20.636 15.266 19.808 17.714 17.728M19.583 15.579C20.4347 14.2201 20.9226 12.665 21 11.063M3 3L21 21" stroke="currentColor" stroke-width="1.5" stroke-linecap="round" stroke-linejoin="round"/>
</svg>
