<svg width="24" height="24" viewBox="0 0 24 24" fill="none" xmlns="http://www.w3.org/2000/svg">
<path d="M3 11H11M15 11H21M5 11V7C5 6.429 5.16 5.895 5.437 5.44M8 4H16C16.7956 4 17.5587 4.31607 18.1213 4.87868C18.6839 5.44129 19 6.20435 19 7V11M10 17C10 17.394 9.9224 17.7841 9.77164 18.1481C9.62087 18.512 9.3999 18.8427 9.12132 19.1213C8.84274 19.3999 8.51203 19.6209 8.14805 19.7716C7.78407 19.9224 7.39397 20 7 20C6.60603 20 6.21593 19.9224 5.85195 19.7716C5.48797 19.6209 5.15726 19.3999 4.87868 19.1213C4.6001 18.8427 4.37913 18.512 4.22836 18.1481C4.0776 17.7841 4 17.394 4 17C4 16.606 4.0776 16.2159 4.22836 15.8519C4.37913 15.488 4.6001 15.1573 4.87868 14.8787C5.15726 14.6001 5.48797 14.3791 5.85195 14.2284C6.21593 14.0776 6.60603 14 7 14C7.39397 14 7.78407 14.0776 8.14805 14.2284C8.51203 14.3791 8.84274 14.6001 9.12132 14.8787C9.3999 15.1573 9.62087 15.488 9.77164 15.8519C9.9224 16.2159 10 16.606 10 17ZM10 17H14M14.88 14.877C14.6011 15.1553 14.3798 15.4858 14.2287 15.8497C14.0776 16.2136 13.9996 16.6036 13.9992 16.9976C13.9989 17.3916 14.0761 17.7818 14.2265 18.146C14.377 18.5101 14.5977 18.8411 14.876 19.12C15.1543 19.3988 15.4849 19.6201 15.8487 19.7713C16.2126 19.9224 16.6027 20.0003 16.9967 20.0007C17.3907 20.0011 17.7809 19.9239 18.145 19.7734C18.5092 19.623 18.8401 19.4023 19.119 19.124M19.709 15.71C19.4112 15.0866 18.908 14.5845 18.284 14.288M3 3L21 21" stroke="currentColor" stroke-width="1.5" stroke-linecap="round" stroke-linejoin="round"/>
</svg>
