<svg width="24" height="24" viewBox="0 0 24 24" fill="none" xmlns="http://www.w3.org/2000/svg">
<path d="M19 2C19.7956 2 20.5587 2.31607 21.1213 2.87868C21.6839 3.44129 22 4.20435 22 5V19C22 19.7956 21.6839 20.5587 21.1213 21.1213C20.5587 21.6839 19.7956 22 19 22H5C4.20435 22 3.44129 21.6839 2.87868 21.1213C2.31607 20.5587 2 19.7956 2 19V5C2 4.20435 2.31607 3.44129 2.87868 2.87868C3.44129 2.31607 4.20435 2 5 2H19ZM12.613 12.21C12.4206 12.0607 12.1803 11.9868 11.9373 12.0021C11.6943 12.0174 11.4652 12.1208 11.293 12.293L8.293 15.293L8.21 15.387C8.06075 15.5794 7.98683 15.8197 8.00211 16.0627C8.01739 16.3057 8.12082 16.5348 8.293 16.707L8.387 16.79C8.5794 16.9393 8.81965 17.0132 9.06268 16.9979C9.30571 16.9826 9.53481 16.8792 9.707 16.707L12 14.415L14.293 16.707L14.387 16.79C14.588 16.9454 14.8406 17.0185 15.0935 16.9944C15.3464 16.9703 15.5807 16.8508 15.7488 16.6603C15.9168 16.4697 16.006 16.2223 15.9982 15.9684C15.9905 15.7144 15.8863 15.473 15.707 15.293L12.707 12.293L12.613 12.21ZM12.613 7.21C12.4206 7.06075 12.1803 6.98683 11.9373 7.00211C11.6943 7.01739 11.4652 7.12082 11.293 7.293L8.293 10.293L8.21 10.387C8.06075 10.5794 7.98683 10.8197 8.00211 11.0627C8.01739 11.3057 8.12082 11.5348 8.293 11.707L8.387 11.79C8.5794 11.9393 8.81965 12.0132 9.06268 11.9979C9.30571 11.9826 9.53481 11.8792 9.707 11.707L12 9.415L14.293 11.707L14.387 11.79C14.588 11.9454 14.8406 12.0185 15.0935 11.9944C15.3464 11.9703 15.5807 11.8508 15.7488 11.6603C15.9168 11.4697 16.006 11.2223 15.9982 10.9684C15.9905 10.7144 15.8863 10.473 15.707 10.293L12.707 7.293L12.613 7.21Z" fill="currentColor"/>
</svg>
