<svg width="24" height="24" viewBox="0 0 24 24" fill="none" xmlns="http://www.w3.org/2000/svg">
<path d="M12 2L12.642 2.005L13.258 2.022L13.557 2.035L14.136 2.069L14.689 2.115C19.376 2.57 21.339 4.448 21.855 9.021L21.885 9.311L21.931 9.864L21.972 10.591L21.978 10.741L21.995 11.358L22 12L21.995 12.642L21.978 13.258L21.965 13.557L21.931 14.136L21.885 14.689C21.43 19.376 19.552 21.339 14.979 21.855L14.689 21.885L14.136 21.931L13.409 21.972L13.259 21.978L12.642 21.995L12 22L11.358 21.995L10.742 21.978L10.443 21.965L9.86398 21.931L9.31098 21.885C4.62398 21.43 2.66098 19.552 2.14498 14.979L2.11498 14.689L2.06898 14.136L2.02798 13.409L2.02198 13.259L2.00498 12.642L2.00098 12.324V11.676L2.00498 11.358L2.02198 10.742L2.03498 10.443L2.06898 9.864L2.11498 9.311C2.56998 4.624 4.44798 2.661 9.02098 2.145L9.31098 2.115L9.86398 2.069L10.591 2.028L10.741 2.022L11.358 2.005C11.568 2.002 11.782 2 12 2ZM14 7H9.99998L9.88298 7.007C9.65976 7.03332 9.45192 7.13408 9.29299 7.29301C9.13406 7.45194 9.0333 7.65978 9.00698 7.883L8.99998 8L9.00698 8.117C9.0333 8.34022 9.13406 8.54806 9.29299 8.70699C9.45192 8.86592 9.65976 8.96668 9.88298 8.993L9.99998 9H12.718L11.03 15.757L11.008 15.872C10.9766 16.115 11.0356 16.3611 11.1737 16.5635C11.3118 16.7659 11.5194 16.9106 11.7571 16.97C11.9948 17.0295 12.2461 16.9996 12.4632 16.886C12.6803 16.7725 12.8482 16.5832 12.935 16.354L12.97 16.243L14.97 8.243L14.991 8.131C15.0084 7.99929 14.9995 7.86543 14.9646 7.73722C14.9298 7.60902 14.8697 7.48904 14.788 7.38431C14.7062 7.27957 14.6045 7.19217 14.4886 7.12722C14.3727 7.06226 14.245 7.02106 14.113 7.006L14 7Z" fill="currentColor"/>
</svg>
