<svg width="24" height="24" viewBox="0 0 24 24" fill="none" xmlns="http://www.w3.org/2000/svg">
<path d="M19 2C19.7956 2 20.5587 2.31607 21.1213 2.87868C21.6839 3.44129 22 4.20435 22 5V19C22 19.7956 21.6839 20.5587 21.1213 21.1213C20.5587 21.6839 19.7956 22 19 22H5C4.20435 22 3.44129 21.6839 2.87868 21.1213C2.31607 20.5587 2 19.7956 2 19V5C2 4.20435 2.31607 3.44129 2.87868 2.87868C3.44129 2.31607 4.20435 2 5 2H19ZM12.613 9.21C12.4206 9.06075 12.1803 8.98683 11.9373 9.00211C11.6943 9.01739 11.4652 9.12082 11.293 9.293L8.293 12.293L8.21 12.387C8.06075 12.5794 7.98683 12.8197 8.00211 13.0627C8.01739 13.3057 8.12082 13.5348 8.293 13.707L8.387 13.79C8.5794 13.9393 8.81965 14.0132 9.06268 13.9979C9.30571 13.9826 9.53481 13.8792 9.707 13.707L12 11.415L14.293 13.707L14.387 13.79C14.588 13.9454 14.8406 14.0185 15.0935 13.9944C15.3464 13.9703 15.5807 13.8508 15.7488 13.6603C15.9168 13.4697 16.006 13.2223 15.9982 12.9684C15.9905 12.7144 15.8863 12.473 15.707 12.293L12.707 9.293L12.613 9.21Z" fill="currentColor"/>
</svg>
