<svg width="24" height="24" viewBox="0 0 24 24" fill="none" xmlns="http://www.w3.org/2000/svg">
<path d="M19 2C19.7956 2 20.5587 2.31607 21.1213 2.87868C21.6839 3.44129 22 4.20435 22 5V19C22 19.7956 21.6839 20.5587 21.1213 21.1213C20.5587 21.6839 19.7956 22 19 22H5C4.20435 22 3.44129 21.6839 2.87868 21.1213C2.31607 20.5587 2 19.7956 2 19V5C2 4.20435 2.31607 3.44129 2.87868 2.87868C3.44129 2.31607 4.20435 2 5 2H19ZM12 7C11.7348 7 11.4804 7.10536 11.2929 7.29289C11.1054 7.48043 11 7.73478 11 8V13.585L8.707 11.293L8.613 11.21C8.41201 11.0546 8.1594 10.9815 7.90647 11.0056C7.65355 11.0297 7.41928 11.1492 7.25125 11.3397C7.08322 11.5303 6.99402 11.7777 7.00177 12.0316C7.00953 12.2856 7.11365 12.527 7.293 12.707L11.293 16.707L11.387 16.79L11.479 16.854L11.577 16.906L11.687 16.95L11.799 16.98L11.925 16.997L12 17L12.117 16.993L12.266 16.964L12.371 16.929L12.484 16.875L12.595 16.804C12.6348 16.7747 12.6723 16.7422 12.707 16.707L16.707 12.707L16.79 12.613C16.9393 12.4206 17.0132 12.1803 16.9979 11.9373C16.9826 11.6943 16.8792 11.4652 16.707 11.293L16.613 11.21C16.4206 11.0607 16.1803 10.9868 15.9373 11.0021C15.6943 11.0174 15.4652 11.1208 15.293 11.293L13 13.585V8L12.993 7.883C12.9643 7.63975 12.8474 7.41547 12.6644 7.25272C12.4813 7.08996 12.2449 7.00003 12 7Z" fill="currentColor"/>
</svg>
