<svg width="24" height="24" viewBox="0 0 24 24" fill="none" xmlns="http://www.w3.org/2000/svg">
<path d="M12 2L12.324 2.001L12.642 2.005L13.258 2.022L13.557 2.035L14.136 2.069L14.689 2.115C19.474 2.579 21.421 4.526 21.885 9.311L21.931 9.864L21.965 10.443C21.97 10.541 21.975 10.641 21.978 10.742L21.995 11.358L22 12L21.995 12.642L21.978 13.258L21.965 13.557L21.931 14.136L21.885 14.689C21.421 19.474 19.474 21.421 14.689 21.885L14.136 21.931L13.557 21.965C13.459 21.97 13.359 21.975 13.258 21.978L12.642 21.995L12 22L11.358 21.995L10.742 21.978L10.443 21.965L9.864 21.931L9.311 21.885C4.526 21.421 2.579 19.474 2.115 14.689L2.069 14.136L2.035 13.557C2.03014 13.4574 2.0258 13.3577 2.022 13.258L2.005 12.642C2.002 12.432 2 12.218 2 12L2.001 11.676L2.005 11.358L2.022 10.742L2.035 10.443L2.069 9.864L2.115 9.311C2.579 4.526 4.526 2.579 9.311 2.115L9.864 2.069L10.443 2.035C10.541 2.03 10.641 2.025 10.742 2.022L11.358 2.005C11.568 2.002 11.782 2 12 2ZM12.707 7.293C12.5195 7.10553 12.2652 7.00021 12 7.00021C11.7348 7.00021 11.4805 7.10553 11.293 7.293L7.293 11.293C7.21084 11.3757 7.14322 11.4718 7.093 11.577L7.071 11.629C7.04208 11.7003 7.02194 11.7748 7.011 11.851L7.003 11.918L7.001 11.981V11.946V12.019C7.00364 12.1395 7.02733 12.2586 7.071 12.371L7.094 12.423L7.124 12.484L7.146 12.521C7.16174 12.5463 7.17842 12.571 7.196 12.595L7.22 12.625L7.293 12.707L11.293 16.707L11.387 16.79C11.5794 16.9393 11.8197 17.0132 12.0627 16.9979C12.3057 16.9826 12.5348 16.8792 12.707 16.707L12.79 16.613C12.9393 16.4206 13.0132 16.1803 12.9979 15.9373C12.9826 15.6943 12.8792 15.4652 12.707 15.293L10.415 13H16L16.117 12.993C16.3701 12.9629 16.6021 12.8373 16.7657 12.6418C16.9293 12.4464 17.0121 12.1958 16.9972 11.9414C16.9822 11.687 16.8707 11.4478 16.6854 11.2728C16.5 11.0979 16.2549 11.0003 16 11H10.415L12.707 8.707L12.79 8.613C12.9393 8.4206 13.0132 8.18035 12.9979 7.93732C12.9826 7.69429 12.8792 7.46519 12.707 7.293Z" fill="currentColor"/>
</svg>
