<svg width="24" height="24" viewBox="0 0 24 24" fill="none" xmlns="http://www.w3.org/2000/svg">
<path d="M19 2C19.7956 2 20.5587 2.31607 21.1213 2.87868C21.6839 3.44129 22 4.20435 22 5V19C22 19.7956 21.6839 20.5587 21.1213 21.1213C20.5587 21.6839 19.7956 22 19 22H5C4.20435 22 3.44129 21.6839 2.87868 21.1213C2.31607 20.5587 2 19.7956 2 19V5C2 4.20435 2.31607 3.44129 2.87868 2.87868C3.44129 2.31607 4.20435 2 5 2H19ZM9.613 10.21C9.41201 10.0546 9.1594 9.98151 8.90647 10.0056C8.65355 10.0297 8.41928 10.1492 8.25125 10.3397C8.08321 10.5303 7.99402 10.7777 8.00177 11.0316C8.00953 11.2856 8.11365 11.527 8.293 11.707L11.293 14.707L11.387 14.79C11.5794 14.9393 11.8197 15.0132 12.0627 14.9979C12.3057 14.9826 12.5348 14.8792 12.707 14.707L15.707 11.707L15.79 11.613C15.9393 11.4206 16.0132 11.1803 15.9979 10.9373C15.9826 10.6943 15.8792 10.4652 15.707 10.293L15.613 10.21C15.4206 10.0607 15.1803 9.98683 14.9373 10.0021C14.6943 10.0174 14.4652 10.1208 14.293 10.293L12 12.585L9.707 10.293L9.613 10.21Z" fill="currentColor"/>
</svg>
