<svg width="24" height="24" viewBox="0 0 24 24" fill="none" xmlns="http://www.w3.org/2000/svg">
<path d="M12 2C11.782 2 11.568 2.002 11.358 2.005L10.742 2.022L10.443 2.035L9.864 2.069L9.311 2.115C4.526 2.579 2.579 4.526 2.115 9.311L2.069 9.864L2.035 10.443C2.03 10.541 2.025 10.641 2.022 10.742L2.005 11.358L2.001 11.676L2 12C2 12.218 2.002 12.432 2.005 12.642L2.022 13.258L2.035 13.557L2.069 14.136L2.115 14.689C2.579 19.474 4.526 21.421 9.311 21.885L9.864 21.931L10.443 21.965C10.541 21.97 10.641 21.975 10.742 21.978L11.358 21.995L12 22L12.642 21.995L13.258 21.978L13.557 21.965L14.136 21.931L14.689 21.885C19.474 21.421 21.421 19.474 21.885 14.689L21.931 14.136L21.965 13.557C21.97 13.459 21.975 13.359 21.978 13.258L21.995 12.642L22 12L21.995 11.358L21.978 10.742L21.965 10.443L21.931 9.864L21.885 9.311C21.421 4.526 19.474 2.579 14.689 2.115L14.136 2.069L13.557 2.035C13.4574 2.03014 13.3577 2.0258 13.258 2.022L12.642 2.005L12.324 2.001L12 2ZM11.293 11.293C11.4652 11.1208 11.6943 11.0174 11.9373 11.0021C12.1803 10.9868 12.4206 11.0607 12.613 11.21L12.707 11.293L15.707 14.293C15.8863 14.473 15.9905 14.7144 15.9982 14.9684C16.006 15.2223 15.9168 15.4697 15.7488 15.6603C15.5807 15.8508 15.3464 15.9703 15.0935 15.9944C14.8406 16.0185 14.588 15.9454 14.387 15.79L14.293 15.707L12 13.415L9.707 15.707C9.53481 15.8792 9.30571 15.9826 9.06268 15.9979C8.81965 16.0132 8.5794 15.9393 8.387 15.79L8.293 15.707C8.12082 15.5348 8.01739 15.3057 8.00211 15.0627C7.98683 14.8197 8.06075 14.5794 8.21 14.387L8.293 14.293L11.293 11.293ZM11.293 7.293C11.4652 7.12082 11.6943 7.01739 11.9373 7.00211C12.1803 6.98683 12.4206 7.06075 12.613 7.21L12.707 7.293L15.707 10.293C15.8863 10.473 15.9905 10.7144 15.9982 10.9684C16.006 11.2223 15.9168 11.4697 15.7488 11.6603C15.5807 11.8508 15.3464 11.9703 15.0935 11.9944C14.8406 12.0185 14.588 11.9454 14.387 11.79L14.293 11.707L12 9.415L9.707 11.707C9.53481 11.8792 9.30571 11.9826 9.06268 11.9979C8.81965 12.0132 8.5794 11.9393 8.387 11.79L8.293 11.707C8.12082 11.5348 8.01739 11.3057 8.00211 11.0627C7.98683 10.8197 8.06075 10.5794 8.21 10.387L8.293 10.293L11.293 7.293Z" fill="currentColor"/>
</svg>
