<svg width="24" height="24" viewBox="0 0 24 24" fill="none" xmlns="http://www.w3.org/2000/svg">
<path d="M18.333 2C20.293 2 21.893 3.537 21.995 5.472L22 5.667V18.333C22 20.293 20.463 21.893 18.528 21.995L18.333 22H5.667C4.72818 22 3.82509 21.64 3.1438 20.9941C2.46252 20.3481 2.05492 19.4655 2.005 18.528L2 18.333V5.667C2 3.707 3.537 2.107 5.472 2.005L5.667 2H18.333ZM14 7C13.7551 7.00003 13.5187 7.08996 13.3356 7.25272C13.1526 7.41547 13.0357 7.63975 13.007 7.883L13 8V11H11V8L10.993 7.883C10.9641 7.63995 10.847 7.41594 10.664 7.25341C10.481 7.09088 10.2448 7.00111 10 7.00111C9.75524 7.00111 9.51897 7.09088 9.33597 7.25341C9.15296 7.41594 9.03591 7.63995 9.007 7.883L9 8V11L9.005 11.15C9.04078 11.6262 9.24576 12.0738 9.58286 12.412C9.91996 12.7502 10.3669 12.9567 10.843 12.994L11 13H13V16L13.007 16.117C13.0359 16.3601 13.153 16.5841 13.336 16.7466C13.519 16.9091 13.7552 16.9989 14 16.9989C14.2448 16.9989 14.481 16.9091 14.664 16.7466C14.847 16.5841 14.9641 16.3601 14.993 16.117L15 16V8L14.993 7.883C14.9643 7.63975 14.8474 7.41547 14.6644 7.25272C14.4813 7.08996 14.2449 7.00003 14 7Z" fill="currentColor"/>
</svg>
