<svg width="24" height="24" viewBox="0 0 24 24" fill="none" xmlns="http://www.w3.org/2000/svg">
<path d="M13 15L14 16M12 8C12.5304 8 13.0391 8.21071 13.4142 8.58579C13.7893 8.96086 14 9.46957 14 10V14C14 14.5304 13.7893 15.0391 13.4142 15.4142C13.0391 15.7893 12.5304 16 12 16C11.4696 16 10.9609 15.7893 10.5858 15.4142C10.2107 15.0391 10 14.5304 10 14V10C10 9.46957 10.2107 8.96086 10.5858 8.58579C10.9609 8.21071 11.4696 8 12 8ZM12 3C19.2 3 21 4.8 21 12C21 19.2 19.2 21 12 21C4.8 21 3 19.2 3 12C3 4.8 4.8 3 12 3Z" stroke="currentColor" stroke-width="1.5" stroke-linecap="round" stroke-linejoin="round"/>
</svg>
