<svg width="24" height="24" viewBox="0 0 24 24" fill="none" xmlns="http://www.w3.org/2000/svg">
<path d="M12 2L12.642 2.005L13.258 2.022L13.557 2.035L14.136 2.069L14.689 2.115C19.376 2.57 21.339 4.448 21.855 9.021L21.885 9.311L21.931 9.864L21.972 10.591L21.978 10.741L21.995 11.358L22 12L21.995 12.642L21.978 13.258L21.965 13.557L21.931 14.136L21.885 14.689C21.43 19.376 19.552 21.339 14.979 21.855L14.689 21.885L14.136 21.931L13.409 21.972L13.259 21.978L12.642 21.995L12 22L11.358 21.995L10.742 21.978L10.443 21.965L9.86398 21.931L9.31098 21.885C4.62398 21.43 2.66098 19.552 2.14498 14.979L2.11498 14.689L2.06898 14.136L2.02798 13.409L2.02198 13.259L2.00498 12.642L2.00098 12.324V11.676L2.00498 11.358L2.02198 10.742L2.03498 10.443L2.06898 9.864L2.11498 9.311C2.56998 4.624 4.44798 2.661 9.02098 2.145L9.31098 2.115L9.86398 2.069L10.591 2.028L10.741 2.022L11.358 2.005C11.568 2.002 11.782 2 12 2ZM14 7C13.755 7.00003 13.5186 7.08996 13.3356 7.25272C13.1526 7.41547 13.0356 7.63975 13.007 7.883L13 8V11H11V8L10.993 7.883C10.9641 7.63995 10.847 7.41594 10.664 7.25341C10.481 7.09088 10.2447 7.00111 9.99998 7.00111C9.75521 7.00111 9.51895 7.09088 9.33594 7.25341C9.15293 7.41594 9.03589 7.63995 9.00698 7.883L8.99998 8V11L9.00498 11.15C9.04076 11.6262 9.24573 12.0738 9.58284 12.412C9.91994 12.7502 10.3669 12.9567 10.843 12.994L11 13H13V16L13.007 16.117C13.0359 16.3601 13.1529 16.5841 13.3359 16.7466C13.519 16.9091 13.7552 16.9989 14 16.9989C14.2447 16.9989 14.481 16.9091 14.664 16.7466C14.847 16.5841 14.9641 16.3601 14.993 16.117L15 16V8L14.993 7.883C14.9643 7.63975 14.8474 7.41547 14.6643 7.25272C14.4813 7.08996 14.2449 7.00003 14 7Z" fill="currentColor"/>
</svg>
