<svg width="24" height="24" viewBox="0 0 24 24" fill="none" xmlns="http://www.w3.org/2000/svg">
<path d="M18.333 2C20.293 2 21.893 3.537 21.995 5.472L22 5.667V18.333C22 20.293 20.463 21.893 18.528 21.995L18.333 22H5.667C4.72818 22 3.82509 21.64 3.1438 20.9941C2.46252 20.3481 2.05492 19.4655 2.005 18.528L2 18.333V5.667C2 3.707 3.537 2.107 5.472 2.005L5.667 2H18.333ZM14 7H10L9.883 7.007C9.65978 7.03332 9.45194 7.13408 9.29301 7.29301C9.13408 7.45194 9.03332 7.65978 9.007 7.883L9 8L9.007 8.117C9.03332 8.34022 9.13408 8.54806 9.29301 8.70699C9.45194 8.86592 9.65978 8.96668 9.883 8.993L10 9H12.718L11.03 15.757L11.008 15.872C10.9767 16.115 11.0356 16.3611 11.1737 16.5635C11.3118 16.7659 11.5194 16.9106 11.7571 16.97C11.9948 17.0295 12.2461 16.9996 12.4632 16.886C12.6804 16.7725 12.8482 16.5832 12.935 16.354L12.97 16.243L14.97 8.243L14.991 8.131C15.0085 7.99929 14.9995 7.86543 14.9647 7.73722C14.9298 7.60902 14.8698 7.48904 14.788 7.38431C14.7063 7.27957 14.6045 7.19217 14.4886 7.12722C14.3727 7.06226 14.245 7.02106 14.113 7.006L14 7Z" fill="currentColor"/>
</svg>
