<svg width="24" height="24" viewBox="0 0 24 24" fill="none" xmlns="http://www.w3.org/2000/svg">
<path d="M18.333 2C20.293 2 21.893 3.537 21.995 5.472L22 5.667V18.333C22 20.293 20.463 21.893 18.528 21.995L18.333 22H5.667C4.72818 22 3.82509 21.64 3.1438 20.9941C2.46252 20.3481 2.05492 19.4655 2.005 18.528L2 18.333V5.667C2 3.707 3.537 2.107 5.472 2.005L5.667 2H18.333ZM15.25 8H13.75L13.606 8.006C13.1683 8.04214 12.7602 8.24154 12.4627 8.56461C12.1652 8.88768 12 9.31081 12 9.75V11.25L12.006 11.394C12.0421 11.8317 12.2415 12.2398 12.5646 12.5373C12.8877 12.8348 13.3108 13 13.75 13H15V14H13.967L13.942 13.913C13.8629 13.6909 13.7078 13.5038 13.5041 13.385C13.3005 13.2661 13.0614 13.223 12.829 13.2633C12.5967 13.3037 12.3861 13.4248 12.2344 13.6053C12.0827 13.7859 11.9997 14.0142 12 14.25C12 15.216 12.784 16 13.75 16H15.25L15.394 15.994C15.8317 15.9579 16.2398 15.7585 16.5373 15.4354C16.8348 15.1123 17 14.6892 17 14.25V9.75L16.994 9.606C16.9579 9.1683 16.7585 8.76019 16.4354 8.46268C16.1123 8.16517 15.6892 8.00002 15.25 8ZM10 8H8L7.883 8.007C7.63975 8.03566 7.41547 8.15259 7.25272 8.33563C7.08996 8.51866 7.00003 8.75507 7 9V15L7.007 15.117C7.03566 15.3603 7.15259 15.5845 7.33563 15.7473C7.51866 15.91 7.75507 16 8 16L8.117 15.993C8.36025 15.9643 8.58453 15.8474 8.74728 15.6644C8.91004 15.4813 8.99997 15.2449 9 15V13H10L10.117 12.993C10.3701 12.9629 10.6021 12.8373 10.7657 12.6418C10.9293 12.4464 11.0121 12.1958 10.9972 11.9414C10.9822 11.687 10.8707 11.4478 10.6854 11.2728C10.5 11.0979 10.2549 11.0003 10 11H9V10H10L10.117 9.993C10.3701 9.9629 10.6021 9.83729 10.7657 9.64183C10.9293 9.44638 11.0121 9.19584 10.9972 8.94139C10.9822 8.68695 10.8707 8.44782 10.6854 8.27285C10.5 8.09788 10.2549 8.00028 10 8ZM15 10V11H14V10H15Z" fill="currentColor"/>
</svg>
