<svg width="24" height="24" viewBox="0 0 24 24" fill="none" xmlns="http://www.w3.org/2000/svg">
<path d="M19 2C19.7956 2 20.5587 2.31607 21.1213 2.87868C21.6839 3.44129 22 4.20435 22 5V19C22 19.7956 21.6839 20.5587 21.1213 21.1213C20.5587 21.6839 19.7956 22 19 22H5C4.20435 22 3.44129 21.6839 2.87868 21.1213C2.31607 20.5587 2 19.7956 2 19V5C2 4.20435 2.31607 3.44129 2.87868 2.87868C3.44129 2.31607 4.20435 2 5 2H19ZM13.707 8.293C13.5195 8.10553 13.2652 8.00021 13 8.00021C12.7348 8.00021 12.4805 8.10553 12.293 8.293L9.293 11.293L9.21 11.387C9.06075 11.5794 8.98683 11.8197 9.00211 12.0627C9.01739 12.3057 9.12082 12.5348 9.293 12.707L12.293 15.707L12.387 15.79C12.5794 15.9393 12.8197 16.0132 13.0627 15.9979C13.3057 15.9826 13.5348 15.8792 13.707 15.707L13.79 15.613C13.9393 15.4206 14.0132 15.1803 13.9979 14.9373C13.9826 14.6943 13.8792 14.4652 13.707 14.293L11.415 12L13.707 9.707L13.79 9.613C13.9393 9.4206 14.0132 9.18035 13.9979 8.93732C13.9826 8.69429 13.8792 8.46519 13.707 8.293Z" fill="currentColor"/>
</svg>
