<svg width="24" height="24" viewBox="0 0 24 24" fill="none" xmlns="http://www.w3.org/2000/svg">
<path d="M12 2C11.782 2 11.568 2.002 11.358 2.005L10.742 2.022L10.443 2.035L9.864 2.069L9.311 2.115C4.526 2.579 2.579 4.526 2.115 9.311L2.069 9.864L2.035 10.443C2.03 10.541 2.025 10.641 2.022 10.742L2.005 11.358L2.001 11.676L2 12C2 12.218 2.002 12.432 2.005 12.642L2.022 13.258L2.035 13.557L2.069 14.136L2.115 14.689C2.579 19.474 4.526 21.421 9.311 21.885L9.864 21.931L10.443 21.965C10.541 21.97 10.641 21.975 10.742 21.978L11.358 21.995L12 22L12.642 21.995L13.258 21.978L13.557 21.965L14.136 21.931L14.689 21.885C19.474 21.421 21.421 19.474 21.885 14.689L21.931 14.136L21.965 13.557C21.97 13.459 21.975 13.359 21.978 13.258L21.995 12.642L22 12L21.995 11.358L21.978 10.742L21.965 10.443L21.931 9.864L21.885 9.311C21.421 4.526 19.474 2.579 14.689 2.115L14.136 2.069L13.557 2.035C13.4574 2.03014 13.3577 2.0258 13.258 2.022L12.642 2.005L12.324 2.001L12 2ZM12 7C12.2449 7.00003 12.4813 7.08996 12.6644 7.25272C12.8474 7.41547 12.9643 7.63975 12.993 7.883L13 8V13.585L15.293 11.293C15.4652 11.1208 15.6943 11.0174 15.9373 11.0021C16.1803 10.9868 16.4206 11.0607 16.613 11.21L16.707 11.293C16.8792 11.4652 16.9826 11.6943 16.9979 11.9373C17.0132 12.1803 16.9393 12.4206 16.79 12.613L16.707 12.707L12.707 16.707C12.6721 16.742 12.6347 16.7745 12.595 16.804L12.485 16.875L12.371 16.929L12.266 16.964L12.117 16.994L12 17L11.925 16.997L11.799 16.98L11.688 16.95L11.577 16.906L11.479 16.854L11.387 16.79L11.293 16.707L7.293 12.707C7.11365 12.527 7.00953 12.2856 7.00177 12.0316C6.99402 11.7777 7.08322 11.5303 7.25125 11.3397C7.41928 11.1492 7.65355 11.0297 7.90647 11.0056C8.1594 10.9815 8.41201 11.0546 8.613 11.21L8.707 11.293L11 13.585V8C11 7.73478 11.1054 7.48043 11.2929 7.29289C11.4804 7.10536 11.7348 7 12 7Z" fill="currentColor"/>
</svg>
