<svg width="24" height="24" viewBox="0 0 24 24" fill="none" xmlns="http://www.w3.org/2000/svg">
<path d="M18.333 2C20.293 2 21.893 3.537 21.995 5.472L22 5.667V18.333C22 20.293 20.463 21.893 18.528 21.995L18.333 22H5.667C4.72818 22 3.82509 21.64 3.1438 20.9941C2.46252 20.3481 2.05492 19.4655 2.005 18.528L2 18.333V5.667C2 3.707 3.537 2.107 5.472 2.005L5.667 2H18.333ZM13 7H11L10.85 7.005C10.3738 7.04078 9.92617 7.24576 9.58797 7.58286C9.24977 7.91996 9.04334 8.36695 9.006 8.843L9 9V11L9.005 11.15C9.04078 11.6262 9.24576 12.0738 9.58286 12.412C9.91996 12.7502 10.3669 12.9567 10.843 12.994L11 13H13V15H11L10.993 14.883C10.9629 14.6299 10.8373 14.3979 10.6418 14.2343C10.4464 14.0707 10.1958 13.9879 9.94139 14.0028C9.68695 14.0178 9.44782 14.1293 9.27285 14.3146C9.09788 14.5 9.00028 14.7451 9 15C8.99984 15.5046 9.19041 15.9906 9.5335 16.3605C9.87659 16.7305 10.3468 16.9572 10.85 16.995L11 17H13L13.15 16.995C13.6262 16.9592 14.0738 16.7542 14.412 16.4171C14.7502 16.08 14.9567 15.6331 14.994 15.157L15 15V9L14.995 8.85C14.9592 8.37383 14.7542 7.92617 14.4171 7.58797C14.08 7.24977 13.6331 7.04334 13.157 7.006L13 7ZM13 9V11H11V9H13Z" fill="currentColor"/>
</svg>
