<svg width="24" height="24" viewBox="0 0 24 24" fill="none" xmlns="http://www.w3.org/2000/svg">
<path d="M18.333 2C20.293 2 21.893 3.537 21.995 5.472L22 5.667V18.333C22 20.293 20.463 21.893 18.528 21.995L18.333 22H5.667C4.72818 22 3.82509 21.64 3.1438 20.9941C2.46252 20.3481 2.05492 19.4655 2.005 18.528L2 18.333V5.667C2 3.707 3.537 2.107 5.472 2.005L5.667 2H18.333ZM13 7H11L10.85 7.005C10.3738 7.04078 9.92617 7.24576 9.58797 7.58286C9.24977 7.91996 9.04334 8.36695 9.006 8.843L9 9V11L9.005 11.15C9.023 11.386 9.082 11.61 9.175 11.817L9.25 11.969L9.268 11.999L9.25 12.031C9.117 12.271 9.032 12.54 9.007 12.826L9 13V15L9.005 15.15C9.04078 15.6262 9.24576 16.0738 9.58286 16.412C9.91996 16.7502 10.3669 16.9567 10.843 16.994L11 17H13L13.15 16.995C13.6262 16.9592 14.0738 16.7542 14.412 16.4171C14.7502 16.08 14.9567 15.6331 14.994 15.157L15 15V13L14.995 12.85C14.9775 12.6195 14.92 12.3938 14.825 12.183L14.75 12.031L14.731 11.999L14.751 11.969C14.8862 11.7238 14.9686 11.453 14.993 11.174L15 11V9L14.995 8.85C14.9592 8.37383 14.7542 7.92617 14.4171 7.58797C14.08 7.24977 13.6331 7.04334 13.157 7.006L13 7ZM13 13V15H11V13H13ZM13 9V11H11V9H13Z" fill="currentColor"/>
</svg>
