<svg width="24" height="24" viewBox="0 0 24 24" fill="none" xmlns="http://www.w3.org/2000/svg">
<path d="M19 2C19.7956 2 20.5587 2.31607 21.1213 2.87868C21.6839 3.44129 22 4.20435 22 5V19C22 19.7956 21.6839 20.5587 21.1213 21.1213C20.5587 21.6839 19.7956 22 19 22H5C4.20435 22 3.44129 21.6839 2.87868 21.1213C2.31607 20.5587 2 19.7956 2 19V5C2 4.20435 2.31607 3.44129 2.87868 2.87868C3.44129 2.31607 4.20435 2 5 2H19ZM12 7.5C11.7348 7.5 11.4804 7.60536 11.2929 7.79289C11.1054 7.98043 11 8.23478 11 8.5V10.131L9.555 9.168L9.454 9.108C9.22635 8.98944 8.96183 8.96296 8.71519 9.03403C8.46856 9.1051 8.25869 9.26829 8.12904 9.48981C7.99939 9.71134 7.95989 9.97423 8.0187 10.2241C8.07752 10.4739 8.23015 10.6916 8.445 10.832L10.195 12L8.445 13.169L8.352 13.239C8.15659 13.404 8.03182 13.6376 8.00335 13.8918C7.97488 14.1459 8.04488 14.4013 8.19894 14.6055C8.35301 14.8096 8.57943 14.947 8.83166 14.9893C9.08389 15.0316 9.34274 14.9757 9.555 14.833L11 13.868V15.5L11.007 15.617C11.0371 15.8701 11.1627 16.1021 11.3582 16.2657C11.5536 16.4293 11.8042 16.5121 12.0586 16.4972C12.313 16.4822 12.5522 16.3707 12.7272 16.1854C12.9021 16 12.9997 15.7549 13 15.5V13.869L14.445 14.832L14.546 14.892C14.7737 15.0106 15.0382 15.037 15.2848 14.966C15.5314 14.8949 15.7413 14.7317 15.871 14.5102C16.0006 14.2887 16.0401 14.0258 15.9813 13.7759C15.9225 13.5261 15.7699 13.3084 15.555 13.168L13.803 11.999L15.555 10.832L15.648 10.762C15.8434 10.597 15.9682 10.3634 15.9966 10.1092C16.0251 9.85508 15.9551 9.59967 15.8011 9.39553C15.647 9.19139 15.4206 9.05404 15.1683 9.01172C14.9161 8.9694 14.6573 9.02533 14.445 9.168L13 10.13V8.5L12.993 8.383C12.9643 8.13975 12.8474 7.91547 12.6644 7.75272C12.4813 7.58996 12.2449 7.50003 12 7.5Z" fill="currentColor"/>
</svg>
