<svg width="24" height="24" viewBox="0 0 24 24" fill="none" xmlns="http://www.w3.org/2000/svg">
<path d="M10 8H13C13.2652 8 13.5196 8.10536 13.7071 8.29289C13.8946 8.48043 14 8.73478 14 9V11C14 11.2652 13.8946 11.5196 13.7071 11.7071C13.5196 11.8946 13.2652 12 13 12H11C10.7348 12 10.4804 12.1054 10.2929 12.2929C10.1054 12.4804 10 12.7348 10 13V15C10 15.2652 10.1054 15.5196 10.2929 15.7071C10.4804 15.8946 10.7348 16 11 16H14M12 3C19.2 3 21 4.8 21 12C21 19.2 19.2 21 12 21C4.8 21 3 19.2 3 12C3 4.8 4.8 3 12 3Z" stroke="currentColor" stroke-width="1.5" stroke-linecap="round" stroke-linejoin="round"/>
</svg>
