<svg width="24" height="24" viewBox="0 0 24 24" fill="none" xmlns="http://www.w3.org/2000/svg">
<path d="M12 2L12.642 2.005L13.258 2.022L13.557 2.035L14.136 2.069L14.689 2.115C19.376 2.57 21.339 4.448 21.855 9.021L21.885 9.311L21.931 9.864L21.972 10.591L21.978 10.741L21.995 11.358L22 12L21.995 12.642L21.978 13.258L21.965 13.557L21.931 14.136L21.885 14.689C21.43 19.376 19.552 21.339 14.979 21.855L14.689 21.885L14.136 21.931L13.409 21.972L13.259 21.978L12.642 21.995L12 22L11.358 21.995L10.742 21.978L10.443 21.965L9.86398 21.931L9.31098 21.885C4.62398 21.43 2.66098 19.552 2.14498 14.979L2.11498 14.689L2.06898 14.136L2.02798 13.409L2.02198 13.259L2.00498 12.642L2.00098 12.324V11.676L2.00498 11.358L2.02198 10.742L2.03498 10.443L2.06898 9.864L2.11498 9.311C2.56998 4.624 4.44798 2.661 9.02098 2.145L9.31098 2.115L9.86398 2.069L10.591 2.028L10.741 2.022L11.358 2.005C11.568 2.002 11.782 2 12 2ZM14 7H9.99998C9.75504 7.00003 9.51864 7.08996 9.3356 7.25272C9.15257 7.41547 9.03563 7.63975 9.00698 7.883L8.99998 8V12C9.00001 12.2449 9.08993 12.4813 9.25269 12.6644C9.41545 12.8474 9.63973 12.9643 9.88298 12.993L9.99998 13H13V15H11L10.993 14.883C10.9629 14.6299 10.8373 14.3979 10.6418 14.2343C10.4464 14.0707 10.1958 13.9879 9.94137 14.0028C9.68693 14.0178 9.44779 14.1293 9.27282 14.3146C9.09786 14.5 9.00026 14.7451 8.99998 15C8.99982 15.5046 9.19038 15.9906 9.53347 16.3605C9.87656 16.7305 10.3468 16.9572 10.85 16.995L11 17H13C13.5046 17.0002 13.9905 16.8096 14.3605 16.4665C14.7305 16.1234 14.9571 15.6532 14.995 15.15L15 15V13C15.0001 12.4954 14.8096 12.0094 14.4665 11.6395C14.1234 11.2695 13.6531 11.0428 13.15 11.005L13 11H11V9H14C14.2449 8.99997 14.4813 8.91004 14.6643 8.74728C14.8474 8.58453 14.9643 8.36025 14.993 8.117L15 8C14.9999 7.75507 14.91 7.51866 14.7473 7.33563C14.5845 7.15259 14.3602 7.03566 14.117 7.007L14 7Z" fill="currentColor"/>
</svg>
