<svg width="24" height="24" viewBox="0 0 24 24" fill="none" xmlns="http://www.w3.org/2000/svg">
<path d="M19 2C19.7956 2 20.5587 2.31607 21.1213 2.87868C21.6839 3.44129 22 4.20435 22 5V19C22 19.7956 21.6839 20.5587 21.1213 21.1213C20.5587 21.6839 19.7956 22 19 22H5C4.20435 22 3.44129 21.6839 2.87868 21.1213C2.31607 20.5587 2 19.7956 2 19V5C2 4.20435 2.31607 3.44129 2.87868 2.87868C3.44129 2.31607 4.20435 2 5 2H19ZM16.707 8.293C16.5195 8.10553 16.2652 8.00021 16 8.00021C15.7348 8.00021 15.4805 8.10553 15.293 8.293L12.293 11.293L12.21 11.387C12.0607 11.5794 11.9868 11.8197 12.0021 12.0627C12.0174 12.3057 12.1208 12.5348 12.293 12.707L15.293 15.707L15.387 15.79C15.5794 15.9393 15.8197 16.0132 16.0627 15.9979C16.3057 15.9826 16.5348 15.8792 16.707 15.707L16.79 15.613C16.9393 15.4206 17.0132 15.1803 16.9979 14.9373C16.9826 14.6943 16.8792 14.4652 16.707 14.293L14.415 12L16.707 9.707L16.79 9.613C16.9393 9.4206 17.0132 9.18035 16.9979 8.93732C16.9826 8.69429 16.8792 8.46519 16.707 8.293ZM11.707 8.293C11.5195 8.10553 11.2652 8.00021 11 8.00021C10.7348 8.00021 10.4805 8.10553 10.293 8.293L7.293 11.293L7.21 11.387C7.06075 11.5794 6.98683 11.8197 7.00211 12.0627C7.01739 12.3057 7.12082 12.5348 7.293 12.707L10.293 15.707L10.387 15.79C10.5794 15.9393 10.8197 16.0132 11.0627 15.9979C11.3057 15.9826 11.5348 15.8792 11.707 15.707L11.79 15.613C11.9393 15.4206 12.0132 15.1803 11.9979 14.9373C11.9826 14.6943 11.8792 14.4652 11.707 14.293L9.415 12L11.707 9.707L11.79 9.613C11.9393 9.4206 12.0132 9.18035 11.9979 8.93732C11.9826 8.69429 11.8792 8.46519 11.707 8.293Z" fill="currentColor"/>
</svg>
