<svg width="24" height="24" viewBox="0 0 24 24" fill="none" xmlns="http://www.w3.org/2000/svg">
<path d="M18.333 2C20.293 2 21.893 3.537 21.995 5.472L22 5.667V18.333C22 20.293 20.463 21.893 18.528 21.995L18.333 22H5.667C4.72818 22 3.82509 21.64 3.1438 20.9941C2.46252 20.3481 2.05492 19.4655 2.005 18.528L2 18.333V5.667C2 3.707 3.537 2.107 5.472 2.005L5.667 2H18.333ZM15.25 8H14L13.85 8.005C13.3738 8.04078 12.9262 8.24576 12.588 8.58286C12.2498 8.91996 12.0433 9.36695 12.006 9.843L12 10V14L12.005 14.15C12.0408 14.6262 12.2458 15.0738 12.5829 15.412C12.92 15.7502 13.3669 15.9567 13.843 15.994L14 16H15L15.15 15.995C15.6262 15.9592 16.0738 15.7542 16.412 15.4171C16.7502 15.08 16.9567 14.6331 16.994 14.157L17 14V13L16.995 12.85C16.9592 12.3738 16.7542 11.9262 16.4171 11.588C16.08 11.2498 15.6331 11.0433 15.157 11.006L15 11H14V10H15.032L15.058 10.087C15.1371 10.3091 15.2922 10.4962 15.4959 10.615C15.6995 10.7339 15.9386 10.777 16.171 10.7367C16.4033 10.6963 16.6139 10.5752 16.7656 10.3947C16.9173 10.2141 17.0003 9.98581 17 9.75C17 9.31081 16.8348 8.88768 16.5373 8.56461C16.2398 8.24154 15.8317 8.04214 15.394 8.006L15.25 8ZM10 8H8L7.883 8.007C7.65978 8.03332 7.45194 8.13408 7.29301 8.29301C7.13408 8.45194 7.03332 8.65978 7.007 8.883L7 9V15L7.007 15.117C7.03332 15.3402 7.13408 15.5481 7.29301 15.707C7.45194 15.8659 7.65978 15.9667 7.883 15.993L8 16L8.117 15.993C8.34022 15.9667 8.54806 15.8659 8.70699 15.707C8.86592 15.5481 8.96668 15.3402 8.993 15.117L9 15V13H10L10.117 12.993C10.36 12.9641 10.5841 12.847 10.7466 12.664C10.9091 12.481 10.9989 12.2448 10.9989 12C10.9989 11.7552 10.9091 11.519 10.7466 11.336C10.5841 11.153 10.36 11.0359 10.117 11.007L10 11H9V10H10L10.117 9.993C10.36 9.96409 10.5841 9.84704 10.7466 9.66403C10.9091 9.48103 10.9989 9.24476 10.9989 9C10.9989 8.75524 10.9091 8.51897 10.7466 8.33597C10.5841 8.15296 10.36 8.03591 10.117 8.007L10 8ZM15 13V14H14V13H15Z" fill="currentColor"/>
</svg>
