<svg width="24" height="24" viewBox="0 0 24 24" fill="none" xmlns="http://www.w3.org/2000/svg">
<path d="M12 2C11.782 2 11.568 2.002 11.358 2.005L10.742 2.022L10.443 2.035L9.864 2.069L9.311 2.115C4.526 2.579 2.579 4.526 2.115 9.311L2.069 9.864L2.035 10.443C2.03 10.541 2.025 10.641 2.022 10.742L2.005 11.358L2.001 11.676L2 12C2 12.218 2.002 12.432 2.005 12.642L2.022 13.258L2.035 13.557L2.069 14.136L2.115 14.689C2.579 19.474 4.526 21.421 9.311 21.885L9.864 21.931L10.443 21.965C10.541 21.97 10.641 21.975 10.742 21.978L11.358 21.995L12 22L12.642 21.995L13.258 21.978L13.557 21.965L14.136 21.931L14.689 21.885C19.474 21.421 21.421 19.474 21.885 14.689L21.931 14.136L21.965 13.557C21.97 13.459 21.975 13.359 21.978 13.258L21.995 12.642L22 12L21.995 11.358L21.978 10.742L21.965 10.443L21.931 9.864L21.885 9.311C21.421 4.526 19.474 2.579 14.689 2.115L14.136 2.069L13.557 2.035C13.4574 2.03014 13.3577 2.0258 13.258 2.022L12.642 2.005L12.324 2.001L12 2ZM11.852 7.011L11.91 7.004L12 7L12.075 7.003L12.201 7.02L12.312 7.05L12.423 7.094L12.521 7.146L12.625 7.22L12.707 7.293L16.707 11.293C16.8863 11.473 16.9905 11.7144 16.9982 11.9684C17.006 12.2223 16.9168 12.4697 16.7488 12.6603C16.5807 12.8508 16.3464 12.9703 16.0935 12.9944C15.8406 13.0185 15.588 12.9454 15.387 12.79L15.293 12.707L13 10.415V16C12.9997 16.2549 12.9021 16.5 12.7272 16.6854C12.5522 16.8707 12.313 16.9822 12.0586 16.9972C11.8042 17.0121 11.5536 16.9293 11.3582 16.7657C11.1627 16.6021 11.0371 16.3701 11.007 16.117L11 16V10.415L8.707 12.707C8.53481 12.8792 8.30571 12.9826 8.06268 12.9979C7.81965 13.0132 7.5794 12.9393 7.387 12.79L7.293 12.707C7.12082 12.5348 7.01739 12.3057 7.00211 12.0627C6.98683 11.8197 7.06075 11.5794 7.21 11.387L7.293 11.293L11.293 7.293C11.3277 7.25773 11.3651 7.22529 11.405 7.196L11.515 7.125L11.629 7.071L11.734 7.036L11.852 7.011Z" fill="currentColor"/>
</svg>
