<svg width="24" height="24" viewBox="0 0 24 24" fill="none" xmlns="http://www.w3.org/2000/svg">
<path d="M18.333 2C20.293 2 21.893 3.537 21.995 5.472L22 5.667V18.333C22 20.293 20.463 21.893 18.528 21.995L18.333 22H5.667C4.72818 22 3.82509 21.64 3.1438 20.9941C2.46252 20.3481 2.05492 19.4655 2.005 18.528L2 18.333V5.667C2 3.707 3.537 2.107 5.472 2.005L5.667 2H18.333ZM14.5 8H13.5L13.356 8.007C12.9848 8.0428 12.6403 8.21555 12.3896 8.49158C12.1389 8.76761 12 9.12712 12 9.5C12 9.76522 12.1054 10.0196 12.2929 10.2071C12.4804 10.3946 12.7348 10.5 13 10.5L13.117 10.493C13.2645 10.4756 13.4063 10.4256 13.5321 10.3465C13.6578 10.2675 13.7644 10.1614 13.844 10.036L13.864 10H14.5L14.59 10.008C14.7053 10.0289 14.8096 10.0896 14.8847 10.1795C14.9598 10.2694 15.0009 10.3828 15.0009 10.5C15.0009 10.6172 14.9598 10.7306 14.8847 10.8205C14.8096 10.9104 14.7053 10.9711 14.59 10.992L14.5 11H14L13.867 11.007C12.711 11.131 12.711 12.869 13.867 12.993L14 13H14.5L14.59 13.008C14.7051 13.0291 14.8092 13.0898 14.8841 13.1797C14.959 13.2696 15 13.383 15 13.5L14.992 13.59C14.9709 13.7051 14.9102 13.8092 14.8203 13.8841C14.7304 13.959 14.617 14 14.5 14H13.865L13.845 13.964C13.7291 13.7808 13.5568 13.6403 13.3541 13.5635C13.1513 13.4868 12.9292 13.478 12.721 13.5385C12.5129 13.5989 12.33 13.7254 12.1999 13.8988C12.0699 14.0723 11.9997 14.2832 12 14.5C12 14.8978 12.158 15.2794 12.4393 15.5607C12.7206 15.842 13.1022 16 13.5 16H14.5L14.664 15.995C15.2974 15.9534 15.8912 15.6724 16.325 15.209C16.7588 14.7457 17.0001 14.1347 17 13.5L16.995 13.336C16.9645 12.8621 16.799 12.4068 16.518 12.024L16.499 12L16.625 11.817C16.8597 11.4384 16.9889 11.0039 16.9993 10.5585C17.0098 10.1132 16.901 9.67316 16.6843 9.28395C16.4677 8.89474 16.1509 8.57049 15.7669 8.34475C15.3828 8.11902 14.9455 8 14.5 8ZM10 8H8L7.883 8.007C7.63975 8.03566 7.41547 8.15259 7.25272 8.33563C7.08996 8.51866 7.00003 8.75507 7 9V15L7.007 15.117C7.03566 15.3603 7.15259 15.5845 7.33563 15.7473C7.51866 15.91 7.75507 16 8 16L8.117 15.993C8.36025 15.9643 8.58453 15.8474 8.74728 15.6644C8.91004 15.4813 8.99997 15.2449 9 15V13H10L10.117 12.993C10.3701 12.9629 10.6021 12.8373 10.7657 12.6418C10.9293 12.4464 11.0121 12.1958 10.9972 11.9414C10.9822 11.687 10.8707 11.4478 10.6854 11.2728C10.5 11.0979 10.2549 11.0003 10 11H9V10H10L10.117 9.993C10.3701 9.9629 10.6021 9.83729 10.7657 9.64183C10.9293 9.44638 11.0121 9.19584 10.9972 8.94139C10.9822 8.68695 10.8707 8.44782 10.6854 8.27285C10.5 8.09788 10.2549 8.00028 10 8Z" fill="currentColor"/>
</svg>
