<svg width="24" height="24" viewBox="0 0 24 24" fill="none" xmlns="http://www.w3.org/2000/svg">
<path d="M12 2L12.642 2.005L13.258 2.022L13.557 2.035L14.136 2.069L14.689 2.115C19.376 2.57 21.339 4.448 21.855 9.021L21.885 9.311L21.931 9.864L21.972 10.591L21.978 10.741L21.995 11.358L22 12L21.995 12.642L21.978 13.258L21.965 13.557L21.931 14.136L21.885 14.689C21.43 19.376 19.552 21.339 14.979 21.855L14.689 21.885L14.136 21.931L13.409 21.972L13.259 21.978L12.642 21.995L12 22L11.358 21.995L10.742 21.978L10.443 21.965L9.86398 21.931L9.31098 21.885C4.62398 21.43 2.66098 19.552 2.14498 14.979L2.11498 14.689L2.06898 14.136L2.02798 13.409L2.02198 13.259L2.00498 12.642L2.00098 12.324V11.676L2.00498 11.358L2.02198 10.742L2.03498 10.443L2.06898 9.864L2.11498 9.311C2.56998 4.624 4.44798 2.661 9.02098 2.145L9.31098 2.115L9.86398 2.069L10.591 2.028L10.741 2.022L11.358 2.005C11.568 2.002 11.782 2 12 2ZM13 7H11L10.85 7.005C10.3738 7.04078 9.92615 7.24576 9.58795 7.58286C9.24974 7.91996 9.04331 8.36695 9.00598 8.843L8.99998 9V15L9.00498 15.15C9.04076 15.6262 9.24573 16.0738 9.58284 16.412C9.91994 16.7502 10.3669 16.9567 10.843 16.994L11 17H13L13.15 16.995C13.6261 16.9592 14.0738 16.7542 14.412 16.4171C14.7502 16.08 14.9566 15.6331 14.994 15.157L15 15V13L14.995 12.85C14.9592 12.3738 14.7542 11.9262 14.4171 11.588C14.08 11.2498 13.633 11.0433 13.157 11.006L13 11H11V9H13L13.007 9.117C13.0371 9.3701 13.1627 9.60215 13.3581 9.76574C13.5536 9.92933 13.8041 10.0121 14.0586 9.99717C14.313 9.98224 14.5522 9.8707 14.7271 9.68537C14.9021 9.50003 14.9997 9.25488 15 9C15.0001 8.49542 14.8096 8.00943 14.4665 7.63945C14.1234 7.26947 13.6531 7.04284 13.15 7.005L13 7ZM13 13V15H11V13H13Z" fill="currentColor"/>
</svg>
