<svg width="24" height="24" viewBox="0 0 24 24" fill="none" xmlns="http://www.w3.org/2000/svg">
<path d="M12 12C12.5304 12 13.0391 12.2107 13.4142 12.5858C13.7893 12.9609 14 13.4696 14 14C14 14.5304 13.7893 15.0391 13.4142 15.4142C13.0391 15.7893 12.5304 16 12 16H10V8H12C12.5304 8 13.0391 8.21071 13.4142 8.58579C13.7893 8.96086 14 9.46957 14 10C14 10.5304 13.7893 11.0391 13.4142 11.4142C13.0391 11.7893 12.5304 12 12 12ZM12 12H10M12 3C19.2 3 21 4.8 21 12C21 19.2 19.2 21 12 21C4.8 21 3 19.2 3 12C3 4.8 4.8 3 12 3Z" stroke="currentColor" stroke-width="1.5" stroke-linecap="round" stroke-linejoin="round"/>
</svg>
