<svg width="24" height="24" viewBox="0 0 24 24" fill="none" xmlns="http://www.w3.org/2000/svg">
<path d="M13 14.25C13 14.664 13.336 15 13.75 15H15.25C15.4489 15 15.6397 14.921 15.7803 14.7803C15.921 14.6397 16 14.4489 16 14.25V9.75C16 9.55109 15.921 9.36032 15.7803 9.21967C15.6397 9.07902 15.4489 9 15.25 9H13.75C13.5511 9 13.3603 9.07902 13.2197 9.21967C13.079 9.36032 13 9.55109 13 9.75V11.25C13 11.664 13.336 12 13.75 12H16M8 12H10M10 9H8V15M3 5C3 4.46957 3.21071 3.96086 3.58579 3.58579C3.96086 3.21071 4.46957 3 5 3H19C19.5304 3 20.0391 3.21071 20.4142 3.58579C20.7893 3.96086 21 4.46957 21 5V19C21 19.5304 20.7893 20.0391 20.4142 20.4142C20.0391 20.7893 19.5304 21 19 21H5C4.46957 21 3.96086 20.7893 3.58579 20.4142C3.21071 20.0391 3 19.5304 3 19V5Z" stroke="currentColor" stroke-width="1.5" stroke-linecap="round" stroke-linejoin="round"/>
</svg>
