<svg width="24" height="24" viewBox="0 0 24 24" fill="none" xmlns="http://www.w3.org/2000/svg">
<path d="M9 15L15 9M8.5 9.5C8.5 9.76522 8.60536 10.0196 8.79289 10.2071C8.98043 10.3946 9.23478 10.5 9.5 10.5C9.76522 10.5 10.0196 10.3946 10.2071 10.2071C10.3946 10.0196 10.5 9.76522 10.5 9.5C10.5 9.23478 10.3946 8.98043 10.2071 8.79289C10.0196 8.60536 9.76522 8.5 9.5 8.5C9.23478 8.5 8.98043 8.60536 8.79289 8.79289C8.60536 8.98043 8.5 9.23478 8.5 9.5ZM13.5 14.5C13.5 14.7652 13.6054 15.0196 13.7929 15.2071C13.9804 15.3946 14.2348 15.5 14.5 15.5C14.7652 15.5 15.0196 15.3946 15.2071 15.2071C15.3946 15.0196 15.5 14.7652 15.5 14.5C15.5 14.2348 15.3946 13.9804 15.2071 13.7929C15.0196 13.6054 14.7652 13.5 14.5 13.5C14.2348 13.5 13.9804 13.6054 13.7929 13.7929C13.6054 13.9804 13.5 14.2348 13.5 14.5ZM3 5C3 4.46957 3.21071 3.96086 3.58579 3.58579C3.96086 3.21071 4.46957 3 5 3H19C19.5304 3 20.0391 3.21071 20.4142 3.58579C20.7893 3.96086 21 4.46957 21 5V19C21 19.5304 20.7893 20.0391 20.4142 20.4142C20.0391 20.7893 19.5304 21 19 21H5C4.46957 21 3.96086 20.7893 3.58579 20.4142C3.21071 20.0391 3 19.5304 3 19V5Z" stroke="currentColor" stroke-width="1.5" stroke-linecap="round" stroke-linejoin="round"/>
</svg>
