<svg width="24" height="24" viewBox="0 0 24 24" fill="none" xmlns="http://www.w3.org/2000/svg">
<path d="M12 2L12.324 2.001L12.642 2.005L13.258 2.022L13.557 2.035L14.136 2.069L14.689 2.115C19.474 2.579 21.421 4.526 21.885 9.311L21.931 9.864L21.965 10.443C21.97 10.541 21.975 10.641 21.978 10.742L21.995 11.358L22 12L21.995 12.642L21.978 13.258L21.965 13.557L21.931 14.136L21.885 14.689C21.421 19.474 19.474 21.421 14.689 21.885L14.136 21.931L13.557 21.965C13.459 21.97 13.359 21.975 13.258 21.978L12.642 21.995L12 22L11.358 21.995L10.742 21.978L10.443 21.965L9.864 21.931L9.311 21.885C4.526 21.421 2.579 19.474 2.115 14.689L2.069 14.136L2.035 13.557C2.03014 13.4574 2.0258 13.3577 2.022 13.258L2.005 12.642C2.002 12.432 2 12.218 2 12L2.001 11.676L2.005 11.358L2.022 10.742L2.035 10.443L2.069 9.864L2.115 9.311C2.579 4.526 4.526 2.579 9.311 2.115L9.864 2.069L10.443 2.035C10.541 2.03 10.641 2.025 10.742 2.022L11.358 2.005C11.568 2.002 11.782 2 12 2ZM13.707 8.293C13.5195 8.10553 13.2652 8.00021 13 8.00021C12.7348 8.00021 12.4805 8.10553 12.293 8.293L9.293 11.293L9.21 11.387C9.06075 11.5794 8.98683 11.8197 9.00211 12.0627C9.01739 12.3057 9.12082 12.5348 9.293 12.707L12.293 15.707L12.387 15.79C12.5794 15.9393 12.8197 16.0132 13.0627 15.9979C13.3057 15.9826 13.5348 15.8792 13.707 15.707L13.79 15.613C13.9393 15.4206 14.0132 15.1803 13.9979 14.9373C13.9826 14.6943 13.8792 14.4652 13.707 14.293L11.415 12L13.707 9.707L13.79 9.613C13.9393 9.4206 14.0132 9.18035 13.9979 8.93732C13.9826 8.69429 13.8792 8.46519 13.707 8.293Z" fill="currentColor"/>
</svg>
