<svg width="24" height="24" viewBox="0 0 24 24" fill="none" xmlns="http://www.w3.org/2000/svg">
<path d="M12 2C11.782 2 11.568 2.002 11.358 2.005L10.742 2.022L10.443 2.035L9.864 2.069L9.311 2.115C4.526 2.579 2.579 4.526 2.115 9.311L2.069 9.864L2.035 10.443C2.03 10.541 2.025 10.641 2.022 10.742L2.005 11.358L2.001 11.676L2 12C2 12.218 2.002 12.432 2.005 12.642L2.022 13.258L2.035 13.557L2.069 14.136L2.115 14.689C2.579 19.474 4.526 21.421 9.311 21.885L9.864 21.931L10.443 21.965C10.541 21.97 10.641 21.975 10.742 21.978L11.358 21.995L12 22L12.642 21.995L13.258 21.978L13.557 21.965L14.136 21.931L14.689 21.885C19.474 21.421 21.421 19.474 21.885 14.689L21.931 14.136L21.965 13.557C21.97 13.459 21.975 13.359 21.978 13.258L21.995 12.642L22 12L21.995 11.358L21.978 10.742L21.965 10.443L21.931 9.864L21.885 9.311C21.421 4.526 19.474 2.579 14.689 2.115L14.136 2.069L13.557 2.035C13.4574 2.03014 13.3577 2.0258 13.258 2.022L12.642 2.005L12.324 2.001L12 2ZM12.613 7.21L12.707 7.293L16.707 11.293C16.7423 11.3277 16.7747 11.3651 16.804 11.405L16.875 11.515L16.929 11.629L16.964 11.734L16.994 11.882L17 12L16.997 12.075L16.98 12.201L16.95 12.312L16.906 12.423L16.854 12.521L16.78 12.625L16.707 12.707L12.707 16.707C12.527 16.8863 12.2856 16.9905 12.0316 16.9982C11.7777 17.006 11.5303 16.9168 11.3397 16.7488C11.1492 16.5807 11.0297 16.3464 11.0056 16.0935C10.9815 15.8406 11.0546 15.588 11.21 15.387L11.293 15.293L13.585 13H8C7.74512 12.9997 7.49997 12.9021 7.31463 12.7272C7.1293 12.5522 7.01777 12.313 7.00283 12.0586C6.98789 11.8042 7.07067 11.5536 7.23426 11.3582C7.39786 11.1627 7.6299 11.0371 7.883 11.007L8 11H13.585L11.293 8.707C11.1208 8.53481 11.0174 8.30571 11.0021 8.06268C10.9868 7.81965 11.0607 7.5794 11.21 7.387L11.293 7.293C11.4652 7.12082 11.6943 7.01739 11.9373 7.00211C12.1803 6.98683 12.4206 7.06075 12.613 7.21Z" fill="currentColor"/>
</svg>
