<svg width="24" height="24" viewBox="0 0 24 24" fill="none" xmlns="http://www.w3.org/2000/svg">
<path d="M12 2C11.782 2 11.568 2.002 11.358 2.005L10.742 2.022L10.443 2.035L9.864 2.069L9.311 2.115C4.526 2.579 2.579 4.526 2.115 9.311L2.069 9.864L2.035 10.443C2.03 10.541 2.025 10.641 2.022 10.742L2.005 11.358L2.001 11.676L2 12C2 12.218 2.002 12.432 2.005 12.642L2.022 13.258L2.035 13.557L2.069 14.136L2.115 14.689C2.579 19.474 4.526 21.421 9.311 21.885L9.864 21.931L10.443 21.965C10.541 21.97 10.641 21.975 10.742 21.978L11.358 21.995L12 22L12.642 21.995L13.258 21.978L13.557 21.965L14.136 21.931L14.689 21.885C19.474 21.421 21.421 19.474 21.885 14.689L21.931 14.136L21.965 13.557C21.97 13.459 21.975 13.359 21.978 13.258L21.995 12.642L22 12L21.995 11.358L21.978 10.742L21.965 10.443L21.931 9.864L21.885 9.311C21.421 4.526 19.474 2.579 14.689 2.115L14.136 2.069L13.557 2.035C13.4574 2.03014 13.3577 2.0258 13.258 2.022L12.642 2.005L12.324 2.001L12 2ZM14.293 8.293C14.473 8.11365 14.7144 8.00953 14.9684 8.00177C15.2223 7.99402 15.4697 8.08321 15.6603 8.25125C15.8508 8.41928 15.9703 8.65355 15.9944 8.90647C16.0185 9.1594 15.9454 9.41201 15.79 9.613L15.707 9.707L13.415 12L15.707 14.293C15.8792 14.4652 15.9826 14.6943 15.9979 14.9373C16.0132 15.1803 15.9393 15.4206 15.79 15.613L15.707 15.707C15.5348 15.8792 15.3057 15.9826 15.0627 15.9979C14.8197 16.0132 14.5794 15.9393 14.387 15.79L14.293 15.707L11.293 12.707C11.1208 12.5348 11.0174 12.3057 11.0021 12.0627C10.9868 11.8197 11.0607 11.5794 11.21 11.387L11.293 11.293L14.293 8.293ZM10.293 8.293C10.473 8.11365 10.7144 8.00953 10.9684 8.00177C11.2223 7.99402 11.4697 8.08321 11.6603 8.25125C11.8508 8.41928 11.9703 8.65355 11.9944 8.90647C12.0185 9.1594 11.9454 9.41201 11.79 9.613L11.707 9.707L9.415 12L11.707 14.293C11.8792 14.4652 11.9826 14.6943 11.9979 14.9373C12.0132 15.1803 11.9393 15.4206 11.79 15.613L11.707 15.707C11.5348 15.8792 11.3057 15.9826 11.0627 15.9979C10.8197 16.0132 10.5794 15.9393 10.387 15.79L10.293 15.707L7.293 12.707C7.12082 12.5348 7.01739 12.3057 7.00211 12.0627C6.98683 11.8197 7.06075 11.5794 7.21 11.387L7.293 11.293L10.293 8.293Z" fill="currentColor"/>
</svg>
