<svg width="24" height="24" viewBox="0 0 24 24" fill="none" xmlns="http://www.w3.org/2000/svg">
<path d="M12 2C11.782 2 11.568 2.002 11.358 2.005L10.742 2.022L10.443 2.035L9.864 2.069L9.311 2.115C4.526 2.579 2.579 4.526 2.115 9.311L2.069 9.864L2.035 10.443C2.03 10.541 2.025 10.641 2.022 10.742L2.005 11.358L2.001 11.676L2 12C2 12.218 2.002 12.432 2.005 12.642L2.022 13.258L2.035 13.557L2.069 14.136L2.115 14.689C2.579 19.474 4.526 21.421 9.311 21.885L9.864 21.931L10.443 21.965C10.541 21.97 10.641 21.975 10.742 21.978L11.358 21.995L12 22L12.642 21.995L13.258 21.978L13.557 21.965L14.136 21.931L14.689 21.885C19.474 21.421 21.421 19.474 21.885 14.689L21.931 14.136L21.965 13.557C21.97 13.459 21.975 13.359 21.978 13.258L21.995 12.642L22 12L21.995 11.358L21.978 10.742L21.965 10.443L21.931 9.864L21.885 9.311C21.421 4.526 19.474 2.579 14.689 2.115L14.136 2.069L13.557 2.035C13.4574 2.03014 13.3577 2.0258 13.258 2.022L12.642 2.005L12.324 2.001L12 2ZM8.293 8.293C8.46519 8.12082 8.69429 8.01739 8.93732 8.00211C9.18035 7.98683 9.4206 8.06075 9.613 8.21L9.707 8.293L12.707 11.293C12.8792 11.4652 12.9826 11.6943 12.9979 11.9373C13.0132 12.1803 12.9393 12.4206 12.79 12.613L12.707 12.707L9.707 15.707C9.52704 15.8863 9.28557 15.9905 9.03162 15.9982C8.77767 16.006 8.53029 15.9168 8.33972 15.7488C8.14916 15.5807 8.02969 15.3464 8.0056 15.0935C7.98151 14.8406 8.05459 14.588 8.21 14.387L8.293 14.293L10.585 12L8.293 9.707C8.12082 9.53481 8.01739 9.30571 8.00211 9.06268C7.98683 8.81965 8.06075 8.5794 8.21 8.387L8.293 8.293ZM12.293 8.293C12.4652 8.12082 12.6943 8.01739 12.9373 8.00211C13.1803 7.98683 13.4206 8.06075 13.613 8.21L13.707 8.293L16.707 11.293C16.8792 11.4652 16.9826 11.6943 16.9979 11.9373C17.0132 12.1803 16.9393 12.4206 16.79 12.613L16.707 12.707L13.707 15.707C13.527 15.8863 13.2856 15.9905 13.0316 15.9982C12.7777 16.006 12.5303 15.9168 12.3397 15.7488C12.1492 15.5807 12.0297 15.3464 12.0056 15.0935C11.9815 14.8406 12.0546 14.588 12.21 14.387L12.293 14.293L14.585 12L12.293 9.707C12.1208 9.53481 12.0174 9.30571 12.0021 9.06268C11.9868 8.81965 12.0607 8.5794 12.21 8.387L12.293 8.293Z" fill="currentColor"/>
</svg>
