<svg width="24" height="24" viewBox="0 0 24 24" fill="none" xmlns="http://www.w3.org/2000/svg">
<path d="M12 2L12.642 2.005L13.258 2.022L13.557 2.035L14.136 2.069L14.689 2.115C19.376 2.57 21.339 4.448 21.855 9.021L21.885 9.311L21.931 9.864L21.972 10.591L21.978 10.741L21.995 11.358L22 12L21.995 12.642L21.978 13.258L21.965 13.557L21.931 14.136L21.885 14.689C21.43 19.376 19.552 21.339 14.979 21.855L14.689 21.885L14.136 21.931L13.409 21.972L13.259 21.978L12.642 21.995L12 22L11.358 21.995L10.742 21.978L10.443 21.965L9.86398 21.931L9.31098 21.885C4.62398 21.43 2.66098 19.552 2.14498 14.979L2.11498 14.689L2.06898 14.136L2.02798 13.409L2.02198 13.259L2.00498 12.642L2.00098 12.324V11.676L2.00498 11.358L2.02198 10.742L2.03498 10.443L2.06898 9.864L2.11498 9.311C2.56998 4.624 4.44798 2.661 9.02098 2.145L9.31098 2.115L9.86398 2.069L10.591 2.028L10.741 2.022L11.358 2.005C11.568 2.002 11.782 2 12 2ZM12 7C11.2043 7 10.4413 7.31607 9.87866 7.87868C9.31605 8.44129 8.99998 9.20435 8.99998 10V14C8.99998 14.7956 9.31605 15.5587 9.87866 16.1213C10.4413 16.6839 11.2043 17 12 17C12.7956 17 13.5587 16.6839 14.1213 16.1213C14.6839 15.5587 15 14.7956 15 14V10C15 9.20435 14.6839 8.44129 14.1213 7.87868C13.5587 7.31607 12.7956 7 12 7ZM12 9C12.2652 9 12.5195 9.10536 12.7071 9.29289C12.8946 9.48043 13 9.73478 13 10V14C13 14.2652 12.8946 14.5196 12.7071 14.7071C12.5195 14.8946 12.2652 15 12 15C11.7348 15 11.4804 14.8946 11.2929 14.7071C11.1053 14.5196 11 14.2652 11 14V10C11 9.73478 11.1053 9.48043 11.2929 9.29289C11.4804 9.10536 11.7348 9 12 9Z" fill="currentColor"/>
</svg>
