<svg width="24" height="24" viewBox="0 0 24 24" fill="none" xmlns="http://www.w3.org/2000/svg">
<path d="M19 2H5C4.20435 2 3.44129 2.31607 2.87868 2.87868C2.31607 3.44129 2 4.20435 2 5V19C2 19.7956 2.31607 20.5587 2.87868 21.1213C3.44129 21.6839 4.20435 22 5 22H19C19.7956 22 20.5587 21.6839 21.1213 21.1213C21.6839 20.5587 22 19.7956 22 19V5C22 4.20435 21.6839 3.44129 21.1213 2.87868C20.5587 2.31607 19.7956 2 19 2ZM9.613 8.21L9.707 8.293L12 10.585L14.293 8.293C14.473 8.11365 14.7144 8.00953 14.9684 8.00177C15.2223 7.99402 15.4697 8.08321 15.6603 8.25125C15.8508 8.41928 15.9703 8.65355 15.9944 8.90647C16.0185 9.1594 15.9454 9.41201 15.79 9.613L15.707 9.707L13.415 12L15.707 14.293C15.8863 14.473 15.9905 14.7144 15.9982 14.9684C16.006 15.2223 15.9168 15.4697 15.7488 15.6603C15.5807 15.8508 15.3464 15.9703 15.0935 15.9944C14.8406 16.0185 14.588 15.9454 14.387 15.79L14.293 15.707L12 13.415L9.707 15.707C9.52704 15.8863 9.28557 15.9905 9.03162 15.9982C8.77767 16.006 8.53029 15.9168 8.33972 15.7488C8.14916 15.5807 8.02969 15.3464 8.0056 15.0935C7.98151 14.8406 8.05459 14.588 8.21 14.387L8.293 14.293L10.585 12L8.293 9.707C8.11365 9.52704 8.00953 9.28557 8.00177 9.03162C7.99402 8.77767 8.08321 8.53029 8.25125 8.33972C8.41928 8.14916 8.65355 8.02969 8.90647 8.0056C9.1594 7.98151 9.41201 8.05459 9.613 8.21Z" fill="currentColor"/>
</svg>
