<svg width="24" height="24" viewBox="0 0 24 24" fill="none" xmlns="http://www.w3.org/2000/svg">
<path d="M18.333 2C20.293 2 21.893 3.537 21.995 5.472L22 5.667V18.333C22 20.293 20.463 21.893 18.528 21.995L18.333 22H5.667C4.72818 22 3.82509 21.64 3.1438 20.9941C2.46252 20.3481 2.05492 19.4655 2.005 18.528L2 18.333V5.667C2 3.707 3.537 2.107 5.472 2.005L5.667 2H18.333ZM16 8H13L12.883 8.007C12.6397 8.03566 12.4155 8.15259 12.2527 8.33563C12.09 8.51866 12 8.75507 12 9L12.007 9.117C12.0357 9.36025 12.1526 9.58453 12.3356 9.74728C12.5187 9.91004 12.7551 9.99997 13 10H14.718L13.53 14.757L13.508 14.872C13.4755 15.125 13.5408 15.3809 13.6908 15.5873C13.8407 15.7937 14.0638 15.935 14.3145 15.9823C14.5652 16.0295 14.8245 15.9792 15.0393 15.8416C15.2541 15.704 15.4082 15.4895 15.47 15.242L16.97 9.242L16.991 9.132C17.0098 8.9908 16.9982 8.84721 16.957 8.71084C16.9158 8.57448 16.846 8.44849 16.7522 8.34131C16.6583 8.23413 16.5427 8.14823 16.413 8.08937C16.2832 8.0305 16.1424 8.00004 16 8ZM10 8H8L7.883 8.007C7.63975 8.03566 7.41547 8.15259 7.25272 8.33563C7.08996 8.51866 7.00003 8.75507 7 9V15L7.007 15.117C7.03566 15.3603 7.15259 15.5845 7.33563 15.7473C7.51866 15.91 7.75507 16 8 16L8.117 15.993C8.36025 15.9643 8.58453 15.8474 8.74728 15.6644C8.91004 15.4813 8.99997 15.2449 9 15V13H10L10.117 12.993C10.3701 12.9629 10.6021 12.8373 10.7657 12.6418C10.9293 12.4464 11.0121 12.1958 10.9972 11.9414C10.9822 11.687 10.8707 11.4478 10.6854 11.2728C10.5 11.0979 10.2549 11.0003 10 11H9V10H10L10.117 9.993C10.3701 9.9629 10.6021 9.83729 10.7657 9.64183C10.9293 9.44638 11.0121 9.19584 10.9972 8.94139C10.9822 8.68695 10.8707 8.44782 10.6854 8.27285C10.5 8.09788 10.2549 8.00028 10 8Z" fill="currentColor"/>
</svg>
