<svg width="24" height="24" viewBox="0 0 24 24" fill="none" xmlns="http://www.w3.org/2000/svg">
<path d="M18.333 2C20.293 2 21.893 3.537 21.995 5.472L22 5.667V18.333C22 20.293 20.463 21.893 18.528 21.995L18.333 22H5.667C4.72818 22 3.82509 21.64 3.1438 20.9941C2.46252 20.3481 2.05492 19.4655 2.005 18.528L2 18.333V5.667C2 3.707 3.537 2.107 5.472 2.005L5.667 2H18.333ZM16 8C15.7551 8.00003 15.5187 8.08996 15.3356 8.25272C15.1526 8.41547 15.0357 8.63975 15.007 8.883L15 9V11H14V9L13.993 8.883C13.9641 8.63995 13.847 8.41594 13.664 8.25341C13.481 8.09088 13.2448 8.00111 13 8.00111C12.7552 8.00111 12.519 8.09088 12.336 8.25341C12.153 8.41594 12.0359 8.63995 12.007 8.883L12 9V11L12.005 11.15C12.0408 11.6262 12.2458 12.0738 12.5829 12.412C12.92 12.7502 13.3669 12.9567 13.843 12.994L14 13H15V15L15.007 15.117C15.0359 15.36 15.153 15.5841 15.336 15.7466C15.519 15.9091 15.7552 15.9989 16 15.9989C16.2448 15.9989 16.481 15.9091 16.664 15.7466C16.847 15.5841 16.9641 15.36 16.993 15.117L17 15V9L16.993 8.883C16.9643 8.63975 16.8474 8.41547 16.6644 8.25272C16.4813 8.08996 16.2449 8.00003 16 8ZM10 8H8L7.883 8.007C7.65978 8.03332 7.45194 8.13408 7.29301 8.29301C7.13408 8.45194 7.03332 8.65978 7.007 8.883L7 9V15L7.007 15.117C7.03332 15.3402 7.13408 15.5481 7.29301 15.707C7.45194 15.8659 7.65978 15.9667 7.883 15.993L8 16L8.117 15.993C8.34022 15.9667 8.54806 15.8659 8.70699 15.707C8.86592 15.5481 8.96668 15.3402 8.993 15.117L9 15V13H10L10.117 12.993C10.36 12.9641 10.5841 12.847 10.7466 12.664C10.9091 12.481 10.9989 12.2448 10.9989 12C10.9989 11.7552 10.9091 11.519 10.7466 11.336C10.5841 11.153 10.36 11.0359 10.117 11.007L10 11H9V10H10L10.117 9.993C10.36 9.96409 10.5841 9.84704 10.7466 9.66403C10.9091 9.48103 10.9989 9.24476 10.9989 9C10.9989 8.75524 10.9091 8.51897 10.7466 8.33597C10.5841 8.15296 10.36 8.03591 10.117 8.007L10 8Z" fill="currentColor"/>
</svg>
