<svg width="24" height="24" viewBox="0 0 24 24" fill="none" xmlns="http://www.w3.org/2000/svg">
<path d="M12 2L12.642 2.005L13.258 2.022L13.557 2.035L14.136 2.069L14.689 2.115C19.376 2.57 21.339 4.448 21.855 9.021L21.885 9.311L21.931 9.864L21.972 10.591L21.978 10.741L21.995 11.358L22 12L21.995 12.642L21.978 13.258L21.965 13.557L21.931 14.136L21.885 14.689C21.43 19.376 19.552 21.339 14.979 21.855L14.689 21.885L14.136 21.931L13.409 21.972L13.259 21.978L12.642 21.995L12 22L11.358 21.995L10.742 21.978L10.443 21.965L9.86398 21.931L9.31098 21.885C4.62398 21.43 2.66098 19.552 2.14498 14.979L2.11498 14.689L2.06898 14.136L2.02798 13.409L2.02198 13.259L2.00498 12.642L2.00098 12.324V11.676L2.00498 11.358L2.02198 10.742L2.03498 10.443L2.06898 9.864L2.11498 9.311C2.56998 4.624 4.44798 2.661 9.02098 2.145L9.31098 2.115L9.86398 2.069L10.591 2.028L10.741 2.022L11.358 2.005C11.568 2.002 11.782 2 12 2ZM12.994 7.886C12.911 7.109 11.986 6.726 11.377 7.216L11.293 7.293L9.29298 9.293L9.20998 9.387C9.07391 9.56237 9.00006 9.77803 9.00006 10C9.00006 10.222 9.07391 10.4376 9.20998 10.613L9.29298 10.707L9.38698 10.79C9.56235 10.9261 9.77801 10.9999 9.99998 10.9999C10.2219 10.9999 10.4376 10.9261 10.613 10.79L10.707 10.707L11 10.414V16L11.007 16.117C11.0359 16.3601 11.1529 16.5841 11.3359 16.7466C11.519 16.9091 11.7552 16.9989 12 16.9989C12.2447 16.9989 12.481 16.9091 12.664 16.7466C12.847 16.5841 12.9641 16.3601 12.993 16.117L13 16V8L12.994 7.886Z" fill="currentColor"/>
</svg>
