<svg width="24" height="24" viewBox="0 0 24 24" fill="none" xmlns="http://www.w3.org/2000/svg">
<path fill-rule="evenodd" clip-rule="evenodd" d="M5.33033 5.33033C4.21884 6.44182 3.75 8.39464 3.75 12C3.75 15.6054 4.21884 17.5582 5.33033 18.6697C6.44182 19.7812 8.39464 20.25 12 20.25C15.6054 20.25 17.5582 19.7812 18.6697 18.6697C19.7812 17.5582 20.25 15.6054 20.25 12C20.25 8.39464 19.7812 6.44182 18.6697 5.33033C17.5582 4.21884 15.6054 3.75 12 3.75C8.39464 3.75 6.44182 4.21884 5.33033 5.33033ZM4.26967 4.26967C5.85818 2.68116 8.40536 2.25 12 2.25C15.5946 2.25 18.1418 2.68116 19.7303 4.26967C21.3188 5.85818 21.75 8.40536 21.75 12C21.75 15.5946 21.3188 18.1418 19.7303 19.7303C18.1418 21.3188 15.5946 21.75 12 21.75C8.40536 21.75 5.85818 21.3188 4.26967 19.7303C2.68116 18.1418 2.25 15.5946 2.25 12C2.25 8.40536 2.68116 5.85818 4.26967 4.26967ZM15.5303 9.46967C15.8232 9.76256 15.8232 10.2374 15.5303 10.5303L11.5303 14.5303C11.2374 14.8232 10.7626 14.8232 10.4697 14.5303L8.46967 12.5303C8.17678 12.2374 8.17678 11.7626 8.46967 11.4697C8.76256 11.1768 9.23744 11.1768 9.53033 11.4697L11 12.9393L14.4697 9.46967C14.7626 9.17678 15.2374 9.17678 15.5303 9.46967Z" fill="currentColor"/>
</svg>
