<svg width="24" height="24" viewBox="0 0 24 24" fill="none" xmlns="http://www.w3.org/2000/svg">
<path d="M18.333 2C20.293 2 21.893 3.537 21.995 5.472L22 5.667V18.333C22 20.293 20.463 21.893 18.528 21.995L18.333 22H5.667C4.72818 22 3.82509 21.64 3.1438 20.9941C2.46252 20.3481 2.05492 19.4655 2.005 18.528L2 18.333V5.667C2 3.707 3.537 2.107 5.472 2.005L5.667 2H18.333ZM10 8H8L7.883 8.007C7.65978 8.03332 7.45194 8.13408 7.29301 8.29301C7.13408 8.45194 7.03332 8.65978 7.007 8.883L7 9V15L7.007 15.117C7.03332 15.3402 7.13408 15.5481 7.29301 15.707C7.45194 15.8659 7.65978 15.9667 7.883 15.993L8 16L8.117 15.993C8.34022 15.9667 8.54806 15.8659 8.70699 15.707C8.86592 15.5481 8.96668 15.3402 8.993 15.117L9 15V13H10L10.117 12.993C10.36 12.9641 10.5841 12.847 10.7466 12.664C10.9091 12.481 10.9989 12.2448 10.9989 12C10.9989 11.7552 10.9091 11.519 10.7466 11.336C10.5841 11.153 10.36 11.0359 10.117 11.007L10 11H9V10H10L10.117 9.993C10.36 9.96409 10.5841 9.84704 10.7466 9.66403C10.9091 9.48103 10.9989 9.24476 10.9989 9C10.9989 8.75524 10.9091 8.51897 10.7466 8.33597C10.5841 8.15296 10.36 8.03591 10.117 8.007L10 8ZM15.994 8.886C15.911 8.109 14.986 7.726 14.377 8.216L14.293 8.293L12.293 10.293L12.21 10.387C12.0739 10.5624 12.0001 10.778 12.0001 11C12.0001 11.222 12.0739 11.4376 12.21 11.613L12.293 11.707L12.387 11.79C12.5624 11.9261 12.778 11.9999 13 11.9999C13.222 11.9999 13.4376 11.9261 13.613 11.79L13.707 11.707L14 11.414V15L14.007 15.117C14.0359 15.36 14.153 15.5841 14.336 15.7466C14.519 15.9091 14.7552 15.9989 15 15.9989C15.2448 15.9989 15.481 15.9091 15.664 15.7466C15.847 15.5841 15.9641 15.36 15.993 15.117L16 15V9L15.994 8.886Z" fill="currentColor"/>
</svg>
