<svg width="24" height="24" viewBox="0 0 24 24" fill="none" xmlns="http://www.w3.org/2000/svg">
<path d="M18.333 2C20.293 2 21.893 3.537 21.995 5.472L22 5.667V18.333C22 20.293 20.463 21.893 18.528 21.995L18.333 22H5.667C4.72818 22 3.82509 21.64 3.1438 20.9941C2.46252 20.3481 2.05492 19.4655 2.005 18.528L2 18.333V5.667C2 3.707 3.537 2.107 5.472 2.005L5.667 2H18.333ZM16 8H13L12.883 8.007C12.679 8.03091 12.4873 8.11706 12.3339 8.25376C12.1806 8.39045 12.0731 8.57105 12.026 8.771L12.006 8.883L12 9V12L12.007 12.117C12.0309 12.321 12.1171 12.5127 12.2538 12.6661C12.3905 12.8194 12.5711 12.9269 12.771 12.974L12.883 12.994L13 13H15V14H13.967L13.942 13.913L13.893 13.8C13.7917 13.5991 13.6257 13.4382 13.4217 13.3433C13.2177 13.2484 12.9876 13.2251 12.7687 13.2772C12.5498 13.3292 12.3549 13.4535 12.2154 13.6301C12.0759 13.8066 12 14.025 12 14.25C12 15.117 12.63 15.837 13.458 15.976L13.606 15.994L13.75 16H15L15.157 15.994C15.6052 15.9588 16.0285 15.7735 16.3586 15.4682C16.6886 15.1628 16.9061 14.7552 16.976 14.311L16.995 14.149L17 14V13L16.994 12.843C16.9588 12.3948 16.7735 11.9715 16.4682 11.6414C16.1628 11.3114 15.7552 11.0939 15.311 11.024L15.149 11.005L15 11H14V10H16L16.117 9.993C16.321 9.96909 16.5127 9.88294 16.6661 9.74624C16.8194 9.60955 16.9269 9.42895 16.974 9.229L16.994 9.117L17 9L16.993 8.883C16.9691 8.67898 16.8829 8.48727 16.7462 8.33393C16.6095 8.1806 16.4289 8.07308 16.229 8.026L16.117 8.006L16 8ZM10 8H8L7.883 8.007C7.65978 8.03332 7.45194 8.13408 7.29301 8.29301C7.13408 8.45194 7.03332 8.65978 7.007 8.883L7 9V15L7.007 15.117C7.03332 15.3402 7.13408 15.5481 7.29301 15.707C7.45194 15.8659 7.65978 15.9667 7.883 15.993L8 16L8.117 15.993C8.34022 15.9667 8.54806 15.8659 8.70699 15.707C8.86592 15.5481 8.96668 15.3402 8.993 15.117L9 15V13H10L10.117 12.993C10.36 12.9641 10.5841 12.847 10.7466 12.664C10.9091 12.481 10.9989 12.2448 10.9989 12C10.9989 11.7552 10.9091 11.519 10.7466 11.336C10.5841 11.153 10.36 11.0359 10.117 11.007L10 11H9V10H10L10.117 9.993C10.36 9.96409 10.5841 9.84704 10.7466 9.66403C10.9091 9.48103 10.9989 9.24476 10.9989 9C10.9989 8.75524 10.9091 8.51897 10.7466 8.33597C10.5841 8.15296 10.36 8.03591 10.117 8.007L10 8Z" fill="currentColor"/>
</svg>
