<svg width="24" height="24" viewBox="0 0 24 24" fill="none" xmlns="http://www.w3.org/2000/svg">
<path d="M12 2L12.642 2.005L13.258 2.022L13.557 2.035L14.136 2.069L14.689 2.115C19.376 2.57 21.339 4.448 21.855 9.021L21.885 9.311L21.931 9.864L21.972 10.591L21.978 10.741L21.995 11.358L22 12L21.995 12.642L21.978 13.258L21.965 13.557L21.931 14.136L21.885 14.689C21.43 19.376 19.552 21.339 14.979 21.855L14.689 21.885L14.136 21.931L13.409 21.972L13.259 21.978L12.642 21.995L12 22L11.358 21.995L10.742 21.978L10.443 21.965L9.86398 21.931L9.31098 21.885C4.62398 21.43 2.66098 19.552 2.14498 14.979L2.11498 14.689L2.06898 14.136L2.02798 13.409L2.02198 13.259L2.00498 12.642L2.00098 12.324V11.676L2.00498 11.358L2.02198 10.742L2.03498 10.443L2.06898 9.864L2.11498 9.311C2.56998 4.624 4.44798 2.661 9.02098 2.145L9.31098 2.115L9.86398 2.069L10.591 2.028L10.741 2.022L11.358 2.005C11.568 2.002 11.782 2 12 2ZM13 7H9.99998L9.88298 7.007C9.63993 7.03591 9.41592 7.15296 9.25339 7.33596C9.09086 7.51897 9.00109 7.75524 9.00109 8C9.00109 8.24476 9.09086 8.48103 9.25339 8.66403C9.41592 8.84704 9.63993 8.96409 9.88298 8.993L9.99998 9H13V11H11L10.85 11.005C10.3738 11.0408 9.92615 11.2458 9.58795 11.5829C9.24974 11.92 9.04331 12.3669 9.00598 12.843L8.99998 13V15L9.00498 15.15C9.04076 15.6262 9.24573 16.0738 9.58284 16.412C9.91994 16.7502 10.3669 16.9567 10.843 16.994L11 17H14L14.117 16.993C14.36 16.9641 14.584 16.847 14.7466 16.664C14.9091 16.481 14.9989 16.2448 14.9989 16C14.9989 15.7552 14.9091 15.519 14.7466 15.336C14.584 15.153 14.36 15.0359 14.117 15.007L14 15H11V13H13L13.15 12.995C13.6261 12.9592 14.0738 12.7542 14.412 12.4171C14.7502 12.08 14.9566 11.6331 14.994 11.157L15 11V9L14.995 8.85C14.9592 8.37383 14.7542 7.92617 14.4171 7.58797C14.08 7.24977 13.633 7.04334 13.157 7.006L13 7Z" fill="currentColor"/>
</svg>
