<svg width="24" height="24" viewBox="0 0 24 24" fill="none" xmlns="http://www.w3.org/2000/svg">
<path d="M19 2C19.7956 2 20.5587 2.31607 21.1213 2.87868C21.6839 3.44129 22 4.20435 22 5V19C22 19.7956 21.6839 20.5587 21.1213 21.1213C20.5587 21.6839 19.7956 22 19 22H5C4.20435 22 3.44129 21.6839 2.87868 21.1213C2.31607 20.5587 2 19.7956 2 19V5C2 4.20435 2.31607 3.44129 2.87868 2.87868C3.44129 2.31607 4.20435 2 5 2H19ZM12.707 7.293C12.5195 7.10553 12.2652 7.00021 12 7.00021C11.7348 7.00021 11.4805 7.10553 11.293 7.293L7.293 11.293L7.21 11.387L7.146 11.479L7.094 11.577L7.05 11.687L7.02 11.799L7.003 11.925L7 12L7.004 12.09L7.011 12.148L7.036 12.266L7.071 12.371L7.125 12.484L7.196 12.595C7.226 12.635 7.257 12.672 7.293 12.707L11.293 16.707L11.387 16.79C11.5794 16.9393 11.8197 17.0132 12.0627 16.9979C12.3057 16.9826 12.5348 16.8792 12.707 16.707L12.79 16.613C12.9393 16.4206 13.0132 16.1803 12.9979 15.9373C12.9826 15.6943 12.8792 15.4652 12.707 15.293L10.415 13H16L16.117 12.993C16.3701 12.9629 16.6021 12.8373 16.7657 12.6418C16.9293 12.4464 17.0121 12.1958 16.9972 11.9414C16.9822 11.687 16.8707 11.4478 16.6854 11.2728C16.5 11.0979 16.2549 11.0003 16 11H10.415L12.707 8.707L12.79 8.613C12.9393 8.4206 13.0132 8.18035 12.9979 7.93732C12.9826 7.69429 12.8792 7.46519 12.707 7.293Z" fill="currentColor"/>
</svg>
