<svg width="24" height="24" viewBox="0 0 24 24" fill="none" xmlns="http://www.w3.org/2000/svg">
<path d="M19 2C19.7956 2 20.5587 2.31607 21.1213 2.87868C21.6839 3.44129 22 4.20435 22 5V19C22 19.7956 21.6839 20.5587 21.1213 21.1213C20.5587 21.6839 19.7956 22 19 22H5C4.20435 22 3.44129 21.6839 2.87868 21.1213C2.31607 20.5587 2 19.7956 2 19V5C2 4.20435 2.31607 3.44129 2.87868 2.87868C3.44129 2.31607 4.20435 2 5 2H19ZM9.613 12.21C9.41201 12.0546 9.1594 11.9815 8.90647 12.0056C8.65355 12.0297 8.41928 12.1492 8.25125 12.3397C8.08321 12.5303 7.99402 12.7777 8.00177 13.0316C8.00953 13.2856 8.11365 13.527 8.293 13.707L11.293 16.707L11.387 16.79C11.5794 16.9393 11.8197 17.0132 12.0627 16.9979C12.3057 16.9826 12.5348 16.8792 12.707 16.707L15.707 13.707L15.79 13.613C15.9393 13.4206 16.0132 13.1803 15.9979 12.9373C15.9826 12.6943 15.8792 12.4652 15.707 12.293L15.613 12.21C15.4206 12.0607 15.1803 11.9868 14.9373 12.0021C14.6943 12.0174 14.4652 12.1208 14.293 12.293L12 14.585L9.707 12.293L9.613 12.21ZM9.613 7.21C9.41201 7.05459 9.1594 6.98151 8.90647 7.0056C8.65355 7.02969 8.41928 7.14916 8.25125 7.33972C8.08321 7.53029 7.99402 7.77767 8.00177 8.03162C8.00953 8.28557 8.11365 8.52704 8.293 8.707L11.293 11.707L11.387 11.79C11.5794 11.9393 11.8197 12.0132 12.0627 11.9979C12.3057 11.9826 12.5348 11.8792 12.707 11.707L15.707 8.707L15.79 8.613C15.9393 8.4206 16.0132 8.18035 15.9979 7.93732C15.9826 7.69429 15.8792 7.46519 15.707 7.293L15.613 7.21C15.4206 7.06075 15.1803 6.98683 14.9373 7.00211C14.6943 7.01739 14.4652 7.12082 14.293 7.293L12 9.585L9.707 7.293L9.613 7.21Z" fill="currentColor"/>
</svg>
