<svg width="24" height="24" viewBox="0 0 24 24" fill="none" xmlns="http://www.w3.org/2000/svg">
<path d="M18.333 2C20.293 2 21.893 3.537 21.995 5.472L22 5.667V18.333C22 20.293 20.463 21.893 18.528 21.995L18.333 22H5.667C4.72818 22 3.82509 21.64 3.1438 20.9941C2.46252 20.3481 2.05492 19.4655 2.005 18.528L2 18.333V5.667C2 3.707 3.537 2.107 5.472 2.005L5.667 2H18.333ZM14.5 8C13.8653 7.9999 13.2543 8.24123 12.791 8.67504C12.3276 9.10885 12.0466 9.70265 12.005 10.336L12 10.5V13.5L12.005 13.664C12.0452 14.2984 12.3255 14.8937 12.789 15.3287C13.2525 15.7638 13.8643 16.006 14.5 16.006C15.1357 16.006 15.7475 15.7638 16.211 15.3287C16.6745 14.8937 16.9548 14.2984 16.995 13.664L17 13.5V10.5L16.995 10.336C16.9534 9.70265 16.6724 9.10885 16.209 8.67504C15.7457 8.24123 15.1347 7.9999 14.5 8ZM10 8H8L7.883 8.007C7.65978 8.03332 7.45194 8.13408 7.29301 8.29301C7.13408 8.45194 7.03332 8.65978 7.007 8.883L7 9V15L7.007 15.117C7.03332 15.3402 7.13408 15.5481 7.29301 15.707C7.45194 15.8659 7.65978 15.9667 7.883 15.993L8 16L8.117 15.993C8.34022 15.9667 8.54806 15.8659 8.70699 15.707C8.86592 15.5481 8.96668 15.3402 8.993 15.117L9 15V13H10L10.117 12.993C10.36 12.9641 10.5841 12.847 10.7466 12.664C10.9091 12.481 10.9989 12.2448 10.9989 12C10.9989 11.7552 10.9091 11.519 10.7466 11.336C10.5841 11.153 10.36 11.0359 10.117 11.007L10 11H9V10H10L10.117 9.993C10.36 9.96409 10.5841 9.84704 10.7466 9.66403C10.9091 9.48103 10.9989 9.24476 10.9989 9C10.9989 8.75524 10.9091 8.51897 10.7466 8.33597C10.5841 8.15296 10.36 8.03591 10.117 8.007L10 8ZM14.5 10C14.617 9.99996 14.7304 10.041 14.8203 10.1159C14.9102 10.1908 14.9709 10.2949 14.992 10.41L15 10.5V13.5L14.992 13.59C14.9711 13.7053 14.9104 13.8096 14.8205 13.8847C14.7306 13.9598 14.6172 14.0009 14.5 14.0009C14.3828 14.0009 14.2694 13.9598 14.1795 13.8847C14.0896 13.8096 14.0289 13.7053 14.008 13.59L14 13.5V10.5L14.008 10.41C14.0291 10.2949 14.0898 10.1908 14.1797 10.1159C14.2696 10.041 14.383 9.99996 14.5 10Z" fill="currentColor"/>
</svg>
