<svg width="24" height="24" viewBox="0 0 24 24" fill="none" xmlns="http://www.w3.org/2000/svg">
<path fill-rule="evenodd" clip-rule="evenodd" d="M11.6648 3.32918C11.8759 3.22361 12.1244 3.22361 12.3356 3.32918L20.3356 7.32918C20.5897 7.45622 20.7502 7.71592 20.7502 8C20.7502 8.28408 20.5897 8.54378 20.3356 8.67082L12.3356 12.6708C12.1244 12.7764 11.8759 12.7764 11.6648 12.6708L3.66475 8.67082C3.41067 8.54378 3.25016 8.28408 3.25016 8C3.25016 7.71592 3.41067 7.45622 3.66475 7.32918L11.6648 3.32918ZM5.67722 8L12.0002 11.1615L18.3231 8L12.0002 4.83853L5.67722 8ZM3.32934 11.6646C3.51459 11.2941 3.96509 11.1439 4.33557 11.3292L12.0002 15.1615L19.6648 11.3292C20.0352 11.1439 20.4857 11.2941 20.671 11.6646C20.8562 12.0351 20.7061 12.4856 20.3356 12.6708L12.3356 16.6708C12.1244 16.7764 11.8759 16.7764 11.6648 16.6708L3.66475 12.6708C3.29427 12.4856 3.1441 12.0351 3.32934 11.6646ZM3.32934 15.6646C3.51459 15.2941 3.96509 15.1439 4.33557 15.3292L12.0002 19.1615L19.6648 15.3292C20.0352 15.1439 20.4857 15.2941 20.671 15.6646C20.8562 16.0351 20.7061 16.4856 20.3356 16.6708L12.3356 20.6708C12.1244 20.7764 11.8759 20.7764 11.6648 20.6708L3.66475 16.6708C3.29427 16.4856 3.1441 16.0351 3.32934 15.6646Z" fill="currentColor"/>
</svg>
