<svg width="24" height="24" viewBox="0 0 24 24" fill="none" xmlns="http://www.w3.org/2000/svg">
<path d="M17.6569 12.007C17.4234 12.031 17.1998 12.1138 17.0069 12.2475C16.8141 12.3813 16.6582 12.5617 16.5539 12.772L15.6989 14.495L13.7919 14.772C13.2719 14.844 12.8319 15.212 12.6679 15.716L12.6299 15.856C12.5299 16.321 12.6759 16.81 13.0229 17.146L14.3999 18.483L14.0739 20.375C14.0311 20.6305 14.0605 20.8928 14.1586 21.1326C14.2568 21.3723 14.4198 21.5799 14.6294 21.7321C14.8391 21.8843 15.087 21.975 15.3453 21.9941C15.6037 22.0131 15.8622 21.9598 16.0919 21.84L17.7999 20.945L19.5079 21.841C19.7371 21.9617 19.9955 22.0158 20.2539 21.9972C20.5123 21.9787 20.7603 21.8882 20.9699 21.736L21.0819 21.646C21.2573 21.4888 21.3899 21.2896 21.4672 21.0671C21.5445 20.8446 21.564 20.6061 21.5239 20.374L21.1989 18.483L22.5789 17.144C22.9589 16.773 23.0949 16.22 22.9309 15.717L22.8799 15.583C22.7841 15.3683 22.6355 15.1813 22.4478 15.0396C22.2602 14.898 22.0397 14.8062 21.8069 14.773L19.8999 14.495L19.0469 12.773C18.9315 12.5409 18.7537 12.3456 18.5334 12.209C18.3131 12.0725 18.0591 12.0001 17.7999 12L17.6569 12.007Z" fill="currentColor"/>
<path d="M6.0569 12.007C5.82341 12.031 5.59981 12.1138 5.40694 12.2475C5.21406 12.3813 5.05821 12.5617 4.9539 12.772L4.0989 14.495L2.1919 14.772C1.6719 14.844 1.2319 15.212 1.0679 15.716L1.0299 15.856C0.9299 16.321 1.0759 16.81 1.4229 17.146L2.7999 18.483L2.4739 20.375C2.43116 20.6305 2.4605 20.8928 2.55864 21.1326C2.65678 21.3723 2.81982 21.5799 3.02945 21.7321C3.23908 21.8843 3.48699 21.975 3.74533 21.9941C4.00367 22.0131 4.26221 21.9598 4.4919 21.84L6.1999 20.945L7.9079 21.841C8.13711 21.9617 8.39552 22.0158 8.65389 21.9972C8.91226 21.9787 9.16028 21.8882 9.3699 21.736L9.4819 21.646C9.65732 21.4888 9.7899 21.2896 9.86722 21.0671C9.94453 20.8446 9.96404 20.6061 9.9239 20.374L9.5999 18.483L10.9799 17.144C11.3599 16.773 11.4959 16.22 11.3319 15.717L11.2809 15.583C11.1852 15.3683 11.0365 15.1813 10.8488 15.0396C10.6612 14.898 10.4407 14.8062 10.2079 14.773L8.2999 14.494L7.4469 12.772C7.3314 12.5401 7.15351 12.345 6.93323 12.2086C6.71294 12.0722 6.45898 12 6.1999 12L6.0569 12.007Z" fill="currentColor"/>
<path d="M11.8569 2.007C11.6234 2.03101 11.3998 2.11376 11.2069 2.24753C11.0141 2.3813 10.8582 2.56173 10.7539 2.772L9.89889 4.495L7.99189 4.772C7.47189 4.844 7.03189 5.212 6.86789 5.716L6.82989 5.856C6.72989 6.321 6.87589 6.81 7.22289 7.146L8.59989 8.483L8.27389 10.375C8.23114 10.6305 8.26049 10.8928 8.35863 11.1326C8.45676 11.3723 8.61981 11.5799 8.82943 11.7321C9.03906 11.8843 9.28697 11.975 9.54532 11.9941C9.80366 12.0131 10.0622 11.9598 10.2919 11.84L11.9999 10.946L13.7089 11.842C13.9381 11.9627 14.1965 12.0168 14.4549 11.9982C14.7132 11.9797 14.9613 11.8892 15.1709 11.737L15.2829 11.647C15.4583 11.4898 15.5909 11.2906 15.6682 11.0681C15.7455 10.8456 15.765 10.6071 15.7249 10.375L15.3999 8.483L16.7799 7.144C17.1599 6.773 17.2959 6.22 17.1319 5.717L17.0809 5.583C16.9851 5.36826 16.8365 5.18131 16.6488 5.03965C16.4612 4.89799 16.2406 4.80624 16.0079 4.773L14.0999 4.494L13.2469 2.772C13.1314 2.54009 12.9535 2.34498 12.7332 2.2086C12.5129 2.07222 12.259 1.99999 11.9999 2L11.8569 2.007Z" fill="currentColor"/>
</svg>
