<svg width="24" height="24" viewBox="0 0 24 24" fill="none" xmlns="http://www.w3.org/2000/svg">
<path d="M17.7997 19.817L15.6277 20.955C15.5633 20.9885 15.4908 21.0035 15.4183 20.9982C15.3458 20.9929 15.2763 20.9676 15.2173 20.9251C15.1584 20.8826 15.1125 20.8245 15.0847 20.7574C15.0568 20.6903 15.0482 20.6167 15.0598 20.545L15.4748 18.134L13.7178 16.427C13.6653 16.3763 13.6282 16.3119 13.6106 16.2411C13.593 16.1703 13.5957 16.096 13.6183 16.0266C13.6409 15.9573 13.6826 15.8957 13.7386 15.8489C13.7945 15.8021 13.8625 15.772 13.9348 15.762L16.3628 15.41L17.4487 13.217C17.4812 13.1517 17.5313 13.0967 17.5933 13.0583C17.6553 13.0199 17.7268 12.9995 17.7997 12.9995C17.8727 12.9995 17.9442 13.0199 18.0062 13.0583C18.0682 13.0967 18.1183 13.1517 18.1507 13.217L19.2367 15.41L21.6648 15.762C21.7368 15.7723 21.8045 15.8027 21.8602 15.8495C21.9159 15.8963 21.9574 15.9578 21.98 16.027C22.0026 16.0962 22.0053 16.1703 21.988 16.241C21.9706 16.3117 21.9338 16.3761 21.8818 16.427L20.1248 18.134L20.5387 20.544C20.5512 20.6158 20.5432 20.6898 20.5157 20.7573C20.4883 20.8249 20.4424 20.8834 20.3833 20.9262C20.3243 20.969 20.2544 20.9944 20.1817 20.9995C20.1089 21.0046 20.0362 20.9891 19.9718 20.955L17.7997 19.817Z" stroke="currentColor" stroke-width="1.5" stroke-linecap="round" stroke-linejoin="round"/>
<path d="M6.19965 19.817L4.02765 20.955C3.9632 20.9885 3.89068 21.0035 3.81821 20.9982C3.74574 20.9929 3.67616 20.9676 3.61724 20.9251C3.55832 20.8826 3.51239 20.8245 3.48456 20.7574C3.45673 20.6903 3.44811 20.6167 3.45965 20.545L3.87465 18.134L2.11765 16.427C2.06521 16.3763 2.02808 16.3119 2.01049 16.2411C1.99291 16.1703 1.99559 16.096 2.01821 16.0266C2.04084 15.9573 2.08251 15.8957 2.13846 15.8489C2.19442 15.8021 2.2624 15.772 2.33465 15.762L4.76265 15.41L5.84865 13.217C5.88113 13.1517 5.93119 13.0967 5.9932 13.0583C6.05521 13.0199 6.12671 12.9995 6.19965 12.9995C6.2726 12.9995 6.3441 13.0199 6.40611 13.0583C6.46811 13.0967 6.51817 13.1517 6.55065 13.217L7.63665 15.41L10.0647 15.762C10.1367 15.7723 10.2044 15.8027 10.2601 15.8495C10.3158 15.8963 10.3573 15.9578 10.3799 16.027C10.4025 16.0962 10.4052 16.1703 10.3879 16.241C10.3705 16.3117 10.3337 16.3761 10.2817 16.427L8.52465 18.134L8.93865 20.544C8.95108 20.6158 8.9431 20.6898 8.91563 20.7573C8.88816 20.8249 8.84229 20.8834 8.78324 20.9262C8.72419 20.969 8.65432 20.9944 8.58157 20.9995C8.50881 21.0046 8.43609 20.9891 8.37165 20.955L6.19965 19.817Z" stroke="currentColor" stroke-width="1.5" stroke-linecap="round" stroke-linejoin="round"/>
<path d="M11.9997 9.81698L9.8277 10.955C9.76324 10.9885 9.69073 11.0035 9.61826 10.9982C9.54579 10.9929 9.47621 10.9676 9.41729 10.9251C9.35837 10.8826 9.31244 10.8245 9.28461 10.7574C9.25678 10.6903 9.24816 10.6167 9.2597 10.545L9.6747 8.13398L7.9177 6.42698C7.86526 6.37628 7.82813 6.31186 7.81054 6.24107C7.79296 6.17027 7.79564 6.09597 7.81826 6.02662C7.84089 5.95728 7.88256 5.89569 7.93851 5.8489C7.99447 5.8021 8.06245 5.77198 8.1347 5.76198L10.5627 5.40998L11.6487 3.21698C11.6812 3.15166 11.7312 3.0967 11.7932 3.05828C11.8553 3.01987 11.9268 2.99951 11.9997 2.99951C12.0726 2.99951 12.1441 3.01987 12.2062 3.05828C12.2682 3.0967 12.3182 3.15166 12.3507 3.21698L13.4367 5.40998L15.8647 5.76198C15.9367 5.77234 16.0044 5.80265 16.0602 5.84949C16.1159 5.89633 16.1573 5.95783 16.1799 6.02702C16.2025 6.09621 16.2053 6.17034 16.1879 6.24102C16.1706 6.3117 16.1338 6.37612 16.0817 6.42698L14.3247 8.13398L14.7387 10.544C14.7511 10.6158 14.7432 10.6898 14.7157 10.7573C14.6882 10.8249 14.6423 10.8834 14.5833 10.9262C14.5242 10.969 14.4544 10.9944 14.3816 10.9995C14.3089 11.0046 14.2361 10.9891 14.1717 10.955L11.9997 9.81698Z" stroke="currentColor" stroke-width="1.5" stroke-linecap="round" stroke-linejoin="round"/>
</svg>
