<svg width="24" height="24" viewBox="0 0 24 24" fill="none" xmlns="http://www.w3.org/2000/svg">
<path fill-rule="evenodd" clip-rule="evenodd" d="M11.9929 1.25195C12.2783 1.25195 12.5391 1.41403 12.6654 1.67003L15.5768 7.56929L22.0864 8.51271C22.3691 8.55368 22.604 8.75165 22.6922 9.02331C22.7804 9.29497 22.7067 9.59315 22.502 9.79238L17.7848 14.3841L18.8971 20.8681C18.9454 21.1497 18.8296 21.4341 18.5984 21.6019C18.3673 21.7697 18.0609 21.7916 17.8082 21.6585L11.9995 18.5975L6.17688 21.6588C5.92419 21.7916 5.61798 21.7695 5.38702 21.6017C5.15605 21.4339 5.04039 21.1495 5.08865 20.8681L6.20093 14.3841L1.48372 9.79238C1.27905 9.59315 1.20531 9.29497 1.29353 9.02331C1.38175 8.75165 1.61661 8.55368 1.89929 8.51271L8.40889 7.56929L11.3203 1.67003C11.4466 1.41403 11.7074 1.25195 11.9929 1.25195ZM11.9929 3.69663L9.57941 8.58687C9.47012 8.80832 9.25882 8.96178 9.01443 8.9972L3.62041 9.77894L7.52999 13.5845C7.70701 13.7568 7.78783 14.0053 7.74606 14.2488L6.82401 19.6239L11.6508 17.0861C11.8696 16.9711 12.1309 16.9712 12.3495 17.0864L17.1614 19.6221L16.2397 14.2488C16.1979 14.0053 16.2787 13.7568 16.4557 13.5845L20.3653 9.77894L14.9713 8.9972C14.7269 8.96178 14.5156 8.80832 14.4063 8.58687L11.9929 3.69663Z" fill="currentColor"/>
</svg>
