<svg width="24" height="24" viewBox="0 0 24 24" fill="none" xmlns="http://www.w3.org/2000/svg">
<path d="M11.9999 1.00011C12.1629 1.00073 12.3233 1.04146 12.4668 1.11872C12.6103 1.19598 12.7326 1.30739 12.8229 1.44311L12.8899 1.55911L15.7419 7.34011L22.1219 8.26511C22.8629 8.37311 23.2019 9.20511 22.8249 9.79111L22.7549 9.88611L22.6769 9.97211L18.0529 14.4711L19.1429 20.8261C19.1713 20.9919 19.1575 21.1621 19.1027 21.3211C19.0479 21.4802 18.9539 21.6228 18.8295 21.7359C18.705 21.849 18.554 21.9289 18.3905 21.9683C18.227 22.0077 18.0562 22.0052 17.8939 21.9611L17.7929 21.9261L17.6919 21.8801L11.9989 18.8801L6.29291 21.8801C6.18791 21.9351 6.08091 21.9701 5.97291 21.9861L5.86691 21.9961C5.72734 22.0012 5.58825 21.9771 5.45853 21.9254C5.32881 21.8736 5.21134 21.7953 5.11362 21.6955C5.01591 21.5957 4.94011 21.4766 4.89108 21.3459C4.84206 21.2151 4.82088 21.0755 4.82891 20.9361L4.84191 20.8261L5.93191 14.4711L1.30891 9.97111C1.18936 9.85466 1.10082 9.71018 1.05135 9.5508C1.00187 9.39142 0.993032 9.2222 1.02563 9.05853C1.05822 8.89486 1.13122 8.74194 1.23798 8.61367C1.34474 8.4854 1.48187 8.38586 1.63691 8.32411L1.74991 8.28811L1.86391 8.26511L8.24291 7.34011L11.0959 1.56011C11.1755 1.38872 11.3035 1.24436 11.4641 1.14485C11.6248 1.04534 11.811 0.995026 11.9999 1.00011ZM11.9999 4.27411V16.7501C12.0805 16.7501 12.1607 16.7598 12.2389 16.7791L12.3539 16.8151L12.4659 16.8651L16.8289 19.1641L15.9929 14.2911C15.9517 14.0503 16.0001 13.8027 16.1289 13.5951L16.1989 13.4961L16.2809 13.4061L19.8269 9.95311L14.9359 9.24511C14.6942 9.21001 14.4736 9.08765 14.3159 8.90111L14.2429 8.80411L14.1829 8.69811L11.9999 4.27411Z" fill="currentColor"/>
</svg>
