<svg width="24" height="24" viewBox="0 0 24 24" fill="none" xmlns="http://www.w3.org/2000/svg">
<path d="M20.04 16.0479C20.8922 14.3571 21.1895 12.4405 20.8894 10.571C20.5894 8.7015 19.7074 6.97422 18.3689 5.63496C17.0305 4.29571 15.3037 3.41271 13.4343 3.11161C11.565 2.8105 9.6483 3.10664 7.95699 3.95788M5.63699 5.63588C3.95035 7.32491 3.00375 9.61478 3.00543 12.0017C3.00712 14.3887 3.95696 16.6772 5.64599 18.3639C7.33502 20.0505 9.62489 20.9971 12.0119 20.9954C14.3988 20.9937 16.6873 20.0439 18.374 18.3549M10.595 10.5759C10.2197 10.9508 10.0087 11.4594 10.0085 11.9899C10.0082 12.5203 10.2186 13.0291 10.5935 13.4044C10.9684 13.7797 11.477 13.9907 12.0074 13.991C12.5379 13.9913 13.0467 13.7808 13.422 13.4059M12 14V21M10 12L3.25 10M15.542 11.543L20.75 10M3 3L21 21" stroke="currentColor" stroke-width="1.5" stroke-linecap="round" stroke-linejoin="round"/>
</svg>
