<svg width="24" height="24" viewBox="0 0 24 24" fill="none" xmlns="http://www.w3.org/2000/svg">
<path d="M4.172 4.179C3.82244 4.33798 3.52604 4.59424 3.31821 4.91715C3.11038 5.24007 2.99991 5.61599 3 6V9.5C2.99997 10.6482 3.35927 11.7675 4.02751 12.7012C4.69575 13.6349 5.63943 14.336 6.72624 14.7063C7.81305 15.0765 8.98849 15.0974 10.0878 14.766C11.187 14.4345 12.155 13.7673 12.856 12.858M14 10V6C14 5.46957 13.7893 4.96086 13.4142 4.58579C13.0391 4.21071 12.5304 4 12 4H11M8 15C7.99998 16.2473 8.38865 17.4635 9.11196 18.4796C9.83526 19.4957 10.8572 20.2612 12.0358 20.6695C13.2143 21.0778 14.4908 21.1087 15.6877 20.7579C16.8846 20.407 17.9424 19.6919 18.714 18.712M19.93 15.914C19.976 15.614 20 15.309 20 15V12M20 12C19.4696 12 18.9609 11.7893 18.5858 11.4142C18.2107 11.0391 18 10.5304 18 10C18 9.46957 18.2107 8.96086 18.5858 8.58579C18.9609 8.21071 19.4696 8 20 8C20.5304 8 21.0391 8.21071 21.4142 8.58579C21.7893 8.96086 22 9.46957 22 10C22 10.5304 21.7893 11.0391 21.4142 11.4142C21.0391 11.7893 20.5304 12 20 12ZM11 3V5M3 3L21 21" stroke="currentColor" stroke-width="1.5" stroke-linecap="round" stroke-linejoin="round"/>
</svg>
