<svg width="24" height="24" viewBox="0 0 24 24" fill="none" xmlns="http://www.w3.org/2000/svg">
<path d="M20 13V6C20 5.46957 19.7893 4.96086 19.4142 4.58579C19.0391 4.21071 18.5304 4 18 4H6C5.46957 4 4.96086 4.21071 4.58579 4.58579C4.21071 4.96086 4 5.46957 4 6V18C4 18.5304 4.21071 19.0391 4.58579 19.4142C4.96086 19.7893 5.46957 20 6 20H13M20 13H15C14.4696 13 13.9609 13.2107 13.5858 13.5858C13.2107 13.9609 13 14.4696 13 15V20M20 13V13.172C19.9999 13.7024 19.7891 14.211 19.414 14.586L14.586 19.414C14.211 19.7891 13.7024 19.9999 13.172 20H13" stroke="currentColor" stroke-width="1.5" stroke-linecap="round" stroke-linejoin="round"/>
</svg>
