<svg width="24" height="24" viewBox="0 0 24 24" fill="none" xmlns="http://www.w3.org/2000/svg">
<path d="M5.36892 14.236C3.52992 10.307 3.80792 6.62 4.66492 3M18.6299 9.76001C20.4669 13.688 20.1909 17.375 19.3329 20.996M8.99991 12C8.99991 12.7956 9.31598 13.5587 9.87859 14.1213C10.4412 14.6839 11.2043 15 11.9999 15C12.7956 15 13.5586 14.6839 14.1212 14.1213C14.6838 13.5587 14.9999 12.7956 14.9999 12C14.9999 11.2044 14.6838 10.4413 14.1212 9.87868C13.5586 9.31607 12.7956 9 11.9999 9C11.2043 9 10.4412 9.31607 9.87859 9.87868C9.31598 10.4413 8.99991 11.2044 8.99991 12ZM4.99991 12C4.99991 12.9193 5.18097 13.8295 5.53275 14.6788C5.88453 15.5281 6.40015 16.2997 7.05016 16.9497C7.70017 17.5998 8.47184 18.1154 9.32112 18.4672C10.1704 18.8189 11.0807 19 11.9999 19C12.9192 19 13.8294 18.8189 14.6787 18.4672C15.528 18.1154 16.2996 17.5998 16.9497 16.9497C17.5997 16.2997 18.1153 15.5281 18.4671 14.6788C18.8188 13.8295 18.9999 12.9193 18.9999 12C18.9999 11.0807 18.8188 10.1705 18.4671 9.32122C18.1153 8.47194 17.5997 7.70026 16.9497 7.05025C16.2996 6.40024 15.528 5.88463 14.6787 5.53284C13.8294 5.18106 12.9192 5 11.9999 5C11.0807 5 10.1704 5.18106 9.32112 5.53284C8.47184 5.88463 7.70017 6.40024 7.05016 7.05025C6.40015 7.70026 5.88453 8.47194 5.53275 9.32122C5.18097 10.1705 4.99991 11.0807 4.99991 12Z" stroke="currentColor" stroke-width="1.5" stroke-linecap="round" stroke-linejoin="round"/>
</svg>
