<svg width="24" height="24" viewBox="0 0 24 24" fill="none" xmlns="http://www.w3.org/2000/svg">
<path d="M9.88404 9.87406C9.32098 10.4363 9.00435 11.1992 9.00379 11.9949C9.00322 12.7907 9.31878 13.554 9.88104 14.1171C10.4433 14.6801 11.2062 14.9968 12.0019 14.9973C12.7976 14.9979 13.561 14.6823 14.124 14.1201M14.694 10.6791C14.3941 10.0701 13.8972 9.58027 13.284 9.28906M7.03698 7.06299C6.38747 7.71349 5.87243 8.48556 5.52129 9.33511C5.17015 10.1847 4.98978 11.095 4.99048 12.0143C4.99189 13.8708 5.73073 15.6507 7.04448 16.9625C8.35823 18.2743 10.1393 19.0104 11.9958 19.009C13.8523 19.0076 15.6322 18.2687 16.944 16.955M18.529 14.529C19.0203 13.2633 19.1329 11.8821 18.8532 10.5535C18.5735 9.22499 17.9134 8.00646 16.9534 7.04638C15.9934 6.0863 14.775 5.4261 13.4465 5.14621C12.118 4.86632 10.7367 4.97882 9.47098 5.46999M5.36899 14.236C3.76399 10.808 3.77199 7.56296 4.36899 4.38696M18.63 9.76001C19.5516 11.7138 20.0192 13.8508 19.998 16.011M19.628 19.619C19.541 20.079 19.441 20.539 19.333 20.996M3 3L21 21" stroke="currentColor" stroke-width="1.5" stroke-linecap="round" stroke-linejoin="round"/>
</svg>
