<svg width="24" height="24" viewBox="0 0 24 24" fill="none" xmlns="http://www.w3.org/2000/svg">
<path d="M17 11L16 8H11L10 11M13 8V6C13 5.73478 13.1054 5.48043 13.2929 5.29289C13.4804 5.10536 13.7348 5 14 5H15M3 11V17H5L6 15.5L9 17H19C19.7956 17 20.5587 16.6839 21.1213 16.1213C21.6839 15.5587 22 14.7956 22 14C22 13.2044 21.6839 12.4413 21.1213 11.8787C20.5587 11.3161 19.7956 11 19 11H9L6 12.5L5 11H3Z" stroke="currentColor" stroke-width="1.5" stroke-linecap="round" stroke-linejoin="round"/>
</svg>
