<svg width="24" height="24" viewBox="0 0 24 24" fill="none" xmlns="http://www.w3.org/2000/svg">
<path d="M6.34299 17.657L4.92899 19.071M6.34299 6.34296L4.92899 4.92896M17.657 6.34296L19.071 4.92896M17.657 17.657L19.071 19.071M4 12H2M12 4V2M20 12H22M12 20V22M14.828 14.8281C15.2101 14.4591 15.5148 14.0177 15.7244 13.5297C15.9341 13.0417 16.0444 12.5168 16.049 11.9857C16.0536 11.4546 15.9524 10.9278 15.7513 10.4363C15.5502 9.94468 15.2532 9.49807 14.8776 9.1225C14.502 8.74693 14.0554 8.44992 13.5638 8.24879C13.0722 8.04767 12.5455 7.94646 12.0144 7.95108C11.4833 7.95569 10.9584 8.06604 10.4704 8.27568C9.98238 8.48531 9.541 8.79004 9.17201 9.17208C8.44338 9.92649 8.0402 10.9369 8.04931 11.9857C8.05843 13.0345 8.4791 14.0377 9.22074 14.7794C9.96237 15.521 10.9656 15.9417 12.0144 15.9508C13.0632 15.9599 14.0736 15.5567 14.828 14.8281Z" stroke="currentColor" stroke-width="1.5" stroke-linecap="round" stroke-linejoin="round"/>
</svg>
