<svg width="24" height="24" viewBox="0 0 24 24" fill="none" xmlns="http://www.w3.org/2000/svg">
<path d="M9.17301 14.8301C8.80156 14.4586 8.50692 14.0177 8.30589 13.5323C8.10487 13.047 8.0014 12.5269 8.0014 12.0016C8.0014 11.4763 8.10487 10.9561 8.30589 10.4708C8.50692 9.98548 8.80156 9.54451 9.17301 9.17307C9.54445 8.80162 9.98542 8.50698 10.4707 8.30595C10.956 8.10493 11.4762 8.00146 12.0015 8.00146C12.5268 8.00146 13.047 8.10493 13.5323 8.30595C14.0176 8.50698 14.4586 8.80162 14.83 9.17307M11.294 12.707L11.468 12.954C12.4572 14.2915 13.8629 15.2622 15.4641 15.7133C17.0653 16.1644 18.7711 16.0704 20.313 15.446C19.7455 16.8115 18.8504 18.0162 17.7066 18.9534C16.5629 19.8907 15.2058 20.5317 13.7555 20.8198C12.3051 21.1078 10.8061 21.0341 9.39095 20.6051C7.97584 20.1761 6.68824 19.405 5.642 18.36M3 12H4M12 3V4M5.60001 5.6001L6.30001 6.3001M3 21L21 3" stroke="currentColor" stroke-width="1.5" stroke-linecap="round" stroke-linejoin="round"/>
</svg>
