<svg width="24" height="24" viewBox="0 0 24 24" fill="none" xmlns="http://www.w3.org/2000/svg">
<path d="M3 3L21 21M16 12C16 10.9391 15.5785 9.92172 14.8284 9.17157C14.0782 8.42143 13.0608 8 12 8M9.16595 9.177C8.41619 9.92756 7.99529 10.9452 7.99585 12.0061C7.99641 13.067 8.41839 14.0842 9.16895 14.834C9.91952 15.5838 10.9372 16.0047 11.9981 16.0041C13.059 16.0035 14.0762 15.5816 14.826 14.831M3 12H4M12 3V4M20 12H21M12 20V21M5.6 5.6L6.3 6.3M18.4 5.6L17.7 6.3M17.7 17.7L18.4 18.4M6.3 17.7L5.6 18.4" stroke="currentColor" stroke-width="1.5" stroke-linecap="round" stroke-linejoin="round"/>
</svg>
