<svg width="24" height="24" viewBox="0 0 24 24" fill="none" xmlns="http://www.w3.org/2000/svg">
<path d="M14.468 10.0001C14.1618 9.46814 13.7373 9.01378 13.2273 8.6722C12.7173 8.33062 12.1355 8.11099 11.5271 8.03031C10.9186 7.94963 10.2997 8.01007 9.71833 8.20694C9.13696 8.40381 8.60869 8.73184 8.17442 9.16563C7.74016 9.59941 7.41155 10.1273 7.21404 10.7085C7.01653 11.2896 6.95542 11.9085 7.03543 12.517C7.11544 13.1256 7.33443 13.7076 7.67545 14.2179C8.01647 14.7283 8.47036 15.1533 9.002 15.4601M2 12H3M11 3V4M11 20V21M4.60001 5.6001L5.30001 6.3001M17.4 5.6001L16.7 6.3001M5.30001 17.7L4.60001 18.4M15 13H20C20.5304 13 21.0391 12.7893 21.4142 12.4142C21.7893 12.0391 22 11.5304 22 11C22 10.4696 21.7893 9.96086 21.4142 9.58579C21.0391 9.21071 20.5304 9 20 9M12 16H17.967C18.2324 15.9956 18.496 16.0441 18.7425 16.1427C18.989 16.2412 19.2134 16.3879 19.4026 16.574C19.5918 16.7602 19.7421 16.9821 19.8447 17.227C19.9472 17.4718 20 17.7346 20 18C20 18.5305 19.7893 19.0392 19.4142 19.4142C19.0391 19.7893 18.5304 20 18 20H17.714" stroke="currentColor" stroke-width="1.5" stroke-linecap="round" stroke-linejoin="round"/>
</svg>
