<svg width="24" height="24" viewBox="0 0 24 24" fill="none" xmlns="http://www.w3.org/2000/svg">
<path d="M8 4H6L3 14M3 14V16.5C3 17.4283 3.36875 18.3185 4.02513 18.9749C4.6815 19.6313 5.57174 20 6.5 20C7.42826 20 8.3185 19.6313 8.97487 18.9749C9.63125 18.3185 10 17.4283 10 16.5V14H3ZM16 4H18L21 14M21 14H14V16.5C14 17.4283 14.3687 18.3185 15.0251 18.9749C15.6815 19.6313 16.5717 20 17.5 20C18.4283 20 19.3185 19.6313 19.9749 18.9749C20.6313 18.3185 21 17.4283 21 16.5V14ZM10 16H14M4 14L8.5 18.5M15 14L19.5 18.5" stroke="currentColor" stroke-width="1.5" stroke-linecap="round" stroke-linejoin="round"/>
</svg>
