<svg width="24" height="24" viewBox="0 0 24 24" fill="none" xmlns="http://www.w3.org/2000/svg">
<path d="M12 12C13.0609 12 14.0783 12.4214 14.8284 13.1716C15.5786 13.9217 16 14.9391 16 16C16 17.0609 15.5786 18.0783 14.8284 18.8284C14.0783 19.5786 13.0609 20 12 20C10.9391 20 9.92172 19.5786 9.17157 18.8284C8.42143 18.0783 8 17.0609 8 16C8 14.9391 8.42143 13.9217 9.17157 13.1716C9.92172 12.4214 10.9391 12 12 12ZM12 12V4M12 4L9 7M12 4L15 7" stroke="currentColor" stroke-width="1.5" stroke-linecap="round" stroke-linejoin="round"/>
</svg>
