<svg width="24" height="24" viewBox="0 0 24 24" fill="none" xmlns="http://www.w3.org/2000/svg">
<path d="M15 16.572V18.992C14.9995 19.5246 14.7876 20.0352 14.4109 20.4116C14.0343 20.7881 13.5236 20.9997 12.991 21H5.01C4.47709 21 3.96599 20.7884 3.58907 20.4116C3.21215 20.0349 3.00027 19.5239 3 18.991V11.01C3 10.4771 3.21163 9.96599 3.58836 9.58907C3.96509 9.21215 4.47609 9.00027 5.009 9H7.963M9.167 4.51097C9.30738 3.9892 9.64903 3.54443 10.117 3.27427C10.5849 3.00411 11.1409 2.93064 11.663 3.06997L19.489 5.16697C20.0108 5.30736 20.4555 5.64901 20.7257 6.11696C20.9959 6.5849 21.0693 7.14092 20.93 7.66297L18.833 15.489C18.6926 16.0108 18.351 16.4555 17.883 16.7257C17.4151 16.9958 16.8591 17.0693 16.337 16.93L8.51 14.833C7.98822 14.6926 7.54345 14.3509 7.27329 13.883C7.00314 13.415 6.92966 12.859 7.069 12.337L9.167 4.51097Z" stroke="currentColor" stroke-width="1.5" stroke-linecap="round" stroke-linejoin="round"/>
</svg>
