<svg width="24" height="24" viewBox="0 0 24 24" fill="none" xmlns="http://www.w3.org/2000/svg">
<path d="M7.14892 7.144C7.07729 7.21324 7.02809 7.30238 7.00766 7.39989C6.98722 7.49739 6.99651 7.59878 7.0343 7.69096C7.0721 7.78313 7.13667 7.86185 7.21967 7.91694C7.30268 7.97204 7.4003 8.00097 7.49992 8C7.62662 8.00001 7.74856 7.95174 7.84092 7.865M3.883 3.875C3.60276 4.15333 3.38044 4.48442 3.22889 4.84915C3.07733 5.21389 2.99954 5.60503 3 6V11.172C3.00012 11.7024 3.2109 12.211 3.586 12.586L11.296 20.296C11.748 20.7479 12.3609 21.0017 13 21.0017C13.6391 21.0017 14.2521 20.7479 14.704 20.296L17.5 17.5M19.505 15.495L20.295 14.705C20.5191 14.4812 20.6968 14.2154 20.8181 13.9228C20.9393 13.6303 21.0017 13.3167 21.0017 13C21.0017 12.6833 20.9393 12.3697 20.8181 12.0772C20.6968 11.7846 20.5191 11.5188 20.295 11.295L12.585 3.585C12.2103 3.21076 11.7026 3.00038 11.173 3H7M3 3L21 21" stroke="currentColor" stroke-width="1.5" stroke-linecap="round" stroke-linejoin="round"/>
</svg>
