<svg width="24" height="24" viewBox="0 0 24 24" fill="none" xmlns="http://www.w3.org/2000/svg">
<path d="M11.2859 11.3C11.0978 11.487 10.9916 11.7411 10.9907 12.0064C10.9899 12.2716 11.0945 12.5264 11.2814 12.7145C11.4684 12.9027 11.7225 13.0089 11.9877 13.0098C12.253 13.0106 12.5078 12.906 12.6959 12.719M8.44003 8.49003C7.50926 9.43196 6.99017 10.7047 6.99664 12.0289C7.00312 13.3531 7.53464 14.6206 8.47457 15.5534C9.41451 16.4862 10.6861 17.008 12.0103 17.0044C13.3345 17.0008 14.6032 16.472 15.538 15.534M16.915 12.923C17.0654 12.123 17.0182 11.2983 16.7774 10.5207C16.5367 9.74305 16.1097 9.03596 15.5336 8.46083C14.9575 7.8857 14.2496 7.45994 13.4716 7.22052C12.6936 6.98111 11.8688 6.93528 11.069 7.08703M5.64888 5.62303C3.95707 7.30689 3.00345 9.59386 2.99783 11.9808C2.9922 14.3678 3.93502 16.6592 5.61888 18.351C7.30274 20.0429 9.58971 20.9965 11.9767 21.0021C14.3636 21.0077 16.6551 20.0649 18.3469 18.381M20.0299 16.068C20.8879 14.3773 21.1901 12.4588 20.8933 10.5863C20.5965 8.71367 19.7159 6.98265 18.3771 5.64012C17.0384 4.29759 15.3098 3.41214 13.4381 3.11008C11.5663 2.80802 9.64699 3.10478 7.95388 3.95803M3 3L21 21" stroke="currentColor" stroke-width="1.5" stroke-linecap="round" stroke-linejoin="round"/>
</svg>
