<svg width="24" height="24" viewBox="0 0 24 24" fill="none" xmlns="http://www.w3.org/2000/svg">
<path fill-rule="evenodd" clip-rule="evenodd" d="M8.26884 2.99217C9.45176 2.50219 10.7196 2.25 12 2.25C13.2804 2.25 14.5482 2.50219 15.7312 2.99217C16.9141 3.48216 17.9889 4.20034 18.8943 5.10571C19.7997 6.01108 20.5178 7.08591 21.0078 8.26884C21.4978 9.45176 21.75 10.7196 21.75 12C21.75 13.2804 21.4978 14.5482 21.0078 15.7312C20.5178 16.9141 19.7997 17.9889 18.8943 18.8943C17.9889 19.7997 16.9141 20.5178 15.7312 21.0078C14.5482 21.4978 13.2804 21.75 12 21.75C10.7196 21.75 9.45176 21.4978 8.26884 21.0078C7.08591 20.5178 6.01108 19.7997 5.10571 18.8943C4.20034 17.9889 3.48216 16.9141 2.99217 15.7312C2.50219 14.5482 2.25 13.2804 2.25 12C2.25 10.7196 2.50219 9.45176 2.99217 8.26884C3.48216 7.08591 4.20034 6.01108 5.10571 5.10571C6.01108 4.20034 7.08591 3.48216 8.26884 2.99217ZM12 3.75C10.9166 3.75 9.8438 3.96339 8.84286 4.37799C7.84193 4.7926 6.93245 5.40029 6.16637 6.16637C5.40029 6.93245 4.79259 7.84193 4.37799 8.84286C3.96339 9.8438 3.75 10.9166 3.75 12C3.75 13.0834 3.96339 14.1562 4.37799 15.1571C4.79259 16.1581 5.40029 17.0675 6.16637 17.8336C6.93245 18.5997 7.84193 19.2074 8.84286 19.622C9.8438 20.0366 10.9166 20.25 12 20.25C13.0834 20.25 14.1562 20.0366 15.1571 19.622C16.1581 19.2074 17.0675 18.5997 17.8336 17.8336C18.5997 17.0675 19.2074 16.1581 19.622 15.1571C20.0366 14.1562 20.25 13.0834 20.25 12C20.25 10.9166 20.0366 9.8438 19.622 8.84286C19.2074 7.84193 18.5997 6.93245 17.8336 6.16637C17.0675 5.40029 16.1581 4.7926 15.1571 4.37799C14.1562 3.96339 13.0834 3.75 12 3.75ZM7.93414 7.93414C9.01247 6.8558 10.475 6.25 12 6.25C13.525 6.25 14.9875 6.8558 16.0659 7.93414C17.1442 9.01247 17.75 10.475 17.75 12C17.75 13.525 17.1442 14.9875 16.0659 16.0659C14.9875 17.1442 13.525 17.75 12 17.75C10.475 17.75 9.01247 17.1442 7.93414 16.0659C6.8558 14.9875 6.25 13.525 6.25 12C6.25 10.475 6.8558 9.01247 7.93414 7.93414ZM12 7.75C10.8728 7.75 9.79183 8.19777 8.9948 8.9948C8.19777 9.79183 7.75 10.8728 7.75 12C7.75 13.1272 8.19777 14.2082 8.9948 15.0052C9.79183 15.8022 10.8728 16.25 12 16.25C13.1272 16.25 14.2082 15.8022 15.0052 15.0052C15.8022 14.2082 16.25 13.1272 16.25 12C16.25 10.8728 15.8022 9.79183 15.0052 8.9948C14.2082 8.19777 13.1272 7.75 12 7.75ZM10.7626 10.7626C11.0908 10.4344 11.5359 10.25 12 10.25C12.4641 10.25 12.9092 10.4344 13.2374 10.7626C13.5656 11.0908 13.75 11.5359 13.75 12C13.75 12.4641 13.5656 12.9092 13.2374 13.2374C12.9092 13.5656 12.4641 13.75 12 13.75C11.5359 13.75 11.0908 13.5656 10.7626 13.2374C10.4344 12.9092 10.25 12.4641 10.25 12C10.25 11.5359 10.4344 11.0908 10.7626 10.7626ZM12 11.75C11.9337 11.75 11.8701 11.7763 11.8232 11.8232C11.7763 11.8701 11.75 11.9337 11.75 12C11.75 12.0663 11.7763 12.1299 11.8232 12.1768C11.8701 12.2237 11.9337 12.25 12 12.25C12.0663 12.25 12.1299 12.2237 12.1768 12.1768C12.2237 12.1299 12.25 12.0663 12.25 12C12.25 11.9337 12.2237 11.8701 12.1768 11.8232C12.1299 11.7763 12.0663 11.75 12 11.75Z" fill="currentColor"/>
</svg>
