<svg width="24" height="24" viewBox="0 0 24 24" fill="none" xmlns="http://www.w3.org/2000/svg">
<path d="M12 7.00012C11.0111 7.00012 10.0444 7.29337 9.22215 7.84277C8.39991 8.39218 7.75904 9.17307 7.3806 10.0867C7.00217 11.0003 6.90315 12.0057 7.09608 12.9756C7.289 13.9455 7.76521 14.8364 8.46447 15.5357C9.16373 16.2349 10.0546 16.7111 11.0246 16.904C11.9945 17.097 12.9998 16.998 13.9134 16.6195C14.827 16.2411 15.6079 15.6002 16.1574 14.778C16.7068 13.9557 17 12.989 17 12.0001M13 3.05514C11.1461 2.84715 9.2733 3.22042 7.64079 4.12331C6.00827 5.0262 4.69667 6.41409 3.88743 8.095C3.07818 9.77591 2.81128 11.6667 3.12365 13.506C3.43601 15.3452 4.31221 17.0419 5.63103 18.3614C6.94985 19.6809 8.64611 20.5579 10.4852 20.8712C12.3242 21.1845 14.2152 20.9186 15.8965 20.1102C17.5779 19.3018 18.9664 17.9909 19.8701 16.3588C20.7738 14.7267 21.148 12.8542 20.941 11.0001M15 9.00012V6.00012L18 3.00012V6.00012H21L18 9.00012H15ZM15 9.00012L12 12.0001M11 12.0001C11 12.2653 11.1054 12.5197 11.2929 12.7072C11.4804 12.8948 11.7348 13.0001 12 13.0001C12.2652 13.0001 12.5196 12.8948 12.7071 12.7072C12.8946 12.5197 13 12.2653 13 12.0001C13 11.7349 12.8946 11.4806 12.7071 11.293C12.5196 11.1055 12.2652 11.0001 12 11.0001C11.7348 11.0001 11.4804 11.1055 11.2929 11.293C11.1054 11.4806 11 11.7349 11 12.0001Z" stroke="currentColor" stroke-width="1.5" stroke-linecap="round" stroke-linejoin="round"/>
</svg>
