<svg width="24" height="24" viewBox="0 0 24 24" fill="none" xmlns="http://www.w3.org/2000/svg">
<path d="M7.46985 12.5L3.21285 7.48101C3.1015 7.34992 3.03009 7.18964 3.00709 7.01918C2.9841 6.84872 3.01049 6.67525 3.08313 6.51934C3.15577 6.36343 3.27161 6.23163 3.4169 6.13958C3.5622 6.04753 3.73085 5.99909 3.90285 6.00001H16.9929C17.3874 5.99909 17.7783 6.07601 18.1431 6.22636C18.5078 6.37671 18.8394 6.59755 19.1187 6.87621C19.398 7.15488 19.6196 7.48591 19.7708 7.85034C19.922 8.21478 19.9999 8.60546 19.9999 9.00001V12C19.9999 13.657 18.6539 15 16.9929 15M6.99985 17H16.9999M10.2899 3H13.7099C14.2022 2.99997 14.6773 3.18155 15.0441 3.50999C15.4109 3.83842 15.6437 4.29062 15.6979 4.78L17.2529 18.78C17.2838 19.0595 17.2554 19.3424 17.1696 19.6102C17.0838 19.878 16.9425 20.1247 16.7549 20.3342C16.5673 20.5437 16.3376 20.7113 16.0809 20.826C15.8241 20.9407 15.5461 21 15.2649 21H8.73485C8.45363 21 8.17557 20.9407 7.91882 20.826C7.66207 20.7113 7.4324 20.5437 7.24479 20.3342C7.05719 20.1247 6.91588 19.878 6.83008 19.6102C6.74428 19.3424 6.71592 19.0595 6.74685 18.78L8.30185 4.78C8.35601 4.29062 8.58878 3.83842 8.9556 3.50999C9.32241 3.18155 9.79749 2.99997 10.2899 3Z" stroke="currentColor" stroke-width="1.5" stroke-linecap="round" stroke-linejoin="round"/>
</svg>
