<svg width="24" height="24" viewBox="0 0 24 24" fill="none" xmlns="http://www.w3.org/2000/svg">
<path d="M5.99994 21L11.9999 16L17.9999 21M11.9999 13V21M13.9999 5L16.9999 10.5M3.29397 13.678L3.45997 13.959C3.97997 14.839 5.08397 15.224 6.06497 14.869L20.307 9.704C20.4475 9.65553 20.5758 9.577 20.6829 9.4739C20.79 9.3708 20.8733 9.2456 20.9271 9.10701C20.9809 8.96842 21.0038 8.81978 20.9943 8.67143C20.9848 8.52308 20.943 8.37858 20.872 8.248L18.252 3.543C18.1118 3.2996 17.8828 3.11992 17.613 3.04162C17.3433 2.96332 17.0537 2.99249 16.805 3.123L16.749 3.155L4.05497 10.773C3.03497 11.386 2.69797 12.67 3.29497 13.678H3.29397Z" stroke="currentColor" stroke-width="1.5" stroke-linecap="round" stroke-linejoin="round"/>
</svg>
