<svg width="24" height="24" viewBox="0 0 24 24" fill="none" xmlns="http://www.w3.org/2000/svg">
<path d="M6 21L12 16L18 21M12 13V21M8.23803 8.26396L4.05503 10.774C3.03503 11.388 2.69803 12.672 3.29503 13.68L3.46003 13.96C3.98003 14.84 5.08403 15.226 6.06503 14.87L12.522 12.53M15.429 11.475L20.307 9.70496C20.4474 9.65645 20.5756 9.57796 20.6826 9.47493C20.7896 9.3719 20.8728 9.24681 20.9266 9.10834C20.9804 8.96988 21.0033 8.82137 20.9939 8.67314C20.9845 8.5249 20.9429 8.3805 20.872 8.24996L18.252 3.54496C18.1118 3.30156 17.8829 3.12187 17.6131 3.04357C17.3433 2.96528 17.0538 2.99444 16.805 3.12496L16.749 3.15696L10.733 6.76696M14 5L17 10.5M3 3L21 21" stroke="currentColor" stroke-width="1.5" stroke-linecap="round" stroke-linejoin="round"/>
</svg>
