<svg width="24" height="24" viewBox="0 0 24 24" fill="none" xmlns="http://www.w3.org/2000/svg">
<path d="M10 10V13.5C9.34968 13.8755 8.8182 14.4265 8.46635 15.0899C8.11451 15.7533 7.95652 16.5023 8.01046 17.2513C8.06439 18.0003 8.32808 18.719 8.77135 19.3252C9.21462 19.9313 9.81957 20.4005 10.517 20.6789C11.2144 20.9573 11.9761 21.0338 12.7149 20.8996C13.4538 20.7654 14.1399 20.426 14.6949 19.9201C15.2498 19.4142 15.6512 18.7623 15.853 18.039C16.0548 17.3156 16.0489 16.5501 15.836 15.83M14 10V5C14 4.46957 13.7893 3.96086 13.4142 3.58579C13.0391 3.21071 12.5304 3 12 3C11.4696 3 10.9609 3.21071 10.5858 3.58579C10.2107 3.96086 10 4.46957 10 5V6M13 9H14M3 3L21 21" stroke="currentColor" stroke-width="1.5" stroke-linecap="round" stroke-linejoin="round"/>
</svg>
