<svg width="24" height="24" viewBox="0 0 24 24" fill="none" xmlns="http://www.w3.org/2000/svg">
<path d="M7 17H11L19 8.99999C19.2627 8.73738 19.4711 8.42558 19.6133 8.08242C19.7554 7.73925 19.8286 7.37144 19.8286 6.99999C19.8286 6.62854 19.7554 6.26073 19.6133 5.91756C19.4711 5.5744 19.2627 5.26261 19 4.99999C18.7374 4.7373 18.4256 4.52891 18.0824 4.38674C17.7393 4.24456 17.3715 4.17139 17 4.17139C16.6285 4.17139 16.2607 4.24456 15.9176 4.38674C15.5744 4.52891 15.2626 4.7373 15 4.99999L7 13V17ZM7 17L4 20M16 6.99998L14.5 5.49998M13 9.99998L11.5 8.49998M10 13L8.5 11.5" stroke="currentColor" stroke-width="1.5" stroke-linecap="round" stroke-linejoin="round"/>
</svg>
