<svg width="24" height="24" viewBox="0 0 24 24" fill="none" xmlns="http://www.w3.org/2000/svg">
<path d="M13 21.0079C13.765 21.008 14.5012 20.7157 15.0579 20.191C15.6147 19.6663 15.9499 18.9486 15.995 18.1849L16 18.0079V14.0079H18C18.7351 14.008 19.4447 13.7382 19.994 13.2497C20.5434 12.7612 20.8942 12.088 20.98 11.3579L20.995 11.1849L21 11.0079L20.98 10.8119L19.974 5.77992C19.593 4.15492 18.472 2.98392 17.164 2.99992L17 3.00792H9C8.75491 3.00798 8.51838 3.09804 8.33533 3.26101C8.15227 3.42397 8.03543 3.64849 8.007 3.89192L8 4.00792L8.001 13.5439C8.001 13.7194 8.04721 13.8919 8.13498 14.0439C8.22275 14.1959 8.34898 14.3222 8.501 14.4099C8.92729 14.6561 9.2864 15.0035 9.54661 15.4213C9.80682 15.8392 9.96013 16.3147 9.993 16.8059L10 17.0079V18.0079C10 18.8036 10.3161 19.5666 10.8787 20.1292C11.4413 20.6918 12.2044 21.0079 13 21.0079Z" fill="currentColor"/>
<path d="M5 14.0079C5.24493 14.0079 5.48134 13.9179 5.66437 13.7552C5.84741 13.5924 5.96434 13.3682 5.993 13.1249L6 13.0079V4.0079C5.99997 3.76297 5.91004 3.52657 5.74728 3.34353C5.58453 3.1605 5.36025 3.04356 5.117 3.0149L5 3.0079H4C3.4951 3.00778 3.00884 3.19863 2.63881 3.54213C2.26878 3.88564 2.04236 4.35639 2.005 4.8599L2 5.0099V12.0099C2.00009 12.5143 2.19077 13.0001 2.53384 13.3698C2.8769 13.7396 3.34702 13.9661 3.85 14.0039L4 14.0089L5 14.0079Z" fill="currentColor"/>
</svg>
