<svg width="24" height="24" viewBox="0 0 24 24" fill="none" xmlns="http://www.w3.org/2000/svg">
<path d="M7 13V7.00001M7 13H4C3.73478 13 3.48043 12.8947 3.29289 12.7071C3.10536 12.5196 3 12.2652 3 12V5.00001C3 4.73479 3.10536 4.48044 3.29289 4.2929C3.48043 4.10537 3.73478 4.00001 4 4.00001M7 13C8.06087 13 9.07828 13.4214 9.82843 14.1716C10.5786 14.9217 11 15.9391 11 17V18C11 18.5304 11.2107 19.0391 11.5858 19.4142C11.9609 19.7893 12.4696 20 13 20C13.5304 20 14.0391 19.7893 14.4142 19.4142C14.7893 19.0391 15 18.5304 15 18V15M17 13H18C18.5304 13 19.0391 12.7893 19.4142 12.4142C19.7893 12.0391 20 11.5304 20 11L19 6.00001C18.705 4.74001 17.89 3.92401 17 4.00001H10C9.43 4.00001 8.898 4.15901 8.444 4.43401M3 3L21 21" stroke="currentColor" stroke-width="1.5" stroke-linecap="round" stroke-linejoin="round"/>
</svg>
