<svg width="24" height="24" viewBox="0 0 24 24" fill="none" xmlns="http://www.w3.org/2000/svg">
<path d="M10 15H12C12.3978 15 12.7794 14.842 13.0607 14.5607C13.342 14.2794 13.5 13.8978 13.5 13.5C13.5 13.1022 13.342 12.7206 13.0607 12.4393C12.7794 12.158 12.3978 12 12 12H10V9H13.5M3 12V12.01M21 12V12.01M12 21V21.01M7.5 4.19995V4.20995M16.5 19.8V19.81M7.5 19.8V19.81M4.2002 16.5V16.51M19.7998 16.5V16.51M19.7998 7.5V7.51M4.2002 7.5V7.51M16.5 4.206C15.1311 3.41784 13.5796 3.00204 12 3" stroke="currentColor" stroke-width="1.5" stroke-linecap="round" stroke-linejoin="round"/>
</svg>
