<svg width="24" height="24" viewBox="0 0 24 24" fill="none" xmlns="http://www.w3.org/2000/svg">
<path d="M8 14.25C8 14.664 8.336 15 8.75 15H10.25C10.4489 15 10.6397 14.921 10.7803 14.7803C10.921 14.6397 11 14.4489 11 14.25V9.75C11 9.55109 10.921 9.36032 10.7803 9.21967C10.6397 9.07902 10.4489 9 10.25 9H8.75C8.55109 9 8.36032 9.07902 8.21967 9.21967C8.07902 9.36032 8 9.55109 8 9.75V11.25C8 11.664 8.336 12 8.75 12H11M14 10.5V13.5C14 13.8978 14.158 14.2794 14.4393 14.5607C14.7206 14.842 15.1022 15 15.5 15C15.8978 15 16.2794 14.842 16.5607 14.5607C16.842 14.2794 17 13.8978 17 13.5V10.5C17 10.1022 16.842 9.72064 16.5607 9.43934C16.2794 9.15804 15.8978 9 15.5 9C15.1022 9 14.7206 9.15804 14.4393 9.43934C14.158 9.72064 14 10.1022 14 10.5ZM3 12C3 13.1819 3.23279 14.3522 3.68508 15.4442C4.13738 16.5361 4.80031 17.5282 5.63604 18.364C6.47177 19.1997 7.46392 19.8626 8.55585 20.3149C9.64778 20.7672 10.8181 21 12 21C13.1819 21 14.3522 20.7672 15.4442 20.3149C16.5361 19.8626 17.5282 19.1997 18.364 18.364C19.1997 17.5282 19.8626 16.5361 20.3149 15.4442C20.7672 14.3522 21 13.1819 21 12C21 9.61305 20.0518 7.32387 18.364 5.63604C16.6761 3.94821 14.3869 3 12 3C9.61305 3 7.32387 3.94821 5.63604 5.63604C3.94821 7.32387 3 9.61305 3 12Z" stroke="currentColor" stroke-width="1.5" stroke-linecap="round" stroke-linejoin="round"/>
</svg>
