<svg width="24" height="24" viewBox="0 0 24 24" fill="none" xmlns="http://www.w3.org/2000/svg">
<path fill-rule="evenodd" clip-rule="evenodd" d="M20.75 7.5C20.75 7.4337 20.7237 7.37011 20.6768 7.32322C20.6299 7.27634 20.5663 7.25 20.5 7.25L12.5 7.25C12.4337 7.25 12.3701 7.27634 12.3232 7.32322C12.2763 7.37011 12.25 7.4337 12.25 7.5L12.25 10.5C12.25 10.6989 12.171 10.8897 12.0303 11.0303L10.5607 12.5L12.0303 13.9697C12.171 14.1103 12.25 14.3011 12.25 14.5L12.25 17.5C12.25 17.5663 12.2763 17.6299 12.3232 17.6768C12.3701 17.7237 12.4337 17.75 12.5 17.75L20.5 17.75C20.5663 17.75 20.6299 17.7237 20.6768 17.6768C20.7237 17.6299 20.75 17.5663 20.75 17.5L20.75 7.5ZM21.7374 6.26256C22.0656 6.59075 22.25 7.03587 22.25 7.5L22.25 17.5C22.25 17.9641 22.0656 18.4092 21.7374 18.7374C21.4092 19.0656 20.9641 19.25 20.5 19.25L12.5 19.25C12.0359 19.25 11.5908 19.0656 11.2626 18.7374C10.9344 18.4092 10.75 17.9641 10.75 17.5L10.75 14.8107L8.96967 13.0303C8.67678 12.7374 8.67678 12.2626 8.96967 11.9697L10.75 10.1893L10.75 7.5C10.75 7.03587 10.9344 6.59075 11.2626 6.26256C11.5908 5.93437 12.0359 5.75 12.5 5.75L20.5 5.75C20.9641 5.75 21.4092 5.93437 21.7374 6.26256ZM6.44454 10.5555C6.96027 11.0712 7.25 11.7707 7.25 12.5C7.25 13.2293 6.96027 13.9288 6.44454 14.4445C6.10976 14.7793 5.69755 15.0189 5.25 15.1458L5.25 20.5C5.25 20.9142 4.91421 21.25 4.5 21.25C4.08579 21.25 3.75 20.9142 3.75 20.5L3.75 15.1458C3.30245 15.0189 2.89024 14.7793 2.55546 14.4445C2.03973 13.9288 1.75 13.2293 1.75 12.5C1.75 11.7707 2.03973 11.0712 2.55546 10.5555C2.89024 10.2207 3.30245 9.98112 3.75 9.85424L3.75 4.5C3.75 4.08579 4.08579 3.75 4.5 3.75C4.91421 3.75 5.25 4.08579 5.25 4.5L5.25 9.85424C5.69755 9.98112 6.10976 10.2207 6.44454 10.5555ZM5.75 12.5C5.75 12.1685 5.6183 11.8505 5.38388 11.6161C5.14946 11.3817 4.83152 11.25 4.5 11.25C4.16848 11.25 3.85054 11.3817 3.61612 11.6161C3.3817 11.8505 3.25 12.1685 3.25 12.5C3.25 12.8315 3.3817 13.1495 3.61612 13.3839C3.85054 13.6183 4.16848 13.75 4.5 13.75C4.83152 13.75 5.14946 13.6183 5.38388 13.3839C5.6183 13.1495 5.75 12.8315 5.75 12.5Z" fill="currentColor"/>
</svg>
