<svg width="24" height="24" viewBox="0 0 24 24" fill="none" xmlns="http://www.w3.org/2000/svg">
<path d="M3 12V12.01M21 12V12.01M12 21V21.01M12 3V3.01M7.5 4.19995V4.20995M16.5 4.19995V4.20995M16.5 19.8V19.81M7.5 19.8V19.81M4.2002 16.5V16.51M19.7998 16.5V16.51M19.7998 7.5V7.51M4.2002 7.5V7.51M10 11V13C10 13.5304 10.2107 14.0391 10.5858 14.4142C10.9609 14.7893 11.4696 15 12 15C12.5304 15 13.0391 14.7893 13.4142 14.4142C13.7893 14.0391 14 13.5304 14 13V11C14 10.4696 13.7893 9.96086 13.4142 9.58579C13.0391 9.21071 12.5304 9 12 9C11.4696 9 10.9609 9.21071 10.5858 9.58579C10.2107 9.96086 10 10.4696 10 11Z" stroke="currentColor" stroke-width="1.5" stroke-linecap="round" stroke-linejoin="round"/>
</svg>
