<svg width="24" height="24" viewBox="0 0 24 24" fill="none" xmlns="http://www.w3.org/2000/svg">
<path d="M8 9H9.5C9.89782 9 10.2794 9.15804 10.5607 9.43934C10.842 9.72064 11 10.1022 11 10.5C11 10.8978 10.842 11.2794 10.5607 11.5607C10.2794 11.842 9.89782 12 9.5 12M9.5 12H9M9.5 12C9.89782 12 10.2794 12.158 10.5607 12.4393C10.842 12.7206 11 13.1022 11 13.5C11 13.8978 10.842 14.2794 10.5607 14.5607C10.2794 14.842 9.89782 15 9.5 15H8M3 12V12.01M7.5 4.19995V4.20995M7.5 19.8V19.81M4.2002 16.5V16.51M4.2002 7.5V7.51M12 21C14.3869 21 16.6761 20.0518 18.364 18.364C20.0518 16.6761 21 14.3869 21 12C21 9.61305 20.0518 7.32387 18.364 5.63604C16.6761 3.94821 14.3869 3 12 3M14 10.5V13.5C14 13.8978 14.158 14.2794 14.4393 14.5607C14.7206 14.842 15.1022 15 15.5 15C15.8978 15 16.2794 14.842 16.5607 14.5607C16.842 14.2794 17 13.8978 17 13.5V10.5C17 10.1022 16.842 9.72064 16.5607 9.43934C16.2794 9.15804 15.8978 9 15.5 9C15.1022 9 14.7206 9.15804 14.4393 9.43934C14.158 9.72064 14 10.1022 14 10.5Z" stroke="currentColor" stroke-width="1.5" stroke-linecap="round" stroke-linejoin="round"/>
</svg>
