<svg width="24" height="24" viewBox="0 0 24 24" fill="none" xmlns="http://www.w3.org/2000/svg">
<path d="M14 12C14 12.5304 14.2107 13.0391 14.5858 13.4142C14.9609 13.7893 15.4696 14 16 14C16.5304 14 17.0391 13.7893 17.4142 13.4142C17.7893 13.0391 18 12.5304 18 12C18 11.4696 17.7893 10.9609 17.4142 10.5858C17.0391 10.2107 16.5304 10 16 10C15.4696 10 14.9609 10.2107 14.5858 10.5858C14.2107 10.9609 14 11.4696 14 12Z" stroke="currentColor" stroke-width="1.5" stroke-linecap="round" stroke-linejoin="round"/>
<path d="M2 12C2 10.4087 2.63214 8.88258 3.75736 7.75736C4.88258 6.63214 6.4087 6 8 6H16C17.5913 6 19.1174 6.63214 20.2426 7.75736C21.3679 8.88258 22 10.4087 22 12C22 13.5913 21.3679 15.1174 20.2426 16.2426C19.1174 17.3679 17.5913 18 16 18H8C6.4087 18 4.88258 17.3679 3.75736 16.2426C2.63214 15.1174 2 13.5913 2 12Z" stroke="currentColor" stroke-width="1.5" stroke-linecap="round" stroke-linejoin="round"/>
</svg>
