<svg width="24" height="24" viewBox="0 0 24 24" fill="none" xmlns="http://www.w3.org/2000/svg">
<path d="M9 10C9 11.8565 8.68393 13.637 8.12132 14.9497C7.55871 16.2625 6.79565 17 6 17C5.20435 17 4.44129 16.2625 3.87868 14.9497C3.31607 13.637 3 11.8565 3 10C3 8.14348 3.31607 6.36301 3.87868 5.05025C4.44129 3.7375 5.20435 3 6 3M9 10C9 8.14348 8.68393 6.36301 8.12132 5.05025C7.55871 3.7375 6.79565 3 6 3M9 10V20L12 18L15 21L18 19L21 20V10C21 6.134 19.657 3 18 3H6M6 10H6.01" stroke="currentColor" stroke-width="1.5" stroke-linecap="round" stroke-linejoin="round"/>
</svg>
