<svg width="24" height="24" viewBox="0 0 24 24" fill="none" xmlns="http://www.w3.org/2000/svg">
<path d="M1.49902 8H4.49902M2.99902 8V16M13 16V8L15 13L17 8V16M20 8V16H22.5M8.5 8C8.89782 8 9.27936 8.15804 9.56066 8.43934C9.84196 8.72064 10 9.10218 10 9.5V14.5C10 14.8978 9.84196 15.2794 9.56066 15.5607C9.27936 15.842 8.89782 16 8.5 16C8.10218 16 7.72064 15.842 7.43934 15.5607C7.15804 15.2794 7 14.8978 7 14.5V9.5C7 9.10218 7.15804 8.72064 7.43934 8.43934C7.72064 8.15804 8.10218 8 8.5 8Z" stroke="currentColor" stroke-width="1.5" stroke-linecap="round" stroke-linejoin="round"/>
</svg>
