<svg width="24" height="24" viewBox="0 0 24 24" fill="none" xmlns="http://www.w3.org/2000/svg">
<path d="M7 4V21M4 4V7C4 7.39397 4.0776 7.78407 4.22836 8.14805C4.37913 8.51203 4.6001 8.84274 4.87868 9.12132C5.15726 9.3999 5.48797 9.62087 5.85195 9.77164C6.21593 9.9224 6.60603 10 7 10C7.39397 10 7.78407 9.9224 8.14805 9.77164C8.51203 9.62087 8.84274 9.3999 9.12132 9.12132C9.3999 8.84274 9.62087 8.51203 9.77164 8.14805C9.9224 7.78407 10 7.39397 10 7V4M17 12C16.2044 12 15.4413 11.5786 14.8787 10.8284C14.3161 10.0783 14 9.06087 14 8C14 6.93913 14.3161 5.92172 14.8787 5.17157C15.4413 4.42143 16.2044 4 17 4C17.7956 4 18.5587 4.42143 19.1213 5.17157C19.6839 5.92172 20 6.93913 20 8C20 9.06087 19.6839 10.0783 19.1213 10.8284C18.5587 11.5786 17.7956 12 17 12ZM17 12V21" stroke="currentColor" stroke-width="1.5" stroke-linecap="round" stroke-linejoin="round"/>
</svg>
