<svg width="24" height="24" viewBox="0 0 24 24" fill="none" xmlns="http://www.w3.org/2000/svg">
<path d="M10 10.0001L3 17.0001V21.0001H7L14 14.0001M14.5 5.5L18.5 9.5M7 3L12 8.00006L16 4.00006C16.5304 3.46962 17.2499 3.17163 18 3.17163C18.7501 3.17163 19.4696 3.46962 20 4.00006C20.5304 4.53049 20.8284 5.24991 20.8284 6.00006C20.8284 6.7502 20.5304 7.46963 20 8.00006L16 12.0001L21 17M5 5L3 7L8 12M7 8L5.5 9.5M19 19L17 21L12 16M16 17L14.5 18.5M3 3L21 21" stroke="currentColor" stroke-width="1.5" stroke-linecap="round" stroke-linejoin="round"/>
</svg>
