<svg width="24" height="24" viewBox="0 0 24 24" fill="none" xmlns="http://www.w3.org/2000/svg">
<path d="M12 12C11.4696 12 10.9609 11.7893 10.5858 11.4142C10.2107 11.0391 10 10.5304 10 10C10 9.46957 10.2107 8.96086 10.5858 8.58579C10.9609 8.21071 11.4696 8 12 8C12.5304 8 13.0391 8.21071 13.4142 8.58579C13.7893 8.96086 14 9.46957 14 10C14 10.5304 13.7893 11.0391 13.4142 11.4142C13.0391 11.7893 12.5304 12 12 12ZM12 12V16M4 12C3.46957 12 2.96086 11.7893 2.58579 11.4142C2.21071 11.0391 2 10.5304 2 10C2 9.46957 2.21071 8.96086 2.58579 8.58579C2.96086 8.21071 3.46957 8 4 8C4.53043 8 5.03914 8.21071 5.41421 8.58579C5.78929 8.96086 6 9.46957 6 10C6 10.5304 5.78929 11.0391 5.41421 11.4142C5.03914 11.7893 4.53043 12 4 12ZM4 12V16M20 12C19.4696 12 18.9609 11.7893 18.5858 11.4142C18.2107 11.0391 18 10.5304 18 10C18 9.46957 18.2107 8.96086 18.5858 8.58579C18.9609 8.21071 19.4696 8 20 8C20.5304 8 21.0391 8.21071 21.4142 8.58579C21.7893 8.96086 22 9.46957 22 10C22 10.5304 21.7893 11.0391 21.4142 11.4142C21.0391 11.7893 20.5304 12 20 12ZM20 12V16M2 16H22" stroke="currentColor" stroke-width="1.5" stroke-linecap="round" stroke-linejoin="round"/>
</svg>
