<svg width="24" height="24" viewBox="0 0 24 24" fill="none" xmlns="http://www.w3.org/2000/svg">
<path d="M18 16C18.5304 16 19.0391 16.2107 19.4142 16.5858C19.7893 16.9609 20 17.4696 20 18C20 18.5304 19.7893 19.0391 19.4142 19.4142C19.0391 19.7893 18.5304 20 18 20C17.4696 20 16.9609 19.7893 16.5858 19.4142C16.2107 19.0391 16 18.5304 16 18M18 16C17.4696 16 16.9609 16.2107 16.5858 16.5858C16.2107 16.9609 16 17.4696 16 18M18 16V8M16 18H8M8 18C8 17.4696 7.78929 16.9609 7.41421 16.5858C7.03914 16.2107 6.53043 16 6 16M8 18C8 18.5304 7.78929 19.0391 7.41421 19.4142C7.03914 19.7893 6.53043 20 6 20C5.46957 20 4.96086 19.7893 4.58579 19.4142C4.21071 19.0391 4 18.5304 4 18C4 17.4696 4.21071 16.9609 4.58579 16.5858C4.96086 16.2107 5.46957 16 6 16M6 16V8M8 6C8 5.46957 7.78929 4.96086 7.41421 4.58579C7.03914 4.21071 6.53043 4 6 4C5.46957 4 4.96086 4.21071 4.58579 4.58579C4.21071 4.96086 4 5.46957 4 6C4 6.53043 4.21071 7.03914 4.58579 7.41421C4.96086 7.78929 5.46957 8 6 8M8 6C8 6.53043 7.78929 7.03914 7.41421 7.41421C7.03914 7.78929 6.53043 8 6 8M8 6H16M16 6C16 5.46957 16.2107 4.96086 16.5858 4.58579C16.9609 4.21071 17.4696 4 18 4C18.5304 4 19.0391 4.21071 19.4142 4.58579C19.7893 4.96086 20 5.46957 20 6C20 6.53043 19.7893 7.03914 19.4142 7.41421C19.0391 7.78929 18.5304 8 18 8M16 6C16 6.53043 16.2107 7.03914 16.5858 7.41421C16.9609 7.78929 17.4696 8 18 8M7.5 7.5L10.5 10.5M13.5 13.5L16.5 16.5M16.5 7.5L13.5 10.5M10.5 13.5L7.5 16.5M14 12C14 11.4696 13.7893 10.9609 13.4142 10.5858C13.0391 10.2107 12.5304 10 12 10C11.4696 10 10.9609 10.2107 10.5858 10.5858C10.2107 10.9609 10 11.4696 10 12C10 12.5304 10.2107 13.0391 10.5858 13.4142C10.9609 13.7893 11.4696 14 12 14C12.5304 14 13.0391 13.7893 13.4142 13.4142C13.7893 13.0391 14 12.5304 14 12Z" stroke="currentColor" stroke-width="1.5" stroke-linecap="round" stroke-linejoin="round"/>
</svg>
