<svg width="24" height="24" viewBox="0 0 24 24" fill="none" xmlns="http://www.w3.org/2000/svg">
<path d="M6 4C6 4.53043 5.78929 5.03914 5.41421 5.41421C5.03914 5.78929 4.53043 6 4 6C3.46957 6 2.96086 5.78929 2.58579 5.41421C2.21071 5.03914 2 4.53043 2 4C2 3.46957 2.21071 2.96086 2.58579 2.58579C2.96086 2.21071 3.46957 2 4 2C4.53043 2 5.03914 2.21071 5.41421 2.58579C5.78929 2.96086 6 3.46957 6 4ZM6 4H13C13.2652 4 13.5196 4.10536 13.7071 4.29289C13.8946 4.48043 14 4.73478 14 5V15C14 15.2652 13.8946 15.5196 13.7071 15.7071C13.5196 15.8946 13.2652 16 13 16H11M18 10C18 10.5304 18.2107 11.0391 18.5858 11.4142C18.9609 11.7893 19.4696 12 20 12C20.5304 12 21.0391 11.7893 21.4142 11.4142C21.7893 11.0391 22 10.5304 22 10C22 9.46957 21.7893 8.96086 21.4142 8.58579C21.0391 8.21071 20.5304 8 20 8C19.4696 8 18.9609 8.21071 18.5858 8.58579C18.2107 8.96086 18 9.46957 18 10ZM18 10H14M6 12C6 12.5304 5.78929 13.0391 5.41421 13.4142C5.03914 13.7893 4.53043 14 4 14C3.46957 14 2.96086 13.7893 2.58579 13.4142C2.21071 13.0391 2 12.5304 2 12C2 11.4696 2.21071 10.9609 2.58579 10.5858C2.96086 10.2107 3.46957 10 4 10C4.53043 10 5.03914 10.2107 5.41421 10.5858C5.78929 10.9609 6 11.4696 6 12ZM6 12H9C9.26522 12 9.51957 12.1054 9.70711 12.2929C9.89464 12.4804 10 12.7348 10 13V19C10 19.2652 9.89464 19.5196 9.70711 19.7071C9.51957 19.8946 9.26522 20 9 20H6M6 20C6 20.5304 5.78929 21.0391 5.41421 21.4142C5.03914 21.7893 4.53043 22 4 22C3.46957 22 2.96086 21.7893 2.58579 21.4142C2.21071 21.0391 2 20.5304 2 20C2 19.4696 2.21071 18.9609 2.58579 18.5858C2.96086 18.2107 3.46957 18 4 18C4.53043 18 5.03914 18.2107 5.41421 18.5858C5.78929 18.9609 6 19.4696 6 20Z" stroke="currentColor" stroke-width="1.5" stroke-linecap="round" stroke-linejoin="round"/>
</svg>
