<svg width="24" height="24" viewBox="0 0 24 24" fill="none" xmlns="http://www.w3.org/2000/svg">
<path d="M21 12.8C20.477 12.298 19.828 12 19.125 12C17.398 12 16 13.791 16 16C16 18.209 17.398 20 19.125 20C19.828 20 20.477 19.702 20.999 19.2M15 16H19M7 5C7 5.53043 6.78929 6.03914 6.41421 6.41421C6.03914 6.78929 5.53043 7 5 7C4.46957 7 3.96086 6.78929 3.58579 6.41421C3.21071 6.03914 3 5.53043 3 5C3 4.46957 3.21071 3.96086 3.58579 3.58579C3.96086 3.21071 4.46957 3 5 3C5.53043 3 6.03914 3.21071 6.41421 3.58579C6.78929 3.96086 7 4.46957 7 5ZM7 5H15M7 5V13C7 13.7956 7.31607 14.5587 7.87868 15.1213C8.44129 15.6839 9.20435 16 10 16H11M15 5C15 5.53043 15.2107 6.03914 15.5858 6.41421C15.9609 6.78929 16.4696 7 17 7C17.5304 7 18.0391 6.78929 18.4142 6.41421C18.7893 6.03914 19 5.53043 19 5C19 4.46957 18.7893 3.96086 18.4142 3.58579C18.0391 3.21071 17.5304 3 17 3C16.4696 3 15.9609 3.21071 15.5858 3.58579C15.2107 3.96086 15 4.46957 15 5Z" stroke="currentColor" stroke-width="1.5" stroke-linecap="round" stroke-linejoin="round"/>
</svg>
