<svg width="24" height="24" viewBox="0 0 24 24" fill="none" xmlns="http://www.w3.org/2000/svg">
<path d="M18 14C18.7826 14 19.548 14.2296 20.2014 14.6603C20.8549 15.091 21.3676 15.7039 21.6761 16.4232C21.9846 17.1424 22.0753 17.9363 21.9371 18.7066C21.7988 19.4769 21.4376 20.1898 20.8983 20.7568C20.3589 21.3239 19.665 21.7202 18.9026 21.8968C18.1402 22.0734 17.3427 22.0225 16.6089 21.7503C15.8752 21.4782 15.2374 20.9967 14.7745 20.3657C14.3117 19.7346 14.0441 18.9816 14.005 18.2L14 18L14.005 17.8C14.0563 16.775 14.4996 15.809 15.2432 15.1017C15.9868 14.3944 16.9738 14 18 14Z" fill="currentColor"/>
<path d="M16.707 2.293C16.8792 2.46519 16.9826 2.69429 16.9979 2.93732C17.0131 3.18034 16.9392 3.4206 16.79 3.613L16.707 3.707L15.414 5H19C19.7652 4.99996 20.5015 5.29233 21.0582 5.81728C21.615 6.34224 21.9501 7.06011 21.995 7.824L22 8V11C21.9997 11.2549 21.9021 11.5 21.7271 11.6854C21.5522 11.8707 21.313 11.9822 21.0586 11.9972C20.8041 12.0121 20.5536 11.9293 20.3581 11.7657C20.1627 11.6021 20.0371 11.3701 20.007 11.117L20 11V8C19.9999 7.75507 19.91 7.51866 19.7473 7.33563C19.5845 7.15259 19.3602 7.03566 19.117 7.007L19 7H15.415L16.707 8.293C16.8863 8.47296 16.9905 8.71443 16.9982 8.96838C17.006 9.22233 16.9168 9.46971 16.7487 9.66028C16.5807 9.85084 16.3464 9.97031 16.0935 9.9944C15.8406 10.0185 15.588 9.94541 15.387 9.79L15.293 9.707L12.293 6.707C12.1788 6.59544 12.0936 6.45769 12.0448 6.30572C11.9961 6.15375 11.9851 5.99216 12.013 5.835L12.049 5.689L12.089 5.585C12.147 5.459 12.229 5.345 12.334 5.251L15.293 2.293C15.4805 2.10553 15.7348 2.00021 16 2.00021C16.2651 2.00021 16.5195 2.10553 16.707 2.293Z" fill="currentColor"/>
<path d="M3 12C3.24493 12 3.48134 12.09 3.66437 12.2527C3.84741 12.4155 3.96434 12.6397 3.993 12.883L4 13V16C4.00003 16.2449 4.08996 16.4813 4.25272 16.6644C4.41547 16.8474 4.63975 16.9643 4.883 16.993L5 17H8.585L7.293 15.707C7.12082 15.5348 7.01739 15.3057 7.00211 15.0627C6.98683 14.8197 7.06075 14.5794 7.21 14.387L7.293 14.293C7.46519 14.1208 7.69429 14.0174 7.93732 14.0021C8.18035 13.9868 8.4206 14.0607 8.613 14.21L8.707 14.293L11.707 17.293C11.8212 17.4046 11.9063 17.5423 11.9551 17.6943C12.0039 17.8462 12.0149 18.0078 11.987 18.165L11.951 18.311L11.911 18.415C11.853 18.5419 11.7697 18.6556 11.666 18.749L8.707 21.707C8.52704 21.8863 8.28557 21.9905 8.03162 21.9982C7.77767 22.006 7.53029 21.9168 7.33972 21.7488C7.14916 21.5807 7.02969 21.3464 7.0056 21.0935C6.98151 20.8406 7.05459 20.588 7.21 20.387L7.293 20.293L8.584 19H5C4.23479 19 3.49849 18.7077 2.94174 18.1827C2.38499 17.6578 2.04989 16.9399 2.005 16.176L2 16V13C2 12.7348 2.10536 12.4804 2.29289 12.2929C2.48043 12.1054 2.73478 12 3 12Z" fill="currentColor"/>
<path d="M6 2C6.78261 2 7.54802 2.22958 8.20144 2.66029C8.85486 3.09101 9.36758 3.70394 9.67609 4.42318C9.98459 5.14241 10.0753 5.93634 9.93708 6.70664C9.79883 7.47694 9.43765 8.18976 8.89827 8.75681C8.3589 9.32386 7.66503 9.72023 6.90261 9.89683C6.14018 10.0734 5.34271 10.0225 4.60895 9.75033C3.87519 9.47817 3.23739 8.99674 2.77454 8.36567C2.31169 7.73461 2.04413 6.98163 2.005 6.2L2 6L2.005 5.8C2.05631 4.77504 2.4996 3.80901 3.24319 3.10172C3.98677 2.39444 4.97376 2 6 2Z" fill="currentColor"/>
</svg>
