<svg width="24" height="24" viewBox="0 0 24 24" fill="none" xmlns="http://www.w3.org/2000/svg">
<path d="M19.9999 6C20.2547 6.00028 20.4999 6.09788 20.6852 6.27285C20.8706 6.44782 20.9821 6.68695 20.997 6.94139C21.012 7.19584 20.9292 7.44638 20.7656 7.64183C20.602 7.83729 20.37 7.9629 20.1169 7.993L19.9999 8H19.9189L18.9999 19C18.9999 19.7652 18.7075 20.5015 18.1826 21.0583C17.6576 21.615 16.9398 21.9501 16.1759 21.995L15.9999 22H7.99987C6.40187 22 5.09587 20.751 5.00787 19.25L5.00287 19.083L4.07987 8H3.99987C3.74499 7.99972 3.49984 7.90212 3.3145 7.72715C3.12916 7.55218 3.01763 7.31305 3.0027 7.05861C2.98776 6.80416 3.07054 6.55362 3.23413 6.35817C3.39772 6.16271 3.62977 6.0371 3.88287 6.007L3.99987 6H19.9999ZM10.5109 11.14C10.3013 11.0153 10.0535 10.9714 9.81388 11.0166C9.57428 11.0619 9.35946 11.1931 9.20982 11.3856C9.06018 11.5781 8.98603 11.8187 9.00133 12.062C9.01662 12.3054 9.1203 12.5347 9.29287 12.707L10.5849 14L9.29287 15.293L9.20987 15.387C9.05446 15.588 8.98138 15.8406 9.00547 16.0935C9.02956 16.3464 9.14902 16.5807 9.33959 16.7488C9.53016 16.9168 9.77754 17.006 10.0315 16.9982C10.2854 16.9905 10.5269 16.8863 10.7069 16.707L11.9999 15.415L13.2929 16.707L13.3869 16.79C13.5879 16.9454 13.8405 17.0185 14.0934 16.9944C14.3463 16.9703 14.5806 16.8508 14.7486 16.6603C14.9167 16.4697 15.0059 16.2223 14.9981 15.9684C14.9903 15.7144 14.8862 15.473 14.7069 15.293L13.4149 14L14.7069 12.707L14.7899 12.613C14.9453 12.412 15.0184 12.1594 14.9943 11.9065C14.9702 11.6536 14.8507 11.4193 14.6601 11.2512C14.4696 11.0832 14.2222 10.994 13.9683 11.0018C13.7143 11.0095 13.4728 11.1137 13.2929 11.293L11.9999 12.585L10.7069 11.293L10.6129 11.21L10.5109 11.14Z" fill="currentColor"/>
<path d="M13.9999 2C14.5303 2 15.039 2.21071 15.4141 2.58579C15.7892 2.96086 15.9999 3.46957 15.9999 4C15.9996 4.25488 15.902 4.50003 15.727 4.68537C15.5521 4.8707 15.3129 4.98223 15.0585 4.99717C14.804 5.01211 14.5535 4.92933 14.358 4.76574C14.1626 4.60214 14.037 4.3701 14.0069 4.117L13.9999 4H9.99988L9.99288 4.117C9.96277 4.3701 9.83716 4.60214 9.64171 4.76574C9.44626 4.92933 9.19571 5.01211 8.94127 4.99717C8.68683 4.98223 8.4477 4.8707 8.27273 4.68537C8.09776 4.50003 8.00016 4.25488 7.99988 4C7.99972 3.49542 8.19028 3.00943 8.53337 2.63945C8.87647 2.26947 9.34672 2.04284 9.84988 2.005L9.99988 2H13.9999Z" fill="currentColor"/>
</svg>
