<svg width="24" height="24" viewBox="0 0 24 24" fill="none" xmlns="http://www.w3.org/2000/svg">
<path d="M16 5L19 8L17 9L21 13L18 14L22 18H13M15 21V18M8 13L6 11M8 12L10 10M8 21V8M5.82395 15.9999C5.38642 15.9743 4.95982 15.8532 4.57415 15.645C4.18849 15.4367 3.85312 15.1466 3.59165 14.7948C3.33018 14.4431 3.14896 14.0383 3.06073 13.609C2.97249 13.1797 2.9794 12.7363 3.08095 12.3099C2.71842 12.008 2.4322 11.6249 2.24554 11.1916C2.05888 10.7583 1.97703 10.2872 2.00665 9.81631C2.03627 9.34547 2.17651 8.88825 2.41599 8.48177C2.65548 8.0753 2.98745 7.73104 3.38495 7.47695C3.03632 6.8576 2.9189 6.1346 3.05361 5.43676C3.18832 4.73891 3.56641 4.11156 4.12051 3.66648C4.67462 3.22139 5.36874 2.98749 6.07922 3.00644C6.78969 3.02539 7.47036 3.29596 7.99995 3.76995C8.52966 3.29671 9.21011 3.02678 9.92018 3.0082C10.6303 2.98962 11.3239 3.22359 11.8776 3.66848C12.4314 4.11336 12.8093 4.7403 12.9441 5.4377C13.0789 6.1351 12.962 6.85772 12.6139 7.47695C13.0115 7.73096 13.3436 8.07515 13.5831 8.48158C13.8227 8.88801 13.9631 9.34521 13.9928 9.81606C14.0225 10.2869 13.9407 10.7581 13.7542 11.1914C13.5676 11.6248 13.2814 12.008 12.9189 12.3099C13.0239 12.7507 13.0277 13.2096 12.9299 13.652C12.8322 14.0945 12.6355 14.5091 12.3546 14.8646C12.0737 15.2202 11.716 15.5075 11.3081 15.705C10.9003 15.9025 10.4531 16.005 9.99995 16.0049H5.99995L5.82395 15.9999Z" stroke="currentColor" stroke-width="1.5" stroke-linecap="round" stroke-linejoin="round"/>
</svg>
