<svg width="24" height="24" viewBox="0 0 24 24" fill="none" xmlns="http://www.w3.org/2000/svg">
<path d="M12 13L10 11M12 12L14 10M12 21V8M9.82395 15.9999C9.38642 15.9743 8.95982 15.8532 8.57415 15.645C8.18849 15.4367 7.85312 15.1466 7.59165 14.7948C7.33018 14.4431 7.14896 14.0383 7.06073 13.609C6.97249 13.1797 6.9794 12.7363 7.08095 12.3099C6.71842 12.008 6.4322 11.6249 6.24554 11.1916C6.05888 10.7583 5.97703 10.2872 6.00665 9.81631C6.03627 9.34547 6.17651 8.88825 6.41599 8.48177C6.65548 8.0753 6.98745 7.73104 7.38495 7.47695C7.03632 6.8576 6.9189 6.1346 7.05361 5.43676C7.18832 4.73891 7.56641 4.11156 8.12051 3.66648C8.67462 3.22139 9.36874 2.98749 10.0792 3.00644C10.7897 3.02539 11.4704 3.29596 11.9999 3.76995C12.5297 3.29671 13.2101 3.02678 13.9202 3.0082C14.6303 2.98962 15.3239 3.22359 15.8776 3.66848C16.4314 4.11336 16.8093 4.7403 16.9441 5.4377C17.0789 6.1351 16.962 6.85772 16.6139 7.47695C17.0115 7.73096 17.3436 8.07515 17.5831 8.48158C17.8227 8.88801 17.9631 9.34521 17.9928 9.81606C18.0225 10.2869 17.9407 10.7581 17.7542 11.1914C17.5676 11.6248 17.2814 12.008 16.919 12.3099C17.0239 12.7507 17.0277 13.2096 16.9299 13.652C16.8322 14.0945 16.6355 14.5091 16.3546 14.8646C16.0737 15.2202 15.716 15.5075 15.3081 15.705C14.9003 15.9025 14.4531 16.005 13.9999 16.0049H9.99995L9.82395 15.9999Z" stroke="currentColor" stroke-width="1.5" stroke-linecap="round" stroke-linejoin="round"/>
</svg>
