<svg width="24" height="24" viewBox="0 0 24 24" fill="none" xmlns="http://www.w3.org/2000/svg">
<path d="M7 21L9 17M13 21V17L10 14M10 14L11 8M10 14L8.1731 12.782C7.8297 12.5531 7.5655 12.2237 7.41672 11.8388C7.26795 11.4538 7.24188 11.0323 7.3421 10.632L7.6221 9.515C7.73021 9.08249 7.97974 8.6985 8.33104 8.42401C8.68234 8.14953 9.11528 8.00029 9.5611 8H11M11 8L14 12L17 14M11 8L15.0001 9L18.0001 7M17 12V21M16 20H18M11 4C11 4.26522 11.1054 4.51957 11.2929 4.70711C11.4804 4.89464 11.7348 5 12 5C12.2652 5 12.5196 4.89464 12.7071 4.70711C12.8946 4.51957 13 4.26522 13 4C13 3.73478 12.8946 3.48043 12.7071 3.29289C12.5196 3.10536 12.2652 3 12 3C11.7348 3 11.4804 3.10536 11.2929 3.29289C11.1054 3.48043 11 3.73478 11 4Z" stroke="currentColor" stroke-width="1.5" stroke-linecap="round" stroke-linejoin="round"/>
</svg>
