<svg width="24" height="24" viewBox="0 0 24 24" fill="none" xmlns="http://www.w3.org/2000/svg">
<path d="M7.82499 7.83019L2.25699 17.1252C2.08988 17.4146 2.00145 17.7427 2.0005 18.0768C1.99954 18.411 2.08609 18.7396 2.25153 19.0299C2.41698 19.3203 2.65555 19.5622 2.94353 19.7317C3.2315 19.9013 3.55884 19.9924 3.89299 19.9962H20M21.998 18.0062C21.9855 17.6965 21.898 17.3945 21.743 17.1262L13.637 3.59019C13.4664 3.30869 13.2262 3.07593 12.9394 2.91439C12.6527 2.75284 12.3291 2.66797 12 2.66797C11.6709 2.66797 11.3473 2.75284 11.0605 2.91439C10.7738 3.07593 10.5335 3.30869 10.363 3.59019L9.33499 5.30819M3 3.00024L21 21.0002" stroke="currentColor" stroke-width="1.5" stroke-linecap="round" stroke-linejoin="round"/>
</svg>
