<svg width="24" height="24" viewBox="0 0 24 24" fill="none" xmlns="http://www.w3.org/2000/svg">
<path d="M20.118 3H3.89296C3.38319 3.0036 2.88329 3.14086 2.44316 3.39808C2.00304 3.65531 1.63809 4.02349 1.38477 4.46587C1.13145 4.90826 0.998606 5.40935 0.999516 5.91913C1.00043 6.42891 1.13505 6.92953 1.38996 7.371L9.50595 20.92C9.76559 21.3487 10.1313 21.7032 10.5678 21.9494C11.0043 22.1957 11.4969 22.3253 11.998 22.3258C12.4992 22.3263 12.9921 22.1977 13.429 21.9523C13.866 21.7069 14.2325 21.3531 14.493 20.925L22.603 7.386C22.8609 6.94539 22.9985 6.44474 23.0021 5.93419C23.0057 5.42365 22.875 4.92113 22.6233 4.47696C22.3715 4.03279 22.0075 3.66256 21.5676 3.40335C21.1277 3.14414 20.6285 3.00505 20.118 3Z" fill="currentColor"/>
</svg>
