<svg width="24" height="24" viewBox="0 0 24 24" fill="none" xmlns="http://www.w3.org/2000/svg">
<path d="M10.363 20.405L2.25699 6.871C2.08988 6.58162 2.00145 6.25352 2.0005 5.91936C1.99954 5.58519 2.08609 5.2566 2.25153 4.96627C2.41698 4.67593 2.65555 4.43397 2.94353 4.26445C3.2315 4.09493 3.55884 4.00375 3.89299 4H20.107C20.4411 4.00375 20.7685 4.09493 21.0564 4.26445C21.3444 4.43397 21.583 4.67593 21.7484 4.96627C21.9139 5.2566 22.0004 5.58519 21.9995 5.91936C21.9985 6.25352 21.9101 6.58162 21.743 6.871L13.637 20.405C13.4664 20.6865 13.2262 20.9193 12.9394 21.0808C12.6527 21.2423 12.3291 21.3272 12 21.3272C11.6709 21.3272 11.3473 21.2423 11.0605 21.0808C10.7738 20.9193 10.5335 20.6865 10.363 20.405Z" stroke="currentColor" stroke-width="1.5" stroke-linecap="round" stroke-linejoin="round"/>
</svg>
