<svg width="24" height="24" viewBox="0 0 24 24" fill="none" xmlns="http://www.w3.org/2000/svg">
<path d="M10.363 3.59119L2.25699 17.1252C2.08988 17.4146 2.00145 17.7427 2.0005 18.0768C1.99954 18.411 2.08609 18.7396 2.25153 19.0299C2.41698 19.3203 2.65555 19.5622 2.94353 19.7317C3.2315 19.9013 3.55884 19.9924 3.89299 19.9962H20.107C20.441 19.9923 20.7682 19.9011 21.056 19.7317C21.3438 19.5622 21.5823 19.3204 21.7477 19.0302C21.9131 18.74 21.9997 18.4116 21.9989 18.0776C21.9981 17.7435 21.9098 17.4155 21.743 17.1262L13.637 3.59019C13.4664 3.30869 13.2262 3.07593 12.9394 2.91439C12.6527 2.75284 12.3291 2.66797 12 2.66797C11.6709 2.66797 11.3473 2.75284 11.0605 2.91439C10.7738 3.07593 10.5335 3.30869 10.363 3.59019V3.59119Z" stroke="currentColor" stroke-width="1.5" stroke-linecap="round" stroke-linejoin="round"/>
</svg>
