<svg width="24" height="24" viewBox="0 0 24 24" fill="none" xmlns="http://www.w3.org/2000/svg">
<path d="M18.69 12.0272L13.636 3.59019C13.4654 3.30869 13.2252 3.07593 12.9384 2.91439C12.6517 2.75284 12.3281 2.66797 11.999 2.66797C11.6699 2.66797 11.3463 2.75284 11.0595 2.91439C10.7728 3.07593 10.5325 3.30869 10.362 3.59019L2.25699 17.1252C2.08988 17.4146 2.00145 17.7427 2.0005 18.0768C1.99954 18.411 2.08609 18.7396 2.25153 19.0299C2.41698 19.3203 2.65555 19.5622 2.94353 19.7317C3.2315 19.9013 3.55884 19.9924 3.89299 19.9962H12M16 19.0002H22M19 16.0002V22.0002" stroke="currentColor" stroke-width="1.5" stroke-linecap="round" stroke-linejoin="round"/>
</svg>
