<svg width="24" height="24" viewBox="0 0 24 24" fill="none" xmlns="http://www.w3.org/2000/svg">
<path d="M12.0001 1.66992C11.4992 1.66986 11.0067 1.79894 10.5702 2.0447C10.1337 2.29045 9.7679 2.64459 9.50815 3.07292L1.39815 16.6099C1.14054 17.0504 1.00311 17.5507 0.999581 18.061C0.996056 18.5712 1.12657 19.0734 1.37806 19.5174C1.62955 19.9613 1.99321 20.3315 2.43266 20.5908C2.8721 20.8501 3.37193 20.9894 3.88215 20.9949H20.1071C20.6169 20.9913 21.1168 20.8541 21.5569 20.5968C21.9971 20.3396 22.362 19.9714 22.6153 19.529C22.8687 19.0867 23.0015 18.5856 23.0006 18.0758C22.9997 17.566 22.865 17.0654 22.6101 16.6239L14.4941 3.07792C14.2346 2.64857 13.8687 2.29341 13.4318 2.04677C12.995 1.80012 12.5018 1.67033 12.0001 1.66992Z" fill="currentColor"/>
</svg>
