<svg width="24" height="24" viewBox="0 0 24 24" fill="none" xmlns="http://www.w3.org/2000/svg">
<path d="M11.1322 2.50392L7.13217 9.50392C7.04531 9.65598 6.9999 9.82819 7.00049 10.0033C7.00109 10.1784 7.04765 10.3503 7.13554 10.5018C7.22342 10.6532 7.34954 10.779 7.50128 10.8664C7.65301 10.9538 7.82505 10.9999 8.00017 10.9999H16.0002C16.1753 10.9999 16.3473 10.9538 16.4991 10.8664C16.6508 10.779 16.7769 10.6532 16.8648 10.5018C16.9527 10.3503 16.9992 10.1784 16.9998 10.0033C17.0004 9.82819 16.955 9.65598 16.8682 9.50392L12.8682 2.50392C12.7807 2.35098 12.6543 2.22386 12.5019 2.13546C12.3495 2.04705 12.1764 2.00049 12.0002 2.00049C11.824 2.00049 11.6509 2.04705 11.4985 2.13546C11.346 2.22386 11.2197 2.35098 11.1322 2.50392Z" fill="currentColor"/>
<path d="M17 12.9999C17.7826 12.9999 18.548 13.2295 19.2014 13.6602C19.8549 14.0909 20.3676 14.7038 20.6761 15.4231C20.9846 16.1423 21.0753 16.9362 20.9371 17.7065C20.7988 18.4768 20.4376 19.1896 19.8983 19.7567C19.3589 20.3237 18.665 20.7201 17.9026 20.8967C17.1402 21.0733 16.3427 21.0224 15.6089 20.7502C14.8752 20.478 14.2374 19.9966 13.7745 19.3656C13.3117 18.7345 13.0441 17.9815 13.005 17.1999L13 16.9999L13.005 16.7999C13.0563 15.7749 13.4996 14.8089 14.2432 14.1016C14.9868 13.3943 15.9738 12.9999 17 12.9999Z" fill="currentColor"/>
<path d="M9 12.9999H5C4.46957 12.9999 3.96086 13.2106 3.58579 13.5857C3.21071 13.9607 3 14.4694 3 14.9999V18.9999C3 19.5303 3.21071 20.039 3.58579 20.4141C3.96086 20.7892 4.46957 20.9999 5 20.9999H9C9.53043 20.9999 10.0391 20.7892 10.4142 20.4141C10.7893 20.039 11 19.5303 11 18.9999V14.9999C11 14.4694 10.7893 13.9607 10.4142 13.5857C10.0391 13.2106 9.53043 12.9999 9 12.9999Z" fill="currentColor"/>
</svg>
