<svg width="24" height="24" viewBox="0 0 24 24" fill="none" xmlns="http://www.w3.org/2000/svg">
<path d="M9.97402 20.9998H18.026C18.2026 20.9997 18.3758 20.9517 18.5272 20.8609C18.6786 20.77 18.8025 20.6398 18.8856 20.484C18.9688 20.3283 19.0081 20.1529 18.9994 19.9766C18.9906 19.8002 18.9342 19.6296 18.836 19.4828L14.811 13.4348C14.7223 13.3009 14.6018 13.1911 14.4603 13.1151C14.3188 13.0392 14.1606 12.9994 14 12.9994C13.8394 12.9994 13.6813 13.0392 13.5398 13.1151C13.3983 13.1911 13.2778 13.3009 13.189 13.4348L9.16402 19.4828C9.06659 19.6297 9.01071 19.8002 9.00233 19.9763C8.99394 20.1524 9.03335 20.3275 9.11638 20.483C9.19941 20.6385 9.32297 20.7686 9.47396 20.8596C9.62495 20.9506 9.79774 20.999 9.97402 20.9998Z" stroke="currentColor" stroke-width="1.5" stroke-linecap="round" stroke-linejoin="round"/>
<path d="M4.97999 15.9997H19.02C19.562 15.9997 20 15.5567 20 15.0107C19.9995 14.8215 19.9455 14.6364 19.844 14.4767L12.824 3.4537C12.7362 3.31447 12.6146 3.19974 12.4705 3.12023C12.3265 3.04072 12.1646 2.99902 12 2.99902C11.8354 2.99902 11.6735 3.04072 11.5294 3.12023C11.3853 3.19974 11.2637 3.31447 11.176 3.4537L4.15599 14.4767C4.01697 14.6977 3.96989 14.9643 4.02483 15.2196C4.07977 15.4748 4.23236 15.6985 4.44999 15.8427C4.60776 15.9452 4.79186 15.9997 4.97999 15.9997Z" stroke="currentColor" stroke-width="1.5" stroke-linecap="round" stroke-linejoin="round"/>
</svg>
