<svg width="24" height="24" viewBox="0 0 24 24" fill="none" xmlns="http://www.w3.org/2000/svg">
<path d="M6 16L9 18M12 17L20 5M17 10L19 11M9 19C9 19.5304 9.21071 20.0391 9.58579 20.4142C9.96086 20.7893 10.4696 21 11 21C11.5304 21 12.0391 20.7893 12.4142 20.4142C12.7893 20.0391 13 19.5304 13 19C13 18.4696 12.7893 17.9609 12.4142 17.5858C12.0391 17.2107 11.5304 17 11 17C10.4696 17 9.96086 17.2107 9.58579 17.5858C9.21071 17.9609 9 18.4696 9 19ZM9.59198 4.6951L12.898 6.7991C13.0425 6.89099 13.1674 7.01054 13.2656 7.15086C13.3638 7.29119 13.4333 7.44953 13.4701 7.61679C13.5069 7.78406 13.5103 7.95694 13.48 8.12552C13.4498 8.29409 13.3866 8.45504 13.294 8.5991L10.2 13.4101C10.0141 13.6994 9.72121 13.9033 9.38535 13.9772C9.04949 14.051 8.69805 13.9888 8.40798 13.8041L5.10198 11.7001C4.95746 11.6082 4.83252 11.4887 4.73434 11.3483C4.63616 11.208 4.56667 11.0497 4.52987 10.8824C4.49308 10.7151 4.48969 10.5423 4.51991 10.3737C4.55013 10.2051 4.61337 10.0442 4.70598 9.9001L7.79998 5.0901C7.98583 4.80076 8.27875 4.59685 8.61461 4.52301C8.95047 4.44917 9.3019 4.5104 9.59198 4.6951Z" stroke="currentColor" stroke-width="1.5" stroke-linecap="round" stroke-linejoin="round"/>
</svg>
