<svg width="24" height="24" viewBox="0 0 24 24" fill="none" xmlns="http://www.w3.org/2000/svg">
<path d="M5 17C5 17.5304 5.21071 18.0391 5.58579 18.4142C5.96086 18.7893 6.46957 19 7 19C7.53043 19 8.03914 18.7893 8.41421 18.4142C8.78929 18.0391 9 17.5304 9 17M5 17C5 16.4696 5.21071 15.9609 5.58579 15.5858C5.96086 15.2107 6.46957 15 7 15C7.53043 15 8.03914 15.2107 8.41421 15.5858C8.78929 15.9609 9 16.4696 9 17M5 17H3V6C3 5.73478 3.10536 5.48043 3.29289 5.29289C3.48043 5.10536 3.73478 5 4 5H5M9 17H15M15.585 15.5859C15.3991 15.7715 15.2516 15.9918 15.1508 16.2344C15.0501 16.477 14.9982 16.737 14.9979 16.9997C14.9975 17.5301 15.2077 18.039 15.5825 18.4144C15.9572 18.7899 16.4658 19.001 16.9962 19.0015C17.5267 19.002 18.0356 18.7917 18.411 18.4169M8.96 5H13V9M13 13V17M21 17V11M21 11H15M21 11L18 6H13M3 3L21 21" stroke="currentColor" stroke-width="1.5" stroke-linecap="round" stroke-linejoin="round"/>
</svg>
