<svg width="24" height="24" viewBox="0 0 24 24" fill="none" xmlns="http://www.w3.org/2000/svg">
<path d="M6.342 6.34408C4.895 7.79208 4 9.79108 4 12.0001H12V18C12 18.5304 12.2107 19.0391 12.5858 19.4142C12.9609 19.7893 13.4696 20 14 20C14.5304 20 15.0391 19.7893 15.4142 19.4142C15.7893 19.0391 16 18.5304 16 18M8.724 4.69908C9.94247 4.15215 11.2785 3.91899 12.6102 4.02087C13.9419 4.12274 15.2269 4.5564 16.348 5.28229C17.4691 6.00819 18.3906 7.00322 19.0285 8.17663C19.6665 9.35004 20.0004 10.6645 20 12.0001H16M3 3L21 21" stroke="currentColor" stroke-width="1.5" stroke-linecap="round" stroke-linejoin="round"/>
</svg>
