<svg width="24" height="24" viewBox="0 0 24 24" fill="none" xmlns="http://www.w3.org/2000/svg">
<path d="M12 3C14.3869 3 16.6761 3.94821 18.364 5.63604C20.0518 7.32387 21 9.61305 21 12C21 12.2449 20.91 12.4813 20.7473 12.6644C20.5845 12.8474 20.3603 12.9643 20.117 12.993L20 13H13V18C13.0003 18.2549 13.0979 18.5 13.2728 18.6854C13.4478 18.8707 13.687 18.9822 13.9414 18.9972C14.1958 19.0121 14.4464 18.9293 14.6418 18.7657C14.8373 18.6021 14.9629 18.3701 14.993 18.117L15 18C15 17.7348 15.1054 17.4804 15.2929 17.2929C15.4804 17.1054 15.7348 17 16 17C16.2652 17 16.5196 17.1054 16.7071 17.2929C16.8946 17.4804 17 17.7348 17 18C17.0008 18.7809 16.697 19.5313 16.1532 20.0918C15.6095 20.6523 14.8686 20.9787 14.088 21.0016C13.3075 21.0245 12.5487 20.7422 11.973 20.2145C11.3973 19.6869 11.0501 18.9556 11.005 18.176L11 18V13H4C3.75507 13 3.51866 12.91 3.33563 12.7473C3.15259 12.5845 3.03566 12.3603 3.007 12.117L3 12C3 9.61305 3.94821 7.32387 5.63604 5.63604C7.32387 3.94821 9.61305 3 12 3Z" fill="currentColor"/>
</svg>
