<svg width="24" height="24" viewBox="0 0 24 24" fill="none" xmlns="http://www.w3.org/2000/svg">
<path d="M7.02689 11.4769C6.92355 12.4603 7.11415 13.4524 7.57458 14.3275C8.03501 15.2026 8.74461 15.9216 9.61363 16.3935C10.4827 16.8653 11.4721 17.0689 12.4568 16.9785C13.4415 16.888 14.3773 16.5076 15.1459 15.8854C15.9144 15.2631 16.4812 14.4269 16.7745 13.4825C17.0678 12.5382 17.0745 11.528 16.7938 10.5799C16.513 9.63168 15.9574 8.78804 15.1972 8.15562C14.437 7.5232 13.5063 7.1304 12.5229 7.02689C11.4468 6.91023 10.3621 7.14944 9.43489 7.70789M5.6362 5.63589C4.0776 7.19561 3.14581 9.27324 3.01766 11.4745C2.88952 13.6758 3.57392 15.8475 4.94101 17.5775C6.30809 19.3076 8.26272 20.4756 10.434 20.8598C12.6052 21.2441 14.842 20.8179 16.7198 19.6622C18.5976 18.5064 19.9858 16.7015 20.621 14.59C21.2561 12.4785 21.094 10.2073 20.1654 8.20734C19.2368 6.20742 17.6064 4.61798 15.5834 3.74064C13.5605 2.86331 11.2859 2.75914 9.1912 3.44789M17 4.99988C17 5.26509 17.1054 5.51945 17.2929 5.70698C17.4804 5.89452 17.7348 5.99988 18 5.99988C18.2652 5.99988 18.5196 5.89452 18.7071 5.70698C18.8946 5.51945 19 5.26509 19 4.99988C19 4.73466 18.8946 4.48031 18.7071 4.29277C18.5196 4.10523 18.2652 3.99988 18 3.99988C17.7348 3.99988 17.4804 4.10523 17.2929 4.29277C17.1054 4.48031 17 4.73466 17 4.99988ZM11 11.9999C11 12.2651 11.1054 12.5194 11.2929 12.707C11.4804 12.8945 11.7348 12.9999 12 12.9999C12.2652 12.9999 12.5196 12.8945 12.7071 12.707C12.8946 12.5194 13 12.2651 13 11.9999C13 11.7347 12.8946 11.4803 12.7071 11.2928C12.5196 11.1052 12.2652 10.9999 12 10.9999C11.7348 10.9999 11.4804 11.1052 11.2929 11.2928C11.1054 11.4803 11 11.7347 11 11.9999ZM8 15.9999C8 16.2651 8.10536 16.5194 8.29289 16.707C8.48043 16.8945 8.73478 16.9999 9 16.9999C9.26522 16.9999 9.51957 16.8945 9.70711 16.707C9.89464 16.5194 10 16.2651 10 15.9999C10 15.7347 9.89464 15.4803 9.70711 15.2928C9.51957 15.1052 9.26522 14.9999 9 14.9999C8.73478 14.9999 8.48043 15.1052 8.29289 15.2928C8.10536 15.4803 8 15.7347 8 15.9999Z" stroke="currentColor" stroke-width="1.5" stroke-linecap="round" stroke-linejoin="round"/>
</svg>
