<svg width="24" height="24" viewBox="0 0 24 24" fill="none" xmlns="http://www.w3.org/2000/svg">
<path d="M6.20117 18.7441C6.46536 17.9453 6.9747 17.2502 7.65675 16.7575C8.33879 16.2649 9.15881 15.9998 10.0002 16.0001H14.0002C14.841 15.9998 15.6605 16.2645 16.3423 16.7566C17.0241 17.2486 17.5335 17.943 17.7982 18.7411M12 13.0001C12.7956 13.0001 13.5587 12.6841 14.1213 12.1214C14.6839 11.5588 15 10.7958 15 10.0001C15 9.20447 14.6839 8.44141 14.1213 7.8788C13.5587 7.31619 12.7956 7.00012 12 7.00012C11.2044 7.00012 10.4413 7.31619 9.87868 7.8788C9.31607 8.44141 9 9.20447 9 10.0001C9 10.7958 9.31607 11.5588 9.87868 12.1214C10.4413 12.6841 11.2044 13.0001 12 13.0001ZM19.875 6.27008C20.575 6.66808 21.005 7.41308 21 8.21808V15.5021C21 16.3111 20.557 17.0571 19.842 17.4501L13.092 21.7201C12.7574 21.9038 12.3818 22.0001 12 22.0001C11.6182 22.0001 11.2426 21.9038 10.908 21.7201L4.158 17.4501C3.80817 17.2589 3.51612 16.9772 3.31241 16.6346C3.1087 16.2919 3.0008 15.9007 3 15.5021V8.21708C3 7.40808 3.443 6.66308 4.158 6.27008L10.908 2.29008C11.2525 2.10011 11.6396 2.00049 12.033 2.00049C12.4264 2.00049 12.8135 2.10011 13.158 2.29008L19.908 6.27008H19.875Z" stroke="currentColor" stroke-width="1.5" stroke-linecap="round" stroke-linejoin="round"/>
</svg>
