<svg width="24" height="24" viewBox="0 0 24 24" fill="none" xmlns="http://www.w3.org/2000/svg">
<path d="M6 20.7031V20.0001C6 18.9393 6.42143 17.9218 7.17157 17.1717C7.92172 16.4216 8.93913 16.0001 10 16.0001H14C15.0609 16.0001 16.0783 16.4216 16.8284 17.1717C17.5786 17.9218 18 18.9393 18 20.0001V20.7071M13.1629 2.16807L21.1839 7.99607C21.8779 8.50007 22.1679 9.39307 21.9029 10.2081L18.8389 19.6381C18.7098 20.0353 18.4583 20.3816 18.1204 20.6271C17.7825 20.8727 17.3756 21.005 16.9579 21.0051H7.04186C6.62415 21.005 6.21719 20.8727 5.87928 20.6271C5.54138 20.3816 5.28989 20.0353 5.16086 19.6381L2.09686 10.2081C1.96771 9.81068 1.96771 9.3826 2.09688 8.98522C2.22605 8.58783 2.47774 8.24156 2.81586 7.99607L10.8369 2.16807C11.1749 1.92237 11.582 1.79004 11.9999 1.79004C12.4177 1.79004 12.8249 1.92237 13.1629 2.16807ZM12 13.0001C12.7956 13.0001 13.5587 12.6841 14.1213 12.1214C14.6839 11.5588 15 10.7958 15 10.0001C15 9.20447 14.6839 8.44141 14.1213 7.8788C13.5587 7.31619 12.7956 7.00012 12 7.00012C11.2044 7.00012 10.4413 7.31619 9.87868 7.8788C9.31607 8.44141 9 9.20447 9 10.0001C9 10.7958 9.31607 11.5588 9.87868 12.1214C10.4413 12.6841 11.2044 13.0001 12 13.0001Z" stroke="currentColor" stroke-width="1.5" stroke-linecap="round" stroke-linejoin="round"/>
</svg>
