<svg width="24" height="24" viewBox="0 0 24 24" fill="none" xmlns="http://www.w3.org/2000/svg">
<path d="M8.17993 8.18893C8.37237 8.80501 8.71068 9.36555 9.16611 9.8229C9.62155 10.2802 10.1807 10.6209 10.7959 10.8159M14.3029 10.2709C14.7802 9.93424 15.1779 9.49713 15.4682 8.9903C15.7584 8.48348 15.9342 7.91924 15.983 7.33723C16.0319 6.75523 15.9528 6.16958 15.7511 5.62144C15.5495 5.0733 15.2302 4.57596 14.8158 4.16439C14.4014 3.75281 13.9019 3.43697 13.3524 3.23907C12.8029 3.04117 12.2168 2.966 11.6351 3.01885C11.0534 3.07171 10.4904 3.25129 9.98558 3.545C9.48075 3.8387 9.04636 4.2394 8.71293 4.71893M6 21V19C6 17.9391 6.42143 16.9217 7.17157 16.1716C7.92172 15.4214 8.93913 15 10 15H14C14.412 15 14.81 15.062 15.183 15.178M17.816 17.796C17.936 18.176 18 18.581 18 19V21M3 3L21 21" stroke="currentColor" stroke-width="1.5" stroke-linecap="round" stroke-linejoin="round"/>
</svg>
