<svg width="24" height="24" viewBox="0 0 24 24" fill="none" xmlns="http://www.w3.org/2000/svg">
<path d="M9 5V4C9 3.73478 9.10536 3.48043 9.29289 3.29289C9.48043 3.10536 9.73478 3 10 3H14C14.2652 3 14.5196 3.10536 14.7071 3.29289C14.8946 3.48043 15 3.73478 15 4V5C15 5.26522 14.8946 5.51957 14.7071 5.70711C14.5196 5.89464 14.2652 6 14 6M14 6H10M14 6V6.98C14.0001 7.40482 14.1509 7.81582 14.4256 8.13991C14.7003 8.46401 15.081 8.68018 15.5 8.75C16.366 8.894 17 9.643 17 10.52V13M8.7 8.705C8.63424 8.72377 8.56746 8.7388 8.5 8.75C7.634 8.894 7 9.643 7 10.52V19C7 19.5304 7.21071 20.0391 7.58579 20.4142C7.96086 20.7893 8.46957 21 9 21H15C15.5304 21 16.0391 20.7893 16.4142 20.4142C16.7893 20.0391 17 19.5304 17 19V17M7 12H12M16 12H17M7 18H17M11 15H13M3 3L21 21" stroke="currentColor" stroke-width="1.5" stroke-linecap="round" stroke-linejoin="round"/>
</svg>
