<svg width="24" height="24" viewBox="0 0 24 24" fill="none" xmlns="http://www.w3.org/2000/svg">
<path d="M14 6C14.2652 6 14.5196 5.89464 14.7071 5.70711C14.8946 5.51957 15 5.26522 15 5V4C15 3.73478 14.8946 3.48043 14.7071 3.29289C14.5196 3.10536 14.2652 3 14 3H10C9.73478 3 9.48043 3.10536 9.29289 3.29289C9.10536 3.48043 9 3.73478 9 4V5C9 5.26522 9.10536 5.51957 9.29289 5.70711C9.48043 5.89464 9.73478 6 10 6M14 6H10M14 6V6.98C14.0001 7.40482 14.1509 7.81582 14.4256 8.13991C14.7003 8.46401 15.081 8.68018 15.5 8.75C16.366 8.894 17 9.643 17 10.52V19C17 19.5304 16.7893 20.0391 16.4142 20.4142C16.0391 20.7893 15.5304 21 15 21H9C8.46957 21 7.96086 20.7893 7.58579 20.4142C7.21071 20.0391 7 19.5304 7 19V10.52C7 9.643 7.634 8.894 8.5 8.75C9.366 8.606 10 7.857 10 6.98V6M7 12H17M7 18H17M11 15H13" stroke="currentColor" stroke-width="1.5" stroke-linecap="round" stroke-linejoin="round"/>
</svg>
