<svg width="24" height="24" viewBox="0 0 24 24" fill="none" xmlns="http://www.w3.org/2000/svg">
<path d="M4.67499 4.68005C2.50499 9.45605 2.61299 14.2721 4.99999 20.0001M19 4C20.959 7.917 21.383 11.834 20.272 16.232M19.289 19.283C19.196 19.521 19.1 19.76 19 20M11.696 11.696C11.791 11.953 11.896 12.229 12.016 12.527C13 15 13 16 14 16H15M8 16C9.5 16 11 14 12 12.5M14.022 9.986C14.651 9.404 15.326 9 16 9M3 3L21 21" stroke="currentColor" stroke-width="1.5" stroke-linecap="round" stroke-linejoin="round"/>
</svg>
