<svg width="24" height="24" viewBox="0 0 24 24" fill="none" xmlns="http://www.w3.org/2000/svg">
<path d="M6.68 6.73299C6.49512 6.90456 6.25223 6.99993 6 6.99999H4C3.73478 6.99999 3.48043 6.89464 3.29289 6.7071C3.10536 6.51956 3 6.26521 3 5.99999V3.99999C3 3.72399 3.112 3.47299 3.293 3.29199M20.72 20.693C20.6268 20.7899 20.515 20.8671 20.3913 20.9199C20.2676 20.9726 20.1345 20.9999 20 21H18C17.7348 21 17.4804 20.8946 17.2929 20.7071C17.1054 20.5196 17 20.2652 17 20V18C17 17.718 17.116 17.464 17.304 17.282M5 7V17M19 7V15M9 5H17M7 19H17M3 3L21 21M17 4C17 3.73478 17.1054 3.48043 17.2929 3.29289C17.4804 3.10536 17.7348 3 18 3H20C20.2652 3 20.5196 3.10536 20.7071 3.29289C20.8946 3.48043 21 3.73478 21 4V6C21 6.26522 20.8946 6.51957 20.7071 6.70711C20.5196 6.89464 20.2652 7 20 7H18C17.7348 7 17.4804 6.89464 17.2929 6.70711C17.1054 6.51957 17 6.26522 17 6V4ZM3 18C3 17.7348 3.10536 17.4804 3.29289 17.2929C3.48043 17.1054 3.73478 17 4 17H6C6.26522 17 6.51957 17.1054 6.70711 17.2929C6.89464 17.4804 7 17.7348 7 18V20C7 20.2652 6.89464 20.5196 6.70711 20.7071C6.51957 20.8946 6.26522 21 6 21H4C3.73478 21 3.48043 20.8946 3.29289 20.7071C3.10536 20.5196 3 20.2652 3 20V18Z" stroke="currentColor" stroke-width="1.5" stroke-linecap="round" stroke-linejoin="round"/>
</svg>
