<svg width="24" height="24" viewBox="0 0 24 24" fill="none" xmlns="http://www.w3.org/2000/svg">
<path d="M18 4H12C11.2044 4 10.4413 4.31607 9.87868 4.87868C9.31607 5.44129 9 6.20435 9 7V17C9 17.7956 9.31607 18.5587 9.87868 19.1213C10.4413 19.6839 11.2044 20 12 20H18C18.7956 20 19.5587 19.6839 20.1213 19.1213C20.6839 18.5587 21 17.7956 21 17V7C21 6.20435 20.6839 5.44129 20.1213 4.87868C19.5587 4.31607 18.7956 4 18 4Z" fill="currentColor"/>
<path d="M7 6C7.24493 6.00003 7.48134 6.08996 7.66437 6.25272C7.84741 6.41547 7.96434 6.63975 7.993 6.883L8 7V17C7.99972 17.2549 7.90212 17.5 7.72715 17.6854C7.55218 17.8707 7.31305 17.9822 7.05861 17.9972C6.80416 18.0121 6.55362 17.9293 6.35817 17.7657C6.16271 17.6021 6.0371 17.3701 6.007 17.117L6 17V7C6 6.73478 6.10536 6.48043 6.29289 6.29289C6.48043 6.10536 6.73478 6 7 6Z" fill="currentColor"/>
<path d="M4 7C4.24493 7.00003 4.48134 7.08996 4.66437 7.25272C4.84741 7.41547 4.96434 7.63975 4.993 7.883L5 8V16C4.99972 16.2549 4.90212 16.5 4.72715 16.6854C4.55218 16.8707 4.31305 16.9822 4.05861 16.9972C3.80416 17.0121 3.55362 16.9293 3.35817 16.7657C3.16271 16.6021 3.0371 16.3701 3.007 16.117L3 16V8C3 7.73478 3.10536 7.48043 3.29289 7.29289C3.48043 7.10536 3.73478 7 4 7Z" fill="currentColor"/>
</svg>
