<svg width="24" height="24" viewBox="0 0 24 24" fill="none" xmlns="http://www.w3.org/2000/svg">
<path d="M10.184 6.162C10.3441 5.81508 10.6002 5.52128 10.922 5.31536C11.2439 5.10943 11.6179 4.99999 12 5H18C18.5304 5 19.0391 5.21071 19.4142 5.58579C19.7893 5.96086 20 6.46957 20 7V16M18.815 18.827C18.5586 18.9414 18.2808 19.0004 18 19H12C11.4696 19 10.9609 18.7893 10.5858 18.4142C10.2107 18.0391 10 17.5304 10 17V10M7 7V17M4 8V16M3 3L21 21" stroke="currentColor" stroke-width="1.5" stroke-linecap="round" stroke-linejoin="round"/>
</svg>
