<svg width="24" height="24" viewBox="0 0 24 24" fill="none" xmlns="http://www.w3.org/2000/svg">
<path d="M3 3L21 21M20.325 16.328C20.522 16.2603 20.693 16.1327 20.814 15.9631C20.935 15.7935 21.0001 15.5903 21 15.382V8.618C20.9999 8.44761 20.9563 8.28006 20.8733 8.13127C20.7902 7.98247 20.6706 7.85736 20.5256 7.7678C20.3806 7.67824 20.2152 7.62721 20.045 7.61954C19.8748 7.61188 19.7054 7.64783 19.553 7.724L15 10V11V8C15 7.46957 14.7893 6.96086 14.4142 6.58579C14.0391 6.21071 13.5304 6 13 6H10M15 15V16C15 16.5304 14.7893 17.0391 14.4142 17.4142C14.0391 17.7893 13.5304 18 13 18H5C4.46957 18 3.96086 17.7893 3.58579 17.4142C3.21071 17.0391 3 16.5304 3 16V8C3 7.46957 3.21071 6.96086 3.58579 6.58579C3.96086 6.21071 4.46957 6 5 6H6" stroke="currentColor" stroke-width="1.5" stroke-linecap="round" stroke-linejoin="round"/>
</svg>
