<svg width="24" height="24" viewBox="0 0 24 24" fill="none" xmlns="http://www.w3.org/2000/svg">
<path d="M8.33477 8.388C8.10816 9.57856 7.99599 10.7881 7.99977 12C7.99977 16.97 9.78977 21 11.9998 21C13.6218 21 15.0178 18.828 15.6458 15.706M15.9998 12C15.9998 7.03 14.2098 3 11.9998 3C10.9648 3 10.0208 3.885 9.31077 5.337M5.64977 5.62296C4.80188 6.45505 4.12712 7.44677 3.66439 8.54092C3.20167 9.63508 2.96015 10.81 2.95374 11.998C2.94734 13.1859 3.17619 14.3634 3.6271 15.4625C4.078 16.5616 4.74204 17.5605 5.58091 18.4017C6.41978 19.2429 7.41688 19.9096 8.51472 20.3636C9.61255 20.8175 10.7894 21.0496 11.9774 21.0464C13.1653 21.0433 14.3409 20.805 15.4364 20.3453C16.5318 19.8856 17.5253 19.2136 18.3598 18.368M20.0438 16.04C20.8948 14.3483 21.1906 12.4314 20.8891 10.5619C20.5875 8.69243 19.704 6.96571 18.3642 5.62748C17.0244 4.28925 15.2967 3.40771 13.4268 3.10832C11.557 2.80893 9.6404 3.10695 7.94977 3.95996M8.31977 8.349C5.18377 8.974 2.99977 10.374 2.99977 12C2.99977 14.21 7.02977 16 11.9998 16C13.2858 16 14.5098 15.88 15.6158 15.664M18.6748 14.684C20.1198 13.973 20.9998 13.031 20.9998 12C20.9998 9.79 16.9698 8 11.9998 8M2.99977 3L20.9998 21" stroke="currentColor" stroke-width="1.5" stroke-linecap="round" stroke-linejoin="round"/>
</svg>
