<svg width="24" height="24" viewBox="0 0 24 24" fill="none" xmlns="http://www.w3.org/2000/svg">
<path d="M16 3.93702C14.247 3.06729 12.2583 2.79261 10.3352 3.1546C8.41205 3.51659 6.6593 4.49552 5.34249 5.94309C4.02567 7.39066 3.21654 9.22797 3.03768 11.1767C2.85882 13.1254 3.31998 15.0793 4.35128 16.7424C5.38259 18.4055 6.92785 19.6871 8.75295 20.3931C10.578 21.0991 12.5835 21.1911 14.4656 20.655C16.3476 20.1189 18.0036 18.984 19.1828 17.4222C20.3619 15.8604 20.9998 13.9569 21 12M20 4L16.5 14L14 16M11 12C11 12.2652 11.1054 12.5196 11.2929 12.7071C11.4804 12.8946 11.7348 13 12 13C12.2652 13 12.5196 12.8946 12.7071 12.7071C12.8946 12.5196 13 12.2652 13 12C13 11.7348 12.8946 11.4804 12.7071 11.2929C12.5196 11.1054 12.2652 11 12 11C11.7348 11 11.4804 11.1054 11.2929 11.2929C11.1054 11.4804 11 11.7348 11 12ZM19 4C19 4.26522 19.1054 4.51957 19.2929 4.70711C19.4804 4.89464 19.7348 5 20 5C20.2652 5 20.5196 4.89464 20.7071 4.70711C20.8946 4.51957 21 4.26522 21 4C21 3.73478 20.8946 3.48043 20.7071 3.29289C20.5196 3.10536 20.2652 3 20 3C19.7348 3 19.4804 3.10536 19.2929 3.29289C19.1054 3.48043 19 3.73478 19 4Z" stroke="currentColor" stroke-width="1.5" stroke-linecap="round" stroke-linejoin="round"/>
</svg>
