<svg width="24" height="24" viewBox="0 0 24 24" fill="none" xmlns="http://www.w3.org/2000/svg">
<path d="M7 12C7 13.3261 7.52678 14.5979 8.46447 15.5355M7 12C7 10.6739 7.52678 9.40215 8.46447 8.46447M7 12H3M8.46447 15.5355C9.40215 16.4732 10.6739 17 12 17M8.46447 15.5355L5.63599 18.364M12 17C13.3261 17 14.5979 16.4732 15.5355 15.5355M12 17V21M15.5355 15.5355C16.4732 14.5979 17 13.3261 17 12M15.5355 15.5355L18.3639 18.364M17 12C17 10.6739 16.4732 9.40215 15.5355 8.46447M17 12H21M15.5355 8.46447C14.5979 7.52678 13.3261 7 12 7M15.5355 8.46447L18.3639 5.636M12 7C10.6739 7 9.40215 7.52678 8.46447 8.46447M12 7V3M8.46447 8.46447L5.63599 5.636M11 3H13M17.657 4.929L19.071 6.343M21 11V13M19.071 17.657L17.657 19.071M13 21H11M6.34293 19.071L4.92993 17.657M3 13V11M4.92896 6.343L6.34296 4.93" stroke="currentColor" stroke-width="1.5" stroke-linecap="round" stroke-linejoin="round"/>
</svg>
