<svg width="24" height="24" viewBox="0 0 24 24" fill="none" xmlns="http://www.w3.org/2000/svg">
<path d="M3 3L21 21M8.46888 8.46C7.53564 9.39724 7.01177 10.6661 7.01196 11.9887C7.01216 13.3114 7.53641 14.58 8.46994 15.517C9.40346 16.454 10.6702 16.9829 11.9928 16.9879C13.3155 16.993 14.5862 16.4738 15.5269 15.544M16.9129 12.936C17.0655 12.1367 17.0206 11.3122 16.7823 10.5342C16.544 9.75613 16.1193 9.048 15.5453 8.47128C14.9712 7.89455 14.265 7.46665 13.4881 7.22472C12.7112 6.98279 11.8869 6.93414 11.0869 7.083M12 7V3M11 3H13M15.5359 8.464L18.3639 5.636M17.657 4.929L19.071 6.343M17 12H21M21 11V13M18.364 18.363L17.657 19.07M12 17V21M13 21H11M8.46499 15.536L5.63599 18.364M6.34293 19.071L4.92993 17.657M7 12H3M3 13V11M5.63596 5.637L4.92896 6.344" stroke="currentColor" stroke-width="1.5" stroke-linecap="round" stroke-linejoin="round"/>
</svg>
