<svg width="24" height="24" viewBox="0 0 24 24" fill="none" xmlns="http://www.w3.org/2000/svg">
<path d="M8.46447 8.46447C9.16373 7.76521 10.0546 7.289 11.0246 7.09608C11.9945 6.90315 12.9998 7.00217 13.9134 7.3806C14.8271 7.75904 15.6079 8.39991 16.1574 9.22215C16.7068 10.0444 17 11.0111 17 12L21 12M8.46447 8.46447C7.76521 9.16373 7.289 10.0546 7.09608 11.0246C6.90315 11.9945 7.00217 12.9998 7.3806 13.9134C7.75904 14.8271 8.39991 15.6079 9.22215 16.1574C10.0444 16.7068 11.0111 17 12 17L12 21M8.46447 8.46447L5.63599 5.636M12 7V3M11 3H13M15.5359 8.464L18.3639 5.636M17.657 4.929L19.071 6.343M21 11V13M13 21H11M8.46499 15.536L5.63599 18.364M6.34293 19.071L4.92993 17.657M7 12H3M3 13V11M4.92896 6.343L6.34296 4.93M19.5 19.5L22 22M15 17.5C15 18.163 15.2634 18.7989 15.7322 19.2678C16.2011 19.7366 16.837 20 17.5 20C18.163 20 18.7989 19.7366 19.2678 19.2678C19.7366 18.7989 20 18.163 20 17.5C20 16.837 19.7366 16.2011 19.2678 15.7322C18.7989 15.2634 18.163 15 17.5 15C16.837 15 16.2011 15.2634 15.7322 15.7322C15.2634 16.2011 15 16.837 15 17.5Z" stroke="currentColor" stroke-width="1.5" stroke-linecap="round" stroke-linejoin="round"/>
</svg>
