<svg width="24" height="24" viewBox="0 0 24 24" fill="none" xmlns="http://www.w3.org/2000/svg">
<path d="M7 3H10C10.5304 3 11.0391 3.21071 11.4142 3.58579C11.7893 3.96086 12 4.46957 12 5M12 5C12 4.46957 12.2107 3.96086 12.5858 3.58579C12.9609 3.21071 13.4696 3 14 3H20C20.2652 3 20.5196 3.10536 20.7071 3.29289C20.8946 3.48043 21 3.73478 21 4V17M12 5V8M19 19H14C13.4696 19 12.9609 19.2107 12.5858 19.5858C12.2107 19.9609 12 20.4696 12 21M12 21C12 20.4696 11.7893 19.9609 11.4142 19.5858C11.0391 19.2107 10.5304 19 10 19H4C3.73478 19 3.48043 18.8946 3.29289 18.7071C3.10536 18.5196 3 18.2652 3 18V4C3 3.721 3.114 3.47 3.298 3.288M12 21V12M7 11H8M16 7H17M16 11H17M3 3L21 21" stroke="currentColor" stroke-width="1.5" stroke-linecap="round" stroke-linejoin="round"/>
</svg>
