<svg width="24" height="24" viewBox="0 0 24 24" fill="none" xmlns="http://www.w3.org/2000/svg">
<path d="M12 5C12 4.46957 11.7893 3.96086 11.4142 3.58579C11.0391 3.21071 10.5304 3 10 3H4C3.73478 3 3.48043 3.10536 3.29289 3.29289C3.10536 3.48043 3 3.73478 3 4V18C3 18.2652 3.10536 18.5196 3.29289 18.7071C3.48043 18.8946 3.73478 19 4 19H10C10.5304 19 11.0391 19.2107 11.4142 19.5858C11.7893 19.9609 12 20.4696 12 21M12 5C12 4.46957 12.2107 3.96086 12.5858 3.58579C12.9609 3.21071 13.4696 3 14 3H20C20.2652 3 20.5196 3.10536 20.7071 3.29289C20.8946 3.48043 21 3.73478 21 4V18C21 18.2652 20.8946 18.5196 20.7071 18.7071C20.5196 18.8946 20.2652 19 20 19H14C13.4696 19 12.9609 19.2107 12.5858 19.5858C12.2107 19.9609 12 20.4696 12 21M12 5V21M7 7H8M7 11H8M16 7H17M16 11H17M16 15H17" stroke="currentColor" stroke-width="1.5" stroke-linecap="round" stroke-linejoin="round"/>
</svg>
