<svg width="24" height="24" viewBox="0 0 24 24" fill="none" xmlns="http://www.w3.org/2000/svg">
<path d="M9 8V7C9 6.46957 8.78929 5.96086 8.41421 5.58579C8.03914 5.21071 7.53043 5 7 5C6.46957 5 5.96086 5.21071 5.58579 5.58579C5.21071 5.96086 5 6.46957 5 7M15 8V7C15 6.46957 15.2107 5.96086 15.5858 5.58579C15.9609 5.21071 16.4696 5 17 5C17.5304 5 18.0391 5.21071 18.4142 5.58579C18.7893 5.96086 19 6.46957 19 7M4 20L7.472 12.188C7.62911 11.8344 7.88543 11.5339 8.2099 11.323C8.53436 11.1122 8.91303 11 9.3 11H14.7C15.087 11 15.4656 11.1122 15.7901 11.323C16.1146 11.5339 16.3709 11.8344 16.528 12.188L20 20M6.19189 15.0639C6.34733 15.0249 6.50666 15.0034 6.66689 14.9999C7.19389 14.9909 7.69289 15.1779 7.99989 15.4999C8.30689 15.8199 8.80589 16.0069 9.33289 15.9999C9.85989 16.0069 10.3589 15.8199 10.6669 15.4999C10.9739 15.1779 11.4729 14.9909 11.9999 14.9999C12.5269 14.9909 13.0259 15.1779 13.3329 15.4999C13.6409 15.8199 14.1399 16.0069 14.6669 15.9999C15.1939 16.0069 15.6929 15.8199 15.9999 15.4999C16.3069 15.1779 16.8059 14.9909 17.3329 14.9999C17.4939 15.0029 17.6529 15.0249 17.8049 15.0639M12 8V4" stroke="currentColor" stroke-width="1.5" stroke-linecap="round" stroke-linejoin="round"/>
</svg>
