<svg width="24" height="24" viewBox="0 0 24 24" fill="none" xmlns="http://www.w3.org/2000/svg">
<path d="M17 8V5C17 4.73478 16.8947 4.48043 16.7071 4.29289C16.5196 4.10536 16.2652 4 16 4H8.00003M4.58703 4.584C4.30678 4.86354 4.11579 5.21995 4.03822 5.6081C3.96066 5.99625 4.00002 6.39869 4.15132 6.76446C4.30262 7.13024 4.55905 7.44289 4.88814 7.66283C5.21724 7.88277 5.6042 8.00011 6.00003 8H8.00003M12 8H18C18.2652 8 18.5196 8.10536 18.7071 8.29289C18.8947 8.48043 19 8.73478 19 9V12M19 19C19 19.2652 18.8946 19.5196 18.7071 19.7071C18.5196 19.8946 18.2652 20 18 20H6C5.46957 20 4.96086 19.7893 4.58579 19.4142C4.21071 19.0391 4 18.5304 4 18V6M16 12H20V16M16 16C15.4696 16 14.9609 15.7893 14.5858 15.4142C14.2107 15.0391 14 14.5304 14 14M3 3L21 21" stroke="currentColor" stroke-width="1.5" stroke-linecap="round" stroke-linejoin="round"/>
</svg>
