<svg width="24" height="24" viewBox="0 0 24 24" fill="none" xmlns="http://www.w3.org/2000/svg">
<path d="M8 6H18C18.5304 6 19.0391 6.21071 19.4142 6.58579C19.7893 6.96086 20 7.46957 20 8V18C20 18.5304 19.7893 19.0391 19.4142 19.4142C19.0391 19.7893 18.5304 20 18 20H6M8 6V18M8 6C8 5.46957 7.78929 4.96086 7.41421 4.58579C7.03914 4.21071 6.53043 4 6 4C5.46957 4 4.96086 4.21071 4.58579 4.58579C4.21071 4.96086 4 5.46957 4 6V18M6 20C5.46957 20 4.96086 19.7893 4.58579 19.4142C4.21071 19.0391 4 18.5304 4 18M6 20C6.53043 20 7.03914 19.7893 7.41421 19.4142C7.78929 19.0391 8 18.5304 8 18M4 18C4 17.4696 4.21071 16.9609 4.58579 16.5858C4.96086 16.2107 5.46957 16 6 16C6.53043 16 7.03914 16.2107 7.41421 16.5858C7.78929 16.9609 8 17.4696 8 18" stroke="currentColor" stroke-width="1.5" stroke-linecap="round" stroke-linejoin="round"/>
</svg>
