<svg width="24" height="24" viewBox="0 0 24 24" fill="none" xmlns="http://www.w3.org/2000/svg">
<path d="M10.5 10.5L3 18L6 21L13.5 13.5M15.5 11.5L21 6L18 3L12.5 8.5M15 6L18 9M8.43301 4.395C8.78301 4.035 9.00001 3.543 9.00001 3C9.00001 3.53043 9.21073 4.03914 9.5858 4.41421C9.96087 4.78929 10.4696 5 11 5C10.446 5 9.94501 5.225 9.58301 5.589M18.418 14.41C18.778 14.05 19 13.55 19 13C19 13.5304 19.2107 14.0391 19.5858 14.4142C19.9609 14.7893 20.4696 15 21 15C20.445 15 19.944 15.226 19.581 15.59M3 3L21 21" stroke="currentColor" stroke-width="1.5" stroke-linecap="round" stroke-linejoin="round"/>
</svg>
