<svg width="24" height="24" viewBox="0 0 24 24" fill="none" xmlns="http://www.w3.org/2000/svg">
<path d="M3.486 8.965C3.654 8.985 3.826 8.998 4 9C4.79 9.009 5.539 8.822 6 8.5C6.426 8.204 6.777 8 7.5 8H8.5M16 8L16.615 8.034C17.167 8.101 17.661 8.264 18 8.5C18.461 8.822 19.21 9.009 20 9C20.17 9 20.339 8.986 20.503 8.966M3 6L4.721 16.329C4.79888 16.796 5.0399 17.2202 5.40118 17.5262C5.76245 17.8322 6.22056 18.0001 6.694 18H17.306C17.7794 18.0001 18.2375 17.8322 18.5988 17.5262C18.9601 17.2202 19.2011 16.796 19.279 16.329L21 6M14 10.5L14.586 11.078C14.8626 11.3207 15.218 11.4546 15.586 11.4546C15.954 11.4546 16.3094 11.3207 16.586 11.078C17.062 10.645 17.136 9.966 16.762 9.456L15 7C14.63 6.494 13.669 6 13 6H9.883C9.63931 6.00007 9.40403 6.08912 9.22136 6.25043C9.0387 6.41173 8.92122 6.63419 8.891 6.876L8.392 10.862C8.2813 11.7469 8.48067 12.6428 8.95617 13.3973C9.43168 14.1517 10.1539 14.7181 11 15C11.3426 15.114 11.7074 15.145 12.0643 15.0905C12.4212 15.036 12.7601 14.8975 13.053 14.6864C13.346 14.4753 13.5846 14.1976 13.7492 13.8763C13.9138 13.5549 13.9998 13.1991 14 12.838V10.5Z" stroke="currentColor" stroke-width="1.5" stroke-linecap="round" stroke-linejoin="round"/>
</svg>
