<svg width="24" height="24" viewBox="0 0 24 24" fill="none" xmlns="http://www.w3.org/2000/svg">
<path d="M3 6L4.721 16.329C4.79888 16.796 5.0399 17.2202 5.40118 17.5262C5.76245 17.8322 6.22056 18.0001 6.694 18H12M20.162 11.028L21 6M3.48584 8.96495C3.65384 8.98495 3.82584 8.99795 3.99984 8.99995C4.78984 9.00895 5.53884 8.82195 5.99984 8.49995C6.46084 8.17995 7.20984 7.99295 7.99984 7.99995C8.78984 7.99295 9.53884 8.17995 9.99984 8.49995C10.4608 8.82195 11.2098 9.00895 11.9998 8.99995C12.7898 9.00895 13.5388 8.82195 13.9998 8.49995C14.4608 8.17995 15.2098 7.99295 15.9998 7.99995C16.7898 7.99295 17.5388 8.17995 17.9998 8.49995C18.4608 8.82195 19.2098 9.00895 19.9998 8.99995C20.1698 8.99995 20.3388 8.98595 20.5028 8.96595M16 22C16 22 16 20 19 18M19 21C18.2044 21 17.4413 20.6839 16.8787 20.1213C16.3161 19.5587 16 18.7956 16 18C16 17.2044 16.3161 16.4413 16.8787 15.8787C17.4413 15.3161 18.2044 15 19 15H22V18C22 18.7956 21.6839 19.5587 21.1213 20.1213C20.5587 20.6839 19.7956 21 19 21Z" stroke="currentColor" stroke-width="1.5" stroke-linecap="round" stroke-linejoin="round"/>
</svg>
