<svg width="24" height="24" viewBox="0 0 24 24" fill="none" xmlns="http://www.w3.org/2000/svg">
<path d="M3.48584 5.96501C3.65384 5.98501 3.82584 5.99801 3.99984 6.00001C4.78984 6.00901 5.53884 5.82201 5.99984 5.50001C6.46084 5.18001 7.20984 4.99301 7.99984 5.00001C8.78984 4.99301 9.53884 5.18001 9.99984 5.50001C10.4608 5.82201 11.2098 6.00901 11.9998 6.00001C12.7898 6.00901 13.5388 5.82201 13.9998 5.50001C14.4608 5.18001 15.2098 4.99301 15.9998 5.00001C16.7898 4.99301 17.5388 5.18001 17.9998 5.50001C18.4608 5.82201 19.2098 6.00901 19.9998 6.00001C20.1698 6.00001 20.3388 5.98601 20.5028 5.96601M3 3L4.721 13.329C4.79888 13.796 5.0399 14.2202 5.40118 14.5262C5.76245 14.8322 6.22056 15.0001 6.694 15H17.306C17.7794 15.0001 18.2375 14.8322 18.5988 14.5262C18.9601 14.2202 19.2011 13.796 19.279 13.329L21 3M5 18H19M5 21H19" stroke="currentColor" stroke-width="1.5" stroke-linecap="round" stroke-linejoin="round"/>
</svg>
