<svg width="24" height="24" viewBox="0 0 24 24" fill="none" xmlns="http://www.w3.org/2000/svg">
<path d="M3.48584 7.96501C3.65384 7.98501 3.82584 7.99801 3.99984 8.00001C4.78984 8.00901 5.53884 7.82201 5.99984 7.50001C6.46084 7.18001 7.20984 6.99301 7.99984 7.00001C8.78984 6.99301 9.53884 7.18001 9.99984 7.50001C10.4608 7.82201 11.2098 8.00901 11.9998 8.00001C12.7898 8.00901 13.5388 7.82201 13.9998 7.50001C14.4608 7.18001 15.2098 6.99301 15.9998 7.00001C16.7898 6.99301 17.5388 7.18001 17.9998 7.50001C18.4608 7.82201 19.2098 8.00901 19.9998 8.00001C20.1698 8.00001 20.3388 7.98601 20.5028 7.96601M3 5L4.721 15.329C4.79888 15.796 5.0399 16.2202 5.40118 16.5262C5.76245 16.8322 6.22056 17.0001 6.694 17H17.306C17.7794 17.0001 18.2375 16.8322 18.5988 16.5262C18.9601 16.2202 19.2011 15.796 19.279 15.329L21 5M5 20H19" stroke="currentColor" stroke-width="1.5" stroke-linecap="round" stroke-linejoin="round"/>
</svg>
