<svg width="24" height="24" viewBox="0 0 24 24" fill="none" xmlns="http://www.w3.org/2000/svg">
<path d="M9 15H9.01M3 6L4.721 16.329C4.79888 16.796 5.0399 17.2202 5.40118 17.5262C5.76245 17.8322 6.22056 18.0001 6.694 18H17.306C17.7794 18.0001 18.2375 17.8322 18.5988 17.5262C18.9601 17.2202 19.2011 16.796 19.279 16.329L21 6M12 15H12.01M15 15H15.01M15 12H15.01M12 12H12.01M9 12H9.01M3.48584 8.96501C3.65384 8.98501 3.82584 8.99801 3.99984 9.00001C4.78984 9.00901 5.53884 8.82201 5.99984 8.50001C6.46084 8.18001 7.20984 7.99301 7.99984 8.00001C8.78984 7.99301 9.53884 8.18001 9.99984 8.50001C10.4608 8.82201 11.2098 9.00901 11.9998 9.00001C12.7898 9.00901 13.5388 8.82201 13.9998 8.50001C14.4608 8.18001 15.2098 7.99301 15.9998 8.00001C16.7898 7.99301 17.5388 8.18001 17.9998 8.50001C18.4608 8.82201 19.2098 9.00901 19.9998 9.00001C20.1698 9.00001 20.3388 8.98601 20.5028 8.96601" stroke="currentColor" stroke-width="1.5" stroke-linecap="round" stroke-linejoin="round"/>
</svg>
