<svg width="24" height="24" viewBox="0 0 24 24" fill="none" xmlns="http://www.w3.org/2000/svg">
<path d="M20.116 20.127C19.8379 20.4044 19.5079 20.6242 19.1448 20.774C18.7818 20.9238 18.3928 21.0006 18 21H6C5.20435 21 4.44129 20.6839 3.87868 20.1213C3.31607 19.5587 3 18.7956 3 18V6C3 5.173 3.335 4.424 3.877 3.88M7 3H18C18.7956 3 19.5587 3.31607 20.1213 3.87868C20.6839 4.44129 21 5.20435 21 6V17M17.7438 13.74C18.0592 12.7001 18.0862 11.594 17.8219 10.5399C17.5577 9.48584 17.0121 8.52332 16.2435 7.75511C15.4749 6.98691 14.5121 6.44187 13.4579 6.17819C12.4036 5.91451 11.2976 5.9421 10.2578 6.25799M7.75884 7.75499C7.19393 8.31014 6.74452 8.97165 6.43654 9.70135C6.12856 10.4311 5.9681 11.2145 5.96442 12.0065C5.96074 12.7986 6.1139 13.5835 6.41508 14.316C6.71626 15.0485 7.15949 15.7142 7.71922 16.2746C8.27894 16.835 8.94407 17.279 9.67625 17.581C10.4084 17.8831 11.1932 18.0371 11.9852 18.0344C12.7772 18.0316 13.5609 17.8721 14.2909 17.565C15.021 17.2579 15.683 16.8092 16.2388 16.245M3 3L21 21" stroke="currentColor" stroke-width="1.5" stroke-linecap="round" stroke-linejoin="round"/>
</svg>
