<svg width="24" height="24" viewBox="0 0 24 24" fill="none" xmlns="http://www.w3.org/2000/svg">
<path d="M3 6L4.721 16.329C4.79888 16.796 5.0399 17.2202 5.40118 17.5262C5.76245 17.8322 6.22056 18.0001 6.694 18H17.306C17.514 18 17.716 17.968 17.906 17.908M19.427 15.436L21 6M3.48584 8.96501C3.65384 8.98501 3.82584 8.99801 3.99984 9.00001C4.78984 9.00901 5.53884 8.82201 5.99984 8.50001C6.46084 8.18001 7.20984 7.99301 7.99984 8.00001M12.9198 8.91901C13.3478 8.83601 13.7248 8.69201 13.9998 8.50101C14.4608 8.17901 15.2098 7.99301 15.9998 8.00101C16.7898 7.99301 17.5388 8.17901 17.9998 8.50101C18.4608 8.82101 19.2098 9.00901 19.9998 9.00101C20.1698 9.00101 20.3388 8.98601 20.5028 8.96601M3 3L21 21" stroke="currentColor" stroke-width="1.5" stroke-linecap="round" stroke-linejoin="round"/>
</svg>
