<svg width="24" height="24" viewBox="0 0 24 24" fill="none" xmlns="http://www.w3.org/2000/svg">
<path d="M6.5 5C6.63261 5 6.75979 4.94732 6.85355 4.85355C6.94732 4.75979 7 4.63261 7 4.5C7 4.36739 6.94732 4.24021 6.85355 4.14645C6.75979 4.05268 6.63261 4 6.5 4C6.36739 4 6.24021 4.05268 6.14645 4.14645C6.05268 4.24021 6 4.36739 6 4.5C6 4.63261 6.05268 4.75979 6.14645 4.85355C6.24021 4.94732 6.36739 5 6.5 5Z" fill="currentColor"/>
<path d="M5 8L8 12L12.5 13M12.5 13L20 12M12.5 13L12 16M3 18.75C3.31129 18.9048 3.65249 18.9901 4 19C4.3895 19.0082 4.77512 18.9214 5.12358 18.7472C5.47203 18.573 5.77283 18.3165 6 18C6.22717 17.6835 6.52797 17.4271 6.87642 17.2529C7.22488 17.0787 7.6105 16.9919 8 17C8.3895 16.9919 8.77512 17.0787 9.12358 17.2529C9.47203 17.4271 9.77283 17.6835 10 18C10.2272 18.3165 10.528 18.573 10.8764 18.7472C11.2249 18.9214 11.6105 19.0082 12 19C12.3895 19.0082 12.7751 18.9214 13.1236 18.7472C13.472 18.573 13.7728 18.3165 14 18C14.2272 17.6835 14.528 17.4271 14.8764 17.2529C15.2249 17.0787 15.6105 16.9919 16 17C16.3895 16.9919 16.7751 17.0787 17.1236 17.2529C17.472 17.4271 17.7728 17.6835 18 18C18.2272 18.3165 18.528 18.573 18.8764 18.7472C19.2249 18.9214 19.6105 19.0082 20 19C20.3475 18.9901 20.6887 18.9048 21 18.75M12 9C12 9.26522 12.1054 9.51957 12.2929 9.70711C12.4804 9.89464 12.7348 10 13 10C13.2652 10 13.5196 9.89464 13.7071 9.70711C13.8946 9.51957 14 9.26522 14 9C14 8.73478 13.8946 8.48043 13.7071 8.29289C13.5196 8.10536 13.2652 8 13 8C12.7348 8 12.4804 8.10536 12.2929 8.29289C12.1054 8.48043 12 8.73478 12 9ZM6.5 5C6.63261 5 6.75979 4.94732 6.85355 4.85355C6.94732 4.75979 7 4.63261 7 4.5C7 4.36739 6.94732 4.24021 6.85355 4.14645C6.75979 4.05268 6.63261 4 6.5 4C6.36739 4 6.24021 4.05268 6.14645 4.14645C6.05268 4.24021 6 4.36739 6 4.5C6 4.63261 6.05268 4.75979 6.14645 4.85355C6.24021 4.94732 6.36739 5 6.5 5Z" stroke="currentColor" stroke-width="1.5" stroke-linecap="round" stroke-linejoin="round"/>
</svg>
