<svg width="24" height="24" viewBox="0 0 24 24" fill="none" xmlns="http://www.w3.org/2000/svg">
<path d="M3 12.0001C3.576 11.3571 4.512 10.9831 5.5 11.0001C6.488 10.9831 7.424 11.3571 8 12.0001C8.576 12.6431 9.512 13.0171 10.5 13.0001C11.488 13.0171 12.424 12.6431 13 12.0001M3 16.0001C3.576 15.3571 4.512 14.9831 5.5 15.0001C6.488 14.9831 7.424 15.3571 8 16.0001C8.576 16.6431 9.512 17.0171 10.5 17.0001C11.488 17.0171 12.424 16.6431 13 16.0001M3 8.00007C3.576 7.35707 4.512 6.98307 5.5 7.00007C6.488 6.98307 7.424 7.35707 8 8.00007C8.576 8.64307 9.512 9.01707 10.5 9.00007C11.488 9.01707 12.424 8.64307 13 8.00007M20 7.00012L17 12.0001H21L18 17.0001" stroke="currentColor" stroke-width="1.5" stroke-linecap="round" stroke-linejoin="round"/>
</svg>
