<svg width="24" height="24" viewBox="0 0 24 24" fill="none" xmlns="http://www.w3.org/2000/svg">
<path d="M4.876 13.61C4.28624 13.9796 3.80311 14.4966 3.47436 15.1101C3.14561 15.7235 2.98261 16.4121 3.00147 17.1079C3.02033 17.8036 3.2204 18.4824 3.58191 19.0771C3.94341 19.6719 4.45385 20.162 5.06277 20.4991C5.67169 20.8361 6.35802 21.0085 7.05395 20.9991C7.74988 20.9897 8.43131 20.7989 9.03092 20.4455C9.63053 20.0922 10.1276 19.5885 10.4729 18.9842C10.8182 18.3799 10.9999 17.696 11 17H17M15.0659 20.502C15.8256 20.9214 16.7011 21.0823 17.5602 20.9605C18.4194 20.8388 19.2157 20.4409 19.8289 19.827M20.9999 17C20.9999 15.9391 20.5785 14.9217 19.8283 14.1716C19.0782 13.4214 18.0608 13 16.9999 13M16 8.00003C16 7.20943 15.7658 6.43654 15.3268 5.77899C14.8878 5.12145 14.2639 4.60873 13.5337 4.30559C12.8035 4.00245 11.9999 3.9225 11.2243 4.07582C10.4487 4.22914 9.73592 4.60886 9.176 5.16703M8 8.00003C8 9.50603 8.77 10.818 10 11.5L7 17M3 3L21 21" stroke="currentColor" stroke-width="1.5" stroke-linecap="round" stroke-linejoin="round"/>
</svg>
