<svg width="24" height="24" viewBox="0 0 24 24" fill="none" xmlns="http://www.w3.org/2000/svg">
<path d="M8.99991 6C8.99991 6.79565 9.31598 7.55871 9.87859 8.12132C10.4412 8.68393 11.2043 9 11.9999 9C12.7956 9 13.5586 8.68393 14.1212 8.12132C14.6838 7.55871 14.9999 6.79565 14.9999 6C14.9999 5.20435 14.6838 4.44129 14.1212 3.87868C13.5586 3.31607 12.7956 3 11.9999 3C11.2043 3 10.4412 3.31607 9.87859 3.87868C9.31598 4.44129 8.99991 5.20435 8.99991 6Z" stroke="currentColor" stroke-width="1.5" stroke-linecap="round" stroke-linejoin="round"/>
<path d="M6.8349 9H17.1649C17.3991 8.99996 17.6259 9.08213 17.8057 9.23216C17.9855 9.3822 18.107 9.59059 18.1489 9.821L19.7859 18.821C19.8121 18.9651 19.8064 19.1133 19.769 19.2549C19.7317 19.3966 19.6637 19.5283 19.5698 19.6408C19.4759 19.7532 19.3585 19.8437 19.2258 19.9058C19.0931 19.9679 18.9484 20 18.8019 20H5.1979C5.05141 20 4.9067 19.9679 4.77401 19.9058C4.64131 19.8437 4.52388 19.7532 4.43001 19.6408C4.33615 19.5283 4.26813 19.3966 4.23079 19.2549C4.19345 19.1133 4.18768 18.9651 4.2139 18.821L5.8509 9.821C5.89283 9.59059 6.01429 9.3822 6.19411 9.23216C6.37393 9.08213 6.60071 8.99996 6.8349 9Z" stroke="currentColor" stroke-width="1.5" stroke-linecap="round" stroke-linejoin="round"/>
</svg>
