<svg width="24" height="24" viewBox="0 0 24 24" fill="none" xmlns="http://www.w3.org/2000/svg">
<path d="M17.582 17.5901C17.2075 17.9658 16.9976 18.4748 16.9985 19.0053C16.9993 19.5357 17.2108 20.0441 17.5865 20.4186C17.9622 20.7931 18.4713 21.003 19.0017 21.0021C19.5322 21.0013 20.0405 20.7898 20.415 20.4141M14 14H12.6M6 6V11M6 8H8M12 8H17M15 8V11M3 3L21 21M3 16C3 17.3261 3.52678 18.5979 4.46447 19.5355C5.40215 20.4732 6.67392 21 8 21C9.32608 21 10.5979 20.4732 11.5355 19.5355C12.4732 18.5979 13 17.3261 13 16C13 14.6739 12.4732 13.4021 11.5355 12.4645C10.5979 11.5268 9.32608 11 8 11C6.67392 11 5.40215 11.5268 4.46447 12.4645C3.52678 13.4021 3 14.6739 3 16Z" stroke="currentColor" stroke-width="1.5" stroke-linecap="round" stroke-linejoin="round"/>
</svg>
