<svg width="24" height="24" viewBox="0 0 24 24" fill="none" xmlns="http://www.w3.org/2000/svg">
<path d="M19 17C19.5304 17 20.0391 17.2107 20.4142 17.5858C20.7893 17.9609 21 18.4696 21 19C21 19.5304 20.7893 20.0391 20.4142 20.4142C20.0391 20.7893 19.5304 21 19 21C18.4696 21 17.9609 20.7893 17.5858 20.4142C17.2107 20.0391 17 19.5304 17 19C17 18.4696 17.2107 17.9609 17.5858 17.5858C17.9609 17.2107 18.4696 17 19 17ZM19 17C19 16.2044 18.684 15.4413 18.1214 14.8787C17.5588 14.3161 16.7957 14 16.0001 14H12.6001M3 3H4C4.53043 3 5.03914 3.21071 5.41421 3.58579C5.78929 3.96086 6 4.46957 6 5V11M6 8H17M15 8V14M3 16C3 17.3261 3.52678 18.5979 4.46447 19.5355C5.40215 20.4732 6.67392 21 8 21C9.32608 21 10.5979 20.4732 11.5355 19.5355C12.4732 18.5979 13 17.3261 13 16C13 14.6739 12.4732 13.4021 11.5355 12.4645C10.5979 11.5268 9.32608 11 8 11C6.67392 11 5.40215 11.5268 4.46447 12.4645C3.52678 13.4021 3 14.6739 3 16Z" stroke="currentColor" stroke-width="1.5" stroke-linecap="round" stroke-linejoin="round"/>
</svg>
