<svg width="24" height="24" viewBox="0 0 24 24" fill="none" xmlns="http://www.w3.org/2000/svg">
<path d="M14 12C14 11.4696 13.7893 10.9609 13.4142 10.5858C13.0391 10.2107 12.5304 10 12 10M14 12C14 12.5304 13.7893 13.0391 13.4142 13.4142C13.0391 13.7893 12.5304 14 12 14M14 12C14 8.686 11.538 6 8.5 6C5.462 6 3 8.686 3 12M12 10C11.4696 10 10.9609 10.2107 10.5858 10.5858C10.2107 10.9609 10 11.4696 10 12M12 10C8.686 10 6 12.462 6 15.5C6 18.538 8.686 21 12 21M10 12C10 12.5304 10.2107 13.0391 10.5858 13.4142C10.9609 13.7893 11.4696 14 12 14M10 12C10 15.314 12.462 18 15.5 18C18.538 18 21 15.314 21 12M12 14C15.314 14 18 11.538 18 8.5C18 5.462 15.314 3 12 3" stroke="currentColor" stroke-width="1.5" stroke-linecap="round" stroke-linejoin="round"/>
</svg>
