<svg width="24" height="24" viewBox="0 0 24 24" fill="none" xmlns="http://www.w3.org/2000/svg">
<path d="M12 18H12.01M9.17188 15.172C9.92199 14.4221 10.9392 14.0009 11.9999 14.0009C13.0605 14.0009 14.0778 14.4221 14.8279 15.172M6.34277 12.343C7.4032 11.2796 8.74274 10.5377 10.2068 10.203M14.3698 10.358C15.6124 10.746 16.741 11.4327 17.6568 12.358M3.51514 9.515C4.53858 8.48943 5.73928 7.65767 7.05914 7.06M10.1601 6.14C12.0252 5.8508 13.9322 6.00562 15.7263 6.59187C17.5203 7.17811 19.1507 8.17927 20.4851 9.514M3 3L21 21" stroke="currentColor" stroke-width="1.5" stroke-linecap="round" stroke-linejoin="round"/>
</svg>
