<svg width="24" height="24" viewBox="0 0 24 24" fill="none" xmlns="http://www.w3.org/2000/svg">
<path d="M12 19.9998V5.99976M12 5.99976C12.0087 5.37679 11.8718 4.76037 11.6001 4.19971M12 5.99976C11.9913 5.37679 12.1282 4.76037 12.3999 4.19971M3.9999 5.99971C3.99123 5.37674 4.1282 4.76037 4.3999 4.19971M7 2.09967C7.65591 1.93032 8.34409 1.93032 9 2.09967M15 2.09967C15.6559 1.93032 16.3441 1.93032 17 2.09967M20.0001 5.99971C20.0088 5.37674 19.8718 4.76037 19.6001 4.19971M11 19.9998C11 20.265 11.1054 20.5193 11.2929 20.7069C11.4804 20.8944 11.7348 20.9998 12 20.9998C12.2652 20.9998 12.5196 20.8944 12.7071 20.7069C12.8946 20.5193 13 20.265 13 19.9998C13 19.7345 12.8946 19.4802 12.7071 19.2926C12.5196 19.1051 12.2652 18.9998 12 18.9998C11.7348 18.9998 11.4804 19.1051 11.2929 19.2926C11.1054 19.4802 11 19.7345 11 19.9998ZM3 10.9998L8.5 16.4998C9.43464 15.5836 10.6912 15.0705 12 15.0705C13.3088 15.0705 14.5654 15.5836 15.5 16.4998L21 10.9998C19.8739 9.72288 18.489 8.70023 16.9373 7.99976C15.3855 7.29928 13.7025 6.93701 12 6.93701C10.2975 6.93701 8.61447 7.29928 7.06275 7.99976C5.51102 8.70023 4.1261 9.72288 3 10.9998Z" stroke="currentColor" stroke-width="1.5" stroke-linecap="round" stroke-linejoin="round"/>
</svg>
