<svg width="24" height="24" viewBox="0 0 24 24" fill="none" xmlns="http://www.w3.org/2000/svg">
<path d="M12 18.0002L9.80005 5.2002M11 18.0002C11 18.2655 11.1054 18.5198 11.2929 18.7074C11.4804 18.8949 11.7348 19.0002 12 19.0002C12.2652 19.0002 12.5196 18.8949 12.7071 18.7074C12.8946 18.5198 13 18.2655 13 18.0002C13 17.735 12.8946 17.4807 12.7071 17.2931C12.5196 17.1056 12.2652 17.0002 12 17.0002C11.7348 17.0002 11.4804 17.1056 11.2929 17.2931C11.1054 17.4807 11 17.735 11 18.0002ZM3 9.00025L8.5 14.5002C9.43464 13.5841 10.6912 13.071 12 13.071C13.3088 13.071 14.5654 13.5841 15.5 14.5002L21 9.00025C19.8739 7.72337 18.489 6.70072 16.9373 6.00025C15.3855 5.29977 13.7025 4.9375 12 4.9375C10.2975 4.9375 8.61447 5.29977 7.06275 6.00025C5.51102 6.70072 4.1261 7.72337 3 9.00025Z" stroke="currentColor" stroke-width="1.5" stroke-linecap="round" stroke-linejoin="round"/>
</svg>
