<svg width="24" height="24" viewBox="0 0 24 24" fill="none" xmlns="http://www.w3.org/2000/svg">
<path d="M5.99985 5.5C5.99985 6.16304 6.63199 6.79893 7.75721 7.26777C8.88243 7.73661 10.4085 8 11.9998 8C13.5911 8 15.1173 7.73661 16.2425 7.26777C17.3677 6.79893 17.9998 6.16304 17.9998 5.5M5.99985 5.5C5.99985 4.83696 6.63199 4.20107 7.75721 3.73223C8.88243 3.26339 10.4085 3 11.9998 3C13.5911 3 15.1173 3.26339 16.2425 3.73223C17.3677 4.20107 17.9998 4.83696 17.9998 5.5M5.99985 5.5L5.99984 12.127C5.69824 11.9894 5.35789 11.9622 5.03825 12.0501C4.71861 12.1379 4.44 12.3353 4.25109 12.6077C4.06218 12.8801 3.97498 13.2102 4.00473 13.5404C4.03448 13.8705 4.17928 14.1798 4.41384 14.414L5.99984 16V18C5.99984 19.657 8.68584 21 11.9998 21H12.2748C15.4598 20.925 17.9998 19.61 17.9998 18V14L19.5858 12.414L19.6828 12.306C19.8835 12.0584 19.9947 11.7504 19.9985 11.4318C20.0023 11.1131 19.8984 10.8025 19.7037 10.5503C19.5089 10.298 19.2348 10.1189 18.9255 10.0419C18.6163 9.96489 18.2901 9.99453 17.9998 10.126L17.9998 5.5M9.99985 12.5V14M13.9998 16V17" stroke="currentColor" stroke-width="1.5" stroke-linecap="round" stroke-linejoin="round"/>
</svg>
