<svg width="24" height="24" viewBox="0 0 24 24" fill="none" xmlns="http://www.w3.org/2000/svg">
<path d="M20.4829 15.0059C21.1288 13.1838 21.1707 11.2021 20.6025 9.35423C20.0344 7.50637 18.8863 5.89057 17.3283 4.74604C15.7703 3.6015 13.8851 2.98907 11.9519 2.9994C10.0187 3.00973 8.14021 3.64227 6.5945 4.80339C5.0488 5.96451 3.91806 7.59249 3.36968 9.44631C2.8213 11.3001 2.88442 13.2813 3.5497 15.0964C4.21498 16.9116 5.44706 18.4643 7.06354 19.5246C8.68002 20.585 10.595 21.0967 12.5249 20.9839M3.6001 9H20.4001M3.6001 15H20.4001M11.4999 3C9.81525 5.69961 8.92212 8.81787 8.92212 12C8.92212 15.1821 9.81525 18.3004 11.4999 21M12.5 3C14.7352 6.57367 15.5577 10.8523 14.807 15M16 19H22" stroke="currentColor" stroke-width="1.5" stroke-linecap="round" stroke-linejoin="round"/>
</svg>
