<svg width="24" height="24" viewBox="0 0 24 24" fill="none" xmlns="http://www.w3.org/2000/svg">
<path d="M20.9849 12.5202C21.0906 10.6982 20.6399 8.88721 19.6925 7.32732C18.7452 5.76744 17.3461 4.53241 15.6806 3.78606C14.0152 3.0397 12.1623 2.81729 10.3675 3.14832C8.57278 3.47936 6.92109 4.34819 5.63153 5.63959C4.34197 6.93098 3.47548 8.5839 3.14699 10.3791C2.81851 12.1743 3.04355 14.027 3.79226 15.6913C4.54098 17.3557 5.77799 18.7531 7.33922 19.6982C8.90045 20.6433 10.7121 21.0914 12.5339 20.9832M3.6001 9.00012H20.4001M3.6001 15.0001H14.5001M11.4999 3.00012C9.81525 5.69973 8.92212 8.81799 8.92212 12.0001C8.92212 15.1823 9.81525 18.3005 11.4999 21.0001M12.5 3.00012C14.6412 6.43079 15.489 10.5125 14.891 14.5121M19 22.0001V16.0001M19 16.0001L22 19.0001M19 16.0001L16 19.0001" stroke="currentColor" stroke-width="1.5" stroke-linecap="round" stroke-linejoin="round"/>
</svg>
