<svg width="24" height="24" viewBox="0 0 24 24" fill="none" xmlns="http://www.w3.org/2000/svg">
<path d="M20.9851 12.5181C21.0901 10.6962 20.6388 8.88539 19.6911 7.32587C18.7433 5.76636 17.3438 4.53181 15.6783 3.78597C14.0127 3.04013 12.1598 2.81824 10.3652 3.14973C8.57062 3.48122 6.91923 4.35043 5.63003 5.64207C4.34083 6.93371 3.47475 8.58674 3.14665 10.3819C2.81856 12.1771 3.04395 14.0297 3.79294 15.6938C4.54193 17.3579 5.77912 18.7551 7.34043 19.6999C8.90174 20.6447 10.7134 21.0926 12.5351 20.9841M3.6001 9.00012H20.4001M3.6001 15.0001H15.0001M11.4999 3.00012C9.81525 5.69973 8.92212 8.81799 8.92212 12.0001C8.92212 15.1823 9.81525 18.3005 11.4999 21.0001M12.5 3.00012C14.7608 6.62193 15.5758 10.9619 14.783 15.1571M16 19.0001H22M19 16.0001V22.0001" stroke="currentColor" stroke-width="1.5" stroke-linecap="round" stroke-linejoin="round"/>
</svg>
