<svg width="24" height="24" viewBox="0 0 24 24" fill="none" xmlns="http://www.w3.org/2000/svg">
<path d="M20.8761 10.5101C20.5846 8.77383 19.7903 7.16118 18.5916 5.87181C17.3928 4.58245 15.8422 3.67299 14.1317 3.25604C12.4212 2.83909 10.6261 2.93297 8.96841 3.52604C7.31077 4.11912 5.86347 5.18535 4.80571 6.59272C3.74796 8.00009 3.12621 9.68678 3.01744 11.444C2.90867 13.2012 3.31766 14.9516 4.19377 16.4787C5.06988 18.0058 6.37464 19.2424 7.94649 20.0354C9.51833 20.8283 11.2882 21.1429 13.0371 20.9401M3.6001 9.00012H20.4001M3.6001 15.0001H13.5001M11.4999 3.00012C9.81525 5.69973 8.92212 8.81799 8.92212 12.0001C8.92212 15.1823 9.81525 18.3005 11.4999 21.0001M12.5 3.00012C14.189 5.70517 15.0824 8.83107 15.078 12.0201M21 15.0001H18.5C18.1022 15.0001 17.7206 15.1582 17.4393 15.4395C17.158 15.7208 17 16.1023 17 16.5001C17 16.8979 17.158 17.2795 17.4393 17.5608C17.7206 17.8421 18.1022 18.0001 18.5 18.0001H19.5C19.8978 18.0001 20.2794 18.1582 20.5607 18.4395C20.842 18.7208 21 19.1023 21 19.5001C21 19.8979 20.842 20.2795 20.5607 20.5608C20.2794 20.8421 19.8978 21.0001 19.5 21.0001H17M19 21.0001V22.0001M19 14.0001V15.0001" stroke="currentColor" stroke-width="1.5" stroke-linecap="round" stroke-linejoin="round"/>
</svg>
