<svg width="24" height="24" viewBox="0 0 24 24" fill="none" xmlns="http://www.w3.org/2000/svg">
<path d="M20.9289 13.131C21.1586 11.3173 20.8306 9.47654 19.9883 7.85385C19.1461 6.23116 17.8296 4.90346 16.2141 4.04745C14.5987 3.19145 12.7608 2.84774 10.9452 3.06207C9.12952 3.2764 7.42221 4.0386 6.05045 5.24723C4.6787 6.45587 3.70757 8.05361 3.26632 9.82781C2.82506 11.602 2.9346 13.4685 3.58036 15.1789C4.22612 16.8893 5.37748 18.3625 6.88119 19.4024C8.3849 20.4423 10.1696 20.9995 11.9979 21M3.6001 9H20.4001M3.6001 15H13.5001M11.4999 3C9.81525 5.69961 8.92212 8.81787 8.92212 12C8.92212 15.1821 9.81525 18.3004 11.4999 21M12.5 3C14.4697 6.15517 15.3497 9.86949 15.005 13.573M22 22L17 17M17 22L22 17" stroke="currentColor" stroke-width="1.5" stroke-linecap="round" stroke-linejoin="round"/>
</svg>
