<svg width="24" height="24" viewBox="0 0 24 24" fill="none" xmlns="http://www.w3.org/2000/svg">
<path d="M20.9451 12.9969C21.1519 11.1424 20.7771 9.26936 19.8726 7.63716C18.9681 6.00495 17.5786 4.69426 15.8964 3.88647C14.2143 3.07868 12.3226 2.81375 10.4833 3.12833C8.64391 3.44291 6.94782 4.32146 5.62972 5.64238C4.31163 6.9633 3.43672 8.66127 3.12608 10.5013C2.81543 12.3413 3.08442 14.2324 3.89581 15.9128C4.7072 17.5933 6.02087 18.9799 7.655 19.8809C9.28914 20.7819 11.1629 21.1527 13.0171 20.9419M3.6001 8.99988H20.4001M3.6001 14.9999H13.5001M11.4999 2.99988C9.81525 5.69949 8.92212 8.81774 8.92212 11.9999C8.92212 15.182 9.81525 18.3003 11.4999 20.9999M12.5 2.99988C14.4614 6.14126 15.3428 9.83744 15.01 13.5259M17 16.9999V21.9999M21 16.9999V21.9999" stroke="currentColor" stroke-width="1.5" stroke-linecap="round" stroke-linejoin="round"/>
</svg>
