<svg width="24" height="24" viewBox="0 0 24 24" fill="none" xmlns="http://www.w3.org/2000/svg">
<path d="M21 12C21 10.2613 20.4963 8.55979 19.5498 7.10122C18.6033 5.64264 17.2546 4.48946 15.6667 3.78107C14.0788 3.07267 12.3198 2.83941 10.6021 3.10947C8.88447 3.37954 7.28183 4.14136 5.98793 5.30286C4.69404 6.46435 3.7643 7.97578 3.3111 9.65442C2.8579 11.3331 2.90065 13.107 3.43418 14.7619C3.96771 16.4168 4.96919 17.8817 6.31753 18.9795C7.66587 20.0773 9.30334 20.761 11.032 20.948M3.6001 9H20.4001M3.6001 15H10.0001M11.4999 3C10.2288 5.03694 9.40348 7.32003 9.07841 9.69896C8.75334 12.0779 8.93585 14.4987 9.61393 16.802M12.5 3C14.0075 5.4142 14.884 8.16858 15.049 11.01M17.8 20.817L15.628 21.955C15.5635 21.9885 15.491 22.0035 15.4186 21.9982C15.3461 21.9929 15.2765 21.9676 15.2176 21.9251C15.1587 21.8826 15.1127 21.8245 15.0849 21.7574C15.0571 21.6903 15.0485 21.6167 15.06 21.545L15.475 19.134L13.718 17.427C13.6656 17.3763 13.6284 17.3119 13.6108 17.2411C13.5933 17.1703 13.5959 17.096 13.6186 17.0266C13.6412 16.9573 13.6829 16.8957 13.7388 16.8489C13.7948 16.8021 13.8627 16.772 13.935 16.762L16.363 16.41L17.449 14.217C17.4815 14.1517 17.5315 14.0967 17.5935 14.0583C17.6556 14.0199 17.727 13.9995 17.8 13.9995C17.8729 13.9995 17.9444 14.0199 18.0064 14.0583C18.0685 14.0967 18.1185 14.1517 18.151 14.217L19.237 16.41L21.665 16.762C21.737 16.7723 21.8047 16.8027 21.8604 16.8495C21.9162 16.8963 21.9576 16.9578 21.9802 17.027C22.0028 17.0962 22.0056 17.1703 21.9882 17.241C21.9708 17.3117 21.9341 17.3761 21.882 17.427L20.125 19.134L20.539 21.544C20.5514 21.6158 20.5434 21.6898 20.516 21.7573C20.4885 21.8249 20.4426 21.8834 20.3836 21.9262C20.3245 21.969 20.2547 21.9944 20.1819 21.9995C20.1092 22.0046 20.0364 21.9891 19.972 21.955L17.8 20.817Z" stroke="currentColor" stroke-width="1.5" stroke-linecap="round" stroke-linejoin="round"/>
</svg>
