<svg width="24" height="24" viewBox="0 0 24 24" fill="none" xmlns="http://www.w3.org/2000/svg">
<path d="M20.942 13.02C21.1462 11.2305 20.8088 9.42096 19.9734 7.8253C19.1381 6.22965 17.8432 4.92133 16.2563 4.06956C14.6693 3.21779 12.8633 2.86176 11.0718 3.04751C9.28034 3.23326 7.58579 3.95224 6.20735 5.11147C4.82891 6.2707 3.82998 7.81685 3.33977 9.54994C2.84956 11.283 2.89061 13.1233 3.45762 14.8329C4.02463 16.5424 5.09151 18.0424 6.52028 19.139C7.94905 20.2356 9.67397 20.8783 11.472 20.984M3.6001 9H20.4001M3.6001 15H13.5001M11.4999 3C9.81525 5.69961 8.92212 8.81787 8.92212 12C8.92212 15.1821 9.81525 18.3004 11.4999 21M12.5 3C14.5 6.206 15.337 9.913 15.008 13.537M20 21L22 19L20 17M17 17L15 19L17 21" stroke="currentColor" stroke-width="1.5" stroke-linecap="round" stroke-linejoin="round"/>
</svg>
