<svg width="24" height="24" viewBox="0 0 24 24" fill="none" xmlns="http://www.w3.org/2000/svg">
<path d="M21 11.9999C21.0001 10.2488 20.4893 8.53565 19.5303 7.0705C18.5712 5.60535 17.2056 4.4518 15.6007 3.75121C13.9959 3.05062 12.2215 2.83342 10.495 3.12624C8.76859 3.41905 7.16505 4.20916 5.88094 5.39974C4.59683 6.59031 3.68793 8.12964 3.26563 9.82907C2.84333 11.5285 2.92597 13.3142 3.50343 14.9674C4.08088 16.6205 5.12806 18.0693 6.51664 19.1362C7.90522 20.2031 9.57488 20.8418 11.321 20.9739M3.6001 8.99988H20.4001M3.6001 14.9999H10.5001M11.4999 2.99988C9.81525 5.69949 8.92212 8.81774 8.92212 11.9999C8.92212 15.182 9.81525 18.3003 11.4999 20.9999M12.5 2.99988C14.0301 5.45034 14.9099 8.25062 15.056 11.1359M18.0001 21.9999L21.3501 18.7159C21.5556 18.5165 21.719 18.278 21.8307 18.0145C21.9425 17.7509 22.0003 17.4677 22.0007 17.1814C22.0012 16.8952 21.9443 16.6117 21.8334 16.3478C21.7225 16.0839 21.5599 15.8449 21.3551 15.6449C20.9373 15.2362 20.3763 15.0069 19.7918 15.0058C19.2074 15.0046 18.6455 15.2318 18.2261 15.6389L18.0021 15.8589L17.7791 15.6389C17.3613 15.2305 16.8006 15.0014 16.2163 15.0002C15.6321 14.9991 15.0705 15.2261 14.6511 15.6329C14.4456 15.8321 14.2821 16.0706 14.1703 16.3341C14.0585 16.5976 14.0006 16.8808 14 17.1671C13.9994 17.4534 14.0562 17.7368 14.167 18.0008C14.2778 18.2647 14.4404 18.5038 14.6451 18.7039L18.0001 21.9999Z" stroke="currentColor" stroke-width="1.5" stroke-linecap="round" stroke-linejoin="round"/>
</svg>
