<svg width="24" height="24" viewBox="0 0 24 24" fill="none" xmlns="http://www.w3.org/2000/svg">
<path d="M20.9859 12.509C21.0889 10.6875 20.636 8.87783 19.6872 7.31967C18.7383 5.76151 17.3384 4.52849 15.6728 3.78405C14.0073 3.0396 12.1549 2.81888 10.3611 3.15115C8.56727 3.48341 6.91679 4.35296 5.6284 5.64455C4.34001 6.93614 3.47455 8.58878 3.14674 10.3834C2.81893 12.178 3.04424 14.0299 3.79282 15.6936C4.54139 17.3573 5.77788 18.7542 7.33839 19.6991C8.89889 20.6441 10.7097 21.0925 12.5309 20.985M3.6001 9H20.4001M3.6001 15H14.5001M11.4999 3C9.81525 5.69961 8.92212 8.81787 8.92212 12C8.92212 15.1821 9.81525 18.3004 11.4999 21M12.5 3C14.813 6.706 15.57 10.857 14.77 15M19 16V22M19 22L22 19M19 22L16 19" stroke="currentColor" stroke-width="1.5" stroke-linecap="round" stroke-linejoin="round"/>
</svg>
