<svg width="24" height="24" viewBox="0 0 24 24" fill="none" xmlns="http://www.w3.org/2000/svg">
<path d="M20.986 12.51C21.0962 10.5683 20.5744 8.64311 19.4988 7.02276C18.4232 5.40242 16.8516 4.17409 15.0195 3.5217C13.1873 2.86931 11.1931 2.82797 9.33548 3.40387C7.47785 3.97976 5.85674 5.1419 4.71491 6.71628C3.57307 8.29065 2.97194 10.1925 3.00153 12.1372C3.03112 14.0818 3.68984 15.9645 4.87904 17.5034C6.06825 19.0423 7.72396 20.1546 9.59826 20.6737C11.4725 21.1928 13.4646 21.0908 15.276 20.383M3.6001 9H20.4001M3.6001 15H14.5001M11.4999 3C9.81525 5.69961 8.92212 8.81787 8.92212 12C8.92212 15.1821 9.81525 18.3004 11.4999 21M12.5 3C14.1847 5.69961 15.0778 8.81787 15.0778 12C15.0778 15.1821 14.1847 18.3004 12.5 21M19 16V19M19 22V22.01" stroke="currentColor" stroke-width="1.5" stroke-linecap="round" stroke-linejoin="round"/>
</svg>
