<svg width="24" height="24" viewBox="0 0 24 24" fill="none" xmlns="http://www.w3.org/2000/svg">
<path d="M20.975 11.33C20.8337 9.43969 20.0992 7.64223 18.8762 6.19395C17.6532 4.74567 16.0042 3.72053 14.1642 3.2647C12.3243 2.80887 10.3873 2.94564 8.62969 3.6555C6.87204 4.36535 5.38339 5.61206 4.37604 7.21782C3.36868 8.82359 2.89406 10.7064 3.01984 12.5978C3.14563 14.4892 3.8654 16.2926 5.07652 17.7509C6.28765 19.2091 7.92827 20.2477 9.76445 20.7185C11.6006 21.1894 13.5386 21.0685 15.302 20.373M3.6001 9H20.4001M3.6001 15H13.5001M11.4999 3C9.81525 5.69961 8.92212 8.81787 8.92212 12C8.92212 15.1821 9.81525 18.3004 11.4999 21M12.5 3C14.2787 5.84887 15.173 9.16104 15.07 12.518M14.014 17.921C13.6145 18.9958 13.1072 20.0274 12.5 21M19 22V22.01M19 19C19.4483 18.9986 19.8832 18.8468 20.235 18.569C20.5868 18.2911 20.8352 17.9033 20.9406 17.4675C21.0459 17.0318 21.0019 16.5733 20.8158 16.1655C20.6297 15.7576 20.3122 15.424 19.914 15.218C19.5162 15.0142 19.0611 14.951 18.6228 15.0387C18.1845 15.1264 17.7888 15.3598 17.5 15.701" stroke="currentColor" stroke-width="1.5" stroke-linecap="round" stroke-linejoin="round"/>
</svg>
