<svg width="24" height="24" viewBox="0 0 24 24" fill="none" xmlns="http://www.w3.org/2000/svg">
<path d="M20.9461 12.99C21.1442 11.2006 20.801 9.39289 19.961 7.8005C19.121 6.20812 17.8227 4.90428 16.2339 4.05747C14.6451 3.21066 12.8389 2.85981 11.0486 3.05026C9.25838 3.24072 7.56639 3.96373 6.19133 5.12584C4.81626 6.28796 3.82134 7.83577 3.33514 9.56924C2.84893 11.3027 2.8938 13.1422 3.46393 14.8499C4.03407 16.5576 5.10327 18.055 6.53335 19.1487C7.96344 20.2424 9.68867 20.8821 11.4861 20.985M3.6001 9H20.4001M3.6001 15H17.5001M11.4999 3C9.81525 5.69961 8.92212 8.81787 8.92212 12C8.92212 15.1821 9.81525 18.3004 11.4999 21M12.5 3C14.7316 6.57544 15.5552 10.8525 14.811 15.001M15 19L17 21L21 17" stroke="currentColor" stroke-width="1.5" stroke-linecap="round" stroke-linejoin="round"/>
</svg>
