<svg width="24" height="24" viewBox="0 0 24 24" fill="none" xmlns="http://www.w3.org/2000/svg">
<path d="M5.65694 5.61501C3.96764 7.30139 3.01745 9.58977 3.01538 11.9767C3.01332 14.3637 3.95956 16.6537 5.64594 18.343C7.33232 20.0323 9.6207 20.9825 12.0077 20.9846C14.3946 20.9866 16.6846 20.0404 18.3739 18.354M20.0459 16.032C20.8921 14.3431 21.1854 12.4307 20.8842 10.5659C20.5831 8.70099 19.7028 6.97815 18.368 5.6414C17.0333 4.30466 15.3118 3.42179 13.4473 3.11787C11.5829 2.81394 9.67012 3.10437 7.97994 3.94801M3.6001 9H9.0001M13.0001 9H20.4001M3.6001 15H15.0001M19.0001 15H20.4001M11.4999 3C10.9034 3.95539 10.4032 4.9677 10.0069 6.022M9.1599 9.167C8.4799 13.194 9.2599 17.411 11.4999 21M12.5 3C14.0067 5.41274 14.8832 8.1653 15.049 11.005M14.842 14.823C14.4733 17.0155 13.6776 19.1142 12.5 21M3 3L21 21" stroke="currentColor" stroke-width="1.5" stroke-linecap="round" stroke-linejoin="round"/>
</svg>
