<svg width="24" height="24" viewBox="0 0 24 24" fill="none" xmlns="http://www.w3.org/2000/svg">
<path d="M21 12C21 10.2193 20.4718 8.47867 19.4822 6.9983C18.4926 5.51794 17.0861 4.3644 15.4407 3.68365C13.7953 3.0029 11.9849 2.82555 10.2387 3.17404C8.49243 3.52252 6.88881 4.38118 5.63074 5.64135C4.37266 6.90153 3.51668 8.50658 3.17111 10.2534C2.82554 12.0002 3.00591 13.8103 3.6894 15.4545C4.37289 17.0988 5.52878 18.5034 7.01079 19.4905C8.49281 20.4776 10.2343 21.003 12.015 21M3.6001 9H20.4001M3.6001 15H13.5001M11.4999 3C9.81525 5.69961 8.92212 8.81787 8.92212 12C8.92212 15.1821 9.81525 18.3004 11.4999 21M12.5 3C14.4156 6.06838 15.3019 9.66801 15.03 13.275M17 21L21 17M16 19C16 19.7956 16.3161 20.5587 16.8787 21.1213C17.4413 21.6839 18.2044 22 19 22C19.7956 22 20.5587 21.6839 21.1213 21.1213C21.6839 20.5587 22 19.7956 22 19C22 18.2044 21.6839 17.4413 21.1213 16.8787C20.5587 16.3161 19.7956 16 19 16C18.2044 16 17.4413 16.3161 16.8787 16.8787C16.3161 17.4413 16 18.2044 16 19Z" stroke="currentColor" stroke-width="1.5" stroke-linecap="round" stroke-linejoin="round"/>
</svg>
