<svg width="24" height="24" viewBox="0 0 24 24" fill="none" xmlns="http://www.w3.org/2000/svg">
<path d="M12 21C10.8181 21 9.64778 20.7672 8.55585 20.3149C7.46392 19.8626 6.47177 19.1997 5.63604 18.364C4.80031 17.5282 4.13738 16.5361 3.68508 15.4442C3.23279 14.3522 3 13.1819 3 12C3 10.8181 3.23279 9.64778 3.68508 8.55585C4.13738 7.46392 4.80031 6.47177 5.63604 5.63604C6.47177 4.80031 7.46392 4.13738 8.55585 3.68508C9.64778 3.23279 10.8181 3 12 3M12 21C13.1819 21 14.3522 20.7672 15.4442 20.3149C16.5361 19.8626 17.5282 19.1997 18.364 18.364C19.1997 17.5282 19.8626 16.5361 20.3149 15.4442C20.7672 14.3522 21 13.1819 21 12C21 10.8181 20.7672 9.64778 20.3149 8.55585C19.8626 7.46392 19.1997 6.47177 18.364 5.63604C17.5282 4.80031 16.5361 4.13738 15.4442 3.68508C14.3522 3.23279 13.1819 3 12 3M12 21V3M11.5 3C10.0937 4.04165 8.95106 5.39835 8.16374 6.9613C7.37641 8.52425 6.96631 10.2499 6.96631 12C6.96631 13.7501 7.37641 15.4758 8.16374 17.0387C8.95106 18.6017 10.0937 19.9584 11.5 21M12.5 3C13.9063 4.04165 15.0489 5.39835 15.8362 6.9613C16.6236 8.52425 17.0337 10.2499 17.0337 12C17.0337 13.7501 16.6236 15.4758 15.8362 17.0387C15.0489 18.6017 13.9063 19.9584 12.5 21" stroke="currentColor" stroke-width="1.5" stroke-linecap="round" stroke-linejoin="round"/>
</svg>
