<svg width="24" height="24" viewBox="0 0 24 24" fill="none" xmlns="http://www.w3.org/2000/svg">
<path d="M17 3.33989C18.5083 4.21075 19.7629 5.46042 20.6398 6.96519C21.5167 8.46997 21.9854 10.1777 21.9994 11.9192C22.0135 13.6608 21.5725 15.3758 20.72 16.8946C19.8676 18.4133 18.6332 19.6831 17.1392 20.5782C15.6452 21.4733 13.9434 21.9627 12.2021 21.998C10.4608 22.0332 8.74055 21.6131 7.21155 20.7791C5.68256 19.9452 4.39787 18.7264 3.48467 17.2434C2.57146 15.7604 2.06141 14.0646 2.005 12.3239L2 11.9999L2.005 11.6759C2.061 9.94888 2.56355 8.26585 3.46364 6.79089C4.36373 5.31592 5.63065 4.09934 7.14089 3.25977C8.65113 2.42021 10.3531 1.98629 12.081 2.00033C13.8089 2.01437 15.5036 2.47589 17 3.33989ZM8 5.07189C6.47497 5.95247 5.2831 7.31165 4.60923 8.93863C3.93537 10.5656 3.81716 12.3695 4.27295 14.0705C4.72874 15.7715 5.73305 17.2746 7.13013 18.3466C8.52721 19.4187 10.239 19.9998 12 19.9999L12.2 19.9949C13.225 19.9436 14.191 19.5003 14.8983 18.7567C15.6056 18.0131 16.0001 17.0261 16.0001 15.9999C16.0001 14.9736 15.6056 13.9866 14.8983 13.2431C14.191 12.4995 13.225 12.0562 12.2 12.0049L12 11.9999C10.9564 11.9999 9.9542 11.5921 9.20712 10.8635C8.46004 10.1349 8.02729 9.14315 8.00119 8.09992C7.97509 7.0567 8.35772 6.04457 9.06744 5.27952C9.77715 4.51446 10.7578 4.05705 11.8 4.00489L12 3.99989C10.5957 3.99972 9.21604 4.36946 8 5.07189ZM12 6.49989C11.6022 6.49989 11.2206 6.65793 10.9393 6.93923C10.658 7.22054 10.5 7.60207 10.5 7.99989C10.5 8.39772 10.658 8.77925 10.9393 9.06055C11.2206 9.34186 11.6022 9.49989 12 9.49989C12.3978 9.49989 12.7794 9.34186 13.0607 9.06055C13.342 8.77925 13.5 8.39772 13.5 7.99989C13.5 7.60207 13.342 7.22054 13.0607 6.93923C12.7794 6.65793 12.3978 6.49989 12 6.49989Z" fill="currentColor"/>
<path d="M12 14.4999C12.3978 14.4999 12.7794 14.6579 13.0607 14.9392C13.342 15.2205 13.5 15.6021 13.5 15.9999C13.5 16.3977 13.342 16.7792 13.0607 17.0605C12.7794 17.3418 12.3978 17.4999 12 17.4999C11.6022 17.4999 11.2206 17.3418 10.9393 17.0605C10.658 16.7792 10.5 16.3977 10.5 15.9999C10.5 15.6021 10.658 15.2205 10.9393 14.9392C11.2206 14.6579 11.6022 14.4999 12 14.4999Z" fill="currentColor"/>
</svg>
