<svg width="24" height="24" viewBox="0 0 24 24" fill="none" xmlns="http://www.w3.org/2000/svg">
<path d="M21 21L15 15M10 13V13.01M10.0001 10C10.2518 10.0001 10.4995 9.93691 10.7204 9.81618C10.9412 9.69545 11.1281 9.52108 11.2639 9.30914C11.3997 9.09719 11.4799 8.85449 11.4973 8.60339C11.5146 8.35228 11.4685 8.10085 11.3632 7.87225C11.2579 7.64365 11.0967 7.44523 10.8945 7.29527C10.6924 7.14532 10.4557 7.04864 10.2064 7.01415C9.95707 6.97966 9.70307 7.00847 9.4678 7.09792C9.23253 7.18736 9.02355 7.33458 8.86011 7.526M3 10C3 10.9193 3.18106 11.8295 3.53284 12.6788C3.88463 13.5281 4.40024 14.2997 5.05025 14.9497C5.70026 15.5998 6.47194 16.1154 7.32122 16.4672C8.1705 16.8189 9.08075 17 10 17C10.9193 17 11.8295 16.8189 12.6788 16.4672C13.5281 16.1154 14.2997 15.5998 14.9497 14.9497C15.5998 14.2997 16.1154 13.5281 16.4672 12.6788C16.8189 11.8295 17 10.9193 17 10C17 9.08075 16.8189 8.1705 16.4672 7.32122C16.1154 6.47194 15.5998 5.70026 14.9497 5.05025C14.2997 4.40024 13.5281 3.88463 12.6788 3.53284C11.8295 3.18106 10.9193 3 10 3C9.08075 3 8.1705 3.18106 7.32122 3.53284C6.47194 3.88463 5.70026 4.40024 5.05025 5.05025C4.40024 5.70026 3.88463 6.47194 3.53284 7.32122C3.18106 8.1705 3 9.08075 3 10Z" stroke="currentColor" stroke-width="1.5" stroke-linecap="round" stroke-linejoin="round"/>
</svg>
