<svg width="24" height="24" viewBox="0 0 24 24" fill="none" xmlns="http://www.w3.org/2000/svg">
<path d="M4 8V6C4 5.46957 4.21071 4.96086 4.58579 4.58579C4.96086 4.21071 5.46957 4 6 4H8M4 16V18C4 18.5304 4.21071 19.0391 4.58579 19.4142C4.96086 19.7893 5.46957 20 6 20H8M16 4H18C18.5304 4 19.0391 4.21071 19.4142 4.58579C19.7893 4.96086 20 5.46957 20 6V8M16 20H18C18.5304 20 19.0391 19.7893 19.4142 19.4142C19.7893 19.0391 20 18.5304 20 18V16M16 16L13.5 13.5M8 11C8 11.394 8.0776 11.7841 8.22836 12.1481C8.37913 12.512 8.6001 12.8427 8.87868 13.1213C9.15726 13.3999 9.48797 13.6209 9.85195 13.7716C10.2159 13.9224 10.606 14 11 14C11.394 14 11.7841 13.9224 12.1481 13.7716C12.512 13.6209 12.8427 13.3999 13.1213 13.1213C13.3999 12.8427 13.6209 12.512 13.7716 12.1481C13.9224 11.7841 14 11.394 14 11C14 10.2044 13.6839 9.44129 13.1213 8.87868C12.5587 8.31607 11.7956 8 11 8C10.2044 8 9.44129 8.31607 8.87868 8.87868C8.31607 9.44129 8 10.2044 8 11Z" stroke="currentColor" stroke-width="1.5" stroke-linecap="round" stroke-linejoin="round"/>
</svg>
