<svg width="24" height="24" viewBox="0 0 24 24" fill="none" xmlns="http://www.w3.org/2000/svg">
<path d="M21 21L15 15M3.26807 12.0431C3.70503 13.4662 4.58328 14.7135 5.77583 15.6046C6.96839 16.4957 8.41345 16.9844 9.90207 17.0001C11.624 17.0213 13.2936 16.4081 14.5925 15.2774C15.8914 14.1467 16.7288 12.5775 16.9451 10.8691C17.1578 9.16057 16.7335 7.4336 15.7531 6.01828C14.7728 4.60295 13.3053 3.59854 11.6311 3.19706C9.95648 2.792 8.19141 3.0168 6.67182 3.82869C5.15223 4.64058 3.9842 5.98286 3.39007 7.60006M3 4V8H7" stroke="currentColor" stroke-width="1.5" stroke-linecap="round" stroke-linejoin="round"/>
</svg>
