<svg width="24" height="24" viewBox="0 0 24 24" fill="none" xmlns="http://www.w3.org/2000/svg">
<path d="M15 9C16.1013 8.99992 17.1813 9.30293 18.1218 9.87584C19.0623 10.4488 19.827 11.2695 20.3321 12.2481C20.8372 13.2267 21.0633 14.3254 20.9855 15.4239C20.9076 16.5225 20.529 17.5784 19.891 18.476L22.707 21.293C22.8863 21.473 22.9905 21.7144 22.9982 21.9684C23.006 22.2223 22.9168 22.4697 22.7488 22.6603C22.5807 22.8508 22.3464 22.9703 22.0935 22.9944C21.8406 23.0185 21.588 22.9454 21.387 22.79L21.293 22.707L18.476 19.891C17.5939 20.518 16.5587 20.8947 15.48 20.9813C14.4013 21.068 13.3192 20.8612 12.3484 20.383C11.3776 19.9048 10.5542 19.1729 9.96544 18.2648C9.37669 17.3568 9.04447 16.3064 9.004 15.225L9 15L9.004 14.775C9.06221 13.2237 9.71942 11.7554 10.8375 10.6785C11.9556 9.60157 13.4476 8.99994 15 9ZM15 12C14.7551 12 14.5187 12.09 14.3356 12.2527C14.1526 12.4155 14.0357 12.6397 14.007 12.883L14 13V14H13L12.883 14.007C12.64 14.0359 12.4159 14.153 12.2534 14.336C12.0909 14.519 12.0011 14.7552 12.0011 15C12.0011 15.2448 12.0909 15.481 12.2534 15.664C12.4159 15.847 12.64 15.9641 12.883 15.993L13 16H14V17L14.007 17.117C14.0359 17.3601 14.153 17.5841 14.336 17.7466C14.519 17.9091 14.7552 17.9989 15 17.9989C15.2448 17.9989 15.481 17.9091 15.664 17.7466C15.847 17.5841 15.9641 17.3601 15.993 17.117L16 17V16H17L17.117 15.993C17.3601 15.9641 17.5841 15.847 17.7466 15.664C17.9091 15.481 17.9989 15.2448 17.9989 15C17.9989 14.7552 17.9091 14.519 17.7466 14.336C17.5841 14.153 17.3601 14.0359 17.117 14.007L17 14H16V13L15.993 12.883C15.9643 12.6397 15.8474 12.4155 15.6644 12.2527C15.4813 12.09 15.2449 12 15 12Z" fill="currentColor"/>
<path d="M3 14C3.24493 14 3.48134 14.09 3.66437 14.2527C3.84741 14.4155 3.96434 14.6397 3.993 14.883L4 15V16C4.00003 16.2449 4.08996 16.4813 4.25272 16.6644C4.41547 16.8474 4.63975 16.9643 4.883 16.993L5 17H6C6.25488 17.0003 6.50003 17.0979 6.68537 17.2728C6.8707 17.4478 6.98223 17.687 6.99717 17.9414C7.01211 18.1958 6.92933 18.4464 6.76574 18.6418C6.60214 18.8373 6.3701 18.9629 6.117 18.993L6 19H5C4.23479 19 3.49849 18.7077 2.94174 18.1827C2.38499 17.6578 2.04989 16.9399 2.005 16.176L2 16V15C2 14.7348 2.10536 14.4804 2.29289 14.2929C2.48043 14.1054 2.73478 14 3 14Z" fill="currentColor"/>
<path d="M3 9C3.24493 9.00003 3.48134 9.08996 3.66437 9.25272C3.84741 9.41547 3.96434 9.63975 3.993 9.883L4 10V11C3.99972 11.2549 3.90212 11.5 3.72715 11.6854C3.55218 11.8707 3.31305 11.9822 3.05861 11.9972C2.80416 12.0121 2.55362 11.9293 2.35817 11.7657C2.16271 11.6021 2.0371 11.3701 2.007 11.117L2 11V10C2 9.73478 2.10536 9.48043 2.29289 9.29289C2.48043 9.10536 2.73478 9 3 9Z" fill="currentColor"/>
<path d="M6 2C6.25488 2.00028 6.50003 2.09788 6.68537 2.27285C6.8707 2.44782 6.98223 2.68695 6.99717 2.94139C7.01211 3.19584 6.92933 3.44638 6.76574 3.64183C6.60214 3.83729 6.3701 3.9629 6.117 3.993L6 4H5C4.75507 4.00003 4.51866 4.08996 4.33563 4.25272C4.15259 4.41547 4.03566 4.63975 4.007 4.883L4 5V6C3.99972 6.25488 3.90212 6.50003 3.72715 6.68537C3.55218 6.8707 3.31305 6.98223 3.05861 6.99717C2.80416 7.01211 2.55362 6.92933 2.35817 6.76574C2.16271 6.60214 2.0371 6.3701 2.007 6.117L2 6V5C1.99996 4.23479 2.29233 3.49849 2.81728 2.94174C3.34224 2.38499 4.06011 2.04989 4.824 2.005L5 2H6Z" fill="currentColor"/>
<path d="M11 2C11.2549 2.00028 11.5 2.09788 11.6854 2.27285C11.8707 2.44782 11.9822 2.68695 11.9972 2.94139C12.0121 3.19584 11.9293 3.44638 11.7657 3.64183C11.6021 3.83729 11.3701 3.9629 11.117 3.993L11 4H10C9.74512 3.99972 9.49997 3.90212 9.31463 3.72715C9.12929 3.55218 9.01776 3.31305 9.00283 3.05861C8.98789 2.80416 9.07067 2.55362 9.23426 2.35817C9.39785 2.16271 9.6299 2.0371 9.883 2.007L10 2H11Z" fill="currentColor"/>
<path d="M16 2C16.7652 1.99996 17.5015 2.29233 18.0583 2.81728C18.615 3.34224 18.9501 4.06011 18.995 4.824L19 5V6C18.9997 6.25488 18.9021 6.50003 18.7271 6.68537C18.5522 6.8707 18.313 6.98223 18.0586 6.99717C17.8042 7.01211 17.5536 6.92933 17.3582 6.76574C17.1627 6.60214 17.0371 6.3701 17.007 6.117L17 6V5C17 4.75507 16.91 4.51866 16.7473 4.33563C16.5845 4.15259 16.3602 4.03566 16.117 4.007L16 4H15C14.7451 3.99972 14.5 3.90212 14.3146 3.72715C14.1293 3.55218 14.0178 3.31305 14.0028 3.05861C13.9879 2.80416 14.0707 2.55362 14.2343 2.35817C14.3979 2.16271 14.6299 2.0371 14.883 2.007L15 2H16Z" fill="currentColor"/>
</svg>
