<svg width="24" height="24" viewBox="0 0 24 24" fill="none" xmlns="http://www.w3.org/2000/svg">
<path d="M14 3.07209C14.9525 3.62204 15.7813 4.36247 16.4348 5.24716C17.0882 6.13184 17.5522 7.14176 17.7978 8.21383C18.0434 9.28591 18.0653 10.3971 17.8621 11.478C17.659 12.5589 17.2351 13.5864 16.617 14.4961L21.561 19.4391C21.8363 19.7103 21.9962 20.0773 22.0075 20.4636C22.0188 20.8499 21.8806 21.2256 21.6217 21.5125C21.3628 21.7994 21.0032 21.9753 20.6178 22.0035C20.2324 22.0317 19.851 21.9102 19.553 21.6641L19.439 21.5611L14.496 16.6171C13.3134 17.4204 11.9371 17.8921 10.5104 17.9831C9.08367 18.0742 7.65861 17.7813 6.38348 17.1348C5.10835 16.4884 4.02975 15.512 3.25989 14.3074C2.49004 13.1027 2.05706 11.7138 2.006 10.2851L2 10.0001L2.005 9.71509C2.05419 8.33584 2.45937 6.99277 3.18115 5.81642C3.90292 4.64008 4.91675 3.67046 6.12409 3.00182C7.33143 2.33318 8.69122 1.98825 10.0713 2.00056C11.4514 2.01288 12.8048 2.38201 14 3.07209ZM13 9.00009H7L6.883 9.00709C6.63995 9.036 6.41594 9.15304 6.25341 9.33605C6.09088 9.51906 6.00111 9.75533 6.00111 10.0001C6.00111 10.2449 6.09088 10.4811 6.25341 10.6641C6.41594 10.8471 6.63995 10.9642 6.883 10.9931L7 11.0001H13L13.117 10.9931C13.36 10.9642 13.5841 10.8471 13.7466 10.6641C13.9091 10.4811 13.9989 10.2449 13.9989 10.0001C13.9989 9.75533 13.9091 9.51906 13.7466 9.33605C13.5841 9.15304 13.36 9.036 13.117 9.00709L13 9.00009Z" fill="currentColor"/>
</svg>
