<svg width="24" height="24" viewBox="0 0 24 24" fill="none" xmlns="http://www.w3.org/2000/svg">
<path d="M21 21.0001L15 15.0001M3.29102 8.00011C3.64183 6.82434 4.29553 5.76144 5.18659 4.91793C6.07766 4.07443 7.17479 3.47996 8.36802 3.19411C10.0427 2.78877 11.8081 3.01344 13.3279 3.82535C14.8477 4.63726 16.0159 5.9797 16.61 7.59711M17 4.00012V8.00012H13M16.7049 12.0001C16.3531 13.174 15.6994 14.235 14.8089 15.077C13.9185 15.919 12.8226 16.5125 11.6309 16.7981C9.9563 17.2032 8.19124 16.9784 6.67164 16.1665C5.15205 15.3546 3.98403 14.0123 3.38989 12.3951M3 16.0001V12.0001H7" stroke="currentColor" stroke-width="1.5" stroke-linecap="round" stroke-linejoin="round"/>
</svg>
