<svg width="80" height="28" viewBox="0 0 80 28" fill="none" xmlns="http://www.w3.org/2000/svg">
<path d="M28.9326 0.406292V17.9669C28.9326 18.0745 28.9767 18.1777 29.0551 18.2539C29.1335 18.3301 29.2398 18.3731 29.3507 18.3731H32.4643C32.5717 18.373 32.6752 18.3328 32.7529 18.2608C32.8306 18.1888 32.8766 18.0904 32.8818 17.9862L32.8956 17.7135C32.8992 17.6391 32.9239 17.5671 32.9668 17.5054C33.0097 17.4437 33.0691 17.3948 33.1387 17.3638C33.2084 17.3328 33.2855 17.3211 33.3616 17.3298C33.4377 17.3386 33.51 17.3674 33.5703 17.4133C34.5822 18.195 36.0186 18.6757 37.8065 18.6757C42.0501 18.6757 45.0587 15.48 45.0587 11.0879C45.0587 6.6659 42.0485 3.53083 37.8065 3.53083C35.9054 3.53083 34.5413 4.06212 33.5602 4.88474C33.5 4.93678 33.4256 4.97082 33.3459 4.98281C33.2663 4.9948 33.1847 4.98431 33.1111 4.9524C33.0375 4.9205 32.9746 4.86865 32.9306 4.80306C32.8866 4.73747 32.8631 4.66078 32.8628 4.58248V0.406292C32.8628 0.298541 32.8187 0.195128 32.7403 0.118936C32.6618 0.0427451 32.5553 0 32.4444 0H29.3504C29.2395 8.09151e-05 29.1332 0.043052 29.0548 0.119235C28.9764 0.195417 28.9326 0.298594 28.9326 0.406292ZM32.9094 11.0727C32.9094 8.75624 34.6245 7.01308 36.9799 7.01308C39.3657 7.01308 41.0349 8.72419 41.0349 11.0727C41.0349 13.3751 39.3654 15.1935 36.9799 15.1935C34.6245 15.1935 32.9094 13.3767 32.9094 11.0727Z" fill="#004730"/>
<path d="M62.7172 0H59.6233C59.5123 0 59.4058 0.0427451 59.3273 0.118936C59.2489 0.195128 59.2049 0.298541 59.2049 0.406292V4.58248C59.2045 4.66078 59.1808 4.73747 59.1367 4.80306C59.0927 4.86865 59.0302 4.9205 58.9565 4.9524C58.8829 4.98431 58.8014 4.9948 58.7217 4.98281C58.642 4.97082 58.5677 4.93678 58.5074 4.88474C57.5264 4.06242 56.1622 3.53083 54.2608 3.53083C50.0191 3.53083 47.0089 6.6659 47.0089 11.0879C47.0089 15.4806 50.0191 18.6757 54.2608 18.6757C56.0487 18.6757 57.4858 18.195 58.4973 17.4133C58.5576 17.3673 58.6296 17.3383 58.7057 17.3295C58.7819 17.3207 58.8592 17.3325 58.9289 17.3635C58.9986 17.3945 59.0582 17.4437 59.1011 17.5054C59.144 17.5671 59.1685 17.6391 59.172 17.7135L59.1858 17.9862C59.191 18.0905 59.237 18.1888 59.3148 18.2608C59.3925 18.3328 59.4959 18.3731 59.6033 18.3731H62.7172C62.8281 18.3731 62.9344 18.3301 63.0128 18.2539C63.0912 18.1777 63.1353 18.0745 63.1353 17.9669V0.406292C63.1354 0.352953 63.1247 0.300278 63.1037 0.250989C63.0827 0.201699 63.052 0.156667 63.0131 0.118936C62.9743 0.0812063 62.9282 0.0514219 62.8775 0.031001C62.8267 0.01058 62.7722 -1.50767e-08 62.7172 0ZM55.0878 15.1923C52.7016 15.1923 51.0327 13.3755 51.0327 11.0715C51.0327 8.72453 52.7019 7.01159 55.0878 7.01159C57.4428 7.01159 59.1576 8.75383 59.1576 11.0715C59.1576 13.3739 57.4428 15.1923 55.0878 15.1923Z" fill="#004730"/>
<path d="M74.0926 21.0261V21.884C74.0925 21.9202 74.0776 21.955 74.0512 21.9806C74.0248 22.0062 73.989 22.0205 73.9517 22.0205H72.931C72.8937 22.0205 72.858 22.0349 72.8316 22.0605C72.8052 22.0861 72.7902 22.1205 72.7901 22.1568V25.6646C72.7901 25.7009 72.7753 25.7356 72.749 25.7612C72.7227 25.7869 72.6871 25.8014 72.6499 25.8015H71.6715C71.6342 25.8015 71.5982 25.7869 71.5718 25.7612C71.5454 25.7356 71.5306 25.7009 71.5306 25.6646V21.0249C71.5306 21.007 71.5343 20.9893 71.5414 20.9728C71.5485 20.9562 71.559 20.941 71.5721 20.9283C71.5852 20.9157 71.6004 20.9057 71.6175 20.8988C71.6346 20.892 71.6531 20.8887 71.6715 20.8887H73.952C73.9705 20.8887 73.9887 20.892 74.0057 20.8988C74.0228 20.9057 74.0384 20.9157 74.0515 20.9283C74.0646 20.941 74.0751 20.9562 74.0822 20.9728C74.0893 20.9893 74.0929 21.007 74.0929 21.0249" fill="#A2BB0C"/>
<path d="M74.7847 23.3599C74.7799 22.8576 74.9287 22.365 75.2126 21.9452C75.4966 21.5253 75.9028 21.1969 76.3794 21.0017C76.8561 20.8065 77.3819 20.7533 77.8897 20.8488C78.3976 20.9443 78.8647 21.1843 79.2318 21.5383C79.5989 21.8922 79.8494 22.344 79.9514 22.8364C80.0534 23.3289 80.0023 23.8397 79.8046 24.3039C79.607 24.7681 79.2717 25.165 78.8413 25.4438C78.411 25.7225 77.9048 25.8706 77.3875 25.8695C77.0435 25.883 76.7004 25.8275 76.3794 25.7064C76.0585 25.5853 75.767 25.4012 75.5227 25.1657C75.2784 24.9301 75.0867 24.6483 74.9597 24.3376C74.8327 24.0268 74.7732 23.694 74.7847 23.3599ZM78.6759 23.3411C78.6759 22.5291 78.1583 21.963 77.3869 21.963C76.6256 21.963 76.0983 22.5288 76.0983 23.3411C76.0983 24.1625 76.6243 24.7376 77.3869 24.7376C78.1577 24.7376 78.6759 24.1625 78.6759 23.3411Z" fill="#A2BB0C"/>
<path d="M64.3162 20.8764H63.279C63.2605 20.8764 63.2423 20.8797 63.2253 20.8865C63.2082 20.8934 63.1926 20.9034 63.1795 20.916C63.1664 20.9287 63.1559 20.9439 63.1488 20.9605C63.1417 20.977 63.1381 20.9947 63.1381 21.0126V21.5125C62.9373 21.2783 62.6823 21.0935 62.394 20.9733C62.1056 20.853 61.7923 20.8005 61.4792 20.8204C60.0552 20.8204 59.0449 21.873 59.0449 23.3577C59.0449 24.832 60.0552 25.9045 61.4792 25.9045C61.9886 25.9238 62.4895 25.7746 62.9002 25.4812C62.9205 25.4657 62.9448 25.4559 62.9705 25.4529C62.9961 25.4499 63.0222 25.4538 63.0457 25.4642C63.0692 25.4747 63.0892 25.4911 63.1037 25.5119C63.1181 25.5327 63.1265 25.5572 63.1276 25.5823L63.1322 25.6738C63.134 25.7088 63.1497 25.7417 63.1758 25.7659C63.202 25.7901 63.2367 25.8037 63.2728 25.8038H64.3168C64.3542 25.8038 64.3902 25.7895 64.4166 25.7638C64.443 25.7382 64.4577 25.7032 64.4577 25.6669V21.0138C64.4577 20.9959 64.4541 20.9782 64.447 20.9616C64.4399 20.9451 64.4297 20.9299 64.4166 20.9172C64.4035 20.9046 64.3879 20.8946 64.3709 20.8877C64.3538 20.8809 64.3353 20.8775 64.3168 20.8776M61.7564 24.7363C61.5721 24.737 61.3894 24.7014 61.2198 24.6314C61.0502 24.5614 60.8971 24.4585 60.7698 24.3291C60.6424 24.1997 60.5435 24.0464 60.4791 23.8787C60.4147 23.711 60.3862 23.5323 60.3953 23.3535C60.3853 23.1755 60.4132 22.9976 60.4776 22.8307C60.5419 22.6637 60.641 22.5115 60.7689 22.3835C60.8967 22.2556 61.0505 22.1547 61.2204 22.0872C61.3903 22.0197 61.5729 21.9869 61.7564 21.9912C61.9397 21.9886 62.1217 22.0222 62.2911 22.0902C62.4606 22.1582 62.6139 22.259 62.7418 22.3865C62.8697 22.514 62.9694 22.6656 63.0349 22.8318C63.1004 22.9981 63.1303 23.1756 63.1227 23.3535C63.1303 23.5323 63.1005 23.711 63.0352 23.8784C62.97 24.0458 62.8706 24.1988 62.743 24.3279C62.6154 24.4571 62.4622 24.5597 62.2927 24.6299C62.1231 24.7001 61.9407 24.7363 61.7564 24.7363Z" fill="#A2BB0C"/>
<path d="M70.5594 27.0322V21.0162C70.5594 20.9982 70.5558 20.9803 70.5487 20.9637C70.5416 20.9471 70.5314 20.932 70.5183 20.9193C70.5052 20.9066 70.4896 20.8967 70.4725 20.8898C70.4555 20.8829 70.437 20.8794 70.4185 20.8794H69.3813C69.3628 20.8794 69.3446 20.8829 69.3275 20.8898C69.3105 20.8967 69.2949 20.9066 69.2818 20.9193C69.2688 20.932 69.2585 20.9471 69.2514 20.9637C69.2444 20.9803 69.2406 20.9983 69.2407 21.0162V21.5125C69.0399 21.2783 68.785 21.0935 68.4966 20.9733C68.2082 20.853 67.8947 20.8005 67.5815 20.8204C66.1579 20.8204 65.1475 21.873 65.1475 23.3577C65.1475 24.832 66.1579 25.9045 67.5815 25.9045C68.0714 25.9214 68.5538 25.7847 68.9576 25.5149C68.9766 25.501 68.9983 25.491 69.0215 25.4857C69.0447 25.4804 69.0687 25.4802 69.0921 25.4845C69.1232 25.4912 69.151 25.5081 69.1707 25.5325C69.1903 25.5569 69.2006 25.5871 69.1998 25.6181C69.1976 26.1699 69.1959 26.5302 69.1959 26.5302C69.1959 26.5749 69.1774 26.6178 69.1449 26.6494C69.1124 26.681 69.0684 26.6986 69.0224 26.6986H67.3939C67.3567 26.6986 67.3211 26.713 67.2948 26.7386C67.2684 26.7641 67.2536 26.799 67.2536 26.8351V27.8626C67.2536 27.8806 67.257 27.8982 67.2641 27.9148C67.2711 27.9314 67.2814 27.9465 67.2945 27.9592C67.3075 27.9719 67.3231 27.9822 67.3402 27.989C67.3573 27.9959 67.3755 27.9995 67.3939 27.9995H69.4712C70.1681 27.9995 70.561 27.6686 70.561 27.0316M69.2115 23.5592V23.1439C69.2307 23.2817 69.2307 23.4214 69.2115 23.5592ZM67.8599 24.7345C67.6756 24.7352 67.493 24.6993 67.3233 24.6293C67.1537 24.5593 67.0007 24.4567 66.8733 24.3273C66.746 24.198 66.647 24.0446 66.5826 23.8769C66.5182 23.7092 66.4898 23.5305 66.4988 23.3517C66.4885 23.0136 66.612 22.6846 66.8438 22.4321C67.0757 22.1796 67.3983 22.0231 67.7454 21.9945C68.0925 21.9659 68.4379 22.0673 68.7102 22.2783C68.9826 22.4893 69.1612 22.7937 69.2097 23.1287C69.2103 23.1357 69.2103 23.1426 69.2097 23.1496C69.2097 23.2528 69.2097 23.3939 69.2097 23.5636L69.2078 23.5857C69.1666 23.9041 69.0068 24.1967 68.7584 24.4084C68.5101 24.6201 68.1904 24.7361 67.8599 24.7345Z" fill="#A2BB0C"/>
<path d="M22.1087 14.3016V6.98952C22.1087 6.96286 22.1141 6.93635 22.1246 6.91172C22.1351 6.88709 22.1503 6.86469 22.1698 6.84584C22.1892 6.82699 22.2122 6.81222 22.2376 6.80202C22.263 6.79182 22.2903 6.78652 22.3177 6.78652H26.1377C26.2486 6.78652 26.3551 6.74378 26.4336 6.66759C26.512 6.5914 26.5561 6.48798 26.5561 6.38023V4.10315C26.5561 4.04984 26.5454 3.99682 26.5244 3.94755C26.5035 3.89828 26.4727 3.85352 26.4339 3.8158C26.3951 3.77807 26.3489 3.7483 26.2982 3.72786C26.2475 3.70742 26.1932 3.6969 26.1383 3.69686L22.3423 3.6906C22.3148 3.6906 22.2875 3.6853 22.2622 3.6751C22.2368 3.6649 22.2137 3.65013 22.1943 3.63128C22.1749 3.61243 22.1594 3.59003 22.1489 3.5654C22.1384 3.54078 22.1332 3.51426 22.1332 3.4876V1.53007C22.1329 1.12602 21.9671 0.738648 21.6728 0.453085C21.3784 0.167523 20.9795 0.00736527 20.5634 0.00744632H18.5027C18.3919 0.00760692 18.2858 0.050126 18.2074 0.126085C18.129 0.202043 18.0847 0.305301 18.0843 0.412844L18.0435 15.4948C18.0435 17.3931 19.2147 18.3788 21.2906 18.3788H26.138C26.193 18.3788 26.2474 18.3685 26.2982 18.3481C26.349 18.3277 26.3953 18.2976 26.4342 18.2599C26.4731 18.2221 26.5038 18.1772 26.5248 18.1278C26.5457 18.0785 26.5565 18.0256 26.5564 17.9722L26.5536 14.9094C26.5534 14.8018 26.5092 14.6987 26.4308 14.6226C26.3524 14.5466 26.246 14.5041 26.1352 14.504H22.318C22.2626 14.504 22.2093 14.4824 22.1701 14.4444C22.1309 14.4063 22.109 14.3548 22.109 14.301" fill="#004730"/>
<path d="M77.5068 13.4035C77.4196 13.3443 77.3124 13.3197 77.2072 13.3349C77.1019 13.3501 77.0068 13.4037 76.941 13.4848C76.5529 14.0078 76.0404 14.4318 75.447 14.7207C74.8536 15.0096 74.197 15.1551 73.5333 15.1443C71.2468 15.1443 69.5366 13.3921 69.5366 11.1416C69.5366 8.84556 71.2001 7.06436 73.5959 7.06436C74.2012 7.06921 74.7979 7.20201 75.3448 7.45395C75.8916 7.7059 76.3754 8.07073 76.762 8.52289C76.8275 8.59906 76.9193 8.64964 77.0202 8.66508C77.1211 8.68052 77.2242 8.65988 77.3106 8.60695L79.6862 7.12934C79.734 7.09988 79.775 7.06109 79.8069 7.01577C79.8388 6.97045 79.8607 6.91939 79.8717 6.86553C79.8826 6.81167 79.8822 6.75617 79.8704 6.70248C79.8586 6.64879 79.8358 6.59797 79.8032 6.55314C79.0825 5.59779 78.138 4.82292 77.0478 4.29215C75.9576 3.76139 74.7528 3.48997 73.5333 3.50074C69.1012 3.50074 65.5699 6.823 65.5699 11.0668C65.5877 12.6792 66.129 14.2452 67.1164 15.5416C68.1038 16.8381 69.4871 17.7992 71.0696 18.2879C72.652 18.7766 74.3529 18.7681 75.9302 18.2638C77.5074 17.7594 78.8807 16.7846 79.8545 15.4784C79.9167 15.3899 79.9401 15.281 79.9199 15.1756C79.8996 15.0702 79.8373 14.9768 79.7464 14.9159L77.5068 13.4035Z" fill="#004730"/>
<path d="M14.8829 3.63667H9.54771C8.24902 3.63506 6.96359 3.89154 5.77074 4.39023C4.5779 4.88891 3.50274 5.61926 2.6114 6.53645C2.5885 6.56026 2.57321 6.59019 2.5675 6.6223C2.5618 6.6544 2.56582 6.6872 2.57917 6.71709C2.59252 6.74698 2.61467 6.77253 2.64271 6.79042C2.67076 6.80831 2.70371 6.81781 2.73726 6.81784H5.22035C5.25536 6.81784 5.28891 6.83136 5.31367 6.8554C5.33842 6.87944 5.35234 6.91202 5.35234 6.94602V11.7947C5.35243 11.8287 5.36652 11.8613 5.39133 11.8853C5.41614 11.9093 5.4496 11.9229 5.48465 11.9229H7.72001C7.73739 11.9228 7.75459 11.926 7.77066 11.9324C7.78673 11.9388 7.80133 11.9482 7.81364 11.9601C7.82594 11.972 7.83585 11.9863 7.84249 12.0019C7.84913 12.0175 7.85236 12.0342 7.85231 12.051V14.4417C7.85231 14.4586 7.84884 14.475 7.84218 14.4906C7.83553 14.5062 7.82593 14.5204 7.81364 14.5323C7.80134 14.5442 7.78671 14.5536 7.77066 14.56C7.75461 14.5665 7.73737 14.5699 7.72001 14.5699H5.4254C5.40805 14.5698 5.39079 14.573 5.37475 14.5794C5.35872 14.5858 5.34404 14.5952 5.33178 14.6071C5.31951 14.619 5.30985 14.6333 5.30323 14.6489C5.29661 14.6644 5.29336 14.6812 5.29341 14.698V15.6212C5.29341 15.6553 5.27948 15.688 5.25473 15.7121C5.22998 15.7362 5.19645 15.7496 5.16141 15.7497H4.00628C3.98891 15.7497 3.97166 15.7466 3.95563 15.7402C3.93959 15.7337 3.92491 15.7241 3.91265 15.7121C3.90039 15.7002 3.89072 15.686 3.8841 15.6704C3.87749 15.6548 3.87393 15.6381 3.87397 15.6212V14.4995C3.87397 14.4655 3.8879 14.433 3.91265 14.4089C3.9374 14.3848 3.97123 14.3711 4.00628 14.371H4.9938C5.01115 14.3711 5.02842 14.3679 5.04445 14.3615C5.06049 14.3551 5.07485 14.3454 5.08712 14.3335C5.09939 14.3216 5.10936 14.3076 5.11598 14.2921C5.1226 14.2765 5.12584 14.2597 5.1258 14.2429V12.2406C5.12584 12.2238 5.1226 12.207 5.11598 12.1914C5.10936 12.1759 5.09939 12.1616 5.08712 12.1497C5.07485 12.1378 5.06049 12.1284 5.04445 12.122C5.02842 12.1156 5.01115 12.1121 4.9938 12.1122H0.307278C0.232634 12.1121 0.16077 12.1399 0.106519 12.1897C0.0522681 12.2394 0.0198336 12.3078 0.0156555 12.3801C0.00517757 12.5539 0 12.7291 0 12.906V18.0867C0 18.2134 0.0517128 18.3348 0.143969 18.4244C0.236226 18.514 0.361297 18.5645 0.491767 18.5645H5.82753C8.35941 18.5645 10.7875 17.5877 12.5778 15.8493C14.3681 14.1108 15.3737 11.7529 15.3737 9.29434V4.1136C15.3735 3.98723 15.3218 3.86583 15.2297 3.77647C15.1377 3.68711 15.013 3.63691 14.8829 3.63667Z" fill="#9BB30D"/>
</svg>
